<?xml version="1.0" encoding="UTF-8" standalone="no"?>
<svg
   x="0"
   y="0"
   width="301"
   height="66.43"
   style="fill:none"
   version="1.1"
   id="svg52"
   sodipodi:docname="diagram-1.svg"
   xmlns:inkscape="http://www.inkscape.org/namespaces/inkscape"
   xmlns:sodipodi="http://sodipodi.sourceforge.net/DTD/sodipodi-0.dtd"
   xmlns="http://www.w3.org/2000/svg"
   xmlns:svg="http://www.w3.org/2000/svg">
  <defs
     id="defs52" />
  <sodipodi:namedview
     id="namedview52"
     pagecolor="#ffffff"
     bordercolor="#000000"
     borderopacity="0.25"
     inkscape:showpageshadow="2"
     inkscape:pageopacity="0.0"
     inkscape:pagecheckerboard="0"
     inkscape:deskcolor="#d1d1d1" />
  <svg
     class="role-diagram-draw-area"
     style="overflow:visible"
     version="1.1"
     id="svg11"
     width="100%"
     height="100%"
     transform="translate(-262.75,-38.07)">
    <g
       class="shapes-region"
       style="fill:none;stroke:#000000"
       id="g8">
      <g
         class="composite-shape"
         id="g1">
        <path
           class="real"
           d="m 263.25,54 h 50 v 50 h -50 z"
           style="fill:none;fill-opacity:1;stroke:#000000;stroke-width:1px"
           id="path1" />
      </g>
      <g
         class="composite-shape"
         id="g2">
        <path
           class="real"
           d="m 313.25,54 h 50 v 50 h -50 z"
           style="fill:none;fill-opacity:1;stroke:#000000;stroke-width:1px"
           id="path2" />
      </g>
      <g
         class="composite-shape"
         id="g3">
        <path
           class="real"
           d="m 363.25,54 h 50 v 50 h -50 z"
           style="fill:none;fill-opacity:1;stroke:#000000;stroke-width:1px"
           id="path3" />
      </g>
      <g
         class="composite-shape"
         id="g4">
        <path
           class="real"
           d="m 463.25,54 h 50 v 50 h -50 z"
           style="fill:none;fill-opacity:1;stroke:#000000;stroke-width:1px"
           id="path4" />
      </g>
      <g
         class="composite-shape"
         id="g5">
        <path
           class="real"
           d="m 513.25,54 h 50 v 50 h -50 z"
           style="fill:none;fill-opacity:1;stroke:#000000;stroke-width:1px"
           id="path5" />
      </g>
      <g
         class="composite-shape"
         id="g6">
        <path
           class="real"
           d="m 288.29,62.11 12.75,-24.04 h -25.5 z"
           style="fill:#bd10e0;fill-opacity:1;stroke:none;stroke-width:1px;stroke-opacity:1"
           id="path6" />
      </g>
      <g
         id="g7" />
    </g>
    <g
       id="g9" />
    <g
       id="g10" />
    <g
       id="g11" />
  </svg>
  <svg
     width="700"
     height="300"
     style="font-family:LatinModern-Math, LatinModern, Asana-Math, Asana"
     version="1.1"
     id="svg51"
     transform="translate(-262.75,-38.07)">
    <g
       id="g15">
      <g
         id="g14">
        <g
           id="g13">
          <g
             transform="translate(430.85001,85.449997)"
             id="g12">
            <path
               transform="scale(0.017,-0.017)"
               d="m 162,250 c 0,29 -24,53 -53,53 -29,0 -53,-24 -53,-53 0,-29 24,-53 53,-53 29,0 53,24 53,53 z m 279,0 c 0,29 -24,53 -53,53 -29,0 -53,-24 -53,-53 0,-29 24,-53 53,-53 29,0 53,24 53,53 z m 279,0 c 0,29 -24,53 -53,53 -29,0 -53,-24 -53,-53 0,-29 24,-53 53,-53 29,0 53,24 53,53 z"
               stroke="#000000"
               stroke-opacity="1"
               stroke-width="8"
               fill="#000000"
               fill-opacity="1"
               id="path11" />
          </g>
        </g>
      </g>
    </g>
    <g
       id="g24">
      <g
         id="g23">
        <g
           id="g17">
          <g
             transform="translate(279.75,84.449997)"
             id="g16">
            <path
               transform="scale(0.017,-0.017)"
               d="m 498,143 c 0,10 -9,10 -12,10 -10,0 -11,-4 -14,-18 C 455,70 437,11 396,11 c -27,0 -30,26 -30,46 0,22 2,30 13,74 l 22,90 36,140 c 7,28 7,30 7,34 0,17 -12,27 -29,27 -24,0 -39,-22 -42,-44 -18,37 -47,64 -92,64 C 164,442 40,295 40,149 40,55 95,-11 173,-11 c 20,0 70,4 130,75 8,-42 43,-75 91,-75 35,0 58,23 74,55 17,36 30,99 30,99 z M 361,332 c 0,-6 -2,-12 -3,-17 L 308,119 C 303,101 303,99 288,82 244,27 203,11 175,11 c -50,0 -64,55 -64,94 0,50 32,173 55,219 31,59 76,96 116,96 65,0 79,-82 79,-88 z"
               stroke="#000000"
               stroke-opacity="1"
               stroke-width="8"
               fill="#000000"
               fill-opacity="1"
               id="path15" />
          </g>
        </g>
        <g
           id="g22">
          <g
             id="g21">
            <g
               id="g20">
              <g
                 id="g19">
                <g
                   transform="translate(289.26666,87.500006)"
                   id="g18">
                  <path
                     transform="scale(0.0119,-0.0119)"
                     d="m 460,320 c 0,80 -5,160 -40,234 C 374,650 292,666 250,666 190,666 117,640 76,547 44,478 39,400 39,320 39,245 43,155 84,79 127,-2 200,-22 249,-22 c 54,0 130,21 174,116 32,69 37,147 37,226 z m -83,12 C 377,257 377,189 366,125 351,30 294,0 249,0 210,0 151,25 133,121 c -11,60 -11,152 -11,211 0,64 0,130 8,184 19,119 94,128 119,128 33,0 99,-18 118,-117 10,-56 10,-132 10,-195 z"
                     stroke="#000000"
                     stroke-opacity="1"
                     stroke-width="8"
                     fill="#000000"
                     fill-opacity="1"
                     id="path17" />
                </g>
              </g>
            </g>
          </g>
        </g>
      </g>
    </g>
    <g
       id="g33">
      <g
         id="g32">
        <g
           id="g26">
          <g
             transform="translate(329.25,84.449997)"
             id="g25">
            <path
               transform="scale(0.017,-0.017)"
               d="m 498,143 c 0,10 -9,10 -12,10 -10,0 -11,-4 -14,-18 C 455,70 437,11 396,11 c -27,0 -30,26 -30,46 0,22 2,30 13,74 l 22,90 36,140 c 7,28 7,30 7,34 0,17 -12,27 -29,27 -24,0 -39,-22 -42,-44 -18,37 -47,64 -92,64 C 164,442 40,295 40,149 40,55 95,-11 173,-11 c 20,0 70,4 130,75 8,-42 43,-75 91,-75 35,0 58,23 74,55 17,36 30,99 30,99 z M 361,332 c 0,-6 -2,-12 -3,-17 L 308,119 C 303,101 303,99 288,82 244,27 203,11 175,11 c -50,0 -64,55 -64,94 0,50 32,173 55,219 31,59 76,96 116,96 65,0 79,-82 79,-88 z"
               stroke="#000000"
               stroke-opacity="1"
               stroke-width="8"
               fill="#000000"
               fill-opacity="1"
               id="path24" />
          </g>
        </g>
        <g
           id="g31">
          <g
             id="g30">
            <g
               id="g29">
              <g
                 id="g28">
                <g
                   transform="translate(338.76666,87.500006)"
                   id="g27">
                  <path
                     transform="scale(0.0119,-0.0119)"
                     d="m 419,0 v 31 h -32 c -90,0 -93,11 -93,48 v 561 c 0,24 0,26 -23,26 C 209,602 121,602 89,602 v -31 c 20,0 79,0 131,26 V 79 C 220,43 217,31 127,31 H 95 V 0 c 35,3 122,3 162,3 40,0 127,0 162,-3 z"
                     stroke="#000000"
                     stroke-opacity="1"
                     stroke-width="8"
                     fill="#000000"
                     fill-opacity="1"
                     id="path26" />
                </g>
              </g>
            </g>
          </g>
        </g>
      </g>
    </g>
    <g
       id="g42">
      <g
         id="g41">
        <g
           id="g35">
          <g
             transform="translate(383.53333,84.449997)"
             id="g34">
            <path
               transform="scale(0.017,-0.017)"
               d="m 498,143 c 0,10 -9,10 -12,10 -10,0 -11,-4 -14,-18 C 455,70 437,11 396,11 c -27,0 -30,26 -30,46 0,22 2,30 13,74 l 22,90 36,140 c 7,28 7,30 7,34 0,17 -12,27 -29,27 -24,0 -39,-22 -42,-44 -18,37 -47,64 -92,64 C 164,442 40,295 40,149 40,55 95,-11 173,-11 c 20,0 70,4 130,75 8,-42 43,-75 91,-75 35,0 58,23 74,55 17,36 30,99 30,99 z M 361,332 c 0,-6 -2,-12 -3,-17 L 308,119 C 303,101 303,99 288,82 244,27 203,11 175,11 c -50,0 -64,55 -64,94 0,50 32,173 55,219 31,59 76,96 116,96 65,0 79,-82 79,-88 z"
               stroke="#000000"
               stroke-opacity="1"
               stroke-width="8"
               fill="#000000"
               fill-opacity="1"
               id="path33" />
          </g>
        </g>
        <g
           id="g40">
          <g
             id="g39">
            <g
               id="g38">
              <g
                 id="g37">
                <g
                   transform="translate(393.04999,87.500006)"
                   id="g36">
                  <path
                     transform="scale(0.0119,-0.0119)"
                     d="m 449,174 h -25 c -5,-30 -12,-74 -22,-89 -7,-8 -73,-8 -95,-8 H 127 L 233,180 C 389,318 449,372 449,472 449,586 359,666 237,666 124,666 50,574 50,485 c 0,-56 50,-56 53,-56 17,0 52,12 52,53 0,26 -18,52 -53,52 -8,0 -10,0 -13,-1 23,65 77,102 135,102 91,0 134,-81 134,-163 0,-80 -50,-159 -105,-221 L 61,37 C 50,26 50,24 50,0 h 371 z"
                     stroke="#000000"
                     stroke-opacity="1"
                     stroke-width="8"
                     fill="#000000"
                     fill-opacity="1"
                     id="path35" />
                </g>
              </g>
            </g>
          </g>
        </g>
      </g>
    </g>
    <g
       id="g51">
      <g
         id="g50">
        <g
           id="g44">
          <g
             transform="translate(475.81665,84.449997)"
             id="g43">
            <path
               transform="scale(0.017,-0.017)"
               d="m 498,143 c 0,10 -9,10 -12,10 -10,0 -11,-4 -14,-18 C 455,70 437,11 396,11 c -27,0 -30,26 -30,46 0,22 2,30 13,74 l 22,90 36,140 c 7,28 7,30 7,34 0,17 -12,27 -29,27 -24,0 -39,-22 -42,-44 -18,37 -47,64 -92,64 C 164,442 40,295 40,149 40,55 95,-11 173,-11 c 20,0 70,4 130,75 8,-42 43,-75 91,-75 35,0 58,23 74,55 17,36 30,99 30,99 z M 361,332 c 0,-6 -2,-12 -3,-17 L 308,119 C 303,101 303,99 288,82 244,27 203,11 175,11 c -50,0 -64,55 -64,94 0,50 32,173 55,219 31,59 76,96 116,96 65,0 79,-82 79,-88 z"
               stroke="#000000"
               stroke-opacity="1"
               stroke-width="8"
               fill="#000000"
               fill-opacity="1"
               id="path42" />
          </g>
        </g>
        <g
           id="g49">
          <g
             id="g48">
            <g
               id="g47">
              <g
                 id="g46">
                <g
                   transform="translate(485.33334,87.4)"
                   id="g45">
                  <path
                     transform="scale(0.0119,-0.0119)"
                     d="m 571,143 c 0,10 -9,10 -12,10 -10,0 -10,-3 -15,-18 C 524,67 491,11 442,11 c -17,0 -24,10 -24,33 0,25 9,49 18,71 19,53 61,163 61,220 0,67 -43,107 -115,107 -90,0 -139,-64 -156,-87 -5,56 -46,87 -92,87 -46,0 -65,-39 -75,-57 -16,-34 -30,-93 -30,-97 0,-10 12,-10 12,-10 10,0 11,1 17,23 17,71 37,119 73,119 20,0 31,-13 31,-46 0,-21 -3,-32 -16,-84 L 88,59 C 85,44 79,21 79,16 c 0,-18 14,-27 29,-27 12,0 30,8 37,28 1,2 13,49 19,74 l 22,90 c 6,22 12,44 17,67 l 13,50 c 15,31 68,122 163,122 45,0 54,-37 54,-70 0,-62 -49,-190 -65,-233 -9,-23 -10,-35 -10,-46 0,-47 35,-82 82,-82 94,0 131,146 131,154 z m 751,107 c 0,11 -9,20 -20,20 H 676 c -11,0 -20,-9 -20,-20 0,-11 9,-20 20,-20 h 626 c 11,0 20,9 20,20 z M 1797,0 v 31 h -32 c -90,0 -93,11 -93,48 v 561 c 0,24 0,26 -23,26 -62,-64 -150,-64 -182,-64 v -31 c 20,0 79,0 131,26 V 79 c 0,-36 -3,-48 -93,-48 h -32 V 0 c 35,3 122,3 162,3 40,0 127,0 162,-3 z"
                     stroke="#000000"
                     stroke-opacity="1"
                     stroke-width="8"
                     fill="#000000"
                     fill-opacity="1"
                     id="path44" />
                </g>
              </g>
            </g>
          </g>
        </g>
      </g>
    </g>
  </svg>
</svg>
