<svg xmlns="http://www.w3.org/2000/svg" xmlns:xlink="http://www.w3.org/1999/xlink" x="0" y="0" width="702" height="332.6666666666667" style="
        width:702px;
        height:332.6666666666667px;
        background: transparent;
        fill: none;
">
        
        
        <svg xmlns="http://www.w3.org/2000/svg" class="role-diagram-draw-area" style="overflow: visible;"><g class="shapes-region" style="stroke: black; fill: none;"><g class="composite-shape"><path class="real" d=" M24,85.38 C24,51.75 37.1,24.5 53.25,24.5 C69.4,24.5 82.5,51.75 82.5,85.38 C82.5,119 69.4,146.25 53.25,146.25 C37.1,146.25 24,119 24,85.38 Z" style="stroke-width: 1px; stroke: rgb(0, 104, 255); fill: none; fill-opacity: 1; stroke-opacity: 1;"/></g><g class="composite-shape"><path class="real" d=" M144,85.38 C144,51.75 157.1,24.5 173.25,24.5 C189.4,24.5 202.5,51.75 202.5,85.38 C202.5,119 189.4,146.25 173.25,146.25 C157.1,146.25 144,119 144,85.38 Z" style="stroke-width: 1px; stroke: rgb(245, 166, 35); fill: none; fill-opacity: 1; stroke-opacity: 1;"/></g><g class="arrow-line"><path class="connection real" stroke-dasharray="" d="  M60,50 L160.52,63.97" style="stroke: rgb(33, 46, 58); stroke-width: 1px; fill: none; fill-opacity: 1; stroke-opacity: 1;"/><g stroke="rgb(33,46,58)" transform="matrix(-0.9904854595534363,-0.13761742045692527,0.13761742045692527,-0.9904854595534363,162.5,64.25000000000001)" style="stroke: rgb(33, 46, 58); stroke-width: 1px;" stroke-opacity="1"><path d=" M10.93,-3.29 Q4.96,-0.45 0,0 Q4.96,0.45 10.93,3.29"/></g></g><g class="arrow-line"><path class="connection real" stroke-dasharray="" d="  M60,86.25 L162.02,72.03" style="stroke: rgb(33, 46, 58); stroke-width: 1px; fill: none; fill-opacity: 1; stroke-opacity: 1;"/><g stroke="rgb(33,46,58)" transform="matrix(-0.9904132674702731,0.13813601854280114,-0.13813601854280114,-0.9904132674702731,164,71.75)" style="stroke: rgb(33, 46, 58); stroke-width: 1px;" stroke-opacity="1"><path d=" M10.93,-3.29 Q4.96,-0.45 0,0 Q4.96,0.45 10.93,3.29"/></g></g><g class="composite-shape"><path class="real" d=" M254.33,84.71 C254.33,51.09 267.43,23.83 283.58,23.83 C299.74,23.83 312.83,51.09 312.83,84.71 C312.83,118.33 299.74,145.58 283.58,145.58 C267.43,145.58 254.33,118.33 254.33,84.71 Z" style="stroke-width: 1px; stroke: rgb(0, 104, 255); stroke-opacity: 1; fill: none; fill-opacity: 1;"/></g><g class="composite-shape"><path class="real" d=" M374.33,84.71 C374.33,51.09 387.43,23.83 403.58,23.83 C419.74,23.83 432.83,51.09 432.83,84.71 C432.83,118.33 419.74,145.58 403.58,145.58 C387.43,145.58 374.33,118.33 374.33,84.71 Z" style="stroke-width: 1px; stroke: rgb(245, 166, 35); stroke-opacity: 1; fill: none; fill-opacity: 1;"/></g><g class="arrow-line"><path class="connection real" stroke-dasharray="" d="  M290.33,49.33 L390.85,63.31" style="stroke: rgb(33, 46, 58); stroke-opacity: 1; stroke-width: 1px; fill: none; fill-opacity: 1;"/><g stroke="rgb(33,46,58)" stroke-opacity="1" transform="matrix(-0.9904854595534363,-0.13761742045692527,0.13761742045692527,-0.9904854595534363,392.8333333333333,63.58333333333334)" style="stroke: rgb(33, 46, 58); stroke-width: 1px;"><path d=" M10.93,-3.29 Q4.96,-0.45 0,0 Q4.96,0.45 10.93,3.29"/></g></g><g class="arrow-line"><path class="connection real" stroke-dasharray="" d="  M290.33,85.58 L392.35,71.36" style="stroke: rgb(208, 2, 27); stroke-opacity: 1; stroke-width: 1px; fill: none; fill-opacity: 1;"/><g stroke="rgb(208,2,27)" stroke-opacity="1" transform="matrix(-0.9904132674702731,0.13813601854280114,-0.13813601854280114,-0.9904132674702731,394.33333333333337,71.08333333333333)" style="stroke: rgb(208, 2, 27); stroke-width: 1px;"><path d=" M10.93,-3.29 Q4.96,-0.45 0,0 Q4.96,0.45 10.93,3.29"/></g></g><g class="arrow-line"><path class="connection real" stroke-dasharray="" d="  M289.83,90.08 L390.35,104.3" style="stroke: rgb(208, 2, 27); stroke-opacity: 1; stroke-width: 1px; fill: none; fill-opacity: 1;"/><g stroke="rgb(208,2,27)" stroke-opacity="1" transform="matrix(-0.9901462402487812,-0.1400372197710414,0.1400372197710414,-0.9901462402487812,392.33333333333337,104.58333333333334)" style="stroke: rgb(208, 2, 27); stroke-width: 1px;"><path d=" M10.93,-3.29 Q4.96,-0.45 0,0 Q4.96,0.45 10.93,3.29"/></g></g><g class="arrow-line"><path class="connection real" stroke-dasharray="" d="  M63,121.25 Q65.12,118.42 67.95,120.55 Q70.78,122.68 72.9,119.85 Q75.02,117.02 77.85,119.15 Q80.68,121.28 82.8,118.45 Q84.92,115.62 87.75,117.75 Q90.58,119.88 92.7,117.05 Q94.83,114.22 97.66,116.35 Q100.49,118.48 102.61,115.65 Q104.73,112.82 107.56,114.95 L109,114.75 L109,114.75" style="stroke: rgb(208, 2, 27); stroke-opacity: 1; stroke-width: 1px; fill: none; fill-opacity: 1;"/></g><g class="composite-shape"><path class="real" d=" M141.33,246.04 C141.33,212.42 154.43,185.17 170.58,185.17 C186.74,185.17 199.83,212.42 199.83,246.04 C199.83,279.66 186.74,306.92 170.58,306.92 C154.43,306.92 141.33,279.66 141.33,246.04 Z" style="stroke-width: 1px; stroke: rgb(0, 104, 255); stroke-opacity: 1; fill: none; fill-opacity: 1;"/></g><g class="composite-shape"><path class="real" d=" M261.33,246.04 C261.33,212.42 274.43,185.17 290.58,185.17 C306.74,185.17 319.83,212.42 319.83,246.04 C319.83,279.66 306.74,306.92 290.58,306.92 C274.43,306.92 261.33,279.66 261.33,246.04 Z" style="stroke-width: 1px; stroke: rgb(245, 166, 35); stroke-opacity: 1; fill: none; fill-opacity: 1;"/></g><g class="arrow-line"><path class="connection real" stroke-dasharray="" d="  M177.33,210.67 L277.85,224.64" style="stroke: rgb(33, 46, 58); stroke-opacity: 1; stroke-width: 1px; fill: none; fill-opacity: 1;"/><g stroke="rgb(33,46,58)" stroke-opacity="1" transform="matrix(-0.9904854595534363,-0.13761742045692527,0.13761742045692527,-0.9904854595534363,279.8333333333334,224.91666666666663)" style="stroke: rgb(33, 46, 58); stroke-width: 1px;"><path d=" M10.93,-3.29 Q4.96,-0.45 0,0 Q4.96,0.45 10.93,3.29"/></g></g><g class="arrow-line"><path class="connection real" stroke-dasharray="" d="  M177.33,246.92 L279.35,232.69" style="stroke: rgb(33, 46, 58); stroke-opacity: 1; stroke-width: 1px; fill: none; fill-opacity: 1;"/><g stroke="rgb(33,46,58)" stroke-opacity="1" transform="matrix(-0.9904132674702731,0.13813601854280114,-0.13813601854280114,-0.9904132674702731,281.33333333333337,232.41666666666669)" style="stroke: rgb(33, 46, 58); stroke-width: 1px;"><path d=" M10.93,-3.29 Q4.96,-0.45 0,0 Q4.96,0.45 10.93,3.29"/></g></g><g class="arrow-line"><path class="connection real" stroke-dasharray="" d="  M178.67,281.17 L277.36,266.22" style="stroke: rgb(33, 46, 58); stroke-opacity: 1; stroke-width: 1px; fill: none; fill-opacity: 1;"/><g stroke="rgb(33,46,58)" stroke-opacity="1" transform="matrix(-0.9887302671466055,0.1497079117087744,-0.1497079117087744,-0.9887302671466055,279.3333333333334,265.91666666666663)" style="stroke: rgb(33, 46, 58); stroke-width: 1px;"><path d=" M10.93,-3.29 Q4.96,-0.45 0,0 Q4.96,0.45 10.93,3.29"/></g></g><g/></g><g/><g/><g/></svg>
        <svg xmlns="http://www.w3.org/2000/svg" xmlns:xlink="http://www.w3.org/1999/xlink" width="700" height="330.6666666666667" style="width:700px;height:330.6666666666667px;font-family:LatinModern-Math, LatinModern, Asana-Math, Asana;background:transparent;"><g><g><g><g transform="matrix(1,0,0,1,46.5,53.45555623372396)"><path transform="matrix(0.017,0,0,-0.017,0,0)" d="M460 320C460 400 455 480 420 554C374 650 292 666 250 666C190 666 117 640 76 547C44 478 39 400 39 320C39 245 43 155 84 79C127 -2 200 -22 249 -22C303 -22 379 -1 423 94C455 163 460 241 460 320ZM377 332C377 257 377 189 366 125C351 30 294 0 249 0C210 0 151 25 133 121C122 181 122 273 122 332C122 396 122 462 130 516C149 635 224 644 249 644C282 644 348 626 367 527C377 471 377 395 377 332Z" stroke="rgb(0,0,0)" stroke-opacity="1" stroke-width="8" fill="rgb(0,0,0)" fill-opacity="1"></path></g></g></g></g><g><g><g><g transform="matrix(1,0,0,1,46.5,89.95556640625)"><path transform="matrix(0.017,0,0,-0.017,0,0)" d="M419 0L419 31L387 31C297 31 294 42 294 79L294 640C294 664 294 666 271 666C209 602 121 602 89 602L89 571C109 571 168 571 220 597L220 79C220 43 217 31 127 31L95 31L95 0C130 3 217 3 257 3C297 3 384 3 419 0Z" stroke="rgb(0,0,0)" stroke-opacity="1" stroke-width="8" fill="rgb(0,0,0)" fill-opacity="1"></path></g></g></g></g><g><g><g><g transform="matrix(1,0,0,1,46.5,126.95556640625)"><path transform="matrix(0.017,0,0,-0.017,0,0)" d="M449 174L424 174C419 144 412 100 402 85C395 77 329 77 307 77L127 77L233 180C389 318 449 372 449 472C449 586 359 666 237 666C124 666 50 574 50 485C50 429 100 429 103 429C120 429 155 441 155 482C155 508 137 534 102 534C94 534 92 534 89 533C112 598 166 635 224 635C315 635 358 554 358 472C358 392 308 313 253 251L61 37C50 26 50 24 50 0L421 0Z" stroke="rgb(208,2,27)" stroke-opacity="1" stroke-width="8" fill="rgb(208,2,27)" fill-opacity="1"></path></g></g></g></g><g><g><g><g transform="matrix(1,0,0,1,167.5,68.44444783528645)"><path transform="matrix(0.017,0,0,-0.017,0,0)" d="M498 143C498 153 489 153 486 153C476 153 475 149 472 135C455 70 437 11 396 11C369 11 366 37 366 57C366 79 368 87 379 131L401 221L437 361C444 389 444 391 444 395C444 412 432 422 415 422C391 422 376 400 373 378C355 415 326 442 281 442C164 442 40 295 40 149C40 55 95 -11 173 -11C193 -11 243 -7 303 64C311 22 346 -11 394 -11C429 -11 452 12 468 44C485 80 498 143 498 143ZM361 332C361 326 359 320 358 315L308 119C303 101 303 99 288 82C244 27 203 11 175 11C125 11 111 66 111 105C111 155 143 278 166 324C197 383 242 420 282 420C347 420 361 338 361 332Z" stroke="rgb(0,0,0)" stroke-opacity="1" stroke-width="8" fill="rgb(0,0,0)" fill-opacity="1"></path></g></g></g></g><g><g><g><g transform="matrix(1,0,0,1,168,109.95556640625)"><path transform="matrix(0.017,0,0,-0.017,0,0)" d="M415 282C415 373 362 442 282 442C236 442 195 413 165 382L239 683C239 683 239 694 226 694C203 694 130 686 104 684C96 683 85 682 85 664C85 652 94 652 109 652C157 652 159 645 159 635C159 628 150 594 145 573L63 247C51 197 47 181 47 146C47 51 100 -11 174 -11C292 -11 415 138 415 282ZM343 326C343 267 310 152 292 114C259 47 213 11 174 11C140 11 107 38 107 112C107 131 107 150 123 213L145 305C151 327 151 329 160 340C209 405 254 420 280 420C316 420 343 390 343 326Z" stroke="rgb(0,0,0)" stroke-opacity="1" stroke-width="8" fill="rgb(0,0,0)" fill-opacity="1"></path></g></g></g></g><g><g><g><g transform="matrix(1,0,0,1,16.5,37.95555623372396)"><path transform="matrix(0.017,0,0,-0.017,0,0)" d="M851 672C851 672 851 683 838 683C808 683 775 680 744 680C707 680 669 683 633 683C627 683 614 683 614 663C614 656 619 653 626 652C635 651 666 649 666 621C666 607 655 594 647 585L485 411L401 610L396 623C396 629 413 648 455 652C465 653 475 654 475 671C475 683 463 683 460 683C419 683 376 680 334 680C309 680 247 683 222 683C216 683 204 683 204 663C204 652 214 652 227 652C287 652 293 642 302 620L420 341L209 114C203 109 202 108 196 103C147 50 100 34 49 31C36 30 27 30 27 11C27 11 27 0 40 0C70 0 103 3 134 3C171 3 210 0 246 0C252 0 264 0 264 20C264 30 252 31 252 31C243 32 212 34 212 62C212 78 227 94 239 107L341 215L431 313L532 74L537 60C537 52 518 35 479 31C468 30 459 29 459 12C459 0 470 0 474 0L600 3C625 3 686 0 711 0C718 0 730 0 730 19C730 31 720 31 712 31C645 32 643 35 626 75L497 384C565 454 670 573 702 601C731 625 769 649 829 652C842 653 851 653 851 672Z" stroke="rgb(0,104,255)" stroke-opacity="1" stroke-width="8" fill="rgb(0,104,255)" fill-opacity="1"></path></g></g></g></g><g><g><g><g transform="matrix(1,0,0,1,196.5,37.95555623372396)"><path transform="matrix(0.017,0,0,-0.017,0,0)" d="M762 671C762 679 757 683 749 683C723 683 694 680 667 680C634 680 599 683 567 683C561 683 548 683 548 664C548 653 558 652 563 652C570 652 599 650 599 629C599 612 576 586 572 581L340 314L230 611C224 625 224 628 224 628C224 652 273 652 283 652C297 652 307 652 307 672C307 683 295 683 292 683L166 680C141 680 79 683 54 683C48 683 35 683 35 663C35 652 45 652 58 652C118 652 122 643 131 618L254 289C255 286 258 275 258 272C258 269 218 108 213 90C200 35 199 32 119 31C100 31 92 31 92 11C92 0 106 0 106 0L232 3L360 0C367 0 379 0 379 20C379 31 370 31 351 31C351 31 330 31 313 33C292 35 286 37 286 49C286 56 295 91 300 112L335 253C340 272 341 275 349 284L597 569L611 583C641 613 674 647 742 652C753 653 762 653 762 671Z" stroke="rgb(245,166,35)" stroke-opacity="1" stroke-width="8" fill="rgb(245,166,35)" fill-opacity="1"></path></g></g></g></g><g><g><g><g transform="matrix(1,0,0,1,103,45.95555623372396)"><path transform="matrix(0.017,0,0,-0.017,0,0)" d="M552 636C552 682 506 705 465 705C431 705 368 687 338 588C332 567 329 557 305 431L236 431C217 431 206 431 206 412C206 400 215 400 234 400L300 400L225 5C207 -92 190 -183 138 -183C134 -183 109 -183 90 -165C136 -162 145 -126 145 -111C145 -88 127 -76 108 -76C82 -76 53 -98 53 -136C53 -181 97 -205 138 -205C193 -205 233 -146 251 -108C283 -45 306 76 307 83L367 400L453 400C473 400 483 400 483 420C483 431 473 431 456 431L373 431C384 489 383 487 394 545C398 566 412 637 418 649C427 668 444 683 465 683C469 683 495 683 514 665C470 661 460 626 460 611C460 588 478 576 497 576C523 576 552 598 552 636Z" stroke="rgb(208,2,27)" stroke-opacity="1" stroke-width="8" fill="rgb(208,2,27)" fill-opacity="1"></path></g></g></g></g><g><g><g><g transform="matrix(1,0,0,1,276.8333333333333,52.78888956705729)"><path transform="matrix(0.017,0,0,-0.017,0,0)" d="M460 320C460 400 455 480 420 554C374 650 292 666 250 666C190 666 117 640 76 547C44 478 39 400 39 320C39 245 43 155 84 79C127 -2 200 -22 249 -22C303 -22 379 -1 423 94C455 163 460 241 460 320ZM377 332C377 257 377 189 366 125C351 30 294 0 249 0C210 0 151 25 133 121C122 181 122 273 122 332C122 396 122 462 130 516C149 635 224 644 249 644C282 644 348 626 367 527C377 471 377 395 377 332Z" stroke="rgb(0,0,0)" stroke-opacity="1" stroke-width="8" fill="rgb(0,0,0)" fill-opacity="1"></path></g></g></g></g><g><g><g><g transform="matrix(1,0,0,1,276.8333333333333,89.28889973958333)"><path transform="matrix(0.017,0,0,-0.017,0,0)" d="M419 0L419 31L387 31C297 31 294 42 294 79L294 640C294 664 294 666 271 666C209 602 121 602 89 602L89 571C109 571 168 571 220 597L220 79C220 43 217 31 127 31L95 31L95 0C130 3 217 3 257 3C297 3 384 3 419 0Z" stroke="rgb(0,0,0)" stroke-opacity="1" stroke-width="8" fill="rgb(0,0,0)" fill-opacity="1"></path></g></g></g></g><g><g><g><g transform="matrix(1,0,0,1,276.8333333333333,126.28889973958333)"><path transform="matrix(0.017,0,0,-0.017,0,0)" d="M449 174L424 174C419 144 412 100 402 85C395 77 329 77 307 77L127 77L233 180C389 318 449 372 449 472C449 586 359 666 237 666C124 666 50 574 50 485C50 429 100 429 103 429C120 429 155 441 155 482C155 508 137 534 102 534C94 534 92 534 89 533C112 598 166 635 224 635C315 635 358 554 358 472C358 392 308 313 253 251L61 37C50 26 50 24 50 0L421 0Z" stroke="rgb(0,0,0)" stroke-opacity="1" stroke-width="8" fill="rgb(0,0,0)" fill-opacity="1"></path></g></g></g></g><g><g><g><g transform="matrix(1,0,0,1,397.8333333333333,67.7888895670573)"><path transform="matrix(0.017,0,0,-0.017,0,0)" d="M498 143C498 153 489 153 486 153C476 153 475 149 472 135C455 70 437 11 396 11C369 11 366 37 366 57C366 79 368 87 379 131L401 221L437 361C444 389 444 391 444 395C444 412 432 422 415 422C391 422 376 400 373 378C355 415 326 442 281 442C164 442 40 295 40 149C40 55 95 -11 173 -11C193 -11 243 -7 303 64C311 22 346 -11 394 -11C429 -11 452 12 468 44C485 80 498 143 498 143ZM361 332C361 326 359 320 358 315L308 119C303 101 303 99 288 82C244 27 203 11 175 11C125 11 111 66 111 105C111 155 143 278 166 324C197 383 242 420 282 420C347 420 361 338 361 332Z" stroke="rgb(0,0,0)" stroke-opacity="1" stroke-width="8" fill="rgb(0,0,0)" fill-opacity="1"></path></g></g></g></g><g><g><g><g transform="matrix(1,0,0,1,398.3333333333333,109.28889973958333)"><path transform="matrix(0.017,0,0,-0.017,0,0)" d="M415 282C415 373 362 442 282 442C236 442 195 413 165 382L239 683C239 683 239 694 226 694C203 694 130 686 104 684C96 683 85 682 85 664C85 652 94 652 109 652C157 652 159 645 159 635C159 628 150 594 145 573L63 247C51 197 47 181 47 146C47 51 100 -11 174 -11C292 -11 415 138 415 282ZM343 326C343 267 310 152 292 114C259 47 213 11 174 11C140 11 107 38 107 112C107 131 107 150 123 213L145 305C151 327 151 329 160 340C209 405 254 420 280 420C316 420 343 390 343 326Z" stroke="rgb(0,0,0)" stroke-opacity="1" stroke-width="8" fill="rgb(0,0,0)" fill-opacity="1"></path></g></g></g></g><g><g><g><g transform="matrix(1,0,0,1,246.83333333333331,37.28888956705729)"><path transform="matrix(0.017,0,0,-0.017,0,0)" d="M851 672C851 672 851 683 838 683C808 683 775 680 744 680C707 680 669 683 633 683C627 683 614 683 614 663C614 656 619 653 626 652C635 651 666 649 666 621C666 607 655 594 647 585L485 411L401 610L396 623C396 629 413 648 455 652C465 653 475 654 475 671C475 683 463 683 460 683C419 683 376 680 334 680C309 680 247 683 222 683C216 683 204 683 204 663C204 652 214 652 227 652C287 652 293 642 302 620L420 341L209 114C203 109 202 108 196 103C147 50 100 34 49 31C36 30 27 30 27 11C27 11 27 0 40 0C70 0 103 3 134 3C171 3 210 0 246 0C252 0 264 0 264 20C264 30 252 31 252 31C243 32 212 34 212 62C212 78 227 94 239 107L341 215L431 313L532 74L537 60C537 52 518 35 479 31C468 30 459 29 459 12C459 0 470 0 474 0L600 3C625 3 686 0 711 0C718 0 730 0 730 19C730 31 720 31 712 31C645 32 643 35 626 75L497 384C565 454 670 573 702 601C731 625 769 649 829 652C842 653 851 653 851 672Z" stroke="rgb(0,104,255)" stroke-opacity="1" stroke-width="8" fill="rgb(0,104,255)" fill-opacity="1"></path></g></g></g></g><g><g><g><g transform="matrix(1,0,0,1,426.8333333333333,37.28888956705729)"><path transform="matrix(0.017,0,0,-0.017,0,0)" d="M762 671C762 679 757 683 749 683C723 683 694 680 667 680C634 680 599 683 567 683C561 683 548 683 548 664C548 653 558 652 563 652C570 652 599 650 599 629C599 612 576 586 572 581L340 314L230 611C224 625 224 628 224 628C224 652 273 652 283 652C297 652 307 652 307 672C307 683 295 683 292 683L166 680C141 680 79 683 54 683C48 683 35 683 35 663C35 652 45 652 58 652C118 652 122 643 131 618L254 289C255 286 258 275 258 272C258 269 218 108 213 90C200 35 199 32 119 31C100 31 92 31 92 11C92 0 106 0 106 0L232 3L360 0C367 0 379 0 379 20C379 31 370 31 351 31C351 31 330 31 313 33C292 35 286 37 286 49C286 56 295 91 300 112L335 253C340 272 341 275 349 284L597 569L611 583C641 613 674 647 742 652C753 653 762 653 762 671Z" stroke="rgb(245,166,35)" stroke-opacity="1" stroke-width="8" fill="rgb(245,166,35)" fill-opacity="1"></path></g></g></g></g><g><g><g><g transform="matrix(1,0,0,1,333.3333333333333,45.28888956705729)"><path transform="matrix(0.017,0,0,-0.017,0,0)" d="M552 636C552 682 506 705 465 705C431 705 368 687 338 588C332 567 329 557 305 431L236 431C217 431 206 431 206 412C206 400 215 400 234 400L300 400L225 5C207 -92 190 -183 138 -183C134 -183 109 -183 90 -165C136 -162 145 -126 145 -111C145 -88 127 -76 108 -76C82 -76 53 -98 53 -136C53 -181 97 -205 138 -205C193 -205 233 -146 251 -108C283 -45 306 76 307 83L367 400L453 400C473 400 483 400 483 420C483 431 473 431 456 431L373 431C384 489 383 487 394 545C398 566 412 637 418 649C427 668 444 683 465 683C469 683 495 683 514 665C470 661 460 626 460 611C460 588 478 576 497 576C523 576 552 598 552 636Z" stroke="rgb(208,2,27)" stroke-opacity="1" stroke-width="8" fill="rgb(208,2,27)" fill-opacity="1"></path></g></g></g></g><g><g><g><text x="73.5" y="129.69999186197916" style="white-space:pre;stroke:none;fill:rgb(208,2,27);fill-opacity:1;font-size:13.5px;font-family:&quot;Times New Roman&quot;, Times, serif;font-weight:400;font-style:normal;dominant-baseline:text-before-edge;text-decoration:rgb(208, 2, 27);">missing value </text></g></g><g><g><text x="96.86665852864583" y="149.5888875325521" style="white-space:pre;stroke:none;fill:rgb(208,2,27);fill-opacity:1;font-size:13.5px;font-family:&quot;Times New Roman&quot;, Times, serif;font-weight:400;font-style:normal;dominant-baseline:text-before-edge;text-decoration:rgb(208, 2, 27);">for </text></g><g><g><g><g><g transform="matrix(1,0,0,1,116,161.8888875325521)"><path transform="matrix(0.015300000000000001,0,0,-0.015300000000000001,0,0)" d="M449 174L424 174C419 144 412 100 402 85C395 77 329 77 307 77L127 77L233 180C389 318 449 372 449 472C449 586 359 666 237 666C124 666 50 574 50 485C50 429 100 429 103 429C120 429 155 441 155 482C155 508 137 534 102 534C94 534 92 534 89 533C112 598 166 635 224 635C315 635 358 554 358 472C358 392 308 313 253 251L61 37C50 26 50 24 50 0L421 0Z" stroke="rgb(208,2,27)" stroke-opacity="1" stroke-width="8" fill="rgb(208,2,27)" fill-opacity="1"></path></g></g></g></g></g><g><text x="123.64444986979166" y="149.5888875325521" style="white-space:pre;stroke:none;fill:rgb(208,2,27);fill-opacity:1;font-size:13.5px;font-family:&quot;Times New Roman&quot;, Times, serif;font-weight:400;font-style:normal;dominant-baseline:text-before-edge;text-decoration:rgb(208, 2, 27);">!</text></g></g></g><g><g><g><text x="113.36665852864584" y="102.19999186197917" style="white-space:pre;stroke:none;fill:rgb(208,2,27);fill-opacity:1;font-size:13.5px;font-family:&quot;Times New Roman&quot;, Times, serif;font-weight:400;font-style:normal;dominant-baseline:text-before-edge;text-decoration:rgb(208, 2, 27);">?</text></g></g></g><g><g><g><text x="314.8999837239583" y="119.5333251953125" style="white-space:pre;stroke:none;fill:rgb(208,2,27);fill-opacity:1;font-size:13.5px;font-family:&quot;Times New Roman&quot;, Times, serif;font-weight:400;font-style:normal;dominant-baseline:text-before-edge;text-decoration:rgb(208, 2, 27);">too many </text></g></g><g><g><text x="307.3333333333333" y="139.4222208658854" style="white-space:pre;stroke:none;fill:rgb(208,2,27);fill-opacity:1;font-size:13.5px;font-family:&quot;Times New Roman&quot;, Times, serif;font-weight:400;font-style:normal;dominant-baseline:text-before-edge;text-decoration:rgb(208, 2, 27);">values for </text></g><g><g><g><g><g transform="matrix(1,0,0,1,364.3555501302083,151.72222086588542)"><path transform="matrix(0.015300000000000001,0,0,-0.015300000000000001,0,0)" d="M419 0L419 31L387 31C297 31 294 42 294 79L294 640C294 664 294 666 271 666C209 602 121 602 89 602L89 571C109 571 168 571 220 597L220 79C220 43 217 31 127 31L95 31L95 0C130 3 217 3 257 3C297 3 384 3 419 0Z" stroke="rgb(208,2,27)" stroke-opacity="1" stroke-width="8" fill="rgb(208,2,27)" fill-opacity="1"></path></g></g></g></g></g><g><text x="372" y="139.4222208658854" style="white-space:pre;stroke:none;fill:rgb(208,2,27);fill-opacity:1;font-size:13.5px;font-family:&quot;Times New Roman&quot;, Times, serif;font-weight:400;font-style:normal;dominant-baseline:text-before-edge;text-decoration:rgb(208, 2, 27);">!</text></g></g></g><g><g><g><g transform="matrix(1,0,0,1,163.83333333333334,214.12223307291666)"><path transform="matrix(0.017,0,0,-0.017,0,0)" d="M460 320C460 400 455 480 420 554C374 650 292 666 250 666C190 666 117 640 76 547C44 478 39 400 39 320C39 245 43 155 84 79C127 -2 200 -22 249 -22C303 -22 379 -1 423 94C455 163 460 241 460 320ZM377 332C377 257 377 189 366 125C351 30 294 0 249 0C210 0 151 25 133 121C122 181 122 273 122 332C122 396 122 462 130 516C149 635 224 644 249 644C282 644 348 626 367 527C377 471 377 395 377 332Z" stroke="rgb(0,0,0)" stroke-opacity="1" stroke-width="8" fill="rgb(0,0,0)" fill-opacity="1"></path></g></g></g></g><g><g><g><g transform="matrix(1,0,0,1,163.83333333333334,250.62223307291666)"><path transform="matrix(0.017,0,0,-0.017,0,0)" d="M419 0L419 31L387 31C297 31 294 42 294 79L294 640C294 664 294 666 271 666C209 602 121 602 89 602L89 571C109 571 168 571 220 597L220 79C220 43 217 31 127 31L95 31L95 0C130 3 217 3 257 3C297 3 384 3 419 0Z" stroke="rgb(0,0,0)" stroke-opacity="1" stroke-width="8" fill="rgb(0,0,0)" fill-opacity="1"></path></g></g></g></g><g><g><g><g transform="matrix(1,0,0,1,163.83333333333334,287.6222330729167)"><path transform="matrix(0.017,0,0,-0.017,0,0)" d="M449 174L424 174C419 144 412 100 402 85C395 77 329 77 307 77L127 77L233 180C389 318 449 372 449 472C449 586 359 666 237 666C124 666 50 574 50 485C50 429 100 429 103 429C120 429 155 441 155 482C155 508 137 534 102 534C94 534 92 534 89 533C112 598 166 635 224 635C315 635 358 554 358 472C358 392 308 313 253 251L61 37C50 26 50 24 50 0L421 0Z" stroke="rgb(0,0,0)" stroke-opacity="1" stroke-width="8" fill="rgb(0,0,0)" fill-opacity="1"></path></g></g></g></g><g><g><g><g transform="matrix(1,0,0,1,284.8333333333333,229.12223307291666)"><path transform="matrix(0.017,0,0,-0.017,0,0)" d="M498 143C498 153 489 153 486 153C476 153 475 149 472 135C455 70 437 11 396 11C369 11 366 37 366 57C366 79 368 87 379 131L401 221L437 361C444 389 444 391 444 395C444 412 432 422 415 422C391 422 376 400 373 378C355 415 326 442 281 442C164 442 40 295 40 149C40 55 95 -11 173 -11C193 -11 243 -7 303 64C311 22 346 -11 394 -11C429 -11 452 12 468 44C485 80 498 143 498 143ZM361 332C361 326 359 320 358 315L308 119C303 101 303 99 288 82C244 27 203 11 175 11C125 11 111 66 111 105C111 155 143 278 166 324C197 383 242 420 282 420C347 420 361 338 361 332Z" stroke="rgb(0,0,0)" stroke-opacity="1" stroke-width="8" fill="rgb(0,0,0)" fill-opacity="1"></path></g></g></g></g><g><g><g><g transform="matrix(1,0,0,1,285.3333333333333,270.6222330729167)"><path transform="matrix(0.017,0,0,-0.017,0,0)" d="M415 282C415 373 362 442 282 442C236 442 195 413 165 382L239 683C239 683 239 694 226 694C203 694 130 686 104 684C96 683 85 682 85 664C85 652 94 652 109 652C157 652 159 645 159 635C159 628 150 594 145 573L63 247C51 197 47 181 47 146C47 51 100 -11 174 -11C292 -11 415 138 415 282ZM343 326C343 267 310 152 292 114C259 47 213 11 174 11C140 11 107 38 107 112C107 131 107 150 123 213L145 305C151 327 151 329 160 340C209 405 254 420 280 420C316 420 343 390 343 326Z" stroke="rgb(0,0,0)" stroke-opacity="1" stroke-width="8" fill="rgb(0,0,0)" fill-opacity="1"></path></g></g></g></g><g><g><g><g transform="matrix(1,0,0,1,133.83333333333334,198.62223307291666)"><path transform="matrix(0.017,0,0,-0.017,0,0)" d="M851 672C851 672 851 683 838 683C808 683 775 680 744 680C707 680 669 683 633 683C627 683 614 683 614 663C614 656 619 653 626 652C635 651 666 649 666 621C666 607 655 594 647 585L485 411L401 610L396 623C396 629 413 648 455 652C465 653 475 654 475 671C475 683 463 683 460 683C419 683 376 680 334 680C309 680 247 683 222 683C216 683 204 683 204 663C204 652 214 652 227 652C287 652 293 642 302 620L420 341L209 114C203 109 202 108 196 103C147 50 100 34 49 31C36 30 27 30 27 11C27 11 27 0 40 0C70 0 103 3 134 3C171 3 210 0 246 0C252 0 264 0 264 20C264 30 252 31 252 31C243 32 212 34 212 62C212 78 227 94 239 107L341 215L431 313L532 74L537 60C537 52 518 35 479 31C468 30 459 29 459 12C459 0 470 0 474 0L600 3C625 3 686 0 711 0C718 0 730 0 730 19C730 31 720 31 712 31C645 32 643 35 626 75L497 384C565 454 670 573 702 601C731 625 769 649 829 652C842 653 851 653 851 672Z" stroke="rgb(0,104,255)" stroke-opacity="1" stroke-width="8" fill="rgb(0,104,255)" fill-opacity="1"></path></g></g></g></g><g><g><g><g transform="matrix(1,0,0,1,313.8333333333333,198.62223307291666)"><path transform="matrix(0.017,0,0,-0.017,0,0)" d="M762 671C762 679 757 683 749 683C723 683 694 680 667 680C634 680 599 683 567 683C561 683 548 683 548 664C548 653 558 652 563 652C570 652 599 650 599 629C599 612 576 586 572 581L340 314L230 611C224 625 224 628 224 628C224 652 273 652 283 652C297 652 307 652 307 672C307 683 295 683 292 683L166 680C141 680 79 683 54 683C48 683 35 683 35 663C35 652 45 652 58 652C118 652 122 643 131 618L254 289C255 286 258 275 258 272C258 269 218 108 213 90C200 35 199 32 119 31C100 31 92 31 92 11C92 0 106 0 106 0L232 3L360 0C367 0 379 0 379 20C379 31 370 31 351 31C351 31 330 31 313 33C292 35 286 37 286 49C286 56 295 91 300 112L335 253C340 272 341 275 349 284L597 569L611 583C641 613 674 647 742 652C753 653 762 653 762 671Z" stroke="rgb(245,166,35)" stroke-opacity="1" stroke-width="8" fill="rgb(245,166,35)" fill-opacity="1"></path></g></g></g></g><g><g><g><g transform="matrix(1,0,0,1,220.33333333333334,206.62223307291666)"><path transform="matrix(0.017,0,0,-0.017,0,0)" d="M552 636C552 682 506 705 465 705C431 705 368 687 338 588C332 567 329 557 305 431L236 431C217 431 206 431 206 412C206 400 215 400 234 400L300 400L225 5C207 -92 190 -183 138 -183C134 -183 109 -183 90 -165C136 -162 145 -126 145 -111C145 -88 127 -76 108 -76C82 -76 53 -98 53 -136C53 -181 97 -205 138 -205C193 -205 233 -146 251 -108C283 -45 306 76 307 83L367 400L453 400C473 400 483 400 483 420C483 431 473 431 456 431L373 431C384 489 383 487 394 545C398 566 412 637 418 649C427 668 444 683 465 683C469 683 495 683 514 665C470 661 460 626 460 611C460 588 478 576 497 576C523 576 552 598 552 636Z" stroke="rgb(65,117,5)" stroke-opacity="1" stroke-width="8" fill="rgb(65,117,5)" fill-opacity="1"></path></g></g></g></g><g><g><g><text x="199" y="280.1999918619792" style="white-space:pre;stroke:none;fill:rgb(65,117,5);fill-opacity:1;font-size:13.5px;font-family:&quot;Times New Roman&quot;, Times, serif;font-weight:400;font-style:normal;dominant-baseline:text-before-edge;text-decoration:rgb(65, 117, 5);">now </text></g><g><text x="225.63334147135416" y="280.1999918619792" style="white-space:pre;stroke:none;fill:rgb(65,117,5);fill-opacity:1;font-size:13.5px;font-family:&quot;Times New Roman&quot;, Times, serif;font-weight:400;font-style:italic;dominant-baseline:text-before-edge;text-decoration:rgb(65, 117, 5);">this</text></g><g><text x="245.13334147135419" y="280.1999918619792" style="white-space:pre;stroke:none;fill:rgb(65,117,5);fill-opacity:1;font-size:13.5px;font-family:&quot;Times New Roman&quot;, Times, serif;font-weight:400;font-style:normal;dominant-baseline:text-before-edge;text-decoration:rgb(65, 117, 5);"> is</text></g></g><g><g><text x="201.066650390625" y="299.1000162760417" style="white-space:pre;stroke:none;fill:rgb(65,117,5);fill-opacity:1;font-size:13.5px;font-family:&quot;Times New Roman&quot;, Times, serif;font-weight:400;font-style:normal;dominant-baseline:text-before-edge;text-decoration:rgb(65, 117, 5);">a function</text></g></g></g></svg>
</svg>
