<?xml version="1.0" encoding="UTF-8" standalone="no"?>
<svg
   x="0"
   y="0"
   width="422.96432"
   height="286.24997"
   style="fill:none"
   version="1.1"
   id="svg158"
   xmlns="http://www.w3.org/2000/svg"
   xmlns:svg="http://www.w3.org/2000/svg">
  <defs
     id="defs158" />
  <path
     class="real"
     d="m 7.1090007,62.05 c 0,-33.63 13.1000003,-60.88 29.2500003,-60.88 16.15,0 29.25,27.25 29.25,60.88 0,33.62 -13.1,60.87 -29.25,60.87 -16.15,0 -29.2500003,-27.25 -29.2500003,-60.87 z"
     style="fill:none;fill-opacity:1;stroke:#0068ff;stroke-width:1px;stroke-opacity:1"
     id="path1" />
  <path
     class="real"
     d="m 127.109,62.05 c 0,-33.63 13.1,-60.88 29.25,-60.88 16.15,0 29.25,27.25 29.25,60.88 0,33.62 -13.1,60.87 -29.25,60.87 -16.15,0 -29.25,-27.25 -29.25,-60.87 z"
     style="fill:none;fill-opacity:1;stroke:#f5a623;stroke-width:1px;stroke-opacity:1"
     id="path2" />
  <path
     class="connection real"
     stroke-dasharray="none"
     d="M 43.109001,26.67 143.629,40.64"
     style="fill:none;fill-opacity:1;stroke:#212e3a;stroke-width:1px;stroke-opacity:1"
     id="path3" />
  <path
     d="M 134.33023,42.674539 Q 140.63426,40.683137 145.609,40.920001 140.75812,39.7917 135.23576,36.157145"
     id="path4"
     style="fill:none;stroke:#212e3a;stroke-width:1px;stroke-opacity:1" />
  <path
     class="connection real"
     stroke-dasharray="none"
     d="M 43.109001,62.92 145.129,48.7"
     style="fill:none;fill-opacity:1;stroke:#212e3a;stroke-width:1px;stroke-opacity:1"
     id="path5" />
  <path
     d="M 136.73825,53.188286 Q 142.25871,49.55084 147.109,48.42 q -4.97461,0.239468 -11.27968,-1.748633"
     id="path6"
     style="fill:none;stroke:#212e3a;stroke-width:1px;stroke-opacity:1" />
  <path
     class="real"
     d="m 237.439,61.38 c 0,-33.62 13.1,-60.88 29.25,-60.88 16.16,0 29.25,27.26 29.25,60.88 0,33.62 -13.09,60.87 -29.25,60.87 -16.15,0 -29.25,-27.25 -29.25,-60.87 z"
     style="fill:none;fill-opacity:1;stroke:#0068ff;stroke-width:1px;stroke-opacity:1"
     id="path7" />
  <path
     class="real"
     d="m 357.439,61.38 c 0,-33.62 13.1,-60.88 29.25,-60.88 16.16,0 29.25,27.26 29.25,60.88 0,33.62 -13.09,60.87 -29.25,60.87 -16.15,0 -29.25,-27.25 -29.25,-60.87 z"
     style="fill:none;fill-opacity:1;stroke:#f5a623;stroke-width:1px;stroke-opacity:1"
     id="path8" />
  <path
     class="connection real"
     stroke-dasharray="none"
     d="m 273.439,26 100.52,13.98"
     style="fill:none;fill-opacity:1;stroke:#212e3a;stroke-width:1px;stroke-opacity:1"
     id="path9" />
  <path
     d="m 364.66357,42.007872 q 6.30403,-1.991403 11.27877,-1.754539 -4.85088,-1.128301 -10.37324,-4.762856"
     id="path10"
     style="fill:none;stroke:#212e3a;stroke-width:1px;stroke-opacity:1" />
  <path
     class="connection real"
     stroke-dasharray="none"
     d="M 273.439,62.25 375.459,48.03"
     style="fill:none;fill-opacity:1;stroke:#d0021b;stroke-width:1px;stroke-opacity:1"
     id="path11" />
  <path
     d="m 367.07158,52.52162 q 5.52046,-3.637446 10.37075,-4.768286 -4.97461,0.239468 -11.27968,-1.748633"
     id="path12"
     style="fill:none;stroke:#d0021b;stroke-width:1px;stroke-opacity:1" />
  <path
     class="connection real"
     stroke-dasharray="none"
     d="m 272.939,66.75 100.52,14.22"
     style="fill:none;fill-opacity:1;stroke:#d0021b;stroke-width:1px;stroke-opacity:1"
     id="path13" />
  <path
     d="m 364.15932,82.98031 q 6.30888,-1.97599 11.28302,-1.72698 -4.84811,-1.14015 -10.36157,-4.788184"
     id="path14"
     style="fill:none;stroke:#d0021b;stroke-width:1px;stroke-opacity:1" />
  <path
     class="connection real"
     stroke-dasharray="none"
     d="m 46.109001,97.92 q 2.12,-2.83 4.95,-0.7 2.83,2.13 4.95,-0.7 2.12,-2.83 4.95,-0.7 2.83,2.13 4.95,-0.7 2.12,-2.83 4.95,-0.7 2.83,2.13 4.95,-0.7 2.13,-2.83 4.96,-0.7 2.83,2.13 4.95,-0.7 2.12,-2.83 4.95,-0.7 l 1.44,-0.2 v 0"
     style="fill:none;fill-opacity:1;stroke:#d0021b;stroke-width:1px;stroke-opacity:1"
     id="path15" />
  <path
     class="real"
     d="m 124.439,222.71 c 0,-33.62 13.1,-60.87 29.25,-60.87 16.16,0 29.25,27.25 29.25,60.87 0,33.62 -13.09,60.88 -29.25,60.88 -16.15,0 -29.25,-27.26 -29.25,-60.88 z"
     style="fill:none;fill-opacity:1;stroke:#0068ff;stroke-width:1px;stroke-opacity:1"
     id="path16" />
  <path
     class="real"
     d="m 244.439,222.71 c 0,-33.62 13.1,-60.87 29.25,-60.87 16.16,0 29.25,27.25 29.25,60.87 0,33.62 -13.09,60.88 -29.25,60.88 -16.15,0 -29.25,-27.26 -29.25,-60.88 z"
     style="fill:none;fill-opacity:1;stroke:#f5a623;stroke-width:1px;stroke-opacity:1"
     id="path17" />
  <path
     class="connection real"
     stroke-dasharray="none"
     d="m 160.439,187.34 100.52,13.97"
     style="fill:none;fill-opacity:1;stroke:#212e3a;stroke-width:1px;stroke-opacity:1"
     id="path18" />
  <path
     d="m 251.66357,203.34121 q 6.30403,-1.9914 11.27877,-1.75454 -4.85088,-1.1283 -10.37325,-4.76286"
     id="path19"
     style="fill:none;stroke:#212e3a;stroke-width:1px;stroke-opacity:1" />
  <path
     class="connection real"
     stroke-dasharray="none"
     d="m 160.439,223.59 102.02,-14.23"
     style="fill:none;fill-opacity:1;stroke:#212e3a;stroke-width:1px;stroke-opacity:1"
     id="path20" />
  <path
     d="m 254.07158,213.85494 q 5.52046,-3.63744 10.37075,-4.76828 -4.97461,0.23947 -11.27968,-1.74864"
     id="path21"
     style="fill:none;stroke:#212e3a;stroke-width:1px;stroke-opacity:1" />
  <path
     class="connection real"
     stroke-dasharray="none"
     d="m 161.779,257.84 98.69,-14.95"
     style="fill:none;fill-opacity:1;stroke:#212e3a;stroke-width:1px;stroke-opacity:1"
     id="path22" />
  <path
     d="m 252.12805,247.4759 q 5.47755,-3.70175 10.31428,-4.88923 -4.97147,0.29762 -11.29936,-1.61662"
     id="path23"
     style="fill:none;stroke:#212e3a;stroke-width:1px;stroke-opacity:1" />
  <path
     d="m 37.429001,24.685556 c 0,-1.36 -0.085,-2.72 -0.68,-3.978 -0.782,-1.632 -2.176,-1.904 -2.89,-1.904 -1.02,0 -2.261,0.442 -2.958,2.023 -0.544,1.173 -0.629,2.499 -0.629,3.859 0,1.275 0.068,2.805 0.765,4.097 0.731,1.377 1.972,1.717 2.805,1.717 0.918,0 2.21,-0.357 2.958,-1.972 0.544,-1.173 0.629,-2.499 0.629,-3.842 z m -1.411,-0.204 c 0,1.275 0,2.431 -0.187,3.519 -0.255,1.615 -1.224,2.125 -1.989,2.125 -0.663,0 -1.666,-0.425 -1.972,-2.057 -0.187,-1.02 -0.187,-2.584 -0.187,-3.587 0,-1.088 0,-2.21 0.136,-3.128 0.323,-2.023 1.598,-2.176 2.023,-2.176 0.561,0 1.683,0.306 2.006,1.989 0.17,0.952 0.17,2.244 0.17,3.315 z"
     stroke="#000000"
     stroke-opacity="1"
     stroke-width="0.136"
     fill="#000000"
     fill-opacity="1"
     id="path29"
     style="font-family:LatinModern-Math, LatinModern, Asana-Math, Asana" />
  <path
     d="m 36.732001,66.625566 v -0.527 h -0.544 c -1.53,0 -1.581,-0.187 -1.581,-0.816 v -9.537 c 0,-0.408 0,-0.442 -0.391,-0.442 -1.054,1.088 -2.55,1.088 -3.094,1.088 v 0.527 c 0.34,0 1.343,0 2.227,-0.442 v 8.806 c 0,0.612 -0.051,0.816 -1.581,0.816 h -0.544 v 0.527 c 0.595,-0.051 2.074,-0.051 2.754,-0.051 0.68,0 2.159,0 2.754,0.051 z"
     stroke="#000000"
     stroke-opacity="1"
     stroke-width="0.136"
     fill="#000000"
     fill-opacity="1"
     id="path33"
     style="font-family:LatinModern-Math, LatinModern, Asana-Math, Asana" />
  <path
     d="m 37.242001,100.66757 h -0.425 c -0.085,0.51 -0.204,1.258 -0.374,1.513 -0.119,0.136 -1.241,0.136 -1.615,0.136 h -3.06 l 1.802,-1.751 c 2.652,-2.346 3.672,-3.264 3.672,-4.964 0,-1.938 -1.53,-3.298 -3.604,-3.298 -1.921,0 -3.179,1.564 -3.179,3.077 0,0.952 0.85,0.952 0.901,0.952 0.289,0 0.884,-0.204 0.884,-0.901 0,-0.442 -0.306,-0.884 -0.901,-0.884 -0.136,0 -0.17,0 -0.221,0.017 0.391,-1.105 1.309,-1.734 2.295,-1.734 1.547,0 2.278,1.377 2.278,2.771 0,1.36 -0.85,2.703 -1.785,3.757 l -3.264,3.638 c -0.187,0.187 -0.187,0.221 -0.187,0.629 h 6.307 z"
     stroke="#d0021b"
     stroke-opacity="1"
     stroke-width="0.136"
     fill="#d0021b"
     fill-opacity="1"
     id="path37"
     style="font-family:LatinModern-Math, LatinModern, Asana-Math, Asana" />
  <path
     d="m 159.075,42.683448 c 0,-0.17 -0.153,-0.17 -0.204,-0.17 -0.17,0 -0.187,0.068 -0.238,0.306 -0.289,1.105 -0.595,2.108 -1.292,2.108 -0.459,0 -0.51,-0.442 -0.51,-0.782 0,-0.374 0.034,-0.51 0.221,-1.258 l 0.374,-1.53 0.612,-2.38 c 0.119,-0.476 0.119,-0.51 0.119,-0.578 0,-0.289 -0.204,-0.459 -0.493,-0.459 -0.408,0 -0.663,0.374 -0.714,0.748 -0.306,-0.629 -0.799,-1.088 -1.564,-1.088 -1.989,0 -4.097,2.499 -4.097,4.981 0,1.598 0.935,2.72 2.261,2.72 0.34,0 1.19,-0.068 2.21,-1.275 0.136,0.714 0.731,1.275 1.547,1.275 0.595,0 0.986,-0.391 1.258,-0.935 0.289,-0.612 0.51,-1.683 0.51,-1.683 z m -2.329,-3.213 c 0,0.102 -0.034,0.204 -0.051,0.289 l -0.85,3.332 c -0.085,0.306 -0.085,0.34 -0.34,0.629 -0.748,0.935 -1.445,1.207 -1.921,1.207 -0.85,0 -1.088,-0.935 -1.088,-1.598 0,-0.85 0.544,-2.941 0.935,-3.723 0.527,-1.003 1.292,-1.632 1.972,-1.632 1.105,0 1.343,1.394 1.343,1.496 z"
     stroke="#000000"
     stroke-opacity="1"
     stroke-width="0.136"
     fill="#000000"
     fill-opacity="1"
     id="path41"
     style="font-family:LatinModern-Math, LatinModern, Asana-Math, Asana" />
  <path
     d="m 158.164,81.83157 c 0,-1.547 -0.901,-2.72 -2.261,-2.72 -0.782,0 -1.479,0.493 -1.989,1.02 l 1.258,-5.117 c 0,0 0,-0.187 -0.221,-0.187 -0.391,0 -1.632,0.136 -2.074,0.17 -0.136,0.017 -0.323,0.034 -0.323,0.34 0,0.204 0.153,0.204 0.408,0.204 0.816,0 0.85,0.119 0.85,0.289 0,0.119 -0.153,0.697 -0.238,1.054 l -1.394,5.542 c -0.204,0.85 -0.272,1.122 -0.272,1.717 0,1.615 0.901,2.669 2.159,2.669 2.006,0 4.097,-2.533 4.097,-4.981 z m -1.224,-0.748 c 0,1.003 -0.561,2.958 -0.867,3.604 -0.561,1.139 -1.343,1.751 -2.006,1.751 -0.578,0 -1.139,-0.459 -1.139,-1.717 0,-0.323 0,-0.646 0.272,-1.717 l 0.374,-1.564 c 0.102,-0.374 0.102,-0.408 0.255,-0.595 0.833,-1.105 1.598,-1.36 2.04,-1.36 0.612,0 1.071,0.51 1.071,1.598 z"
     stroke="#000000"
     stroke-opacity="1"
     stroke-width="0.136"
     fill="#000000"
     fill-opacity="1"
     id="path45"
     style="font-family:LatinModern-Math, LatinModern, Asana-Math, Asana" />
  <path
     d="m 14.076001,3.201556 c 0,0 0,-0.187 -0.221,-0.187 -0.51,0 -1.071,0.051 -1.598,0.051 -0.629,0 -1.275,-0.051 -1.887,-0.051 -0.102,0 -0.323,0 -0.323,0.34 0,0.119 0.085,0.17 0.204,0.187 0.153,0.017 0.68,0.051 0.68,0.527 0,0.238 -0.187,0.459 -0.323,0.612 l -2.7540003,2.958 -1.428,-3.383 -0.085,-0.221 c 0,-0.102 0.289,-0.425 1.003,-0.493 0.17,-0.017 0.34,-0.034 0.34,-0.323 0,-0.204 -0.204,-0.204 -0.255,-0.204 -0.697,0 -1.428,0.051 -2.142,0.051 -0.425,0 -1.479,-0.051 -1.904,-0.051 -0.102,0 -0.306,0 -0.306,0.34 0,0.187 0.17,0.187 0.391,0.187 1.02,0 1.122,0.17 1.275,0.544 l 2.006,4.743 -3.587,3.859 c -0.102,0.085 -0.119,0.102 -0.221,0.187 -0.833,0.901 -1.632,1.173 -2.49899999,1.224 -0.221,0.017 -0.374,0.017 -0.374,0.34 0,0 0,0.187 0.221,0.187 0.51,0 1.07099999,-0.051 1.59799999,-0.051 0.629,0 1.292,0.051 1.904,0.051 0.102,0 0.306,0 0.306,-0.34 0,-0.17 -0.204,-0.187 -0.204,-0.187 -0.153,-0.017 -0.68,-0.051 -0.68,-0.527 0,-0.272 0.255,-0.544 0.459,-0.765 l 1.734,-1.836 1.53,-1.666 1.717,4.063 0.085,0.238 c 0,0.136 -0.323,0.425 -0.986,0.493 -0.187,0.017 -0.34,0.034 -0.34,0.323 0,0.204 0.187,0.204 0.255,0.204 l 2.142,-0.051 c 0.4250003,0 1.4620003,0.051 1.8870003,0.051 0.119,0 0.323,0 0.323,-0.323 0,-0.204 -0.17,-0.204 -0.306,-0.204 -1.139,-0.017 -1.173,-0.068 -1.462,-0.748 l -2.1930003,-5.253 c 1.156,-1.19 2.9410003,-3.213 3.4850003,-3.689 0.493,-0.408 1.139,-0.816 2.159,-0.867 0.221,-0.017 0.374,-0.017 0.374,-0.34 z"
     stroke="#0068ff"
     stroke-opacity="1"
     stroke-width="0.136"
     fill="#0068ff"
     fill-opacity="1"
     id="path49"
     style="font-family:LatinModern-Math, LatinModern, Asana-Math, Asana" />
  <path
     d="m 192.563,3.218556 c 0,-0.136 -0.085,-0.204 -0.221,-0.204 -0.442,0 -0.935,0.051 -1.394,0.051 -0.561,0 -1.156,-0.051 -1.7,-0.051 -0.102,0 -0.323,0 -0.323,0.323 0,0.187 0.17,0.204 0.255,0.204 0.119,0 0.612,0.034 0.612,0.391 0,0.289 -0.391,0.731 -0.459,0.816 l -3.944,4.539 -1.87,-5.049 c -0.102,-0.238 -0.102,-0.289 -0.102,-0.289 0,-0.408 0.833,-0.408 1.003,-0.408 0.238,0 0.408,0 0.408,-0.34 0,-0.187 -0.204,-0.187 -0.255,-0.187 l -2.142,0.051 c -0.425,0 -1.479,-0.051 -1.904,-0.051 -0.102,0 -0.323,0 -0.323,0.34 0,0.187 0.17,0.187 0.391,0.187 1.02,0 1.088,0.153 1.241,0.578 l 2.091,5.593 c 0.017,0.051 0.068,0.238 0.068,0.289 0,0.051 -0.68,2.788 -0.765,3.094 -0.221,0.935 -0.238,0.986 -1.598,1.003 -0.323,0 -0.459,0 -0.459,0.34 0,0.187 0.238,0.187 0.238,0.187 l 2.142,-0.051 2.176,0.051 c 0.119,0 0.323,0 0.323,-0.34 0,-0.187 -0.153,-0.187 -0.476,-0.187 0,0 -0.357,0 -0.646,-0.034 -0.357,-0.034 -0.459,-0.068 -0.459,-0.272 0,-0.119 0.153,-0.714 0.238,-1.071 l 0.595,-2.397 c 0.085,-0.323 0.102,-0.374 0.238,-0.527 l 4.216,-4.845 0.238,-0.238 c 0.51,-0.51 1.071,-1.088 2.227,-1.173 0.187,-0.017 0.34,-0.017 0.34,-0.323 z"
     stroke="#f5a623"
     stroke-opacity="1"
     stroke-width="0.136"
     fill="#f5a623"
     fill-opacity="1"
     id="path53"
     style="font-family:LatinModern-Math, LatinModern, Asana-Math, Asana" />
  <path
     d="m 95.493001,11.813556 c 0,-0.782 -0.782,-1.173 -1.479,-1.173 -0.578,0 -1.649,0.306 -2.159,1.989 -0.102,0.357 -0.153,0.527 -0.561,2.669 h -1.173 c -0.323,0 -0.51,0 -0.51,0.323 0,0.204 0.153,0.204 0.476,0.204 h 1.122 l -1.275,6.715 c -0.306,1.649 -0.595,3.196 -1.479,3.196 -0.068,0 -0.493,0 -0.816,-0.306 0.782,-0.051 0.935,-0.663 0.935,-0.918 0,-0.391 -0.306,-0.595 -0.629,-0.595 -0.442,0 -0.935,0.374 -0.935,1.02 0,0.765 0.748,1.173 1.445,1.173 0.935,0 1.615,-1.003 1.921,-1.649 0.544,-1.071 0.935,-3.128 0.952,-3.247 l 1.02,-5.389 h 1.462 c 0.34,0 0.51,0 0.51,-0.34 0,-0.187 -0.17,-0.187 -0.459,-0.187 h -1.411 c 0.187,-0.986 0.17,-0.952 0.357,-1.938 0.068,-0.357 0.306,-1.564 0.408,-1.768 0.153,-0.323 0.442,-0.578 0.799,-0.578 0.068,0 0.51,0 0.833,0.306 -0.748,0.068 -0.918,0.663 -0.918,0.918 0,0.391 0.306,0.595 0.629,0.595 0.442,0 0.935,-0.374 0.935,-1.02 z"
     stroke="#d0021b"
     stroke-opacity="1"
     stroke-width="0.136"
     fill="#d0021b"
     fill-opacity="1"
     id="path57"
     style="font-family:LatinModern-Math, LatinModern, Asana-Math, Asana" />
  <path
     d="m 267.76233,24.01889 c 0,-1.36 -0.085,-2.72 -0.68,-3.978 -0.782,-1.632 -2.176,-1.904 -2.89,-1.904 -1.02,0 -2.261,0.442 -2.958,2.023 -0.544,1.173 -0.629,2.499 -0.629,3.859 0,1.275 0.068,2.805 0.765,4.097 0.731,1.377 1.972,1.717 2.805,1.717 0.918,0 2.21,-0.357 2.958,-1.972 0.544,-1.173 0.629,-2.499 0.629,-3.842 z m -1.411,-0.204 c 0,1.275 0,2.431 -0.187,3.519 -0.255,1.615 -1.224,2.125 -1.989,2.125 -0.663,0 -1.666,-0.425 -1.972,-2.057 -0.187,-1.02 -0.187,-2.584 -0.187,-3.587 0,-1.088 0,-2.21 0.136,-3.128 0.323,-2.023 1.598,-2.176 2.023,-2.176 0.561,0 1.683,0.306 2.006,1.989 0.17,0.952 0.17,2.244 0.17,3.315 z"
     stroke="#000000"
     stroke-opacity="1"
     stroke-width="0.136"
     fill="#000000"
     fill-opacity="1"
     id="path61"
     style="font-family:LatinModern-Math, LatinModern, Asana-Math, Asana" />
  <path
     d="m 267.06533,65.9589 v -0.527 h -0.544 c -1.53,0 -1.581,-0.187 -1.581,-0.816 v -9.537 c 0,-0.408 0,-0.442 -0.391,-0.442 -1.054,1.088 -2.55,1.088 -3.094,1.088 v 0.527 c 0.34,0 1.343,0 2.227,-0.442 v 8.806 c 0,0.612 -0.051,0.816 -1.581,0.816 h -0.544 v 0.527 c 0.595,-0.051 2.074,-0.051 2.754,-0.051 0.68,0 2.159,0 2.754,0.051 z"
     stroke="#000000"
     stroke-opacity="1"
     stroke-width="0.136"
     fill="#000000"
     fill-opacity="1"
     id="path65"
     style="font-family:LatinModern-Math, LatinModern, Asana-Math, Asana" />
  <path
     d="m 267.57533,100.0009 h -0.425 c -0.085,0.51 -0.204,1.258 -0.374,1.513 -0.119,0.136 -1.241,0.136 -1.615,0.136 h -3.06 l 1.802,-1.751 c 2.652,-2.346 3.672,-3.264 3.672,-4.964 0,-1.938 -1.53,-3.298 -3.604,-3.298 -1.921,0 -3.179,1.564 -3.179,3.077 0,0.952 0.85,0.952 0.901,0.952 0.289,0 0.884,-0.204 0.884,-0.901 0,-0.442 -0.306,-0.884 -0.901,-0.884 -0.136,0 -0.17,0 -0.221,0.017 0.391,-1.105 1.309,-1.734 2.295,-1.734 1.547,0 2.278,1.377 2.278,2.771 0,1.36 -0.85,2.703 -1.785,3.757 l -3.264,3.638 c -0.187,0.187 -0.187,0.221 -0.187,0.629 h 6.307 z"
     stroke="#000000"
     stroke-opacity="1"
     stroke-width="0.136"
     fill="#000000"
     fill-opacity="1"
     id="path69"
     style="font-family:LatinModern-Math, LatinModern, Asana-Math, Asana" />
  <path
     d="m 389.40833,42.02789 c 0,-0.17 -0.153,-0.17 -0.204,-0.17 -0.17,0 -0.187,0.068 -0.238,0.306 -0.289,1.105 -0.595,2.108 -1.292,2.108 -0.459,0 -0.51,-0.442 -0.51,-0.782 0,-0.374 0.034,-0.51 0.221,-1.258 l 0.374,-1.53 0.612,-2.38 c 0.119,-0.476 0.119,-0.51 0.119,-0.578 0,-0.289 -0.204,-0.459 -0.493,-0.459 -0.408,0 -0.663,0.374 -0.714,0.748 -0.306,-0.629 -0.799,-1.088 -1.564,-1.088 -1.989,0 -4.097,2.499 -4.097,4.981 0,1.598 0.935,2.72 2.261,2.72 0.34,0 1.19,-0.068 2.21,-1.275 0.136,0.714 0.731,1.275 1.547,1.275 0.595,0 0.986,-0.391 1.258,-0.935 0.289,-0.612 0.51,-1.683 0.51,-1.683 z m -2.329,-3.213 c 0,0.102 -0.034,0.204 -0.051,0.289 l -0.85,3.332 c -0.085,0.306 -0.085,0.34 -0.34,0.629 -0.748,0.935 -1.445,1.207 -1.921,1.207 -0.85,0 -1.088,-0.935 -1.088,-1.598 0,-0.85 0.544,-2.941 0.935,-3.723 0.527,-1.003 1.292,-1.632 1.972,-1.632 1.105,0 1.343,1.394 1.343,1.496 z"
     stroke="#000000"
     stroke-opacity="1"
     stroke-width="0.136"
     fill="#000000"
     fill-opacity="1"
     id="path73"
     style="font-family:LatinModern-Math, LatinModern, Asana-Math, Asana" />
  <path
     d="m 388.49733,81.1649 c 0,-1.547 -0.901,-2.72 -2.261,-2.72 -0.782,0 -1.479,0.493 -1.989,1.02 l 1.258,-5.117 c 0,0 0,-0.187 -0.221,-0.187 -0.391,0 -1.632,0.136 -2.074,0.17 -0.136,0.017 -0.323,0.034 -0.323,0.34 0,0.204 0.153,0.204 0.408,0.204 0.816,0 0.85,0.119 0.85,0.289 0,0.119 -0.153,0.697 -0.238,1.054 l -1.394,5.542 c -0.204,0.85 -0.272,1.122 -0.272,1.717 0,1.615 0.901,2.669 2.159,2.669 2.006,0 4.097,-2.533 4.097,-4.981 z m -1.224,-0.748 c 0,1.003 -0.561,2.958 -0.867,3.604 -0.561,1.139 -1.343,1.751 -2.006,1.751 -0.578,0 -1.139,-0.459 -1.139,-1.717 0,-0.323 0,-0.646 0.272,-1.717 l 0.374,-1.564 c 0.102,-0.374 0.102,-0.408 0.255,-0.595 0.833,-1.105 1.598,-1.36 2.04,-1.36 0.612,0 1.071,0.51 1.071,1.598 z"
     stroke="#000000"
     stroke-opacity="1"
     stroke-width="0.136"
     fill="#000000"
     fill-opacity="1"
     id="path77"
     style="font-family:LatinModern-Math, LatinModern, Asana-Math, Asana" />
  <path
     d="m 244.40933,2.53489 c 0,0 0,-0.187 -0.221,-0.187 -0.51,0 -1.071,0.051 -1.598,0.051 -0.629,0 -1.275,-0.051 -1.887,-0.051 -0.102,0 -0.323,0 -0.323,0.34 0,0.119 0.085,0.17 0.204,0.187 0.153,0.017 0.68,0.051 0.68,0.527 0,0.238 -0.187,0.459 -0.323,0.612 l -2.754,2.958 -1.428,-3.383 -0.085,-0.221 c 0,-0.102 0.289,-0.425 1.003,-0.493 0.17,-0.017 0.34,-0.034 0.34,-0.323 0,-0.204 -0.204,-0.204 -0.255,-0.204 -0.697,0 -1.428,0.051 -2.142,0.051 -0.425,0 -1.479,-0.051 -1.904,-0.051 -0.102,0 -0.306,0 -0.306,0.34 0,0.187 0.17,0.187 0.391,0.187 1.02,0 1.122,0.17 1.275,0.544 l 2.006,4.743 -3.587,3.859 c -0.102,0.085 -0.119,0.102 -0.221,0.187 -0.833,0.901 -1.632,1.173 -2.499,1.224 -0.221,0.017 -0.374,0.017 -0.374,0.34 0,0 0,0.187 0.221,0.187 0.51,0 1.071,-0.051 1.598,-0.051 0.629,0 1.292,0.051 1.904,0.051 0.102,0 0.306,0 0.306,-0.34 0,-0.17 -0.204,-0.187 -0.204,-0.187 -0.153,-0.017 -0.68,-0.051 -0.68,-0.527 0,-0.272 0.255,-0.544 0.459,-0.765 l 1.734,-1.836 1.53,-1.666 1.717,4.063 0.085,0.238 c 0,0.136 -0.323,0.425 -0.986,0.493 -0.187,0.017 -0.34,0.034 -0.34,0.323 0,0.204 0.187,0.204 0.255,0.204 l 2.142,-0.051 c 0.425,0 1.462,0.051 1.887,0.051 0.119,0 0.323,0 0.323,-0.323 0,-0.204 -0.17,-0.204 -0.306,-0.204 -1.139,-0.017 -1.173,-0.068 -1.462,-0.748 l -2.193,-5.253 c 1.156,-1.19 2.941,-3.213 3.485,-3.689 0.493,-0.408 1.139,-0.816 2.159,-0.867 0.221,-0.017 0.374,-0.017 0.374,-0.34 z"
     stroke="#0068ff"
     stroke-opacity="1"
     stroke-width="0.136"
     fill="#0068ff"
     fill-opacity="1"
     id="path81"
     style="font-family:LatinModern-Math, LatinModern, Asana-Math, Asana" />
  <path
     d="m 422.89633,2.55189 c 0,-0.136 -0.085,-0.204 -0.221,-0.204 -0.442,0 -0.935,0.051 -1.394,0.051 -0.561,0 -1.156,-0.051 -1.7,-0.051 -0.102,0 -0.323,0 -0.323,0.323 0,0.187 0.17,0.204 0.255,0.204 0.119,0 0.612,0.034 0.612,0.391 0,0.289 -0.391,0.731 -0.459,0.816 l -3.944,4.539 -1.87,-5.049 c -0.102,-0.238 -0.102,-0.289 -0.102,-0.289 0,-0.408 0.833,-0.408 1.003,-0.408 0.238,0 0.408,0 0.408,-0.34 0,-0.187 -0.204,-0.187 -0.255,-0.187 l -2.142,0.051 c -0.425,0 -1.479,-0.051 -1.904,-0.051 -0.102,0 -0.323,0 -0.323,0.34 0,0.187 0.17,0.187 0.391,0.187 1.02,0 1.088,0.153 1.241,0.578 l 2.091,5.593 c 0.017,0.051 0.068,0.238 0.068,0.289 0,0.051 -0.68,2.788 -0.765,3.094 -0.221,0.935 -0.238,0.986 -1.598,1.003 -0.323,0 -0.459,0 -0.459,0.34 0,0.187 0.238,0.187 0.238,0.187 l 2.142,-0.051 2.176,0.051 c 0.119,0 0.323,0 0.323,-0.34 0,-0.187 -0.153,-0.187 -0.476,-0.187 0,0 -0.357,0 -0.646,-0.034 -0.357,-0.034 -0.459,-0.068 -0.459,-0.272 0,-0.119 0.153,-0.714 0.238,-1.071 l 0.595,-2.397 c 0.085,-0.323 0.102,-0.374 0.238,-0.527 l 4.216,-4.845 0.238,-0.238 c 0.51,-0.51 1.071,-1.088 2.227,-1.173 0.187,-0.017 0.34,-0.017 0.34,-0.323 z"
     stroke="#f5a623"
     stroke-opacity="1"
     stroke-width="0.136"
     fill="#f5a623"
     fill-opacity="1"
     id="path85"
     style="font-family:LatinModern-Math, LatinModern, Asana-Math, Asana" />
  <path
     d="m 325.82633,11.14689 c 0,-0.782 -0.782,-1.173 -1.479,-1.173 -0.578,0 -1.649,0.306 -2.159,1.989 -0.102,0.357 -0.153,0.527 -0.561,2.669 h -1.173 c -0.323,0 -0.51,0 -0.51,0.323 0,0.204 0.153,0.204 0.476,0.204 h 1.122 l -1.275,6.715 c -0.306,1.649 -0.595,3.196 -1.479,3.196 -0.068,0 -0.493,0 -0.816,-0.306 0.782,-0.051 0.935,-0.663 0.935,-0.918 0,-0.391 -0.306,-0.595 -0.629,-0.595 -0.442,0 -0.935,0.374 -0.935,1.02 0,0.765 0.748,1.173 1.445,1.173 0.935,0 1.615,-1.003 1.921,-1.649 0.544,-1.071 0.935,-3.128 0.952,-3.247 l 1.02,-5.389 h 1.462 c 0.34,0 0.51,0 0.51,-0.34 0,-0.187 -0.17,-0.187 -0.459,-0.187 h -1.411 c 0.187,-0.986 0.17,-0.952 0.357,-1.938 0.068,-0.357 0.306,-1.564 0.408,-1.768 0.153,-0.323 0.442,-0.578 0.799,-0.578 0.068,0 0.51,0 0.833,0.306 -0.748,0.068 -0.918,0.663 -0.918,0.918 0,0.391 0.306,0.595 0.629,0.595 0.442,0 0.935,-0.374 0.935,-1.02 z"
     stroke="#d0021b"
     stroke-opacity="1"
     stroke-width="0.136"
     fill="#d0021b"
     fill-opacity="1"
     id="path89"
     style="font-family:LatinModern-Math, LatinModern, Asana-Math, Asana" />
  <text
     x="56.609001"
     y="106.37"
     style="font-style:normal;font-weight:400;font-size:13.5px;font-family:'Times New Roman', Times, serif;dominant-baseline:text-before-edge;white-space:pre;fill:#d0021b;fill-opacity:1;stroke:none"
     id="text93">missing value </text>
  <text
     x="79.97567"
     y="126.25888"
     style="font-style:normal;font-weight:400;font-size:13.5px;font-family:'Times New Roman', Times, serif;dominant-baseline:text-before-edge;white-space:pre;fill:#d0021b;fill-opacity:1;stroke:none"
     id="text95">for </text>
  <g
     id="g99"
     style="font-family:LatinModern-Math, LatinModern, Asana-Math, Asana"
     transform="translate(-16.890999,-23.33)">
    <g
       id="g98">
      <g
         transform="translate(116,161.88889)"
         id="g97">
        <path
           transform="scale(0.0153,-0.0153)"
           d="m 449,174 h -25 c -5,-30 -12,-74 -22,-89 -7,-8 -73,-8 -95,-8 H 127 L 233,180 C 389,318 449,372 449,472 449,586 359,666 237,666 124,666 50,574 50,485 c 0,-56 50,-56 53,-56 17,0 52,12 52,53 0,26 -18,52 -53,52 -8,0 -10,0 -13,-1 23,65 77,102 135,102 91,0 134,-81 134,-163 0,-80 -50,-159 -105,-221 L 61,37 C 50,26 50,24 50,0 h 371 z"
           stroke="#d0021b"
           stroke-opacity="1"
           stroke-width="8"
           fill="#d0021b"
           fill-opacity="1"
           id="path96" />
      </g>
    </g>
  </g>
  <text
     x="106.75344"
     y="126.25888"
     style="font-style:normal;font-weight:400;font-size:13.5px;font-family:'Times New Roman', Times, serif;dominant-baseline:text-before-edge;white-space:pre;fill:#d0021b;fill-opacity:1;stroke:none"
     id="text101">!</text>
  <text
     x="96.47567"
     y="78.869987"
     style="font-style:normal;font-weight:400;font-size:13.5px;font-family:'Times New Roman', Times, serif;dominant-baseline:text-before-edge;white-space:pre;fill:#d0021b;fill-opacity:1;stroke:none"
     id="text104">?</text>
  <text
     x="298.009"
     y="96.203331"
     style="font-style:normal;font-weight:400;font-size:13.5px;font-family:'Times New Roman', Times, serif;dominant-baseline:text-before-edge;white-space:pre;fill:#d0021b;fill-opacity:1;stroke:none"
     id="text107">too many </text>
  <text
     x="290.44235"
     y="116.09223"
     style="font-style:normal;font-weight:400;font-size:13.5px;font-family:'Times New Roman', Times, serif;dominant-baseline:text-before-edge;white-space:pre;fill:#d0021b;fill-opacity:1;stroke:none"
     id="text109">values for </text>
  <g
     id="g113"
     style="font-family:LatinModern-Math, LatinModern, Asana-Math, Asana"
     transform="translate(-16.890999,-23.33)">
    <g
       id="g112">
      <g
         transform="translate(364.35555,151.72222)"
         id="g111">
        <path
           transform="scale(0.0153,-0.0153)"
           d="m 419,0 v 31 h -32 c -90,0 -93,11 -93,48 v 561 c 0,24 0,26 -23,26 C 209,602 121,602 89,602 v -31 c 20,0 79,0 131,26 V 79 C 220,43 217,31 127,31 H 95 V 0 c 35,3 122,3 162,3 40,0 127,0 162,-3 z"
           stroke="#d0021b"
           stroke-opacity="1"
           stroke-width="8"
           fill="#d0021b"
           fill-opacity="1"
           id="path110" />
      </g>
    </g>
  </g>
  <text
     x="355.10901"
     y="116.09223"
     style="font-style:normal;font-weight:400;font-size:13.5px;font-family:'Times New Roman', Times, serif;dominant-baseline:text-before-edge;white-space:pre;fill:#d0021b;fill-opacity:1;stroke:none"
     id="text115">!</text>
  <path
     d="m 154.76233,185.35223 c 0,-1.36 -0.085,-2.72 -0.68,-3.978 -0.782,-1.632 -2.176,-1.904 -2.89,-1.904 -1.02,0 -2.261,0.442 -2.958,2.023 -0.544,1.173 -0.629,2.499 -0.629,3.859 0,1.275 0.068,2.805 0.765,4.097 0.731,1.377 1.972,1.717 2.805,1.717 0.918,0 2.21,-0.357 2.958,-1.972 0.544,-1.173 0.629,-2.499 0.629,-3.842 z m -1.411,-0.204 c 0,1.275 0,2.431 -0.187,3.519 -0.255,1.615 -1.224,2.125 -1.989,2.125 -0.663,0 -1.666,-0.425 -1.972,-2.057 -0.187,-1.02 -0.187,-2.584 -0.187,-3.587 0,-1.088 0,-2.21 0.136,-3.128 0.323,-2.023 1.598,-2.176 2.023,-2.176 0.561,0 1.683,0.306 2.006,1.989 0.17,0.952 0.17,2.244 0.17,3.315 z"
     stroke="#000000"
     stroke-opacity="1"
     stroke-width="0.136"
     fill="#000000"
     fill-opacity="1"
     id="path118"
     style="font-family:LatinModern-Math, LatinModern, Asana-Math, Asana" />
  <path
     d="m 154.06533,227.29223 v -0.527 h -0.544 c -1.53,0 -1.581,-0.187 -1.581,-0.816 v -9.537 c 0,-0.408 0,-0.442 -0.391,-0.442 -1.054,1.088 -2.55,1.088 -3.094,1.088 v 0.527 c 0.34,0 1.343,0 2.227,-0.442 v 8.806 c 0,0.612 -0.051,0.816 -1.581,0.816 h -0.544 v 0.527 c 0.595,-0.051 2.074,-0.051 2.754,-0.051 0.68,0 2.159,0 2.754,0.051 z"
     stroke="#000000"
     stroke-opacity="1"
     stroke-width="0.136"
     fill="#000000"
     fill-opacity="1"
     id="path122"
     style="font-family:LatinModern-Math, LatinModern, Asana-Math, Asana" />
  <path
     d="m 154.57533,261.33423 h -0.425 c -0.085,0.51 -0.204,1.258 -0.374,1.513 -0.119,0.136 -1.241,0.136 -1.615,0.136 h -3.06 l 1.802,-1.751 c 2.652,-2.346 3.672,-3.264 3.672,-4.964 0,-1.938 -1.53,-3.298 -3.604,-3.298 -1.921,0 -3.179,1.564 -3.179,3.077 0,0.952 0.85,0.952 0.901,0.952 0.289,0 0.884,-0.204 0.884,-0.901 0,-0.442 -0.306,-0.884 -0.901,-0.884 -0.136,0 -0.17,0 -0.221,0.017 0.391,-1.105 1.309,-1.734 2.295,-1.734 1.547,0 2.278,1.377 2.278,2.771 0,1.36 -0.85,2.703 -1.785,3.757 l -3.264,3.638 c -0.187,0.187 -0.187,0.221 -0.187,0.629 h 6.307 z"
     stroke="#000000"
     stroke-opacity="1"
     stroke-width="0.136"
     fill="#000000"
     fill-opacity="1"
     id="path126"
     style="font-family:LatinModern-Math, LatinModern, Asana-Math, Asana" />
  <path
     d="m 276.40833,203.36123 c 0,-0.17 -0.153,-0.17 -0.204,-0.17 -0.17,0 -0.187,0.068 -0.238,0.306 -0.289,1.105 -0.595,2.108 -1.292,2.108 -0.459,0 -0.51,-0.442 -0.51,-0.782 0,-0.374 0.034,-0.51 0.221,-1.258 l 0.374,-1.53 0.612,-2.38 c 0.119,-0.476 0.119,-0.51 0.119,-0.578 0,-0.289 -0.204,-0.459 -0.493,-0.459 -0.408,0 -0.663,0.374 -0.714,0.748 -0.306,-0.629 -0.799,-1.088 -1.564,-1.088 -1.989,0 -4.097,2.499 -4.097,4.981 0,1.598 0.935,2.72 2.261,2.72 0.34,0 1.19,-0.068 2.21,-1.275 0.136,0.714 0.731,1.275 1.547,1.275 0.595,0 0.986,-0.391 1.258,-0.935 0.289,-0.612 0.51,-1.683 0.51,-1.683 z m -2.329,-3.213 c 0,0.102 -0.034,0.204 -0.051,0.289 l -0.85,3.332 c -0.085,0.306 -0.085,0.34 -0.34,0.629 -0.748,0.935 -1.445,1.207 -1.921,1.207 -0.85,0 -1.088,-0.935 -1.088,-1.598 0,-0.85 0.544,-2.941 0.935,-3.723 0.527,-1.003 1.292,-1.632 1.972,-1.632 1.105,0 1.343,1.394 1.343,1.496 z"
     stroke="#000000"
     stroke-opacity="1"
     stroke-width="0.136"
     fill="#000000"
     fill-opacity="1"
     id="path130"
     style="font-family:LatinModern-Math, LatinModern, Asana-Math, Asana" />
  <path
     d="m 275.49733,242.49823 c 0,-1.547 -0.901,-2.72 -2.261,-2.72 -0.782,0 -1.479,0.493 -1.989,1.02 l 1.258,-5.117 c 0,0 0,-0.187 -0.221,-0.187 -0.391,0 -1.632,0.136 -2.074,0.17 -0.136,0.017 -0.323,0.034 -0.323,0.34 0,0.204 0.153,0.204 0.408,0.204 0.816,0 0.85,0.119 0.85,0.289 0,0.119 -0.153,0.697 -0.238,1.054 l -1.394,5.542 c -0.204,0.85 -0.272,1.122 -0.272,1.717 0,1.615 0.901,2.669 2.159,2.669 2.006,0 4.097,-2.533 4.097,-4.981 z m -1.224,-0.748 c 0,1.003 -0.561,2.958 -0.867,3.604 -0.561,1.139 -1.343,1.751 -2.006,1.751 -0.578,0 -1.139,-0.459 -1.139,-1.717 0,-0.323 0,-0.646 0.272,-1.717 l 0.374,-1.564 c 0.102,-0.374 0.102,-0.408 0.255,-0.595 0.833,-1.105 1.598,-1.36 2.04,-1.36 0.612,0 1.071,0.51 1.071,1.598 z"
     stroke="#000000"
     stroke-opacity="1"
     stroke-width="0.136"
     fill="#000000"
     fill-opacity="1"
     id="path134"
     style="font-family:LatinModern-Math, LatinModern, Asana-Math, Asana" />
  <path
     d="m 131.40933,163.86823 c 0,0 0,-0.187 -0.221,-0.187 -0.51,0 -1.071,0.051 -1.598,0.051 -0.629,0 -1.275,-0.051 -1.887,-0.051 -0.102,0 -0.323,0 -0.323,0.34 0,0.119 0.085,0.17 0.204,0.187 0.153,0.017 0.68,0.051 0.68,0.527 0,0.238 -0.187,0.459 -0.323,0.612 l -2.754,2.958 -1.428,-3.383 -0.085,-0.221 c 0,-0.102 0.289,-0.425 1.003,-0.493 0.17,-0.017 0.34,-0.034 0.34,-0.323 0,-0.204 -0.204,-0.204 -0.255,-0.204 -0.697,0 -1.428,0.051 -2.142,0.051 -0.425,0 -1.479,-0.051 -1.904,-0.051 -0.102,0 -0.306,0 -0.306,0.34 0,0.187 0.17,0.187 0.391,0.187 1.02,0 1.122,0.17 1.275,0.544 l 2.006,4.743 -3.587,3.859 c -0.102,0.085 -0.119,0.102 -0.221,0.187 -0.833,0.901 -1.632,1.173 -2.499,1.224 -0.221,0.017 -0.374,0.017 -0.374,0.34 0,0 0,0.187 0.221,0.187 0.51,0 1.071,-0.051 1.598,-0.051 0.629,0 1.292,0.051 1.904,0.051 0.102,0 0.306,0 0.306,-0.34 0,-0.17 -0.204,-0.187 -0.204,-0.187 -0.153,-0.017 -0.68,-0.051 -0.68,-0.527 0,-0.272 0.255,-0.544 0.459,-0.765 l 1.734,-1.836 1.53,-1.666 1.717,4.063 0.085,0.238 c 0,0.136 -0.323,0.425 -0.986,0.493 -0.187,0.017 -0.34,0.034 -0.34,0.323 0,0.204 0.187,0.204 0.255,0.204 l 2.142,-0.051 c 0.425,0 1.462,0.051 1.887,0.051 0.119,0 0.323,0 0.323,-0.323 0,-0.204 -0.17,-0.204 -0.306,-0.204 -1.139,-0.017 -1.173,-0.068 -1.462,-0.748 l -2.193,-5.253 c 1.156,-1.19 2.941,-3.213 3.485,-3.689 0.493,-0.408 1.139,-0.816 2.159,-0.867 0.221,-0.017 0.374,-0.017 0.374,-0.34 z"
     stroke="#0068ff"
     stroke-opacity="1"
     stroke-width="0.136"
     fill="#0068ff"
     fill-opacity="1"
     id="path138"
     style="font-family:LatinModern-Math, LatinModern, Asana-Math, Asana" />
  <path
     d="m 309.89633,163.88523 c 0,-0.136 -0.085,-0.204 -0.221,-0.204 -0.442,0 -0.935,0.051 -1.394,0.051 -0.561,0 -1.156,-0.051 -1.7,-0.051 -0.102,0 -0.323,0 -0.323,0.323 0,0.187 0.17,0.204 0.255,0.204 0.119,0 0.612,0.034 0.612,0.391 0,0.289 -0.391,0.731 -0.459,0.816 l -3.944,4.539 -1.87,-5.049 c -0.102,-0.238 -0.102,-0.289 -0.102,-0.289 0,-0.408 0.833,-0.408 1.003,-0.408 0.238,0 0.408,0 0.408,-0.34 0,-0.187 -0.204,-0.187 -0.255,-0.187 l -2.142,0.051 c -0.425,0 -1.479,-0.051 -1.904,-0.051 -0.102,0 -0.323,0 -0.323,0.34 0,0.187 0.17,0.187 0.391,0.187 1.02,0 1.088,0.153 1.241,0.578 l 2.091,5.593 c 0.017,0.051 0.068,0.238 0.068,0.289 0,0.051 -0.68,2.788 -0.765,3.094 -0.221,0.935 -0.238,0.986 -1.598,1.003 -0.323,0 -0.459,0 -0.459,0.34 0,0.187 0.238,0.187 0.238,0.187 l 2.142,-0.051 2.176,0.051 c 0.119,0 0.323,0 0.323,-0.34 0,-0.187 -0.153,-0.187 -0.476,-0.187 0,0 -0.357,0 -0.646,-0.034 -0.357,-0.034 -0.459,-0.068 -0.459,-0.272 0,-0.119 0.153,-0.714 0.238,-1.071 l 0.595,-2.397 c 0.085,-0.323 0.102,-0.374 0.238,-0.527 l 4.216,-4.845 0.238,-0.238 c 0.51,-0.51 1.071,-1.088 2.227,-1.173 0.187,-0.017 0.34,-0.017 0.34,-0.323 z"
     stroke="#f5a623"
     stroke-opacity="1"
     stroke-width="0.136"
     fill="#f5a623"
     fill-opacity="1"
     id="path142"
     style="font-family:LatinModern-Math, LatinModern, Asana-Math, Asana" />
  <path
     d="m 212.82633,172.48023 c 0,-0.782 -0.782,-1.173 -1.479,-1.173 -0.578,0 -1.649,0.306 -2.159,1.989 -0.102,0.357 -0.153,0.527 -0.561,2.669 h -1.173 c -0.323,0 -0.51,0 -0.51,0.323 0,0.204 0.153,0.204 0.476,0.204 h 1.122 l -1.275,6.715 c -0.306,1.649 -0.595,3.196 -1.479,3.196 -0.068,0 -0.493,0 -0.816,-0.306 0.782,-0.051 0.935,-0.663 0.935,-0.918 0,-0.391 -0.306,-0.595 -0.629,-0.595 -0.442,0 -0.935,0.374 -0.935,1.02 0,0.765 0.748,1.173 1.445,1.173 0.935,0 1.615,-1.003 1.921,-1.649 0.544,-1.071 0.935,-3.128 0.952,-3.247 l 1.02,-5.389 h 1.462 c 0.34,0 0.51,0 0.51,-0.34 0,-0.187 -0.17,-0.187 -0.459,-0.187 h -1.411 c 0.187,-0.986 0.17,-0.952 0.357,-1.938 0.068,-0.357 0.306,-1.564 0.408,-1.768 0.153,-0.323 0.442,-0.578 0.799,-0.578 0.068,0 0.51,0 0.833,0.306 -0.748,0.068 -0.918,0.663 -0.918,0.918 0,0.391 0.306,0.595 0.629,0.595 0.442,0 0.935,-0.374 0.935,-1.02 z"
     stroke="#417505"
     stroke-opacity="1"
     stroke-width="0.136"
     fill="#417505"
     fill-opacity="1"
     id="path146"
     style="font-family:LatinModern-Math, LatinModern, Asana-Math, Asana" />
  <text
     x="311.75418"
     y="203.07446"
     style="font-style:normal;font-weight:400;font-size:13.5px;font-family:'Times New Roman', Times, serif;dominant-baseline:text-before-edge;white-space:pre;fill:#417505;fill-opacity:1;stroke:none"
     id="text150">now </text>
  <text
     x="338.38754"
     y="203.07446"
     style="font-style:italic;font-weight:400;font-size:13.5px;font-family:'Times New Roman', Times, serif;dominant-baseline:text-before-edge;white-space:pre;fill:#417505;fill-opacity:1;stroke:none"
     id="text151">this</text>
  <text
     x="357.88754"
     y="203.07446"
     style="font-style:normal;font-weight:400;font-size:13.5px;font-family:'Times New Roman', Times, serif;dominant-baseline:text-before-edge;white-space:pre;fill:#417505;fill-opacity:1;stroke:none"
     id="text152"> is</text>
  <text
     x="313.82083"
     y="221.97449"
     style="font-style:normal;font-weight:400;font-size:13.5px;font-family:'Times New Roman', Times, serif;dominant-baseline:text-before-edge;white-space:pre;fill:#417505;fill-opacity:1;stroke:none"
     id="text154">a function</text>
</svg>
