<?xml version="1.0" encoding="UTF-8" standalone="no"?>
<!-- Created with Inkscape (http://www.inkscape.org/) -->

<svg
   width="112.36377mm"
   height="62.919674mm"
   viewBox="0 0 112.36377 62.919674"
   version="1.1"
   id="svg1"
   xml:space="preserve"
   xmlns="http://www.w3.org/2000/svg"
   xmlns:svg="http://www.w3.org/2000/svg"><defs
     id="defs1"><marker
       style="overflow:visible"
       id="marker4-7"
       refX="0"
       refY="0"
       orient="auto-start-reverse"
       markerWidth="1"
       markerHeight="1"
       viewBox="0 0 1 1"
       preserveAspectRatio="xMidYMid"><path
         style="fill:context-stroke;fill-rule:evenodd;stroke:none"
         d="M 0,0 5,-5 -12.5,0 5,5 Z"
         transform="scale(-0.5)"
         id="path4-8" /></marker><marker
       style="overflow:visible"
       id="marker4-7-0"
       refX="0"
       refY="0"
       orient="auto-start-reverse"
       markerWidth="1"
       markerHeight="1"
       viewBox="0 0 1 1"
       preserveAspectRatio="xMidYMid"><path
         style="fill:context-stroke;fill-rule:evenodd;stroke:none"
         d="M 0,0 5,-5 -12.5,0 5,5 Z"
         transform="scale(-0.5)"
         id="path4-8-1" /></marker><marker
       style="overflow:visible"
       id="marker4-7-0-0"
       refX="0"
       refY="0"
       orient="auto-start-reverse"
       markerWidth="1"
       markerHeight="1"
       viewBox="0 0 1 1"
       preserveAspectRatio="xMidYMid"><path
         style="fill:context-stroke;fill-rule:evenodd;stroke:none"
         d="M 0,0 5,-5 -12.5,0 5,5 Z"
         transform="scale(-0.5)"
         id="path4-8-1-8" /></marker><marker
       style="overflow:visible"
       id="marker4-7-0-1"
       refX="0"
       refY="0"
       orient="auto-start-reverse"
       markerWidth="1"
       markerHeight="1"
       viewBox="0 0 1 1"
       preserveAspectRatio="xMidYMid"><path
         style="fill:context-stroke;fill-rule:evenodd;stroke:none"
         d="M 0,0 5,-5 -12.5,0 5,5 Z"
         transform="scale(-0.5)"
         id="path4-8-1-1" /></marker><marker
       style="overflow:visible"
       id="marker4-7-0-1-2"
       refX="0"
       refY="0"
       orient="auto-start-reverse"
       markerWidth="1"
       markerHeight="1"
       viewBox="0 0 1 1"
       preserveAspectRatio="xMidYMid"><path
         style="fill:context-stroke;fill-rule:evenodd;stroke:none"
         d="M 0,0 5,-5 -12.5,0 5,5 Z"
         transform="scale(-0.5)"
         id="path4-8-1-1-8" /></marker></defs><g
     id="layer1"
     transform="translate(-53.037523,-123.81108)"><path
       class="connection real"
       stroke-dasharray="none"
       d="m 60.483806,134.42158 c 9.898063,-1.48431 19.835309,-2.00831 26.7621,-2.00302"
       style="fill:none;fill-opacity:1;stroke:#000000;stroke-width:0.529;stroke-dasharray:none;stroke-opacity:0.873595;marker-end:url(#marker4-7)"
       id="path1-4" /><path
       class="connection real"
       stroke-dasharray="none"
       d="m 96.337374,133.88103 c 9.064876,1.84842 13.503126,3.9906 19.930006,8.66172"
       style="fill:none;fill-opacity:1;stroke:#000000;stroke-width:0.529167px;marker-end:url(#marker4-7-0)"
       id="path1-4-5" /><path
       class="connection real"
       stroke-dasharray="none"
       d="m 123.51537,148.41572 c 9.39815,0.0154 17.00249,6.32351 18.76355,13.32754"
       style="fill:none;fill-opacity:1;stroke:#000000;stroke-width:0.529167px;marker-end:url(#marker4-7-0-1)"
       id="path1-4-5-9" /><path
       class="connection real"
       stroke-dasharray="none"
       d="m 99.760049,168.59483 c 0.551861,-9.38195 7.283781,-16.61379 14.376921,-17.97216"
       style="fill:none;fill-opacity:1;stroke:#000000;stroke-width:0.529167px;marker-end:url(#marker4-7-0-1-2)"
       id="path1-4-5-9-8" /><path
       class="connection real"
       stroke-dasharray="none"
       d="m 122.68596,147.73392 c 4.5657,-6.4834 14.50294,-11.33996 20.26328,-13.3343"
       style="fill:none;fill-opacity:1;stroke:#000000;stroke-width:0.529167px;marker-end:url(#marker4-7-0-0)"
       id="path1-4-5-6" /><path
       class="real"
       d="m 53.352928,133.8808 c 0,-3.07835 2.494858,-5.57322 5.570062,-5.57322 3.07836,0 5.573218,2.49487 5.573218,5.57322 0,3.07521 -2.494858,5.57007 -5.573218,5.57007 -3.075204,0 -5.570062,-2.49486 -5.570062,-5.57007 z"
       style="fill:#ffffff;fill-opacity:1;stroke:#000000;stroke-width:0.630812px"
       id="path6-1" /><path
       class="real"
       d="m 90.797709,133.09117 c 0,-3.07836 2.494858,-5.57322 5.570062,-5.57322 3.078355,0 5.573209,2.49486 5.573209,5.57322 0,3.0752 -2.494854,5.57006 -5.573209,5.57006 -3.075204,0 -5.570062,-2.49486 -5.570062,-5.57006 z"
       style="fill:#ffffff;fill-opacity:1;stroke:#000000;stroke-width:0.630812px"
       id="path6-1-3" /><path
       class="real"
       d="m 117.95972,148.0339 c 0,-3.07836 2.49486,-5.57322 5.57006,-5.57322 3.07836,0 5.57322,2.49486 5.57322,5.57322 0,3.0752 -2.49486,5.57006 -5.57322,5.57006 -3.0752,0 -5.57006,-2.49486 -5.57006,-5.57006 z"
       style="fill:#ffffff;fill-opacity:1;stroke:#000000;stroke-width:0.630812px"
       id="path6-1-3-0" /><path
       class="real"
       d="m 145.95238,131.57798 c 0,-3.07836 2.49486,-5.57322 5.57006,-5.57322 3.07837,0 5.57322,2.49486 5.57322,5.57322 0,3.0752 -2.49485,5.57006 -5.57322,5.57006 -3.0752,0 -5.57006,-2.49486 -5.57006,-5.57006 z"
       style="fill:#ffffff;fill-opacity:1;stroke:#000000;stroke-width:0.630812px"
       id="path6-1-3-0-4" /><path
       class="real"
       d="m 146.97844,131.64516 c 0,-2.51874 2.04137,-4.56011 4.56011,-4.56011 2.51874,0 4.56011,2.04137 4.56011,4.56011 0,2.51874 -2.04137,4.56011 -4.56011,4.56011 -2.51874,0 -4.56011,-2.04137 -4.56011,-4.56011 z"
       style="fill:#ffffff;fill-opacity:1;stroke:#000000;stroke-width:0.628115px"
       id="path7-5" /><g
       transform="translate(56.489784,132.14276)"
       id="g49"><g
   fill="#000000"
   fill-opacity="1"
   id="g46"
   transform="matrix(0.352778,0,0,0.352778,-76.8145,-6.27578)">
    <g
   id="g45"
   transform="translate(216.69501,26.899)">
      <path
   d="M 4.703125,-4.125 C 5.0625,-4.0625 5.625,-3.953125 5.75,-3.921875 c 0.265625,0.078125 1.1875,0.40625 1.1875,1.40625 0,0.640625 -0.578125,2.3125 -2.96875,2.3125 -0.4375,0 -1.984375,-0.0625 -2.40625,-1.203125 0.828125,0.109375 1.25,-0.53125 1.25,-0.984375 0,-0.4375 -0.296875,-0.671875 -0.703125,-0.671875 -0.453125,0 -1.0625,0.359375 -1.0625,1.28125 0,1.21875 1.25,1.984375 2.90625,1.984375 3.125,0 4.0625,-2.3125 4.0625,-3.390625 0,-0.296875 0,-0.875 -0.65625,-1.546875 C 6.84375,-5.21875 6.34375,-5.328125 5.21875,-5.5625 c -0.546875,-0.125 -1.4375,-0.296875 -1.4375,-1.234375 0,-0.40625 0.375,-1.90625 2.328125,-1.90625 0.875,0 1.71875,0.34375 1.921875,1.078125 -0.90625,0 -0.953125,0.78125 -0.953125,0.8125 0,0.4375 0.40625,0.546875 0.578125,0.546875 0.296875,0 0.875,-0.21875 0.875,-1.09375 0,-0.859375 -0.78125,-1.75 -2.390625,-1.75 -2.71875,0 -3.4375,2.125 -3.4375,2.96875 0,1.578125 1.53125,1.90625 2,2.015625 z m 0,0"
   id="path45" />
    </g>
  </g>
  <g
   fill="#000000"
   fill-opacity="1"
   id="g48"
   transform="matrix(0.352778,0,0,0.352778,-76.8145,-6.27578)">
    <g
   id="g47"
   transform="translate(226.22501,29.997999)">
      <path
   d="m 6.421875,-4.59375 c 0,-1.1875 -0.0625,-2.34375 -0.578125,-3.4375 -0.59375,-1.1875 -1.625,-1.5 -2.328125,-1.5 -0.828125,0 -1.859375,0.40625 -2.375,1.59375 -0.40625,0.90625 -0.546875,1.796875 -0.546875,3.34375 0,1.390625 0.09375,2.4375 0.609375,3.453125 0.5625,1.09375 1.546875,1.4375 2.296875,1.4375 1.25,0 1.96875,-0.734375 2.375,-1.578125 0.515625,-1.078125 0.546875,-2.484375 0.546875,-3.3125 z M 3.5,0.015625 C 3.046875,0.015625 2.109375,-0.25 1.84375,-1.8125 1.671875,-2.671875 1.671875,-3.765625 1.671875,-4.765625 1.671875,-5.9375 1.671875,-7 1.90625,-7.84375 2.15625,-8.8125 2.890625,-9.25 3.5,-9.25 c 0.546875,0 1.375,0.328125 1.65625,1.5625 0.171875,0.8125 0.171875,1.953125 0.171875,2.921875 0,0.96875 0,2.046875 -0.15625,2.921875 C 4.90625,-0.265625 4,0.015625 3.5,0.015625 Z m 0,0"
   id="path46" />
    </g>
  </g>
</g><g
       transform="translate(93.983003,131.30929)"
       id="g54"><g
   fill="#000000"
   fill-opacity="1"
   id="g51"
   transform="matrix(0.352778,0,0,0.352778,-76.8145,-6.27578)">
    <g
   id="g50"
   transform="translate(216.69501,26.899)">
      <path
   d="M 4.703125,-4.125 C 5.0625,-4.0625 5.625,-3.953125 5.75,-3.921875 c 0.265625,0.078125 1.1875,0.40625 1.1875,1.40625 0,0.640625 -0.578125,2.3125 -2.96875,2.3125 -0.4375,0 -1.984375,-0.0625 -2.40625,-1.203125 0.828125,0.109375 1.25,-0.53125 1.25,-0.984375 0,-0.4375 -0.296875,-0.671875 -0.703125,-0.671875 -0.453125,0 -1.0625,0.359375 -1.0625,1.28125 0,1.21875 1.25,1.984375 2.90625,1.984375 3.125,0 4.0625,-2.3125 4.0625,-3.390625 0,-0.296875 0,-0.875 -0.65625,-1.546875 C 6.84375,-5.21875 6.34375,-5.328125 5.21875,-5.5625 c -0.546875,-0.125 -1.4375,-0.296875 -1.4375,-1.234375 0,-0.40625 0.375,-1.90625 2.328125,-1.90625 0.875,0 1.71875,0.34375 1.921875,1.078125 -0.90625,0 -0.953125,0.78125 -0.953125,0.8125 0,0.4375 0.40625,0.546875 0.578125,0.546875 0.296875,0 0.875,-0.21875 0.875,-1.09375 0,-0.859375 -0.78125,-1.75 -2.390625,-1.75 -2.71875,0 -3.4375,2.125 -3.4375,2.96875 0,1.578125 1.53125,1.90625 2,2.015625 z m 0,0"
   id="path50" />
    </g>
  </g>
  <g
   fill="#000000"
   fill-opacity="1"
   id="g53"
   transform="matrix(0.352778,0,0,0.352778,-76.8145,-6.27578)">
    <g
   id="g52"
   transform="translate(226.22501,29.997999)">
      <path
   d="m 4.125,-9.1875 c 0,-0.34375 0,-0.34375 -0.28125,-0.34375 C 3.5,-9.15625 2.78125,-8.625 1.3125,-8.625 v 0.421875 c 0.328125,0 1.046875,0 1.828125,-0.375 v 7.46875 c 0,0.515625 -0.046875,0.6875 -1.296875,0.6875 H 1.390625 V 0 c 0.390625,-0.03125 1.78125,-0.03125 2.25,-0.03125 0.46875,0 1.859375,0 2.234375,0.03125 V -0.421875 H 5.4375 c -1.265625,0 -1.3125,-0.171875 -1.3125,-0.6875 z m 0,0"
   id="path51" />
    </g>
  </g>
</g><g
       transform="translate(148.30603,129.47662)"
       id="g64"><g
   fill="#000000"
   fill-opacity="1"
   id="g61"
   transform="matrix(0.352778,0,0,0.352778,-75.9445,-6.27578)">
    <g
   id="g60"
   transform="translate(214.229,26.899)">
      <path
   d="M 4.703125,-4.125 C 5.0625,-4.0625 5.625,-3.953125 5.75,-3.921875 c 0.265625,0.078125 1.1875,0.40625 1.1875,1.40625 0,0.640625 -0.578125,2.3125 -2.96875,2.3125 -0.4375,0 -1.984375,-0.0625 -2.40625,-1.203125 0.828125,0.109375 1.25,-0.53125 1.25,-0.984375 0,-0.4375 -0.296875,-0.671875 -0.703125,-0.671875 -0.453125,0 -1.0625,0.359375 -1.0625,1.28125 0,1.21875 1.25,1.984375 2.90625,1.984375 3.125,0 4.0625,-2.3125 4.0625,-3.390625 0,-0.296875 0,-0.875 -0.65625,-1.546875 C 6.84375,-5.21875 6.34375,-5.328125 5.21875,-5.5625 c -0.546875,-0.125 -1.4375,-0.296875 -1.4375,-1.234375 0,-0.40625 0.375,-1.90625 2.328125,-1.90625 0.875,0 1.71875,0.34375 1.921875,1.078125 -0.90625,0 -0.953125,0.78125 -0.953125,0.8125 0,0.4375 0.40625,0.546875 0.578125,0.546875 0.296875,0 0.875,-0.21875 0.875,-1.09375 0,-0.859375 -0.78125,-1.75 -2.390625,-1.75 -2.71875,0 -3.4375,2.125 -3.4375,2.96875 0,1.578125 1.53125,1.90625 2,2.015625 z m 0,0"
   id="path60" />
    </g>
  </g>
  <g
   fill="#000000"
   fill-opacity="1"
   id="g63"
   transform="matrix(0.352778,0,0,0.352778,-75.9445,-6.27578)">
    <g
   id="g62"
   transform="translate(223.759,29.997999)">
      <path
   d="m 2.5,-3.765625 c -0.140625,-0.203125 -0.140625,-0.21875 -0.234375,-0.21875 -0.328125,0 -1.0625,0.453125 -1.0625,0.703125 0,0.03125 0,0.046875 0.109375,0.234375 l 1.828125,3 C 3.21875,0.09375 3.359375,0.3125 3.375,0.328125 c 0.03125,0.0625 0.09375,0.0625 0.171875,0.0625 C 3.84375,0.390625 4.515625,0 4.59375,-0.296875 5.046875,-2.453125 5.890625,-4.5 7.1875,-6.28125 c 0.734375,-1 1.703125,-2.140625 3.125,-3.203125 0.25,-0.1875 0.421875,-0.3125 0.421875,-0.4375 0,-0.109375 -0.07813,-0.109375 -0.15625,-0.109375 -0.6875,0 -2.734375,1.9375 -3.546875,2.90625 -1.46875,1.71875 -2.421875,3.359375 -3.1875,5.5625 z m 0,0"
   id="path61" />
    </g>
  </g>
</g><g
       transform="translate(120.3111,145.807)"
       id="g69"><g
   fill="#000000"
   fill-opacity="1"
   id="g66"
   transform="matrix(0.352778,0,0,0.352778,-76.0853,-6.27578)">
    <g
   id="g65"
   transform="translate(214.62801,26.899)">
      <path
   d="M 4.703125,-4.125 C 5.0625,-4.0625 5.625,-3.953125 5.75,-3.921875 c 0.265625,0.078125 1.1875,0.40625 1.1875,1.40625 0,0.640625 -0.578125,2.3125 -2.96875,2.3125 -0.4375,0 -1.984375,-0.0625 -2.40625,-1.203125 0.828125,0.109375 1.25,-0.53125 1.25,-0.984375 0,-0.4375 -0.296875,-0.671875 -0.703125,-0.671875 -0.453125,0 -1.0625,0.359375 -1.0625,1.28125 0,1.21875 1.25,1.984375 2.90625,1.984375 3.125,0 4.0625,-2.3125 4.0625,-3.390625 0,-0.296875 0,-0.875 -0.65625,-1.546875 C 6.84375,-5.21875 6.34375,-5.328125 5.21875,-5.5625 c -0.546875,-0.125 -1.4375,-0.296875 -1.4375,-1.234375 0,-0.40625 0.375,-1.90625 2.328125,-1.90625 0.875,0 1.71875,0.34375 1.921875,1.078125 -0.90625,0 -0.953125,0.78125 -0.953125,0.8125 0,0.4375 0.40625,0.546875 0.578125,0.546875 0.296875,0 0.875,-0.21875 0.875,-1.09375 0,-0.859375 -0.78125,-1.75 -2.390625,-1.75 -2.71875,0 -3.4375,2.125 -3.4375,2.96875 0,1.578125 1.53125,1.90625 2,2.015625 z m 0,0"
   id="path64" />
    </g>
  </g>
  <g
   fill="#000000"
   fill-opacity="1"
   id="g68"
   transform="matrix(0.352778,0,0,0.352778,-76.0853,-6.27578)">
    <g
   id="g67"
   transform="translate(224.158,29.997999)">
      <path
   d="M 7.578125,-5.640625 C 7.484375,-6.140625 7.28125,-6.8125 6.75,-7.53125 L 6.828125,-7.8125 c 1.953125,0.578125 3.15625,2.359375 3.15625,4.234375 0,2.4375 -2.015625,4.40625 -4.40625,4.40625 -2.453125,0 -4.421875,-1.984375 -4.421875,-4.40625 0,-1.046875 0.40625,-2.84375 2.40625,-3.9375 0.140625,-0.078125 0.203125,-0.109375 0.203125,-0.21875 0,-0.03125 -0.015625,-0.171875 -0.1875,-0.171875 -0.25,0 -2.78125,1.359375 -2.78125,4.328125 0,2.640625 2.171875,4.765625 4.765625,4.765625 2.65625,0 4.78125,-2.15625 4.78125,-4.765625 0,-1.765625 -1.015625,-3.75 -3.296875,-4.5625 C 7.09375,-8.15625 7.953125,-8.53125 8.609375,-9.28125 8.53125,-9.296875 8.296875,-9.359375 8.1875,-9.390625 7.359375,-8.5 6.40625,-8.3125 6.375,-8.3125 c -0.046875,0 -0.453125,-0.046875 -0.6875,-0.046875 -0.109375,0 -0.296875,0 -0.296875,0.1875 0,0.15625 0.171875,0.171875 0.28125,0.171875 0.1875,0.015625 0.1875,0.015625 0.421875,0.234375 0.609375,0.59375 0.921875,1.28125 1.046875,2 z m 0,0"
   id="path66" />
    </g>
  </g>
</g><g
       transform="translate(71.487094,123.81108)"
       id="g73"><g
   fill="#000000"
   fill-opacity="1"
   id="g72"
   transform="matrix(0.352778,0,0,0.352778,-74.9172,-4.43473)">
    <g
   id="g70"
   transform="translate(212.02,26.899)">
      <path
   d="m 5.578125,-13.59375 c 0,-0.375 0,-0.734375 -0.40625,-0.734375 C 4.75,-14.328125 4.75,-13.96875 4.75,-13.59375 V 1.140625 C 4.25,0.34375 3.671875,-0.234375 3.15625,-0.625 c -1.25,-0.9375 -2.515625,-1.15625 -2.5625,-1.15625 -0.25,0 -0.25,0.234375 -0.25,0.390625 0,0.34375 0.03125,0.359375 0.484375,0.5 C 2.234375,-0.5 3.03125,0.25 3.515625,0.765625 4.5625,1.90625 4.8125,3.140625 4.9375,3.78125 4.953125,3.890625 5.015625,3.984375 5.171875,3.984375 5.34375,3.984375 5.375,3.84375 5.40625,3.65625 5.859375,1.328125 7.359375,-0.296875 9.625,-0.921875 9.9375,-1.03125 9.984375,-1.03125 9.984375,-1.390625 c 0,-0.15625 0,-0.390625 -0.25,-0.390625 -0.0625,0 -1.28125,0.234375 -2.46875,1.078125 C 6.59375,-0.1875 6.03125,0.4375 5.578125,1.140625 Z m 0,0"
   id="path69" />
    </g>
    <g
   id="g71"
   transform="translate(222.35126,26.899)">
      <path
   d="m 8.453125,-13.0625 c 0,-0.359375 0,-0.734375 -0.421875,-0.734375 -0.40625,0 -0.40625,0.4375 -0.40625,0.734375 v 12.234375 h -5.75 c -0.3125,0 -0.734375,0 -0.734375,0.421875 C 1.140625,0 1.5625,0 1.875,0 h 12.34375 c 0.34375,0 0.71875,0 0.71875,-0.40625 0,-0.421875 -0.375,-0.421875 -0.71875,-0.421875 H 8.453125 Z m 0,0"
   id="path70" />
    </g>
  </g>
</g><g
       transform="translate(129.4766,129.64336)"
       id="g77"><g
   fill="#000000"
   fill-opacity="1"
   id="g76"
   transform="matrix(0.352778,0,0,0.352778,-74.9172,-4.44024)">
    <g
   id="g74"
   transform="translate(212.02,26.899)">
      <path
   d="m 5.578125,-11.46875 c 0.5,0.796875 1.078125,1.375 1.59375,1.765625 1.25,0.9375 2.515625,1.15625 2.5625,1.15625 0.25,0 0.25,-0.234375 0.25,-0.390625 0,-0.34375 -0.03125,-0.359375 -0.484375,-0.5 -1.40625,-0.390625 -2.203125,-1.140625 -2.6875,-1.65625 -1.046875,-1.140625 -1.296875,-2.375 -1.421875,-3.03125 -0.015625,-0.109375 -0.109375,-0.1875 -0.21875,-0.1875 -0.1875,0 -0.21875,0.125 -0.25,0.375 -0.484375,2.28125 -1.953125,3.90625 -4.21875,4.53125 -0.3125,0.109375 -0.359375,0.109375 -0.359375,0.46875 0,0.15625 0,0.390625 0.25,0.390625 0.0625,0 1.28125,-0.234375 2.46875,-1.078125 0.671875,-0.515625 1.234375,-1.140625 1.6875,-1.84375 V 3.265625 C 4.75,3.640625 4.75,4 5.171875,4 5.578125,4 5.578125,3.640625 5.578125,3.265625 Z m 0,0"
   id="path73" />
    </g>
    <g
   id="g75"
   transform="translate(222.35126,26.899)">
      <path
   d="m 8.453125,-13.0625 c 0,-0.359375 0,-0.734375 -0.421875,-0.734375 -0.40625,0 -0.40625,0.4375 -0.40625,0.734375 v 12.234375 h -5.75 c -0.3125,0 -0.734375,0 -0.734375,0.421875 C 1.140625,0 1.5625,0 1.875,0 h 12.34375 c 0.34375,0 0.71875,0 0.71875,-0.40625 0,-0.421875 -0.375,-0.421875 -0.71875,-0.421875 H 8.453125 Z m 0,0"
   id="path74" />
    </g>
  </g>
</g><g
       transform="translate(106.6474,129.14345)"
       id="g84"><g
   fill="#000000"
   fill-opacity="1"
   id="g79"
   transform="matrix(0.352778,0,0,0.352778,-74.3972,-4.43473)">
    <g
   id="g78"
   transform="translate(210.54601,26.899)">
      <path
   d="m 5.578125,-13.59375 c 0,-0.375 0,-0.734375 -0.40625,-0.734375 C 4.75,-14.328125 4.75,-13.96875 4.75,-13.59375 V 1.140625 C 4.25,0.34375 3.671875,-0.234375 3.15625,-0.625 c -1.25,-0.9375 -2.515625,-1.15625 -2.5625,-1.15625 -0.25,0 -0.25,0.234375 -0.25,0.390625 0,0.34375 0.03125,0.359375 0.484375,0.5 C 2.234375,-0.5 3.03125,0.25 3.515625,0.765625 4.5625,1.90625 4.8125,3.140625 4.9375,3.78125 4.953125,3.890625 5.015625,3.984375 5.171875,3.984375 5.34375,3.984375 5.375,3.84375 5.40625,3.65625 5.859375,1.328125 7.359375,-0.296875 9.625,-0.921875 9.9375,-1.03125 9.984375,-1.03125 9.984375,-1.390625 c 0,-0.15625 0,-0.390625 -0.25,-0.390625 -0.0625,0 -1.28125,0.234375 -2.46875,1.078125 C 6.59375,-0.1875 6.03125,0.4375 5.578125,1.140625 Z m 0,0"
   id="path77" />
    </g>
  </g>
  <g
   fill="#000000"
   fill-opacity="1"
   id="g81"
   transform="matrix(0.352778,0,0,0.352778,-74.3972,-4.43473)">
    <g
   id="g80"
   transform="translate(220.877,26.899)">
      <path
   d="m 9.796875,-8.421875 c -0.671875,0.125 -0.921875,0.609375 -0.921875,1 0,0.5 0.40625,0.671875 0.6875,0.671875 0.625,0 1.0625,-0.546875 1.0625,-1.09375 0,-0.875 -1,-1.265625 -1.859375,-1.265625 -1.265625,0 -1.96875,1.234375 -2.15625,1.625 -0.46875,-1.546875 -1.75,-1.625 -2.125,-1.625 -2.109375,0 -3.21875,2.703125 -3.21875,3.15625 0,0.09375 0.078125,0.1875 0.21875,0.1875 0.171875,0 0.203125,-0.125 0.25,-0.203125 0.703125,-2.296875 2.09375,-2.734375 2.6875,-2.734375 0.921875,0 1.109375,0.875 1.109375,1.375 0,0.453125 -0.125,0.921875 -0.359375,1.921875 L 4.46875,-2.578125 c -0.3125,1.234375 -0.921875,2.375 -2.015625,2.375 -0.09375,0 -0.609375,0 -1.046875,-0.265625 C 2.140625,-0.625 2.3125,-1.234375 2.3125,-1.484375 2.3125,-1.90625 2,-2.140625 1.609375,-2.140625 c -0.5,0 -1.03125,0.421875 -1.03125,1.09375 0,0.859375 0.96875,1.25 1.859375,1.25 0.984375,0 1.6875,-0.78125 2.125,-1.625 0.328125,1.21875 1.359375,1.625 2.125,1.625 2.109375,0 3.234375,-2.703125 3.234375,-3.15625 0,-0.109375 -0.09375,-0.1875 -0.21875,-0.1875 -0.1875,0 -0.203125,0.109375 -0.265625,0.265625 -0.5625,1.828125 -1.75,2.671875 -2.6875,2.671875 -0.71875,0 -1.109375,-0.546875 -1.109375,-1.390625 0,-0.453125 0.078125,-0.78125 0.40625,-2.140625 l 0.734375,-2.8125 c 0.296875,-1.234375 1,-2.15625 1.953125,-2.15625 0.046875,0 0.625,0 1.0625,0.28125 z m 0,0"
   id="path79" />
    </g>
  </g>
  <g
   fill="#000000"
   fill-opacity="1"
   id="g83"
   transform="matrix(0.352778,0,0,0.352778,-74.3972,-4.43473)">
    <g
   id="g82"
   transform="translate(232.37399,29.997999)">
      <path
   d="m 6.421875,-4.59375 c 0,-1.1875 -0.0625,-2.34375 -0.578125,-3.4375 -0.59375,-1.1875 -1.625,-1.5 -2.328125,-1.5 -0.828125,0 -1.859375,0.40625 -2.375,1.59375 -0.40625,0.90625 -0.546875,1.796875 -0.546875,3.34375 0,1.390625 0.09375,2.4375 0.609375,3.453125 0.5625,1.09375 1.546875,1.4375 2.296875,1.4375 1.25,0 1.96875,-0.734375 2.375,-1.578125 0.515625,-1.078125 0.546875,-2.484375 0.546875,-3.3125 z M 3.5,0.015625 C 3.046875,0.015625 2.109375,-0.25 1.84375,-1.8125 1.671875,-2.671875 1.671875,-3.765625 1.671875,-4.765625 1.671875,-5.9375 1.671875,-7 1.90625,-7.84375 2.15625,-8.8125 2.890625,-9.25 3.5,-9.25 c 0.546875,0 1.375,0.328125 1.65625,1.5625 0.171875,0.8125 0.171875,1.953125 0.171875,2.921875 0,0.96875 0,2.046875 -0.15625,2.921875 C 4.90625,-0.265625 4,0.015625 3.5,0.015625 Z m 0,0"
   id="path81" />
    </g>
  </g>
</g><rect
       style="fill:none;stroke:#0000ff;stroke-width:0.529;stroke-dasharray:none;stroke-opacity:0.498592"
       id="rect84"
       width="84.484718"
       height="30.327847"
       x="80.652077"
       y="156.13841" /></g></svg>
