<svg xmlns="http://www.w3.org/2000/svg" xmlns:xlink="http://www.w3.org/1999/xlink" x="0" y="0" width="701.8333333333334" height="104" style="
        width:701.8333333333334px;
        height:104px;
        background: transparent;
        fill: none;
">
        <svg xmlns="http://www.w3.org/2000/svg"/>
        
        <svg xmlns="http://www.w3.org/2000/svg" class="role-diagram-draw-area" style="overflow: visible;"><g class="shapes-region" style="stroke: black; fill: none;"><g class="arrow-line"><path class="connection real" stroke-dasharray="" d="  M135.33,59.33 C46.32,95.84 59.9,13.01 109.42,41.69" style="stroke: rgb(0, 0, 0); stroke-width: 2px; fill: none; fill-opacity: 1;"/><g stroke="none" fill="#000" transform="matrix(-0.8369553980987391,-0.5472711042923618,0.5472711042923618,-0.8369553980987391,112.50002034505205,43.583333333333314)" style="stroke: none; fill: rgb(0, 0, 0); stroke-width: 2px;"><path d=" M13.4,-6.43 L0,0 L13.4,6.44 L8.9,0 Z"/></g></g><g class="grouped-shape"><g class="grouped-shape"><g class="composite-shape"><path class="real" d=" M106,60.67 C106,46.86 117.19,35.67 131,35.67 C144.81,35.67 156,46.86 156,60.67 C156,74.47 144.81,85.67 131,85.67 C117.19,85.67 106,74.47 106,60.67 Z" style="stroke-width: 2px; stroke: rgb(0, 0, 0); fill: rgb(255, 255, 255); fill-opacity: 1;"/></g><g class="composite-shape"><path class="real" d=" M110,60.44 C110,48.97 119.3,39.67 130.77,39.67 C142.25,39.67 151.55,48.97 151.55,60.44 C151.55,71.91 142.25,81.21 130.77,81.21 C119.3,81.21 110,71.91 110,60.44 Z" style="stroke-width: 2px; stroke: rgb(0, 0, 0); fill: rgb(255, 255, 255); fill-opacity: 1;"/></g></g></g><g/></g><g/><g/><g/></svg>
        <svg xmlns="http://www.w3.org/2000/svg" xmlns:xlink="http://www.w3.org/1999/xlink" width="700" height="102.16666666666666" style="width:700px;height:102.16666666666666px;font-family:LatinModern-Math, LatinModern, Asana-Math, Asana;background:transparent;"><g><g><g><g transform="matrix(1,0,0,1,11.577799479166668,45.13444783528646)"><path transform="matrix(0.03519,0,0,-0.03519,0,0)" d="M498 143C498 153 489 153 486 153C476 153 475 149 472 135C455 70 437 11 396 11C369 11 366 37 366 57C366 79 368 87 379 131L401 221L437 361C444 389 444 391 444 395C444 412 432 422 415 422C391 422 376 400 373 378C355 415 326 442 281 442C164 442 40 295 40 149C40 55 95 -11 173 -11C193 -11 243 -7 303 64C311 22 346 -11 394 -11C429 -11 452 12 468 44C485 80 498 143 498 143ZM361 332C361 326 359 320 358 315L308 119C303 101 303 99 288 82C244 27 203 11 175 11C125 11 111 66 111 105C111 155 143 278 166 324C197 383 242 420 282 420C347 420 361 338 361 332Z" stroke="rgb(0,0,0)" stroke-opacity="1" stroke-width="8" fill="rgb(0,0,0)" fill-opacity="1"></path></g></g><g><g transform="matrix(1,0,0,1,30.200012207031254,45.13444783528646)"><path transform="matrix(0.03519,0,0,-0.03519,0,0)" d="M203 1C203 67 178 106 139 106C106 106 86 81 86 53C86 26 106 0 139 0C151 0 164 4 174 13C177 15 179 16 179 16C179 16 181 15 181 1C181 -73 146 -133 113 -166C102 -177 102 -179 102 -182C102 -189 107 -193 112 -193C123 -193 203 -116 203 1Z" stroke="rgb(0,0,0)" stroke-opacity="1" stroke-width="8" fill="rgb(0,0,0)" fill-opacity="1"></path></g></g><g><g transform="matrix(1,0,0,1,47.0111083984375,45.13444783528646)"><path transform="matrix(0.03519,0,0,-0.03519,0,0)" d="M430 107C430 113 424 120 418 120C413 120 411 118 405 110C326 11 217 11 205 11C142 11 115 60 115 120C115 161 135 258 169 320C200 377 255 420 310 420C344 420 382 407 396 380C380 380 366 380 352 366C336 351 334 334 334 327C334 303 352 292 371 292C400 292 427 316 427 356C427 405 380 442 309 442C174 442 41 299 41 158C41 68 99 -11 203 -11C346 -11 430 95 430 107Z" stroke="rgb(0,0,0)" stroke-opacity="1" stroke-width="8" fill="rgb(0,0,0)" fill-opacity="1"></path></g></g></g></g><g><g><g><g transform="matrix(1,0,0,1,123.91113281250001,68.22112670898437)"><path transform="matrix(0.02941,0,0,-0.02941,0,0)" d="M527 376C527 428 468 442 434 442C376 442 341 389 329 366C304 432 250 442 221 442C117 442 60 313 60 288C60 278 72 278 72 278C80 278 83 280 85 289C119 395 185 420 219 420C238 420 273 411 273 353C273 322 256 255 219 115C203 53 168 11 124 11C118 11 95 11 74 24C99 29 121 50 121 78C121 105 99 113 84 113C54 113 29 87 29 55C29 9 79 -11 123 -11C189 -11 225 59 228 65C240 28 276 -11 336 -11C439 -11 496 118 496 143C496 153 487 153 484 153C475 153 473 149 471 142C438 35 370 11 338 11C299 11 283 43 283 77C283 99 289 121 300 165L334 302C340 328 363 420 433 420C438 420 462 420 483 407C455 402 435 377 435 353C435 337 446 318 473 318C495 318 527 336 527 376Z" stroke="rgb(0,0,0)" stroke-opacity="1" stroke-width="8" fill="rgb(0,0,0)" fill-opacity="1"></path></g></g></g></g><g><g><g><g transform="matrix(1,0,0,1,175.57779947916666,61.38779337565104)"><path transform="matrix(0.02941,0,0,-0.02941,0,0)" d="M728 607C733 627 730 646 719 659C704 679 677 685 646 685C594 685 537 670 490 634C456 608 424 574 400 540C369 496 352 451 334 403C307 333 259 230 219 199C201 185 178 169 161 159C147 150 118 133 104 116C71 77 51 44 40 11L56 -6C71 21 92 52 116 80C132 99 169 115 192 115C218 115 265 94 320 51C341 30 356 21 393 6C412 -3 457 -7 481 -7C524 -7 556 18 592 48C641 89 661 146 675 202C677 213 684 243 684 260L659 255C657 241 653 217 649 200C640 162 628 139 601 111C575 84 551 72 518 72C496 72 475 77 456 83C427 91 370 117 350 134C350 134 309 170 229 170L227 176C246 185 270 203 294 225C316 245 341 274 356 303C385 350 402 386 418 428C436 473 465 539 484 574C496 597 508 608 530 625C551 642 573 651 594 651C613 651 624 647 633 635C640 624 645 604 642 590C639 579 635 563 639 558C645 550 655 546 667 546C667 546 713 547 728 607Z" stroke="rgb(0,0,0)" stroke-opacity="1" stroke-width="8" fill="rgb(0,0,0)" fill-opacity="1"></path></g></g><g><g transform="matrix(1,0,0,1,198.23335774739581,61.154435628255214)"><path transform="matrix(0.02941,0,0,-0.02941,0,0)" d="M332 -238C332 -235 330 -232 328 -230C224 -152 155 48 155 208L155 292C155 452 224 652 328 730C330 732 332 735 332 738C332 743 327 748 322 748C320 748 318 747 316 746C206 663 101 463 101 292L101 208C101 37 206 -163 316 -246C318 -247 320 -248 322 -248C327 -248 332 -243 332 -238Z" stroke="rgb(0,0,0)" stroke-opacity="1" stroke-width="8" fill="rgb(0,0,0)" fill-opacity="1"></path></g></g><g><g transform="matrix(1,0,0,1,209.67777506510416,61.38779337565104)"><path transform="matrix(0.02941,0,0,-0.02941,0,0)" d="M817 675L817 694C788 691 742 685 708 672C678 661 649 646 622 630C580 605 547 564 518 524C472 461 434 400 394 335C350 265 282 154 261 128C241 102 216 71 190 50C175 38 160 31 143 31C134 31 126 34 120 41C117 46 113 51 115 59C117 67 120 75 124 83C126 88 129 95 130 99C132 106 131 113 127 117C122 126 112 131 100 131C89 131 78 130 68 122C55 112 47 98 43 85C37 59 39 34 52 15C65 -1 86 -10 109 -10C148 -10 190 10 225 38C267 72 342 149 396 236L617 236L578 78C573 61 570 45 570 29C571 18 572 7 578 -1C584 -11 597 -15 610 -15C635 -15 661 -2 684 11C721 31 756 56 788 86L777 103C759 90 745 80 729 70C716 62 703 56 690 56C682 56 674 58 669 64C656 81 658 105 662 129C674 199 691 270 708 340L781 630C785 648 790 658 801 666ZM717 638L627 279L424 279C465 355 507 432 556 505C584 546 612 588 651 619C670 634 692 645 711 649Z" stroke="rgb(0,0,0)" stroke-opacity="1" stroke-width="8" fill="rgb(0,0,0)" fill-opacity="1"></path></g></g><g><g transform="matrix(1,0,0,1,234.88887532552081,61.38779337565104)"><path transform="matrix(0.02941,0,0,-0.02941,0,0)" d="M203 1C203 67 178 106 139 106C106 106 86 81 86 53C86 26 106 0 139 0C151 0 164 4 174 13C177 15 179 16 179 16C179 16 181 15 181 1C181 -73 146 -133 113 -166C102 -177 102 -179 102 -182C102 -189 107 -193 112 -193C123 -193 203 -116 203 1Z" stroke="rgb(0,0,0)" stroke-opacity="1" stroke-width="8" fill="rgb(0,0,0)" fill-opacity="1"></path></g></g><g><g transform="matrix(1,0,0,1,248.95556640624997,61.38779337565104)"><path transform="matrix(0.02941,0,0,-0.02941,0,0)" d="M527 376C527 428 468 442 434 442C376 442 341 389 329 366C304 432 250 442 221 442C117 442 60 313 60 288C60 278 72 278 72 278C80 278 83 280 85 289C119 395 185 420 219 420C238 420 273 411 273 353C273 322 256 255 219 115C203 53 168 11 124 11C118 11 95 11 74 24C99 29 121 50 121 78C121 105 99 113 84 113C54 113 29 87 29 55C29 9 79 -11 123 -11C189 -11 225 59 228 65C240 28 276 -11 336 -11C439 -11 496 118 496 143C496 153 487 153 484 153C475 153 473 149 471 142C438 35 370 11 338 11C299 11 283 43 283 77C283 99 289 121 300 165L334 302C340 328 363 420 433 420C438 420 462 420 483 407C455 402 435 377 435 353C435 337 446 318 473 318C495 318 527 336 527 376Z" stroke="rgb(0,0,0)" stroke-opacity="1" stroke-width="8" fill="rgb(0,0,0)" fill-opacity="1"></path></g></g><g><g transform="matrix(1,0,0,1,265.80000813802087,61.154435628255214)"><path transform="matrix(0.02941,0,0,-0.02941,0,0)" d="M288 208L288 292C288 463 183 663 73 746C71 747 69 748 67 748C62 748 57 743 57 738C57 735 59 732 61 730C165 652 234 452 234 292L234 208C234 48 165 -152 61 -230C59 -232 57 -235 57 -238C57 -243 62 -248 67 -248C69 -248 71 -247 73 -246C183 -163 288 37 288 208Z" stroke="rgb(0,0,0)" stroke-opacity="1" stroke-width="8" fill="rgb(0,0,0)" fill-opacity="1"></path></g></g><g><g transform="matrix(1,0,0,1,286.0666910807292,61.38779337565104)"><path transform="matrix(0.02941,0,0,-0.02941,0,0)" d="M722 347C722 358 713 367 702 367L76 367C65 367 56 358 56 347C56 336 65 327 76 327L702 327C713 327 722 336 722 347ZM722 153C722 164 713 173 702 173L76 173C65 173 56 164 56 153C56 142 65 133 76 133L702 133C713 133 722 142 722 153Z" stroke="rgb(0,0,0)" stroke-opacity="1" stroke-width="8" fill="rgb(0,0,0)" fill-opacity="1"></path></g></g><g><svg x="319.23335774739587" overflow="visible" y="26.344451904296875" height="52" width="14.70000203450519"><path d=" M 12.45 3.45 c 0.00 -0.27 -0.29 -0.51 -0.64 -0.51 c -0.07 0.00 -0.15 0.02 -0.22 0.04 c -4.14 1.20 -5.88 4.35 -5.88 7.31 v 0.39 h 2.50 v -0.39 c 0.00 -2.41 0.44 -5.37 3.82 -6.37 c 0.25 -0.06 0.42 -0.25 0.42 -0.47 z  M 5.64 10.69 v 7.67 h 2.50 v -7.67 z  M 8.11 33.65 v -0.29 c 0.00 -2.88 -1.47 -5.88 -5.02 -7.35 c 3.55 -1.47 5.02 -4.47 5.02 -7.35 v -0.29 h -2.50 v 0.29 c 0.00 2.69 -0.91 5.88 -4.31 6.88 c -0.25 0.06 -0.42 0.25 -0.42 0.47 s 0.17 0.41 0.42 0.47 c 3.41 1.00 4.31 4.20 4.31 6.88 v 0.29 h 2.50 z  M 5.64 33.65 v 7.67 h 2.50 v -7.67 z" style="fill:rgb(0,0,0);fill-opacity:1;stroke-width:1px;stroke:none;stroke-opacity:1;"></path><path d=" M 12.45 48.55 c 0.00 0.27 -0.29 0.51 -0.64 0.51 c -0.07 0.00 -0.15 -0.02 -0.22 -0.04 c -4.14 -1.20 -5.88 -4.35 -5.88 -7.31 v -0.39 h 2.50 v 0.39 c 0.00 2.41 0.44 5.37 3.82 6.37 c 0.25 0.06 0.42 0.25 0.42 0.47 z" style="fill:rgb(0,0,0);fill-opacity:1;stroke-width:1px;stroke:none;stroke-opacity:1;"></path></svg></g><g><g transform="matrix(1,0,0,1,335.4000244140625,61.38779337565104)"><path transform="matrix(0.02941,0,0,-0.02941,0,0)" d="M691 372C691 427 664 442 647 442C622 442 597 416 597 394C597 381 603 375 612 367C623 356 648 330 648 282C648 248 619 150 593 99C567 46 532 11 483 11C436 11 409 41 409 98C409 126 416 157 420 171L462 339C467 361 477 398 477 404C477 422 463 431 448 431C436 431 418 423 411 403C408 396 361 205 354 179C347 149 345 131 345 113C345 102 345 100 346 95C323 42 293 11 254 11C174 11 174 85 174 102C174 134 179 173 226 296C237 326 243 340 243 360C243 405 210 442 161 442C66 442 29 297 29 288C29 278 41 278 41 278C51 278 52 280 57 296C84 389 123 420 158 420C167 420 183 419 183 387C183 362 172 334 165 317C121 199 109 153 109 115C109 24 176 -11 251 -11C268 -11 315 -11 355 59C381 -5 450 -11 480 -11C555 -11 599 52 625 112C659 190 691 324 691 372Z" stroke="rgb(0,0,0)" stroke-opacity="1" stroke-width="8" fill="rgb(0,0,0)" fill-opacity="1"></path></g></g><g><g transform="matrix(1,0,0,1,365.27779134114587,61.38779337565104)"><path transform="matrix(0.02941,0,0,-0.02941,0,0)" d="M587 -23C587 -12 578 -3 567 -3L374 -3C241 -3 132 100 122 230L567 230C594 230 594 270 567 270L122 270C132 400 241 503 374 503L567 503C578 503 587 512 587 523C587 534 578 543 567 543L374 543C212 543 81 412 81 250C81 88 212 -43 374 -43L567 -43C578 -43 587 -34 587 -23Z" stroke="rgb(0,0,0)" stroke-opacity="1" stroke-width="8" fill="rgb(0,0,0)" fill-opacity="1"></path></g></g><g><g transform="matrix(1,0,0,1,393.71114095052087,61.38779337565104)"><path transform="matrix(0.02941,0,0,-0.02941,0,0)" d="M721 20C721 31 711 31 698 31C636 31 636 38 633 67L572 692C570 712 570 716 553 716C537 716 533 709 527 699L179 115C139 48 100 34 56 31C44 30 35 30 35 11C35 5 40 0 48 0C75 0 106 3 134 3C167 3 202 0 234 0C240 0 253 0 253 19C253 30 244 31 237 31C214 33 190 41 190 66C190 78 196 89 204 103C211 115 212 115 280 231L531 231C533 210 547 74 547 64C547 34 495 31 475 31C461 31 451 31 451 11C451 0 465 0 465 0C506 0 549 3 590 3C615 3 678 0 703 0C709 0 721 0 721 20ZM528 262L299 262L496 592Z" stroke="rgb(0,0,0)" stroke-opacity="1" stroke-width="8" fill="rgb(0,0,0)" fill-opacity="1"></path></g></g><g><g><g><g><g transform="matrix(1,0,0,1,417.477783203125,49.56479337565105)"><path transform="matrix(0.020587,0,0,-0.020587,0,0)" d="M436 203C445 218 439 237 423 244L274 310L423 376C439 383 445 402 436 418C427 433 407 437 393 427L262 331L279 492C281 510 268 525 250 525C232 525 219 510 221 492L238 331L107 427C93 437 73 433 64 418C55 402 61 383 77 376L226 310L77 244C61 237 55 218 64 203C73 187 93 183 107 193L238 289L221 128C219 110 232 95 250 95C268 95 281 110 279 128L262 289L393 193C407 183 427 187 436 203Z" stroke="rgb(0,0,0)" stroke-opacity="1" stroke-width="8" fill="rgb(0,0,0)" fill-opacity="1"></path></g></g></g></g></g><g><g transform="matrix(1,0,0,1,438.34444173177087,61.38779337565104)"><path transform="matrix(0.02941,0,0,-0.02941,0,0)" d="M159 -230L159 730C159 741 150 750 139 750C128 750 119 741 119 730L119 -230C119 -241 128 -250 139 -250C150 -250 159 -241 159 -230Z" stroke="rgb(0,0,0)" stroke-opacity="1" stroke-width="8" fill="rgb(0,0,0)" fill-opacity="1"></path></g></g><g><g transform="matrix(1,0,0,1,455.34444173177087,61.38779337565104)"><path transform="matrix(0.02941,0,0,-0.02941,0,0)" d="M691 372C691 427 664 442 647 442C622 442 597 416 597 394C597 381 603 375 612 367C623 356 648 330 648 282C648 248 619 150 593 99C567 46 532 11 483 11C436 11 409 41 409 98C409 126 416 157 420 171L462 339C467 361 477 398 477 404C477 422 463 431 448 431C436 431 418 423 411 403C408 396 361 205 354 179C347 149 345 131 345 113C345 102 345 100 346 95C323 42 293 11 254 11C174 11 174 85 174 102C174 134 179 173 226 296C237 326 243 340 243 360C243 405 210 442 161 442C66 442 29 297 29 288C29 278 41 278 41 278C51 278 52 280 57 296C84 389 123 420 158 420C167 420 183 419 183 387C183 362 172 334 165 317C121 199 109 153 109 115C109 24 176 -11 251 -11C268 -11 315 -11 355 59C381 -5 450 -11 480 -11C555 -11 599 52 625 112C659 190 691 324 691 372Z" stroke="rgb(0,0,0)" stroke-opacity="1" stroke-width="8" fill="rgb(0,0,0)" fill-opacity="1"></path></g></g><g><g><g><g><text x="486.1777750651042" y="38.399993896484375" style="white-space:pre;stroke:none;fill:rgb(0,0,0);fill-opacity:1;font-size:25.95px;font-family:&quot;Times New Roman&quot;, Times, serif;font-weight:400;font-style:normal;dominant-baseline:text-before-edge;text-decoration:rgb(0, 0, 0);">contains only</text></g></g></g></g><g><g transform="matrix(1,0,0,1,625.2444254557291,61.38779337565104)"><path transform="matrix(0.02941,0,0,-0.02941,0,0)" d="M830 143C830 153 821 153 818 153C808 153 807 149 804 135C787 70 769 11 728 11C701 11 698 37 698 57C698 79 700 87 711 131L733 221L769 361C776 389 776 391 776 395C776 412 764 422 747 422C723 422 708 400 705 378C687 415 658 442 613 442C496 442 372 295 372 149C372 55 427 -11 505 -11C525 -11 575 -7 635 64C643 22 678 -11 726 -11C761 -11 784 12 800 44C817 80 830 143 830 143ZM693 332C693 326 691 320 690 315L640 119C635 101 635 99 620 82C576 27 535 11 507 11C457 11 443 66 443 105C443 155 475 278 498 324C529 383 574 420 614 420C679 420 693 338 693 332Z" stroke="rgb(0,0,0)" stroke-opacity="1" stroke-width="8" fill="rgb(0,0,0)" fill-opacity="1"></path></g></g><g><g transform="matrix(1,0,0,1,650.5777587890625,61.38779337565104)"><path transform="matrix(0.02941,0,0,-0.02941,0,0)" d="M203 1C203 67 178 106 139 106C106 106 86 81 86 53C86 26 106 0 139 0C151 0 164 4 174 13C177 15 179 16 179 16C179 16 181 15 181 1C181 -73 146 -133 113 -166C102 -177 102 -179 102 -182C102 -189 107 -193 112 -193C123 -193 203 -116 203 1Z" stroke="rgb(0,0,0)" stroke-opacity="1" stroke-width="8" fill="rgb(0,0,0)" fill-opacity="1"></path></g></g><g><g transform="matrix(1,0,0,1,664.6444091796875,61.38779337565104)"><path transform="matrix(0.02941,0,0,-0.02941,0,0)" d="M430 107C430 113 424 120 418 120C413 120 411 118 405 110C326 11 217 11 205 11C142 11 115 60 115 120C115 161 135 258 169 320C200 377 255 420 310 420C344 420 382 407 396 380C380 380 366 380 352 366C336 351 334 334 334 327C334 303 352 292 371 292C400 292 427 316 427 356C427 405 380 442 309 442C174 442 41 299 41 158C41 68 99 -11 203 -11C346 -11 430 95 430 107Z" stroke="rgb(0,0,0)" stroke-opacity="1" stroke-width="8" fill="rgb(0,0,0)" fill-opacity="1"></path></g></g><g><svg x="678.8444417317708" overflow="visible" y="26.344451904296875" height="52" width="14.700002034505246"><path d=" M 2.25 3.45 c 0.00 -0.27 0.29 -0.51 0.64 -0.51 c 0.07 0.00 0.15 0.02 0.22 0.04 c 4.14 1.20 5.88 4.35 5.88 7.31 v 0.39 h -2.50 v -0.39 c 0.00 -2.41 -0.44 -5.37 -3.82 -6.37 c -0.25 -0.06 -0.42 -0.25 -0.42 -0.47 z   M 9.07 10.69 v 7.67 h -2.50 v -7.67 z  M 6.59 33.65 v -0.29 c 0.00 -2.88 1.47 -5.88 5.02 -7.35 c -3.55 -1.47 -5.02 -4.47 -5.02 -7.35 v -0.29 h 2.50 v 0.29 c 0.00 2.69 0.91 5.88 4.31 6.88 c 0.25 0.06 0.42 0.25 0.42 0.47 s -0.17 0.41 -0.42 0.47 c -3.41 1.00 -4.31 4.20 -4.31 6.88 v 0.29 h -2.50 z  M 9.07 33.65 v 7.67 h -2.50 v -7.67 z" style="fill:rgb(0,0,0);fill-opacity:1;stroke-width:1px;stroke:none;stroke-opacity:1;"></path><path d=" M 2.25 48.55 c 0.00 0.27 0.29 0.51 0.64 0.51 c 0.07 0.00 0.15 -0.02 0.22 -0.04 c 4.14 -1.20 5.88 -4.35 5.88 -7.31 v -0.39 h -2.50 v 0.39 c 0.00 2.41 -0.44 5.37 -3.82 6.37 c -0.25 0.06 -0.42 0.25 -0.42 0.47 z" style="fill:rgb(0,0,0);fill-opacity:1;stroke-width:1px;stroke:none;stroke-opacity:1;"></path></svg></g></g></g></svg>
</svg>
