<svg xmlns="http://www.w3.org/2000/svg" xmlns:xlink="http://www.w3.org/1999/xlink" x="0" y="0" width="701.8333333333334" height="111.83333333333333" style="
        width:701.8333333333334px;
        height:111.83333333333333px;
        background: transparent;
        fill: none;
">
        <svg xmlns="http://www.w3.org/2000/svg"/>
        
        <svg xmlns="http://www.w3.org/2000/svg" class="role-diagram-draw-area" style="overflow: visible;"><g class="shapes-region" style="stroke: black; fill: none;"><g class="arrow-line"><path class="connection real" stroke-dasharray="" d="  M107.33,64 C158,57.68 220.11,57.53 270.17,63.53" style="stroke: rgb(0, 0, 0); stroke-width: 2px; fill: none; fill-opacity: 1;"/><g stroke="none" fill="#000" transform="matrix(-0.9919387360751214,-0.1267183643900546,0.1267183643900546,-0.9919387360751214,273.99999999999994,63.99999999999997)" style="stroke: none; fill: rgb(0, 0, 0); stroke-width: 2px;"><path d=" M13.4,-6.43 L0,0 L13.4,6.44 L8.9,0 Z"/></g></g><g class="arrow-line"><path class="connection real" stroke-dasharray="" d="  M107.33,64 C18.32,100.51 31.9,17.68 81.42,46.35" style="stroke: rgb(0, 0, 0); stroke-width: 2px; fill: none; fill-opacity: 1;"/><g stroke="none" fill="#000" transform="matrix(-0.8369553980987391,-0.5472711042923618,0.5472711042923618,-0.8369553980987391,84.50002034505209,48.25)" style="stroke: none; fill: rgb(0, 0, 0); stroke-width: 2px;"><path d=" M13.4,-6.43 L0,0 L13.4,6.44 L8.9,0 Z"/></g></g><g class="grouped-shape"><g class="composite-shape"><path class="real" d=" M82.33,64 C82.33,50.19 93.53,39 107.33,39 C121.14,39 132.33,50.19 132.33,64 C132.33,77.81 121.14,89 107.33,89 C93.53,89 82.33,77.81 82.33,64 Z" style="stroke-width: 2px; stroke: rgb(0, 0, 0); fill: rgb(255, 255, 255); fill-opacity: 1;"/></g></g><g class="grouped-shape"><g class="grouped-shape"><g class="composite-shape"><path class="real" d=" M274,64 C274,50.19 285.19,39 299,39 C312.81,39 324,50.19 324,64 C324,77.81 312.81,89 299,89 C285.19,89 274,77.81 274,64 Z" style="stroke-width: 2px; stroke: rgb(0, 0, 0); fill: rgb(255, 255, 255); fill-opacity: 1;"/></g><g class="composite-shape"><path class="real" d=" M278,63.77 C278,52.3 287.3,43 298.77,43 C310.25,43 319.55,52.3 319.55,63.77 C319.55,75.25 310.25,84.55 298.77,84.55 C287.3,84.55 278,75.25 278,63.77 Z" style="stroke-width: 2px; stroke: rgb(0, 0, 0); fill: rgb(255, 255, 255); fill-opacity: 1;"/></g></g></g><g/></g><g/><g/><g/></svg>
        <svg xmlns="http://www.w3.org/2000/svg" xmlns:xlink="http://www.w3.org/1999/xlink" width="700" height="110" style="width:700px;height:110px;font-family:LatinModern-Math, LatinModern, Asana-Math, Asana;background:transparent;"><g><g><g><g transform="matrix(1,0,0,1,187.24446614583331,49.13443766276041)"><path transform="matrix(0.03519,0,0,-0.03519,0,0)" d="M415 282C415 373 362 442 282 442C236 442 195 413 165 382L239 683C239 683 239 694 226 694C203 694 130 686 104 684C96 683 85 682 85 664C85 652 94 652 109 652C157 652 159 645 159 635C159 628 150 594 145 573L63 247C51 197 47 181 47 146C47 51 100 -11 174 -11C292 -11 415 138 415 282ZM343 326C343 267 310 152 292 114C259 47 213 11 174 11C140 11 107 38 107 112C107 131 107 150 123 213L145 305C151 327 151 329 160 340C209 405 254 420 280 420C316 420 343 390 343 326Z" stroke="rgb(0,0,0)" stroke-opacity="1" stroke-width="8" fill="rgb(0,0,0)" fill-opacity="1"></path></g></g></g></g><g><g><g><g transform="matrix(1,0,0,1,98.24446614583334,71.55444986979167)"><path transform="matrix(0.02941,0,0,-0.02941,0,0)" d="M527 376C527 428 468 442 434 442C376 442 341 389 329 366C304 432 250 442 221 442C117 442 60 313 60 288C60 278 72 278 72 278C80 278 83 280 85 289C119 395 185 420 219 420C238 420 273 411 273 353C273 322 256 255 219 115C203 53 168 11 124 11C118 11 95 11 74 24C99 29 121 50 121 78C121 105 99 113 84 113C54 113 29 87 29 55C29 9 79 -11 123 -11C189 -11 225 59 228 65C240 28 276 -11 336 -11C439 -11 496 118 496 143C496 153 487 153 484 153C475 153 473 149 471 142C438 35 370 11 338 11C299 11 283 43 283 77C283 99 289 121 300 165L334 302C340 328 363 420 433 420C438 420 462 420 483 407C455 402 435 377 435 353C435 337 446 318 473 318C495 318 527 336 527 376Z" stroke="rgb(0,0,0)" stroke-opacity="1" stroke-width="8" fill="rgb(0,0,0)" fill-opacity="1"></path></g></g></g></g><g><g><g><g transform="matrix(1,0,0,1,12.244466145833332,55.13443766276041)"><path transform="matrix(0.03519,0,0,-0.03519,0,0)" d="M430 107C430 113 424 120 418 120C413 120 411 118 405 110C326 11 217 11 205 11C142 11 115 60 115 120C115 161 135 258 169 320C200 377 255 420 310 420C344 420 382 407 396 380C380 380 366 380 352 366C336 351 334 334 334 327C334 303 352 292 371 292C400 292 427 316 427 356C427 405 380 442 309 442C174 442 41 299 41 158C41 68 99 -11 203 -11C346 -11 430 95 430 107Z" stroke="rgb(0,0,0)" stroke-opacity="1" stroke-width="8" fill="rgb(0,0,0)" fill-opacity="1"></path></g></g></g></g><g><g><g><g transform="matrix(1,0,0,1,291.9111328125,71.55444986979167)"><path transform="matrix(0.02941,0,0,-0.02941,0,0)" d="M490 404C490 422 476 431 461 431C451 431 435 425 426 410C424 405 416 374 412 356L392 276L347 96C343 81 300 11 234 11C183 11 172 55 172 92C172 138 189 200 223 288C239 329 243 340 243 360C243 405 211 442 161 442C66 442 29 297 29 288C29 278 41 278 41 278C51 278 52 280 57 296C84 390 124 420 158 420C166 420 183 420 183 388C183 363 173 337 166 318C126 212 108 155 108 108C108 19 171 -11 230 -11C269 -11 303 6 331 34C318 -18 306 -67 266 -120C240 -154 202 -183 156 -183C142 -183 97 -180 80 -141C96 -141 109 -141 123 -129C133 -120 143 -107 143 -88C143 -57 116 -53 106 -53C83 -53 50 -69 50 -118C50 -168 94 -205 156 -205C259 -205 362 -114 390 -1L486 381C490 395 490 397 490 404Z" stroke="rgb(0,0,0)" stroke-opacity="1" stroke-width="8" fill="rgb(0,0,0)" fill-opacity="1"></path></g></g></g></g><g><g><g><g transform="matrix(1,0,0,1,358.9111328125,67.387783203125)"><path transform="matrix(0.02941,0,0,-0.02941,0,0)" d="M728 607C733 627 730 646 719 659C704 679 677 685 646 685C594 685 537 670 490 634C456 608 424 574 400 540C369 496 352 451 334 403C307 333 259 230 219 199C201 185 178 169 161 159C147 150 118 133 104 116C71 77 51 44 40 11L56 -6C71 21 92 52 116 80C132 99 169 115 192 115C218 115 265 94 320 51C341 30 356 21 393 6C412 -3 457 -7 481 -7C524 -7 556 18 592 48C641 89 661 146 675 202C677 213 684 243 684 260L659 255C657 241 653 217 649 200C640 162 628 139 601 111C575 84 551 72 518 72C496 72 475 77 456 83C427 91 370 117 350 134C350 134 309 170 229 170L227 176C246 185 270 203 294 225C316 245 341 274 356 303C385 350 402 386 418 428C436 473 465 539 484 574C496 597 508 608 530 625C551 642 573 651 594 651C613 651 624 647 633 635C640 624 645 604 642 590C639 579 635 563 639 558C645 550 655 546 667 546C667 546 713 547 728 607Z" stroke="rgb(0,0,0)" stroke-opacity="1" stroke-width="8" fill="rgb(0,0,0)" fill-opacity="1"></path></g></g><g><g transform="matrix(1,0,0,1,381.5555419921875,67.15442545572917)"><path transform="matrix(0.02941,0,0,-0.02941,0,0)" d="M332 -238C332 -235 330 -232 328 -230C224 -152 155 48 155 208L155 292C155 452 224 652 328 730C330 732 332 735 332 738C332 743 327 748 322 748C320 748 318 747 316 746C206 663 101 463 101 292L101 208C101 37 206 -163 316 -246C318 -247 320 -248 322 -248C327 -248 332 -243 332 -238Z" stroke="rgb(0,0,0)" stroke-opacity="1" stroke-width="8" fill="rgb(0,0,0)" fill-opacity="1"></path></g></g><g><g transform="matrix(1,0,0,1,393.0111083984375,67.387783203125)"><path transform="matrix(0.02941,0,0,-0.02941,0,0)" d="M817 675L817 694C788 691 742 685 708 672C678 661 649 646 622 630C580 605 547 564 518 524C472 461 434 400 394 335C350 265 282 154 261 128C241 102 216 71 190 50C175 38 160 31 143 31C134 31 126 34 120 41C117 46 113 51 115 59C117 67 120 75 124 83C126 88 129 95 130 99C132 106 131 113 127 117C122 126 112 131 100 131C89 131 78 130 68 122C55 112 47 98 43 85C37 59 39 34 52 15C65 -1 86 -10 109 -10C148 -10 190 10 225 38C267 72 342 149 396 236L617 236L578 78C573 61 570 45 570 29C571 18 572 7 578 -1C584 -11 597 -15 610 -15C635 -15 661 -2 684 11C721 31 756 56 788 86L777 103C759 90 745 80 729 70C716 62 703 56 690 56C682 56 674 58 669 64C656 81 658 105 662 129C674 199 691 270 708 340L781 630C785 648 790 658 801 666ZM717 638L627 279L424 279C465 355 507 432 556 505C584 546 612 588 651 619C670 634 692 645 711 649Z" stroke="rgb(0,0,0)" stroke-opacity="1" stroke-width="8" fill="rgb(0,0,0)" fill-opacity="1"></path></g></g><g><g transform="matrix(1,0,0,1,418.2222086588542,67.387783203125)"><path transform="matrix(0.02941,0,0,-0.02941,0,0)" d="M203 1C203 67 178 106 139 106C106 106 86 81 86 53C86 26 106 0 139 0C151 0 164 4 174 13C177 15 179 16 179 16C179 16 181 15 181 1C181 -73 146 -133 113 -166C102 -177 102 -179 102 -182C102 -189 107 -193 112 -193C123 -193 203 -116 203 1Z" stroke="rgb(0,0,0)" stroke-opacity="1" stroke-width="8" fill="rgb(0,0,0)" fill-opacity="1"></path></g></g><g><g transform="matrix(1,0,0,1,432.28889973958337,67.387783203125)"><path transform="matrix(0.02941,0,0,-0.02941,0,0)" d="M527 376C527 428 468 442 434 442C376 442 341 389 329 366C304 432 250 442 221 442C117 442 60 313 60 288C60 278 72 278 72 278C80 278 83 280 85 289C119 395 185 420 219 420C238 420 273 411 273 353C273 322 256 255 219 115C203 53 168 11 124 11C118 11 95 11 74 24C99 29 121 50 121 78C121 105 99 113 84 113C54 113 29 87 29 55C29 9 79 -11 123 -11C189 -11 225 59 228 65C240 28 276 -11 336 -11C439 -11 496 118 496 143C496 153 487 153 484 153C475 153 473 149 471 142C438 35 370 11 338 11C299 11 283 43 283 77C283 99 289 121 300 165L334 302C340 328 363 420 433 420C438 420 462 420 483 407C455 402 435 377 435 353C435 337 446 318 473 318C495 318 527 336 527 376Z" stroke="rgb(0,0,0)" stroke-opacity="1" stroke-width="8" fill="rgb(0,0,0)" fill-opacity="1"></path></g></g><g><g transform="matrix(1,0,0,1,449.1333414713542,67.15442545572917)"><path transform="matrix(0.02941,0,0,-0.02941,0,0)" d="M288 208L288 292C288 463 183 663 73 746C71 747 69 748 67 748C62 748 57 743 57 738C57 735 59 732 61 730C165 652 234 452 234 292L234 208C234 48 165 -152 61 -230C59 -232 57 -235 57 -238C57 -243 62 -248 67 -248C69 -248 71 -247 73 -246C183 -163 288 37 288 208Z" stroke="rgb(0,0,0)" stroke-opacity="1" stroke-width="8" fill="rgb(0,0,0)" fill-opacity="1"></path></g></g><g><g transform="matrix(1,0,0,1,469.4000244140625,67.387783203125)"><path transform="matrix(0.02941,0,0,-0.02941,0,0)" d="M722 347C722 358 713 367 702 367L76 367C65 367 56 358 56 347C56 336 65 327 76 327L702 327C713 327 722 336 722 347ZM722 153C722 164 713 173 702 173L76 173C65 173 56 164 56 153C56 142 65 133 76 133L702 133C713 133 722 142 722 153Z" stroke="rgb(0,0,0)" stroke-opacity="1" stroke-width="8" fill="rgb(0,0,0)" fill-opacity="1"></path></g></g><g><svg x="502.5666910807292" overflow="visible" y="32.34444173177083" height="52.000000000000014" width="14.70000203450519"><path d=" M 12.45 3.45 c 0.00 -0.27 -0.29 -0.51 -0.64 -0.51 c -0.07 0.00 -0.15 0.02 -0.22 0.04 c -4.14 1.20 -5.88 4.35 -5.88 7.31 v 0.39 h 2.50 v -0.39 c 0.00 -2.41 0.44 -5.37 3.82 -6.37 c 0.25 -0.06 0.42 -0.25 0.42 -0.47 z  M 5.64 10.69 v 7.67 h 2.50 v -7.67 z  M 8.11 33.65 v -0.29 c 0.00 -2.88 -1.47 -5.88 -5.02 -7.35 c 3.55 -1.47 5.02 -4.47 5.02 -7.35 v -0.29 h -2.50 v 0.29 c 0.00 2.69 -0.91 5.88 -4.31 6.88 c -0.25 0.06 -0.42 0.25 -0.42 0.47 s 0.17 0.41 0.42 0.47 c 3.41 1.00 4.31 4.20 4.31 6.88 v 0.29 h 2.50 z  M 5.64 33.65 v 7.67 h 2.50 v -7.67 z" style="fill:rgb(0,0,0);fill-opacity:1;stroke-width:1px;stroke:none;stroke-opacity:1;"></path><path d=" M 12.45 48.55 c 0.00 0.27 -0.29 0.51 -0.64 0.51 c -0.07 0.00 -0.15 -0.02 -0.22 -0.04 c -4.14 -1.20 -5.88 -4.35 -5.88 -7.31 v -0.39 h 2.50 v 0.39 c 0.00 2.41 0.44 5.37 3.82 6.37 c 0.25 0.06 0.42 0.25 0.42 0.47 z" style="fill:rgb(0,0,0);fill-opacity:1;stroke-width:1px;stroke:none;stroke-opacity:1;"></path></svg></g><g><g transform="matrix(1,0,0,1,518.7333577473958,67.387783203125)"><path transform="matrix(0.02941,0,0,-0.02941,0,0)" d="M430 107C430 113 424 120 418 120C413 120 411 118 405 110C326 11 217 11 205 11C142 11 115 60 115 120C115 161 135 258 169 320C200 377 255 420 310 420C344 420 382 407 396 380C380 380 366 380 352 366C336 351 334 334 334 327C334 303 352 292 371 292C400 292 427 316 427 356C427 405 380 442 309 442C174 442 41 299 41 158C41 68 99 -11 203 -11C346 -11 430 95 430 107Z" stroke="rgb(0,0,0)" stroke-opacity="1" stroke-width="8" fill="rgb(0,0,0)" fill-opacity="1"></path></g></g><g><g><g><g><g transform="matrix(1,0,0,1,533.1667073567708,55.564783203125)"><path transform="matrix(0.020587,0,0,-0.020587,0,0)" d="M571 143C571 153 562 153 559 153C549 153 549 150 544 135C524 67 491 11 442 11C425 11 418 21 418 44C418 69 427 93 436 115C455 168 497 278 497 335C497 402 454 442 382 442C292 442 243 378 226 355C221 411 180 442 134 442C88 442 69 403 59 385C43 351 29 292 29 288C29 278 41 278 41 278C51 278 52 279 58 301C75 372 95 420 131 420C151 420 162 407 162 374C162 353 159 342 146 290L88 59C85 44 79 21 79 16C79 -2 93 -11 108 -11C120 -11 138 -3 145 17C146 19 158 66 164 91L186 181C192 203 198 225 203 248L216 298C231 329 284 420 379 420C424 420 433 383 433 350C433 288 384 160 368 117C359 94 358 82 358 71C358 24 393 -11 440 -11C534 -11 571 135 571 143Z" stroke="rgb(0,0,0)" stroke-opacity="1" stroke-width="8" fill="rgb(0,0,0)" fill-opacity="1"></path></g></g></g></g></g><g><g transform="matrix(1,0,0,1,547.2777913411458,67.387783203125)"><path transform="matrix(0.02941,0,0,-0.02941,0,0)" d="M415 282C415 373 362 442 282 442C236 442 195 413 165 382L239 683C239 683 239 694 226 694C203 694 130 686 104 684C96 683 85 682 85 664C85 652 94 652 109 652C157 652 159 645 159 635C159 628 150 594 145 573L63 247C51 197 47 181 47 146C47 51 100 -11 174 -11C292 -11 415 138 415 282ZM343 326C343 267 310 152 292 114C259 47 213 11 174 11C140 11 107 38 107 112C107 131 107 150 123 213L145 305C151 327 151 329 160 340C209 405 254 420 280 420C316 420 343 390 343 326Z" stroke="rgb(0,0,0)" stroke-opacity="1" stroke-width="8" fill="rgb(0,0,0)" fill-opacity="1"></path></g></g><g><g transform="matrix(1,0,0,1,568.7111409505208,67.387783203125)"><path transform="matrix(0.02941,0,0,-0.02941,0,0)" d="M159 -230L159 730C159 741 150 750 139 750C128 750 119 741 119 730L119 -230C119 -241 128 -250 139 -250C150 -250 159 -241 159 -230Z" stroke="rgb(0,0,0)" stroke-opacity="1" stroke-width="8" fill="rgb(0,0,0)" fill-opacity="1"></path></g></g><g><g transform="matrix(1,0,0,1,585.7111409505208,67.387783203125)"><path transform="matrix(0.02941,0,0,-0.02941,0,0)" d="M571 143C571 153 562 153 559 153C549 153 549 150 544 135C524 67 491 11 442 11C425 11 418 21 418 44C418 69 427 93 436 115C455 168 497 278 497 335C497 402 454 442 382 442C292 442 243 378 226 355C221 411 180 442 134 442C88 442 69 403 59 385C43 351 29 292 29 288C29 278 41 278 41 278C51 278 52 279 58 301C75 372 95 420 131 420C151 420 162 407 162 374C162 353 159 342 146 290L88 59C85 44 79 21 79 16C79 -2 93 -11 108 -11C120 -11 138 -3 145 17C146 19 158 66 164 91L186 181C192 203 198 225 203 248L216 298C231 329 284 420 379 420C424 420 433 383 433 350C433 288 384 160 368 117C359 94 358 82 358 71C358 24 393 -11 440 -11C534 -11 571 135 571 143Z" stroke="rgb(0,0,0)" stroke-opacity="1" stroke-width="8" fill="rgb(0,0,0)" fill-opacity="1"></path></g></g><g><g transform="matrix(1,0,0,1,612.1777750651041,67.387783203125)"><path transform="matrix(0.02941,0,0,-0.02941,0,0)" d="M587 -23C587 -12 578 -3 567 -3L374 -3C241 -3 132 100 122 230L567 230C594 230 594 270 567 270L122 270C132 400 241 503 374 503L567 503C578 503 587 512 587 523C587 534 578 543 567 543L374 543C212 543 81 412 81 250C81 88 212 -43 374 -43L567 -43C578 -43 587 -34 587 -23Z" stroke="rgb(0,0,0)" stroke-opacity="1" stroke-width="8" fill="rgb(0,0,0)" fill-opacity="1"></path></g></g><g><g transform="matrix(1,0,0,1,640.6111246744791,67.387783203125)"><path transform="matrix(0.02941,0,0,-0.02941,0,0)" d="M41 0L231 0C240 2 247 8 247 18C247 26 240 35 231 35C169 35 154 47 154 110L154 551L593 -12C597 -16 600 -19 607 -19C615 -19 624 -12 624 -3L624 573C624 626 624 650 686 650C695 652 702 658 702 668C702 676 695 685 686 685L505 685C496 683 489 677 489 668C489 659 496 650 505 650C569 650 582 637 582 573L582 258L262 678C258 681 254 685 249 685L38 685C29 683 22 677 22 668C22 659 29 650 38 650C69 650 93 627 112 605L112 112C112 52 105 35 41 35C32 33 25 27 25 18C25 9 32 0 41 0ZM589 49L151 613C140 626 129 638 117 650L239 650L589 191Z" stroke="rgb(0,0,0)" stroke-opacity="1" stroke-width="8" fill="rgb(0,0,0)" fill-opacity="1"></path></g></g><g><svg x="663.3110758463541" overflow="visible" y="32.34444173177083" height="52.000000000000014" width="14.700002034505246"><path d=" M 2.25 3.45 c 0.00 -0.27 0.29 -0.51 0.64 -0.51 c 0.07 0.00 0.15 0.02 0.22 0.04 c 4.14 1.20 5.88 4.35 5.88 7.31 v 0.39 h -2.50 v -0.39 c 0.00 -2.41 -0.44 -5.37 -3.82 -6.37 c -0.25 -0.06 -0.42 -0.25 -0.42 -0.47 z   M 9.07 10.69 v 7.67 h -2.50 v -7.67 z  M 6.59 33.65 v -0.29 c 0.00 -2.88 1.47 -5.88 5.02 -7.35 c -3.55 -1.47 -5.02 -4.47 -5.02 -7.35 v -0.29 h 2.50 v 0.29 c 0.00 2.69 0.91 5.88 4.31 6.88 c 0.25 0.06 0.42 0.25 0.42 0.47 s -0.17 0.41 -0.42 0.47 c -3.41 1.00 -4.31 4.20 -4.31 6.88 v 0.29 h -2.50 z  M 9.07 33.65 v 7.67 h -2.50 v -7.67 z" style="fill:rgb(0,0,0);fill-opacity:1;stroke-width:1px;stroke:none;stroke-opacity:1;"></path><path d=" M 2.25 48.55 c 0.00 0.27 0.29 0.51 0.64 0.51 c 0.07 0.00 0.15 -0.02 0.22 -0.04 c 4.14 -1.20 5.88 -4.35 5.88 -7.31 v -0.39 h -2.50 v 0.39 c 0.00 2.41 -0.44 5.37 -3.82 6.37 c -0.25 0.06 -0.42 0.25 -0.42 0.47 z" style="fill:rgb(0,0,0);fill-opacity:1;stroke-width:1px;stroke:none;stroke-opacity:1;"></path></svg></g></g></g></svg>
</svg>
