<svg xmlns="http://www.w3.org/2000/svg" xmlns:xlink="http://www.w3.org/1999/xlink" x="0" y="0" width="701.8333129882812" height="104" style="
        width:701.8333129882812px;
        height:104px;
        background: transparent;
        fill: none;
">
        <svg xmlns="http://www.w3.org/2000/svg"/>
        
        <svg xmlns="http://www.w3.org/2000/svg" class="role-diagram-draw-area" style="overflow: visible;"><g class="shapes-region" style="stroke: black; fill: none;"><g class="arrow-line"><path class="connection real" stroke-dasharray="" d="  M72,47.17 C124.54,22.35 199.51,23.49 235.45,45.1" style="stroke: rgb(0, 0, 0); stroke-width: 2px; fill: none; fill-opacity: 1;"/><g stroke="none" fill="#000" transform="matrix(-0.8255077185461038,-0.5643908279027988,0.5643908279027988,-0.8255077185461038,238.66666666666666,47.16666666666666)" style="stroke: none; fill: rgb(0, 0, 0); stroke-width: 2px;"><path d=" M13.4,-6.43 L0,0 L13.4,6.44 L8.9,0 Z"/></g></g><g class="arrow-line"><path class="connection real" stroke-dasharray="" d="  M263.67,47.17 C224.18,80.72 138.59,80.61 94.48,66.68" style="stroke: rgb(0, 0, 0); stroke-width: 2px; fill: none; fill-opacity: 1;"/><g stroke="none" fill="#000" transform="matrix(0.9442040466187123,0.32936107594682257,-0.32936107594682257,0.9442040466187123,91.16668701171875,65.58332824707031)" style="stroke: none; fill: rgb(0, 0, 0); stroke-width: 2px;"><path d=" M13.4,-6.43 L0,0 L13.4,6.44 L8.9,0 Z"/></g></g><g class="grouped-shape"><g class="composite-shape"><path class="real" d=" M47,47.17 C47,33.36 58.19,22.17 72,22.17 C85.81,22.17 97,33.36 97,47.17 C97,60.97 85.81,72.17 72,72.17 C58.19,72.17 47,60.97 47,47.17 Z" style="stroke-width: 2px; stroke: rgb(0, 0, 0); fill: rgb(255, 255, 255); fill-opacity: 1;"/></g></g><g class="grouped-shape"><g class="grouped-shape"><g class="composite-shape"><path class="real" d=" M238.67,47.17 C238.67,33.36 249.86,22.17 263.67,22.17 C277.47,22.17 288.67,33.36 288.67,47.17 C288.67,60.97 277.47,72.17 263.67,72.17 C249.86,72.17 238.67,60.97 238.67,47.17 Z" style="stroke-width: 2px; stroke: rgb(0, 0, 0); fill: rgb(255, 255, 255); fill-opacity: 1;"/></g><g class="composite-shape"><path class="real" d=" M242.67,46.94 C242.67,35.47 251.97,26.17 263.44,26.17 C274.91,26.17 284.21,35.47 284.21,46.94 C284.21,58.41 274.91,67.71 263.44,67.71 C251.97,67.71 242.67,58.41 242.67,46.94 Z" style="stroke-width: 2px; stroke: rgb(0, 0, 0); fill: rgb(255, 255, 255); fill-opacity: 1;"/></g></g></g><g/></g><g/><g/><g/></svg>
        <svg xmlns="http://www.w3.org/2000/svg" xmlns:xlink="http://www.w3.org/1999/xlink" width="700" height="102.16665649414062" style="width:700px;height:102.16665649414062px;font-family:LatinModern-Math, LatinModern, Asana-Math, Asana;background:transparent;"><g><g><g><g transform="matrix(1,0,0,1,347.91668701171875,58.393322143554684)"><path transform="matrix(0.02941,0,0,-0.02941,0,0)" d="M728 607C733 627 730 646 719 659C704 679 677 685 646 685C594 685 537 670 490 634C456 608 424 574 400 540C369 496 352 451 334 403C307 333 259 230 219 199C201 185 178 169 161 159C147 150 118 133 104 116C71 77 51 44 40 11L56 -6C71 21 92 52 116 80C132 99 169 115 192 115C218 115 265 94 320 51C341 30 356 21 393 6C412 -3 457 -7 481 -7C524 -7 556 18 592 48C641 89 661 146 675 202C677 213 684 243 684 260L659 255C657 241 653 217 649 200C640 162 628 139 601 111C575 84 551 72 518 72C496 72 475 77 456 83C427 91 370 117 350 134C350 134 309 170 229 170L227 176C246 185 270 203 294 225C316 245 341 274 356 303C385 350 402 386 418 428C436 473 465 539 484 574C496 597 508 608 530 625C551 642 573 651 594 651C613 651 624 647 633 635C640 624 645 604 642 590C639 579 635 563 639 558C645 550 655 546 667 546C667 546 713 547 728 607Z" stroke="rgb(0,0,0)" stroke-opacity="1" stroke-width="8" fill="rgb(0,0,0)" fill-opacity="1"></path></g></g><g><g transform="matrix(1,0,0,1,370.56671142578125,58.16)"><path transform="matrix(0.02941,0,0,-0.02941,0,0)" d="M332 -238C332 -235 330 -232 328 -230C224 -152 155 48 155 208L155 292C155 452 224 652 328 730C330 732 332 735 332 738C332 743 327 748 322 748C320 748 318 747 316 746C206 663 101 463 101 292L101 208C101 37 206 -163 316 -246C318 -247 320 -248 322 -248C327 -248 332 -243 332 -238Z" stroke="rgb(0,0,0)" stroke-opacity="1" stroke-width="8" fill="rgb(0,0,0)" fill-opacity="1"></path></g></g><g><g transform="matrix(1,0,0,1,382.01666259765625,58.393322143554684)"><path transform="matrix(0.02941,0,0,-0.02941,0,0)" d="M817 675L817 694C788 691 742 685 708 672C678 661 649 646 622 630C580 605 547 564 518 524C472 461 434 400 394 335C350 265 282 154 261 128C241 102 216 71 190 50C175 38 160 31 143 31C134 31 126 34 120 41C117 46 113 51 115 59C117 67 120 75 124 83C126 88 129 95 130 99C132 106 131 113 127 117C122 126 112 131 100 131C89 131 78 130 68 122C55 112 47 98 43 85C37 59 39 34 52 15C65 -1 86 -10 109 -10C148 -10 190 10 225 38C267 72 342 149 396 236L617 236L578 78C573 61 570 45 570 29C571 18 572 7 578 -1C584 -11 597 -15 610 -15C635 -15 661 -2 684 11C721 31 756 56 788 86L777 103C759 90 745 80 729 70C716 62 703 56 690 56C682 56 674 58 669 64C656 81 658 105 662 129C674 199 691 270 708 340L781 630C785 648 790 658 801 666ZM717 638L627 279L424 279C465 355 507 432 556 505C584 546 612 588 651 619C670 634 692 645 711 649Z" stroke="rgb(0,0,0)" stroke-opacity="1" stroke-width="8" fill="rgb(0,0,0)" fill-opacity="1"></path></g></g><g><g transform="matrix(1,0,0,1,407.23333740234375,58.393322143554684)"><path transform="matrix(0.02941,0,0,-0.02941,0,0)" d="M203 1C203 67 178 106 139 106C106 106 86 81 86 53C86 26 106 0 139 0C151 0 164 4 174 13C177 15 179 16 179 16C179 16 181 15 181 1C181 -73 146 -133 113 -166C102 -177 102 -179 102 -182C102 -189 107 -193 112 -193C123 -193 203 -116 203 1Z" stroke="rgb(0,0,0)" stroke-opacity="1" stroke-width="8" fill="rgb(0,0,0)" fill-opacity="1"></path></g></g><g><g transform="matrix(1,0,0,1,421.29998779296875,58.393322143554684)"><path transform="matrix(0.02941,0,0,-0.02941,0,0)" d="M527 376C527 428 468 442 434 442C376 442 341 389 329 366C304 432 250 442 221 442C117 442 60 313 60 288C60 278 72 278 72 278C80 278 83 280 85 289C119 395 185 420 219 420C238 420 273 411 273 353C273 322 256 255 219 115C203 53 168 11 124 11C118 11 95 11 74 24C99 29 121 50 121 78C121 105 99 113 84 113C54 113 29 87 29 55C29 9 79 -11 123 -11C189 -11 225 59 228 65C240 28 276 -11 336 -11C439 -11 496 118 496 143C496 153 487 153 484 153C475 153 473 149 471 142C438 35 370 11 338 11C299 11 283 43 283 77C283 99 289 121 300 165L334 302C340 328 363 420 433 420C438 420 462 420 483 407C455 402 435 377 435 353C435 337 446 318 473 318C495 318 527 336 527 376Z" stroke="rgb(0,0,0)" stroke-opacity="1" stroke-width="8" fill="rgb(0,0,0)" fill-opacity="1"></path></g></g><g><g transform="matrix(1,0,0,1,438.13336181640625,58.16)"><path transform="matrix(0.02941,0,0,-0.02941,0,0)" d="M288 208L288 292C288 463 183 663 73 746C71 747 69 748 67 748C62 748 57 743 57 738C57 735 59 732 61 730C165 652 234 452 234 292L234 208C234 48 165 -152 61 -230C59 -232 57 -235 57 -238C57 -243 62 -248 67 -248C69 -248 71 -247 73 -246C183 -163 288 37 288 208Z" stroke="rgb(0,0,0)" stroke-opacity="1" stroke-width="8" fill="rgb(0,0,0)" fill-opacity="1"></path></g></g><g><g transform="matrix(1,0,0,1,458.40008544921875,58.393322143554684)"><path transform="matrix(0.02941,0,0,-0.02941,0,0)" d="M722 347C722 358 713 367 702 367L76 367C65 367 56 358 56 347C56 336 65 327 76 327L702 327C713 327 722 336 722 347ZM722 153C722 164 713 173 702 173L76 173C65 173 56 164 56 153C56 142 65 133 76 133L702 133C713 133 722 142 722 153Z" stroke="rgb(0,0,0)" stroke-opacity="1" stroke-width="8" fill="rgb(0,0,0)" fill-opacity="1"></path></g></g><g><svg x="491.56671142578125" overflow="visible" y="23.349990844726562" height="52" width="14.70001220703125"><path d=" M 12.45 3.45 c 0.00 -0.27 -0.29 -0.51 -0.64 -0.51 c -0.07 0.00 -0.15 0.02 -0.22 0.04 c -4.14 1.20 -5.88 4.35 -5.88 7.31 v 0.39 h 2.50 v -0.39 c 0.00 -2.41 0.44 -5.37 3.82 -6.37 c 0.25 -0.06 0.42 -0.25 0.42 -0.47 z  M 5.64 10.69 v 7.67 h 2.50 v -7.67 z  M 8.11 33.65 v -0.29 c 0.00 -2.88 -1.47 -5.88 -5.02 -7.35 c 3.55 -1.47 5.02 -4.47 5.02 -7.35 v -0.29 h -2.50 v 0.29 c 0.00 2.69 -0.91 5.88 -4.31 6.88 c -0.25 0.06 -0.42 0.25 -0.42 0.47 s 0.17 0.41 0.42 0.47 c 3.41 1.00 4.31 4.20 4.31 6.88 v 0.29 h 2.50 z  M 5.64 33.65 v 7.67 h 2.50 v -7.67 z" style="fill:rgb(0,0,0);fill-opacity:1;stroke-width:1px;stroke:none;stroke-opacity:1;"></path><path d=" M 12.45 48.55 c 0.00 0.27 -0.29 0.51 -0.64 0.51 c -0.07 0.00 -0.15 -0.02 -0.22 -0.04 c -4.14 -1.20 -5.88 -4.35 -5.88 -7.31 v -0.39 h 2.50 v 0.39 c 0.00 2.41 0.44 5.37 3.82 6.37 c 0.25 0.06 0.42 0.25 0.42 0.47 z" style="fill:rgb(0,0,0);fill-opacity:1;stroke-width:1px;stroke:none;stroke-opacity:1;"></path></svg></g><g><g transform="matrix(1,0,0,1,507.73333740234375,58.393322143554684)"><path transform="matrix(0.02941,0,0,-0.02941,0,0)" d="M498 143C498 153 489 153 486 153C476 153 475 149 472 135C455 70 437 11 396 11C369 11 366 37 366 57C366 79 368 87 379 131L401 221L437 361C444 389 444 391 444 395C444 412 432 422 415 422C391 422 376 400 373 378C355 415 326 442 281 442C164 442 40 295 40 149C40 55 95 -11 173 -11C193 -11 243 -7 303 64C311 22 346 -11 394 -11C429 -11 452 12 468 44C485 80 498 143 498 143ZM361 332C361 326 359 320 358 315L308 119C303 101 303 99 288 82C244 27 203 11 175 11C125 11 111 66 111 105C111 155 143 278 166 324C197 383 242 420 282 420C347 420 361 338 361 332Z" stroke="rgb(0,0,0)" stroke-opacity="1" stroke-width="8" fill="rgb(0,0,0)" fill-opacity="1"></path></g></g><g><g><g><g><g transform="matrix(1,0,0,1,525.0000610351562,47.00365649414063)"><path transform="matrix(0.020587,0,0,-0.020587,0,0)" d="M449 174L424 174C419 144 412 100 402 85C395 77 329 77 307 77L127 77L233 180C389 318 449 372 449 472C449 586 359 666 237 666C124 666 50 574 50 485C50 429 100 429 103 429C120 429 155 441 155 482C155 508 137 534 102 534C94 534 92 534 89 533C112 598 166 635 224 635C315 635 358 554 358 472C358 392 308 313 253 251L61 37C50 26 50 24 50 0L421 0ZM1071 143C1071 153 1062 153 1059 153C1049 153 1049 150 1044 135C1024 67 991 11 942 11C925 11 918 21 918 44C918 69 927 93 936 115C955 168 997 278 997 335C997 402 954 442 882 442C792 442 743 378 726 355C721 411 680 442 634 442C588 442 569 403 559 385C543 351 529 292 529 288C529 278 541 278 541 278C551 278 552 279 558 301C575 372 595 420 631 420C651 420 662 407 662 374C662 353 659 342 646 290L588 59C585 44 579 21 579 16C579 -2 593 -11 608 -11C620 -11 638 -3 645 17C646 19 658 66 664 91L686 181C692 203 698 225 703 248L716 298C731 329 784 420 879 420C924 420 933 383 933 350C933 288 884 160 868 117C859 94 858 82 858 71C858 24 893 -11 940 -11C1034 -11 1071 135 1071 143Z" stroke="rgb(0,0,0)" stroke-opacity="1" stroke-width="8" fill="rgb(0,0,0)" fill-opacity="1"></path></g></g></g></g></g><g><g transform="matrix(1,0,0,1,558.2167358398438,58.393322143554684)"><path transform="matrix(0.02941,0,0,-0.02941,0,0)" d="M159 -230L159 730C159 741 150 750 139 750C128 750 119 741 119 730L119 -230C119 -241 128 -250 139 -250C150 -250 159 -241 159 -230Z" stroke="rgb(0,0,0)" stroke-opacity="1" stroke-width="8" fill="rgb(0,0,0)" fill-opacity="1"></path></g></g><g><g transform="matrix(1,0,0,1,575.2167358398438,58.393322143554684)"><path transform="matrix(0.02941,0,0,-0.02941,0,0)" d="M571 143C571 153 562 153 559 153C549 153 549 150 544 135C524 67 491 11 442 11C425 11 418 21 418 44C418 69 427 93 436 115C455 168 497 278 497 335C497 402 454 442 382 442C292 442 243 378 226 355C221 411 180 442 134 442C88 442 69 403 59 385C43 351 29 292 29 288C29 278 41 278 41 278C51 278 52 279 58 301C75 372 95 420 131 420C151 420 162 407 162 374C162 353 159 342 146 290L88 59C85 44 79 21 79 16C79 -2 93 -11 108 -11C120 -11 138 -3 145 17C146 19 158 66 164 91L186 181C192 203 198 225 203 248L216 298C231 329 284 420 379 420C424 420 433 383 433 350C433 288 384 160 368 117C359 94 358 82 358 71C358 24 393 -11 440 -11C534 -11 571 135 571 143Z" stroke="rgb(0,0,0)" stroke-opacity="1" stroke-width="8" fill="rgb(0,0,0)" fill-opacity="1"></path></g></g><g><g transform="matrix(1,0,0,1,601.6832885742188,58.393322143554684)"><path transform="matrix(0.02941,0,0,-0.02941,0,0)" d="M587 -23C587 -12 578 -3 567 -3L374 -3C241 -3 132 100 122 230L567 230C594 230 594 270 567 270L122 270C132 400 241 503 374 503L567 503C578 503 587 512 587 523C587 534 578 543 567 543L374 543C212 543 81 412 81 250C81 88 212 -43 374 -43L567 -43C578 -43 587 -34 587 -23Z" stroke="rgb(0,0,0)" stroke-opacity="1" stroke-width="8" fill="rgb(0,0,0)" fill-opacity="1"></path></g></g><g><g transform="matrix(1,0,0,1,630.1166381835938,58.393322143554684)"><path transform="matrix(0.02941,0,0,-0.02941,0,0)" d="M41 0L231 0C240 2 247 8 247 18C247 26 240 35 231 35C169 35 154 47 154 110L154 551L593 -12C597 -16 600 -19 607 -19C615 -19 624 -12 624 -3L624 573C624 626 624 650 686 650C695 652 702 658 702 668C702 676 695 685 686 685L505 685C496 683 489 677 489 668C489 659 496 650 505 650C569 650 582 637 582 573L582 258L262 678C258 681 254 685 249 685L38 685C29 683 22 677 22 668C22 659 29 650 38 650C69 650 93 627 112 605L112 112C112 52 105 35 41 35C32 33 25 27 25 18C25 9 32 0 41 0ZM589 49L151 613C140 626 129 638 117 650L239 650L589 191Z" stroke="rgb(0,0,0)" stroke-opacity="1" stroke-width="8" fill="rgb(0,0,0)" fill-opacity="1"></path></g></g><g><svg x="652.8167114257812" overflow="visible" y="23.349990844726562" height="52" width="14.70001220703125"><path d=" M 2.25 3.45 c 0.00 -0.27 0.29 -0.51 0.64 -0.51 c 0.07 0.00 0.15 0.02 0.22 0.04 c 4.14 1.20 5.88 4.35 5.88 7.31 v 0.39 h -2.50 v -0.39 c 0.00 -2.41 -0.44 -5.37 -3.82 -6.37 c -0.25 -0.06 -0.42 -0.25 -0.42 -0.47 z   M 9.07 10.69 v 7.67 h -2.50 v -7.67 z  M 6.59 33.65 v -0.29 c 0.00 -2.88 1.47 -5.88 5.02 -7.35 c -3.55 -1.47 -5.02 -4.47 -5.02 -7.35 v -0.29 h 2.50 v 0.29 c 0.00 2.69 0.91 5.88 4.31 6.88 c 0.25 0.06 0.42 0.25 0.42 0.47 s -0.17 0.41 -0.42 0.47 c -3.41 1.00 -4.31 4.20 -4.31 6.88 v 0.29 h -2.50 z  M 9.07 33.65 v 7.67 h -2.50 v -7.67 z" style="fill:rgb(0,0,0);fill-opacity:1;stroke-width:1px;stroke:none;stroke-opacity:1;"></path><path d=" M 2.25 48.55 c 0.00 0.27 0.29 0.51 0.64 0.51 c 0.07 0.00 0.15 -0.02 0.22 -0.04 c 4.14 -1.20 5.88 -4.35 5.88 -7.31 v -0.39 h -2.50 v 0.39 c 0.00 2.41 -0.44 5.37 -3.82 6.37 c -0.25 0.06 -0.42 0.25 -0.42 0.47 z" style="fill:rgb(0,0,0);fill-opacity:1;stroke-width:1px;stroke:none;stroke-opacity:1;"></path></svg></g></g></g><g><g><g><g transform="matrix(1,0,0,1,150.91668701171875,18.306668701171873)"><path transform="matrix(0.03519,0,0,-0.03519,0,0)" d="M498 143C498 153 489 153 486 153C476 153 475 149 472 135C455 70 437 11 396 11C369 11 366 37 366 57C366 79 368 87 379 131L401 221L437 361C444 389 444 391 444 395C444 412 432 422 415 422C391 422 376 400 373 378C355 415 326 442 281 442C164 442 40 295 40 149C40 55 95 -11 173 -11C193 -11 243 -7 303 64C311 22 346 -11 394 -11C429 -11 452 12 468 44C485 80 498 143 498 143ZM361 332C361 326 359 320 358 315L308 119C303 101 303 99 288 82C244 27 203 11 175 11C125 11 111 66 111 105C111 155 143 278 166 324C197 383 242 420 282 420C347 420 361 338 361 332Z" stroke="rgb(0,0,0)" stroke-opacity="1" stroke-width="8" fill="rgb(0,0,0)" fill-opacity="1"></path></g></g></g></g><g><g><g><g transform="matrix(1,0,0,1,152.91668701171875,67.30666870117187)"><path transform="matrix(0.03519,0,0,-0.03519,0,0)" d="M498 143C498 153 489 153 486 153C476 153 475 149 472 135C455 70 437 11 396 11C369 11 366 37 366 57C366 79 368 87 379 131L401 221L437 361C444 389 444 391 444 395C444 412 432 422 415 422C391 422 376 400 373 378C355 415 326 442 281 442C164 442 40 295 40 149C40 55 95 -11 173 -11C193 -11 243 -7 303 64C311 22 346 -11 394 -11C429 -11 452 12 468 44C485 80 498 143 498 143ZM361 332C361 326 359 320 358 315L308 119C303 101 303 99 288 82C244 27 203 11 175 11C125 11 111 66 111 105C111 155 143 278 166 324C197 383 242 420 282 420C347 420 361 338 361 332Z" stroke="rgb(0,0,0)" stroke-opacity="1" stroke-width="8" fill="rgb(0,0,0)" fill-opacity="1"></path></g></g></g></g><g><g><g><g transform="matrix(1,0,0,1,256.5833740234375,54.72666564941406)"><path transform="matrix(0.02941,0,0,-0.02941,0,0)" d="M527 376C527 428 468 442 434 442C376 442 341 389 329 366C304 432 250 442 221 442C117 442 60 313 60 288C60 278 72 278 72 278C80 278 83 280 85 289C119 395 185 420 219 420C238 420 273 411 273 353C273 322 256 255 219 115C203 53 168 11 124 11C118 11 95 11 74 24C99 29 121 50 121 78C121 105 99 113 84 113C54 113 29 87 29 55C29 9 79 -11 123 -11C189 -11 225 59 228 65C240 28 276 -11 336 -11C439 -11 496 118 496 143C496 153 487 153 484 153C475 153 473 149 471 142C438 35 370 11 338 11C299 11 283 43 283 77C283 99 289 121 300 165L334 302C340 328 363 420 433 420C438 420 462 420 483 407C455 402 435 377 435 353C435 337 446 318 473 318C495 318 527 336 527 376Z" stroke="rgb(0,0,0)" stroke-opacity="1" stroke-width="8" fill="rgb(0,0,0)" fill-opacity="1"></path></g></g></g></g><g><g><g><g transform="matrix(1,0,0,1,62.91668701171875,54.72666564941406)"><path transform="matrix(0.02941,0,0,-0.02941,0,0)" d="M490 404C490 422 476 431 461 431C451 431 435 425 426 410C424 405 416 374 412 356L392 276L347 96C343 81 300 11 234 11C183 11 172 55 172 92C172 138 189 200 223 288C239 329 243 340 243 360C243 405 211 442 161 442C66 442 29 297 29 288C29 278 41 278 41 278C51 278 52 280 57 296C84 390 124 420 158 420C166 420 183 420 183 388C183 363 173 337 166 318C126 212 108 155 108 108C108 19 171 -11 230 -11C269 -11 303 6 331 34C318 -18 306 -67 266 -120C240 -154 202 -183 156 -183C142 -183 97 -180 80 -141C96 -141 109 -141 123 -129C133 -120 143 -107 143 -88C143 -57 116 -53 106 -53C83 -53 50 -69 50 -118C50 -168 94 -205 156 -205C259 -205 362 -114 390 -1L486 381C490 395 490 397 490 404Z" stroke="rgb(0,0,0)" stroke-opacity="1" stroke-width="8" fill="rgb(0,0,0)" fill-opacity="1"></path></g></g></g></g></svg>
</svg>
