<?xml version="1.0" encoding="UTF-8" standalone="no"?>
<svg
   x="0"
   y="0"
   width="219.86603"
   height="140.955"
   style="fill:none"
   version="1.1"
   id="svg91"
   sodipodi:docname="cycles.svg"
   inkscape:version="1.3.2 (091e20e, 2023-11-25)"
   xmlns:inkscape="http://www.inkscape.org/namespaces/inkscape"
   xmlns:sodipodi="http://sodipodi.sourceforge.net/DTD/sodipodi-0.dtd"
   xmlns="http://www.w3.org/2000/svg"
   xmlns:svg="http://www.w3.org/2000/svg">
  <defs
     id="defs91" />
  <sodipodi:namedview
     id="namedview91"
     pagecolor="#ffffff"
     bordercolor="#000000"
     borderopacity="0.25"
     inkscape:showpageshadow="2"
     inkscape:pageopacity="0.0"
     inkscape:pagecheckerboard="0"
     inkscape:deskcolor="#d1d1d1"
     shape-rendering="crispEdges"
     inkscape:zoom="0.61991067"
     inkscape:cx="295.20382"
     inkscape:cy="161.31356"
     inkscape:window-width="1312"
     inkscape:window-height="449"
     inkscape:window-x="0"
     inkscape:window-y="25"
     inkscape:window-maximized="0"
     inkscape:current-layer="svg91" />
  <path
     class="connection real"
     stroke-dasharray="none"
     d="m 192.88468,121.87 c -52.72,0.61 -95.540005,1 -128.750005,-1.7"
     style="fill:none;fill-opacity:1;stroke:#000000;stroke-width:2px"
     id="path1" />
  <path
     d="m 74.476855,114.66302 -13.92218,5.20364 12.76916,7.61461 -3.90495,-6.81726 z"
     id="path2"
     style="fill:#000000;stroke:none;stroke-width:2px" />
  <path
     class="connection real"
     stroke-dasharray="none"
     d="m 42.884675,119.87 c 20.9,-24.74 26.53,-44.9 22.7,-74.07"
     style="fill:none;fill-opacity:1;stroke:#000000;stroke-width:2px"
     id="path3" />
  <path
     d="m 73.448285,54.365887 -8.39362,-12.265891 -4.32659,14.223719 5.68049,-5.427301 z"
     id="path4"
     style="fill:#000000;stroke:none;stroke-width:2px" />
  <path
     class="connection real"
     stroke-dasharray="none"
     d="m 192.88468,121.87 c -19.24,-19.95 -31.86,-42.38 -20.91,-82.77"
     style="fill:none;fill-opacity:1;stroke:#000000;stroke-width:2px"
     id="path5" />
  <path
     d="m 175.37566,49.980526 -2.32098,-14.68053 -10.00942,10.992959 7.45935,-2.46611 z"
     id="path6"
     style="fill:#000000;stroke:none;stroke-width:2px" />
  <path
     class="connection real"
     stroke-dasharray="none"
     d="m 181.88468,18.67 c 15.33,16.73 22.21,49.47 16.72,80.73"
     style="fill:none;fill-opacity:1;stroke:#000000;stroke-width:2px"
     id="path7" />
  <path
     d="m 194.3134,88.86517 3.54128,14.43483 9.05444,-11.79197 -7.22683,3.08164 z"
     id="path8"
     style="fill:#000000;stroke:none;stroke-width:2px" />
  <path
     class="connection real"
     stroke-dasharray="none"
     d="m 62.684675,23.07 c -18.08,39.39 -18.06,45.02 -19.6,75.22"
     style="fill:none;fill-opacity:1;stroke:#000000;stroke-width:2px"
     id="path9" />
  <path
     d="M 37.168125,88.48185 42.888012,102.2 50.020488,89.15541 43.353802,93.3122 Z"
     id="path10"
     style="fill:#000000;stroke:none;stroke-width:2px" />
  <path
     class="connection real"
     stroke-dasharray="none"
     d="M 62.684675,23.07 C 100.09468,17.46 132.41468,17.58 158.59468,17.6"
     style="fill:none;fill-opacity:1;stroke:#000000;stroke-width:2px"
     id="path11" />
  <path
     d="m 148.85468,24.03 13.4,-6.43 -13.4,-6.44 4.5,6.44 z"
     id="path12"
     style="fill:#000000;stroke:none;stroke-width:2px" />
  <path
     class="connection real"
     stroke-dasharray="none"
     d="m 60.224675,25.5 c -49.17,41.4 -66,-35.56 -16.3,-13.71"
     style="fill:none;fill-opacity:1;stroke:#000000;stroke-width:2px"
     id="path13" />
  <path
     d="m 32.192966,13.064282 14.86171,0.185716 -9.149317,-11.718516 1.174032,7.768221 z"
     id="path14"
     style="fill:#000000;stroke:none;stroke-width:2px" />
  <path
     class="real"
     d="m 164.22468,18.67 c 0,-9.76 7.91,-17.67 17.66,-17.67 9.76,0 17.67,7.91 17.67,17.67 0,9.75 -7.91,17.66 -17.67,17.66 -9.75,0 -17.66,-7.91 -17.66,-17.66 z"
     style="fill:#ffffff;fill-opacity:1;stroke:#000000;stroke-width:2px"
     id="path15" />
  <path
     class="real"
     d="m 45.024675,23.07 c 0,-9.76 7.91,-17.67 17.66,-17.67 9.76,0 17.67,7.91 17.67,17.67 0,9.75 -7.91,17.66 -17.67,17.66 -9.75,0 -17.66,-7.91 -17.66,-17.66 z"
     style="fill:#ffffff;fill-opacity:1;stroke:#000000;stroke-width:2px"
     id="path16" />
  <path
     class="real"
     d="m 48.164675,23.07 c 0,-8.02 6.5,-14.52 14.52,-14.52 8.02,0 14.52,6.5 14.52,14.52 0,8.02 -6.5,14.52 -14.52,14.52 -8.02,0 -14.52,-6.5 -14.52,-14.52 z"
     style="fill:#ffffff;fill-opacity:1;stroke:#000000;stroke-width:2px"
     id="path17" />
  <path
     class="real"
     d="m 175.22468,121.87 c 0,-9.76 7.91,-17.67 17.66,-17.67 9.76,0 17.67,7.91 17.67,17.67 0,9.75 -7.91,17.66 -17.67,17.66 -9.75,0 -17.66,-7.91 -17.66,-17.66 z"
     style="fill:#ffffff;fill-opacity:1;stroke:#000000;stroke-width:2px"
     id="path18" />
  <path
     class="real"
     d="m 167.36468,18.67 c 0,-8.02 6.5,-14.52 14.52,-14.52 8.02,0 14.52,6.5 14.52,14.52 0,8.02 -6.5,14.52 -14.52,14.52 -8.02,0 -14.52,-6.5 -14.52,-14.52 z"
     style="fill:#ffffff;fill-opacity:1;stroke:#000000;stroke-width:2px"
     id="path19" />
  <path
     class="real"
     d="m 25.224675,119.87 c 0,-9.76 7.91,-17.67 17.66,-17.67 9.76,0 17.67,7.91 17.67,17.67 0,9.75 -7.91,17.66 -17.67,17.66 -9.75,0 -17.66,-7.91 -17.66,-17.66 z"
     style="fill:#ffffff;fill-opacity:1;stroke:#000000;stroke-width:2px"
     id="path20" />
  <path
     d="m 63.847005,21.541325 c 0,-0.884 -1.003,-1.122 -1.581,-1.122 -0.986,0 -1.581,0.901 -1.785,1.292 -0.425,-1.122 -1.343,-1.292 -1.836,-1.292 -1.768,0 -2.737,2.193 -2.737,2.618 0,0.17 0.204,0.17 0.204,0.17 0.136,0 0.187,-0.034 0.221,-0.187 0.578,-1.802 1.7,-2.227 2.278,-2.227 0.323,0 0.918,0.153 0.918,1.139 0,0.527 -0.289,1.666 -0.918,4.046 -0.272,1.054 -0.867,1.768 -1.615,1.768 -0.102,0 -0.493,0 -0.85,-0.221 0.425,-0.085 0.799,-0.442 0.799,-0.918 0,-0.459 -0.374,-0.595 -0.629,-0.595 -0.51,0 -0.935,0.442 -0.935,0.986 0,0.782 0.85,1.122 1.598,1.122 1.122,0 1.734,-1.19 1.785,-1.292 0.204,0.629 0.816,1.292 1.836,1.292 1.751,0 2.72,-2.193 2.72,-2.618 0,-0.17 -0.153,-0.17 -0.204,-0.17 -0.153,0 -0.187,0.068 -0.221,0.187 -0.561,1.819 -1.717,2.227 -2.261,2.227 -0.663,0 -0.935,-0.544 -0.935,-1.122 0,-0.374 0.102,-0.748 0.289,-1.496 l 0.578,-2.329 c 0.102,-0.442 0.493,-2.006 1.683,-2.006 0.085,0 0.493,0 0.85,0.221 -0.476,0.085 -0.816,0.51 -0.816,0.918 0,0.272 0.187,0.595 0.646,0.595 0.374,0 0.918,-0.306 0.918,-0.986 z"
     stroke="#000000"
     stroke-opacity="1"
     stroke-width="0.136"
     fill="#000000"
     fill-opacity="1"
     id="path26"
     style="font-family:LatinModern-Math, LatinModern, Asana-Math, Asana" />
  <path
     d="m 70.595345,27.425325 c 0,-0.952 -0.0595,-1.904 -0.476,-2.7846 -0.5474,-1.1424 -1.5232,-1.3328 -2.023,-1.3328 -0.714,0 -1.5827,0.3094 -2.0706,1.4161 -0.3808,0.8211 -0.4403,1.7493 -0.4403,2.7013 0,0.8925 0.0476,1.9635 0.5355,2.8679 0.5117,0.9639 1.3804,1.2019 1.9635,1.2019 0.6426,0 1.547,-0.2499 2.0706,-1.3804 0.3808,-0.8211 0.4403,-1.7493 0.4403,-2.6894 z m -0.9877,-0.1428 c 0,0.8925 0,1.7017 -0.1309,2.4633 -0.1785,1.1305 -0.8568,1.4875 -1.3923,1.4875 -0.4641,0 -1.1662,-0.2975 -1.3804,-1.4399 -0.1309,-0.714 -0.1309,-1.8088 -0.1309,-2.5109 0,-0.7616 0,-1.547 0.0952,-2.1896 0.2261,-1.4161 1.1186,-1.5232 1.4161,-1.5232 0.3927,0 1.1781,0.2142 1.4042,1.3923 0.119,0.6664 0.119,1.5708 0.119,2.3205 z"
     stroke="#000000"
     stroke-opacity="1"
     stroke-width="0.0952"
     fill="#000000"
     fill-opacity="1"
     id="path28"
     style="font-family:LatinModern-Math, LatinModern, Asana-Math, Asana" />
  <path
     d="m 7.854,19.769 c 0,-0.17 -0.153,-0.17 -0.204,-0.17 -0.17,0 -0.187,0.068 -0.238,0.306 -0.289,1.105 -0.595,2.108 -1.292,2.108 -0.459,0 -0.51,-0.442 -0.51,-0.782 0,-0.374 0.034,-0.51 0.221,-1.258 l 0.374,-1.53 0.612,-2.38 c 0.119,-0.476 0.119,-0.51 0.119,-0.578 0,-0.289 -0.204,-0.459 -0.493,-0.459 -0.408,0 -0.663,0.374 -0.714,0.748 -0.306,-0.629 -0.799,-1.088 -1.564,-1.088 -1.989,0 -4.097,2.499 -4.097,4.981 0,1.598 0.935,2.72 2.261,2.72 0.34,0 1.19,-0.068 2.21,-1.275 0.136,0.714 0.731,1.275 1.547,1.275 0.595,0 0.986,-0.391 1.258,-0.935 0.289,-0.612 0.51,-1.683 0.51,-1.683 z M 5.525,16.556 c 0,0.102 -0.034,0.204 -0.051,0.289 l -0.85,3.332 c -0.085,0.306 -0.085,0.34 -0.34,0.629 -0.748,0.935 -1.445,1.207 -1.921,1.207 -0.85,0 -1.088,-0.935 -1.088,-1.598 0,-0.85 0.544,-2.941 0.935,-3.723 0.527,-1.003 1.292,-1.632 1.972,-1.632 1.105,0 1.343,1.394 1.343,1.496 z"
     stroke="#000000"
     stroke-opacity="1"
     stroke-width="0.136"
     fill="#000000"
     fill-opacity="1"
     id="path35"
     style="font-family:LatinModern-Math, LatinModern, Asana-Math, Asana" />
  <path
     d="m 116.24301,7.106 c 0,-1.547 -0.901,-2.72 -2.261,-2.72 -0.782,0 -1.479,0.493 -1.989,1.02 l 1.258,-5.117 c 0,0 0,-0.187 -0.221,-0.187 -0.391,0 -1.632,0.136 -2.074,0.17 -0.136,0.017 -0.323,0.034 -0.323,0.34 0,0.204 0.153,0.204 0.408,0.204 0.816,0 0.85,0.119 0.85,0.289 0,0.119 -0.153,0.697 -0.238,1.054 l -1.394,5.542 c -0.204,0.85 -0.272,1.122 -0.272,1.717 0,1.615 0.901,2.669 2.159,2.669 2.006,0 4.097,-2.533 4.097,-4.981 z m -1.224,-0.748 c 0,1.003 -0.561,2.958 -0.867,3.604 -0.561,1.139 -1.343,1.751 -2.006,1.751 -0.578,0 -1.139,-0.459 -1.139,-1.717 0,-0.323 0,-0.646 0.272,-1.717 l 0.374,-1.564 c 0.102,-0.374 0.102,-0.408 0.255,-0.595 0.833,-1.105 1.598,-1.36 2.04,-1.36 0.612,0 1.071,0.51 1.071,1.598 z"
     stroke="#000000"
     stroke-opacity="1"
     stroke-width="0.136"
     fill="#000000"
     fill-opacity="1"
     id="path39"
     style="font-family:LatinModern-Math, LatinModern, Asana-Math, Asana" />
  <path
     d="m 183.51368,16.308 c 0,-0.884 -1.003,-1.122 -1.581,-1.122 -0.986,0 -1.581,0.901 -1.785,1.292 -0.425,-1.122 -1.343,-1.292 -1.836,-1.292 -1.768,0 -2.737,2.193 -2.737,2.618 0,0.17 0.204,0.17 0.204,0.17 0.136,0 0.187,-0.034 0.221,-0.187 0.578,-1.802 1.7,-2.227 2.278,-2.227 0.323,0 0.918,0.153 0.918,1.139 0,0.527 -0.289,1.666 -0.918,4.046 -0.272,1.054 -0.867,1.768 -1.615,1.768 -0.102,0 -0.493,0 -0.85,-0.221 0.425,-0.085 0.799,-0.442 0.799,-0.918 0,-0.459 -0.374,-0.595 -0.629,-0.595 -0.51,0 -0.935,0.442 -0.935,0.986 0,0.782 0.85,1.122 1.598,1.122 1.122,0 1.734,-1.19 1.785,-1.292 0.204,0.629 0.816,1.292 1.836,1.292 1.751,0 2.72,-2.193 2.72,-2.618 0,-0.17 -0.153,-0.17 -0.204,-0.17 -0.153,0 -0.187,0.068 -0.221,0.187 -0.561,1.819 -1.717,2.227 -2.261,2.227 -0.663,0 -0.935,-0.544 -0.935,-1.122 0,-0.374 0.102,-0.748 0.289,-1.496 l 0.578,-2.329 c 0.102,-0.442 0.493,-2.006 1.683,-2.006 0.085,0 0.493,0 0.85,0.221 -0.476,0.085 -0.816,0.51 -0.816,0.918 0,0.272 0.187,0.595 0.646,0.595 0.374,0 0.918,-0.306 0.918,-0.986 z"
     stroke="#000000"
     stroke-opacity="1"
     stroke-width="0.136"
     fill="#000000"
     fill-opacity="1"
     id="path43"
     style="font-family:LatinModern-Math, LatinModern, Asana-Math, Asana" />
  <path
     d="m 189.77413,26 v -0.3689 h -0.3808 c -1.071,0 -1.1067,-0.1309 -1.1067,-0.5712 V 18.384 c 0,-0.2856 0,-0.3094 -0.2737,-0.3094 -0.7378,0.7616 -1.785,0.7616 -2.1658,0.7616 v 0.3689 c 0.238,0 0.9401,0 1.5589,-0.3094 v 6.1642 c 0,0.4284 -0.0357,0.5712 -1.1067,0.5712 h -0.3808 V 26 c 0.4165,-0.0357 1.4518,-0.0357 1.9278,-0.0357 0.476,0 1.5113,0 1.9278,0.0357 z"
     stroke="#000000"
     stroke-opacity="1"
     stroke-width="0.0952"
     fill="#000000"
     fill-opacity="1"
     id="path45"
     style="font-family:LatinModern-Math, LatinModern, Asana-Math, Asana" />
  <path
     d="m 219.79803,66.681 c 0,-0.102 -0.102,-0.221 -0.204,-0.221 -0.085,0 -0.119,0.034 -0.221,0.17 -1.343,1.683 -3.196,1.683 -3.4,1.683 -1.071,0 -1.53,-0.833 -1.53,-1.853 0,-0.697 0.34,-2.346 0.918,-3.4 0.527,-0.969 1.462,-1.7 2.397,-1.7 0.578,0 1.224,0.221 1.462,0.68 -0.272,0 -0.51,0 -0.748,0.238 -0.272,0.255 -0.306,0.544 -0.306,0.663 0,0.408 0.306,0.595 0.629,0.595 0.493,0 0.952,-0.408 0.952,-1.088 0,-0.833 -0.799,-1.462 -2.006,-1.462 -2.295,0 -4.556,2.431 -4.556,4.828 0,1.53 0.986,2.873 2.754,2.873 2.431,0 3.859,-1.802 3.859,-2.006 z"
     stroke="#000000"
     stroke-opacity="1"
     stroke-width="0.136"
     fill="#000000"
     fill-opacity="1"
     id="path52"
     style="font-family:LatinModern-Math, LatinModern, Asana-Math, Asana" />
  <path
     d="m 33.943,71.206 c 0,-1.547 -0.901,-2.72 -2.261,-2.72 -0.782,0 -1.479,0.493 -1.989,1.02 l 1.258,-5.117 c 0,0 0,-0.187 -0.221,-0.187 -0.391,0 -1.632,0.136 -2.074,0.17 -0.136,0.017 -0.323,0.034 -0.323,0.34 0,0.204 0.153,0.204 0.408,0.204 0.816,0 0.85,0.119 0.85,0.289 0,0.119 -0.153,0.697 -0.238,1.054 l -1.394,5.542 c -0.204,0.85 -0.272,1.122 -0.272,1.717 0,1.615 0.901,2.669 2.159,2.669 2.006,0 4.097,-2.533 4.097,-4.981 z m -1.224,-0.748 c 0,1.003 -0.561,2.958 -0.867,3.604 -0.561,1.139 -1.343,1.751 -2.006,1.751 -0.578,0 -1.139,-0.459 -1.139,-1.717 0,-0.323 0,-0.646 0.272,-1.717 l 0.374,-1.564 c 0.102,-0.374 0.102,-0.408 0.255,-0.595 0.833,-1.105 1.598,-1.36 2.04,-1.36 0.612,0 1.071,0.51 1.071,1.598 z"
     stroke="#000000"
     stroke-opacity="1"
     stroke-width="0.136"
     fill="#000000"
     fill-opacity="1"
     id="path56"
     style="font-family:LatinModern-Math, LatinModern, Asana-Math, Asana" />
  <path
     d="m 194.51368,119.508 c 0,-0.884 -1.003,-1.122 -1.581,-1.122 -0.986,0 -1.581,0.901 -1.785,1.292 -0.425,-1.122 -1.343,-1.292 -1.836,-1.292 -1.768,0 -2.737,2.193 -2.737,2.618 0,0.17 0.204,0.17 0.204,0.17 0.136,0 0.187,-0.034 0.221,-0.187 0.578,-1.802 1.7,-2.227 2.278,-2.227 0.323,0 0.918,0.153 0.918,1.139 0,0.527 -0.289,1.666 -0.918,4.046 -0.272,1.054 -0.867,1.768 -1.615,1.768 -0.102,0 -0.493,0 -0.85,-0.221 0.425,-0.085 0.799,-0.442 0.799,-0.918 0,-0.459 -0.374,-0.595 -0.629,-0.595 -0.51,0 -0.935,0.442 -0.935,0.986 0,0.782 0.85,1.122 1.598,1.122 1.122,0 1.734,-1.19 1.785,-1.292 0.204,0.629 0.816,1.292 1.836,1.292 1.751,0 2.72,-2.193 2.72,-2.618 0,-0.17 -0.153,-0.17 -0.204,-0.17 -0.153,0 -0.187,0.068 -0.221,0.187 -0.561,1.819 -1.717,2.227 -2.261,2.227 -0.663,0 -0.935,-0.544 -0.935,-1.122 0,-0.374 0.102,-0.748 0.289,-1.496 l 0.578,-2.329 c 0.102,-0.442 0.493,-2.006 1.683,-2.006 0.085,0 0.493,0 0.85,0.221 -0.476,0.085 -0.816,0.51 -0.816,0.918 0,0.272 0.187,0.595 0.646,0.595 0.374,0 0.918,-0.306 0.918,-0.986 z"
     stroke="#000000"
     stroke-opacity="1"
     stroke-width="0.136"
     fill="#000000"
     fill-opacity="1"
     id="path60"
     style="font-family:LatinModern-Math, LatinModern, Asana-Math, Asana" />
  <path
     d="m 201.13113,127.1294 h -0.2975 c -0.0595,0.357 -0.1428,0.8806 -0.2618,1.0591 -0.0833,0.0952 -0.8687,0.0952 -1.1305,0.0952 h -2.142 l 1.2614,-1.2257 c 1.8564,-1.6422 2.5704,-2.2848 2.5704,-3.4748 0,-1.3566 -1.071,-2.3086 -2.5228,-2.3086 -1.3447,0 -2.2253,1.0948 -2.2253,2.1539 0,0.6664 0.595,0.6664 0.6307,0.6664 0.2023,0 0.6188,-0.1428 0.6188,-0.6307 0,-0.3094 -0.2142,-0.6188 -0.6307,-0.6188 -0.0952,0 -0.119,0 -0.1547,0.0119 0.2737,-0.7735 0.9163,-1.2138 1.6065,-1.2138 1.0829,0 1.5946,0.9639 1.5946,1.9397 0,0.952 -0.595,1.8921 -1.2495,2.6299 l -2.2848,2.5466 c -0.1309,0.1309 -0.1309,0.1547 -0.1309,0.4403 h 4.4149 z"
     stroke="#000000"
     stroke-opacity="1"
     stroke-width="0.0952"
     fill="#000000"
     fill-opacity="1"
     id="path62"
     style="font-family:LatinModern-Math, LatinModern, Asana-Math, Asana" />
  <path
     d="m 149.79801,74.281 c 0,-0.102 -0.102,-0.221 -0.204,-0.221 -0.085,0 -0.119,0.034 -0.221,0.17 -1.343,1.683 -3.196,1.683 -3.4,1.683 -1.071,0 -1.53,-0.833 -1.53,-1.853 0,-0.697 0.34,-2.346 0.918,-3.4 0.527,-0.969 1.462,-1.7 2.397,-1.7 0.578,0 1.224,0.221 1.462,0.68 -0.272,0 -0.51,0 -0.748,0.238 -0.272,0.255 -0.306,0.544 -0.306,0.663 0,0.408 0.306,0.595 0.629,0.595 0.493,0 0.952,-0.408 0.952,-1.088 0,-0.833 -0.799,-1.462 -2.006,-1.462 -2.295,0 -4.556,2.431 -4.556,4.828 0,1.53 0.986,2.873 2.754,2.873 2.431,0 3.859,-1.802 3.859,-2.006 z"
     stroke="#000000"
     stroke-opacity="1"
     stroke-width="0.136"
     fill="#000000"
     fill-opacity="1"
     id="path69"
     style="font-family:LatinModern-Math, LatinModern, Asana-Math, Asana" />
  <path
     d="m 78.998005,77.881 c 0,-0.102 -0.102,-0.221 -0.204,-0.221 -0.085,0 -0.119,0.034 -0.221,0.17 -1.343,1.683 -3.196,1.683 -3.4,1.683 -1.071,0 -1.53,-0.833 -1.53,-1.853 0,-0.697 0.34,-2.346 0.918,-3.4 0.527,-0.969 1.462,-1.7 2.397,-1.7 0.578,0 1.224,0.221 1.462,0.68 -0.272,0 -0.51,0 -0.748,0.238 -0.272,0.255 -0.306,0.544 -0.306,0.663 0,0.408 0.306,0.595 0.629,0.595 0.493,0 0.952,-0.408 0.952,-1.088 0,-0.833 -0.799,-1.462 -2.006,-1.462 -2.295,0 -4.556,2.431 -4.556,4.828 0,1.53 0.986,2.873 2.754,2.873 2.431,0 3.859,-1.802 3.859,-2.006 z"
     stroke="#000000"
     stroke-opacity="1"
     stroke-width="0.136"
     fill="#000000"
     fill-opacity="1"
     id="path73"
     style="font-family:LatinModern-Math, LatinModern, Asana-Math, Asana" />
  <path
     d="m 44.113675,117.108 c 0,-0.884 -1.003,-1.122 -1.581,-1.122 -0.986,0 -1.581,0.901 -1.785,1.292 -0.425,-1.122 -1.343,-1.292 -1.836,-1.292 -1.768,0 -2.737,2.193 -2.737,2.618 0,0.17 0.204,0.17 0.204,0.17 0.136,0 0.187,-0.034 0.221,-0.187 0.578,-1.802 1.7,-2.227 2.278,-2.227 0.323,0 0.918,0.153 0.918,1.139 0,0.527 -0.289,1.666 -0.918,4.046 -0.272,1.054 -0.867,1.768 -1.615,1.768 -0.102,0 -0.493,0 -0.85,-0.221 0.425,-0.085 0.799,-0.442 0.799,-0.918 0,-0.459 -0.374,-0.595 -0.629,-0.595 -0.51,0 -0.935,0.442 -0.935,0.986 0,0.782 0.85,1.122 1.598,1.122 1.122,0 1.734,-1.19 1.785,-1.292 0.204,0.629 0.816,1.292 1.836,1.292 1.751,0 2.72,-2.193 2.72,-2.618 0,-0.17 -0.153,-0.17 -0.204,-0.17 -0.153,0 -0.187,0.068 -0.221,0.187 -0.561,1.819 -1.717,2.227 -2.261,2.227 -0.663,0 -0.935,-0.544 -0.935,-1.122 0,-0.374 0.102,-0.748 0.289,-1.496 l 0.578,-2.329 c 0.102,-0.442 0.493,-2.006 1.683,-2.006 0.085,0 0.493,0 0.85,0.221 -0.476,0.085 -0.816,0.51 -0.816,0.918 0,0.272 0.187,0.595 0.646,0.595 0.374,0 0.918,-0.306 0.918,-0.986 z"
     stroke="#000000"
     stroke-opacity="1"
     stroke-width="0.136"
     fill="#000000"
     fill-opacity="1"
     id="path77"
     style="font-family:LatinModern-Math, LatinModern, Asana-Math, Asana" />
  <path
     d="m 50.8263,124.7651 c 0,-0.9758 -0.7497,-1.904 -1.9873,-2.1539 0.9758,-0.3213 1.666,-1.1543 1.666,-2.0944 0,-0.9758 -1.0472,-1.6422 -2.1896,-1.6422 -1.2019,0 -2.1063,0.714 -2.1063,1.6184 0,0.3927 0.2618,0.6188 0.6069,0.6188 0.3689,0 0.6069,-0.2618 0.6069,-0.6069 0,-0.595 -0.5593,-0.595 -0.7378,-0.595 0.3689,-0.5831 1.1543,-0.7378 1.5827,-0.7378 0.4879,0 1.1424,0.2618 1.1424,1.3328 0,0.1428 -0.0238,0.833 -0.3332,1.3566 -0.357,0.5712 -0.7616,0.6069 -1.0591,0.6188 -0.0952,0.0119 -0.3808,0.0357 -0.4641,0.0357 -0.0952,0.0119 -0.1785,0.0238 -0.1785,0.1428 0,0.1309 0.0833,0.1309 0.2856,0.1309 h 0.5236 c 0.9758,0 1.4161,0.8092 1.4161,1.9754 0,1.6184 -0.8211,1.9635 -1.3447,1.9635 -0.5117,0 -1.4042,-0.2023 -1.8207,-0.9044 0.4165,0.0595 0.7854,-0.2023 0.7854,-0.6545 0,-0.4284 -0.3213,-0.6664 -0.6664,-0.6664 -0.2856,0 -0.6664,0.1666 -0.6664,0.6902 0,1.0829 1.1067,1.8683 2.4038,1.8683 1.4518,0 2.5347,-1.0829 2.5347,-2.2967 z"
     stroke="#000000"
     stroke-opacity="1"
     stroke-width="0.0952"
     fill="#000000"
     fill-opacity="1"
     id="path79"
     style="font-family:LatinModern-Math, LatinModern, Asana-Math, Asana" />
  <path
     d="m 117.65401,138.269 c 0,-0.17 -0.153,-0.17 -0.204,-0.17 -0.17,0 -0.187,0.068 -0.238,0.306 -0.289,1.105 -0.595,2.108 -1.292,2.108 -0.459,0 -0.51,-0.442 -0.51,-0.782 0,-0.374 0.034,-0.51 0.221,-1.258 l 0.374,-1.53 0.612,-2.38 c 0.119,-0.476 0.119,-0.51 0.119,-0.578 0,-0.289 -0.204,-0.459 -0.493,-0.459 -0.408,0 -0.663,0.374 -0.714,0.748 -0.306,-0.629 -0.799,-1.088 -1.564,-1.088 -1.989,0 -4.097,2.499 -4.097,4.981 0,1.598 0.935,2.72 2.261,2.72 0.34,0 1.19,-0.068 2.21,-1.275 0.136,0.714 0.731,1.275 1.547,1.275 0.595,0 0.986,-0.391 1.258,-0.935 0.289,-0.612 0.51,-1.683 0.51,-1.683 z m -2.329,-3.213 c 0,0.102 -0.034,0.204 -0.051,0.289 l -0.85,3.332 c -0.085,0.306 -0.085,0.34 -0.34,0.629 -0.748,0.935 -1.445,1.207 -1.921,1.207 -0.85,0 -1.088,-0.935 -1.088,-1.598 0,-0.85 0.544,-2.941 0.935,-3.723 0.527,-1.003 1.292,-1.632 1.972,-1.632 1.105,0 1.343,1.394 1.343,1.496 z"
     stroke="#000000"
     stroke-opacity="1"
     stroke-width="0.136"
     fill="#000000"
     fill-opacity="1"
     id="path86"
     style="font-family:LatinModern-Math, LatinModern, Asana-Math, Asana" />
</svg>
