<?xml version="1.0" encoding="UTF-8" standalone="no"?>
<svg
   x="0"
   y="0"
   width="235.84433"
   height="76.336998"
   style="fill:none"
   version="1.1"
   id="svg55"
   sodipodi:docname="determinizeforyourself.svg"
   inkscape:version="1.3.2 (091e20e, 2023-11-25)"
   xmlns:inkscape="http://www.inkscape.org/namespaces/inkscape"
   xmlns:sodipodi="http://sodipodi.sourceforge.net/DTD/sodipodi-0.dtd"
   xmlns="http://www.w3.org/2000/svg"
   xmlns:svg="http://www.w3.org/2000/svg">
  <defs
     id="defs55" />
  <sodipodi:namedview
     id="namedview55"
     pagecolor="#ffffff"
     bordercolor="#000000"
     borderopacity="0.25"
     inkscape:showpageshadow="2"
     inkscape:pageopacity="0.0"
     inkscape:pagecheckerboard="0"
     inkscape:deskcolor="#d1d1d1"
     inkscape:zoom="1.0523256"
     inkscape:cx="317.39227"
     inkscape:cy="36.110497"
     inkscape:window-width="1920"
     inkscape:window-height="999"
     inkscape:window-x="0"
     inkscape:window-y="25"
     inkscape:window-maximized="0"
     inkscape:current-layer="svg55" />
  <path
     class="connection real"
     stroke-dasharray="none"
     d="m 181.88468,31.29868 c 48.43,28.11 52.81,-43.44 12.21,-17.68"
     style="fill:none;fill-opacity:1;stroke:#000000;stroke-width:2px"
     id="path1" />
  <path
     d="m 198.00866,2.749221 -7.12065,13.046124 14.63812,-2.599854 -7.4142,-2.598707 z"
     id="path2"
     style="fill:#000000;stroke:none;stroke-width:2px" />
  <path
     class="connection real"
     stroke-dasharray="none"
     d="m 60.224675,38.12868 c -49.17,41.4 -66,-35.56 -16.3,-13.71"
     style="fill:none;fill-opacity:1;stroke:#000000;stroke-width:2px"
     id="path3"
     inkscape:export-filename="determinizeforyourself.svg"
     inkscape:export-xdpi="96"
     inkscape:export-ydpi="96" />
  <path
     d="m 32.192966,25.692962 14.861709,0.185716 -9.149316,-11.718515 1.174031,7.76822 z"
     id="path4"
     style="fill:#000000;stroke:none;stroke-width:2px" />
  <path
     class="connection real"
     stroke-dasharray="none"
     d="m 177.88468,36.62868 c -33.44,22.8 -70.72,26.02 -101.070005,16.95"
     style="fill:none;fill-opacity:1;stroke:#000000;stroke-width:2px"
     id="path5" />
  <path
     d="m 87.809145,50.586903 -14.754471,1.791773 10.626051,10.398103 -2.19638,-7.543176 z"
     id="path6"
     style="fill:#000000;stroke:none;stroke-width:2px" />
  <path
     class="connection real"
     stroke-dasharray="none"
     d="m 60.224675,38.12868 c 28.94,-23.52 65.560005,-28.93 101.040005,-15.09"
     style="fill:none;fill-opacity:1;stroke:#000000;stroke-width:2px"
     id="path7" />
  <path
     d="m 149.70739,25.059134 14.84728,-0.680458 -9.8165,-11.165562 1.62462,7.686625 z"
     id="path8"
     style="fill:#000000;stroke:none;stroke-width:2px" />
  <path
     class="real"
     d="m 164.22468,31.29868 c 0,-9.76 7.91,-17.67 17.66,-17.67 9.76,0 17.67,7.91 17.67,17.67 0,9.75 -7.91,17.66 -17.67,17.66 -9.75,0 -17.66,-7.91 -17.66,-17.66 z"
     style="fill:#ffffff;fill-opacity:1;stroke:#000000;stroke-width:2px"
     id="path9" />
  <path
     class="real"
     d="m 167.36468,31.29868 c 0,-8.02 6.5,-14.52 14.52,-14.52 8.02,0 14.52,6.5 14.52,14.52 0,8.02 -6.5,14.52 -14.52,14.52 -8.02,0 -14.52,-6.5 -14.52,-14.52 z"
     style="fill:#ffffff;fill-opacity:1;stroke:#000000;stroke-width:2px"
     id="path10" />
  <path
     class="real"
     d="m 41.824675,40.09868 c 0,-9.76 7.91,-17.67 17.66,-17.67 9.76,0 17.67,7.91 17.67,17.67 0,9.75 -7.91,17.66 -17.67,17.66 -9.75,0 -17.66,-7.91 -17.66,-17.66 z"
     style="fill:#ffffff;fill-opacity:1;stroke:#000000;stroke-width:2px"
     id="path12" />
  <path
     class="real"
     d="m 44.964675,40.09868 c 0,-8.02 6.5,-14.52 14.52,-14.52 8.02,0 14.52,6.5 14.52,14.52 0,8.02 -6.5,14.52 -14.52,14.52 -8.02,0 -14.52,-6.5 -14.52,-14.52 z"
     style="fill:#ffffff;fill-opacity:1;stroke:#000000;stroke-width:2px"
     id="path13" />
  <path
     d="m 120.85401,5.151 c 0,-0.17 -0.153,-0.17 -0.204,-0.17 -0.17,0 -0.187,0.068 -0.238,0.306 -0.289,1.105 -0.595,2.108 -1.292,2.108 -0.459,0 -0.51,-0.442 -0.51,-0.782 0,-0.374 0.034,-0.51 0.221,-1.258 l 0.374,-1.53 0.612,-2.38 c 0.119,-0.476 0.119,-0.51 0.119,-0.578 0,-0.289 -0.204,-0.459 -0.493,-0.459 -0.408,0 -0.663,0.374 -0.714,0.748 -0.306,-0.629 -0.799,-1.088 -1.564,-1.088 -1.989,0 -4.097,2.499 -4.097,4.981 0,1.598 0.935,2.72 2.261,2.72 0.34,0 1.19,-0.068 2.21,-1.275 0.136,0.714 0.731,1.275 1.547,1.275 0.595,0 0.986,-0.391 1.258,-0.935 0.289,-0.612 0.51,-1.683 0.51,-1.683 z m -2.329,-3.213 c 0,0.102 -0.034,0.204 -0.051,0.289 l -0.85,3.332 c -0.085,0.306 -0.085,0.34 -0.34,0.629 -0.748,0.935 -1.445,1.207 -1.921,1.207 -0.85,0 -1.088,-0.935 -1.088,-1.598 0,-0.85 0.544,-2.941 0.935,-3.723 0.527,-1.003 1.292,-1.632 1.972,-1.632 1.105,0 1.343,1.394 1.343,1.496 z"
     stroke="#000000"
     stroke-opacity="1"
     stroke-width="0.136"
     fill="#000000"
     fill-opacity="1"
     id="path20"
     style="font-family:LatinModern-Math, LatinModern, Asana-Math, Asana" />
  <path
     d="m 127.85401,73.651 c 0,-0.17 -0.153,-0.17 -0.204,-0.17 -0.17,0 -0.187,0.068 -0.238,0.306 -0.289,1.105 -0.595,2.108 -1.292,2.108 -0.459,0 -0.51,-0.442 -0.51,-0.782 0,-0.374 0.034,-0.51 0.221,-1.258 l 0.374,-1.53 0.612,-2.38 c 0.119,-0.476 0.119,-0.51 0.119,-0.578 0,-0.289 -0.204,-0.459 -0.493,-0.459 -0.408,0 -0.663,0.374 -0.714,0.748 -0.306,-0.629 -0.799,-1.088 -1.564,-1.088 -1.989,0 -4.097,2.499 -4.097,4.981 0,1.598 0.935,2.72 2.261,2.72 0.34,0 1.19,-0.068 2.21,-1.275 0.136,0.714 0.731,1.275 1.547,1.275 0.595,0 0.986,-0.391 1.258,-0.935 0.289,-0.612 0.51,-1.683 0.51,-1.683 z m -2.329,-3.213 c 0,0.102 -0.034,0.204 -0.051,0.289 l -0.85,3.332 c -0.085,0.306 -0.085,0.34 -0.34,0.629 -0.748,0.935 -1.445,1.207 -1.921,1.207 -0.85,0 -1.088,-0.935 -1.088,-1.598 0,-0.85 0.544,-2.941 0.935,-3.723 0.527,-1.003 1.292,-1.632 1.972,-1.632 1.105,0 1.343,1.394 1.343,1.496 z"
     stroke="#000000"
     stroke-opacity="1"
     stroke-width="0.136"
     fill="#000000"
     fill-opacity="1"
     id="path24"
     style="font-family:LatinModern-Math, LatinModern, Asana-Math, Asana" />
  <path
     d="m 7.854,32.651 c 0,-0.17 -0.153,-0.17 -0.204,-0.17 -0.17,0 -0.187,0.068 -0.238,0.306 -0.289,1.105 -0.595,2.108 -1.292,2.108 -0.459,0 -0.51,-0.442 -0.51,-0.782 0,-0.374 0.034,-0.51 0.221,-1.258 l 0.374,-1.53 0.612,-2.38 c 0.119,-0.476 0.119,-0.51 0.119,-0.578 0,-0.289 -0.204,-0.459 -0.493,-0.459 -0.408,0 -0.663,0.374 -0.714,0.748 -0.306,-0.629 -0.799,-1.088 -1.564,-1.088 -1.989,0 -4.097,2.499 -4.097,4.981 0,1.598 0.935,2.72 2.261,2.72 0.34,0 1.19,-0.068 2.21,-1.275 0.136,0.714 0.731,1.275 1.547,1.275 0.595,0 0.986,-0.391 1.258,-0.935 0.289,-0.612 0.51,-1.683 0.51,-1.683 z M 5.525,29.438 c 0,0.102 -0.034,0.204 -0.051,0.289 l -0.85,3.332 c -0.085,0.306 -0.085,0.34 -0.34,0.629 -0.748,0.935 -1.445,1.207 -1.921,1.207 -0.85,0 -1.088,-0.935 -1.088,-1.598 0,-0.85 0.544,-2.941 0.935,-3.723 0.527,-1.003 1.292,-1.632 1.972,-1.632 1.105,0 1.343,1.394 1.343,1.496 z"
     stroke="#000000"
     stroke-opacity="1"
     stroke-width="0.136"
     fill="#000000"
     fill-opacity="1"
     id="path28"
     style="font-family:LatinModern-Math, LatinModern, Asana-Math, Asana" />
  <path
     d="m 183.01368,28.69 c 0,-0.884 -1.003,-1.122 -1.581,-1.122 -0.986,0 -1.581,0.901 -1.785,1.292 -0.425,-1.122 -1.343,-1.292 -1.836,-1.292 -1.768,0 -2.737,2.193 -2.737,2.618 0,0.17 0.204,0.17 0.204,0.17 0.136,0 0.187,-0.034 0.221,-0.187 0.578,-1.802 1.7,-2.227 2.278,-2.227 0.323,0 0.918,0.153 0.918,1.139 0,0.527 -0.289,1.666 -0.918,4.046 -0.272,1.054 -0.867,1.768 -1.615,1.768 -0.102,0 -0.493,0 -0.85,-0.221 0.425,-0.085 0.799,-0.442 0.799,-0.918 0,-0.459 -0.374,-0.595 -0.629,-0.595 -0.51,0 -0.935,0.442 -0.935,0.986 0,0.782 0.85,1.122 1.598,1.122 1.122,0 1.734,-1.19 1.785,-1.292 0.204,0.629 0.816,1.292 1.836,1.292 1.751,0 2.72,-2.193 2.72,-2.618 0,-0.17 -0.153,-0.17 -0.204,-0.17 -0.153,0 -0.187,0.068 -0.221,0.187 -0.561,1.819 -1.717,2.227 -2.261,2.227 -0.663,0 -0.935,-0.544 -0.935,-1.122 0,-0.374 0.102,-0.748 0.289,-1.496 l 0.578,-2.329 c 0.102,-0.442 0.493,-2.006 1.683,-2.006 0.085,0 0.493,0 0.85,0.221 -0.476,0.085 -0.816,0.51 -0.816,0.918 0,0.272 0.187,0.595 0.646,0.595 0.374,0 0.918,-0.306 0.918,-0.986 z"
     stroke="#000000"
     stroke-opacity="1"
     stroke-width="0.136"
     fill="#000000"
     fill-opacity="1"
     id="path32"
     style="font-family:LatinModern-Math, LatinModern, Asana-Math, Asana" />
  <path
     d="m 189.27411,38.12868 v -0.3689 h -0.3808 c -1.071,0 -1.1067,-0.1309 -1.1067,-0.5712 v -6.6759 c 0,-0.2856 0,-0.3094 -0.2737,-0.3094 -0.7378,0.7616 -1.785,0.7616 -2.1658,0.7616 v 0.3689 c 0.238,0 0.9401,0 1.5589,-0.3094 v 6.1642 c 0,0.4284 -0.0357,0.5712 -1.1067,0.5712 h -0.3808 v 0.3689 c 0.4165,-0.0357 1.4518,-0.0357 1.9278,-0.0357 0.476,0 1.5113,0 1.9278,0.0357 z"
     stroke="#000000"
     stroke-opacity="1"
     stroke-width="0.0952"
     fill="#000000"
     fill-opacity="1"
     id="path34"
     style="font-family:LatinModern-Math, LatinModern, Asana-Math, Asana" />
  <path
     d="m 235.77633,19.788 c 0,-1.547 -0.901,-2.72 -2.261,-2.72 -0.782,0 -1.479,0.493 -1.989,1.02 l 1.258,-5.117 c 0,0 0,-0.187 -0.221,-0.187 -0.391,0 -1.632,0.136 -2.074,0.17 -0.136,0.017 -0.323,0.034 -0.323,0.34 0,0.204 0.153,0.204 0.408,0.204 0.816,0 0.85,0.119 0.85,0.289 0,0.119 -0.153,0.697 -0.238,1.054 l -1.394,5.542 c -0.204,0.85 -0.272,1.122 -0.272,1.717 0,1.615 0.901,2.669 2.159,2.669 2.006,0 4.097,-2.533 4.097,-4.981 z m -1.224,-0.748 c 0,1.003 -0.561,2.958 -0.867,3.604 -0.561,1.139 -1.343,1.751 -2.006,1.751 -0.578,0 -1.139,-0.459 -1.139,-1.717 0,-0.323 0,-0.646 0.272,-1.717 l 0.374,-1.564 c 0.102,-0.374 0.102,-0.408 0.255,-0.595 0.833,-1.105 1.598,-1.36 2.04,-1.36 0.612,0 1.071,0.51 1.071,1.598 z"
     stroke="#000000"
     stroke-opacity="1"
     stroke-width="0.136"
     fill="#000000"
     fill-opacity="1"
     id="path41"
     style="font-family:LatinModern-Math, LatinModern, Asana-Math, Asana" />
  <path
     d="m 60.613675,37.49 c 0,-0.884 -1.003,-1.122 -1.581,-1.122 -0.986,0 -1.581,0.901 -1.785,1.292 -0.425,-1.122 -1.343,-1.292 -1.836,-1.292 -1.768,0 -2.737,2.193 -2.737,2.618 0,0.17 0.204,0.17 0.204,0.17 0.136,0 0.187,-0.034 0.221,-0.187 0.578,-1.802 1.7,-2.227 2.278,-2.227 0.323,0 0.918,0.153 0.918,1.139 0,0.527 -0.289,1.666 -0.918,4.046 -0.272,1.054 -0.867,1.768 -1.615,1.768 -0.102,0 -0.493,0 -0.85,-0.221 0.425,-0.085 0.799,-0.442 0.799,-0.918 0,-0.459 -0.374,-0.595 -0.629,-0.595 -0.51,0 -0.935,0.442 -0.935,0.986 0,0.782 0.85,1.122 1.598,1.122 1.122,0 1.734,-1.19 1.785,-1.292 0.204,0.629 0.816,1.292 1.836,1.292 1.751,0 2.72,-2.193 2.72,-2.618 0,-0.17 -0.153,-0.17 -0.204,-0.17 -0.153,0 -0.187,0.068 -0.221,0.187 -0.561,1.819 -1.717,2.227 -2.261,2.227 -0.663,0 -0.935,-0.544 -0.935,-1.122 0,-0.374 0.102,-0.748 0.289,-1.496 l 0.578,-2.329 c 0.102,-0.442 0.493,-2.006 1.683,-2.006 0.085,0 0.493,0 0.85,0.221 -0.476,0.085 -0.816,0.51 -0.816,0.918 0,0.272 0.187,0.595 0.646,0.595 0.374,0 0.918,-0.306 0.918,-0.986 z"
     stroke="#000000"
     stroke-opacity="1"
     stroke-width="0.136"
     fill="#000000"
     fill-opacity="1"
     id="path45"
     style="font-family:LatinModern-Math, LatinModern, Asana-Math, Asana" />
  <path
     d="m 67.362,43.12068 c 0,-0.952 -0.0595,-1.904 -0.476,-2.7846 -0.5474,-1.1424 -1.5232,-1.3328 -2.023,-1.3328 -0.714,0 -1.5827,0.3094 -2.0706,1.4161 -0.3808,0.8211 -0.4403,1.7493 -0.4403,2.7013 0,0.8925 0.0476,1.9635 0.5355,2.8679 0.5117,0.9639 1.3804,1.2019 1.9635,1.2019 0.6426,0 1.547,-0.2499 2.0706,-1.3804 0.3808,-0.8211 0.4403,-1.7493 0.4403,-2.6894 z m -0.9877,-0.1428 c 0,0.8925 0,1.7017 -0.1309,2.4633 -0.1785,1.1305 -0.8568,1.4875 -1.3923,1.4875 -0.4641,0 -1.1662,-0.2975 -1.3804,-1.4399 -0.1309,-0.714 -0.1309,-1.8088 -0.1309,-2.5109 0,-0.7616 0,-1.547 0.0952,-2.1896 0.2261,-1.4161 1.1186,-1.5232 1.4161,-1.5232 0.3927,0 1.1781,0.2142 1.4042,1.3923 0.119,0.6664 0.119,1.5708 0.119,2.3205 z"
     stroke="#000000"
     stroke-opacity="1"
     stroke-width="0.0952"
     fill="#000000"
     fill-opacity="1"
     id="path47"
     style="font-family:LatinModern-Math, LatinModern, Asana-Math, Asana" />
</svg>
