<?xml version="1.0" encoding="UTF-8" standalone="no"?>
<svg
   x="0"
   y="0"
   width="176"
   height="146"
   style="fill:none"
   version="1.1"
   id="svg197"
   xmlns="http://www.w3.org/2000/svg"
   xmlns:svg="http://www.w3.org/2000/svg">
  <defs
     id="defs197" />
  <svg
     class="role-diagram-draw-area"
     style="overflow:visible"
     version="1.1"
     id="svg18"
     width="100%"
     height="100%"
     transform="translate(-263.10001,-6.0300002)">
    <g
       class="shapes-region"
       style="fill:none;stroke:#000000"
       id="g15">
      <g
         class="grouped-shape"
         id="g13">
        <g
           class="arrow-line"
           id="g1">
          <path
             class="connection real"
             stroke-dasharray="none"
             d="m 263.6,6.53 v 145"
             style="fill:none;fill-opacity:1;stroke:#000000;stroke-width:1px"
             id="path1" />
        </g>
        <g
           class="arrow-line"
           id="g2">
          <path
             class="connection real"
             stroke-dasharray="none"
             d="m 263.6,6.53 h 175"
             style="fill:none;fill-opacity:1;stroke:#000000;stroke-width:1px"
             id="path2" />
        </g>
        <g
           class="arrow-line"
           id="g3">
          <path
             class="connection real"
             stroke-dasharray="none"
             d="m 438.6,151.53 h -175"
             style="fill:none;fill-opacity:1;stroke:#000000;stroke-width:1px"
             id="path3" />
        </g>
        <g
           class="arrow-line"
           id="g4">
          <path
             class="connection real"
             stroke-dasharray="none"
             d="m 438.6,6.53 v 145"
             style="fill:none;fill-opacity:1;stroke:#000000;stroke-width:1px"
             id="path4" />
        </g>
        <g
           class="arrow-line"
           id="g5">
          <path
             class="connection real"
             stroke-dasharray="none"
             d="m 293.6,6.62 v 145"
             style="fill:none;fill-opacity:1;stroke:#000000;stroke-width:1px"
             id="path5" />
        </g>
        <g
           class="arrow-line"
           id="g6">
          <path
             class="connection real"
             stroke-dasharray="none"
             d="m 319.6,6.62 v 145"
             style="fill:none;fill-opacity:1;stroke:#000000;stroke-width:1px"
             id="path6" />
        </g>
        <g
           class="arrow-line"
           id="g7">
          <path
             class="connection real"
             stroke-dasharray="none"
             d="m 373.6,6.62 v 145"
             style="fill:none;fill-opacity:1;stroke:#000000;stroke-width:1px"
             id="path7" />
        </g>
        <g
           class="arrow-line"
           id="g8">
          <path
             class="connection real"
             stroke-dasharray="none"
             d="m 263.6,36.53 h 175"
             style="fill:none;fill-opacity:1;stroke:#000000;stroke-width:1px"
             id="path8" />
        </g>
        <g
           class="arrow-line"
           id="g9">
          <path
             class="connection real"
             stroke-dasharray="none"
             d="m 263.6,63.53 h 175"
             style="fill:none;fill-opacity:1;stroke:#000000;stroke-width:1px"
             id="path9" />
        </g>
        <g
           class="arrow-line"
           id="g10">
          <path
             class="connection real"
             stroke-dasharray="none"
             d="m 263.6,93.53 h 175"
             style="fill:none;fill-opacity:1;stroke:#000000;stroke-width:1px"
             id="path10" />
        </g>
        <g
           class="arrow-line"
           id="g11">
          <path
             class="connection real"
             stroke-dasharray="none"
             d="m 263.6,123.53 h 175"
             style="fill:none;fill-opacity:1;stroke:#000000;stroke-width:1px"
             id="path11" />
        </g>
        <g
           class="arrow-line"
           id="g12">
          <path
             class="connection real"
             stroke-dasharray="none"
             d="m 406.6,6.62 v 145"
             style="fill:none;fill-opacity:1;stroke:#000000;stroke-width:1px"
             id="path12" />
        </g>
      </g>
      <g
         id="g14" />
    </g>
    <g
       id="g16" />
    <g
       id="g17" />
    <g
       id="g18" />
  </svg>
  <svg
     width="700"
     height="160.66667"
     style="font-family:LatinModern-Math, LatinModern, Asana-Math, Asana"
     version="1.1"
     id="svg196"
     transform="translate(-263.10001,-6.0300002)">
    <g
       id="g22">
      <g
         id="g21">
        <g
           id="g20">
          <g
             transform="translate(299.10002,26.833333)"
             id="g19">
            <path
               transform="scale(0.017,-0.017)"
               d="m 748,653 c 3,27 -2,27 -27,27 H 231 c -20,0 -30,0 -30,-20 0,-11 9,-11 28,-11 37,0 65,0 65,-18 0,-4 0,-6 -5,-24 L 157,78 C 147,39 145,31 66,31 49,31 38,31 38,12 38,0 50,0 53,0 L 185,3 334,0 c 9,0 21,0 21,19 0,8 -6,11 -6,11 -3,1 -5,1 -28,1 -22,0 -27,0 -52,2 -29,3 -32,7 -32,20 0,0 0,8 4,23 l 62,249 h 97 c 75,0 83,-16 83,-45 0,-7 0,-19 -7,-49 -2,-5 -3,-11 -3,-11 0,-8 6,-12 12,-12 10,0 10,3 15,21 l 55,217 c 3,11 3,13 3,16 0,0 -2,11 -12,11 -10,0 -11,-5 -15,-21 -21,-78 -44,-96 -129,-96 h -91 l 64,254 c 9,35 10,39 54,39 h 132 c 123,0 146,-33 146,-110 0,-23 0,-27 -3,-54 -2,-13 -2,-15 -2,-18 0,-5 3,-12 12,-12 11,0 12,6 14,25 z"
               stroke="#000000"
               stroke-opacity="1"
               stroke-width="8"
               fill="#000000"
               fill-opacity="1"
               id="path18" />
          </g>
        </g>
      </g>
    </g>
    <g
       id="g31">
      <g
         id="g30">
        <g
           id="g24">
          <g
             transform="translate(337.66667,27.633341)"
             id="g23">
            <path
               transform="scale(0.017,-0.017)"
               d="m 498,143 c 0,10 -9,10 -12,10 -10,0 -11,-4 -14,-18 C 455,70 437,11 396,11 c -27,0 -30,26 -30,46 0,22 2,30 13,74 l 22,90 36,140 c 7,28 7,30 7,34 0,17 -12,27 -29,27 -24,0 -39,-22 -42,-44 -18,37 -47,64 -92,64 C 164,442 40,295 40,149 40,55 95,-11 173,-11 c 20,0 70,4 130,75 8,-42 43,-75 91,-75 35,0 58,23 74,55 17,36 30,99 30,99 z M 361,332 c 0,-6 -2,-12 -3,-17 L 308,119 C 303,101 303,99 288,82 244,27 203,11 175,11 c -50,0 -64,55 -64,94 0,50 32,173 55,219 31,59 76,96 116,96 65,0 79,-82 79,-88 z"
               stroke="#000000"
               stroke-opacity="1"
               stroke-width="8"
               fill="#000000"
               fill-opacity="1"
               id="path22" />
          </g>
        </g>
        <g
           id="g29">
          <g
             id="g28">
            <g
               id="g27">
              <g
                 id="g26">
                <g
                   transform="translate(347.17778,30.6889)"
                   id="g25">
                  <path
                     transform="scale(0.0119,-0.0119)"
                     d="m 419,0 v 31 h -32 c -90,0 -93,11 -93,48 v 561 c 0,24 0,26 -23,26 C 209,602 121,602 89,602 v -31 c 20,0 79,0 131,26 V 79 C 220,43 217,31 127,31 H 95 V 0 c 35,3 122,3 162,3 40,0 127,0 162,-3 z"
                     stroke="#000000"
                     stroke-opacity="1"
                     stroke-width="8"
                     fill="#000000"
                     fill-opacity="1"
                     id="path24" />
                </g>
              </g>
            </g>
          </g>
        </g>
      </g>
    </g>
    <g
       id="g40">
      <g
         id="g39">
        <g
           id="g33">
          <g
             transform="translate(382.37777,27.633341)"
             id="g32">
            <path
               transform="scale(0.017,-0.017)"
               d="m 498,143 c 0,10 -9,10 -12,10 -10,0 -11,-4 -14,-18 C 455,70 437,11 396,11 c -27,0 -30,26 -30,46 0,22 2,30 13,74 l 22,90 36,140 c 7,28 7,30 7,34 0,17 -12,27 -29,27 -24,0 -39,-22 -42,-44 -18,37 -47,64 -92,64 C 164,442 40,295 40,149 40,55 95,-11 173,-11 c 20,0 70,4 130,75 8,-42 43,-75 91,-75 35,0 58,23 74,55 17,36 30,99 30,99 z M 361,332 c 0,-6 -2,-12 -3,-17 L 308,119 C 303,101 303,99 288,82 244,27 203,11 175,11 c -50,0 -64,55 -64,94 0,50 32,173 55,219 31,59 76,96 116,96 65,0 79,-82 79,-88 z"
               stroke="#000000"
               stroke-opacity="1"
               stroke-width="8"
               fill="#000000"
               fill-opacity="1"
               id="path31" />
          </g>
        </g>
        <g
           id="g38">
          <g
             id="g37">
            <g
               id="g36">
              <g
                 id="g35">
                <g
                   transform="translate(391.89998,30.6889)"
                   id="g34">
                  <path
                     transform="scale(0.0119,-0.0119)"
                     d="m 449,174 h -25 c -5,-30 -12,-74 -22,-89 -7,-8 -73,-8 -95,-8 H 127 L 233,180 C 389,318 449,372 449,472 449,586 359,666 237,666 124,666 50,574 50,485 c 0,-56 50,-56 53,-56 17,0 52,12 52,53 0,26 -18,52 -53,52 -8,0 -10,0 -13,-1 23,65 77,102 135,102 91,0 134,-81 134,-163 0,-80 -50,-159 -105,-221 L 61,37 C 50,26 50,24 50,0 h 371 z"
                     stroke="#000000"
                     stroke-opacity="1"
                     stroke-width="8"
                     fill="#000000"
                     fill-opacity="1"
                     id="path33" />
                </g>
              </g>
            </g>
          </g>
        </g>
      </g>
    </g>
    <g
       id="g49">
      <g
         id="g48">
        <g
           id="g42">
          <g
             transform="translate(415.53337,27.066671)"
             id="g41">
            <path
               transform="scale(0.017,-0.017)"
               d="m 498,143 c 0,10 -9,10 -12,10 -10,0 -11,-4 -14,-18 C 455,70 437,11 396,11 c -27,0 -30,26 -30,46 0,22 2,30 13,74 l 22,90 36,140 c 7,28 7,30 7,34 0,17 -12,27 -29,27 -24,0 -39,-22 -42,-44 -18,37 -47,64 -92,64 C 164,442 40,295 40,149 40,55 95,-11 173,-11 c 20,0 70,4 130,75 8,-42 43,-75 91,-75 35,0 58,23 74,55 17,36 30,99 30,99 z M 361,332 c 0,-6 -2,-12 -3,-17 L 308,119 C 303,101 303,99 288,82 244,27 203,11 175,11 c -50,0 -64,55 -64,94 0,50 32,173 55,219 31,59 76,96 116,96 65,0 79,-82 79,-88 z"
               stroke="#000000"
               stroke-opacity="1"
               stroke-width="8"
               fill="#000000"
               fill-opacity="1"
               id="path40" />
          </g>
        </g>
        <g
           id="g47">
          <g
             id="g46">
            <g
               id="g45">
              <g
                 id="g44">
                <g
                   transform="translate(425.05558,30.122209)"
                   id="g43">
                  <path
                     transform="scale(0.0119,-0.0119)"
                     d="m 457,171 c 0,82 -63,160 -167,181 82,27 140,97 140,176 0,82 -88,138 -184,138 -101,0 -177,-60 -177,-136 0,-33 22,-52 51,-52 31,0 51,22 51,51 0,50 -47,50 -62,50 31,49 97,62 133,62 41,0 96,-22 96,-112 0,-12 -2,-70 -28,-114 -30,-48 -64,-51 -89,-52 -8,-1 -32,-3 -39,-3 -8,-1 -15,-2 -15,-12 0,-11 7,-11 24,-11 h 44 C 317,337 354,269 354,171 354,35 285,6 241,6 198,6 123,23 88,82 c 35,-5 66,17 66,55 0,36 -27,56 -56,56 -24,0 -56,-14 -56,-58 0,-91 93,-157 202,-157 122,0 213,91 213,193 z"
                     stroke="#000000"
                     stroke-opacity="1"
                     stroke-width="8"
                     fill="#000000"
                     fill-opacity="1"
                     id="path42" />
                </g>
              </g>
            </g>
          </g>
        </g>
      </g>
    </g>
    <g
       id="g58">
      <g
         id="g57">
        <g
           id="g51">
          <g
             transform="translate(270.25553,55.066671)"
             id="g50">
            <path
               transform="scale(0.017,-0.017)"
               d="m 527,376 c 0,52 -59,66 -93,66 -58,0 -93,-53 -105,-76 -25,66 -79,76 -108,76 C 117,442 60,313 60,288 c 0,-10 12,-10 12,-10 8,0 11,2 13,11 34,106 100,131 134,131 19,0 54,-9 54,-67 0,-31 -17,-98 -54,-238 C 203,53 168,11 124,11 c -6,0 -29,0 -50,13 25,5 47,26 47,54 0,27 -22,35 -37,35 -30,0 -55,-26 -55,-58 0,-46 50,-66 94,-66 66,0 102,70 105,76 12,-37 48,-76 108,-76 103,0 160,129 160,154 0,10 -9,10 -12,10 -9,0 -11,-4 -13,-11 C 438,35 370,11 338,11 c -39,0 -55,32 -55,66 0,22 6,44 17,88 l 34,137 c 6,26 29,118 99,118 5,0 29,0 50,-13 -28,-5 -48,-30 -48,-54 0,-16 11,-35 38,-35 22,0 54,18 54,58 z"
               stroke="#000000"
               stroke-opacity="1"
               stroke-width="8"
               fill="#000000"
               fill-opacity="1"
               id="path49" />
          </g>
        </g>
        <g
           id="g56">
          <g
             id="g55">
            <g
               id="g54">
              <g
                 id="g53">
                <g
                   transform="translate(280.48889,58.122209)"
                   id="g52">
                  <path
                     transform="scale(0.0119,-0.0119)"
                     d="m 419,0 v 31 h -32 c -90,0 -93,11 -93,48 v 561 c 0,24 0,26 -23,26 C 209,602 121,602 89,602 v -31 c 20,0 79,0 131,26 V 79 C 220,43 217,31 127,31 H 95 V 0 c 35,3 122,3 162,3 40,0 127,0 162,-3 z"
                     stroke="#000000"
                     stroke-opacity="1"
                     stroke-width="8"
                     fill="#000000"
                     fill-opacity="1"
                     id="path51" />
                </g>
              </g>
            </g>
          </g>
        </g>
      </g>
    </g>
    <g
       id="g67">
      <g
         id="g66">
        <g
           id="g60">
          <g
             transform="translate(268.82222,84.5)"
             id="g59">
            <path
               transform="scale(0.017,-0.017)"
               d="m 527,376 c 0,52 -59,66 -93,66 -58,0 -93,-53 -105,-76 -25,66 -79,76 -108,76 C 117,442 60,313 60,288 c 0,-10 12,-10 12,-10 8,0 11,2 13,11 34,106 100,131 134,131 19,0 54,-9 54,-67 0,-31 -17,-98 -54,-238 C 203,53 168,11 124,11 c -6,0 -29,0 -50,13 25,5 47,26 47,54 0,27 -22,35 -37,35 -30,0 -55,-26 -55,-58 0,-46 50,-66 94,-66 66,0 102,70 105,76 12,-37 48,-76 108,-76 103,0 160,129 160,154 0,10 -9,10 -12,10 -9,0 -11,-4 -13,-11 C 438,35 370,11 338,11 c -39,0 -55,32 -55,66 0,22 6,44 17,88 l 34,137 c 6,26 29,118 99,118 5,0 29,0 50,-13 -28,-5 -48,-30 -48,-54 0,-16 11,-35 38,-35 22,0 54,18 54,58 z"
               stroke="#000000"
               stroke-opacity="1"
               stroke-width="8"
               fill="#000000"
               fill-opacity="1"
               id="path58" />
          </g>
        </g>
        <g
           id="g65">
          <g
             id="g64">
            <g
               id="g63">
              <g
                 id="g62">
                <g
                   transform="translate(279.05554,87.555558)"
                   id="g61">
                  <path
                     transform="scale(0.0119,-0.0119)"
                     d="m 449,174 h -25 c -5,-30 -12,-74 -22,-89 -7,-8 -73,-8 -95,-8 H 127 L 233,180 C 389,318 449,372 449,472 449,586 359,666 237,666 124,666 50,574 50,485 c 0,-56 50,-56 53,-56 17,0 52,12 52,53 0,26 -18,52 -53,52 -8,0 -10,0 -13,-1 23,65 77,102 135,102 91,0 134,-81 134,-163 0,-80 -50,-159 -105,-221 L 61,37 C 50,26 50,24 50,0 h 371 z"
                     stroke="#000000"
                     stroke-opacity="1"
                     stroke-width="8"
                     fill="#000000"
                     fill-opacity="1"
                     id="path60" />
                </g>
              </g>
            </g>
          </g>
        </g>
      </g>
    </g>
    <g
       id="g76">
      <g
         id="g75">
        <g
           id="g69">
          <g
             transform="translate(269.38888,113.63334)"
             id="g68">
            <path
               transform="scale(0.017,-0.017)"
               d="m 490,404 c 0,18 -14,27 -29,27 -10,0 -26,-6 -35,-21 -2,-5 -10,-36 -14,-54 L 392,276 347,96 C 343,81 300,11 234,11 c -51,0 -62,44 -62,81 0,46 17,108 51,196 16,41 20,52 20,72 0,45 -32,82 -82,82 C 66,442 29,297 29,288 c 0,-10 12,-10 12,-10 10,0 11,2 16,18 27,94 67,124 101,124 8,0 25,0 25,-32 0,-25 -10,-51 -17,-70 -40,-106 -58,-163 -58,-210 0,-89 63,-119 122,-119 39,0 73,17 101,45 -13,-52 -25,-101 -65,-154 -26,-34 -64,-63 -110,-63 -14,0 -59,3 -76,42 16,0 29,0 43,12 10,9 20,22 20,41 0,31 -27,35 -37,35 -23,0 -56,-16 -56,-65 0,-50 44,-87 106,-87 103,0 206,91 234,204 l 96,382 c 4,14 4,16 4,23 z"
               stroke="#000000"
               stroke-opacity="1"
               stroke-width="8"
               fill="#000000"
               fill-opacity="1"
               id="path67" />
          </g>
        </g>
        <g
           id="g74">
          <g
             id="g73">
            <g
               id="g72">
              <g
                 id="g71">
                <g
                   transform="translate(278.23332,116.6889)"
                   id="g70">
                  <path
                     transform="scale(0.0119,-0.0119)"
                     d="m 419,0 v 31 h -32 c -90,0 -93,11 -93,48 v 561 c 0,24 0,26 -23,26 C 209,602 121,602 89,602 v -31 c 20,0 79,0 131,26 V 79 C 220,43 217,31 127,31 H 95 V 0 c 35,3 122,3 162,3 40,0 127,0 162,-3 z"
                     stroke="#000000"
                     stroke-opacity="1"
                     stroke-width="8"
                     fill="#000000"
                     fill-opacity="1"
                     id="path69" />
                </g>
              </g>
            </g>
          </g>
        </g>
      </g>
    </g>
    <g
       id="g85">
      <g
         id="g84">
        <g
           id="g78">
          <g
             transform="translate(269.95557,141.63334)"
             id="g77">
            <path
               transform="scale(0.017,-0.017)"
               d="m 490,404 c 0,18 -14,27 -29,27 -10,0 -26,-6 -35,-21 -2,-5 -10,-36 -14,-54 L 392,276 347,96 C 343,81 300,11 234,11 c -51,0 -62,44 -62,81 0,46 17,108 51,196 16,41 20,52 20,72 0,45 -32,82 -82,82 C 66,442 29,297 29,288 c 0,-10 12,-10 12,-10 10,0 11,2 16,18 27,94 67,124 101,124 8,0 25,0 25,-32 0,-25 -10,-51 -17,-70 -40,-106 -58,-163 -58,-210 0,-89 63,-119 122,-119 39,0 73,17 101,45 -13,-52 -25,-101 -65,-154 -26,-34 -64,-63 -110,-63 -14,0 -59,3 -76,42 16,0 29,0 43,12 10,9 20,22 20,41 0,31 -27,35 -37,35 -23,0 -56,-16 -56,-65 0,-50 44,-87 106,-87 103,0 206,91 234,204 l 96,382 c 4,14 4,16 4,23 z"
               stroke="#000000"
               stroke-opacity="1"
               stroke-width="8"
               fill="#000000"
               fill-opacity="1"
               id="path76" />
          </g>
        </g>
        <g
           id="g83">
          <g
             id="g82">
            <g
               id="g81">
              <g
                 id="g80">
                <g
                   transform="translate(278.80001,144.6889)"
                   id="g79">
                  <path
                     transform="scale(0.0119,-0.0119)"
                     d="m 449,174 h -25 c -5,-30 -12,-74 -22,-89 -7,-8 -73,-8 -95,-8 H 127 L 233,180 C 389,318 449,372 449,472 449,586 359,666 237,666 124,666 50,574 50,485 c 0,-56 50,-56 53,-56 17,0 52,12 52,53 0,26 -18,52 -53,52 -8,0 -10,0 -13,-1 23,65 77,102 135,102 91,0 134,-81 134,-163 0,-80 -50,-159 -105,-221 L 61,37 C 50,26 50,24 50,0 h 371 z"
                     stroke="#000000"
                     stroke-opacity="1"
                     stroke-width="8"
                     fill="#000000"
                     fill-opacity="1"
                     id="path78" />
                </g>
              </g>
            </g>
          </g>
        </g>
      </g>
    </g>
    <g
       id="g89">
      <g
         id="g88">
        <g
           id="g87">
          <g
             transform="translate(302.25553,57.066671)"
             id="g86">
            <path
               transform="scale(0.017,-0.017)"
               d="m 460,320 c 0,80 -5,160 -40,234 C 374,650 292,666 250,666 190,666 117,640 76,547 44,478 39,400 39,320 39,245 43,155 84,79 127,-2 200,-22 249,-22 c 54,0 130,21 174,116 32,69 37,147 37,226 z m -83,12 C 377,257 377,189 366,125 351,30 294,0 249,0 210,0 151,25 133,121 c -11,60 -11,152 -11,211 0,64 0,130 8,184 19,119 94,128 119,128 33,0 99,-18 118,-117 10,-56 10,-132 10,-195 z"
               stroke="#000000"
               stroke-opacity="1"
               stroke-width="8"
               fill="#000000"
               fill-opacity="1"
               id="path85" />
          </g>
        </g>
      </g>
    </g>
    <g
       id="g93">
      <g
         id="g92">
        <g
           id="g91">
          <g
             transform="translate(301.66667,86.222209)"
             id="g90">
            <path
               transform="scale(0.017,-0.017)"
               d="m 460,320 c 0,80 -5,160 -40,234 C 374,650 292,666 250,666 190,666 117,640 76,547 44,478 39,400 39,320 39,245 43,155 84,79 127,-2 200,-22 249,-22 c 54,0 130,21 174,116 32,69 37,147 37,226 z m -83,12 C 377,257 377,189 366,125 351,30 294,0 249,0 210,0 151,25 133,121 c -11,60 -11,152 -11,211 0,64 0,130 8,184 19,119 94,128 119,128 33,0 99,-18 118,-117 10,-56 10,-132 10,-195 z"
               stroke="#000000"
               stroke-opacity="1"
               stroke-width="8"
               fill="#000000"
               fill-opacity="1"
               id="path89" />
          </g>
        </g>
      </g>
    </g>
    <g
       id="g97">
      <g
         id="g96">
        <g
           id="g95">
          <g
             transform="translate(301.38888,114.5)"
             id="g94">
            <path
               transform="scale(0.017,-0.017)"
               d="m 419,0 v 31 h -32 c -90,0 -93,11 -93,48 v 561 c 0,24 0,26 -23,26 C 209,602 121,602 89,602 v -31 c 20,0 79,0 131,26 V 79 C 220,43 217,31 127,31 H 95 V 0 c 35,3 122,3 162,3 40,0 127,0 162,-3 z"
               stroke="#000000"
               stroke-opacity="1"
               stroke-width="8"
               fill="#000000"
               fill-opacity="1"
               id="path93" />
          </g>
        </g>
      </g>
    </g>
    <g
       id="g101">
      <g
         id="g100">
        <g
           id="g99">
          <g
             transform="translate(301.95557,143.63334)"
             id="g98">
            <path
               transform="scale(0.017,-0.017)"
               d="m 419,0 v 31 h -32 c -90,0 -93,11 -93,48 v 561 c 0,24 0,26 -23,26 C 209,602 121,602 89,602 v -31 c 20,0 79,0 131,26 V 79 C 220,43 217,31 127,31 H 95 V 0 c 35,3 122,3 162,3 40,0 127,0 162,-3 z"
               stroke="#000000"
               stroke-opacity="1"
               stroke-width="8"
               fill="#000000"
               fill-opacity="1"
               id="path97" />
          </g>
        </g>
      </g>
    </g>
    <g
       id="g119">
      <g
         id="g118">
        <g
           id="g103">
          <g
             transform="translate(326.25553,84.7889)"
             id="g102">
            <path
               transform="scale(0.017,-0.017)"
               d="m 490,404 c 0,18 -14,27 -29,27 -10,0 -26,-6 -35,-21 -2,-5 -10,-36 -14,-54 L 392,276 347,96 C 343,81 300,11 234,11 c -51,0 -62,44 -62,81 0,46 17,108 51,196 16,41 20,52 20,72 0,45 -32,82 -82,82 C 66,442 29,297 29,288 c 0,-10 12,-10 12,-10 10,0 11,2 16,18 27,94 67,124 101,124 8,0 25,0 25,-32 0,-25 -10,-51 -17,-70 -40,-106 -58,-163 -58,-210 0,-89 63,-119 122,-119 39,0 73,17 101,45 -13,-52 -25,-101 -65,-154 -26,-34 -64,-63 -110,-63 -14,0 -59,3 -76,42 16,0 29,0 43,12 10,9 20,22 20,41 0,31 -27,35 -37,35 -23,0 -56,-16 -56,-65 0,-50 44,-87 106,-87 103,0 206,91 234,204 l 96,382 c 4,14 4,16 4,23 z"
               stroke="#000000"
               stroke-opacity="1"
               stroke-width="8"
               fill="#000000"
               fill-opacity="1"
               id="path101" />
          </g>
        </g>
        <g
           id="g108">
          <g
             id="g107">
            <g
               id="g106">
              <g
                 id="g105">
                <g
                   transform="translate(335.10002,87.833329)"
                   id="g104">
                  <path
                     transform="scale(0.0119,-0.0119)"
                     d="m 419,0 v 31 h -32 c -90,0 -93,11 -93,48 v 561 c 0,24 0,26 -23,26 C 209,602 121,602 89,602 v -31 c 20,0 79,0 131,26 V 79 C 220,43 217,31 127,31 H 95 V 0 c 35,3 122,3 162,3 40,0 127,0 162,-3 z"
                     stroke="#000000"
                     stroke-opacity="1"
                     stroke-width="8"
                     fill="#000000"
                     fill-opacity="1"
                     id="path103" />
                </g>
              </g>
            </g>
          </g>
        </g>
        <g
           id="g110">
          <g
             transform="translate(342.06665,84.7889)"
             id="g109">
            <path
               transform="scale(0.017,-0.017)"
               d="m 203,1 c 0,66 -25,105 -64,105 -33,0 -53,-25 -53,-53 0,-27 20,-53 53,-53 12,0 25,4 35,13 3,2 5,3 5,3 0,0 2,-1 2,-15 0,-74 -35,-134 -68,-167 -11,-11 -11,-13 -11,-16 0,-7 5,-11 10,-11 11,0 91,77 91,194 z"
               stroke="#000000"
               stroke-opacity="1"
               stroke-width="8"
               fill="#000000"
               fill-opacity="1"
               id="path108" />
          </g>
        </g>
        <g
           id="g112">
          <g
             transform="translate(350.19999,84.7889)"
             id="g111">
            <path
               transform="scale(0.017,-0.017)"
               d="m 490,404 c 0,18 -14,27 -29,27 -10,0 -26,-6 -35,-21 -2,-5 -10,-36 -14,-54 L 392,276 347,96 C 343,81 300,11 234,11 c -51,0 -62,44 -62,81 0,46 17,108 51,196 16,41 20,52 20,72 0,45 -32,82 -82,82 C 66,442 29,297 29,288 c 0,-10 12,-10 12,-10 10,0 11,2 16,18 27,94 67,124 101,124 8,0 25,0 25,-32 0,-25 -10,-51 -17,-70 -40,-106 -58,-163 -58,-210 0,-89 63,-119 122,-119 39,0 73,17 101,45 -13,-52 -25,-101 -65,-154 -26,-34 -64,-63 -110,-63 -14,0 -59,3 -76,42 16,0 29,0 43,12 10,9 20,22 20,41 0,31 -27,35 -37,35 -23,0 -56,-16 -56,-65 0,-50 44,-87 106,-87 103,0 206,91 234,204 l 96,382 c 4,14 4,16 4,23 z"
               stroke="#000000"
               stroke-opacity="1"
               stroke-width="8"
               fill="#000000"
               fill-opacity="1"
               id="path110" />
          </g>
        </g>
        <g
           id="g117">
          <g
             id="g116">
            <g
               id="g115">
              <g
                 id="g114">
                <g
                   transform="translate(359.04443,87.833329)"
                   id="g113">
                  <path
                     transform="scale(0.0119,-0.0119)"
                     d="m 449,174 h -25 c -5,-30 -12,-74 -22,-89 -7,-8 -73,-8 -95,-8 H 127 L 233,180 C 389,318 449,372 449,472 449,586 359,666 237,666 124,666 50,574 50,485 c 0,-56 50,-56 53,-56 17,0 52,12 52,53 0,26 -18,52 -53,52 -8,0 -10,0 -13,-1 23,65 77,102 135,102 91,0 134,-81 134,-163 0,-80 -50,-159 -105,-221 L 61,37 C 50,26 50,24 50,0 h 371 z"
                     stroke="#000000"
                     stroke-opacity="1"
                     stroke-width="8"
                     fill="#000000"
                     fill-opacity="1"
                     id="path112" />
                </g>
              </g>
            </g>
          </g>
        </g>
      </g>
    </g>
    <g
       id="g128">
      <g
         id="g127">
        <g
           id="g121">
          <g
             transform="translate(335.95557,55.633341)"
             id="g120">
            <path
               transform="scale(0.017,-0.017)"
               d="m 527,376 c 0,52 -59,66 -93,66 -58,0 -93,-53 -105,-76 -25,66 -79,76 -108,76 C 117,442 60,313 60,288 c 0,-10 12,-10 12,-10 8,0 11,2 13,11 34,106 100,131 134,131 19,0 54,-9 54,-67 0,-31 -17,-98 -54,-238 C 203,53 168,11 124,11 c -6,0 -29,0 -50,13 25,5 47,26 47,54 0,27 -22,35 -37,35 -30,0 -55,-26 -55,-58 0,-46 50,-66 94,-66 66,0 102,70 105,76 12,-37 48,-76 108,-76 103,0 160,129 160,154 0,10 -9,10 -12,10 -9,0 -11,-4 -13,-11 C 438,35 370,11 338,11 c -39,0 -55,32 -55,66 0,22 6,44 17,88 l 34,137 c 6,26 29,118 99,118 5,0 29,0 50,-13 -28,-5 -48,-30 -48,-54 0,-16 11,-35 38,-35 22,0 54,18 54,58 z"
               stroke="#000000"
               stroke-opacity="1"
               stroke-width="8"
               fill="#000000"
               fill-opacity="1"
               id="path119" />
          </g>
        </g>
        <g
           id="g126">
          <g
             id="g125">
            <g
               id="g124">
              <g
                 id="g123">
                <g
                   transform="translate(346.18888,58.6889)"
                   id="g122">
                  <path
                     transform="scale(0.0119,-0.0119)"
                     d="m 449,174 h -25 c -5,-30 -12,-74 -22,-89 -7,-8 -73,-8 -95,-8 H 127 L 233,180 C 389,318 449,372 449,472 449,586 359,666 237,666 124,666 50,574 50,485 c 0,-56 50,-56 53,-56 17,0 52,12 52,53 0,26 -18,52 -53,52 -8,0 -10,0 -13,-1 23,65 77,102 135,102 91,0 134,-81 134,-163 0,-80 -50,-159 -105,-221 L 61,37 C 50,26 50,24 50,0 h 371 z"
                     stroke="#000000"
                     stroke-opacity="1"
                     stroke-width="8"
                     fill="#000000"
                     fill-opacity="1"
                     id="path121" />
                </g>
              </g>
            </g>
          </g>
        </g>
      </g>
    </g>
    <g
       id="g133">
      <g
         id="g132">
        <g
           id="g131">
          <g
             id="g130">
            <g
               transform="translate(269.33333,25.933329)"
               id="g129">
              <path
                 transform="scale(0.017,-0.017)"
                 d="m 943,250 c 0,6 -4,11 -9,13 -57,19 -101,59 -137,104 -28,36 -49,80 -58,127 -2,9 -10,16 -20,16 -11,0 -20,-9 -20,-20 0,-1 1,-3 1,-4 10,-53 33,-102 66,-144 22,-28 48,-52 78,-72 H 78 c -11,0 -20,-9 -20,-20 0,-11 9,-20 20,-20 H 844 C 814,210 788,186 766,158 733,116 710,67 700,14 c 0,-1 -1,-3 -1,-4 0,-11 9,-20 20,-20 10,0 18,7 20,16 9,47 30,91 58,127 36,45 80,85 137,104 5,2 9,7 9,13 z"
                 stroke="#000000"
                 stroke-opacity="1"
                 stroke-width="8"
                 fill="#000000"
                 fill-opacity="1"
                 id="path128" />
            </g>
          </g>
        </g>
      </g>
    </g>
    <g
       id="g142">
      <g
         id="g141">
        <g
           id="g135">
          <g
             transform="translate(336.82222,142.7889)"
             id="g134">
            <path
               transform="scale(0.017,-0.017)"
               d="m 490,404 c 0,18 -14,27 -29,27 -10,0 -26,-6 -35,-21 -2,-5 -10,-36 -14,-54 L 392,276 347,96 C 343,81 300,11 234,11 c -51,0 -62,44 -62,81 0,46 17,108 51,196 16,41 20,52 20,72 0,45 -32,82 -82,82 C 66,442 29,297 29,288 c 0,-10 12,-10 12,-10 10,0 11,2 16,18 27,94 67,124 101,124 8,0 25,0 25,-32 0,-25 -10,-51 -17,-70 -40,-106 -58,-163 -58,-210 0,-89 63,-119 122,-119 39,0 73,17 101,45 -13,-52 -25,-101 -65,-154 -26,-34 -64,-63 -110,-63 -14,0 -59,3 -76,42 16,0 29,0 43,12 10,9 20,22 20,41 0,31 -27,35 -37,35 -23,0 -56,-16 -56,-65 0,-50 44,-87 106,-87 103,0 206,91 234,204 l 96,382 c 4,14 4,16 4,23 z"
               stroke="#000000"
               stroke-opacity="1"
               stroke-width="8"
               fill="#000000"
               fill-opacity="1"
               id="path133" />
          </g>
        </g>
        <g
           id="g140">
          <g
             id="g139">
            <g
               id="g138">
              <g
                 id="g137">
                <g
                   transform="translate(345.66667,145.83335)"
                   id="g136">
                  <path
                     transform="scale(0.0119,-0.0119)"
                     d="m 419,0 v 31 h -32 c -90,0 -93,11 -93,48 v 561 c 0,24 0,26 -23,26 C 209,602 121,602 89,602 v -31 c 20,0 79,0 131,26 V 79 C 220,43 217,31 127,31 H 95 V 0 c 35,3 122,3 162,3 40,0 127,0 162,-3 z"
                     stroke="#000000"
                     stroke-opacity="1"
                     stroke-width="8"
                     fill="#000000"
                     fill-opacity="1"
                     id="path135" />
                </g>
              </g>
            </g>
          </g>
        </g>
      </g>
    </g>
    <g
       id="g151">
      <g
         id="g150">
        <g
           id="g144">
          <g
             transform="translate(381.66667,84.7889)"
             id="g143">
            <path
               transform="scale(0.017,-0.017)"
               d="m 527,376 c 0,52 -59,66 -93,66 -58,0 -93,-53 -105,-76 -25,66 -79,76 -108,76 C 117,442 60,313 60,288 c 0,-10 12,-10 12,-10 8,0 11,2 13,11 34,106 100,131 134,131 19,0 54,-9 54,-67 0,-31 -17,-98 -54,-238 C 203,53 168,11 124,11 c -6,0 -29,0 -50,13 25,5 47,26 47,54 0,27 -22,35 -37,35 -30,0 -55,-26 -55,-58 0,-46 50,-66 94,-66 66,0 102,70 105,76 12,-37 48,-76 108,-76 103,0 160,129 160,154 0,10 -9,10 -12,10 -9,0 -11,-4 -13,-11 C 438,35 370,11 338,11 c -39,0 -55,32 -55,66 0,22 6,44 17,88 l 34,137 c 6,26 29,118 99,118 5,0 29,0 50,-13 -28,-5 -48,-30 -48,-54 0,-16 11,-35 38,-35 22,0 54,18 54,58 z"
               stroke="#000000"
               stroke-opacity="1"
               stroke-width="8"
               fill="#000000"
               fill-opacity="1"
               id="path142" />
          </g>
        </g>
        <g
           id="g149">
          <g
             id="g148">
            <g
               id="g147">
              <g
                 id="g146">
                <g
                   transform="translate(391.89998,87.833329)"
                   id="g145">
                  <path
                     transform="scale(0.0119,-0.0119)"
                     d="m 449,174 h -25 c -5,-30 -12,-74 -22,-89 -7,-8 -73,-8 -95,-8 H 127 L 233,180 C 389,318 449,372 449,472 449,586 359,666 237,666 124,666 50,574 50,485 c 0,-56 50,-56 53,-56 17,0 52,12 52,53 0,26 -18,52 -53,52 -8,0 -10,0 -13,-1 23,65 77,102 135,102 91,0 134,-81 134,-163 0,-80 -50,-159 -105,-221 L 61,37 C 50,26 50,24 50,0 h 371 z"
                     stroke="#000000"
                     stroke-opacity="1"
                     stroke-width="8"
                     fill="#000000"
                     fill-opacity="1"
                     id="path144" />
                </g>
              </g>
            </g>
          </g>
        </g>
      </g>
    </g>
    <g
       id="g160">
      <g
         id="g159">
        <g
           id="g153">
          <g
             transform="translate(413.66667,55.633341)"
             id="g152">
            <path
               transform="scale(0.017,-0.017)"
               d="m 527,376 c 0,52 -59,66 -93,66 -58,0 -93,-53 -105,-76 -25,66 -79,76 -108,76 C 117,442 60,313 60,288 c 0,-10 12,-10 12,-10 8,0 11,2 13,11 34,106 100,131 134,131 19,0 54,-9 54,-67 0,-31 -17,-98 -54,-238 C 203,53 168,11 124,11 c -6,0 -29,0 -50,13 25,5 47,26 47,54 0,27 -22,35 -37,35 -30,0 -55,-26 -55,-58 0,-46 50,-66 94,-66 66,0 102,70 105,76 12,-37 48,-76 108,-76 103,0 160,129 160,154 0,10 -9,10 -12,10 -9,0 -11,-4 -13,-11 C 438,35 370,11 338,11 c -39,0 -55,32 -55,66 0,22 6,44 17,88 l 34,137 c 6,26 29,118 99,118 5,0 29,0 50,-13 -28,-5 -48,-30 -48,-54 0,-16 11,-35 38,-35 22,0 54,18 54,58 z"
               stroke="#000000"
               stroke-opacity="1"
               stroke-width="8"
               fill="#000000"
               fill-opacity="1"
               id="path151" />
          </g>
        </g>
        <g
           id="g158">
          <g
             id="g157">
            <g
               id="g156">
              <g
                 id="g155">
                <g
                   transform="translate(423.89998,58.6889)"
                   id="g154">
                  <path
                     transform="scale(0.0119,-0.0119)"
                     d="m 449,174 h -25 c -5,-30 -12,-74 -22,-89 -7,-8 -73,-8 -95,-8 H 127 L 233,180 C 389,318 449,372 449,472 449,586 359,666 237,666 124,666 50,574 50,485 c 0,-56 50,-56 53,-56 17,0 52,12 52,53 0,26 -18,52 -53,52 -8,0 -10,0 -13,-1 23,65 77,102 135,102 91,0 134,-81 134,-163 0,-80 -50,-159 -105,-221 L 61,37 C 50,26 50,24 50,0 h 371 z"
                     stroke="#000000"
                     stroke-opacity="1"
                     stroke-width="8"
                     fill="#000000"
                     fill-opacity="1"
                     id="path153" />
                </g>
              </g>
            </g>
          </g>
        </g>
      </g>
    </g>
    <g
       id="g169">
      <g
         id="g168">
        <g
           id="g162">
          <g
             transform="translate(381.37777,143.2111)"
             id="g161">
            <path
               transform="scale(0.017,-0.017)"
               d="m 490,404 c 0,18 -14,27 -29,27 -10,0 -26,-6 -35,-21 -2,-5 -10,-36 -14,-54 L 392,276 347,96 C 343,81 300,11 234,11 c -51,0 -62,44 -62,81 0,46 17,108 51,196 16,41 20,52 20,72 0,45 -32,82 -82,82 C 66,442 29,297 29,288 c 0,-10 12,-10 12,-10 10,0 11,2 16,18 27,94 67,124 101,124 8,0 25,0 25,-32 0,-25 -10,-51 -17,-70 -40,-106 -58,-163 -58,-210 0,-89 63,-119 122,-119 39,0 73,17 101,45 -13,-52 -25,-101 -65,-154 -26,-34 -64,-63 -110,-63 -14,0 -59,3 -76,42 16,0 29,0 43,12 10,9 20,22 20,41 0,31 -27,35 -37,35 -23,0 -56,-16 -56,-65 0,-50 44,-87 106,-87 103,0 206,91 234,204 l 96,382 c 4,14 4,16 4,23 z"
               stroke="#000000"
               stroke-opacity="1"
               stroke-width="8"
               fill="#000000"
               fill-opacity="1"
               id="path160" />
          </g>
        </g>
        <g
           id="g167">
          <g
             id="g166">
            <g
               id="g165">
              <g
                 id="g164">
                <g
                   transform="translate(390.23332,146.26666)"
                   id="g163">
                  <path
                     transform="scale(0.0119,-0.0119)"
                     d="m 449,174 h -25 c -5,-30 -12,-74 -22,-89 -7,-8 -73,-8 -95,-8 H 127 L 233,180 C 389,318 449,372 449,472 449,586 359,666 237,666 124,666 50,574 50,485 c 0,-56 50,-56 53,-56 17,0 52,12 52,53 0,26 -18,52 -53,52 -8,0 -10,0 -13,-1 23,65 77,102 135,102 91,0 134,-81 134,-163 0,-80 -50,-159 -105,-221 L 61,37 C 50,26 50,24 50,0 h 371 z"
                     stroke="#000000"
                     stroke-opacity="1"
                     stroke-width="8"
                     fill="#000000"
                     fill-opacity="1"
                     id="path162" />
                </g>
              </g>
            </g>
          </g>
        </g>
      </g>
    </g>
    <g
       id="g178">
      <g
         id="g177">
        <g
           id="g171">
          <g
             transform="translate(413.66667,114.06667)"
             id="g170">
            <path
               transform="scale(0.017,-0.017)"
               d="m 490,404 c 0,18 -14,27 -29,27 -10,0 -26,-6 -35,-21 -2,-5 -10,-36 -14,-54 L 392,276 347,96 C 343,81 300,11 234,11 c -51,0 -62,44 -62,81 0,46 17,108 51,196 16,41 20,52 20,72 0,45 -32,82 -82,82 C 66,442 29,297 29,288 c 0,-10 12,-10 12,-10 10,0 11,2 16,18 27,94 67,124 101,124 8,0 25,0 25,-32 0,-25 -10,-51 -17,-70 -40,-106 -58,-163 -58,-210 0,-89 63,-119 122,-119 39,0 73,17 101,45 -13,-52 -25,-101 -65,-154 -26,-34 -64,-63 -110,-63 -14,0 -59,3 -76,42 16,0 29,0 43,12 10,9 20,22 20,41 0,31 -27,35 -37,35 -23,0 -56,-16 -56,-65 0,-50 44,-87 106,-87 103,0 206,91 234,204 l 96,382 c 4,14 4,16 4,23 z"
               stroke="#000000"
               stroke-opacity="1"
               stroke-width="8"
               fill="#000000"
               fill-opacity="1"
               id="path169" />
          </g>
        </g>
        <g
           id="g176">
          <g
             id="g175">
            <g
               id="g174">
              <g
                 id="g173">
                <g
                   transform="translate(422.52222,117.12221)"
                   id="g172">
                  <path
                     transform="scale(0.0119,-0.0119)"
                     d="m 449,174 h -25 c -5,-30 -12,-74 -22,-89 -7,-8 -73,-8 -95,-8 H 127 L 233,180 C 389,318 449,372 449,472 449,586 359,666 237,666 124,666 50,574 50,485 c 0,-56 50,-56 53,-56 17,0 52,12 52,53 0,26 -18,52 -53,52 -8,0 -10,0 -13,-1 23,65 77,102 135,102 91,0 134,-81 134,-163 0,-80 -50,-159 -105,-221 L 61,37 C 50,26 50,24 50,0 h 371 z"
                     stroke="#000000"
                     stroke-opacity="1"
                     stroke-width="8"
                     fill="#000000"
                     fill-opacity="1"
                     id="path171" />
                </g>
              </g>
            </g>
          </g>
        </g>
      </g>
    </g>
    <g
       id="g196">
      <g
         id="g195">
        <g
           id="g180">
          <g
             transform="translate(327.10002,114.22221)"
             id="g179">
            <path
               transform="scale(0.017,-0.017)"
               d="m 527,376 c 0,52 -59,66 -93,66 -58,0 -93,-53 -105,-76 -25,66 -79,76 -108,76 C 117,442 60,313 60,288 c 0,-10 12,-10 12,-10 8,0 11,2 13,11 34,106 100,131 134,131 19,0 54,-9 54,-67 0,-31 -17,-98 -54,-238 C 203,53 168,11 124,11 c -6,0 -29,0 -50,13 25,5 47,26 47,54 0,27 -22,35 -37,35 -30,0 -55,-26 -55,-58 0,-46 50,-66 94,-66 66,0 102,70 105,76 12,-37 48,-76 108,-76 103,0 160,129 160,154 0,10 -9,10 -12,10 -9,0 -11,-4 -13,-11 C 438,35 370,11 338,11 c -39,0 -55,32 -55,66 0,22 6,44 17,88 l 34,137 c 6,26 29,118 99,118 5,0 29,0 50,-13 -28,-5 -48,-30 -48,-54 0,-16 11,-35 38,-35 22,0 54,18 54,58 z"
               stroke="#000000"
               stroke-opacity="1"
               stroke-width="8"
               fill="#000000"
               fill-opacity="1"
               id="path178" />
          </g>
        </g>
        <g
           id="g185">
          <g
             id="g184">
            <g
               id="g183">
              <g
                 id="g182">
                <g
                   transform="translate(337.33333,117.26666)"
                   id="g181">
                  <path
                     transform="scale(0.0119,-0.0119)"
                     d="m 419,0 v 31 h -32 c -90,0 -93,11 -93,48 v 561 c 0,24 0,26 -23,26 C 209,602 121,602 89,602 v -31 c 20,0 79,0 131,26 V 79 C 220,43 217,31 127,31 H 95 V 0 c 35,3 122,3 162,3 40,0 127,0 162,-3 z"
                     stroke="#000000"
                     stroke-opacity="1"
                     stroke-width="8"
                     fill="#000000"
                     fill-opacity="1"
                     id="path180" />
                </g>
              </g>
            </g>
          </g>
        </g>
        <g
           id="g187">
          <g
             transform="translate(344.30001,114.22221)"
             id="g186">
            <path
               transform="scale(0.017,-0.017)"
               d="m 203,1 c 0,66 -25,105 -64,105 -33,0 -53,-25 -53,-53 0,-27 20,-53 53,-53 12,0 25,4 35,13 3,2 5,3 5,3 0,0 2,-1 2,-15 0,-74 -35,-134 -68,-167 -11,-11 -11,-13 -11,-16 0,-7 5,-11 10,-11 11,0 91,77 91,194 z"
               stroke="#000000"
               stroke-opacity="1"
               stroke-width="8"
               fill="#000000"
               fill-opacity="1"
               id="path185" />
          </g>
        </g>
        <g
           id="g189">
          <g
             transform="translate(352.43335,114.22221)"
             id="g188">
            <path
               transform="scale(0.017,-0.017)"
               d="m 527,376 c 0,52 -59,66 -93,66 -58,0 -93,-53 -105,-76 -25,66 -79,76 -108,76 C 117,442 60,313 60,288 c 0,-10 12,-10 12,-10 8,0 11,2 13,11 34,106 100,131 134,131 19,0 54,-9 54,-67 0,-31 -17,-98 -54,-238 C 203,53 168,11 124,11 c -6,0 -29,0 -50,13 25,5 47,26 47,54 0,27 -22,35 -37,35 -30,0 -55,-26 -55,-58 0,-46 50,-66 94,-66 66,0 102,70 105,76 12,-37 48,-76 108,-76 103,0 160,129 160,154 0,10 -9,10 -12,10 -9,0 -11,-4 -13,-11 C 438,35 370,11 338,11 c -39,0 -55,32 -55,66 0,22 6,44 17,88 l 34,137 c 6,26 29,118 99,118 5,0 29,0 50,-13 -28,-5 -48,-30 -48,-54 0,-16 11,-35 38,-35 22,0 54,18 54,58 z"
               stroke="#000000"
               stroke-opacity="1"
               stroke-width="8"
               fill="#000000"
               fill-opacity="1"
               id="path187" />
          </g>
        </g>
        <g
           id="g194">
          <g
             id="g193">
            <g
               id="g192">
              <g
                 id="g191">
                <g
                   transform="translate(362.66667,117.26666)"
                   id="g190">
                  <path
                     transform="scale(0.0119,-0.0119)"
                     d="m 449,174 h -25 c -5,-30 -12,-74 -22,-89 -7,-8 -73,-8 -95,-8 H 127 L 233,180 C 389,318 449,372 449,472 449,586 359,666 237,666 124,666 50,574 50,485 c 0,-56 50,-56 53,-56 17,0 52,12 52,53 0,26 -18,52 -53,52 -8,0 -10,0 -13,-1 23,65 77,102 135,102 91,0 134,-81 134,-163 0,-80 -50,-159 -105,-221 L 61,37 C 50,26 50,24 50,0 h 371 z"
                     stroke="#000000"
                     stroke-opacity="1"
                     stroke-width="8"
                     fill="#000000"
                     fill-opacity="1"
                     id="path189" />
                </g>
              </g>
            </g>
          </g>
        </g>
      </g>
    </g>
  </svg>
</svg>
