<?xml version="1.0" encoding="UTF-8" standalone="no"?>
<svg
   x="0"
   y="0"
   width="176.00002"
   height="146"
   style="fill:none"
   version="1.1"
   id="svg197"
   xmlns="http://www.w3.org/2000/svg"
   xmlns:svg="http://www.w3.org/2000/svg">
  <defs
     id="defs197" />
  <path
     class="connection real"
     stroke-dasharray="none"
     d="M 0.5000001,0.50000003 V 145.5"
     style="fill:none;fill-opacity:1;stroke:#000000;stroke-width:1px"
     id="path1" />
  <path
     class="connection real"
     stroke-dasharray="none"
     d="M 0.5000001,0.50000003 H 175.5"
     style="fill:none;fill-opacity:1;stroke:#000000;stroke-width:1px"
     id="path2" />
  <path
     class="connection real"
     stroke-dasharray="none"
     d="M 175.5,145.5 H 0.5000001"
     style="fill:none;fill-opacity:1;stroke:#000000;stroke-width:1px"
     id="path3" />
  <path
     class="connection real"
     stroke-dasharray="none"
     d="M 175.5,0.50000003 V 145.5"
     style="fill:none;fill-opacity:1;stroke:#000000;stroke-width:1px"
     id="path4" />
  <path
     class="connection real"
     stroke-dasharray="none"
     d="M 30.5,0.59000003 V 145.59"
     style="fill:none;fill-opacity:1;stroke:#000000;stroke-width:1px"
     id="path5" />
  <path
     class="connection real"
     stroke-dasharray="none"
     d="M 56.5,0.59000003 V 145.59"
     style="fill:none;fill-opacity:1;stroke:#000000;stroke-width:1px"
     id="path6" />
  <path
     class="connection real"
     stroke-dasharray="none"
     d="M 110.5,0.59000003 V 145.59"
     style="fill:none;fill-opacity:1;stroke:#000000;stroke-width:1px"
     id="path7" />
  <path
     class="connection real"
     stroke-dasharray="none"
     d="M 0.5000001,30.5 H 175.5"
     style="fill:none;fill-opacity:1;stroke:#000000;stroke-width:1px"
     id="path8" />
  <path
     class="connection real"
     stroke-dasharray="none"
     d="M 0.5000001,57.5 H 175.5"
     style="fill:none;fill-opacity:1;stroke:#000000;stroke-width:1px"
     id="path9" />
  <path
     class="connection real"
     stroke-dasharray="none"
     d="M 0.5000001,87.5 H 175.5"
     style="fill:none;fill-opacity:1;stroke:#000000;stroke-width:1px"
     id="path10" />
  <path
     class="connection real"
     stroke-dasharray="none"
     d="M 0.5000001,117.5 H 175.5"
     style="fill:none;fill-opacity:1;stroke:#000000;stroke-width:1px"
     id="path11" />
  <path
     class="connection real"
     stroke-dasharray="none"
     d="M 143.5,0.59000003 V 145.59"
     style="fill:none;fill-opacity:1;stroke:#000000;stroke-width:1px"
     id="path12" />
  <path
     d="m 48.71602,9.702333 c 0.051,-0.459 -0.034,-0.459 -0.459,-0.459 h -8.33 c -0.34,0 -0.51,0 -0.51,0.34 0,0.187 0.153,0.187 0.476,0.187 0.629,0 1.105,0 1.105,0.306 0,0.068 0,0.102 -0.085,0.408 l -2.244,8.993 c -0.17,0.663 -0.204,0.799 -1.547,0.799 -0.289,0 -0.476,0 -0.476,0.323 0,0.204 0.204,0.204 0.255,0.204 l 2.244,-0.051 2.533,0.051 c 0.153,0 0.357,0 0.357,-0.323 0,-0.136 -0.102,-0.187 -0.102,-0.187 -0.051,-0.017 -0.085,-0.017 -0.476,-0.017 -0.374,0 -0.459,0 -0.884,-0.034 -0.493,-0.051 -0.544,-0.119 -0.544,-0.34 0,0 0,-0.136 0.068,-0.391 l 1.054,-4.233 h 1.649 c 1.275,0 1.411,0.272 1.411,0.765 0,0.119 0,0.323 -0.119,0.833 -0.034,0.085 -0.051,0.187 -0.051,0.187 0,0.136 0.102,0.204 0.204,0.204 0.17,0 0.17,-0.051 0.255,-0.357 l 0.935,-3.689 c 0.051,-0.187 0.051,-0.221 0.051,-0.272 0,0 -0.034,-0.187 -0.204,-0.187 -0.17,0 -0.187,0.085 -0.255,0.357 -0.357,1.326 -0.748,1.632 -2.193,1.632 h -1.547 l 1.088,-4.318 c 0.153,-0.595 0.17,-0.663 0.918,-0.663 h 2.244 c 2.091,0 2.482,0.561 2.482,1.87 0,0.391 0,0.459 -0.051,0.918 -0.034,0.221 -0.034,0.255 -0.034,0.306 0,0.085 0.051,0.204 0.204,0.204 0.187,0 0.204,-0.102 0.238,-0.425 z"
     stroke="#000000"
     stroke-opacity="1"
     stroke-width="0.136"
     fill="#000000"
     fill-opacity="1"
     id="path18"
     style="font-family:LatinModern-Math, LatinModern, Asana-Math, Asana" />
  <path
     d="m 83.03267,19.172341 c 0,-0.17 -0.153,-0.17 -0.204,-0.17 -0.17,0 -0.187,0.068 -0.238,0.306 -0.289,1.105 -0.595,2.108 -1.292,2.108 -0.459,0 -0.51,-0.442 -0.51,-0.782 0,-0.374 0.034,-0.51 0.221,-1.258 l 0.374,-1.53 0.612,-2.38 c 0.119,-0.476 0.119,-0.51 0.119,-0.578 0,-0.289 -0.204,-0.459 -0.493,-0.459 -0.408,0 -0.663,0.374 -0.714,0.748 -0.306,-0.629 -0.799,-1.088 -1.564,-1.088 -1.989,0 -4.097,2.499 -4.097,4.981 0,1.598 0.935,2.72 2.261,2.72 0.34,0 1.19,-0.068 2.21,-1.275 0.136,0.714 0.731,1.275 1.547,1.275 0.595,0 0.986,-0.391 1.258,-0.935 0.289,-0.612 0.51,-1.683 0.51,-1.683 z m -2.329,-3.213 c 0,0.102 -0.034,0.204 -0.051,0.289 l -0.85,3.332 c -0.085,0.306 -0.085,0.34 -0.34,0.629 -0.748,0.935 -1.445,1.207 -1.921,1.207 -0.85,0 -1.088,-0.935 -1.088,-1.598 0,-0.85 0.544,-2.941 0.935,-3.723 0.527,-1.003 1.292,-1.632 1.972,-1.632 1.105,0 1.343,1.394 1.343,1.496 z"
     stroke="#000000"
     stroke-opacity="1"
     stroke-width="0.136"
     fill="#000000"
     fill-opacity="1"
     id="path22"
     style="font-family:LatinModern-Math, LatinModern, Asana-Math, Asana" />
  <path
     d="M 89.06388,24.6589 V 24.29 h -0.3808 c -1.071,0 -1.1067,-0.1309 -1.1067,-0.5712 v -6.6759 c 0,-0.2856 0,-0.3094 -0.2737,-0.3094 -0.7378,0.7616 -1.785,0.7616 -2.1658,0.7616 v 0.3689 c 0.238,0 0.9401,0 1.5589,-0.3094 v 6.1642 c 0,0.4284 -0.0357,0.5712 -1.1067,0.5712 h -0.3808 v 0.3689 c 0.4165,-0.0357 1.4518,-0.0357 1.9278,-0.0357 0.476,0 1.5113,0 1.9278,0.0357 z"
     stroke="#000000"
     stroke-opacity="1"
     stroke-width="0.0952"
     fill="#000000"
     fill-opacity="1"
     id="path24"
     style="font-family:LatinModern-Math, LatinModern, Asana-Math, Asana" />
  <path
     d="m 127.74377,19.172341 c 0,-0.17 -0.153,-0.17 -0.204,-0.17 -0.17,0 -0.187,0.068 -0.238,0.306 -0.289,1.105 -0.595,2.108 -1.292,2.108 -0.459,0 -0.51,-0.442 -0.51,-0.782 0,-0.374 0.034,-0.51 0.221,-1.258 l 0.374,-1.53 0.612,-2.38 c 0.119,-0.476 0.119,-0.51 0.119,-0.578 0,-0.289 -0.204,-0.459 -0.493,-0.459 -0.408,0 -0.663,0.374 -0.714,0.748 -0.306,-0.629 -0.799,-1.088 -1.564,-1.088 -1.989,0 -4.097,2.499 -4.097,4.981 0,1.598 0.935,2.72 2.261,2.72 0.34,0 1.19,-0.068 2.21,-1.275 0.136,0.714 0.731,1.275 1.547,1.275 0.595,0 0.986,-0.391 1.258,-0.935 0.289,-0.612 0.51,-1.683 0.51,-1.683 z m -2.329,-3.213 c 0,0.102 -0.034,0.204 -0.051,0.289 l -0.85,3.332 c -0.085,0.306 -0.085,0.34 -0.34,0.629 -0.748,0.935 -1.445,1.207 -1.921,1.207 -0.85,0 -1.088,-0.935 -1.088,-1.598 0,-0.85 0.544,-2.941 0.935,-3.723 0.527,-1.003 1.292,-1.632 1.972,-1.632 1.105,0 1.343,1.394 1.343,1.496 z"
     stroke="#000000"
     stroke-opacity="1"
     stroke-width="0.136"
     fill="#000000"
     fill-opacity="1"
     id="path31"
     style="font-family:LatinModern-Math, LatinModern, Asana-Math, Asana" />
  <path
     d="m 134.14308,22.5883 h -0.2975 c -0.0595,0.357 -0.1428,0.8806 -0.2618,1.0591 -0.0833,0.0952 -0.8687,0.0952 -1.1305,0.0952 h -2.142 l 1.2614,-1.2257 c 1.8564,-1.6422 2.5704,-2.2848 2.5704,-3.4748 0,-1.3566 -1.071,-2.3086 -2.5228,-2.3086 -1.3447,0 -2.2253,1.0948 -2.2253,2.1539 0,0.6664 0.595,0.6664 0.6307,0.6664 0.2023,0 0.6188,-0.1428 0.6188,-0.6307 0,-0.3094 -0.2142,-0.6188 -0.6307,-0.6188 -0.0952,0 -0.119,0 -0.1547,0.0119 0.2737,-0.7735 0.9163,-1.2138 1.6065,-1.2138 1.0829,0 1.5946,0.9639 1.5946,1.9397 0,0.952 -0.595,1.8921 -1.2495,2.6299 l -2.2848,2.5466 c -0.1309,0.1309 -0.1309,0.1547 -0.1309,0.4403 h 4.4149 z"
     stroke="#000000"
     stroke-opacity="1"
     stroke-width="0.0952"
     fill="#000000"
     fill-opacity="1"
     id="path33"
     style="font-family:LatinModern-Math, LatinModern, Asana-Math, Asana" />
  <path
     d="m 160.89937,18.605671 c 0,-0.17 -0.153,-0.17 -0.204,-0.17 -0.17,0 -0.187,0.068 -0.238,0.306 -0.289,1.105 -0.595,2.108 -1.292,2.108 -0.459,0 -0.51,-0.442 -0.51,-0.782 0,-0.374 0.034,-0.51 0.221,-1.258 l 0.374,-1.53 0.612,-2.38 c 0.119,-0.476 0.119,-0.51 0.119,-0.578 0,-0.289 -0.204,-0.459 -0.493,-0.459 -0.408,0 -0.663,0.374 -0.714,0.748 -0.306,-0.629 -0.799,-1.088 -1.564,-1.088 -1.989,0 -4.097,2.499 -4.097,4.981 0,1.598 0.935,2.72 2.261,2.72 0.34,0 1.19,-0.068 2.21,-1.275 0.136,0.714 0.731,1.275 1.547,1.275 0.595,0 0.986,-0.391 1.258,-0.935 0.289,-0.612 0.51,-1.683 0.51,-1.683 z m -2.329,-3.213 c 0,0.102 -0.034,0.204 -0.051,0.289 l -0.85,3.332 c -0.085,0.306 -0.085,0.34 -0.34,0.629 -0.748,0.935 -1.445,1.207 -1.921,1.207 -0.85,0 -1.088,-0.935 -1.088,-1.598 0,-0.85 0.544,-2.941 0.935,-3.723 0.527,-1.003 1.292,-1.632 1.972,-1.632 1.105,0 1.343,1.394 1.343,1.496 z"
     stroke="#000000"
     stroke-opacity="1"
     stroke-width="0.136"
     fill="#000000"
     fill-opacity="1"
     id="path40"
     style="font-family:LatinModern-Math, LatinModern, Asana-Math, Asana" />
  <path
     d="m 167.39388,22.057309 c 0,-0.9758 -0.7497,-1.904 -1.9873,-2.1539 0.9758,-0.3213 1.666,-1.1543 1.666,-2.0944 0,-0.9758 -1.0472,-1.6422 -2.1896,-1.6422 -1.2019,0 -2.1063,0.714 -2.1063,1.6184 0,0.3927 0.2618,0.6188 0.6069,0.6188 0.3689,0 0.6069,-0.2618 0.6069,-0.6069 0,-0.595 -0.5593,-0.595 -0.7378,-0.595 0.3689,-0.5831 1.1543,-0.7378 1.5827,-0.7378 0.4879,0 1.1424,0.2618 1.1424,1.3328 0,0.1428 -0.0238,0.833 -0.3332,1.3566 -0.357,0.5712 -0.7616,0.6069 -1.0591,0.6188 -0.0952,0.0119 -0.3808,0.0357 -0.4641,0.0357 -0.0952,0.0119 -0.1785,0.0238 -0.1785,0.1428 0,0.1309 0.0833,0.1309 0.2856,0.1309 h 0.5236 c 0.9758,0 1.4161,0.8092 1.4161,1.9754 0,1.6184 -0.8211,1.9635 -1.3447,1.9635 -0.5117,0 -1.4042,-0.2023 -1.8207,-0.9044 0.4165,0.0595 0.7854,-0.2023 0.7854,-0.6545 0,-0.4284 -0.3213,-0.6664 -0.6664,-0.6664 -0.2856,0 -0.6664,0.1666 -0.6664,0.6902 0,1.0829 1.1067,1.8683 2.4038,1.8683 1.4518,0 2.5347,-1.0829 2.5347,-2.2967 z"
     stroke="#000000"
     stroke-opacity="1"
     stroke-width="0.0952"
     fill="#000000"
     fill-opacity="1"
     id="path42"
     style="font-family:LatinModern-Math, LatinModern, Asana-Math, Asana" />
  <path
     d="m 16.11453,42.644671 c 0,-0.884 -1.003,-1.122 -1.581,-1.122 -0.986,0 -1.581,0.901 -1.785,1.292 -0.425,-1.122 -1.343,-1.292 -1.836,-1.292 -1.7679999,0 -2.7369999,2.193 -2.7369999,2.618 0,0.17 0.204,0.17 0.204,0.17 0.136,0 0.187,-0.034 0.221,-0.187 0.578,-1.802 1.6999999,-2.227 2.2779999,-2.227 0.323,0 0.918,0.153 0.918,1.139 0,0.527 -0.289,1.666 -0.918,4.046 -0.272,1.054 -0.867,1.768 -1.6149999,1.768 -0.102,0 -0.493,0 -0.85,-0.221 0.425,-0.085 0.799,-0.442 0.799,-0.918 0,-0.459 -0.374,-0.595 -0.629,-0.595 -0.51,0 -0.935,0.442 -0.935,0.986 0,0.782 0.85,1.122 1.598,1.122 1.1219999,0 1.7339999,-1.19 1.7849999,-1.292 0.204,0.629 0.816,1.292 1.836,1.292 1.751,0 2.72,-2.193 2.72,-2.618 0,-0.17 -0.153,-0.17 -0.204,-0.17 -0.153,0 -0.187,0.068 -0.221,0.187 -0.561,1.819 -1.717,2.227 -2.261,2.227 -0.663,0 -0.935,-0.544 -0.935,-1.122 0,-0.374 0.102,-0.748 0.289,-1.496 l 0.578,-2.329 c 0.102,-0.442 0.493,-2.006 1.683,-2.006 0.085,0 0.493,0 0.85,0.221 -0.476,0.085 -0.816,0.51 -0.816,0.918 0,0.272 0.187,0.595 0.646,0.595 0.374,0 0.918,-0.306 0.918,-0.986 z"
     stroke="#000000"
     stroke-opacity="1"
     stroke-width="0.136"
     fill="#000000"
     fill-opacity="1"
     id="path49"
     style="font-family:LatinModern-Math, LatinModern, Asana-Math, Asana" />
  <path
     d="m 22.37499,52.092209 v -0.3689 h -0.3808 c -1.071,0 -1.1067,-0.1309 -1.1067,-0.5712 v -6.6759 c 0,-0.2856 0,-0.3094 -0.2737,-0.3094 -0.7378,0.7616 -1.785,0.7616 -2.1658,0.7616 v 0.3689 c 0.238,0 0.9401,0 1.5589,-0.3094 v 6.1642 c 0,0.4284 -0.0357,0.5712 -1.1067,0.5712 h -0.3808 v 0.3689 c 0.4165,-0.0357 1.4518,-0.0357 1.9278,-0.0357 0.476,0 1.5113,0 1.9278,0.0357 z"
     stroke="#000000"
     stroke-opacity="1"
     stroke-width="0.0952"
     fill="#000000"
     fill-opacity="1"
     id="path51"
     style="font-family:LatinModern-Math, LatinModern, Asana-Math, Asana" />
  <path
     d="m 14.68122,72.078 c 0,-0.884 -1.003,-1.122 -1.581,-1.122 -0.986,0 -1.581,0.901 -1.785,1.292 -0.425,-1.122 -1.3429999,-1.292 -1.8359999,-1.292 -1.768,0 -2.737,2.193 -2.737,2.618 0,0.17 0.204,0.17 0.204,0.17 0.136,0 0.187,-0.034 0.221,-0.187 0.578,-1.802 1.7,-2.227 2.278,-2.227 0.323,0 0.9179999,0.153 0.9179999,1.139 0,0.527 -0.289,1.666 -0.9179999,4.046 -0.272,1.054 -0.867,1.768 -1.615,1.768 -0.102,0 -0.493,0 -0.85,-0.221 0.425,-0.085 0.799,-0.442 0.799,-0.918 0,-0.459 -0.374,-0.595 -0.629,-0.595 -0.51,0 -0.935,0.442 -0.935,0.986 0,0.782 0.85,1.122 1.598,1.122 1.122,0 1.734,-1.19 1.785,-1.292 0.204,0.629 0.8159999,1.292 1.8359999,1.292 1.751,0 2.72,-2.193 2.72,-2.618 0,-0.17 -0.153,-0.17 -0.204,-0.17 -0.153,0 -0.187,0.068 -0.221,0.187 -0.561,1.819 -1.717,2.227 -2.261,2.227 -0.663,0 -0.935,-0.544 -0.935,-1.122 0,-0.374 0.102,-0.748 0.289,-1.496 l 0.578,-2.329 c 0.102,-0.442 0.493,-2.006 1.683,-2.006 0.085,0 0.493,0 0.85,0.221 -0.476,0.085 -0.816,0.51 -0.816,0.918 0,0.272 0.187,0.595 0.646,0.595 0.374,0 0.918,-0.306 0.918,-0.986 z"
     stroke="#000000"
     stroke-opacity="1"
     stroke-width="0.136"
     fill="#000000"
     fill-opacity="1"
     id="path58"
     style="font-family:LatinModern-Math, LatinModern, Asana-Math, Asana" />
  <path
     d="m 21.29864,79.454958 h -0.2975 c -0.0595,0.357 -0.1428,0.8806 -0.2618,1.0591 -0.0833,0.0952 -0.8687,0.0952 -1.1305,0.0952 h -2.142 l 1.2614,-1.2257 c 1.8564,-1.6422 2.5704,-2.2848 2.5704,-3.4748 0,-1.3566 -1.071,-2.3086 -2.5228,-2.3086 -1.3447,0 -2.2253,1.0948 -2.2253,2.1539 0,0.6664 0.595,0.6664 0.6307,0.6664 0.2023,0 0.6188,-0.1428 0.6188,-0.6307 0,-0.3094 -0.2142,-0.6188 -0.6307,-0.6188 -0.0952,0 -0.119,0 -0.1547,0.0119 0.2737,-0.7735 0.9163,-1.2138 1.6065,-1.2138 1.0829,0 1.5946,0.9639 1.5946,1.9397 0,0.952 -0.595,1.8921 -1.2495,2.6299 l -2.2848,2.5466 c -0.1309,0.1309 -0.1309,0.1547 -0.1309,0.4403 h 4.4149 z"
     stroke="#000000"
     stroke-opacity="1"
     stroke-width="0.0952"
     fill="#000000"
     fill-opacity="1"
     id="path60"
     style="font-family:LatinModern-Math, LatinModern, Asana-Math, Asana" />
  <path
     d="m 14.61888,100.73534 c 0,-0.306 -0.238,-0.459 -0.493,-0.459 -0.17,0 -0.442,0.102 -0.595,0.357 -0.034,0.085 -0.17,0.612 -0.238,0.918 l -0.34,1.36 -0.765,3.06 c -0.068,0.255 -0.799,1.445 -1.921,1.445 -0.8669999,0 -1.0539999,-0.748 -1.0539999,-1.377 0,-0.782 0.289,-1.836 0.8669999,-3.332 0.272,-0.697 0.34,-0.884 0.34,-1.224 0,-0.765 -0.5439999,-1.394 -1.3939999,-1.394 -1.615,0 -2.244,2.465 -2.244,2.618 0,0.17 0.204,0.17 0.204,0.17 0.17,0 0.187,-0.034 0.272,-0.306 0.459,-1.598 1.139,-2.108 1.717,-2.108 0.136,0 0.425,0 0.425,0.544 0,0.425 -0.17,0.867 -0.289,1.19 -0.68,1.802 -0.986,2.771 -0.986,3.57 0,1.513 1.071,2.023 2.0739999,2.023 0.663,0 1.241,-0.289 1.717,-0.765 -0.221,0.884 -0.425,1.717 -1.105,2.618 -0.442,0.578 -1.0879999,1.071 -1.8699999,1.071 -0.238,0 -1.003,-0.051 -1.292,-0.714 0.272,0 0.493,0 0.731,-0.204 0.17,-0.153 0.34,-0.374 0.34,-0.697 0,-0.527 -0.459,-0.595 -0.629,-0.595 -0.391,0 -0.952,0.272 -0.952,1.105 0,0.85 0.748,1.479 1.802,1.479 1.7509999,0 3.5019999,-1.547 3.9779999,-3.468 l 1.632,-6.494 c 0.068,-0.238 0.068,-0.272 0.068,-0.391 z"
     stroke="#000000"
     stroke-opacity="1"
     stroke-width="0.136"
     fill="#000000"
     fill-opacity="1"
     id="path67"
     style="font-family:LatinModern-Math, LatinModern, Asana-Math, Asana" />
  <path
     d="M 20.11942,110.6589 V 110.29 h -0.3808 c -1.071,0 -1.1067,-0.1309 -1.1067,-0.5712 v -6.6759 c 0,-0.2856 0,-0.3094 -0.2737,-0.3094 -0.7378,0.7616 -1.785,0.7616 -2.1658,0.7616 v 0.3689 c 0.238,0 0.9401,0 1.5589,-0.3094 v 6.1642 c 0,0.4284 -0.0357,0.5712 -1.1067,0.5712 h -0.3808 v 0.3689 c 0.4165,-0.0357 1.4518,-0.0357 1.9278,-0.0357 0.476,0 1.5113,0 1.9278,0.0357 z"
     stroke="#000000"
     stroke-opacity="1"
     stroke-width="0.0952"
     fill="#000000"
     fill-opacity="1"
     id="path69"
     style="font-family:LatinModern-Math, LatinModern, Asana-Math, Asana" />
  <path
     d="m 15.18557,128.73534 c 0,-0.306 -0.238,-0.459 -0.493,-0.459 -0.17,0 -0.442,0.102 -0.595,0.357 -0.034,0.085 -0.17,0.612 -0.238,0.918 l -0.34,1.36 -0.765,3.06 c -0.068,0.255 -0.799,1.445 -1.921,1.445 -0.8669999,0 -1.0539999,-0.748 -1.0539999,-1.377 0,-0.782 0.2889999,-1.836 0.8669999,-3.332 0.272,-0.697 0.34,-0.884 0.34,-1.224 0,-0.765 -0.544,-1.394 -1.3939999,-1.394 -1.615,0 -2.244,2.465 -2.244,2.618 0,0.17 0.204,0.17 0.204,0.17 0.17,0 0.187,-0.034 0.272,-0.306 0.459,-1.598 1.139,-2.108 1.717,-2.108 0.136,0 0.425,0 0.425,0.544 0,0.425 -0.17,0.867 -0.289,1.19 -0.68,1.802 -0.986,2.771 -0.986,3.57 0,1.513 1.071,2.023 2.0739999,2.023 0.663,0 1.241,-0.289 1.717,-0.765 -0.221,0.884 -0.425,1.717 -1.105,2.618 -0.442,0.578 -1.088,1.071 -1.8699999,1.071 -0.238,0 -1.003,-0.051 -1.292,-0.714 0.272,0 0.493,0 0.731,-0.204 0.17,-0.153 0.34,-0.374 0.34,-0.697 0,-0.527 -0.459,-0.595 -0.629,-0.595 -0.391,0 -0.952,0.272 -0.952,1.105 0,0.85 0.748,1.479 1.802,1.479 1.7509999,0 3.5019999,-1.547 3.9779999,-3.468 l 1.632,-6.494 c 0.068,-0.238 0.068,-0.272 0.068,-0.391 z"
     stroke="#000000"
     stroke-opacity="1"
     stroke-width="0.136"
     fill="#000000"
     fill-opacity="1"
     id="path76"
     style="font-family:LatinModern-Math, LatinModern, Asana-Math, Asana" />
  <path
     d="m 21.04311,136.5883 h -0.2975 c -0.0595,0.357 -0.1428,0.8806 -0.2618,1.0591 -0.0833,0.0952 -0.8687,0.0952 -1.1305,0.0952 h -2.142 l 1.2614,-1.2257 c 1.8564,-1.6422 2.5704,-2.2848 2.5704,-3.4748 0,-1.3566 -1.071,-2.3086 -2.5228,-2.3086 -1.3447,0 -2.2253,1.0948 -2.2253,2.1539 0,0.6664 0.595,0.6664 0.6307,0.6664 0.2023,0 0.6188,-0.1428 0.6188,-0.6307 0,-0.3094 -0.2142,-0.6188 -0.6307,-0.6188 -0.0952,0 -0.119,0 -0.1547,0.0119 0.2737,-0.7735 0.9163,-1.2138 1.6065,-1.2138 1.0829,0 1.5946,0.9639 1.5946,1.9397 0,0.952 -0.595,1.8921 -1.2495,2.6299 l -2.2848,2.5466 c -0.1309,0.1309 -0.1309,0.1547 -0.1309,0.4403 h 4.4149 z"
     stroke="#000000"
     stroke-opacity="1"
     stroke-width="0.0952"
     fill="#000000"
     fill-opacity="1"
     id="path78"
     style="font-family:LatinModern-Math, LatinModern, Asana-Math, Asana" />
  <path
     d="m 46.97553,45.596671 c 0,-1.36 -0.085,-2.72 -0.68,-3.978 -0.782,-1.632 -2.176,-1.904 -2.89,-1.904 -1.02,0 -2.261,0.442 -2.958,2.023 -0.544,1.173 -0.629,2.499 -0.629,3.859 0,1.275 0.068,2.805 0.765,4.097 0.731,1.377 1.972,1.717 2.805,1.717 0.918,0 2.21,-0.357 2.958,-1.972 0.544,-1.173 0.629,-2.499 0.629,-3.842 z m -1.411,-0.204 c 0,1.275 0,2.431 -0.187,3.519 -0.255,1.615 -1.224,2.125 -1.989,2.125 -0.663,0 -1.666,-0.425 -1.972,-2.057 -0.187,-1.02 -0.187,-2.584 -0.187,-3.587 0,-1.088 0,-2.21 0.136,-3.128 0.323,-2.023 1.598,-2.176 2.023,-2.176 0.561,0 1.683,0.306 2.006,1.989 0.17,0.952 0.17,2.244 0.17,3.315 z"
     stroke="#000000"
     stroke-opacity="1"
     stroke-width="0.136"
     fill="#000000"
     fill-opacity="1"
     id="path85"
     style="font-family:LatinModern-Math, LatinModern, Asana-Math, Asana" />
  <path
     d="m 46.38667,74.752209 c 0,-1.36 -0.085,-2.72 -0.68,-3.978 -0.782,-1.632 -2.176,-1.904 -2.89,-1.904 -1.02,0 -2.261,0.442 -2.958,2.023 -0.544,1.173 -0.629,2.499 -0.629,3.859 0,1.275 0.068,2.805 0.765,4.097 0.731,1.377 1.972,1.717 2.805,1.717 0.918,0 2.21,-0.357 2.958,-1.972 0.544,-1.173 0.629,-2.499 0.629,-3.842 z m -1.411,-0.204 c 0,1.275 0,2.431 -0.187,3.519 -0.255,1.615 -1.224,2.125 -1.989,2.125 -0.663,0 -1.666,-0.425 -1.972,-2.057 -0.187,-1.02 -0.187,-2.584 -0.187,-3.587 0,-1.088 0,-2.21 0.136,-3.128 0.323,-2.023 1.598,-2.176 2.023,-2.176 0.561,0 1.683,0.306 2.006,1.989 0.17,0.952 0.17,2.244 0.17,3.315 z"
     stroke="#000000"
     stroke-opacity="1"
     stroke-width="0.136"
     fill="#000000"
     fill-opacity="1"
     id="path89"
     style="font-family:LatinModern-Math, LatinModern, Asana-Math, Asana" />
  <path
     d="m 45.41188,108.47 v -0.527 h -0.544 c -1.53,0 -1.581,-0.187 -1.581,-0.816 V 97.59 c 0,-0.408 0,-0.442 -0.391,-0.442 -1.054,1.088 -2.55,1.088 -3.094,1.088 v 0.527 c 0.34,0 1.343,0 2.227,-0.442 v 8.806 c 0,0.612 -0.051,0.816 -1.581,0.816 h -0.544 v 0.527 c 0.595,-0.051 2.074,-0.051 2.754,-0.051 0.68,0 2.159,0 2.754,0.051 z"
     stroke="#000000"
     stroke-opacity="1"
     stroke-width="0.136"
     fill="#000000"
     fill-opacity="1"
     id="path93"
     style="font-family:LatinModern-Math, LatinModern, Asana-Math, Asana" />
  <path
     d="m 45.97857,137.60334 v -0.527 h -0.544 c -1.53,0 -1.581,-0.187 -1.581,-0.816 v -9.537 c 0,-0.408 0,-0.442 -0.391,-0.442 -1.054,1.088 -2.55,1.088 -3.094,1.088 v 0.527 c 0.34,0 1.343,0 2.227,-0.442 v 8.806 c 0,0.612 -0.051,0.816 -1.581,0.816 h -0.544 v 0.527 c 0.595,-0.051 2.074,-0.051 2.754,-0.051 0.68,0 2.159,0 2.754,0.051 z"
     stroke="#000000"
     stroke-opacity="1"
     stroke-width="0.136"
     fill="#000000"
     fill-opacity="1"
     id="path97"
     style="font-family:LatinModern-Math, LatinModern, Asana-Math, Asana" />
  <path
     d="m 71.48553,71.8909 c 0,-0.306 -0.238,-0.459 -0.493,-0.459 -0.17,0 -0.442,0.102 -0.595,0.357 -0.034,0.085 -0.17,0.612 -0.238,0.918 l -0.34,1.36 -0.765,3.06 c -0.068,0.255 -0.799,1.445 -1.921,1.445 -0.867,0 -1.054,-0.748 -1.054,-1.377 0,-0.782 0.289,-1.836 0.867,-3.332 0.272,-0.697 0.34,-0.884 0.34,-1.224 0,-0.765 -0.544,-1.394 -1.394,-1.394 -1.615,0 -2.244,2.465 -2.244,2.618 0,0.17 0.204,0.17 0.204,0.17 0.17,0 0.187,-0.034 0.272,-0.306 0.459,-1.598 1.139,-2.108 1.717,-2.108 0.136,0 0.425,0 0.425,0.544 0,0.425 -0.17,0.867 -0.289,1.19 -0.68,1.802 -0.986,2.771 -0.986,3.57 0,1.513 1.071,2.023 2.074,2.023 0.663,0 1.241,-0.289 1.717,-0.765 -0.221,0.884 -0.425,1.717 -1.105,2.618 -0.442,0.578 -1.088,1.071 -1.87,1.071 -0.238,0 -1.003,-0.051 -1.292,-0.714 0.272,0 0.493,0 0.731,-0.204 0.17,-0.153 0.34,-0.374 0.34,-0.697 0,-0.527 -0.459,-0.595 -0.629,-0.595 -0.391,0 -0.952,0.272 -0.952,1.105 0,0.85 0.748,1.479 1.802,1.479 1.751,0 3.502,-1.547 3.978,-3.468 l 1.632,-6.494 c 0.068,-0.238 0.068,-0.272 0.068,-0.391 z"
     stroke="#000000"
     stroke-opacity="1"
     stroke-width="0.136"
     fill="#000000"
     fill-opacity="1"
     id="path101"
     style="font-family:LatinModern-Math, LatinModern, Asana-Math, Asana" />
  <path
     d="m 76.98612,81.803329 v -0.3689 h -0.3808 c -1.071,0 -1.1067,-0.1309 -1.1067,-0.5712 v -6.6759 c 0,-0.2856 0,-0.3094 -0.2737,-0.3094 -0.7378,0.7616 -1.785,0.7616 -2.1658,0.7616 v 0.3689 c 0.238,0 0.9401,0 1.5589,-0.3094 v 6.1642 c 0,0.4284 -0.0357,0.5712 -1.1067,0.5712 h -0.3808 v 0.3689 c 0.4165,-0.0357 1.4518,-0.0357 1.9278,-0.0357 0.476,0 1.5113,0 1.9278,0.0357 z"
     stroke="#000000"
     stroke-opacity="1"
     stroke-width="0.0952"
     fill="#000000"
     fill-opacity="1"
     id="path103"
     style="font-family:LatinModern-Math, LatinModern, Asana-Math, Asana" />
  <path
     d="m 82.41765,78.7419 c 0,-1.122 -0.425,-1.785 -1.088,-1.785 -0.561,0 -0.901,0.425 -0.901,0.901 0,0.459 0.34,0.901 0.901,0.901 0.204,0 0.425,-0.068 0.595,-0.221 0.051,-0.034 0.085,-0.051 0.085,-0.051 0,0 0.034,0.017 0.034,0.255 0,1.258 -0.595,2.278 -1.156,2.839 -0.187,0.187 -0.187,0.221 -0.187,0.272 0,0.119 0.085,0.187 0.17,0.187 0.187,0 1.547,-1.309 1.547,-3.298 z"
     stroke="#000000"
     stroke-opacity="1"
     stroke-width="0.136"
     fill="#000000"
     fill-opacity="1"
     id="path108"
     style="font-family:LatinModern-Math, LatinModern, Asana-Math, Asana" />
  <path
     d="m 95.42999,71.8909 c 0,-0.306 -0.238,-0.459 -0.493,-0.459 -0.17,0 -0.442,0.102 -0.595,0.357 -0.034,0.085 -0.17,0.612 -0.238,0.918 l -0.34,1.36 -0.765,3.06 c -0.068,0.255 -0.799,1.445 -1.921,1.445 -0.867,0 -1.054,-0.748 -1.054,-1.377 0,-0.782 0.289,-1.836 0.867,-3.332 0.272,-0.697 0.34,-0.884 0.34,-1.224 0,-0.765 -0.544,-1.394 -1.394,-1.394 -1.615,0 -2.244,2.465 -2.244,2.618 0,0.17 0.204,0.17 0.204,0.17 0.17,0 0.187,-0.034 0.272,-0.306 0.459,-1.598 1.139,-2.108 1.717,-2.108 0.136,0 0.425,0 0.425,0.544 0,0.425 -0.17,0.867 -0.289,1.19 -0.68,1.802 -0.986,2.771 -0.986,3.57 0,1.513 1.071,2.023 2.074,2.023 0.663,0 1.241,-0.289 1.717,-0.765 -0.221,0.884 -0.425,1.717 -1.105,2.618 -0.442,0.578 -1.088,1.071 -1.87,1.071 -0.238,0 -1.003,-0.051 -1.292,-0.714 0.272,0 0.493,0 0.731,-0.204 0.17,-0.153 0.34,-0.374 0.34,-0.697 0,-0.527 -0.459,-0.595 -0.629,-0.595 -0.391,0 -0.952,0.272 -0.952,1.105 0,0.85 0.748,1.479 1.802,1.479 1.751,0 3.502,-1.547 3.978,-3.468 l 1.632,-6.494 c 0.068,-0.238 0.068,-0.272 0.068,-0.391 z"
     stroke="#000000"
     stroke-opacity="1"
     stroke-width="0.136"
     fill="#000000"
     fill-opacity="1"
     id="path110"
     style="font-family:LatinModern-Math, LatinModern, Asana-Math, Asana" />
  <path
     d="m 101.28753,79.732729 h -0.2975 c -0.0595,0.357 -0.1428,0.8806 -0.2618,1.0591 -0.0833,0.0952 -0.8687,0.0952 -1.1305,0.0952 h -2.142 l 1.2614,-1.2257 c 1.8564,-1.6422 2.5704,-2.2848 2.5704,-3.4748 0,-1.3566 -1.071,-2.3086 -2.5228,-2.3086 -1.3447,0 -2.2253,1.0948 -2.2253,2.1539 0,0.6664 0.595,0.6664 0.6307,0.6664 0.2023,0 0.6188,-0.1428 0.6188,-0.6307 0,-0.3094 -0.2142,-0.6188 -0.6307,-0.6188 -0.0952,0 -0.119,0 -0.1547,0.0119 0.2737,-0.7735 0.9163,-1.2138 1.6065,-1.2138 1.0829,0 1.5946,0.9639 1.5946,1.9397 0,0.952 -0.595,1.8921 -1.2495,2.6299 l -2.2848,2.5466 c -0.1309,0.1309 -0.1309,0.1547 -0.1309,0.4403 h 4.4149 z"
     stroke="#000000"
     stroke-opacity="1"
     stroke-width="0.0952"
     fill="#000000"
     fill-opacity="1"
     id="path112"
     style="font-family:LatinModern-Math, LatinModern, Asana-Math, Asana" />
  <path
     d="m 81.81457,43.211341 c 0,-0.884 -1.003,-1.122 -1.581,-1.122 -0.986,0 -1.581,0.901 -1.785,1.292 -0.425,-1.122 -1.343,-1.292 -1.836,-1.292 -1.768,0 -2.737,2.193 -2.737,2.618 0,0.17 0.204,0.17 0.204,0.17 0.136,0 0.187,-0.034 0.221,-0.187 0.578,-1.802 1.7,-2.227 2.278,-2.227 0.323,0 0.918,0.153 0.918,1.139 0,0.527 -0.289,1.666 -0.918,4.046 -0.272,1.054 -0.867,1.768 -1.615,1.768 -0.102,0 -0.493,0 -0.85,-0.221 0.425,-0.085 0.799,-0.442 0.799,-0.918 0,-0.459 -0.374,-0.595 -0.629,-0.595 -0.51,0 -0.935,0.442 -0.935,0.986 0,0.782 0.85,1.122 1.598,1.122 1.122,0 1.734,-1.19 1.785,-1.292 0.204,0.629 0.816,1.292 1.836,1.292 1.751,0 2.72,-2.193 2.72,-2.618 0,-0.17 -0.153,-0.17 -0.204,-0.17 -0.153,0 -0.187,0.068 -0.221,0.187 -0.561,1.819 -1.717,2.227 -2.261,2.227 -0.663,0 -0.935,-0.544 -0.935,-1.122 0,-0.374 0.102,-0.748 0.289,-1.496 l 0.578,-2.329 c 0.102,-0.442 0.493,-2.006 1.683,-2.006 0.085,0 0.493,0 0.85,0.221 -0.476,0.085 -0.816,0.51 -0.816,0.918 0,0.272 0.187,0.595 0.646,0.595 0.374,0 0.918,-0.306 0.918,-0.986 z"
     stroke="#000000"
     stroke-opacity="1"
     stroke-width="0.136"
     fill="#000000"
     fill-opacity="1"
     id="path119"
     style="font-family:LatinModern-Math, LatinModern, Asana-Math, Asana" />
  <path
     d="m 88.43198,50.5883 h -0.2975 c -0.0595,0.357 -0.1428,0.8806 -0.2618,1.0591 -0.0833,0.0952 -0.8687,0.0952 -1.1305,0.0952 h -2.142 l 1.2614,-1.2257 c 1.8564,-1.6422 2.5704,-2.2848 2.5704,-3.4748 0,-1.3566 -1.071,-2.3086 -2.5228,-2.3086 -1.3447,0 -2.2253,1.0948 -2.2253,2.1539 0,0.6664 0.595,0.6664 0.6307,0.6664 0.2023,0 0.6188,-0.1428 0.6188,-0.6307 0,-0.3094 -0.2142,-0.6188 -0.6307,-0.6188 -0.0952,0 -0.119,0 -0.1547,0.0119 0.2737,-0.7735 0.9163,-1.2138 1.6065,-1.2138 1.0829,0 1.5946,0.9639 1.5946,1.9397 0,0.952 -0.595,1.8921 -1.2495,2.6299 l -2.2848,2.5466 c -0.1309,0.1309 -0.1309,0.1547 -0.1309,0.4403 h 4.4149 z"
     stroke="#000000"
     stroke-opacity="1"
     stroke-width="0.0952"
     fill="#000000"
     fill-opacity="1"
     id="path121"
     style="font-family:LatinModern-Math, LatinModern, Asana-Math, Asana" />
  <path
     d="m 22.26433,15.653329 c 0,-0.102 -0.068,-0.187 -0.153,-0.221 -0.969,-0.323 -1.717,-1.003 -2.329,-1.768 -0.476,-0.612 -0.833,-1.36 -0.986,-2.159 -0.034,-0.153 -0.17,-0.272 -0.34,-0.272 -0.187,0 -0.34,0.153 -0.34,0.34 0,0.017 0.017,0.051 0.017,0.068 0.17,0.901 0.561,1.734 1.122,2.448 0.374,0.476 0.816,0.884 1.326,1.224 H 7.5593301 c -0.187,0 -0.34,0.153 -0.34,0.34 0,0.187 0.153,0.34 0.34,0.34 H 20.58133 c -0.51,0.34 -0.952,0.748 -1.326,1.224 -0.561,0.714 -0.952,1.547 -1.122,2.448 0,0.017 -0.017,0.051 -0.017,0.068 0,0.187 0.153,0.34 0.34,0.34 0.17,0 0.306,-0.119 0.34,-0.272 0.153,-0.799 0.51,-1.547 0.986,-2.159 0.612,-0.765 1.36,-1.445 2.329,-1.768 0.085,-0.034 0.153,-0.119 0.153,-0.221 z"
     stroke="#000000"
     stroke-opacity="1"
     stroke-width="0.136"
     fill="#000000"
     fill-opacity="1"
     id="path128"
     style="font-family:LatinModern-Math, LatinModern, Asana-Math, Asana" />
  <path
     d="m 82.05222,129.8909 c 0,-0.306 -0.238,-0.459 -0.493,-0.459 -0.17,0 -0.442,0.102 -0.595,0.357 -0.034,0.085 -0.17,0.612 -0.238,0.918 l -0.34,1.36 -0.765,3.06 c -0.068,0.255 -0.799,1.445 -1.921,1.445 -0.867,0 -1.054,-0.748 -1.054,-1.377 0,-0.782 0.289,-1.836 0.867,-3.332 0.272,-0.697 0.34,-0.884 0.34,-1.224 0,-0.765 -0.544,-1.394 -1.394,-1.394 -1.615,0 -2.244,2.465 -2.244,2.618 0,0.17 0.204,0.17 0.204,0.17 0.17,0 0.187,-0.034 0.272,-0.306 0.459,-1.598 1.139,-2.108 1.717,-2.108 0.136,0 0.425,0 0.425,0.544 0,0.425 -0.17,0.867 -0.289,1.19 -0.68,1.802 -0.986,2.771 -0.986,3.57 0,1.513 1.071,2.023 2.074,2.023 0.663,0 1.241,-0.289 1.717,-0.765 -0.221,0.884 -0.425,1.717 -1.105,2.618 -0.442,0.578 -1.088,1.071 -1.87,1.071 -0.238,0 -1.003,-0.051 -1.292,-0.714 0.272,0 0.493,0 0.731,-0.204 0.17,-0.153 0.34,-0.374 0.34,-0.697 0,-0.527 -0.459,-0.595 -0.629,-0.595 -0.391,0 -0.952,0.272 -0.952,1.105 0,0.85 0.748,1.479 1.802,1.479 1.751,0 3.502,-1.547 3.978,-3.468 l 1.632,-6.494 c 0.068,-0.238 0.068,-0.272 0.068,-0.391 z"
     stroke="#000000"
     stroke-opacity="1"
     stroke-width="0.136"
     fill="#000000"
     fill-opacity="1"
     id="path133"
     style="font-family:LatinModern-Math, LatinModern, Asana-Math, Asana" />
  <path
     d="m 87.55277,139.80335 v -0.3689 h -0.3808 c -1.071,0 -1.1067,-0.1309 -1.1067,-0.5712 v -6.6759 c 0,-0.2856 0,-0.3094 -0.2737,-0.3094 -0.7378,0.7616 -1.785,0.7616 -2.1658,0.7616 v 0.3689 c 0.238,0 0.9401,0 1.5589,-0.3094 v 6.1642 c 0,0.4284 -0.0357,0.5712 -1.1067,0.5712 h -0.3808 v 0.3689 c 0.4165,-0.0357 1.4518,-0.0357 1.9278,-0.0357 0.476,0 1.5113,0 1.9278,0.0357 z"
     stroke="#000000"
     stroke-opacity="1"
     stroke-width="0.0952"
     fill="#000000"
     fill-opacity="1"
     id="path135"
     style="font-family:LatinModern-Math, LatinModern, Asana-Math, Asana" />
  <path
     d="m 127.52567,72.3669 c 0,-0.884 -1.003,-1.122 -1.581,-1.122 -0.986,0 -1.581,0.901 -1.785,1.292 -0.425,-1.122 -1.343,-1.292 -1.836,-1.292 -1.768,0 -2.737,2.193 -2.737,2.618 0,0.17 0.204,0.17 0.204,0.17 0.136,0 0.187,-0.034 0.221,-0.187 0.578,-1.802 1.7,-2.227 2.278,-2.227 0.323,0 0.918,0.153 0.918,1.139 0,0.527 -0.289,1.666 -0.918,4.046 -0.272,1.054 -0.867,1.768 -1.615,1.768 -0.102,0 -0.493,0 -0.85,-0.221 0.425,-0.085 0.799,-0.442 0.799,-0.918 0,-0.459 -0.374,-0.595 -0.629,-0.595 -0.51,0 -0.935,0.442 -0.935,0.986 0,0.782 0.85,1.122 1.598,1.122 1.122,0 1.734,-1.19 1.785,-1.292 0.204,0.629 0.816,1.292 1.836,1.292 1.751,0 2.72,-2.193 2.72,-2.618 0,-0.17 -0.153,-0.17 -0.204,-0.17 -0.153,0 -0.187,0.068 -0.221,0.187 -0.561,1.819 -1.717,2.227 -2.261,2.227 -0.663,0 -0.935,-0.544 -0.935,-1.122 0,-0.374 0.102,-0.748 0.289,-1.496 l 0.578,-2.329 c 0.102,-0.442 0.493,-2.006 1.683,-2.006 0.085,0 0.493,0 0.85,0.221 -0.476,0.085 -0.816,0.51 -0.816,0.918 0,0.272 0.187,0.595 0.646,0.595 0.374,0 0.918,-0.306 0.918,-0.986 z"
     stroke="#000000"
     stroke-opacity="1"
     stroke-width="0.136"
     fill="#000000"
     fill-opacity="1"
     id="path142"
     style="font-family:LatinModern-Math, LatinModern, Asana-Math, Asana" />
  <path
     d="m 134.14308,79.732729 h -0.2975 c -0.0595,0.357 -0.1428,0.8806 -0.2618,1.0591 -0.0833,0.0952 -0.8687,0.0952 -1.1305,0.0952 h -2.142 l 1.2614,-1.2257 c 1.8564,-1.6422 2.5704,-2.2848 2.5704,-3.4748 0,-1.3566 -1.071,-2.3086 -2.5228,-2.3086 -1.3447,0 -2.2253,1.0948 -2.2253,2.1539 0,0.6664 0.595,0.6664 0.6307,0.6664 0.2023,0 0.6188,-0.1428 0.6188,-0.6307 0,-0.3094 -0.2142,-0.6188 -0.6307,-0.6188 -0.0952,0 -0.119,0 -0.1547,0.0119 0.2737,-0.7735 0.9163,-1.2138 1.6065,-1.2138 1.0829,0 1.5946,0.9639 1.5946,1.9397 0,0.952 -0.595,1.8921 -1.2495,2.6299 l -2.2848,2.5466 c -0.1309,0.1309 -0.1309,0.1547 -0.1309,0.4403 h 4.4149 z"
     stroke="#000000"
     stroke-opacity="1"
     stroke-width="0.0952"
     fill="#000000"
     fill-opacity="1"
     id="path144"
     style="font-family:LatinModern-Math, LatinModern, Asana-Math, Asana" />
  <path
     d="m 159.52567,43.211341 c 0,-0.884 -1.003,-1.122 -1.581,-1.122 -0.986,0 -1.581,0.901 -1.785,1.292 -0.425,-1.122 -1.343,-1.292 -1.836,-1.292 -1.768,0 -2.737,2.193 -2.737,2.618 0,0.17 0.204,0.17 0.204,0.17 0.136,0 0.187,-0.034 0.221,-0.187 0.578,-1.802 1.7,-2.227 2.278,-2.227 0.323,0 0.918,0.153 0.918,1.139 0,0.527 -0.289,1.666 -0.918,4.046 -0.272,1.054 -0.867,1.768 -1.615,1.768 -0.102,0 -0.493,0 -0.85,-0.221 0.425,-0.085 0.799,-0.442 0.799,-0.918 0,-0.459 -0.374,-0.595 -0.629,-0.595 -0.51,0 -0.935,0.442 -0.935,0.986 0,0.782 0.85,1.122 1.598,1.122 1.122,0 1.734,-1.19 1.785,-1.292 0.204,0.629 0.816,1.292 1.836,1.292 1.751,0 2.72,-2.193 2.72,-2.618 0,-0.17 -0.153,-0.17 -0.204,-0.17 -0.153,0 -0.187,0.068 -0.221,0.187 -0.561,1.819 -1.717,2.227 -2.261,2.227 -0.663,0 -0.935,-0.544 -0.935,-1.122 0,-0.374 0.102,-0.748 0.289,-1.496 l 0.578,-2.329 c 0.102,-0.442 0.493,-2.006 1.683,-2.006 0.085,0 0.493,0 0.85,0.221 -0.476,0.085 -0.816,0.51 -0.816,0.918 0,0.272 0.187,0.595 0.646,0.595 0.374,0 0.918,-0.306 0.918,-0.986 z"
     stroke="#000000"
     stroke-opacity="1"
     stroke-width="0.136"
     fill="#000000"
     fill-opacity="1"
     id="path151"
     style="font-family:LatinModern-Math, LatinModern, Asana-Math, Asana" />
  <path
     d="m 166.14308,50.5883 h -0.2975 c -0.0595,0.357 -0.1428,0.8806 -0.2618,1.0591 -0.0833,0.0952 -0.8687,0.0952 -1.1305,0.0952 h -2.142 l 1.2614,-1.2257 c 1.8564,-1.6422 2.5704,-2.2848 2.5704,-3.4748 0,-1.3566 -1.071,-2.3086 -2.5228,-2.3086 -1.3447,0 -2.2253,1.0948 -2.2253,2.1539 0,0.6664 0.595,0.6664 0.6307,0.6664 0.2023,0 0.6188,-0.1428 0.6188,-0.6307 0,-0.3094 -0.2142,-0.6188 -0.6307,-0.6188 -0.0952,0 -0.119,0 -0.1547,0.0119 0.2737,-0.7735 0.9163,-1.2138 1.6065,-1.2138 1.0829,0 1.5946,0.9639 1.5946,1.9397 0,0.952 -0.595,1.8921 -1.2495,2.6299 l -2.2848,2.5466 c -0.1309,0.1309 -0.1309,0.1547 -0.1309,0.4403 h 4.4149 z"
     stroke="#000000"
     stroke-opacity="1"
     stroke-width="0.0952"
     fill="#000000"
     fill-opacity="1"
     id="path153"
     style="font-family:LatinModern-Math, LatinModern, Asana-Math, Asana" />
  <path
     d="m 126.60777,130.3131 c 0,-0.306 -0.238,-0.459 -0.493,-0.459 -0.17,0 -0.442,0.102 -0.595,0.357 -0.034,0.085 -0.17,0.612 -0.238,0.918 l -0.34,1.36 -0.765,3.06 c -0.068,0.255 -0.799,1.445 -1.921,1.445 -0.867,0 -1.054,-0.748 -1.054,-1.377 0,-0.782 0.289,-1.836 0.867,-3.332 0.272,-0.697 0.34,-0.884 0.34,-1.224 0,-0.765 -0.544,-1.394 -1.394,-1.394 -1.615,0 -2.244,2.465 -2.244,2.618 0,0.17 0.204,0.17 0.204,0.17 0.17,0 0.187,-0.034 0.272,-0.306 0.459,-1.598 1.139,-2.108 1.717,-2.108 0.136,0 0.425,0 0.425,0.544 0,0.425 -0.17,0.867 -0.289,1.19 -0.68,1.802 -0.986,2.771 -0.986,3.57 0,1.513 1.071,2.023 2.074,2.023 0.663,0 1.241,-0.289 1.717,-0.765 -0.221,0.884 -0.425,1.717 -1.105,2.618 -0.442,0.578 -1.088,1.071 -1.87,1.071 -0.238,0 -1.003,-0.051 -1.292,-0.714 0.272,0 0.493,0 0.731,-0.204 0.17,-0.153 0.34,-0.374 0.34,-0.697 0,-0.527 -0.459,-0.595 -0.629,-0.595 -0.391,0 -0.952,0.272 -0.952,1.105 0,0.85 0.748,1.479 1.802,1.479 1.751,0 3.502,-1.547 3.978,-3.468 l 1.632,-6.494 c 0.068,-0.238 0.068,-0.272 0.068,-0.391 z"
     stroke="#000000"
     stroke-opacity="1"
     stroke-width="0.136"
     fill="#000000"
     fill-opacity="1"
     id="path160"
     style="font-family:LatinModern-Math, LatinModern, Asana-Math, Asana" />
  <path
     d="m 132.47642,138.16606 h -0.2975 c -0.0595,0.357 -0.1428,0.8806 -0.2618,1.0591 -0.0833,0.0952 -0.8687,0.0952 -1.1305,0.0952 h -2.142 l 1.2614,-1.2257 c 1.8564,-1.6422 2.5704,-2.2848 2.5704,-3.4748 0,-1.3566 -1.071,-2.3086 -2.5228,-2.3086 -1.3447,0 -2.2253,1.0948 -2.2253,2.1539 0,0.6664 0.595,0.6664 0.6307,0.6664 0.2023,0 0.6188,-0.1428 0.6188,-0.6307 0,-0.3094 -0.2142,-0.6188 -0.6307,-0.6188 -0.0952,0 -0.119,0 -0.1547,0.0119 0.2737,-0.7735 0.9163,-1.2138 1.6065,-1.2138 1.0829,0 1.5946,0.9639 1.5946,1.9397 0,0.952 -0.595,1.8921 -1.2495,2.6299 l -2.2848,2.5466 c -0.1309,0.1309 -0.1309,0.1547 -0.1309,0.4403 h 4.4149 z"
     stroke="#000000"
     stroke-opacity="1"
     stroke-width="0.0952"
     fill="#000000"
     fill-opacity="1"
     id="path162"
     style="font-family:LatinModern-Math, LatinModern, Asana-Math, Asana" />
  <path
     d="m 158.89667,101.16867 c 0,-0.306 -0.238,-0.459 -0.493,-0.459 -0.17,0 -0.442,0.102 -0.595,0.357 -0.034,0.085 -0.17,0.612 -0.238,0.918 l -0.34,1.36 -0.765,3.06 c -0.068,0.255 -0.799,1.445 -1.921,1.445 -0.867,0 -1.054,-0.748 -1.054,-1.377 0,-0.782 0.289,-1.836 0.867,-3.332 0.272,-0.697 0.34,-0.884 0.34,-1.224 0,-0.765 -0.544,-1.394 -1.394,-1.394 -1.615,0 -2.244,2.465 -2.244,2.618 0,0.17 0.204,0.17 0.204,0.17 0.17,0 0.187,-0.034 0.272,-0.306 0.459,-1.598 1.139,-2.108 1.717,-2.108 0.136,0 0.425,0 0.425,0.544 0,0.425 -0.17,0.867 -0.289,1.19 -0.68,1.802 -0.986,2.771 -0.986,3.57 0,1.513 1.071,2.023 2.074,2.023 0.663,0 1.241,-0.289 1.717,-0.765 -0.221,0.884 -0.425,1.717 -1.105,2.618 -0.442,0.578 -1.088,1.071 -1.87,1.071 -0.238,0 -1.003,-0.051 -1.292,-0.714 0.272,0 0.493,0 0.731,-0.204 0.17,-0.153 0.34,-0.374 0.34,-0.697 0,-0.527 -0.459,-0.595 -0.629,-0.595 -0.391,0 -0.952,0.272 -0.952,1.105 0,0.85 0.748,1.479 1.802,1.479 1.751,0 3.502,-1.547 3.978,-3.468 l 1.632,-6.494 c 0.068,-0.238 0.068,-0.272 0.068,-0.391 z"
     stroke="#000000"
     stroke-opacity="1"
     stroke-width="0.136"
     fill="#000000"
     fill-opacity="1"
     id="path169"
     style="font-family:LatinModern-Math, LatinModern, Asana-Math, Asana" />
  <path
     d="m 164.76532,109.02161 h -0.2975 c -0.0595,0.357 -0.1428,0.8806 -0.2618,1.0591 -0.0833,0.0952 -0.8687,0.0952 -1.1305,0.0952 h -2.142 l 1.2614,-1.2257 c 1.8564,-1.6422 2.5704,-2.2848 2.5704,-3.4748 0,-1.3566 -1.071,-2.3086 -2.5228,-2.3086 -1.3447,0 -2.2253,1.0948 -2.2253,2.1539 0,0.6664 0.595,0.6664 0.6307,0.6664 0.2023,0 0.6188,-0.1428 0.6188,-0.6307 0,-0.3094 -0.2142,-0.6188 -0.6307,-0.6188 -0.0952,0 -0.119,0 -0.1547,0.0119 0.2737,-0.7735 0.9163,-1.2138 1.6065,-1.2138 1.0829,0 1.5946,0.9639 1.5946,1.9397 0,0.952 -0.595,1.8921 -1.2495,2.6299 l -2.2848,2.5466 c -0.1309,0.1309 -0.1309,0.1547 -0.1309,0.4403 h 4.4149 z"
     stroke="#000000"
     stroke-opacity="1"
     stroke-width="0.0952"
     fill="#000000"
     fill-opacity="1"
     id="path171"
     style="font-family:LatinModern-Math, LatinModern, Asana-Math, Asana" />
  <path
     d="m 72.95902,101.80021 c 0,-0.884 -1.003,-1.122 -1.581,-1.122 -0.986,0 -1.581,0.901 -1.785,1.292 -0.425,-1.122 -1.343,-1.292 -1.836,-1.292 -1.768,0 -2.737,2.193 -2.737,2.618 0,0.17 0.204,0.17 0.204,0.17 0.136,0 0.187,-0.034 0.221,-0.187 0.578,-1.802 1.7,-2.227 2.278,-2.227 0.323,0 0.918,0.153 0.918,1.139 0,0.527 -0.289,1.666 -0.918,4.046 -0.272,1.054 -0.867,1.768 -1.615,1.768 -0.102,0 -0.493,0 -0.85,-0.221 0.425,-0.085 0.799,-0.442 0.799,-0.918 0,-0.459 -0.374,-0.595 -0.629,-0.595 -0.51,0 -0.935,0.442 -0.935,0.986 0,0.782 0.85,1.122 1.598,1.122 1.122,0 1.734,-1.19 1.785,-1.292 0.204,0.629 0.816,1.292 1.836,1.292 1.751,0 2.72,-2.193 2.72,-2.618 0,-0.17 -0.153,-0.17 -0.204,-0.17 -0.153,0 -0.187,0.068 -0.221,0.187 -0.561,1.819 -1.717,2.227 -2.261,2.227 -0.663,0 -0.935,-0.544 -0.935,-1.122 0,-0.374 0.102,-0.748 0.289,-1.496 l 0.578,-2.329 c 0.102,-0.442 0.493,-2.006 1.683,-2.006 0.085,0 0.493,0 0.85,0.221 -0.476,0.085 -0.816,0.51 -0.816,0.918 0,0.272 0.187,0.595 0.646,0.595 0.374,0 0.918,-0.306 0.918,-0.986 z"
     stroke="#000000"
     stroke-opacity="1"
     stroke-width="0.136"
     fill="#000000"
     fill-opacity="1"
     id="path178"
     style="font-family:LatinModern-Math, LatinModern, Asana-Math, Asana" />
  <path
     d="m 79.21943,111.23666 v -0.3689 h -0.3808 c -1.071,0 -1.1067,-0.1309 -1.1067,-0.5712 v -6.6759 c 0,-0.2856 0,-0.3094 -0.2737,-0.3094 -0.7378,0.7616 -1.785,0.7616 -2.1658,0.7616 v 0.3689 c 0.238,0 0.9401,0 1.5589,-0.3094 v 6.1642 c 0,0.4284 -0.0357,0.5712 -1.1067,0.5712 h -0.3808 v 0.3689 c 0.4165,-0.0357 1.4518,-0.0357 1.9278,-0.0357 0.476,0 1.5113,0 1.9278,0.0357 z"
     stroke="#000000"
     stroke-opacity="1"
     stroke-width="0.0952"
     fill="#000000"
     fill-opacity="1"
     id="path180"
     style="font-family:LatinModern-Math, LatinModern, Asana-Math, Asana" />
  <path
     d="m 84.65101,108.17521 c 0,-1.122 -0.425,-1.785 -1.088,-1.785 -0.561,0 -0.901,0.425 -0.901,0.901 0,0.459 0.34,0.901 0.901,0.901 0.204,0 0.425,-0.068 0.595,-0.221 0.051,-0.034 0.085,-0.051 0.085,-0.051 0,0 0.034,0.017 0.034,0.255 0,1.258 -0.595,2.278 -1.156,2.839 -0.187,0.187 -0.187,0.221 -0.187,0.272 0,0.119 0.085,0.187 0.17,0.187 0.187,0 1.547,-1.309 1.547,-3.298 z"
     stroke="#000000"
     stroke-opacity="1"
     stroke-width="0.136"
     fill="#000000"
     fill-opacity="1"
     id="path185"
     style="font-family:LatinModern-Math, LatinModern, Asana-Math, Asana" />
  <path
     d="m 98.29235,101.80021 c 0,-0.884 -1.003,-1.122 -1.581,-1.122 -0.986,0 -1.581,0.901 -1.785,1.292 -0.425,-1.122 -1.343,-1.292 -1.836,-1.292 -1.768,0 -2.737,2.193 -2.737,2.618 0,0.17 0.204,0.17 0.204,0.17 0.136,0 0.187,-0.034 0.221,-0.187 0.578,-1.802 1.7,-2.227 2.278,-2.227 0.323,0 0.918,0.153 0.918,1.139 0,0.527 -0.289,1.666 -0.918,4.046 -0.272,1.054 -0.867,1.768 -1.615,1.768 -0.102,0 -0.493,0 -0.85,-0.221 0.425,-0.085 0.799,-0.442 0.799,-0.918 0,-0.459 -0.374,-0.595 -0.629,-0.595 -0.51,0 -0.935,0.442 -0.935,0.986 0,0.782 0.85,1.122 1.598,1.122 1.122,0 1.734,-1.19 1.785,-1.292 0.204,0.629 0.816,1.292 1.836,1.292 1.751,0 2.72,-2.193 2.72,-2.618 0,-0.17 -0.153,-0.17 -0.204,-0.17 -0.153,0 -0.187,0.068 -0.221,0.187 -0.561,1.819 -1.717,2.227 -2.261,2.227 -0.663,0 -0.935,-0.544 -0.935,-1.122 0,-0.374 0.102,-0.748 0.289,-1.496 l 0.578,-2.329 c 0.102,-0.442 0.493,-2.006 1.683,-2.006 0.085,0 0.493,0 0.85,0.221 -0.476,0.085 -0.816,0.51 -0.816,0.918 0,0.272 0.187,0.595 0.646,0.595 0.374,0 0.918,-0.306 0.918,-0.986 z"
     stroke="#000000"
     stroke-opacity="1"
     stroke-width="0.136"
     fill="#000000"
     fill-opacity="1"
     id="path187"
     style="font-family:LatinModern-Math, LatinModern, Asana-Math, Asana" />
  <path
     d="m 104.90977,109.16606 h -0.2975 c -0.0595,0.357 -0.1428,0.8806 -0.2618,1.0591 -0.0833,0.0952 -0.8687,0.0952 -1.1305,0.0952 h -2.142 l 1.2614,-1.2257 c 1.8564,-1.6422 2.5704,-2.2848 2.5704,-3.4748 0,-1.3566 -1.071,-2.3086 -2.5228,-2.3086 -1.3447,0 -2.2253,1.0948 -2.2253,2.1539 0,0.6664 0.595,0.6664 0.6307,0.6664 0.2023,0 0.6188,-0.1428 0.6188,-0.6307 0,-0.3094 -0.2142,-0.6188 -0.6307,-0.6188 -0.0952,0 -0.119,0 -0.1547,0.0119 0.2737,-0.7735 0.9163,-1.2138 1.6065,-1.2138 1.0829,0 1.5946,0.9639 1.5946,1.9397 0,0.952 -0.595,1.8921 -1.2495,2.6299 l -2.2848,2.5466 c -0.1309,0.1309 -0.1309,0.1547 -0.1309,0.4403 h 4.4149 z"
     stroke="#000000"
     stroke-opacity="1"
     stroke-width="0.0952"
     fill="#000000"
     fill-opacity="1"
     id="path189"
     style="font-family:LatinModern-Math, LatinModern, Asana-Math, Asana" />
</svg>
