<?xml version="1.0" encoding="UTF-8" standalone="no"?>
<svg
   x="0"
   y="0"
   width="544.48499"
   height="459.47299"
   style="fill:none"
   version="1.1"
   id="svg164"
   xmlns="http://www.w3.org/2000/svg"
   xmlns:svg="http://www.w3.org/2000/svg">
  <defs
     id="defs164" />
  <path
     class="connection real"
     stroke-dasharray="none"
     d="m 97,174.33 c 50.67,-6.31 112.77,-6.47 162.84,-0.47"
     style="fill:none;fill-opacity:1;stroke:#000000;stroke-width:2px"
     id="path1" />
  <path
     d="m 249.55989,179.01348 14.10678,-4.68014 -12.47591,-8.08611 3.64766,6.95832 z"
     id="path2"
     style="fill:#000000;stroke:none;stroke-width:2px" />
  <path
     class="connection real"
     stroke-dasharray="none"
     d="M 97,174.33 C 7.98,210.84 21.57,128.01 71.09,156.69"
     style="fill:none;fill-opacity:1;stroke:#000000;stroke-width:2px"
     id="path3" />
  <path
     d="m 59.43252,156.63152 14.73416,1.95181 -7.69078,-12.72342 0.24188,7.85271 z"
     id="path4"
     style="fill:#000000;stroke:none;stroke-width:2px" />
  <path
     class="real"
     d="m 72,174.33 c 0,-13.8 11.19,-25 25,-25 13.81,0 25,11.2 25,25 0,13.81 -11.19,25 -25,25 -13.81,0 -25,-11.19 -25,-25 z"
     style="fill:#ffffff;fill-opacity:1;stroke:#000000;stroke-width:2px"
     id="path5" />
  <path
     class="real"
     d="m 263.67,174.33 c 0,-13.8 11.19,-25 25,-25 13.8,0 25,11.2 25,25 0,13.81 -11.2,25 -25,25 -13.81,0 -25,-11.19 -25,-25 z"
     style="fill:#ffffff;fill-opacity:1;stroke:#000000;stroke-width:2px"
     id="path7" />
  <path
     class="real"
     d="m 267.67,174.11 c 0,-11.48 9.3,-20.78 20.77,-20.78 11.47,0 20.77,9.3 20.77,20.78 0,11.47 -9.3,20.77 -20.77,20.77 -11.47,0 -20.77,-9.3 -20.77,-20.77 z"
     style="fill:#ffffff;fill-opacity:1;stroke:#000000;stroke-width:2px"
     id="path8" />
  <path
     class="connection real"
     stroke-dasharray="none"
     d="m 94.33,304 c 50.67,-6.32 112.78,-6.47 162.84,-0.47"
     style="fill:none;fill-opacity:1;stroke:#000000;stroke-width:2px"
     id="path11" />
  <path
     d="M 246.89321,308.68014 260.99999,304 l -12.47591,-8.08611 3.64766,6.95831 z"
     id="path12"
     style="fill:#000000;stroke:none;stroke-width:2px" />
  <path
     class="connection real"
     stroke-dasharray="none"
     d="M 94.33,304 C 5.32,340.51 18.9,257.68 68.42,286.35"
     style="fill:none;fill-opacity:1;stroke:#000000;stroke-width:2px"
     id="path13" />
  <path
     d="m 56.76587,286.2982 14.73416,1.95181 -7.69078,-12.72343 0.24187,7.85272 z"
     id="path14"
     style="fill:#000000;stroke:none;stroke-width:2px" />
  <path
     class="connection real"
     stroke-dasharray="none"
     d="m 157,428 c 72.52,2.7 125.35,-36.15 134.02,-95.59"
     style="fill:none;fill-opacity:1;stroke:#000000;stroke-width:2px"
     id="path15" />
  <path
     d="M 296.37419,342.79091 291.5,328.75 l -7.91333,12.58621 6.90736,-3.74325 z"
     id="path16"
     style="fill:#000000;stroke:none;stroke-width:2px" />
  <path
     class="real"
     d="m 69.33,304 c 0,-13.81 11.2,-25 25,-25 13.81,0 25,11.19 25,25 0,13.81 -11.19,25 -25,25 -13.8,0 -25,-11.19 -25,-25 z"
     style="fill:#ffffff;fill-opacity:1;stroke:#000000;stroke-width:2px"
     id="path17" />
  <path
     class="connection real"
     stroke-dasharray="none"
     d="M 157,428 C 118,414.59 98.8,382.65 94.63,332.86"
     style="fill:none;fill-opacity:1;stroke:#000000;stroke-width:2px"
     id="path19" />
  <path
     d="m 101.64856,341.93803 -7.31523,-12.93802 -5.52573,13.80217 6.12332,-4.92226 z"
     id="path20"
     style="fill:#000000;stroke:none;stroke-width:2px" />
  <path
     class="real"
     d="m 132,428 c 0,-13.81 11.19,-25 25,-25 13.81,0 25,11.19 25,25 0,13.81 -11.19,25 -25,25 -13.81,0 -25,-11.19 -25,-25 z"
     style="fill:#ffffff;fill-opacity:1;stroke:#000000;stroke-width:2px"
     id="path21" />
  <path
     class="real"
     d="m 136,427.77 c 0,-11.47 9.3,-20.77 20.77,-20.77 11.48,0 20.78,9.3 20.78,20.77 0,11.48 -9.3,20.78 -20.78,20.78 -11.47,0 -20.77,-9.3 -20.77,-20.78 z"
     style="fill:#ffffff;fill-opacity:1;stroke:#000000;stroke-width:2px"
     id="path22" />
  <path
     class="connection real"
     stroke-dasharray="none"
     d="m 286,304 c -29.43,19.06 -84.94,73.27 -109.01,101.31"
     style="fill:none;fill-opacity:1;stroke:#000000;stroke-width:2px"
     id="path25" />
  <path
     d="M 178.13992,393.83973 174.5,408.25 l 13.52629,-6.17033 -7.82812,-0.6664 z"
     id="path26"
     style="fill:#000000;stroke:none;stroke-width:2px" />
  <path
     class="real"
     d="m 261,304 c 0,-13.81 11.19,-25 25,-25 13.81,0 25,11.19 25,25 0,13.81 -11.19,25 -25,25 -13.81,0 -25,-11.19 -25,-25 z"
     style="fill:#ffffff;fill-opacity:1;stroke:#000000;stroke-width:2px"
     id="path27" />
  <path
     class="real"
     d="m 265,303.77 c 0,-11.47 9.3,-20.77 20.77,-20.77 11.48,0 20.78,9.3 20.78,20.77 0,11.48 -9.3,20.78 -20.78,20.78 -11.47,0 -20.77,-9.3 -20.77,-20.78 z"
     style="fill:#ffffff;fill-opacity:1;stroke:#000000;stroke-width:2px"
     id="path28" />
  <path
     class="connection real"
     stroke-dasharray="none"
     d="M 201,39 C 111.98,75.51 125.57,-7.32 175.09,21.35"
     style="fill:none;fill-opacity:1;stroke:#000000;stroke-width:2px"
     id="path31" />
  <path
     d="m 163.43253,21.298188 14.73415,1.95181 -7.69078,-12.723425 0.24188,7.852712 z"
     id="path32"
     style="fill:#000000;stroke:none;stroke-width:2px" />
  <path
     class="real"
     d="m 176,39 c 0,-13.81 11.19,-25 25,-25 13.81,0 25,11.19 25,25 0,13.81 -11.19,25 -25,25 -13.81,0 -25,-11.19 -25,-25 z"
     style="fill:#ffffff;fill-opacity:1;stroke:#000000;stroke-width:2px"
     id="path33" />
  <path
     d="m 191.60385,148.72199 c 0,-3.20229 -1.86507,-5.6304 -4.68027,-5.6304 -1.61874,0 -3.06153,1.02051 -4.11723,2.1114 l 2.60406,-10.59219 c 0,0 0,-0.38709 -0.45747,-0.38709 -0.80937,0 -3.37824,0.28152 -4.29318,0.3519 -0.28152,0.0352 -0.66861,0.0704 -0.66861,0.7038 0,0.42228 0.31671,0.42228 0.84456,0.42228 1.68912,0 1.7595,0.24633 1.7595,0.59823 0,0.24633 -0.31671,1.44279 -0.49266,2.18178 l -2.88558,11.47194 c -0.42228,1.7595 -0.56304,2.32254 -0.56304,3.55419 0,3.34305 1.86507,5.52483 4.46913,5.52483 4.15242,0 8.48079,-5.24331 8.48079,-10.31067 z m -2.53368,-1.54836 c 0,2.07621 -1.16127,6.12306 -1.79469,7.46028 -1.16127,2.35773 -2.78001,3.62457 -4.15242,3.62457 -1.19646,0 -2.35773,-0.95013 -2.35773,-3.55419 0,-0.66861 0,-1.33722 0.56304,-3.55419 l 0.77418,-3.23748 c 0.21114,-0.77418 0.21114,-0.84456 0.52785,-1.23165 1.72431,-2.28735 3.30786,-2.8152 4.2228,-2.8152 1.26684,0 2.21697,1.0557 2.21697,3.30786 z"
     stroke="#000000"
     stroke-opacity="1"
     stroke-width="0.28152"
     fill="#000000"
     fill-opacity="1"
     id="path40"
     style="font-family:LatinModern-Math, LatinModern, Asana-Math, Asana" />
  <path
     d="m 25.1317,160.88024 c 0,-0.21114 -0.21114,-0.45747 -0.42228,-0.45747 -0.17595,0 -0.24633,0.0704 -0.45747,0.3519 -2.78001,3.48381 -6.61572,3.48381 -7.038,3.48381 -2.21697,0 -3.1671,-1.72431 -3.1671,-3.83571 0,-1.44279 0.7038,-4.85622 1.90026,-7.038 1.09089,-2.00583 3.02634,-3.519 4.96179,-3.519 1.19646,0 2.53368,0.45747 3.02634,1.4076 -0.56304,0 -1.0557,0 -1.54836,0.49266 -0.56304,0.52785 -0.63342,1.12608 -0.63342,1.37241 0,0.84456 0.63342,1.23165 1.30203,1.23165 1.02051,0 1.97064,-0.84456 1.97064,-2.25216 0,-1.72431 -1.65393,-3.02634 -4.15242,-3.02634 -4.75065,0 -9.43092,5.03217 -9.43092,9.99396 0,3.1671 2.04102,5.94711 5.70078,5.94711 5.03217,0 7.98813,-3.73014 7.98813,-4.15242 z"
     stroke="#000000"
     stroke-opacity="1"
     stroke-width="0.28152"
     fill="#000000"
     fill-opacity="1"
     id="path44"
     style="font-family:LatinModern-Math, LatinModern, Asana-Math, Asana" />
  <path
     d="m 296.07757,169.50614 c 0,-0.52938 -0.41174,-0.79407 -0.85289,-0.79407 -0.2941,0 -0.76466,0.17646 -1.02935,0.61761 -0.0588,0.14705 -0.2941,1.05876 -0.41174,1.58814 l -0.5882,2.3528 -1.32345,5.2938 c -0.11764,0.44115 -1.38227,2.49985 -3.32333,2.49985 -1.49991,0 -1.82342,-1.29404 -1.82342,-2.38221 0,-1.35286 0.49997,-3.17628 1.49991,-5.76436 0.47056,-1.20581 0.5882,-1.52932 0.5882,-2.11752 0,-1.32345 -0.94112,-2.41162 -2.41162,-2.41162 -2.79395,0 -3.88212,4.26445 -3.88212,4.52914 0,0.2941 0.35292,0.2941 0.35292,0.2941 0.2941,0 0.32351,-0.0588 0.47056,-0.52938 0.79407,-2.76454 1.97047,-3.64684 2.97041,-3.64684 0.23528,0 0.73525,0 0.73525,0.94112 0,0.73525 -0.2941,1.49991 -0.49997,2.0587 -1.1764,3.11746 -1.70578,4.79383 -1.70578,6.1761 0,2.61749 1.85283,3.49979 3.58802,3.49979 1.14699,0 2.14693,-0.49997 2.97041,-1.32345 -0.38233,1.52932 -0.73525,2.97041 -1.91165,4.52914 -0.76466,0.99994 -1.88224,1.85283 -3.2351,1.85283 -0.41174,0 -1.73519,-0.0882 -2.23516,-1.23522 0.47056,0 0.85289,0 1.26463,-0.35292 0.2941,-0.26469 0.5882,-0.64702 0.5882,-1.20581 0,-0.91171 -0.79407,-1.02935 -1.08817,-1.02935 -0.67643,0 -1.64696,0.47056 -1.64696,1.91165 0,1.4705 1.29404,2.55867 3.11746,2.55867 3.02923,0 6.05846,-2.67631 6.88194,-5.99964 l 2.82336,-11.23462 c 0.11764,-0.41174 0.11764,-0.47056 0.11764,-0.67643 z"
     stroke="#000000"
     stroke-opacity="1"
     stroke-width="0.23528"
     fill="#000000"
     fill-opacity="1"
     id="path48"
     style="font-family:LatinModern-Math, LatinModern, Asana-Math, Asana" />
  <path
     d="m 103.49907,170.32962 c 0,-1.52932 -1.73519,-1.94106 -2.73513,-1.94106 -1.70578,0 -2.73513,1.55873 -3.08805,2.23516 -0.73525,-1.94106 -2.32339,-2.23516 -3.17628,-2.23516 -3.05864,0 -4.73501,3.79389 -4.73501,4.52914 0,0.2941 0.35292,0.2941 0.35292,0.2941 0.23528,0 0.32351,-0.0588 0.38233,-0.32351 0.99994,-3.11746 2.941,-3.85271 3.94094,-3.85271 0.55879,0 1.58814,0.26469 1.58814,1.97047 0,0.91171 -0.49997,2.88218 -1.58814,6.99958 -0.47056,1.82342 -1.49991,3.05864 -2.79395,3.05864 -0.17646,0 -0.85289,0 -1.4705,-0.38233 0.73525,-0.14705 1.38227,-0.76466 1.38227,-1.58814 0,-0.79407 -0.64702,-1.02935 -1.08817,-1.02935 -0.8823,0 -1.61755,0.76466 -1.61755,1.70578 0,1.35286 1.4705,1.94106 2.76454,1.94106 1.94106,0 2.99982,-2.0587 3.08805,-2.23516 0.35292,1.08817 1.41168,2.23516 3.17628,2.23516 3.02923,0 4.7056,-3.79389 4.7056,-4.52914 0,-0.2941 -0.26469,-0.2941 -0.35292,-0.2941 -0.26469,0 -0.32351,0.11764 -0.38233,0.32351 -0.97053,3.14687 -2.97041,3.85271 -3.91153,3.85271 -1.14699,0 -1.61755,-0.94112 -1.61755,-1.94106 0,-0.64702 0.17646,-1.29404 0.49997,-2.58808 l 0.99994,-4.02917 c 0.17646,-0.76466 0.85289,-3.47038 2.91159,-3.47038 0.14705,0 0.85289,0 1.4705,0.38233 -0.82348,0.14705 -1.41168,0.8823 -1.41168,1.58814 0,0.47056 0.32351,1.02935 1.11758,1.02935 0.64702,0 1.58814,-0.52938 1.58814,-1.70578 z"
     stroke="#000000"
     stroke-opacity="1"
     stroke-width="0.23528"
     fill="#000000"
     fill-opacity="1"
     id="path52"
     style="font-family:LatinModern-Math, LatinModern, Asana-Math, Asana" />
  <path
     d="m 189.07794,288.31223 v -1.09089 h -1.12608 c -3.1671,0 -3.27267,-0.38709 -3.27267,-1.68912 v -19.74159 c 0,-0.84456 0,-0.91494 -0.80937,-0.91494 -2.18178,2.25216 -5.2785,2.25216 -6.40458,2.25216 v 1.09089 c 0.7038,0 2.78001,0 4.60989,-0.91494 v 18.22842 c 0,1.26684 -0.10557,1.68912 -3.27267,1.68912 h -1.12608 v 1.09089 c 1.23165,-0.10557 4.29318,-0.10557 5.70078,-0.10557 1.4076,0 4.46913,0 5.70078,0.10557 z"
     stroke="#000000"
     stroke-opacity="1"
     stroke-width="0.28152"
     fill="#000000"
     fill-opacity="1"
     id="path56"
     style="font-family:LatinModern-Math, LatinModern, Asana-Math, Asana" />
  <path
     d="m 23.020733,283.55143 c 0,-2.8152 -0.17595,-5.6304 -1.4076,-8.23446 -1.61874,-3.37824 -4.50432,-3.94128 -5.9823,-3.94128 -2.1114,0 -4.68027,0.91494 -6.12306,4.18761 -1.12608,2.42811 -1.30203,5.17293 -1.30203,7.98813 0,2.63925 0.14076,5.80635 1.58355,8.48079 1.51317,2.85039 4.08204,3.55419 5.80635,3.55419 1.90026,0 4.5747,-0.73899 6.12306,-4.08204 1.12608,-2.42811 1.30203,-5.17293 1.30203,-7.95294 z m -2.92077,-0.42228 c 0,2.63925 0,5.03217 -0.38709,7.28433 -0.52785,3.34305 -2.53368,4.39875 -4.11723,4.39875 -1.37241,0 -3.44862,-0.87975 -4.08204,-4.25799 -0.38709,-2.1114 -0.38709,-5.34888 -0.38709,-7.42509 0,-2.25216 0,-4.5747 0.28152,-6.47496 0.66861,-4.18761 3.30786,-4.50432 4.18761,-4.50432 1.16127,0 3.48381,0.63342 4.15242,4.11723 0.3519,1.97064 0.3519,4.64508 0.3519,6.86205 z"
     stroke="#000000"
     stroke-opacity="1"
     stroke-width="0.28152"
     fill="#000000"
     fill-opacity="1"
     id="path60"
     style="font-family:LatinModern-Math, LatinModern, Asana-Math, Asana" />
  <path
     d="m 97.68553,300.5956 c 0,-1.32345 -1.26463,-2.52926 -3.49979,-2.52926 -3.88212,0 -4.97029,2.99982 -4.97029,4.29386 0,2.29398 2.17634,2.73513 3.02923,2.91159 1.52932,0.2941 3.05864,0.61761 3.05864,2.23516 0,0.76466 -0.67643,3.2351 -4.20563,3.2351 -0.41174,0 -2.67631,0 -3.35274,-1.55873 1.11758,0.14705 1.85283,-0.73525 1.85283,-1.55873 0,-0.67643 -0.47056,-1.02935 -1.08817,-1.02935 -0.76466,0 -1.64696,0.61761 -1.64696,1.94106 0,1.67637 1.67637,2.85277 4.20563,2.85277 4.76442,0 5.91141,-3.55861 5.91141,-4.88206 0,-1.05876 -0.55879,-1.79401 -0.91171,-2.14693 -0.79407,-0.82348 -1.64696,-0.97053 -2.941,-1.23522 -1.05876,-0.23528 -2.23516,-0.44115 -2.23516,-1.7646 0,-0.85289 0.70584,-2.6469 3.29392,-2.6469 0.73525,0 2.20575,0.20587 2.6469,1.35286 -0.82348,0.0294 -1.41168,0.67643 -1.41168,1.32345 0,0.41174 0.26469,0.85289 0.91171,0.85289 0.64702,0 1.35286,-0.49997 1.35286,-1.64696 z"
     stroke="#000000"
     stroke-opacity="1"
     stroke-width="0.23528"
     fill="#000000"
     fill-opacity="1"
     id="path64"
     style="font-family:LatinModern-Math, LatinModern, Asana-Math, Asana" />
  <path
     d="m 108.64817,316.60922 v -0.6382 h -0.65878 c -1.85283,0 -1.91459,-0.22645 -1.91459,-0.98817 v -11.54931 c 0,-0.49409 0,-0.53526 -0.4735,-0.53526 -1.2764,1.31757 -3.08805,1.31757 -3.74684,1.31757 v 0.63819 c 0.41174,0 1.62638,0 2.6969,-0.53526 v 10.66407 c 0,0.74113 -0.0618,0.98817 -1.91459,0.98817 h -0.65878 v 0.6382 c 0.72054,-0.0618 2.51161,-0.0618 3.33509,-0.0618 0.82348,0 2.61455,0 3.33509,0.0618 z"
     stroke="#000000"
     stroke-opacity="1"
     stroke-width="0.164696"
     fill="#000000"
     fill-opacity="1"
     id="path66"
     style="font-family:LatinModern-Math, LatinModern, Asana-Math, Asana" />
  <path
     d="m 286.3522,298.0956 c 0,-1.32345 -1.26463,-2.52926 -3.49979,-2.52926 -3.88212,0 -4.97029,2.99982 -4.97029,4.29386 0,2.29398 2.17634,2.73513 3.02923,2.91159 1.52932,0.2941 3.05864,0.61761 3.05864,2.23516 0,0.76466 -0.67643,3.2351 -4.20563,3.2351 -0.41174,0 -2.67631,0 -3.35274,-1.55873 1.11758,0.14705 1.85283,-0.73525 1.85283,-1.55873 0,-0.67643 -0.47056,-1.02935 -1.08817,-1.02935 -0.76466,0 -1.64696,0.61761 -1.64696,1.94106 0,1.67637 1.67637,2.85277 4.20563,2.85277 4.76442,0 5.91141,-3.55861 5.91141,-4.88206 0,-1.05876 -0.55879,-1.79401 -0.91171,-2.14693 -0.79407,-0.82348 -1.64696,-0.97053 -2.941,-1.23522 -1.05876,-0.23528 -2.23516,-0.44115 -2.23516,-1.7646 0,-0.85289 0.70584,-2.6469 3.29392,-2.6469 0.73525,0 2.20575,0.20587 2.6469,1.35286 -0.82348,0.0294 -1.41168,0.67643 -1.41168,1.32345 0,0.41174 0.26469,0.85289 0.91171,0.85289 0.64702,0 1.35286,-0.49997 1.35286,-1.64696 z"
     stroke="#000000"
     stroke-opacity="1"
     stroke-width="0.23528"
     fill="#000000"
     fill-opacity="1"
     id="path73"
     style="font-family:LatinModern-Math, LatinModern, Asana-Math, Asana" />
  <path
     d="m 297.92134,310.52708 h -0.51467 c -0.10294,0.61761 -0.24705,1.52344 -0.45292,1.83224 -0.14411,0.1647 -1.50285,0.1647 -1.95576,0.1647 h -3.70566 l 2.18222,-2.12046 c 3.21157,-2.84101 4.44679,-3.9527 4.44679,-6.0114 0,-2.34692 -1.85283,-3.99388 -4.36444,-3.99388 -2.32633,0 -3.84977,1.894 -3.84977,3.72624 0,1.15288 1.02935,1.15288 1.09111,1.15288 0.34998,0 1.07052,-0.24705 1.07052,-1.09111 0,-0.53527 -0.37056,-1.07053 -1.09111,-1.07053 -0.16469,0 -0.20587,0 -0.26763,0.0206 0.4735,-1.33816 1.5852,-2.09988 2.77925,-2.09988 1.87341,0 2.75866,1.66755 2.75866,3.35569 0,1.64696 -1.02935,3.27333 -2.16164,4.54972 l -3.9527,4.40562 c -0.22646,0.22646 -0.22646,0.26763 -0.22646,0.76172 h 7.63778 z"
     stroke="#000000"
     stroke-opacity="1"
     stroke-width="0.164696"
     fill="#000000"
     fill-opacity="1"
     id="path75"
     style="font-family:LatinModern-Math, LatinModern, Asana-Math, Asana" />
  <path
     d="m 157.3522,422.0956 c 0,-1.32345 -1.26463,-2.52926 -3.49979,-2.52926 -3.88212,0 -4.97029,2.99982 -4.97029,4.29386 0,2.29398 2.17634,2.73513 3.02923,2.91159 1.52932,0.2941 3.05864,0.61761 3.05864,2.23516 0,0.76466 -0.67643,3.2351 -4.20563,3.2351 -0.41174,0 -2.67631,0 -3.35274,-1.55873 1.11758,0.14705 1.85283,-0.73525 1.85283,-1.55873 0,-0.67643 -0.47056,-1.02935 -1.08817,-1.02935 -0.76466,0 -1.64696,0.61761 -1.64696,1.94106 0,1.67637 1.67637,2.85277 4.20563,2.85277 4.76442,0 5.91141,-3.55861 5.91141,-4.88206 0,-1.05876 -0.55879,-1.79401 -0.91171,-2.14693 -0.79407,-0.82348 -1.64696,-0.97053 -2.941,-1.23522 -1.05876,-0.23528 -2.23516,-0.44115 -2.23516,-1.7646 0,-0.85289 0.70584,-2.6469 3.29392,-2.6469 0.73525,0 2.20575,0.20587 2.6469,1.35286 -0.82348,0.0294 -1.41168,0.67643 -1.41168,1.32345 0,0.41174 0.26469,0.85289 0.91171,0.85289 0.64702,0 1.35286,-0.49997 1.35286,-1.64696 z"
     stroke="#000000"
     stroke-opacity="1"
     stroke-width="0.23528"
     fill="#000000"
     fill-opacity="1"
     id="path82"
     style="font-family:LatinModern-Math, LatinModern, Asana-Math, Asana" />
  <path
     d="m 169.09714,434.58884 c 0,-1.68813 -1.29698,-3.29392 -3.43803,-3.72624 1.68813,-0.55585 2.88218,-1.99694 2.88218,-3.62332 0,-1.68813 -1.81166,-2.841 -3.78801,-2.841 -2.07928,0 -3.6439,1.23522 -3.6439,2.79983 0,0.67937 0.45292,1.07052 1.04994,1.07052 0.6382,0 1.04994,-0.45291 1.04994,-1.04993 0,-1.02935 -0.96759,-1.02935 -1.2764,-1.02935 0.6382,-1.00877 1.99694,-1.2764 2.73807,-1.2764 0.84407,0 1.97636,0.45292 1.97636,2.30575 0,0.24704 -0.0412,1.44109 -0.57644,2.34691 -0.61761,0.98818 -1.31757,1.04994 -1.83224,1.07053 -0.1647,0.0206 -0.65879,0.0618 -0.8029,0.0618 -0.16469,0.0206 -0.3088,0.0412 -0.3088,0.24704 0,0.22646 0.14411,0.22646 0.49409,0.22646 h 0.90582 c 1.68814,0 2.44986,1.39992 2.44986,3.41744 0,2.79983 -1.4205,3.39686 -2.32633,3.39686 -0.88524,0 -2.42927,-0.34998 -3.14981,-1.56461 0.72054,0.10293 1.35874,-0.34998 1.35874,-1.13229 0,-0.74113 -0.55585,-1.15287 -1.15287,-1.15287 -0.49409,0 -1.15288,0.28822 -1.15288,1.19404 0,1.87342 1.9146,3.23216 4.15858,3.23216 2.51161,0 4.38503,-1.87341 4.38503,-3.97329 z"
     stroke="#000000"
     stroke-opacity="1"
     stroke-width="0.164696"
     fill="#000000"
     fill-opacity="1"
     id="path84"
     style="font-family:LatinModern-Math, LatinModern, Asana-Math, Asana" />
  <path
     d="m 93.07794,392.81223 v -1.09089 h -1.12608 c -3.1671,0 -3.27267,-0.38709 -3.27267,-1.68912 v -19.74159 c 0,-0.84456 0,-0.91494 -0.80937,-0.91494 -2.18178,2.25216 -5.2785,2.25216 -6.40458,2.25216 v 1.09089 c 0.7038,0 2.78001,0 4.60989,-0.91494 v 18.22842 c 0,1.26684 -0.10557,1.68912 -3.27267,1.68912 h -1.12608 v 1.09089 c 1.23165,-0.10557 4.29318,-0.10557 5.70078,-0.10557 1.4076,0 4.46913,0 5.70078,0.10557 z"
     stroke="#000000"
     stroke-opacity="1"
     stroke-width="0.28152"
     fill="#000000"
     fill-opacity="1"
     id="path91"
     style="font-family:LatinModern-Math, LatinModern, Asana-Math, Asana" />
  <path
     d="m 400.87128,178.79958 c 0,-0.32351 -0.2941,-0.32351 -0.67643,-0.32351 -1.82342,0 -1.82342,-0.20587 -1.91165,-1.05876 l -1.79401,-18.38125 c -0.0588,-0.5882 -0.0588,-0.70584 -0.55879,-0.70584 -0.47056,0 -0.5882,0.20587 -0.76466,0.49997 l -10.23468,17.17544 c -1.1764,1.97047 -2.32339,2.38221 -3.61743,2.47044 -0.35292,0.0294 -0.61761,0.0294 -0.61761,0.5882 0,0.17646 0.14705,0.32351 0.38233,0.32351 0.79407,0 1.70578,-0.0882 2.52926,-0.0882 0.97053,0 1.99988,0.0882 2.941,0.0882 0.17646,0 0.55879,0 0.55879,-0.55879 0,-0.32351 -0.26469,-0.35292 -0.47056,-0.35292 -0.67643,-0.0588 -1.38227,-0.2941 -1.38227,-1.02935 0,-0.35292 0.17646,-0.67643 0.41174,-1.08817 0.20587,-0.35292 0.23528,-0.35292 2.23516,-3.76448 h 7.38191 c 0.0588,0.61761 0.47056,4.61737 0.47056,4.91147 0,0.8823 -1.52932,0.97053 -2.11752,0.97053 -0.41174,0 -0.70584,0 -0.70584,0.5882 0,0.32351 0.41174,0.32351 0.41174,0.32351 1.20581,0 2.47044,-0.0882 3.67625,-0.0882 0.73525,0 2.58808,0.0882 3.32333,0.0882 0.17646,0 0.52938,0 0.52938,-0.5882 z m -5.67613,-7.11722 h -6.73489 l 5.79377,-9.7053 z"
     stroke="#000000"
     stroke-opacity="1"
     stroke-width="0.23528"
     fill="#000000"
     fill-opacity="1"
     id="path95"
     style="font-family:LatinModern-Math, LatinModern, Asana-Math, Asana" />
  <path
     d="m 431.7896,169.18251 c 0,-0.32351 -0.26469,-0.5882 -0.5882,-0.5882 h -18.41066 c -0.32351,0 -0.5882,0.26469 -0.5882,0.5882 0,0.32351 0.26469,0.5882 0.5882,0.5882 h 18.41066 c 0.32351,0 0.5882,-0.26469 0.5882,-0.5882 z m 0,5.70554 c 0,-0.32351 -0.26469,-0.5882 -0.5882,-0.5882 h -18.41066 c -0.32351,0 -0.5882,0.26469 -0.5882,0.5882 0,0.32351 0.26469,0.5882 0.5882,0.5882 h 18.41066 c 0.32351,0 0.5882,-0.26469 0.5882,-0.5882 z"
     stroke="#000000"
     stroke-opacity="1"
     stroke-width="0.23528"
     fill="#000000"
     fill-opacity="1"
     id="path97"
     style="font-family:LatinModern-Math, LatinModern, Asana-Math, Asana" />
  <path
     d="m 454.75478,186.74291 c 0,-0.20587 -0.14705,-0.35292 -0.35292,-0.35292 -2.20575,0 -3.8233,-1.44109 -3.8233,-2.97041 v -7.3525 c 0,-1.70578 -1.41168,-3.05864 -3.38215,-3.67625 1.97047,-0.61761 3.38215,-1.97047 3.38215,-3.67625 v -7.3525 c 0,-1.52932 1.61755,-2.97041 3.8233,-2.97041 0.20587,0 0.35292,-0.14705 0.35292,-0.35292 0,-0.20587 -0.14705,-0.35292 -0.35292,-0.35292 -3.08805,0 -5.76436,1.52932 -5.76436,3.67625 v 7.3525 c 0,1.70578 -1.61755,3.32333 -3.8233,3.32333 -0.20587,0 -0.35292,0.14705 -0.35292,0.35292 0,0.20587 0.14705,0.35292 0.35292,0.35292 2.20575,0 3.8233,1.61755 3.8233,3.32333 v 7.3525 c 0,2.14693 2.67631,3.67625 5.76436,3.67625 0.20587,0 0.35292,-0.14705 0.35292,-0.35292 z"
     stroke="#000000"
     stroke-opacity="1"
     stroke-width="0.23528"
     fill="#000000"
     fill-opacity="1"
     id="path99"
     style="font-family:LatinModern-Math, LatinModern, Asana-Math, Asana" />
  <path
     d="m 473.06838,175.18215 c 0,-0.2941 -0.26469,-0.2941 -0.35292,-0.2941 -0.2941,0 -0.32351,0.11764 -0.41174,0.52938 -0.49997,1.91165 -1.02935,3.64684 -2.23516,3.64684 -0.79407,0 -0.8823,-0.76466 -0.8823,-1.35286 0,-0.64702 0.0588,-0.8823 0.38233,-2.17634 l 0.64702,-2.6469 1.05876,-4.1174 c 0.20587,-0.82348 0.20587,-0.8823 0.20587,-0.99994 0,-0.49997 -0.35292,-0.79407 -0.85289,-0.79407 -0.70584,0 -1.14699,0.64702 -1.23522,1.29404 -0.52938,-1.08817 -1.38227,-1.88224 -2.70572,-1.88224 -3.44097,0 -7.08781,4.32327 -7.08781,8.61713 0,2.76454 1.61755,4.7056 3.91153,4.7056 0.5882,0 2.0587,-0.11764 3.8233,-2.20575 0.23528,1.23522 1.26463,2.20575 2.67631,2.20575 1.02935,0 1.70578,-0.67643 2.17634,-1.61755 0.49997,-1.05876 0.8823,-2.91159 0.8823,-2.91159 z m -4.02917,-5.55849 c 0,0.17646 -0.0588,0.35292 -0.0882,0.49997 l -1.4705,5.76436 c -0.14705,0.52938 -0.14705,0.5882 -0.5882,1.08817 -1.29404,1.61755 -2.49985,2.08811 -3.32333,2.08811 -1.4705,0 -1.88224,-1.61755 -1.88224,-2.76454 0,-1.4705 0.94112,-5.08793 1.61755,-6.44079 0.91171,-1.73519 2.23516,-2.82336 3.41156,-2.82336 1.91165,0 2.32339,2.41162 2.32339,2.58808 z"
     stroke="#000000"
     stroke-opacity="1"
     stroke-width="0.23528"
     fill="#000000"
     fill-opacity="1"
     id="path101"
     style="font-family:LatinModern-Math, LatinModern, Asana-Math, Asana" />
  <path
     d="m 479.95916,179.35837 c 0,-1.94106 -0.73525,-3.08805 -1.88224,-3.08805 -0.97053,0 -1.55873,0.73525 -1.55873,1.55873 0,0.79407 0.5882,1.55873 1.55873,1.55873 0.35292,0 0.73525,-0.11764 1.02935,-0.38233 0.0882,-0.0588 0.14705,-0.0882 0.14705,-0.0882 0,0 0.0588,0.0294 0.0588,0.44115 0,2.17634 -1.02935,3.94094 -1.99988,4.91147 -0.32351,0.32351 -0.32351,0.38233 -0.32351,0.47056 0,0.20587 0.14705,0.32351 0.2941,0.32351 0.32351,0 2.67631,-2.26457 2.67631,-5.70554 z"
     stroke="#000000"
     stroke-opacity="1"
     stroke-width="0.23528"
     fill="#000000"
     fill-opacity="1"
     id="path103"
     style="font-family:LatinModern-Math, LatinModern, Asana-Math, Asana" />
  <path
     d="m 500.26073,171.09416 c 0,-2.67631 -1.55873,-4.7056 -3.91153,-4.7056 -1.35286,0 -2.55867,0.85289 -3.44097,1.7646 l 2.17634,-8.85241 c 0,0 0,-0.32351 -0.38233,-0.32351 -0.67643,0 -2.82336,0.23528 -3.58802,0.2941 -0.23528,0.0294 -0.55879,0.0588 -0.55879,0.5882 0,0.35292 0.26469,0.35292 0.70584,0.35292 1.41168,0 1.4705,0.20587 1.4705,0.49997 0,0.20587 -0.26469,1.20581 -0.41174,1.82342 l -2.41162,9.58766 c -0.35292,1.4705 -0.47056,1.94106 -0.47056,2.97041 0,2.79395 1.55873,4.61737 3.73507,4.61737 3.47038,0 7.08781,-4.38209 7.08781,-8.61713 z m -2.11752,-1.29404 c 0,1.73519 -0.97053,5.11734 -1.49991,6.23492 -0.97053,1.97047 -2.32339,3.02923 -3.47038,3.02923 -0.99994,0 -1.97047,-0.79407 -1.97047,-2.97041 0,-0.55879 0,-1.11758 0.47056,-2.97041 l 0.64702,-2.70572 c 0.17646,-0.64702 0.17646,-0.70584 0.44115,-1.02935 1.44109,-1.91165 2.76454,-2.3528 3.5292,-2.3528 1.05876,0 1.85283,0.8823 1.85283,2.76454 z"
     stroke="#000000"
     stroke-opacity="1"
     stroke-width="0.23528"
     fill="#000000"
     fill-opacity="1"
     id="path105"
     style="font-family:LatinModern-Math, LatinModern, Asana-Math, Asana" />
  <path
     d="m 506.6369,179.35837 c 0,-1.94106 -0.73525,-3.08805 -1.88224,-3.08805 -0.97053,0 -1.55873,0.73525 -1.55873,1.55873 0,0.79407 0.5882,1.55873 1.55873,1.55873 0.35292,0 0.73525,-0.11764 1.02935,-0.38233 0.0882,-0.0588 0.14705,-0.0882 0.14705,-0.0882 0,0 0.0588,0.0294 0.0588,0.44115 0,2.17634 -1.02935,3.94094 -1.99988,4.91147 -0.32351,0.32351 -0.32351,0.38233 -0.32351,0.47056 0,0.20587 0.14705,0.32351 0.2941,0.32351 0.32351,0 2.67631,-2.26457 2.67631,-5.70554 z"
     stroke="#000000"
     stroke-opacity="1"
     stroke-width="0.23528"
     fill="#000000"
     fill-opacity="1"
     id="path107"
     style="font-family:LatinModern-Math, LatinModern, Asana-Math, Asana" />
  <path
     d="m 527.37962,176.24091 c 0,-0.17646 -0.17646,-0.38233 -0.35292,-0.38233 -0.14705,0 -0.20587,0.0588 -0.38233,0.2941 -2.32339,2.91159 -5.52908,2.91159 -5.882,2.91159 -1.85283,0 -2.6469,-1.44109 -2.6469,-3.20569 0,-1.20581 0.5882,-4.05858 1.58814,-5.882 0.91171,-1.67637 2.52926,-2.941 4.14681,-2.941 0.99994,0 2.11752,0.38233 2.52926,1.1764 -0.47056,0 -0.8823,0 -1.29404,0.41174 -0.47056,0.44115 -0.52938,0.94112 -0.52938,1.14699 0,0.70584 0.52938,1.02935 1.08817,1.02935 0.85289,0 1.64696,-0.70584 1.64696,-1.88224 0,-1.44109 -1.38227,-2.52926 -3.47038,-2.52926 -3.97035,0 -7.88188,4.20563 -7.88188,8.35244 0,2.6469 1.70578,4.97029 4.76442,4.97029 4.20563,0 6.67607,-3.11746 6.67607,-3.47038 z"
     stroke="#000000"
     stroke-opacity="1"
     stroke-width="0.23528"
     fill="#000000"
     fill-opacity="1"
     id="path109"
     style="font-family:LatinModern-Math, LatinModern, Asana-Math, Asana" />
  <path
     d="m 541.4326,172.39083 c 0,-0.20587 -0.14705,-0.35292 -0.35292,-0.35292 -2.20575,0 -3.8233,-1.61755 -3.8233,-3.32333 v -7.3525 c 0,-2.14693 -2.67631,-3.67625 -5.76436,-3.67625 -0.20587,0 -0.35292,0.14705 -0.35292,0.35292 0,0.20587 0.14705,0.35292 0.35292,0.35292 2.20575,0 3.8233,1.44109 3.8233,2.97041 v 7.3525 c 0,1.70578 1.41168,3.05864 3.38215,3.67625 -1.97047,0.61761 -3.38215,1.97047 -3.38215,3.67625 v 7.3525 c 0,1.52932 -1.61755,2.97041 -3.8233,2.97041 -0.20587,0 -0.35292,0.14705 -0.35292,0.35292 0,0.20587 0.14705,0.35292 0.35292,0.35292 3.08805,0 5.76436,-1.52932 5.76436,-3.67625 v -7.3525 c 0,-1.70578 1.61755,-3.32333 3.8233,-3.32333 0.20587,0 0.35292,-0.14705 0.35292,-0.35292 z"
     stroke="#000000"
     stroke-opacity="1"
     stroke-width="0.23528"
     fill="#000000"
     fill-opacity="1"
     id="path111"
     style="font-family:LatinModern-Math, LatinModern, Asana-Math, Asana" />
  <path
     d="m 406.20461,363.97736 c 0,-0.32351 -0.2941,-0.32351 -0.67643,-0.32351 -1.82342,0 -1.82342,-0.20587 -1.91165,-1.05876 l -1.79401,-18.38125 c -0.0588,-0.5882 -0.0588,-0.70584 -0.55879,-0.70584 -0.47056,0 -0.5882,0.20587 -0.76466,0.49997 l -10.23468,17.17544 c -1.1764,1.97047 -2.32339,2.38221 -3.61743,2.47044 -0.35292,0.0294 -0.61761,0.0294 -0.61761,0.5882 0,0.17646 0.14705,0.32351 0.38233,0.32351 0.79407,0 1.70578,-0.0882 2.52926,-0.0882 0.97053,0 1.99988,0.0882 2.941,0.0882 0.17646,0 0.55879,0 0.55879,-0.55879 0,-0.32351 -0.26469,-0.35292 -0.47056,-0.35292 -0.67643,-0.0588 -1.38227,-0.2941 -1.38227,-1.02935 0,-0.35292 0.17646,-0.67643 0.41174,-1.08817 0.20587,-0.35292 0.23528,-0.35292 2.23516,-3.76448 h 7.38191 c 0.0588,0.61761 0.47056,4.61737 0.47056,4.91147 0,0.8823 -1.52932,0.97053 -2.11752,0.97053 -0.41174,0 -0.70584,0 -0.70584,0.5882 0,0.32351 0.41174,0.32351 0.41174,0.32351 1.20581,0 2.47044,-0.0882 3.67625,-0.0882 0.73525,0 2.58808,0.0882 3.32333,0.0882 0.17646,0 0.52938,0 0.52938,-0.5882 z m -5.67613,-7.11722 h -6.73489 l 5.79377,-9.7053 z"
     stroke="#000000"
     stroke-opacity="1"
     stroke-width="0.23528"
     fill="#000000"
     fill-opacity="1"
     id="path115"
     style="font-family:LatinModern-Math, LatinModern, Asana-Math, Asana" />
  <path
     d="m 437.12294,354.36029 c 0,-0.32351 -0.26469,-0.5882 -0.5882,-0.5882 h -18.41066 c -0.32351,0 -0.5882,0.26469 -0.5882,0.5882 0,0.32351 0.26469,0.5882 0.5882,0.5882 h 18.41066 c 0.32351,0 0.5882,-0.26469 0.5882,-0.5882 z m 0,5.70554 c 0,-0.32351 -0.26469,-0.5882 -0.5882,-0.5882 h -18.41066 c -0.32351,0 -0.5882,0.26469 -0.5882,0.5882 0,0.32351 0.26469,0.5882 0.5882,0.5882 h 18.41066 c 0.32351,0 0.5882,-0.26469 0.5882,-0.5882 z"
     stroke="#000000"
     stroke-opacity="1"
     stroke-width="0.23528"
     fill="#000000"
     fill-opacity="1"
     id="path117"
     style="font-family:LatinModern-Math, LatinModern, Asana-Math, Asana" />
  <path
     d="m 460.08812,371.90958 c 0,-0.20587 -0.14705,-0.35292 -0.35292,-0.35292 -2.20575,0 -3.8233,-1.44109 -3.8233,-2.97041 v -7.3525 c 0,-1.70578 -1.41168,-3.05864 -3.38215,-3.67625 1.97047,-0.61761 3.38215,-1.97047 3.38215,-3.67625 v -7.3525 c 0,-1.52932 1.61755,-2.97041 3.8233,-2.97041 0.20587,0 0.35292,-0.14705 0.35292,-0.35292 0,-0.20587 -0.14705,-0.35292 -0.35292,-0.35292 -3.08805,0 -5.76436,1.52932 -5.76436,3.67625 v 7.3525 c 0,1.70578 -1.61755,3.32333 -3.8233,3.32333 -0.20587,0 -0.35292,0.14705 -0.35292,0.35292 0,0.20587 0.14705,0.35292 0.35292,0.35292 2.20575,0 3.8233,1.61755 3.8233,3.32333 v 7.3525 c 0,2.14693 2.67631,3.67625 5.76436,3.67625 0.20587,0 0.35292,-0.14705 0.35292,-0.35292 z"
     stroke="#000000"
     stroke-opacity="1"
     stroke-width="0.23528"
     fill="#000000"
     fill-opacity="1"
     id="path119"
     style="font-family:LatinModern-Math, LatinModern, Asana-Math, Asana" />
  <path
     d="m 477.28413,355.15436 c 0,-2.3528 -0.14705,-4.7056 -1.1764,-6.88194 -1.35286,-2.82336 -3.76448,-3.29392 -4.9997,-3.29392 -1.7646,0 -3.91153,0.76466 -5.11734,3.49979 -0.94112,2.02929 -1.08817,4.32327 -1.08817,6.67607 0,2.20575 0.11764,4.85265 1.32345,7.08781 1.26463,2.38221 3.41156,2.97041 4.85265,2.97041 1.58814,0 3.8233,-0.61761 5.11734,-3.41156 0.94112,-2.02929 1.08817,-4.32327 1.08817,-6.64666 z m -2.44103,-0.35292 c 0,2.20575 0,4.20563 -0.32351,6.08787 -0.44115,2.79395 -2.11752,3.67625 -3.44097,3.67625 -1.14699,0 -2.88218,-0.73525 -3.41156,-3.55861 -0.32351,-1.7646 -0.32351,-4.47032 -0.32351,-6.20551 0,-1.88224 0,-3.8233 0.23528,-5.41144 0.55879,-3.49979 2.76454,-3.76448 3.49979,-3.76448 0.97053,0 2.91159,0.52938 3.47038,3.44097 0.2941,1.64696 0.2941,3.88212 0.2941,5.73495 z"
     stroke="#000000"
     stroke-opacity="1"
     stroke-width="0.23528"
     fill="#000000"
     fill-opacity="1"
     id="path121"
     style="font-family:LatinModern-Math, LatinModern, Asana-Math, Asana" />
  <path
     d="m 484.4258,364.53615 c 0,-1.94106 -0.73525,-3.08805 -1.88224,-3.08805 -0.97053,0 -1.55873,0.73525 -1.55873,1.55873 0,0.79407 0.5882,1.55873 1.55873,1.55873 0.35292,0 0.73525,-0.11764 1.02935,-0.38233 0.0882,-0.0588 0.14705,-0.0882 0.14705,-0.0882 0,0 0.0588,0.0294 0.0588,0.44115 0,2.17634 -1.02935,3.94094 -1.99988,4.91147 -0.32351,0.32351 -0.32351,0.38233 -0.32351,0.47056 0,0.20587 0.14705,0.32351 0.2941,0.32351 0.32351,0 2.67631,-2.26457 2.67631,-5.70554 z"
     stroke="#000000"
     stroke-opacity="1"
     stroke-width="0.23528"
     fill="#000000"
     fill-opacity="1"
     id="path123"
     style="font-family:LatinModern-Math, LatinModern, Asana-Math, Asana" />
  <path
     d="m 504.84501,364.56556 v -0.91171 h -0.94112 c -2.6469,0 -2.73513,-0.32351 -2.73513,-1.41168 v -16.49901 c 0,-0.70584 0,-0.76466 -0.67643,-0.76466 -1.82342,1.88224 -4.4115,1.88224 -5.35262,1.88224 v 0.91171 c 0.5882,0 2.32339,0 3.85271,-0.76466 v 15.23438 c 0,1.05876 -0.0882,1.41168 -2.73513,1.41168 h -0.94112 v 0.91171 c 1.02935,-0.0882 3.58802,-0.0882 4.76442,-0.0882 1.1764,0 3.73507,0 4.76442,0.0882 z"
     stroke="#000000"
     stroke-opacity="1"
     stroke-width="0.23528"
     fill="#000000"
     fill-opacity="1"
     id="path125"
     style="font-family:LatinModern-Math, LatinModern, Asana-Math, Asana" />
  <path
     d="m 521.18813,357.5575 c 0,-0.20587 -0.14705,-0.35292 -0.35292,-0.35292 -2.20575,0 -3.8233,-1.61755 -3.8233,-3.32333 v -7.3525 c 0,-2.14693 -2.67631,-3.67625 -5.76436,-3.67625 -0.20587,0 -0.35292,0.14705 -0.35292,0.35292 0,0.20587 0.14705,0.35292 0.35292,0.35292 2.20575,0 3.8233,1.44109 3.8233,2.97041 v 7.3525 c 0,1.70578 1.41168,3.05864 3.38215,3.67625 -1.97047,0.61761 -3.38215,1.97047 -3.38215,3.67625 v 7.3525 c 0,1.52932 -1.61755,2.97041 -3.8233,2.97041 -0.20587,0 -0.35292,0.14705 -0.35292,0.35292 0,0.20587 0.14705,0.35292 0.35292,0.35292 3.08805,0 5.76436,-1.52932 5.76436,-3.67625 v -7.3525 c 0,-1.70578 1.61755,-3.32333 3.8233,-3.32333 0.20587,0 0.35292,-0.14705 0.35292,-0.35292 z"
     stroke="#000000"
     stroke-opacity="1"
     stroke-width="0.23528"
     fill="#000000"
     fill-opacity="1"
     id="path127"
     style="font-family:LatinModern-Math, LatinModern, Asana-Math, Asana" />
  <path
     d="m 293.02073,408.55143 c 0,-2.8152 -0.17595,-5.6304 -1.4076,-8.23446 -1.61874,-3.37824 -4.50432,-3.94128 -5.9823,-3.94128 -2.1114,0 -4.68027,0.91494 -6.12306,4.18761 -1.12608,2.42811 -1.30203,5.17293 -1.30203,7.98813 0,2.63925 0.14076,5.80635 1.58355,8.48079 1.51317,2.85039 4.08204,3.55419 5.80635,3.55419 1.90026,0 4.5747,-0.73899 6.12306,-4.08204 1.12608,-2.42811 1.30203,-5.17293 1.30203,-7.95294 z m -2.92077,-0.42228 c 0,2.63925 0,5.03217 -0.38709,7.28433 -0.52785,3.34305 -2.53368,4.39875 -4.11723,4.39875 -1.37241,0 -3.44862,-0.87975 -4.08204,-4.25799 -0.38709,-2.1114 -0.38709,-5.34888 -0.38709,-7.42509 0,-2.25216 0,-4.5747 0.28152,-6.47496 0.66861,-4.18761 3.30786,-4.50432 4.18761,-4.50432 1.16127,0 3.48381,0.63342 4.15242,4.11723 0.3519,1.97064 0.3519,4.64508 0.3519,6.86205 z"
     stroke="#000000"
     stroke-opacity="1"
     stroke-width="0.28152"
     fill="#000000"
     fill-opacity="1"
     id="path131"
     style="font-family:LatinModern-Math, LatinModern, Asana-Math, Asana" />
  <path
     d="m 207.02073,348.05143 c 0,-2.8152 -0.17595,-5.6304 -1.4076,-8.23446 -1.61874,-3.37824 -4.50432,-3.94128 -5.9823,-3.94128 -2.1114,0 -4.68027,0.91494 -6.12306,4.18761 -1.12608,2.42811 -1.30203,5.17293 -1.30203,7.98813 0,2.63925 0.14076,5.80635 1.58355,8.48079 1.51317,2.85039 4.08204,3.55419 5.80635,3.55419 1.90026,0 4.5747,-0.73899 6.12306,-4.08204 1.12608,-2.42811 1.30203,-5.17293 1.30203,-7.95294 z m -2.92077,-0.42228 c 0,2.63925 0,5.03217 -0.38709,7.28433 -0.52785,3.34305 -2.53368,4.39875 -4.11723,4.39875 -1.37241,0 -3.44862,-0.87975 -4.08204,-4.25799 -0.38709,-2.1114 -0.38709,-5.34888 -0.38709,-7.42509 0,-2.25216 0,-4.5747 0.28152,-6.47496 0.66861,-4.18761 3.30786,-4.50432 4.18761,-4.50432 1.16127,0 3.48381,0.63342 4.15242,4.11723 0.3519,1.97064 0.3519,4.64508 0.3519,6.86205 z"
     stroke="#000000"
     stroke-opacity="1"
     stroke-width="0.28152"
     fill="#000000"
     fill-opacity="1"
     id="path135"
     style="font-family:LatinModern-Math, LatinModern, Asana-Math, Asana" />
  <path
     d="m 126.19129,26.280053 c 0,-0.3519 -0.31671,-0.3519 -0.42228,-0.3519 -0.3519,0 -0.38709,0.14076 -0.49266,0.63342 -0.59823,2.28735 -1.23165,4.36356 -2.67444,4.36356 -0.95013,0 -1.0557,-0.91494 -1.0557,-1.61874 0,-0.77418 0.0704,-1.0557 0.45747,-2.60406 l 0.77418,-3.1671 1.26684,-4.9266 c 0.24633,-0.98532 0.24633,-1.0557 0.24633,-1.19646 0,-0.59823 -0.42228,-0.95013 -1.02051,-0.95013 -0.84456,0 -1.37241,0.77418 -1.47798,1.54836 -0.63342,-1.30203 -1.65393,-2.25216 -3.23748,-2.25216 -4.11723,0 -8.48079,5.17293 -8.48079,10.31067 0,3.30786 1.93545,5.6304 4.68027,5.6304 0.7038,0 2.4633,-0.14076 4.5747,-2.63925 0.28152,1.47798 1.51317,2.63925 3.20229,2.63925 1.23165,0 2.04102,-0.80937 2.60406,-1.93545 0.59823,-1.26684 1.0557,-3.48381 1.0557,-3.48381 z m -4.82103,-6.65091 c 0,0.21114 -0.0704,0.42228 -0.10557,0.59823 l -1.7595,6.89724 c -0.17595,0.63342 -0.17595,0.7038 -0.7038,1.30203 -1.54836,1.93545 -2.99115,2.49849 -3.97647,2.49849 -1.7595,0 -2.25216,-1.93545 -2.25216,-3.30786 0,-1.7595 1.12608,-6.08787 1.93545,-7.70661 1.09089,-2.07621 2.67444,-3.37824 4.08204,-3.37824 2.28735,0 2.78001,2.88558 2.78001,3.09672 z"
     stroke="#000000"
     stroke-opacity="1"
     stroke-width="0.28152"
     fill="#000000"
     fill-opacity="1"
     id="path139"
     style="font-family:LatinModern-Math, LatinModern, Asana-Math, Asana" />
  <path
     d="m 207.49907,35.0074 c 0,-1.52932 -1.73519,-1.94106 -2.73513,-1.94106 -1.70578,0 -2.73513,1.55873 -3.08805,2.23516 -0.73525,-1.94106 -2.32339,-2.23516 -3.17628,-2.23516 -3.05864,0 -4.73501,3.79389 -4.73501,4.52914 0,0.2941 0.35292,0.2941 0.35292,0.2941 0.23528,0 0.32351,-0.0588 0.38233,-0.32351 0.99994,-3.11746 2.941,-3.85271 3.94094,-3.85271 0.55879,0 1.58814,0.26469 1.58814,1.97047 0,0.91171 -0.49997,2.88218 -1.58814,6.99958 -0.47056,1.82342 -1.49991,3.05864 -2.79395,3.05864 -0.17646,0 -0.85289,0 -1.4705,-0.38233 0.73525,-0.14705 1.38227,-0.76466 1.38227,-1.58814 0,-0.79407 -0.64702,-1.02935 -1.08817,-1.02935 -0.8823,0 -1.61755,0.76466 -1.61755,1.70578 0,1.35286 1.4705,1.94106 2.76454,1.94106 1.94106,0 2.99982,-2.0587 3.08805,-2.23516 0.35292,1.08817 1.41168,2.23516 3.17628,2.23516 3.02923,0 4.7056,-3.79389 4.7056,-4.52914 0,-0.2941 -0.26469,-0.2941 -0.35292,-0.2941 -0.26469,0 -0.32351,0.11764 -0.38233,0.32351 -0.97053,3.14687 -2.97041,3.85271 -3.91153,3.85271 -1.14699,0 -1.61755,-0.94112 -1.61755,-1.94106 0,-0.64702 0.17646,-1.29404 0.49997,-2.58808 l 0.99994,-4.02917 c 0.17646,-0.76466 0.85289,-3.47038 2.91159,-3.47038 0.14705,0 0.85289,0 1.4705,0.38233 -0.82348,0.14705 -1.41168,0.8823 -1.41168,1.58814 0,0.47056 0.32351,1.02935 1.11758,1.02935 0.64702,0 1.58814,-0.52938 1.58814,-1.70578 z"
     stroke="#000000"
     stroke-opacity="1"
     stroke-width="0.23528"
     fill="#000000"
     fill-opacity="1"
     id="path143"
     style="font-family:LatinModern-Math, LatinModern, Asana-Math, Asana" />
  <path
     d="m 394.87128,43.47736 c 0,-0.32351 -0.2941,-0.32351 -0.67643,-0.32351 -1.82342,0 -1.82342,-0.20587 -1.91165,-1.05876 l -1.79401,-18.38125 c -0.0588,-0.5882 -0.0588,-0.70584 -0.55879,-0.70584 -0.47056,0 -0.5882,0.20587 -0.76466,0.49997 l -10.23468,17.17544 c -1.1764,1.97047 -2.32339,2.38221 -3.61743,2.47044 -0.35292,0.0294 -0.61761,0.0294 -0.61761,0.5882 0,0.17646 0.14705,0.32351 0.38233,0.32351 0.79407,0 1.70578,-0.0882 2.52926,-0.0882 0.97053,0 1.99988,0.0882 2.941,0.0882 0.17646,0 0.55879,0 0.55879,-0.55879 0,-0.32351 -0.26469,-0.35292 -0.47056,-0.35292 -0.67643,-0.0588 -1.38227,-0.2941 -1.38227,-1.02935 0,-0.35292 0.17646,-0.67643 0.41174,-1.08817 0.20587,-0.35292 0.23528,-0.35292 2.23516,-3.76448 h 7.38191 c 0.0588,0.61761 0.47056,4.61737 0.47056,4.91147 0,0.8823 -1.52932,0.97053 -2.11752,0.97053 -0.41174,0 -0.70584,0 -0.70584,0.5882 0,0.32351 0.41174,0.32351 0.41174,0.32351 1.20581,0 2.47044,-0.0882 3.67625,-0.0882 0.73525,0 2.58808,0.0882 3.32333,0.0882 0.17646,0 0.52938,0 0.52938,-0.5882 z m -5.67613,-7.11722 h -6.73489 l 5.79377,-9.7053 z"
     stroke="#000000"
     stroke-opacity="1"
     stroke-width="0.23528"
     fill="#000000"
     fill-opacity="1"
     id="path147"
     style="font-family:LatinModern-Math, LatinModern, Asana-Math, Asana" />
  <path
     d="m 425.7896,33.86029 c 0,-0.32351 -0.26469,-0.5882 -0.5882,-0.5882 h -18.41066 c -0.32351,0 -0.5882,0.26469 -0.5882,0.5882 0,0.32351 0.26469,0.5882 0.5882,0.5882 h 18.41066 c 0.32351,0 0.5882,-0.26469 0.5882,-0.5882 z m 0,5.70554 c 0,-0.32351 -0.26469,-0.5882 -0.5882,-0.5882 h -18.41066 c -0.32351,0 -0.5882,0.26469 -0.5882,0.5882 0,0.32351 0.26469,0.5882 0.5882,0.5882 h 18.41066 c 0.32351,0 0.5882,-0.26469 0.5882,-0.5882 z"
     stroke="#000000"
     stroke-opacity="1"
     stroke-width="0.23528"
     fill="#000000"
     fill-opacity="1"
     id="path149"
     style="font-family:LatinModern-Math, LatinModern, Asana-Math, Asana" />
  <path
     d="m 448.75478,51.40958 c 0,-0.20587 -0.14705,-0.35292 -0.35292,-0.35292 -2.20575,0 -3.8233,-1.44109 -3.8233,-2.97041 v -7.3525 c 0,-1.70578 -1.41168,-3.05864 -3.38215,-3.67625 1.97047,-0.61761 3.38215,-1.97047 3.38215,-3.67625 v -7.3525 c 0,-1.52932 1.61755,-2.97041 3.8233,-2.97041 0.20587,0 0.35292,-0.14705 0.35292,-0.35292 0,-0.20587 -0.14705,-0.35292 -0.35292,-0.35292 -3.08805,0 -5.76436,1.52932 -5.76436,3.67625 v 7.3525 c 0,1.70578 -1.61755,3.32333 -3.8233,3.32333 -0.20587,0 -0.35292,0.14705 -0.35292,0.35292 0,0.20587 0.14705,0.35292 0.35292,0.35292 2.20575,0 3.8233,1.61755 3.8233,3.32333 v 7.3525 c 0,2.14693 2.67631,3.67625 5.76436,3.67625 0.20587,0 0.35292,-0.14705 0.35292,-0.35292 z"
     stroke="#000000"
     stroke-opacity="1"
     stroke-width="0.23528"
     fill="#000000"
     fill-opacity="1"
     id="path151"
     style="font-family:LatinModern-Math, LatinModern, Asana-Math, Asana" />
  <path
     d="m 467.06838,39.85993 c 0,-0.2941 -0.26469,-0.2941 -0.35292,-0.2941 -0.2941,0 -0.32351,0.11764 -0.41174,0.52938 -0.49997,1.91165 -1.02935,3.64684 -2.23516,3.64684 -0.79407,0 -0.8823,-0.76466 -0.8823,-1.35286 0,-0.64702 0.0588,-0.8823 0.38233,-2.17634 l 0.64702,-2.6469 1.05876,-4.1174 c 0.20587,-0.82348 0.20587,-0.8823 0.20587,-0.99994 0,-0.49997 -0.35292,-0.79407 -0.85289,-0.79407 -0.70584,0 -1.14699,0.64702 -1.23522,1.29404 -0.52938,-1.08817 -1.38227,-1.88224 -2.70572,-1.88224 -3.44097,0 -7.08781,4.32327 -7.08781,8.61713 0,2.76454 1.61755,4.7056 3.91153,4.7056 0.5882,0 2.0587,-0.11764 3.8233,-2.20575 0.23528,1.23522 1.26463,2.20575 2.67631,2.20575 1.02935,0 1.70578,-0.67643 2.17634,-1.61755 0.49997,-1.05876 0.8823,-2.91159 0.8823,-2.91159 z m -4.02917,-5.55849 c 0,0.17646 -0.0588,0.35292 -0.0882,0.49997 l -1.4705,5.76436 c -0.14705,0.52938 -0.14705,0.5882 -0.5882,1.08817 -1.29404,1.61755 -2.49985,2.08811 -3.32333,2.08811 -1.4705,0 -1.88224,-1.61755 -1.88224,-2.76454 0,-1.4705 0.94112,-5.08793 1.61755,-6.44079 0.91171,-1.73519 2.23516,-2.82336 3.41156,-2.82336 1.91165,0 2.32339,2.41162 2.32339,2.58808 z"
     stroke="#000000"
     stroke-opacity="1"
     stroke-width="0.23528"
     fill="#000000"
     fill-opacity="1"
     id="path153"
     style="font-family:LatinModern-Math, LatinModern, Asana-Math, Asana" />
  <path
     d="m 473.95916,44.03615 c 0,-1.94106 -0.73525,-3.08805 -1.88224,-3.08805 -0.97053,0 -1.55873,0.73525 -1.55873,1.55873 0,0.79407 0.5882,1.55873 1.55873,1.55873 0.35292,0 0.73525,-0.11764 1.02935,-0.38233 0.0882,-0.0588 0.14705,-0.0882 0.14705,-0.0882 0,0 0.0588,0.0294 0.0588,0.44115 0,2.17634 -1.02935,3.94094 -1.99988,4.91147 -0.32351,0.32351 -0.32351,0.38233 -0.32351,0.47056 0,0.20587 0.14705,0.32351 0.2941,0.32351 0.32351,0 2.67631,-2.26457 2.67631,-5.70554 z"
     stroke="#000000"
     stroke-opacity="1"
     stroke-width="0.23528"
     fill="#000000"
     fill-opacity="1"
     id="path155"
     style="font-family:LatinModern-Math, LatinModern, Asana-Math, Asana" />
  <path
     d="m 494.26073,35.77194 c 0,-2.67631 -1.55873,-4.7056 -3.91153,-4.7056 -1.35286,0 -2.55867,0.85289 -3.44097,1.7646 l 2.17634,-8.85241 c 0,0 0,-0.32351 -0.38233,-0.32351 -0.67643,0 -2.82336,0.23528 -3.58802,0.2941 -0.23528,0.02941 -0.55879,0.05882 -0.55879,0.5882 0,0.35292 0.26469,0.35292 0.70584,0.35292 1.41168,0 1.4705,0.20587 1.4705,0.49997 0,0.20587 -0.26469,1.20581 -0.41174,1.82342 l -2.41162,9.58766 c -0.35292,1.4705 -0.47056,1.94106 -0.47056,2.97041 0,2.79395 1.55873,4.61737 3.73507,4.61737 3.47038,0 7.08781,-4.38209 7.08781,-8.61713 z m -2.11752,-1.29404 c 0,1.73519 -0.97053,5.11734 -1.49991,6.23492 -0.97053,1.97047 -2.32339,3.02923 -3.47038,3.02923 -0.99994,0 -1.97047,-0.79407 -1.97047,-2.97041 0,-0.55879 0,-1.11758 0.47056,-2.97041 l 0.64702,-2.70572 c 0.17646,-0.64702 0.17646,-0.70584 0.44115,-1.02935 1.44109,-1.91165 2.76454,-2.3528 3.5292,-2.3528 1.05876,0 1.85283,0.8823 1.85283,2.76454 z"
     stroke="#000000"
     stroke-opacity="1"
     stroke-width="0.23528"
     fill="#000000"
     fill-opacity="1"
     id="path157"
     style="font-family:LatinModern-Math, LatinModern, Asana-Math, Asana" />
  <path
     d="m 508.63255,37.0575 c 0,-0.20587 -0.14705,-0.35292 -0.35292,-0.35292 -2.20575,0 -3.8233,-1.61755 -3.8233,-3.32333 v -7.3525 c 0,-2.14693 -2.67631,-3.67625 -5.76436,-3.67625 -0.20587,0 -0.35292,0.14705 -0.35292,0.35292 0,0.20587 0.14705,0.35292 0.35292,0.35292 2.20575,0 3.8233,1.44109 3.8233,2.97041 v 7.3525 c 0,1.70578 1.41168,3.05864 3.38215,3.67625 -1.97047,0.61761 -3.38215,1.97047 -3.38215,3.67625 v 7.3525 c 0,1.52932 -1.61755,2.97041 -3.8233,2.97041 -0.20587,0 -0.35292,0.14705 -0.35292,0.35292 0,0.20587 0.14705,0.35292 0.35292,0.35292 3.08805,0 5.76436,-1.52932 5.76436,-3.67625 v -7.3525 c 0,-1.70578 1.61755,-3.32333 3.8233,-3.32333 0.20587,0 0.35292,-0.14705 0.35292,-0.35292 z"
     stroke="#000000"
     stroke-opacity="1"
     stroke-width="0.23528"
     fill="#000000"
     fill-opacity="1"
     id="path159"
     style="font-family:LatinModern-Math, LatinModern, Asana-Math, Asana" />
</svg>
