<?xml version="1.0" encoding="UTF-8" standalone="no"?>
<svg
   x="0"
   y="0"
   width="533.48523"
   height="443.47342"
   style="fill:none"
   version="1.1"
   id="svg164"
   xmlns="http://www.w3.org/2000/svg"
   xmlns:svg="http://www.w3.org/2000/svg">
  <defs
     id="defs164" />
  <svg
     class="role-diagram-draw-area"
     style="overflow:visible"
     version="1.1"
     id="svg40"
     width="100%"
     height="100%"
     transform="translate(-74.06498,-76.526573)">
    <g
       class="shapes-region"
       style="fill:none;stroke:#000000"
       id="g37">
      <g
         class="arrow-line"
         id="g3">
        <path
           class="connection real"
           stroke-dasharray="none"
           d="m 163,240.33 c 50.67,-6.31 112.77,-6.47 162.84,-0.47"
           style="fill:none;fill-opacity:1;stroke:#000000;stroke-width:2px"
           id="path1" />
        <g
           stroke="none"
           fill="#000"
           transform="rotate(-172.72,172.47781,109.6807)"
           style="fill:#000000;stroke:none;stroke-width:2px"
           id="g2">
          <path
             d="M 13.4,-6.43 0,0 13.4,6.44 8.9,0 Z"
             id="path2" />
        </g>
      </g>
      <g
         class="arrow-line"
         id="g5">
        <path
           class="connection real"
           stroke-dasharray="none"
           d="M 163,240.33 C 73.98,276.84 87.57,194.01 137.09,222.69"
           style="fill:none;fill-opacity:1;stroke:#000000;stroke-width:2px"
           id="path3" />
        <g
           stroke="none"
           fill="#000"
           transform="rotate(-146.82,103.5376,91.412233)"
           style="fill:#000000;stroke:none;stroke-width:2px"
           id="g4">
          <path
             d="M 13.4,-6.43 0,0 13.4,6.44 8.9,0 Z"
             id="path4" />
        </g>
      </g>
      <g
         class="grouped-shape"
         id="g7">
        <g
           class="composite-shape"
           id="g6">
          <path
             class="real"
             d="m 138,240.33 c 0,-13.8 11.19,-25 25,-25 13.81,0 25,11.2 25,25 0,13.81 -11.19,25 -25,25 -13.81,0 -25,-11.19 -25,-25 z"
             style="fill:#ffffff;fill-opacity:1;stroke:#000000;stroke-width:2px"
             id="path5" />
        </g>
      </g>
      <g
         class="grouped-shape"
         id="g11">
        <g
           class="grouped-shape"
           id="g10">
          <g
             class="composite-shape"
             id="g8">
            <path
               class="real"
               d="m 329.67,240.33 c 0,-13.8 11.19,-25 25,-25 13.8,0 25,11.2 25,25 0,13.81 -11.2,25 -25,25 -13.81,0 -25,-11.19 -25,-25 z"
               style="fill:#ffffff;fill-opacity:1;stroke:#000000;stroke-width:2px"
               id="path7" />
          </g>
          <g
             class="composite-shape"
             id="g9">
            <path
               class="real"
               d="m 333.67,240.11 c 0,-11.48 9.3,-20.78 20.77,-20.78 11.47,0 20.77,9.3 20.77,20.78 0,11.47 -9.3,20.77 -20.77,20.77 -11.47,0 -20.77,-9.3 -20.77,-20.77 z"
               style="fill:#ffffff;fill-opacity:1;stroke:#000000;stroke-width:2px"
               id="path8" />
          </g>
        </g>
      </g>
      <g
         class="arrow-line"
         id="g13">
        <path
           class="connection real"
           stroke-dasharray="none"
           d="m 160.33,370 c 50.67,-6.32 112.78,-6.47 162.84,-0.47"
           style="fill:none;fill-opacity:1;stroke:#000000;stroke-width:2px"
           id="path11" />
        <g
           stroke="none"
           fill="#000"
           transform="rotate(-172.72,175.26888,174.59885)"
           style="fill:#000000;stroke:none;stroke-width:2px"
           id="g12">
          <path
             d="M 13.4,-6.43 0,0 13.4,6.44 8.9,0 Z"
             id="path12" />
        </g>
      </g>
      <g
         class="arrow-line"
         id="g15">
        <path
           class="connection real"
           stroke-dasharray="none"
           d="M 160.33,370 C 71.32,406.51 84.9,323.68 134.42,352.35"
           style="fill:none;fill-opacity:1;stroke:#000000;stroke-width:2px"
           id="path13" />
        <g
           stroke="none"
           fill="#000"
           transform="rotate(-146.82,121.51961,156.6428)"
           style="fill:#000000;stroke:none;stroke-width:2px"
           id="g14">
          <path
             d="M 13.4,-6.43 0,0 13.4,6.44 8.9,0 Z"
             id="path14" />
        </g>
      </g>
      <g
         class="arrow-line"
         id="g17">
        <path
           class="connection real"
           stroke-dasharray="none"
           d="m 223,494 c 72.52,2.7 125.35,-36.15 134.02,-95.59"
           style="fill:none;fill-opacity:1;stroke:#000000;stroke-width:2px"
           id="path15" />
        <g
           stroke="none"
           fill="#000"
           transform="rotate(96.49,2.5551295,356.9435)"
           style="fill:#000000;stroke:none;stroke-width:2px"
           id="g16">
          <path
             d="M 13.4,-6.43 0,0 13.4,6.44 8.9,0 Z"
             id="path16" />
        </g>
      </g>
      <g
         class="grouped-shape"
         id="g19">
        <g
           class="composite-shape"
           id="g18">
          <path
             class="real"
             d="m 135.33,370 c 0,-13.81 11.2,-25 25,-25 13.81,0 25,11.19 25,25 0,13.81 -11.19,25 -25,25 -13.8,0 -25,-11.19 -25,-25 z"
             style="fill:#ffffff;fill-opacity:1;stroke:#000000;stroke-width:2px"
             id="path17" />
        </g>
      </g>
      <g
         class="arrow-line"
         id="g21">
        <path
           class="connection real"
           stroke-dasharray="none"
           d="M 223,494 C 184,480.59 164.8,448.65 160.63,398.86"
           style="fill:none;fill-opacity:1;stroke:#000000;stroke-width:2px"
           id="path19" />
        <g
           stroke="none"
           fill="#000"
           transform="rotate(86.15,-131.07111,283.24293)"
           style="fill:#000000;stroke:none;stroke-width:2px"
           id="g20">
          <path
             d="M 13.4,-6.43 0,0 13.4,6.44 8.9,0 Z"
             id="path20" />
        </g>
      </g>
      <g
         class="grouped-shape"
         id="g25">
        <g
           class="grouped-shape"
           id="g24">
          <g
             class="composite-shape"
             id="g22">
            <path
               class="real"
               d="m 198,494 c 0,-13.81 11.19,-25 25,-25 13.81,0 25,11.19 25,25 0,13.81 -11.19,25 -25,25 -13.81,0 -25,-11.19 -25,-25 z"
               style="fill:#ffffff;fill-opacity:1;stroke:#000000;stroke-width:2px"
               id="path21" />
          </g>
          <g
             class="composite-shape"
             id="g23">
            <path
               class="real"
               d="m 202,493.77 c 0,-11.47 9.3,-20.77 20.77,-20.77 11.48,0 20.78,9.3 20.78,20.77 0,11.48 -9.3,20.78 -20.78,20.78 -11.47,0 -20.77,-9.3 -20.77,-20.78 z"
               style="fill:#ffffff;fill-opacity:1;stroke:#000000;stroke-width:2px"
               id="path22" />
          </g>
        </g>
      </g>
      <g
         class="arrow-line"
         id="g27">
        <path
           class="connection real"
           stroke-dasharray="none"
           d="m 352,370 c -29.43,19.06 -84.94,73.27 -109.01,101.31"
           style="fill:none;fill-opacity:1;stroke:#000000;stroke-width:2px"
           id="path25" />
        <g
           stroke="none"
           fill="#000"
           transform="rotate(-50.19,626.57269,-19.639589)"
           style="fill:#000000;stroke:none;stroke-width:2px"
           id="g26">
          <path
             d="M 13.4,-6.43 0,0 13.4,6.44 8.9,0 Z"
             id="path26" />
        </g>
      </g>
      <g
         class="grouped-shape"
         id="g31">
        <g
           class="grouped-shape"
           id="g30">
          <g
             class="composite-shape"
             id="g28">
            <path
               class="real"
               d="m 327,370 c 0,-13.81 11.19,-25 25,-25 13.81,0 25,11.19 25,25 0,13.81 -11.19,25 -25,25 -13.81,0 -25,-11.19 -25,-25 z"
               style="fill:#ffffff;fill-opacity:1;stroke:#000000;stroke-width:2px"
               id="path27" />
          </g>
          <g
             class="composite-shape"
             id="g29">
            <path
               class="real"
               d="m 331,369.77 c 0,-11.47 9.3,-20.77 20.77,-20.77 11.48,0 20.78,9.3 20.78,20.77 0,11.48 -9.3,20.78 -20.78,20.78 -11.47,0 -20.77,-9.3 -20.77,-20.78 z"
               style="fill:#ffffff;fill-opacity:1;stroke:#000000;stroke-width:2px"
               id="path28" />
          </g>
        </g>
      </g>
      <g
         class="arrow-line"
         id="g33">
        <path
           class="connection real"
           stroke-dasharray="none"
           d="M 267,105 C 177.98,141.51 191.57,58.68 241.09,87.35"
           style="fill:none;fill-opacity:1;stroke:#000000;stroke-width:2px"
           id="path31" />
        <g
           stroke="none"
           fill="#000"
           transform="rotate(-146.82,135.37815,8.2535746)"
           style="fill:#000000;stroke:none;stroke-width:2px"
           id="g32">
          <path
             d="M 13.4,-6.43 0,0 13.4,6.44 8.9,0 Z"
             id="path32" />
        </g>
      </g>
      <g
         class="grouped-shape"
         id="g35">
        <g
           class="composite-shape"
           id="g34">
          <path
             class="real"
             d="m 242,105 c 0,-13.81 11.19,-25 25,-25 13.81,0 25,11.19 25,25 0,13.81 -11.19,25 -25,25 -13.81,0 -25,-11.19 -25,-25 z"
             style="fill:#ffffff;fill-opacity:1;stroke:#000000;stroke-width:2px"
             id="path33" />
        </g>
      </g>
      <g
         id="g36" />
    </g>
    <g
       id="g38" />
    <g
       id="g39" />
    <g
       id="g40" />
  </svg>
  <svg
     width="700"
     height="554"
     style="font-family:LatinModern-Math, LatinModern, Asana-Math, Asana"
     version="1.1"
     id="svg163"
     transform="translate(-74.06498,-76.526573)">
    <g
       id="g44">
      <g
         id="g43">
        <g
           id="g42">
          <g
             transform="translate(243,224.64557)"
             id="g41">
            <path
               transform="scale(0.03519,-0.03519)"
               d="m 415,282 c 0,91 -53,160 -133,160 -46,0 -87,-29 -117,-60 l 74,301 c 0,0 0,11 -13,11 -23,0 -96,-8 -122,-10 -8,-1 -19,-2 -19,-20 0,-12 9,-12 24,-12 48,0 50,-7 50,-17 0,-7 -9,-41 -14,-62 L 63,247 C 51,197 47,181 47,146 47,51 100,-11 174,-11 c 118,0 241,149 241,293 z m -72,44 C 343,267 310,152 292,114 259,47 213,11 174,11 c -34,0 -67,27 -67,101 0,19 0,38 16,101 l 22,92 c 6,22 6,24 15,35 49,65 94,80 120,80 36,0 63,-30 63,-94 z"
               stroke="#000000"
               stroke-opacity="1"
               stroke-width="8"
               fill="#000000"
               fill-opacity="1"
               id="path40" />
          </g>
        </g>
      </g>
    </g>
    <g
       id="g48">
      <g
         id="g47">
        <g
           id="g46">
          <g
             transform="translate(76,230.64557)"
             id="g45">
            <path
               transform="scale(0.03519,-0.03519)"
               d="m 430,107 c 0,6 -6,13 -12,13 -5,0 -7,-2 -13,-10 C 326,11 217,11 205,11 c -63,0 -90,49 -90,109 0,41 20,138 54,200 31,57 86,100 141,100 34,0 72,-13 86,-40 -16,0 -30,0 -44,-14 -16,-15 -18,-32 -18,-39 0,-24 18,-35 37,-35 29,0 56,24 56,64 0,49 -47,86 -118,86 C 174,442 41,299 41,158 41,68 99,-11 203,-11 346,-11 430,95 430,107 Z"
               stroke="#000000"
               stroke-opacity="1"
               stroke-width="8"
               fill="#000000"
               fill-opacity="1"
               id="path44" />
          </g>
        </g>
      </g>
    </g>
    <g
       id="g52">
      <g
         id="g51">
        <g
           id="g50">
          <g
             transform="translate(347.66667,247.38778)"
             id="g49">
            <path
               transform="scale(0.02941,-0.02941)"
               d="m 490,404 c 0,18 -14,27 -29,27 -10,0 -26,-6 -35,-21 -2,-5 -10,-36 -14,-54 L 392,276 347,96 C 343,81 300,11 234,11 c -51,0 -62,44 -62,81 0,46 17,108 51,196 16,41 20,52 20,72 0,45 -32,82 -82,82 C 66,442 29,297 29,288 c 0,-10 12,-10 12,-10 10,0 11,2 16,18 27,94 67,124 101,124 8,0 25,0 25,-32 0,-25 -10,-51 -17,-70 -40,-106 -58,-163 -58,-210 0,-89 63,-119 122,-119 39,0 73,17 101,45 -13,-52 -25,-101 -65,-154 -26,-34 -64,-63 -110,-63 -14,0 -59,3 -76,42 16,0 29,0 43,12 10,9 20,22 20,41 0,31 -27,35 -37,35 -23,0 -56,-16 -56,-65 0,-50 44,-87 106,-87 103,0 206,91 234,204 l 96,382 c 4,14 4,16 4,23 z"
               stroke="#000000"
               stroke-opacity="1"
               stroke-width="8"
               fill="#000000"
               fill-opacity="1"
               id="path48" />
          </g>
        </g>
      </g>
    </g>
    <g
       id="g56">
      <g
         id="g55">
        <g
           id="g54">
          <g
             transform="translate(154,247.38778)"
             id="g53">
            <path
               transform="scale(0.02941,-0.02941)"
               d="m 527,376 c 0,52 -59,66 -93,66 -58,0 -93,-53 -105,-76 -25,66 -79,76 -108,76 C 117,442 60,313 60,288 c 0,-10 12,-10 12,-10 8,0 11,2 13,11 34,106 100,131 134,131 19,0 54,-9 54,-67 0,-31 -17,-98 -54,-238 C 203,53 168,11 124,11 c -6,0 -29,0 -50,13 25,5 47,26 47,54 0,27 -22,35 -37,35 -30,0 -55,-26 -55,-58 0,-46 50,-66 94,-66 66,0 102,70 105,76 12,-37 48,-76 108,-76 103,0 160,129 160,154 0,10 -9,10 -12,10 -9,0 -11,-4 -13,-11 C 438,35 370,11 338,11 c -39,0 -55,32 -55,66 0,22 6,44 17,88 l 34,137 c 6,26 29,118 99,118 5,0 29,0 50,-13 -28,-5 -48,-30 -48,-54 0,-16 11,-35 38,-35 22,0 54,18 54,58 z"
               stroke="#000000"
               stroke-opacity="1"
               stroke-width="8"
               fill="#000000"
               fill-opacity="1"
               id="path52" />
          </g>
        </g>
      </g>
    </g>
    <g
       id="g60">
      <g
         id="g59">
        <g
           id="g58">
          <g
             transform="translate(240.33333,354.31223)"
             id="g57">
            <path
               transform="scale(0.03519,-0.03519)"
               d="m 419,0 v 31 h -32 c -90,0 -93,11 -93,48 v 561 c 0,24 0,26 -23,26 C 209,602 121,602 89,602 v -31 c 20,0 79,0 131,26 V 79 C 220,43 217,31 127,31 H 95 V 0 c 35,3 122,3 162,3 40,0 127,0 162,-3 z"
               stroke="#000000"
               stroke-opacity="1"
               stroke-width="8"
               fill="#000000"
               fill-opacity="1"
               id="path56" />
          </g>
        </g>
      </g>
    </g>
    <g
       id="g64">
      <g
         id="g63">
        <g
           id="g62">
          <g
             transform="translate(72.833333,360.81223)"
             id="g61">
            <path
               transform="scale(0.03519,-0.03519)"
               d="m 460,320 c 0,80 -5,160 -40,234 C 374,650 292,666 250,666 190,666 117,640 76,547 44,478 39,400 39,320 39,245 43,155 84,79 127,-2 200,-22 249,-22 c 54,0 130,21 174,116 32,69 37,147 37,226 z m -83,12 C 377,257 377,189 366,125 351,30 294,0 249,0 210,0 151,25 133,121 c -11,60 -11,152 -11,211 0,64 0,130 8,184 19,119 94,128 119,128 33,0 99,-18 118,-117 10,-56 10,-132 10,-195 z"
               stroke="#000000"
               stroke-opacity="1"
               stroke-width="8"
               fill="#000000"
               fill-opacity="1"
               id="path60" />
          </g>
        </g>
      </g>
    </g>
    <g
       id="g73">
      <g
         id="g72">
        <g
           id="g66">
          <g
             transform="translate(151.33333,377.06556)"
             id="g65">
            <path
               transform="scale(0.02941,-0.02941)"
               d="m 420,356 c 0,45 -43,86 -119,86 -132,0 -169,-102 -169,-146 0,-78 74,-93 103,-99 52,-10 104,-21 104,-76 0,-26 -23,-110 -143,-110 -14,0 -91,0 -114,53 38,-5 63,25 63,53 0,23 -16,35 -37,35 -26,0 -56,-21 -56,-66 0,-57 57,-97 143,-97 162,0 201,121 201,166 0,36 -19,61 -31,73 -27,28 -56,33 -100,42 -36,8 -76,15 -76,60 0,29 24,90 112,90 25,0 75,-7 90,-46 -28,-1 -48,-23 -48,-45 0,-14 9,-29 31,-29 22,0 46,17 46,56 z"
               stroke="#000000"
               stroke-opacity="1"
               stroke-width="8"
               fill="#000000"
               fill-opacity="1"
               id="path64" />
          </g>
        </g>
        <g
           id="g71">
          <g
             id="g70">
            <g
               id="g69">
              <g
                 id="g68">
                <g
                   transform="translate(166.02222,382.60922)"
                   id="g67">
                  <path
                     transform="scale(0.020587,-0.020587)"
                     d="m 419,0 v 31 h -32 c -90,0 -93,11 -93,48 v 561 c 0,24 0,26 -23,26 C 209,602 121,602 89,602 v -31 c 20,0 79,0 131,26 V 79 C 220,43 217,31 127,31 H 95 V 0 c 35,3 122,3 162,3 40,0 127,0 162,-3 z"
                     stroke="#000000"
                     stroke-opacity="1"
                     stroke-width="8"
                     fill="#000000"
                     fill-opacity="1"
                     id="path66" />
                </g>
              </g>
            </g>
          </g>
        </g>
      </g>
    </g>
    <g
       id="g82">
      <g
         id="g81">
        <g
           id="g75">
          <g
             transform="translate(340,374.56556)"
             id="g74">
            <path
               transform="scale(0.02941,-0.02941)"
               d="m 420,356 c 0,45 -43,86 -119,86 -132,0 -169,-102 -169,-146 0,-78 74,-93 103,-99 52,-10 104,-21 104,-76 0,-26 -23,-110 -143,-110 -14,0 -91,0 -114,53 38,-5 63,25 63,53 0,23 -16,35 -37,35 -26,0 -56,-21 -56,-66 0,-57 57,-97 143,-97 162,0 201,121 201,166 0,36 -19,61 -31,73 -27,28 -56,33 -100,42 -36,8 -76,15 -76,60 0,29 24,90 112,90 25,0 75,-7 90,-46 -28,-1 -48,-23 -48,-45 0,-14 9,-29 31,-29 22,0 46,17 46,56 z"
               stroke="#000000"
               stroke-opacity="1"
               stroke-width="8"
               fill="#000000"
               fill-opacity="1"
               id="path73" />
          </g>
        </g>
        <g
           id="g80">
          <g
             id="g79">
            <g
               id="g78">
              <g
                 id="g77">
                <g
                   transform="translate(354.67778,380.10922)"
                   id="g76">
                  <path
                     transform="scale(0.020587,-0.020587)"
                     d="m 449,174 h -25 c -5,-30 -12,-74 -22,-89 -7,-8 -73,-8 -95,-8 H 127 L 233,180 C 389,318 449,372 449,472 449,586 359,666 237,666 124,666 50,574 50,485 c 0,-56 50,-56 53,-56 17,0 52,12 52,53 0,26 -18,52 -53,52 -8,0 -10,0 -13,-1 23,65 77,102 135,102 91,0 134,-81 134,-163 0,-80 -50,-159 -105,-221 L 61,37 C 50,26 50,24 50,0 h 371 z"
                     stroke="#000000"
                     stroke-opacity="1"
                     stroke-width="8"
                     fill="#000000"
                     fill-opacity="1"
                     id="path75" />
                </g>
              </g>
            </g>
          </g>
        </g>
      </g>
    </g>
    <g
       id="g91">
      <g
         id="g90">
        <g
           id="g84">
          <g
             transform="translate(211,498.56556)"
             id="g83">
            <path
               transform="scale(0.02941,-0.02941)"
               d="m 420,356 c 0,45 -43,86 -119,86 -132,0 -169,-102 -169,-146 0,-78 74,-93 103,-99 52,-10 104,-21 104,-76 0,-26 -23,-110 -143,-110 -14,0 -91,0 -114,53 38,-5 63,25 63,53 0,23 -16,35 -37,35 -26,0 -56,-21 -56,-66 0,-57 57,-97 143,-97 162,0 201,121 201,166 0,36 -19,61 -31,73 -27,28 -56,33 -100,42 -36,8 -76,15 -76,60 0,29 24,90 112,90 25,0 75,-7 90,-46 -28,-1 -48,-23 -48,-45 0,-14 9,-29 31,-29 22,0 46,17 46,56 z"
               stroke="#000000"
               stroke-opacity="1"
               stroke-width="8"
               fill="#000000"
               fill-opacity="1"
               id="path82" />
          </g>
        </g>
        <g
           id="g89">
          <g
             id="g88">
            <g
               id="g87">
              <g
                 id="g86">
                <g
                   transform="translate(225.68888,504.10922)"
                   id="g85">
                  <path
                     transform="scale(0.020587,-0.020587)"
                     d="m 457,171 c 0,82 -63,160 -167,181 82,27 140,97 140,176 0,82 -88,138 -184,138 -101,0 -177,-60 -177,-136 0,-33 22,-52 51,-52 31,0 51,22 51,51 0,50 -47,50 -62,50 31,49 97,62 133,62 41,0 96,-22 96,-112 0,-12 -2,-70 -28,-114 -30,-48 -64,-51 -89,-52 -8,-1 -32,-3 -39,-3 -8,-1 -15,-2 -15,-12 0,-11 7,-11 24,-11 h 44 C 317,337 354,269 354,171 354,35 285,6 241,6 198,6 123,23 88,82 c 35,-5 66,17 66,55 0,36 -27,56 -56,56 -24,0 -56,-14 -56,-58 0,-91 93,-157 202,-157 122,0 213,91 213,193 z"
                     stroke="#000000"
                     stroke-opacity="1"
                     stroke-width="8"
                     fill="#000000"
                     fill-opacity="1"
                     id="path84" />
                </g>
              </g>
            </g>
          </g>
        </g>
      </g>
    </g>
    <g
       id="g95">
      <g
         id="g94">
        <g
           id="g93">
          <g
             transform="translate(144.33333,458.81223)"
             id="g92">
            <path
               transform="scale(0.03519,-0.03519)"
               d="m 419,0 v 31 h -32 c -90,0 -93,11 -93,48 v 561 c 0,24 0,26 -23,26 C 209,602 121,602 89,602 v -31 c 20,0 79,0 131,26 V 79 C 220,43 217,31 127,31 H 95 V 0 c 35,3 122,3 162,3 40,0 127,0 162,-3 z"
               stroke="#000000"
               stroke-opacity="1"
               stroke-width="8"
               fill="#000000"
               fill-opacity="1"
               id="path91" />
          </g>
        </g>
      </g>
    </g>
    <g
       id="g115">
      <g
         id="g114">
        <g
           id="g97">
          <g
             transform="translate(445.66667,245.38778)"
             id="g96">
            <path
               transform="scale(0.02941,-0.02941)"
               d="m 721,20 c 0,11 -10,11 -23,11 -62,0 -62,7 -65,36 l -61,625 c -2,20 -2,24 -19,24 -16,0 -20,-7 -26,-17 L 179,115 C 139,48 100,34 56,31 44,30 35,30 35,11 35,5 40,0 48,0 c 27,0 58,3 86,3 33,0 68,-3 100,-3 6,0 19,0 19,19 0,11 -9,12 -16,12 -23,2 -47,10 -47,35 0,12 6,23 14,37 7,12 8,12 76,128 h 251 c 2,-21 16,-157 16,-167 0,-30 -52,-33 -72,-33 -14,0 -24,0 -24,-20 0,-11 14,-11 14,-11 41,0 84,3 125,3 25,0 88,-3 113,-3 6,0 18,0 18,20 z M 528,262 H 299 l 197,330 z"
               stroke="#000000"
               stroke-opacity="1"
               stroke-width="8"
               fill="#000000"
               fill-opacity="1"
               id="path95" />
          </g>
        </g>
        <g
           id="g99">
          <g
             transform="translate(476.55558,245.38778)"
             id="g98">
            <path
               transform="scale(0.02941,-0.02941)"
               d="m 722,347 c 0,11 -9,20 -20,20 H 76 c -11,0 -20,-9 -20,-20 0,-11 9,-20 20,-20 h 626 c 11,0 20,9 20,20 z m 0,-194 c 0,11 -9,20 -20,20 H 76 c -11,0 -20,-9 -20,-20 0,-11 9,-20 20,-20 h 626 c 11,0 20,9 20,20 z"
               stroke="#000000"
               stroke-opacity="1"
               stroke-width="8"
               fill="#000000"
               fill-opacity="1"
               id="path97" />
          </g>
        </g>
        <g
           id="g101">
          <g
             transform="translate(508.25553,245.74333)"
             id="g100">
            <path
               transform="scale(0.02941,-0.02941)"
               d="m 425,-238 c 0,7 -5,12 -12,12 -75,0 -130,49 -130,101 v 250 c 0,58 -48,104 -115,125 67,21 115,67 115,125 v 250 c 0,52 55,101 130,101 7,0 12,5 12,12 0,7 -5,12 -12,12 C 308,750 217,698 217,625 V 375 c 0,-58 -55,-113 -130,-113 -7,0 -12,-5 -12,-12 0,-7 5,-12 12,-12 75,0 130,-55 130,-113 v -250 c 0,-73 91,-125 196,-125 7,0 12,5 12,12 z"
               stroke="#000000"
               stroke-opacity="1"
               stroke-width="8"
               fill="#000000"
               fill-opacity="1"
               id="path99" />
          </g>
        </g>
        <g
           id="g103">
          <g
             transform="translate(524.4222,245.38778)"
             id="g102">
            <path
               transform="scale(0.02941,-0.02941)"
               d="m 498,143 c 0,10 -9,10 -12,10 -10,0 -11,-4 -14,-18 C 455,70 437,11 396,11 c -27,0 -30,26 -30,46 0,22 2,30 13,74 l 22,90 36,140 c 7,28 7,30 7,34 0,17 -12,27 -29,27 -24,0 -39,-22 -42,-44 -18,37 -47,64 -92,64 C 164,442 40,295 40,149 40,55 95,-11 173,-11 c 20,0 70,4 130,75 8,-42 43,-75 91,-75 35,0 58,23 74,55 17,36 30,99 30,99 z M 361,332 c 0,-6 -2,-12 -3,-17 L 308,119 C 303,101 303,99 288,82 244,27 203,11 175,11 c -50,0 -64,55 -64,94 0,50 32,173 55,219 31,59 76,96 116,96 65,0 79,-82 79,-88 z"
               stroke="#000000"
               stroke-opacity="1"
               stroke-width="8"
               fill="#000000"
               fill-opacity="1"
               id="path101" />
          </g>
        </g>
        <g
           id="g105">
          <g
             transform="translate(539.98893,245.38778)"
             id="g104">
            <path
               transform="scale(0.02941,-0.02941)"
               d="m 203,1 c 0,66 -25,105 -64,105 -33,0 -53,-25 -53,-53 0,-27 20,-53 53,-53 12,0 25,4 35,13 3,2 5,3 5,3 0,0 2,-1 2,-15 0,-74 -35,-134 -68,-167 -11,-11 -11,-13 -11,-16 0,-7 5,-11 10,-11 11,0 91,77 91,194 z"
               stroke="#000000"
               stroke-opacity="1"
               stroke-width="8"
               fill="#000000"
               fill-opacity="1"
               id="path103" />
          </g>
        </g>
        <g
           id="g107">
          <g
             transform="translate(554.05558,245.38778)"
             id="g106">
            <path
               transform="scale(0.02941,-0.02941)"
               d="m 415,282 c 0,91 -53,160 -133,160 -46,0 -87,-29 -117,-60 l 74,301 c 0,0 0,11 -13,11 -23,0 -96,-8 -122,-10 -8,-1 -19,-2 -19,-20 0,-12 9,-12 24,-12 48,0 50,-7 50,-17 0,-7 -9,-41 -14,-62 L 63,247 C 51,197 47,181 47,146 47,51 100,-11 174,-11 c 118,0 241,149 241,293 z m -72,44 C 343,267 310,152 292,114 259,47 213,11 174,11 c -34,0 -67,27 -67,101 0,19 0,38 16,101 l 22,92 c 6,22 6,24 15,35 49,65 94,80 120,80 36,0 63,-30 63,-94 z"
               stroke="#000000"
               stroke-opacity="1"
               stroke-width="8"
               fill="#000000"
               fill-opacity="1"
               id="path105" />
          </g>
        </g>
        <g
           id="g109">
          <g
             transform="translate(566.66667,245.38778)"
             id="g108">
            <path
               transform="scale(0.02941,-0.02941)"
               d="m 203,1 c 0,66 -25,105 -64,105 -33,0 -53,-25 -53,-53 0,-27 20,-53 53,-53 12,0 25,4 35,13 3,2 5,3 5,3 0,0 2,-1 2,-15 0,-74 -35,-134 -68,-167 -11,-11 -11,-13 -11,-16 0,-7 5,-11 10,-11 11,0 91,77 91,194 z"
               stroke="#000000"
               stroke-opacity="1"
               stroke-width="8"
               fill="#000000"
               fill-opacity="1"
               id="path107" />
          </g>
        </g>
        <g
           id="g111">
          <g
             transform="translate(580.73332,245.38778)"
             id="g110">
            <path
               transform="scale(0.02941,-0.02941)"
               d="m 430,107 c 0,6 -6,13 -12,13 -5,0 -7,-2 -13,-10 C 326,11 217,11 205,11 c -63,0 -90,49 -90,109 0,41 20,138 54,200 31,57 86,100 141,100 34,0 72,-13 86,-40 -16,0 -30,0 -44,-14 -16,-15 -18,-32 -18,-39 0,-24 18,-35 37,-35 29,0 56,24 56,64 0,49 -47,86 -118,86 C 174,442 41,299 41,158 41,68 99,-11 203,-11 346,-11 430,95 430,107 Z"
               stroke="#000000"
               stroke-opacity="1"
               stroke-width="8"
               fill="#000000"
               fill-opacity="1"
               id="path109" />
          </g>
        </g>
        <g
           id="g113">
          <g
             transform="translate(594.93335,245.74333)"
             id="g112">
            <path
               transform="scale(0.02941,-0.02941)"
               d="m 425,250 c 0,7 -5,12 -12,12 -75,0 -130,55 -130,113 v 250 c 0,73 -91,125 -196,125 -7,0 -12,-5 -12,-12 0,-7 5,-12 12,-12 75,0 130,-49 130,-101 V 375 C 217,317 265,271 332,250 265,229 217,183 217,125 v -250 c 0,-52 -55,-101 -130,-101 -7,0 -12,-5 -12,-12 0,-7 5,-12 12,-12 105,0 196,52 196,125 v 250 c 0,58 55,113 130,113 7,0 12,5 12,12 z"
               stroke="#000000"
               stroke-opacity="1"
               stroke-width="8"
               fill="#000000"
               fill-opacity="1"
               id="path111" />
          </g>
        </g>
      </g>
    </g>
    <g
       id="g131">
      <g
         id="g130">
        <g
           id="g117">
          <g
             transform="translate(451,430.56556)"
             id="g116">
            <path
               transform="scale(0.02941,-0.02941)"
               d="m 721,20 c 0,11 -10,11 -23,11 -62,0 -62,7 -65,36 l -61,625 c -2,20 -2,24 -19,24 -16,0 -20,-7 -26,-17 L 179,115 C 139,48 100,34 56,31 44,30 35,30 35,11 35,5 40,0 48,0 c 27,0 58,3 86,3 33,0 68,-3 100,-3 6,0 19,0 19,19 0,11 -9,12 -16,12 -23,2 -47,10 -47,35 0,12 6,23 14,37 7,12 8,12 76,128 h 251 c 2,-21 16,-157 16,-167 0,-30 -52,-33 -72,-33 -14,0 -24,0 -24,-20 0,-11 14,-11 14,-11 41,0 84,3 125,3 25,0 88,-3 113,-3 6,0 18,0 18,20 z M 528,262 H 299 l 197,330 z"
               stroke="#000000"
               stroke-opacity="1"
               stroke-width="8"
               fill="#000000"
               fill-opacity="1"
               id="path115" />
          </g>
        </g>
        <g
           id="g119">
          <g
             transform="translate(481.88892,430.56556)"
             id="g118">
            <path
               transform="scale(0.02941,-0.02941)"
               d="m 722,347 c 0,11 -9,20 -20,20 H 76 c -11,0 -20,-9 -20,-20 0,-11 9,-20 20,-20 h 626 c 11,0 20,9 20,20 z m 0,-194 c 0,11 -9,20 -20,20 H 76 c -11,0 -20,-9 -20,-20 0,-11 9,-20 20,-20 h 626 c 11,0 20,9 20,20 z"
               stroke="#000000"
               stroke-opacity="1"
               stroke-width="8"
               fill="#000000"
               fill-opacity="1"
               id="path117" />
          </g>
        </g>
        <g
           id="g121">
          <g
             transform="translate(513.58887,430.91)"
             id="g120">
            <path
               transform="scale(0.02941,-0.02941)"
               d="m 425,-238 c 0,7 -5,12 -12,12 -75,0 -130,49 -130,101 v 250 c 0,58 -48,104 -115,125 67,21 115,67 115,125 v 250 c 0,52 55,101 130,101 7,0 12,5 12,12 0,7 -5,12 -12,12 C 308,750 217,698 217,625 V 375 c 0,-58 -55,-113 -130,-113 -7,0 -12,-5 -12,-12 0,-7 5,-12 12,-12 75,0 130,-55 130,-113 v -250 c 0,-73 91,-125 196,-125 7,0 12,5 12,12 z"
               stroke="#000000"
               stroke-opacity="1"
               stroke-width="8"
               fill="#000000"
               fill-opacity="1"
               id="path119" />
          </g>
        </g>
        <g
           id="g123">
          <g
             transform="translate(529.75553,430.56556)"
             id="g122">
            <path
               transform="scale(0.02941,-0.02941)"
               d="m 460,320 c 0,80 -5,160 -40,234 C 374,650 292,666 250,666 190,666 117,640 76,547 44,478 39,400 39,320 39,245 43,155 84,79 127,-2 200,-22 249,-22 c 54,0 130,21 174,116 32,69 37,147 37,226 z m -83,12 C 377,257 377,189 366,125 351,30 294,0 249,0 210,0 151,25 133,121 c -11,60 -11,152 -11,211 0,64 0,130 8,184 19,119 94,128 119,128 33,0 99,-18 118,-117 10,-56 10,-132 10,-195 z"
               stroke="#000000"
               stroke-opacity="1"
               stroke-width="8"
               fill="#000000"
               fill-opacity="1"
               id="path121" />
          </g>
        </g>
        <g
           id="g125">
          <g
             transform="translate(544.45557,430.56556)"
             id="g124">
            <path
               transform="scale(0.02941,-0.02941)"
               d="m 203,1 c 0,66 -25,105 -64,105 -33,0 -53,-25 -53,-53 0,-27 20,-53 53,-53 12,0 25,4 35,13 3,2 5,3 5,3 0,0 2,-1 2,-15 0,-74 -35,-134 -68,-167 -11,-11 -11,-13 -11,-16 0,-7 5,-11 10,-11 11,0 91,77 91,194 z"
               stroke="#000000"
               stroke-opacity="1"
               stroke-width="8"
               fill="#000000"
               fill-opacity="1"
               id="path123" />
          </g>
        </g>
        <g
           id="g127">
          <g
             transform="translate(558.52222,430.56556)"
             id="g126">
            <path
               transform="scale(0.02941,-0.02941)"
               d="m 419,0 v 31 h -32 c -90,0 -93,11 -93,48 v 561 c 0,24 0,26 -23,26 C 209,602 121,602 89,602 v -31 c 20,0 79,0 131,26 V 79 C 220,43 217,31 127,31 H 95 V 0 c 35,3 122,3 162,3 40,0 127,0 162,-3 z"
               stroke="#000000"
               stroke-opacity="1"
               stroke-width="8"
               fill="#000000"
               fill-opacity="1"
               id="path125" />
          </g>
        </g>
        <g
           id="g129">
          <g
             transform="translate(574.68888,430.91)"
             id="g128">
            <path
               transform="scale(0.02941,-0.02941)"
               d="m 425,250 c 0,7 -5,12 -12,12 -75,0 -130,55 -130,113 v 250 c 0,73 -91,125 -196,125 -7,0 -12,-5 -12,-12 0,-7 5,-12 12,-12 75,0 130,-49 130,-101 V 375 C 217,317 265,271 332,250 265,229 217,183 217,125 v -250 c 0,-52 -55,-101 -130,-101 -7,0 -12,-5 -12,-12 0,-7 5,-12 12,-12 105,0 196,52 196,125 v 250 c 0,58 55,113 130,113 7,0 12,5 12,12 z"
               stroke="#000000"
               stroke-opacity="1"
               stroke-width="8"
               fill="#000000"
               fill-opacity="1"
               id="path127" />
          </g>
        </g>
      </g>
    </g>
    <g
       id="g135">
      <g
         id="g134">
        <g
           id="g133">
          <g
             transform="translate(342.83333,485.81223)"
             id="g132">
            <path
               transform="scale(0.03519,-0.03519)"
               d="m 460,320 c 0,80 -5,160 -40,234 C 374,650 292,666 250,666 190,666 117,640 76,547 44,478 39,400 39,320 39,245 43,155 84,79 127,-2 200,-22 249,-22 c 54,0 130,21 174,116 32,69 37,147 37,226 z m -83,12 C 377,257 377,189 366,125 351,30 294,0 249,0 210,0 151,25 133,121 c -11,60 -11,152 -11,211 0,64 0,130 8,184 19,119 94,128 119,128 33,0 99,-18 118,-117 10,-56 10,-132 10,-195 z"
               stroke="#000000"
               stroke-opacity="1"
               stroke-width="8"
               fill="#000000"
               fill-opacity="1"
               id="path131" />
          </g>
        </g>
      </g>
    </g>
    <g
       id="g139">
      <g
         id="g138">
        <g
           id="g137">
          <g
             transform="translate(256.83333,425.31223)"
             id="g136">
            <path
               transform="scale(0.03519,-0.03519)"
               d="m 460,320 c 0,80 -5,160 -40,234 C 374,650 292,666 250,666 190,666 117,640 76,547 44,478 39,400 39,320 39,245 43,155 84,79 127,-2 200,-22 249,-22 c 54,0 130,21 174,116 32,69 37,147 37,226 z m -83,12 C 377,257 377,189 366,125 351,30 294,0 249,0 210,0 151,25 133,121 c -11,60 -11,152 -11,211 0,64 0,130 8,184 19,119 94,128 119,128 33,0 99,-18 118,-117 10,-56 10,-132 10,-195 z"
               stroke="#000000"
               stroke-opacity="1"
               stroke-width="8"
               fill="#000000"
               fill-opacity="1"
               id="path135" />
          </g>
        </g>
      </g>
    </g>
    <g
       id="g143">
      <g
         id="g142">
        <g
           id="g141">
          <g
             transform="translate(174.66667,97.312223)"
             id="g140">
            <path
               transform="scale(0.03519,-0.03519)"
               d="m 498,143 c 0,10 -9,10 -12,10 -10,0 -11,-4 -14,-18 C 455,70 437,11 396,11 c -27,0 -30,26 -30,46 0,22 2,30 13,74 l 22,90 36,140 c 7,28 7,30 7,34 0,17 -12,27 -29,27 -24,0 -39,-22 -42,-44 -18,37 -47,64 -92,64 C 164,442 40,295 40,149 40,55 95,-11 173,-11 c 20,0 70,4 130,75 8,-42 43,-75 91,-75 35,0 58,23 74,55 17,36 30,99 30,99 z M 361,332 c 0,-6 -2,-12 -3,-17 L 308,119 C 303,101 303,99 288,82 244,27 203,11 175,11 c -50,0 -64,55 -64,94 0,50 32,173 55,219 31,59 76,96 116,96 65,0 79,-82 79,-88 z"
               stroke="#000000"
               stroke-opacity="1"
               stroke-width="8"
               fill="#000000"
               fill-opacity="1"
               id="path139" />
          </g>
        </g>
      </g>
    </g>
    <g
       id="g147">
      <g
         id="g146">
        <g
           id="g145">
          <g
             transform="translate(258,112.06556)"
             id="g144">
            <path
               transform="scale(0.02941,-0.02941)"
               d="m 527,376 c 0,52 -59,66 -93,66 -58,0 -93,-53 -105,-76 -25,66 -79,76 -108,76 C 117,442 60,313 60,288 c 0,-10 12,-10 12,-10 8,0 11,2 13,11 34,106 100,131 134,131 19,0 54,-9 54,-67 0,-31 -17,-98 -54,-238 C 203,53 168,11 124,11 c -6,0 -29,0 -50,13 25,5 47,26 47,54 0,27 -22,35 -37,35 -30,0 -55,-26 -55,-58 0,-46 50,-66 94,-66 66,0 102,70 105,76 12,-37 48,-76 108,-76 103,0 160,129 160,154 0,10 -9,10 -12,10 -9,0 -11,-4 -13,-11 C 438,35 370,11 338,11 c -39,0 -55,32 -55,66 0,22 6,44 17,88 l 34,137 c 6,26 29,118 99,118 5,0 29,0 50,-13 -28,-5 -48,-30 -48,-54 0,-16 11,-35 38,-35 22,0 54,18 54,58 z"
               stroke="#000000"
               stroke-opacity="1"
               stroke-width="8"
               fill="#000000"
               fill-opacity="1"
               id="path143" />
          </g>
        </g>
      </g>
    </g>
    <g
       id="g163">
      <g
         id="g162">
        <g
           id="g149">
          <g
             transform="translate(439.66667,110.06556)"
             id="g148">
            <path
               transform="scale(0.02941,-0.02941)"
               d="m 721,20 c 0,11 -10,11 -23,11 -62,0 -62,7 -65,36 l -61,625 c -2,20 -2,24 -19,24 -16,0 -20,-7 -26,-17 L 179,115 C 139,48 100,34 56,31 44,30 35,30 35,11 35,5 40,0 48,0 c 27,0 58,3 86,3 33,0 68,-3 100,-3 6,0 19,0 19,19 0,11 -9,12 -16,12 -23,2 -47,10 -47,35 0,12 6,23 14,37 7,12 8,12 76,128 h 251 c 2,-21 16,-157 16,-167 0,-30 -52,-33 -72,-33 -14,0 -24,0 -24,-20 0,-11 14,-11 14,-11 41,0 84,3 125,3 25,0 88,-3 113,-3 6,0 18,0 18,20 z M 528,262 H 299 l 197,330 z"
               stroke="#000000"
               stroke-opacity="1"
               stroke-width="8"
               fill="#000000"
               fill-opacity="1"
               id="path147" />
          </g>
        </g>
        <g
           id="g151">
          <g
             transform="translate(470.55558,110.06556)"
             id="g150">
            <path
               transform="scale(0.02941,-0.02941)"
               d="m 722,347 c 0,11 -9,20 -20,20 H 76 c -11,0 -20,-9 -20,-20 0,-11 9,-20 20,-20 h 626 c 11,0 20,9 20,20 z m 0,-194 c 0,11 -9,20 -20,20 H 76 c -11,0 -20,-9 -20,-20 0,-11 9,-20 20,-20 h 626 c 11,0 20,9 20,20 z"
               stroke="#000000"
               stroke-opacity="1"
               stroke-width="8"
               fill="#000000"
               fill-opacity="1"
               id="path149" />
          </g>
        </g>
        <g
           id="g153">
          <g
             transform="translate(502.25553,110.41)"
             id="g152">
            <path
               transform="scale(0.02941,-0.02941)"
               d="m 425,-238 c 0,7 -5,12 -12,12 -75,0 -130,49 -130,101 v 250 c 0,58 -48,104 -115,125 67,21 115,67 115,125 v 250 c 0,52 55,101 130,101 7,0 12,5 12,12 0,7 -5,12 -12,12 C 308,750 217,698 217,625 V 375 c 0,-58 -55,-113 -130,-113 -7,0 -12,-5 -12,-12 0,-7 5,-12 12,-12 75,0 130,-55 130,-113 v -250 c 0,-73 91,-125 196,-125 7,0 12,5 12,12 z"
               stroke="#000000"
               stroke-opacity="1"
               stroke-width="8"
               fill="#000000"
               fill-opacity="1"
               id="path151" />
          </g>
        </g>
        <g
           id="g155">
          <g
             transform="translate(518.4222,110.06556)"
             id="g154">
            <path
               transform="scale(0.02941,-0.02941)"
               d="m 498,143 c 0,10 -9,10 -12,10 -10,0 -11,-4 -14,-18 C 455,70 437,11 396,11 c -27,0 -30,26 -30,46 0,22 2,30 13,74 l 22,90 36,140 c 7,28 7,30 7,34 0,17 -12,27 -29,27 -24,0 -39,-22 -42,-44 -18,37 -47,64 -92,64 C 164,442 40,295 40,149 40,55 95,-11 173,-11 c 20,0 70,4 130,75 8,-42 43,-75 91,-75 35,0 58,23 74,55 17,36 30,99 30,99 z M 361,332 c 0,-6 -2,-12 -3,-17 L 308,119 C 303,101 303,99 288,82 244,27 203,11 175,11 c -50,0 -64,55 -64,94 0,50 32,173 55,219 31,59 76,96 116,96 65,0 79,-82 79,-88 z"
               stroke="#000000"
               stroke-opacity="1"
               stroke-width="8"
               fill="#000000"
               fill-opacity="1"
               id="path153" />
          </g>
        </g>
        <g
           id="g157">
          <g
             transform="translate(533.98893,110.06556)"
             id="g156">
            <path
               transform="scale(0.02941,-0.02941)"
               d="m 203,1 c 0,66 -25,105 -64,105 -33,0 -53,-25 -53,-53 0,-27 20,-53 53,-53 12,0 25,4 35,13 3,2 5,3 5,3 0,0 2,-1 2,-15 0,-74 -35,-134 -68,-167 -11,-11 -11,-13 -11,-16 0,-7 5,-11 10,-11 11,0 91,77 91,194 z"
               stroke="#000000"
               stroke-opacity="1"
               stroke-width="8"
               fill="#000000"
               fill-opacity="1"
               id="path155" />
          </g>
        </g>
        <g
           id="g159">
          <g
             transform="translate(548.05558,110.06556)"
             id="g158">
            <path
               transform="scale(0.02941,-0.02941)"
               d="m 415,282 c 0,91 -53,160 -133,160 -46,0 -87,-29 -117,-60 l 74,301 c 0,0 0,11 -13,11 -23,0 -96,-8 -122,-10 -8,-1 -19,-2 -19,-20 0,-12 9,-12 24,-12 48,0 50,-7 50,-17 0,-7 -9,-41 -14,-62 L 63,247 C 51,197 47,181 47,146 47,51 100,-11 174,-11 c 118,0 241,149 241,293 z m -72,44 C 343,267 310,152 292,114 259,47 213,11 174,11 c -34,0 -67,27 -67,101 0,19 0,38 16,101 l 22,92 c 6,22 6,24 15,35 49,65 94,80 120,80 36,0 63,-30 63,-94 z"
               stroke="#000000"
               stroke-opacity="1"
               stroke-width="8"
               fill="#000000"
               fill-opacity="1"
               id="path157" />
          </g>
        </g>
        <g
           id="g161">
          <g
             transform="translate(562.1333,110.41)"
             id="g160">
            <path
               transform="scale(0.02941,-0.02941)"
               d="m 425,250 c 0,7 -5,12 -12,12 -75,0 -130,55 -130,113 v 250 c 0,73 -91,125 -196,125 -7,0 -12,-5 -12,-12 0,-7 5,-12 12,-12 75,0 130,-49 130,-101 V 375 C 217,317 265,271 332,250 265,229 217,183 217,125 v -250 c 0,-52 -55,-101 -130,-101 -7,0 -12,-5 -12,-12 0,-7 5,-12 12,-12 105,0 196,52 196,125 v 250 c 0,58 55,113 130,113 7,0 12,5 12,12 z"
               stroke="#000000"
               stroke-opacity="1"
               stroke-width="8"
               fill="#000000"
               fill-opacity="1"
               id="path159" />
          </g>
        </g>
      </g>
    </g>
  </svg>
</svg>
