<?xml version="1.0" encoding="UTF-8" standalone="no"?>
<svg
   x="0"
   y="0"
   width="235"
   height="131.58"
   style="fill:none"
   version="1.1"
   id="svg67"
   xmlns="http://www.w3.org/2000/svg"
   xmlns:svg="http://www.w3.org/2000/svg">
  <defs
     id="defs67" />
  <path
     class="connection real"
     stroke-dasharray="none"
     d="m 118,18.54 c 34.61,6.38 76.35,24.13 83.52,71.82"
     style="fill:none;fill-opacity:1;stroke:#000000;stroke-width:2px"
     id="path1" />
  <path
     d="M 194.15601,81.45888 202,94.08333 l 4.95025,-14.01886 -5.91453,5.17126 z"
     id="path2"
     style="fill:#000000;stroke:none;stroke-width:2px" />
  <path
     class="connection real"
     stroke-dasharray="none"
     d="M 118,18.54 C 85.17,23.48 33.61,29.82 24.03,90.78"
     style="fill:none;fill-opacity:1;stroke:#000000;stroke-width:2px"
     id="path3" />
  <path
     d="M 18.76819,80.4938 23.5,94.58333 31.54033,82.07786 24.59543,85.751 Z"
     id="path4"
     style="fill:#000000;stroke:none;stroke-width:2px" />
  <path
     class="real"
     d="M 47,1 H 189 V 36.08 H 47 Z"
     style="fill:#ffffff;fill-opacity:1;stroke:#000000;stroke-width:2px"
     id="path5" />
  <path
     class="real"
     d="M 50,4 H 185.5 V 32.58 H 50 Z"
     style="fill:#ffffff;fill-opacity:1;stroke:#000000;stroke-width:2px"
     id="path6" />
  <path
     class="real"
     d="m 1,95.5 h 42 v 35.08 H 1 Z"
     style="fill:#ffffff;fill-opacity:1;stroke:#000000;stroke-width:2px"
     id="path7" />
  <path
     class="real"
     d="M 172.5,95 H 234 v 35.08 h -61.5 z"
     style="fill:#ffffff;fill-opacity:1;stroke:#000000;stroke-width:2px"
     id="path8" />
  <path
     d="m 24.79934,55.019005 c 0,-0.17 -0.153,-0.17 -0.204,-0.17 -0.17,0 -0.187,0.068 -0.238,0.306 -0.289,1.105 -0.595,2.108 -1.292,2.108 -0.459,0 -0.51,-0.442 -0.51,-0.782 0,-0.374 0.034,-0.51 0.221,-1.258 l 0.374,-1.53 0.612,-2.38 c 0.119,-0.476 0.119,-0.51 0.119,-0.578 0,-0.289 -0.204,-0.459 -0.493,-0.459 -0.408,0 -0.663,0.374 -0.714,0.748 -0.306,-0.629 -0.799,-1.088 -1.564,-1.088 -1.989,0 -4.097,2.499 -4.097,4.981 0,1.598 0.935,2.72 2.261,2.72 0.34,0 1.19,-0.068 2.21,-1.275 0.136,0.714 0.731,1.275 1.547,1.275 0.595,0 0.986,-0.391 1.258,-0.935 0.289,-0.612 0.51,-1.683 0.51,-1.683 z m -2.329,-3.213 c 0,0.102 -0.034,0.204 -0.051,0.289 l -0.85,3.332 c -0.085,0.306 -0.085,0.34 -0.34,0.629 -0.748,0.935 -1.445,1.207 -1.921,1.207 -0.85,0 -1.088,-0.935 -1.088,-1.598 0,-0.85 0.544,-2.941 0.935,-3.723 0.527,-1.003 1.292,-1.632 1.972,-1.632 1.105,0 1.343,1.394 1.343,1.496 z"
     stroke="#000000"
     stroke-opacity="1"
     stroke-width="0.136"
     fill="#000000"
     fill-opacity="1"
     id="path14"
     style="font-family:LatinModern-Math, LatinModern, Asana-Math, Asana" />
  <path
     d="m 63.466,21.019005 c 0,-0.17 -0.153,-0.17 -0.204,-0.17 -0.17,0 -0.187,0.068 -0.238,0.306 -0.289,1.105 -0.595,2.108 -1.292,2.108 -0.459,0 -0.51,-0.442 -0.51,-0.782 0,-0.374 0.034,-0.51 0.221,-1.258 l 0.374,-1.53 0.612,-2.38 c 0.119,-0.476 0.119,-0.51 0.119,-0.578 0,-0.289 -0.204,-0.459 -0.493,-0.459 -0.408,0 -0.663,0.374 -0.714,0.748 -0.306,-0.629 -0.799,-1.088 -1.564,-1.088 -1.989,0 -4.097,2.499 -4.097,4.981 0,1.598 0.935,2.72 2.261,2.72 0.34,0 1.19,-0.068 2.21,-1.275 0.136,0.714 0.731,1.275 1.547,1.275 0.595,0 0.986,-0.391 1.258,-0.935 0.289,-0.612 0.51,-1.683 0.51,-1.683 z m -2.329,-3.213 c 0,0.102 -0.034,0.204 -0.051,0.289 l -0.85,3.332 c -0.085,0.306 -0.085,0.34 -0.34,0.629 -0.748,0.935 -1.445,1.207 -1.921,1.207 -0.85,0 -1.088,-0.935 -1.088,-1.598 0,-0.85 0.544,-2.941 0.935,-3.723 0.527,-1.003 1.292,-1.632 1.972,-1.632 1.105,0 1.343,1.394 1.343,1.496 z"
     stroke="#000000"
     stroke-opacity="1"
     stroke-width="0.136"
     fill="#000000"
     fill-opacity="1"
     id="path18"
     style="font-family:LatinModern-Math, LatinModern, Asana-Math, Asana" />
  <path
     d="m 70.66399,19.200005 c 0,-0.493 -0.408,-0.901 -0.901,-0.901 -0.493,0 -0.901,0.408 -0.901,0.901 0,0.493 0.408,0.901 0.901,0.901 0.493,0 0.901,-0.408 0.901,-0.901 z"
     stroke="#000000"
     stroke-opacity="1"
     stroke-width="0.136"
     fill="#000000"
     fill-opacity="1"
     id="path20"
     style="font-family:LatinModern-Math, LatinModern, Asana-Math, Asana" />
  <path
     d="m 82.58833,18.656005 c 0,-1.547 -0.901,-2.72 -2.261,-2.72 -0.782,0 -1.479,0.493 -1.989,1.02 l 1.258,-5.117 c 0,0 0,-0.187 -0.221,-0.187 -0.391,0 -1.632,0.136 -2.074,0.17 -0.136,0.017 -0.323,0.034 -0.323,0.34 0,0.204 0.153,0.204 0.408,0.204 0.816,0 0.85,0.119 0.85,0.289 0,0.119 -0.153,0.697 -0.238,1.054 l -1.394,5.542 c -0.204,0.85 -0.272,1.122 -0.272,1.717 0,1.615 0.901,2.669 2.159,2.669 2.006,0 4.097,-2.533 4.097,-4.981 z m -1.224,-0.748 c 0,1.003 -0.561,2.958 -0.867,3.604 -0.561,1.139 -1.343,1.751 -2.006,1.751 -0.578,0 -1.139,-0.459 -1.139,-1.717 0,-0.323 0,-0.646 0.272,-1.717 l 0.374,-1.564 c 0.102,-0.374 0.102,-0.408 0.255,-0.595 0.833,-1.105 1.598,-1.36 2.04,-1.36 0.612,0 1.071,0.51 1.071,1.598 z"
     stroke="#000000"
     stroke-opacity="1"
     stroke-width="0.136"
     fill="#000000"
     fill-opacity="1"
     id="path22"
     style="font-family:LatinModern-Math, LatinModern, Asana-Math, Asana" />
  <path
     d="m 98.50734,19.200005 c 0,-0.187 -0.153,-0.34 -0.34,-0.34 h -4.981 v -4.981 c 0,-0.187 -0.153,-0.34 -0.34,-0.34 -0.187,0 -0.34,0.153 -0.34,0.34 v 4.981 h -4.981 c -0.187,0 -0.34,0.153 -0.34,0.34 0,0.187 0.153,0.34 0.34,0.34 h 4.981 v 4.981 c 0,0.187 0.153,0.34 0.34,0.34 0.187,0 0.34,-0.153 0.34,-0.34 v -4.981 h 4.981 c 0.187,0 0.34,-0.153 0.34,-0.34 z"
     stroke="#000000"
     stroke-opacity="1"
     stroke-width="0.136"
     fill="#000000"
     fill-opacity="1"
     id="path24"
     style="font-family:LatinModern-Math, LatinModern, Asana-Math, Asana" />
  <path
     d="m 111.33267,21.019005 c 0,-0.17 -0.153,-0.17 -0.204,-0.17 -0.17,0 -0.187,0.068 -0.238,0.306 -0.289,1.105 -0.595,2.108 -1.292,2.108 -0.459,0 -0.51,-0.442 -0.51,-0.782 0,-0.374 0.034,-0.51 0.221,-1.258 l 0.374,-1.53 0.612,-2.38 c 0.119,-0.476 0.119,-0.51 0.119,-0.578 0,-0.289 -0.204,-0.459 -0.493,-0.459 -0.408,0 -0.663,0.374 -0.714,0.748 -0.306,-0.629 -0.799,-1.088 -1.564,-1.088 -1.989,0 -4.097,2.499 -4.097,4.981 0,1.598 0.935,2.72 2.261,2.72 0.34,0 1.19,-0.068 2.21,-1.275 0.136,0.714 0.731,1.275 1.547,1.275 0.595,0 0.986,-0.391 1.258,-0.935 0.289,-0.612 0.51,-1.683 0.51,-1.683 z m -2.329,-3.213 c 0,0.102 -0.034,0.204 -0.051,0.289 l -0.85,3.332 c -0.085,0.306 -0.085,0.34 -0.34,0.629 -0.748,0.935 -1.445,1.207 -1.921,1.207 -0.85,0 -1.088,-0.935 -1.088,-1.598 0,-0.85 0.544,-2.941 0.935,-3.723 0.527,-1.003 1.292,-1.632 1.972,-1.632 1.105,0 1.343,1.394 1.343,1.496 z"
     stroke="#000000"
     stroke-opacity="1"
     stroke-width="0.136"
     fill="#000000"
     fill-opacity="1"
     id="path26"
     style="font-family:LatinModern-Math, LatinModern, Asana-Math, Asana" />
  <path
     d="m 118.53066,19.200005 c 0,-0.493 -0.408,-0.901 -0.901,-0.901 -0.493,0 -0.901,0.408 -0.901,0.901 0,0.493 0.408,0.901 0.901,0.901 0.493,0 0.901,-0.408 0.901,-0.901 z"
     stroke="#000000"
     stroke-opacity="1"
     stroke-width="0.136"
     fill="#000000"
     fill-opacity="1"
     id="path28"
     style="font-family:LatinModern-Math, LatinModern, Asana-Math, Asana" />
  <path
     d="m 130.45499,18.656005 c 0,-1.547 -0.901,-2.72 -2.261,-2.72 -0.782,0 -1.479,0.493 -1.989,1.02 l 1.258,-5.117 c 0,0 0,-0.187 -0.221,-0.187 -0.391,0 -1.632,0.136 -2.074,0.17 -0.136,0.017 -0.323,0.034 -0.323,0.34 0,0.204 0.153,0.204 0.408,0.204 0.816,0 0.85,0.119 0.85,0.289 0,0.119 -0.153,0.697 -0.238,1.054 l -1.394,5.542 c -0.204,0.85 -0.272,1.122 -0.272,1.717 0,1.615 0.901,2.669 2.159,2.669 2.006,0 4.097,-2.533 4.097,-4.981 z m -1.224,-0.748 c 0,1.003 -0.561,2.958 -0.867,3.604 -0.561,1.139 -1.343,1.751 -2.006,1.751 -0.578,0 -1.139,-0.459 -1.139,-1.717 0,-0.323 0,-0.646 0.272,-1.717 l 0.374,-1.564 c 0.102,-0.374 0.102,-0.408 0.255,-0.595 0.833,-1.105 1.598,-1.36 2.04,-1.36 0.612,0 1.071,0.51 1.071,1.598 z"
     stroke="#000000"
     stroke-opacity="1"
     stroke-width="0.136"
     fill="#000000"
     fill-opacity="1"
     id="path30"
     style="font-family:LatinModern-Math, LatinModern, Asana-Math, Asana" />
  <path
     d="m 137.36401,19.200005 c 0,-0.493 -0.408,-0.901 -0.901,-0.901 -0.493,0 -0.901,0.408 -0.901,0.901 0,0.493 0.408,0.901 0.901,0.901 0.493,0 0.901,-0.408 0.901,-0.901 z"
     stroke="#000000"
     stroke-opacity="1"
     stroke-width="0.136"
     fill="#000000"
     fill-opacity="1"
     id="path32"
     style="font-family:LatinModern-Math, LatinModern, Asana-Math, Asana" />
  <path
     d="m 149.54334,21.631005 c 0,-0.102 -0.102,-0.221 -0.204,-0.221 -0.085,0 -0.119,0.034 -0.221,0.17 -1.343,1.683 -3.196,1.683 -3.4,1.683 -1.071,0 -1.53,-0.833 -1.53,-1.853 0,-0.697 0.34,-2.346 0.918,-3.4 0.527,-0.969 1.462,-1.7 2.397,-1.7 0.578,0 1.224,0.221 1.462,0.68 -0.272,0 -0.51,0 -0.748,0.238 -0.272,0.255 -0.306,0.544 -0.306,0.663 0,0.408 0.306,0.595 0.629,0.595 0.493,0 0.952,-0.408 0.952,-1.088 0,-0.833 -0.799,-1.462 -2.006,-1.462 -2.295,0 -4.556,2.431 -4.556,4.828 0,1.53 0.986,2.873 2.754,2.873 2.431,0 3.859,-1.802 3.859,-2.006 z"
     stroke="#000000"
     stroke-opacity="1"
     stroke-width="0.136"
     fill="#000000"
     fill-opacity="1"
     id="path34"
     style="font-family:LatinModern-Math, LatinModern, Asana-Math, Asana" />
  <path
     d="m 165.274,19.200005 c 0,-0.187 -0.153,-0.34 -0.34,-0.34 h -4.981 v -4.981 c 0,-0.187 -0.153,-0.34 -0.34,-0.34 -0.187,0 -0.34,0.153 -0.34,0.34 v 4.981 h -4.981 c -0.187,0 -0.34,0.153 -0.34,0.34 0,0.187 0.153,0.34 0.34,0.34 h 4.981 v 4.981 c 0,0.187 0.153,0.34 0.34,0.34 0.187,0 0.34,-0.153 0.34,-0.34 v -4.981 h 4.981 c 0.187,0 0.34,-0.153 0.34,-0.34 z"
     stroke="#000000"
     stroke-opacity="1"
     stroke-width="0.136"
     fill="#000000"
     fill-opacity="1"
     id="path36"
     style="font-family:LatinModern-Math, LatinModern, Asana-Math, Asana" />
  <path
     d="m 176.92633,16.718005 c 0,-0.323 -1.037,-0.969 -2.193,-0.969 -1.955,0 -3.791,1.139 -3.791,2.431 0,0.731 0.612,1.156 0.68,1.207 -1.003,0.561 -1.547,1.513 -1.547,2.295 0,1.105 0.969,2.142 2.771,2.142 2.244,0 3.196,-1.496 3.196,-1.751 0,-0.102 -0.085,-0.17 -0.187,-0.17 -0.085,0 -0.136,0.068 -0.17,0.119 -0.238,0.391 -0.646,1.02 -2.686,1.02 -1.037,0 -2.482,-0.255 -2.482,-1.462 0,-0.578 0.476,-1.479 1.513,-1.989 0.561,0.238 1.054,0.238 1.462,0.238 0.442,0 1.377,0 1.377,-0.527 0,-0.408 -0.595,-0.459 -1.241,-0.459 -0.357,0 -0.952,0.034 -1.581,0.323 -0.391,-0.204 -0.68,-0.527 -0.68,-0.986 0,-1.037 1.666,-1.649 3.196,-1.649 0.272,0 0.884,0 1.564,0.476 0.187,0.136 0.221,0.17 0.34,0.17 0.221,0 0.459,-0.221 0.459,-0.459 z m -2.499,2.601 c -0.255,0.119 -0.289,0.136 -0.935,0.136 -0.374,0 -0.578,0 -0.901,-0.085 0.391,-0.136 0.748,-0.153 1.037,-0.153 0.425,0 0.493,0.017 0.799,0.102 z"
     stroke="#000000"
     stroke-opacity="1"
     stroke-width="0.136"
     fill="#000000"
     fill-opacity="1"
     id="path38"
     style="font-family:LatinModern-Math, LatinModern, Asana-Math, Asana" />
  <path
     d="m 16.293,111.218 c 0,-0.323 -1.037,-0.969 -2.193,-0.969 -1.955,0 -3.791,1.139 -3.791,2.431 0,0.731 0.612,1.156 0.68,1.207 -1.003,0.561 -1.547,1.513 -1.547,2.295 0,1.105 0.969,2.142 2.771,2.142 2.244,0 3.196,-1.496 3.196,-1.751 0,-0.102 -0.085,-0.17 -0.187,-0.17 -0.085,0 -0.136,0.068 -0.17,0.119 -0.238,0.391 -0.646,1.02 -2.686,1.02 -1.037,0 -2.482,-0.255 -2.482,-1.462 0,-0.578 0.476,-1.479 1.513,-1.989 0.561,0.238 1.054,0.238 1.462,0.238 0.442,0 1.377,0 1.377,-0.527 0,-0.408 -0.595,-0.459 -1.241,-0.459 -0.357,0 -0.952,0.034 -1.581,0.323 -0.391,-0.204 -0.68,-0.527 -0.68,-0.986 0,-1.037 1.666,-1.649 3.196,-1.649 0.272,0 0.884,0 1.564,0.476 0.187,0.136 0.221,0.17 0.34,0.17 0.221,0 0.459,-0.221 0.459,-0.459 z m -2.499,2.601 c -0.255,0.119 -0.289,0.136 -0.935,0.136 -0.374,0 -0.578,0 -0.901,-0.085 0.391,-0.136 0.748,-0.153 1.037,-0.153 0.425,0 0.493,0.017 0.799,0.102 z"
     stroke="#000000"
     stroke-opacity="1"
     stroke-width="0.136"
     fill="#000000"
     fill-opacity="1"
     id="path42"
     style="font-family:LatinModern-Math, LatinModern, Asana-Math, Asana" />
  <path
     d="m 23.58065,113.7 c 0,-0.493 -0.408,-0.901 -0.901,-0.901 -0.493,0 -0.901,0.408 -0.901,0.901 0,0.493 0.408,0.901 0.901,0.901 0.493,0 0.901,-0.408 0.901,-0.901 z"
     stroke="#000000"
     stroke-opacity="1"
     stroke-width="0.136"
     fill="#000000"
     fill-opacity="1"
     id="path44"
     style="font-family:LatinModern-Math, LatinModern, Asana-Math, Asana" />
  <path
     d="m 35.50501,113.156 c 0,-1.547 -0.901,-2.72 -2.261,-2.72 -0.782,0 -1.479,0.493 -1.989,1.02 l 1.258,-5.117 c 0,0 0,-0.187 -0.221,-0.187 -0.391,0 -1.632,0.136 -2.074,0.17 -0.136,0.017 -0.323,0.034 -0.323,0.34 0,0.204 0.153,0.204 0.408,0.204 0.816,0 0.85,0.119 0.85,0.289 0,0.119 -0.153,0.697 -0.238,1.054 l -1.394,5.542 c -0.204,0.85 -0.272,1.122 -0.272,1.717 0,1.615 0.901,2.669 2.159,2.669 2.006,0 4.097,-2.533 4.097,-4.981 z m -1.224,-0.748 c 0,1.003 -0.561,2.958 -0.867,3.604 -0.561,1.139 -1.343,1.751 -2.006,1.751 -0.578,0 -1.139,-0.459 -1.139,-1.717 0,-0.323 0,-0.646 0.272,-1.717 l 0.374,-1.564 c 0.102,-0.374 0.102,-0.408 0.255,-0.595 0.833,-1.105 1.598,-1.36 2.04,-1.36 0.612,0 1.071,0.51 1.071,1.598 z"
     stroke="#000000"
     stroke-opacity="1"
     stroke-width="0.136"
     fill="#000000"
     fill-opacity="1"
     id="path46"
     style="font-family:LatinModern-Math, LatinModern, Asana-Math, Asana" />
  <path
     d="m 187.793,110.718 c 0,-0.323 -1.037,-0.969 -2.193,-0.969 -1.955,0 -3.791,1.139 -3.791,2.431 0,0.731 0.612,1.156 0.68,1.207 -1.003,0.561 -1.547,1.513 -1.547,2.295 0,1.105 0.969,2.142 2.771,2.142 2.244,0 3.196,-1.496 3.196,-1.751 0,-0.102 -0.085,-0.17 -0.187,-0.17 -0.085,0 -0.136,0.068 -0.17,0.119 -0.238,0.391 -0.646,1.02 -2.686,1.02 -1.037,0 -2.482,-0.255 -2.482,-1.462 0,-0.578 0.476,-1.479 1.513,-1.989 0.561,0.238 1.054,0.238 1.462,0.238 0.442,0 1.377,0 1.377,-0.527 0,-0.408 -0.595,-0.459 -1.241,-0.459 -0.357,0 -0.952,0.034 -1.581,0.323 -0.391,-0.204 -0.68,-0.527 -0.68,-0.986 0,-1.037 1.666,-1.649 3.196,-1.649 0.272,0 0.884,0 1.564,0.476 0.187,0.136 0.221,0.17 0.34,0.17 0.221,0 0.459,-0.221 0.459,-0.459 z m -2.499,2.601 c -0.255,0.119 -0.289,0.136 -0.935,0.136 -0.374,0 -0.578,0 -0.901,-0.085 0.391,-0.136 0.748,-0.153 1.037,-0.153 0.425,0 0.493,0.017 0.799,0.102 z"
     stroke="#000000"
     stroke-opacity="1"
     stroke-width="0.136"
     fill="#000000"
     fill-opacity="1"
     id="path50"
     style="font-family:LatinModern-Math, LatinModern, Asana-Math, Asana" />
  <path
     d="m 195.08065,113.2 c 0,-0.493 -0.408,-0.901 -0.901,-0.901 -0.493,0 -0.901,0.408 -0.901,0.901 0,0.493 0.408,0.901 0.901,0.901 0.493,0 0.901,-0.408 0.901,-0.901 z"
     stroke="#000000"
     stroke-opacity="1"
     stroke-width="0.136"
     fill="#000000"
     fill-opacity="1"
     id="path52"
     style="font-family:LatinModern-Math, LatinModern, Asana-Math, Asana" />
  <path
     d="m 207.00501,112.656 c 0,-1.547 -0.901,-2.72 -2.261,-2.72 -0.782,0 -1.479,0.493 -1.989,1.02 l 1.258,-5.117 c 0,0 0,-0.187 -0.221,-0.187 -0.391,0 -1.632,0.136 -2.074,0.17 -0.136,0.017 -0.323,0.034 -0.323,0.34 0,0.204 0.153,0.204 0.408,0.204 0.816,0 0.85,0.119 0.85,0.289 0,0.119 -0.153,0.697 -0.238,1.054 l -1.394,5.542 c -0.204,0.85 -0.272,1.122 -0.272,1.717 0,1.615 0.901,2.669 2.159,2.669 2.006,0 4.097,-2.533 4.097,-4.981 z m -1.224,-0.748 c 0,1.003 -0.561,2.958 -0.867,3.604 -0.561,1.139 -1.343,1.751 -2.006,1.751 -0.578,0 -1.139,-0.459 -1.139,-1.717 0,-0.323 0,-0.646 0.272,-1.717 l 0.374,-1.564 c 0.102,-0.374 0.102,-0.408 0.255,-0.595 0.833,-1.105 1.598,-1.36 2.04,-1.36 0.612,0 1.071,0.51 1.071,1.598 z"
     stroke="#000000"
     stroke-opacity="1"
     stroke-width="0.136"
     fill="#000000"
     fill-opacity="1"
     id="path54"
     style="font-family:LatinModern-Math, LatinModern, Asana-Math, Asana" />
  <path
     d="m 213.91399,113.2 c 0,-0.493 -0.408,-0.901 -0.901,-0.901 -0.493,0 -0.901,0.408 -0.901,0.901 0,0.493 0.408,0.901 0.901,0.901 0.493,0 0.901,-0.408 0.901,-0.901 z"
     stroke="#000000"
     stroke-opacity="1"
     stroke-width="0.136"
     fill="#000000"
     fill-opacity="1"
     id="path56"
     style="font-family:LatinModern-Math, LatinModern, Asana-Math, Asana" />
  <path
     d="m 226.09333,115.631 c 0,-0.102 -0.102,-0.221 -0.204,-0.221 -0.085,0 -0.119,0.034 -0.221,0.17 -1.343,1.683 -3.196,1.683 -3.4,1.683 -1.071,0 -1.53,-0.833 -1.53,-1.853 0,-0.697 0.34,-2.346 0.918,-3.4 0.527,-0.969 1.462,-1.7 2.397,-1.7 0.578,0 1.224,0.221 1.462,0.68 -0.272,0 -0.51,0 -0.748,0.238 -0.272,0.255 -0.306,0.544 -0.306,0.663 0,0.408 0.306,0.595 0.629,0.595 0.493,0 0.952,-0.408 0.952,-1.088 0,-0.833 -0.799,-1.462 -2.006,-1.462 -2.295,0 -4.556,2.431 -4.556,4.828 0,1.53 0.986,2.873 2.754,2.873 2.431,0 3.859,-1.802 3.859,-2.006 z"
     stroke="#000000"
     stroke-opacity="1"
     stroke-width="0.136"
     fill="#000000"
     fill-opacity="1"
     id="path58"
     style="font-family:LatinModern-Math, LatinModern, Asana-Math, Asana" />
  <path
     d="m 205.79934,59.519005 c 0,-0.17 -0.153,-0.17 -0.204,-0.17 -0.17,0 -0.187,0.068 -0.238,0.306 -0.289,1.105 -0.595,2.108 -1.292,2.108 -0.459,0 -0.51,-0.442 -0.51,-0.782 0,-0.374 0.034,-0.51 0.221,-1.258 l 0.374,-1.53 0.612,-2.38 c 0.119,-0.476 0.119,-0.51 0.119,-0.578 0,-0.289 -0.204,-0.459 -0.493,-0.459 -0.408,0 -0.663,0.374 -0.714,0.748 -0.306,-0.629 -0.799,-1.088 -1.564,-1.088 -1.989,0 -4.097,2.499 -4.097,4.981 0,1.598 0.935,2.72 2.261,2.72 0.34,0 1.19,-0.068 2.21,-1.275 0.136,0.714 0.731,1.275 1.547,1.275 0.595,0 0.986,-0.391 1.258,-0.935 0.289,-0.612 0.51,-1.683 0.51,-1.683 z m -2.329,-3.213 c 0,0.102 -0.034,0.204 -0.051,0.289 l -0.85,3.332 c -0.085,0.306 -0.085,0.34 -0.34,0.629 -0.748,0.935 -1.445,1.207 -1.921,1.207 -0.85,0 -1.088,-0.935 -1.088,-1.598 0,-0.85 0.544,-2.941 0.935,-3.723 0.527,-1.003 1.292,-1.632 1.972,-1.632 1.105,0 1.343,1.394 1.343,1.496 z"
     stroke="#000000"
     stroke-opacity="1"
     stroke-width="0.136"
     fill="#000000"
     fill-opacity="1"
     id="path62"
     style="font-family:LatinModern-Math, LatinModern, Asana-Math, Asana" />
</svg>
