<?xml version="1.0" encoding="UTF-8" standalone="no"?>
<svg
   x="0"
   y="0"
   width="239.09599"
   height="63.151344"
   style="fill:none"
   version="1.1"
   id="svg49"
   sodipodi:docname="first_silent_transitions.svg"
   inkscape:version="1.4 (86a8ad7, 2024-10-11)"
   xmlns:inkscape="http://www.inkscape.org/namespaces/inkscape"
   xmlns:sodipodi="http://sodipodi.sourceforge.net/DTD/sodipodi-0.dtd"
   xmlns="http://www.w3.org/2000/svg"
   xmlns:svg="http://www.w3.org/2000/svg">
  <defs
     id="defs49" />
  <sodipodi:namedview
     id="namedview49"
     pagecolor="#ffffff"
     bordercolor="#000000"
     borderopacity="0.25"
     inkscape:showpageshadow="2"
     inkscape:pageopacity="0.0"
     inkscape:pagecheckerboard="0"
     inkscape:deskcolor="#d1d1d1"
     inkscape:zoom="2.5820209"
     inkscape:cx="290.47015"
     inkscape:cy="-11.812453"
     inkscape:window-width="1920"
     inkscape:window-height="1009"
     inkscape:window-x="-8"
     inkscape:window-y="-8"
     inkscape:window-maximized="1"
     inkscape:current-layer="svg49" />
  <path
     class="connection real"
     stroke-dasharray="none"
     d="m 181.985,18.67 c 37.04,53.22 65.06,-16.75 21.48,-5.92"
     style="fill:none;fill-opacity:1;stroke:#000000;stroke-width:2px"
     id="path1" />
  <path
     d="m 210.77882,3.54657 -10.80717,10.203429 14.72435,2.055958 -6.24661,-4.764811 z"
     id="path2"
     style="fill:#000000;stroke:none;stroke-width:2px" />
  <path
     class="connection real"
     stroke-dasharray="none"
     d="m 60.325,25.5 c -49.17,41.4 -66,-35.56 -16.3,-13.71"
     style="fill:none;fill-opacity:1;stroke:#000000;stroke-width:2px"
     id="path3" />
  <path
     d="M 32.293291,13.064282 47.155,13.249998 38.005684,1.531483 l 1.174031,7.76822 z"
     id="path4"
     style="fill:#000000;stroke:none;stroke-width:2px" />
  <path
     class="connection real"
     stroke-dasharray="none"
     d="m 177.985,24 c -33.44,22.8 -70.72,26.02 -101.07,16.95"
     style="fill:none;fill-opacity:1;stroke:#000000;stroke-width:2px"
     id="path5" />
  <path
     d="M 87.90947,37.958223 73.154999,39.749996 83.78105,50.148099 81.58467,42.604923 Z"
     id="path6"
     style="fill:#000000;stroke:none;stroke-width:2px" />
  <path
     class="connection real"
     stroke-dasharray="none"
     d="m 60.325,25.5 q 0.65,-3.71 3.95,-3.07 3.67,0.44 4.49,-3.14 0.5,-3.3 4.14,-2.6 3.1,1.09 4.21,-2.38 1.26,-3.46 4.29,-2.15 3.41,1.19 4.84,-2.13 1.57,-3.31 4.42,-1.69 3.25,1.55 4.99,-1.6 1.88,-3.12 5.05,-1.33 2.55,1.99 4.6,-0.96 2.19,-2.9 5.15,-0.79 2.85,2.19 4.68,-0.48 2.49,-2.66 5.24,-0.26 2.63,2.47 4.75,0 2.77,-2.39 5.3,0.28 1.88,2.67 4.79,0.49 3.04,-2.1 4.79,0.72 2.18,2.95 5.35,1.07 2.74,-1.92 4.81,1.21 l 3.74,1.1 7.46,2.62"
     style="fill:none;fill-opacity:1;stroke:#808080;stroke-width:2px;stroke-opacity:1"
     id="path7" />
  <path
     d="m 149.80771,12.430454 14.84728,-0.680458 -9.8165,-11.165562 1.62462,7.686625 z"
     id="path8"
     style="fill:#808080;fill-opacity:1;stroke:none;stroke-width:2px" />
  <path
     class="real"
     d="m 42.655,25.5 c 0,-9.76 7.91,-17.67 17.67,-17.67 9.75,0 17.66,7.91 17.66,17.67 0,9.76 -7.91,17.67 -17.66,17.67 -9.76,0 -17.67,-7.91 -17.67,-17.67 z"
     style="fill:#ffffff;fill-opacity:1;stroke:#000000;stroke-width:2px"
     id="path9" />
  <path
     class="real"
     d="m 164.325,18.67 c 0,-9.76 7.91,-17.67 17.66,-17.67 9.76,0 17.67,7.91 17.67,17.67 0,9.75 -7.91,17.66 -17.67,17.66 -9.75,0 -17.66,-7.91 -17.66,-17.66 z"
     style="fill:#ffffff;fill-opacity:1;stroke:#000000;stroke-width:2px"
     id="path10" />
  <path
     class="real"
     d="m 167.465,18.67 c 0,-8.02 6.5,-14.52 14.52,-14.52 8.02,0 14.52,6.5 14.52,14.52 0,8.02 -6.5,14.52 -14.52,14.52 -8.02,0 -14.52,-6.5 -14.52,-14.52 z"
     style="fill:#ffffff;fill-opacity:1;stroke:#000000;stroke-width:2px"
     id="path11" />
  <path
     d="m 61.864,23.024656 c 0,-0.884 -1.003,-1.122 -1.581,-1.122 -0.986,0 -1.581,0.901 -1.785,1.292 -0.425,-1.122 -1.343,-1.292 -1.836,-1.292 -1.768,0 -2.737,2.193 -2.737,2.618 0,0.17 0.204,0.17 0.204,0.17 0.136,0 0.187,-0.034 0.221,-0.187 0.578,-1.802 1.7,-2.227 2.278,-2.227 0.323,0 0.918,0.153 0.918,1.139 0,0.527 -0.289,1.666 -0.918,4.046 -0.272,1.054 -0.867,1.768 -1.615,1.768 -0.102,0 -0.493,0 -0.85,-0.221 0.425,-0.085 0.799,-0.442 0.799,-0.918 0,-0.459 -0.374,-0.595 -0.629,-0.595 -0.51,0 -0.935,0.442 -0.935,0.986 0,0.782 0.85,1.122 1.598,1.122 1.122,0 1.734,-1.19 1.785,-1.292 0.204,0.629 0.816,1.292 1.836,1.292 1.751,0 2.72,-2.193 2.72,-2.618 0,-0.17 -0.153,-0.17 -0.204,-0.17 -0.153,0 -0.187,0.068 -0.221,0.187 -0.561,1.819 -1.717,2.227 -2.261,2.227 -0.663,0 -0.935,-0.544 -0.935,-1.122 0,-0.374 0.102,-0.748 0.289,-1.496 l 0.578,-2.329 c 0.102,-0.442 0.493,-2.006 1.683,-2.006 0.085,0 0.493,0 0.85,0.221 -0.476,0.085 -0.816,0.51 -0.816,0.918 0,0.272 0.187,0.595 0.646,0.595 0.374,0 0.918,-0.306 0.918,-0.986 z"
     stroke="#000000"
     stroke-opacity="1"
     stroke-width="0.136"
     fill="#000000"
     fill-opacity="1"
     id="path18"
     style="font-family:LatinModern-Math, LatinModern, Asana-Math, Asana" />
  <g
     id="g23"
     style="font-family:LatinModern-Math, LatinModern, Asana-Math, Asana"
     transform="translate(-26.845,-36)">
    <g
       id="g22">
      <g
         transform="translate(89.983307,68.750006)"
         id="g21">
        <path
           transform="scale(0.0119,-0.0119)"
           d="m 460,320 c 0,80 -5,160 -40,234 C 374,650 292,666 250,666 190,666 117,640 76,547 44,478 39,400 39,320 39,245 43,155 84,79 127,-2 200,-22 249,-22 c 54,0 130,21 174,116 32,69 37,147 37,226 z m -83,12 C 377,257 377,189 366,125 351,30 294,0 249,0 210,0 151,25 133,121 c -11,60 -11,152 -11,211 0,64 0,130 8,184 19,119 94,128 119,128 33,0 99,-18 118,-117 10,-56 10,-132 10,-195 z"
           stroke="#000000"
           stroke-opacity="1"
           stroke-width="8"
           fill="#000000"
           fill-opacity="1"
           id="path20" />
      </g>
    </g>
  </g>
  <path
     d="m 127.038,60.125344 h -0.425 c -0.085,0.51 -0.204,1.258 -0.374,1.513 -0.119,0.136 -1.241,0.136 -1.615,0.136 h -3.06 l 1.802,-1.751 c 2.652,-2.346 3.672,-3.264 3.672,-4.964 0,-1.938 -1.53,-3.298 -3.604,-3.298 -1.921,0 -3.179,1.564 -3.179,3.077 0,0.952 0.85,0.952 0.901,0.952 0.289,0 0.884,-0.204 0.884,-0.901 0,-0.442 -0.306,-0.884 -0.901,-0.884 -0.136,0 -0.17,0 -0.221,0.017 0.391,-1.105 1.309,-1.734 2.295,-1.734 1.547,0 2.278,1.377 2.278,2.771 0,1.36 -0.85,2.703 -1.785,3.757 l -3.264,3.638 c -0.187,0.187 -0.187,0.221 -0.187,0.629 h 6.307 z"
     stroke="#000000"
     stroke-opacity="1"
     stroke-width="0.136"
     fill="#000000"
     fill-opacity="1"
     id="path27"
     style="font-family:LatinModern-Math, LatinModern, Asana-Math, Asana" />
  <path
     d="m 7.225,16.643344 c 0,-1.36 -0.085,-2.72 -0.68,-3.978 -0.782,-1.632 -2.176,-1.904 -2.89,-1.904 -1.02,0 -2.261,0.442 -2.958,2.023 -0.544,1.173 -0.629,2.499 -0.629,3.859 0,1.275 0.068,2.805 0.765,4.097 0.731,1.377 1.972,1.717 2.805,1.717 0.918,0 2.21,-0.357 2.958,-1.972 0.544,-1.173 0.629,-2.499 0.629,-3.842 z m -1.411,-0.204 c 0,1.275 0,2.431 -0.187,3.519 -0.255,1.615 -1.224,2.125 -1.989,2.125 -0.663,0 -1.666,-0.425 -1.972,-2.057 -0.187,-1.02 -0.187,-2.584 -0.187,-3.587 0,-1.088 0,-2.21 0.136,-3.128 0.323,-2.023 1.598,-2.176 2.023,-2.176 0.561,0 1.683,0.306 2.006,1.989 0.17,0.952 0.17,2.244 0.17,3.315 z"
     stroke="#000000"
     stroke-opacity="1"
     stroke-width="0.136"
     fill="#000000"
     fill-opacity="1"
     id="path31"
     style="font-family:LatinModern-Math, LatinModern, Asana-Math, Asana" />
  <path
     d="m 183.53063,16.191344 c 0,-0.884 -1.003,-1.122 -1.581,-1.122 -0.986,0 -1.581,0.901 -1.785,1.292 -0.425,-1.122 -1.343,-1.292 -1.836,-1.292 -1.768,0 -2.737,2.193 -2.737,2.618 0,0.17 0.204,0.17 0.204,0.17 0.136,0 0.187,-0.034 0.221,-0.187 0.578,-1.802 1.7,-2.227 2.278,-2.227 0.323,0 0.918,0.153 0.918,1.139 0,0.527 -0.289,1.666 -0.918,4.046 -0.272,1.054 -0.867,1.768 -1.615,1.768 -0.102,0 -0.493,0 -0.85,-0.221 0.425,-0.085 0.799,-0.442 0.799,-0.918 0,-0.459 -0.374,-0.595 -0.629,-0.595 -0.51,0 -0.935,0.442 -0.935,0.986 0,0.782 0.85,1.122 1.598,1.122 1.122,0 1.734,-1.19 1.785,-1.292 0.204,0.629 0.816,1.292 1.836,1.292 1.751,0 2.72,-2.193 2.72,-2.618 0,-0.17 -0.153,-0.17 -0.204,-0.17 -0.153,0 -0.187,0.068 -0.221,0.187 -0.561,1.819 -1.717,2.227 -2.261,2.227 -0.663,0 -0.935,-0.544 -0.935,-1.122 0,-0.374 0.102,-0.748 0.289,-1.496 l 0.578,-2.329 c 0.102,-0.442 0.493,-2.006 1.683,-2.006 0.085,0 0.493,0 0.85,0.221 -0.476,0.085 -0.816,0.51 -0.816,0.918 0,0.272 0.187,0.595 0.646,0.595 0.374,0 0.918,-0.306 0.918,-0.986 z"
     stroke="#000000"
     stroke-opacity="1"
     stroke-width="0.136"
     fill="#000000"
     fill-opacity="1"
     id="path35"
     style="font-family:LatinModern-Math, LatinModern, Asana-Math, Asana" />
  <g
     id="g40"
     style="font-family:LatinModern-Math, LatinModern, Asana-Math, Asana"
     transform="translate(-26.845,-36)">
    <g
       id="g39">
      <g
         transform="translate(211.64996,61.916663)"
         id="g38">
        <path
           transform="scale(0.0119,-0.0119)"
           d="m 419,0 v 31 h -32 c -90,0 -93,11 -93,48 v 561 c 0,24 0,26 -23,26 C 209,602 121,602 89,602 v -31 c 20,0 79,0 131,26 V 79 C 220,43 217,31 127,31 H 95 V 0 c 35,3 122,3 162,3 40,0 127,0 162,-3 z"
           stroke="#000000"
           stroke-opacity="1"
           stroke-width="8"
           fill="#000000"
           fill-opacity="1"
           id="path37" />
      </g>
    </g>
  </g>
  <path
     d="m 239.028,34.083344 v -0.527 h -0.544 c -1.53,0 -1.581,-0.187 -1.581,-0.816 v -9.537 c 0,-0.408 0,-0.442 -0.391,-0.442 -1.054,1.088 -2.55,1.088 -3.094,1.088 v 0.527 c 0.34,0 1.343,0 2.227,-0.442 v 8.806 c 0,0.612 -0.051,0.816 -1.581,0.816 h -0.544 v 0.527 c 0.595,-0.051 2.074,-0.051 2.754,-0.051 0.68,0 2.159,0 2.754,0.051 z"
     stroke="#000000"
     stroke-opacity="1"
     stroke-width="0.136"
     fill="#000000"
     fill-opacity="1"
     id="path44"
     style="font-family:LatinModern-Math, LatinModern, Asana-Math, Asana" />
</svg>
