<?xml version="1.0" encoding="UTF-8" standalone="no"?>
<!-- Created with Inkscape (http://www.inkscape.org/) -->

<svg
   width="73.854866mm"
   height="41.287708mm"
   viewBox="0 0 73.854866 41.287708"
   version="1.1"
   id="svg1"
   xml:space="preserve"
   xmlns="http://www.w3.org/2000/svg"
   xmlns:svg="http://www.w3.org/2000/svg"><defs
     id="defs1" /><g
     id="layer1"
     transform="translate(-14.86505,-197.89475)"><g
       transform="translate(54.271226,197.89475)"
       id="g92"><g
   fill="#000000"
   fill-opacity="1"
   id="g90"
   transform="matrix(0.352778,0,0,0.352778,-76.5641,-4.43473)">
    <g
   id="use2"
   transform="translate(216.20399,26.899)">
      <path
   d="m 10.390625,-13.8125 c 0.01563,-0.09375 0.0625,-0.21875 0.0625,-0.3125 0,-0.203125 -0.203125,-0.203125 -0.25,-0.203125 -0.01563,0 -1.03125,0.07813 -1.140625,0.09375 -0.34375,0.01563 -0.65625,0.0625 -1.03125,0.07813 -0.515625,0.04687 -0.65625,0.0625 -0.65625,0.4375 0,0.203125 0.171875,0.203125 0.453125,0.203125 1.015625,0 1.03125,0.1875 1.03125,0.40625 0,0.109375 -0.046875,0.28125 -0.0625,0.34375 l -1.25,5.01562 C 7.3125,-8.28125 6.75,-9.109375 5.6875,-9.109375 c -2.34375,0 -4.859375,3.015625 -4.859375,6.078125 0,2.046875 1.203125,3.234375 2.59375,3.234375 1.140625,0 2.109375,-0.890625 2.6875,-1.5625 0.21875,1.21875 1.1875,1.5625 1.796875,1.5625 0.625,0 1.125,-0.375 1.5,-1.109375 0.328125,-0.703125 0.609375,-1.96875 0.609375,-2.046875 0,-0.109375 -0.078125,-0.1875 -0.203125,-0.1875 -0.1875,0 -0.203125,0.109375 -0.296875,0.40625 -0.296875,1.21875 -0.703125,2.53125 -1.546875,2.53125 -0.59375,0 -0.640625,-0.546875 -0.640625,-0.953125 0,-0.078125 0,-0.515625 0.15625,-1.09375 z M 6.21875,-2.453125 c -0.109375,0.34375 -0.109375,0.390625 -0.390625,0.78125 -0.453125,0.578125 -1.359375,1.46875 -2.34375,1.46875 -0.84375,0 -1.3125,-0.765625 -1.3125,-1.984375 0,-1.140625 0.640625,-3.453125 1.03125,-4.3125 C 3.90625,-7.953125 4.875,-8.703125 5.6875,-8.703125 c 1.359375,0 1.625,1.703125 1.625,1.859375 0,0.03125 -0.0625,0.296875 -0.078125,0.34375 z m 0,0"
   id="path4" />
    </g>
  </g>
  <g
   fill="#000000"
   fill-opacity="1"
   id="g91"
   transform="matrix(0.352778,0,0,0.352778,-76.5641,-4.43473)">
    <g
   id="use3"
   transform="translate(226.717,29.997999)">
      <path
   d="m 6.421875,-4.59375 c 0,-1.1875 -0.0625,-2.34375 -0.578125,-3.4375 -0.59375,-1.1875 -1.625,-1.5 -2.328125,-1.5 -0.828125,0 -1.859375,0.40625 -2.375,1.59375 -0.40625,0.90625 -0.546875,1.796875 -0.546875,3.34375 0,1.390625 0.09375,2.4375 0.609375,3.453125 0.5625,1.09375 1.546875,1.4375 2.296875,1.4375 1.25,0 1.96875,-0.734375 2.375,-1.578125 0.515625,-1.078125 0.546875,-2.484375 0.546875,-3.3125 z M 3.5,0.015625 C 3.046875,0.015625 2.109375,-0.25 1.84375,-1.8125 1.671875,-2.671875 1.671875,-3.765625 1.671875,-4.765625 1.671875,-5.9375 1.671875,-7 1.90625,-7.84375 2.15625,-8.8125 2.890625,-9.25 3.5,-9.25 c 0.546875,0 1.375,0.328125 1.65625,1.5625 0.171875,0.8125 0.171875,1.953125 0.171875,2.921875 0,0.96875 0,2.046875 -0.15625,2.921875 C 4.90625,-0.265625 4,0.015625 3.5,0.015625 Z m 0,0"
   id="path5" />
    </g>
  </g>
</g><g
       transform="translate(29.084572,214.48596)"
       id="g97"><g
   fill="#000000"
   fill-opacity="1"
   id="g94"
   transform="matrix(0.352778,0,0,0.352778,-76.5641,-4.43473)">
    <g
   id="g93"
   transform="translate(216.20399,26.899)">
      <path
   d="m 10.390625,-13.8125 c 0.01563,-0.09375 0.0625,-0.21875 0.0625,-0.3125 0,-0.203125 -0.203125,-0.203125 -0.25,-0.203125 -0.01563,0 -1.03125,0.07813 -1.140625,0.09375 -0.34375,0.01563 -0.65625,0.0625 -1.03125,0.07813 -0.515625,0.04687 -0.65625,0.0625 -0.65625,0.4375 0,0.203125 0.171875,0.203125 0.453125,0.203125 1.015625,0 1.03125,0.1875 1.03125,0.40625 0,0.109375 -0.046875,0.28125 -0.0625,0.34375 l -1.25,5.01562 C 7.3125,-8.28125 6.75,-9.109375 5.6875,-9.109375 c -2.34375,0 -4.859375,3.015625 -4.859375,6.078125 0,2.046875 1.203125,3.234375 2.59375,3.234375 1.140625,0 2.109375,-0.890625 2.6875,-1.5625 0.21875,1.21875 1.1875,1.5625 1.796875,1.5625 0.625,0 1.125,-0.375 1.5,-1.109375 0.328125,-0.703125 0.609375,-1.96875 0.609375,-2.046875 0,-0.109375 -0.078125,-0.1875 -0.203125,-0.1875 -0.1875,0 -0.203125,0.109375 -0.296875,0.40625 -0.296875,1.21875 -0.703125,2.53125 -1.546875,2.53125 -0.59375,0 -0.640625,-0.546875 -0.640625,-0.953125 0,-0.078125 0,-0.515625 0.15625,-1.09375 z M 6.21875,-2.453125 c -0.109375,0.34375 -0.109375,0.390625 -0.390625,0.78125 -0.453125,0.578125 -1.359375,1.46875 -2.34375,1.46875 -0.84375,0 -1.3125,-0.765625 -1.3125,-1.984375 0,-1.140625 0.640625,-3.453125 1.03125,-4.3125 C 3.90625,-7.953125 4.875,-8.703125 5.6875,-8.703125 c 1.359375,0 1.625,1.703125 1.625,1.859375 0,0.03125 -0.0625,0.296875 -0.078125,0.34375 z m 0,0"
   id="path92" />
    </g>
  </g>
  <g
   fill="#000000"
   fill-opacity="1"
   id="g96"
   transform="matrix(0.352778,0,0,0.352778,-76.5641,-4.43473)">
    <g
   id="g95"
   transform="translate(226.717,29.997999)">
      <path
   d="m 4.125,-9.1875 c 0,-0.34375 0,-0.34375 -0.28125,-0.34375 C 3.5,-9.15625 2.78125,-8.625 1.3125,-8.625 v 0.421875 c 0.328125,0 1.046875,0 1.828125,-0.375 v 7.46875 c 0,0.515625 -0.046875,0.6875 -1.296875,0.6875 H 1.390625 V 0 c 0.390625,-0.03125 1.78125,-0.03125 2.25,-0.03125 0.46875,0 1.859375,0 2.234375,0.03125 V -0.421875 H 5.4375 c -1.265625,0 -1.3125,-0.171875 -1.3125,-0.6875 z m 0,0"
   id="path94" />
    </g>
  </g>
</g><g
       transform="translate(46.075568,214.88574)"
       id="g102"><g
   fill="#000000"
   fill-opacity="1"
   id="g99"
   transform="matrix(0.352778,0,0,0.352778,-76.5641,-4.43473)">
    <g
   id="g98"
   transform="translate(216.20399,26.899)">
      <path
   d="m 10.390625,-13.8125 c 0.01563,-0.09375 0.0625,-0.21875 0.0625,-0.3125 0,-0.203125 -0.203125,-0.203125 -0.25,-0.203125 -0.01563,0 -1.03125,0.07813 -1.140625,0.09375 -0.34375,0.01563 -0.65625,0.0625 -1.03125,0.07813 -0.515625,0.04687 -0.65625,0.0625 -0.65625,0.4375 0,0.203125 0.171875,0.203125 0.453125,0.203125 1.015625,0 1.03125,0.1875 1.03125,0.40625 0,0.109375 -0.046875,0.28125 -0.0625,0.34375 l -1.25,5.01562 C 7.3125,-8.28125 6.75,-9.109375 5.6875,-9.109375 c -2.34375,0 -4.859375,3.015625 -4.859375,6.078125 0,2.046875 1.203125,3.234375 2.59375,3.234375 1.140625,0 2.109375,-0.890625 2.6875,-1.5625 0.21875,1.21875 1.1875,1.5625 1.796875,1.5625 0.625,0 1.125,-0.375 1.5,-1.109375 0.328125,-0.703125 0.609375,-1.96875 0.609375,-2.046875 0,-0.109375 -0.078125,-0.1875 -0.203125,-0.1875 -0.1875,0 -0.203125,0.109375 -0.296875,0.40625 -0.296875,1.21875 -0.703125,2.53125 -1.546875,2.53125 -0.59375,0 -0.640625,-0.546875 -0.640625,-0.953125 0,-0.078125 0,-0.515625 0.15625,-1.09375 z M 6.21875,-2.453125 c -0.109375,0.34375 -0.109375,0.390625 -0.390625,0.78125 -0.453125,0.578125 -1.359375,1.46875 -2.34375,1.46875 -0.84375,0 -1.3125,-0.765625 -1.3125,-1.984375 0,-1.140625 0.640625,-3.453125 1.03125,-4.3125 C 3.90625,-7.953125 4.875,-8.703125 5.6875,-8.703125 c 1.359375,0 1.625,1.703125 1.625,1.859375 0,0.03125 -0.0625,0.296875 -0.078125,0.34375 z m 0,0"
   id="path97" />
    </g>
  </g>
  <g
   fill="#000000"
   fill-opacity="1"
   id="g101"
   transform="matrix(0.352778,0,0,0.352778,-76.5641,-4.43473)">
    <g
   id="g100"
   transform="translate(226.717,29.997999)">
      <path
   d="M 6.3125,-2.40625 H 6 c -0.046875,0.234375 -0.15625,1.03125 -0.3125,1.265625 -0.09375,0.125 -0.90625,0.125 -1.34375,0.125 H 1.6875 c 0.390625,-0.328125 1.265625,-1.25 1.640625,-1.59375 2.1875,-2.015625 2.984375,-2.75 2.984375,-4.171875 0,-1.65625 -1.3125,-2.75 -2.96875,-2.75 -1.671875,0 -2.640625,1.40625 -2.640625,2.640625 0,0.734375 0.625,0.734375 0.671875,0.734375 0.296875,0 0.671875,-0.21875 0.671875,-0.671875 C 2.046875,-7.234375 1.78125,-7.5 1.375,-7.5 1.25,-7.5 1.21875,-7.5 1.171875,-7.484375 1.453125,-8.46875 2.21875,-9.125 3.15625,-9.125 4.375,-9.125 5.125,-8.109375 5.125,-6.78125 5.125,-5.5625 4.421875,-4.5 3.59375,-3.578125 L 0.703125,-0.34375 V 0 H 5.9375 Z m 0,0"
   id="path99" />
    </g>
  </g>
</g><g
       transform="translate(72.861376,214.48596)"
       id="g107"><g
   fill="#000000"
   fill-opacity="1"
   id="g104"
   transform="matrix(0.352778,0,0,0.352778,-75.6356,-4.43473)">
    <g
   id="g103"
   transform="translate(213.57201,26.899)">
      <path
   d="m 10.390625,-13.8125 c 0.01563,-0.09375 0.0625,-0.21875 0.0625,-0.3125 0,-0.203125 -0.203125,-0.203125 -0.25,-0.203125 -0.01563,0 -1.03125,0.07813 -1.140625,0.09375 -0.34375,0.01563 -0.65625,0.0625 -1.03125,0.07813 -0.515625,0.04687 -0.65625,0.0625 -0.65625,0.4375 0,0.203125 0.171875,0.203125 0.453125,0.203125 1.015625,0 1.03125,0.1875 1.03125,0.40625 0,0.109375 -0.046875,0.28125 -0.0625,0.34375 l -1.25,5.01562 C 7.3125,-8.28125 6.75,-9.109375 5.6875,-9.109375 c -2.34375,0 -4.859375,3.015625 -4.859375,6.078125 0,2.046875 1.203125,3.234375 2.59375,3.234375 1.140625,0 2.109375,-0.890625 2.6875,-1.5625 0.21875,1.21875 1.1875,1.5625 1.796875,1.5625 0.625,0 1.125,-0.375 1.5,-1.109375 0.328125,-0.703125 0.609375,-1.96875 0.609375,-2.046875 0,-0.109375 -0.078125,-0.1875 -0.203125,-0.1875 -0.1875,0 -0.203125,0.109375 -0.296875,0.40625 -0.296875,1.21875 -0.703125,2.53125 -1.546875,2.53125 -0.59375,0 -0.640625,-0.546875 -0.640625,-0.953125 0,-0.078125 0,-0.515625 0.15625,-1.09375 z M 6.21875,-2.453125 c -0.109375,0.34375 -0.109375,0.390625 -0.390625,0.78125 -0.453125,0.578125 -1.359375,1.46875 -2.34375,1.46875 -0.84375,0 -1.3125,-0.765625 -1.3125,-1.984375 0,-1.140625 0.640625,-3.453125 1.03125,-4.3125 C 3.90625,-7.953125 4.875,-8.703125 5.6875,-8.703125 c 1.359375,0 1.625,1.703125 1.625,1.859375 0,0.03125 -0.0625,0.296875 -0.078125,0.34375 z m 0,0"
   id="path102" />
    </g>
  </g>
  <g
   fill="#000000"
   fill-opacity="1"
   id="g106"
   transform="matrix(0.352778,0,0,0.352778,-75.6356,-4.43473)">
    <g
   id="g105"
   transform="translate(224.08501,29.997999)">
      <path
   d="M 2.953125,-4.203125 C 2.984375,-4.28125 3.34375,-5 3.875,-5.46875 c 0.375,-0.34375 0.859375,-0.5625 1.421875,-0.5625 0.5625,0 0.765625,0.421875 0.765625,1 0,0.078125 0,0.375 -0.171875,1.046875 l -0.359375,1.46875 c -0.109375,0.4375 -0.375,1.5 -0.40625,1.65625 -0.0625,0.21875 -0.140625,0.59375 -0.140625,0.640625 0,0.203125 0.15625,0.359375 0.359375,0.359375 0.4375,0 0.515625,-0.328125 0.640625,-0.84375 L 6.84375,-4.125 C 6.875,-4.25 7.609375,-6.03125 9.1875,-6.03125 c 0.578125,0 0.78125,0.421875 0.78125,1 0,0.796875 -0.5625,2.359375 -0.875,3.21875 -0.125,0.34375 -0.203125,0.53125 -0.203125,0.796875 0,0.640625 0.453125,1.15625 1.140625,1.15625 1.328125,0 1.828125,-2.109375 1.828125,-2.1875 0,-0.078125 -0.04687,-0.140625 -0.140625,-0.140625 -0.125,0 -0.140625,0.046875 -0.21875,0.296875 -0.328125,1.140625 -0.859375,1.75 -1.4375,1.75 -0.140625,0 -0.359375,-0.015625 -0.359375,-0.46875 0,-0.375 0.171875,-0.84375 0.21875,-1 0.265625,-0.6875 0.90625,-2.375 0.90625,-3.203125 0,-0.875 -0.5,-1.515625 -1.59375,-1.515625 -0.953125,0 -1.734375,0.546875 -2.3125,1.390625 -0.03125,-0.765625 -0.515625,-1.390625 -1.59375,-1.390625 -1.265625,0 -1.9375,0.90625 -2.203125,1.265625 C 3.078125,-5.875 2.5,-6.328125 1.859375,-6.328125 c -0.40625,0 -0.734375,0.203125 -1.015625,0.75 -0.25,0.515625 -0.453125,1.390625 -0.453125,1.453125 0,0.046875 0.046875,0.125 0.15625,0.125 0.109375,0 0.125,-0.015625 0.21875,-0.34375 0.203125,-0.84375 0.484375,-1.6875 1.0625,-1.6875 0.328125,0 0.4375,0.21875 0.4375,0.65625 0,0.3125 -0.140625,0.875 -0.25,1.3125 L 1.625,-2.515625 c -0.0625,0.28125 -0.21875,0.921875 -0.296875,1.1875 -0.09375,0.359375 -0.25,1.046875 -0.25,1.109375 0,0.203125 0.15625,0.359375 0.375,0.359375 0.171875,0 0.375,-0.078125 0.484375,-0.296875 0.03125,-0.078125 0.15625,-0.578125 0.234375,-0.859375 l 0.3125,-1.296875 z m 0,0"
   id="path104" />
    </g>
  </g>
</g><g
       transform="translate(58.269106,217.68426)"
       id="g114"><g
   fill="#000000"
   fill-opacity="1"
   id="g109"
   transform="matrix(0.352778,0,0,0.352778,-75.2218,-7.279)">
    <g
   id="g108"
   transform="translate(211.446,26.899)">
      <path
   d="m 3.96875,-5.171875 c 0,-0.59375 -0.5,-1.09375 -1.09375,-1.09375 -0.609375,0 -1.09375,0.5 -1.09375,1.09375 0,0.609375 0.484375,1.109375 1.09375,1.109375 0.59375,0 1.09375,-0.5 1.09375,-1.109375 z m 0,0"
   id="path107" />
    </g>
  </g>
  <g
   fill="#000000"
   fill-opacity="1"
   id="g111"
   transform="matrix(0.352778,0,0,0.352778,-75.2218,-7.279)">
    <g
   id="g110"
   transform="translate(220.63667,26.899)">
      <path
   d="m 3.96875,-5.171875 c 0,-0.59375 -0.5,-1.09375 -1.09375,-1.09375 -0.609375,0 -1.09375,0.5 -1.09375,1.09375 0,0.609375 0.484375,1.109375 1.09375,1.109375 0.59375,0 1.09375,-0.5 1.09375,-1.109375 z m 0,0"
   id="path109" />
    </g>
  </g>
  <g
   fill="#000000"
   fill-opacity="1"
   id="g113"
   transform="matrix(0.352778,0,0,0.352778,-75.2218,-7.279)">
    <g
   id="g112"
   transform="translate(229.8067,26.899)">
      <path
   d="m 3.96875,-5.171875 c 0,-0.59375 -0.5,-1.09375 -1.09375,-1.09375 -0.609375,0 -1.09375,0.5 -1.09375,1.09375 0,0.609375 0.484375,1.109375 1.09375,1.109375 0.59375,0 1.09375,-0.5 1.09375,-1.109375 z m 0,0"
   id="path111" />
    </g>
  </g>
</g><path
       style="fill:none;stroke:#000000;stroke-width:0.264583;stroke-dasharray:none;stroke-opacity:1"
       d="M 51.572672,203.29227 32.782628,212.4874"
       id="path114" /><path
       style="fill:none;stroke:#000000;stroke-width:0.264583;stroke-dasharray:none;stroke-opacity:1"
       d="m 54.171295,204.69153 -4.997352,7.79587"
       id="path115" /><path
       style="fill:none;stroke:#000000;stroke-width:0.264583;stroke-dasharray:none;stroke-opacity:1"
       d="m 60.967696,203.69206 13.79269,8.19566"
       id="path116" /><path
       style="fill:none;stroke:#000000;stroke-width:0.264583;stroke-dasharray:none;stroke-opacity:1"
       d="m 58.169176,204.89143 2.79852,7.79587"
       id="path117" /><path
       style="fill:none;stroke:#000000;stroke-width:0.264583;stroke-dasharray:none;stroke-opacity:1"
       d="m 30.184006,222.38217 -14.892109,9.89475 16.990996,0.29985 z"
       id="path135" /><path
       style="fill:none;stroke:#000000;stroke-width:0.264583;stroke-dasharray:none;stroke-opacity:1"
       d="m 48.174473,221.98238 -7.096239,9.89475 h 13.292955 z"
       id="path136" /><path
       style="fill:none;stroke:#000000;stroke-width:0.264583;stroke-dasharray:none;stroke-opacity:1"
       d="m 76.547782,221.68253 -3.3982,9.39503 h 15.191949 z"
       id="path137" /><g
       transform="translate(20.738976,234.87561)"
       id="g142"><g
   fill="#000000"
   fill-opacity="1"
   id="g139"
   transform="matrix(0.352778,0,0,0.352778,-76.2937,-6.27578)">
    <g
   id="g138"
   transform="translate(215.703,26.899)">
      <path
   d="m 7.046875,-1.203125 c 0.265625,1.15625 1.25,1.40625 1.75,1.40625 0.65625,0 1.15625,-0.4375 1.484375,-1.125 0.359375,-0.75 0.625,-1.96875 0.625,-2.03125 0,-0.109375 -0.07813,-0.1875 -0.203125,-0.1875 -0.1875,0 -0.203125,0.109375 -0.296875,0.40625 -0.375,1.4375 -0.734375,2.53125 -1.5625,2.53125 -0.625,0 -0.625,-0.6875 -0.625,-0.953125 0,-0.46875 0.0625,-0.6875 0.265625,-1.546875 0.15625,-0.5625 0.296875,-1.125 0.421875,-1.703125 L 9.75,-7.765625 c 0.140625,-0.515625 0.140625,-0.5625 0.140625,-0.625 0,-0.3125 -0.25,-0.515625 -0.546875,-0.515625 -0.609375,0 -0.75,0.515625 -0.875,1.03125 C 8.265625,-7.0625 7.140625,-2.625 7,-1.90625 c -0.015625,0 -0.828125,1.703125 -2.328125,1.703125 -1.078125,0 -1.28125,-0.9375 -1.28125,-1.703125 0,-1.171875 0.578125,-2.828125 1.109375,-4.203125 0.25,-0.671875 0.359375,-0.9375 0.359375,-1.34375 0,-0.890625 -0.640625,-1.65625 -1.640625,-1.65625 -1.890625,0 -2.65625,3 -2.65625,3.15625 0,0.09375 0.078125,0.1875 0.21875,0.1875 0.1875,0 0.203125,-0.078125 0.296875,-0.375 0.484375,-1.765625 1.296875,-2.5625 2.078125,-2.5625 0.203125,0 0.546875,0.03125 0.546875,0.6875 0,0.53125 -0.234375,1.140625 -0.546875,1.921875 -0.90625,2.453125 -1.015625,3.25 -1.015625,3.859375 0,2.109375 1.59375,2.4375 2.4375,2.4375 1.328125,0 2.046875,-0.90625 2.46875,-1.40625 z m 0,0"
   id="path138" />
    </g>
  </g>
  <g
   fill="#000000"
   fill-opacity="1"
   id="g141"
   transform="matrix(0.352778,0,0,0.352778,-76.2937,-6.27578)">
    <g
   id="g140"
   transform="translate(227.218,29.997999)">
      <path
   d="m 4.125,-9.1875 c 0,-0.34375 0,-0.34375 -0.28125,-0.34375 C 3.5,-9.15625 2.78125,-8.625 1.3125,-8.625 v 0.421875 c 0.328125,0 1.046875,0 1.828125,-0.375 v 7.46875 c 0,0.515625 -0.046875,0.6875 -1.296875,0.6875 H 1.390625 V 0 c 0.390625,-0.03125 1.78125,-0.03125 2.25,-0.03125 0.46875,0 1.859375,0 2.234375,0.03125 V -0.421875 H 5.4375 c -1.265625,0 -1.3125,-0.171875 -1.3125,-0.6875 z m 0,0"
   id="path139" />
    </g>
  </g>
</g><g
       transform="translate(45.325948,234.57577)"
       id="g152"><g
   fill="#000000"
   fill-opacity="1"
   id="g149"
   transform="matrix(0.352778,0,0,0.352778,-76.2937,-6.27578)">
    <g
   id="g148"
   transform="translate(215.703,26.899)">
      <path
   d="m 7.046875,-1.203125 c 0.265625,1.15625 1.25,1.40625 1.75,1.40625 0.65625,0 1.15625,-0.4375 1.484375,-1.125 0.359375,-0.75 0.625,-1.96875 0.625,-2.03125 0,-0.109375 -0.07813,-0.1875 -0.203125,-0.1875 -0.1875,0 -0.203125,0.109375 -0.296875,0.40625 -0.375,1.4375 -0.734375,2.53125 -1.5625,2.53125 -0.625,0 -0.625,-0.6875 -0.625,-0.953125 0,-0.46875 0.0625,-0.6875 0.265625,-1.546875 0.15625,-0.5625 0.296875,-1.125 0.421875,-1.703125 L 9.75,-7.765625 c 0.140625,-0.515625 0.140625,-0.5625 0.140625,-0.625 0,-0.3125 -0.25,-0.515625 -0.546875,-0.515625 -0.609375,0 -0.75,0.515625 -0.875,1.03125 C 8.265625,-7.0625 7.140625,-2.625 7,-1.90625 c -0.015625,0 -0.828125,1.703125 -2.328125,1.703125 -1.078125,0 -1.28125,-0.9375 -1.28125,-1.703125 0,-1.171875 0.578125,-2.828125 1.109375,-4.203125 0.25,-0.671875 0.359375,-0.9375 0.359375,-1.34375 0,-0.890625 -0.640625,-1.65625 -1.640625,-1.65625 -1.890625,0 -2.65625,3 -2.65625,3.15625 0,0.09375 0.078125,0.1875 0.21875,0.1875 0.1875,0 0.203125,-0.078125 0.296875,-0.375 0.484375,-1.765625 1.296875,-2.5625 2.078125,-2.5625 0.203125,0 0.546875,0.03125 0.546875,0.6875 0,0.53125 -0.234375,1.140625 -0.546875,1.921875 -0.90625,2.453125 -1.015625,3.25 -1.015625,3.859375 0,2.109375 1.59375,2.4375 2.4375,2.4375 1.328125,0 2.046875,-0.90625 2.46875,-1.40625 z m 0,0"
   id="path147" />
    </g>
  </g>
  <g
   fill="#000000"
   fill-opacity="1"
   id="g151"
   transform="matrix(0.352778,0,0,0.352778,-76.2937,-6.27578)">
    <g
   id="g150"
   transform="translate(227.218,29.997999)">
      <path
   d="M 6.3125,-2.40625 H 6 c -0.046875,0.234375 -0.15625,1.03125 -0.3125,1.265625 -0.09375,0.125 -0.90625,0.125 -1.34375,0.125 H 1.6875 c 0.390625,-0.328125 1.265625,-1.25 1.640625,-1.59375 2.1875,-2.015625 2.984375,-2.75 2.984375,-4.171875 0,-1.65625 -1.3125,-2.75 -2.96875,-2.75 -1.671875,0 -2.640625,1.40625 -2.640625,2.640625 0,0.734375 0.625,0.734375 0.671875,0.734375 0.296875,0 0.671875,-0.21875 0.671875,-0.671875 C 2.046875,-7.234375 1.78125,-7.5 1.375,-7.5 1.25,-7.5 1.21875,-7.5 1.171875,-7.484375 1.453125,-8.46875 2.21875,-9.125 3.15625,-9.125 4.375,-9.125 5.125,-8.109375 5.125,-6.78125 5.125,-5.5625 4.421875,-4.5 3.59375,-3.578125 L 0.703125,-0.34375 V 0 H 5.9375 Z m 0,0"
   id="path149" />
    </g>
  </g>
</g><g
       transform="translate(77.70879,234.17598)"
       id="g157"><g
   fill="#000000"
   fill-opacity="1"
   id="g154"
   transform="matrix(0.352778,0,0,0.352778,-75.3652,-6.27578)">
    <g
   id="g153"
   transform="translate(213.071,26.899)">
      <path
   d="m 7.046875,-1.203125 c 0.265625,1.15625 1.25,1.40625 1.75,1.40625 0.65625,0 1.15625,-0.4375 1.484375,-1.125 0.359375,-0.75 0.625,-1.96875 0.625,-2.03125 0,-0.109375 -0.07813,-0.1875 -0.203125,-0.1875 -0.1875,0 -0.203125,0.109375 -0.296875,0.40625 -0.375,1.4375 -0.734375,2.53125 -1.5625,2.53125 -0.625,0 -0.625,-0.6875 -0.625,-0.953125 0,-0.46875 0.0625,-0.6875 0.265625,-1.546875 0.15625,-0.5625 0.296875,-1.125 0.421875,-1.703125 L 9.75,-7.765625 c 0.140625,-0.515625 0.140625,-0.5625 0.140625,-0.625 0,-0.3125 -0.25,-0.515625 -0.546875,-0.515625 -0.609375,0 -0.75,0.515625 -0.875,1.03125 C 8.265625,-7.0625 7.140625,-2.625 7,-1.90625 c -0.015625,0 -0.828125,1.703125 -2.328125,1.703125 -1.078125,0 -1.28125,-0.9375 -1.28125,-1.703125 0,-1.171875 0.578125,-2.828125 1.109375,-4.203125 0.25,-0.671875 0.359375,-0.9375 0.359375,-1.34375 0,-0.890625 -0.640625,-1.65625 -1.640625,-1.65625 -1.890625,0 -2.65625,3 -2.65625,3.15625 0,0.09375 0.078125,0.1875 0.21875,0.1875 0.1875,0 0.203125,-0.078125 0.296875,-0.375 0.484375,-1.765625 1.296875,-2.5625 2.078125,-2.5625 0.203125,0 0.546875,0.03125 0.546875,0.6875 0,0.53125 -0.234375,1.140625 -0.546875,1.921875 -0.90625,2.453125 -1.015625,3.25 -1.015625,3.859375 0,2.109375 1.59375,2.4375 2.4375,2.4375 1.328125,0 2.046875,-0.90625 2.46875,-1.40625 z m 0,0"
   id="path152" />
    </g>
  </g>
  <g
   fill="#000000"
   fill-opacity="1"
   id="g156"
   transform="matrix(0.352778,0,0,0.352778,-75.3652,-6.27578)">
    <g
   id="g155"
   transform="translate(224.586,29.997999)">
      <path
   d="M 2.953125,-4.203125 C 2.984375,-4.28125 3.34375,-5 3.875,-5.46875 c 0.375,-0.34375 0.859375,-0.5625 1.421875,-0.5625 0.5625,0 0.765625,0.421875 0.765625,1 0,0.078125 0,0.375 -0.171875,1.046875 l -0.359375,1.46875 c -0.109375,0.4375 -0.375,1.5 -0.40625,1.65625 -0.0625,0.21875 -0.140625,0.59375 -0.140625,0.640625 0,0.203125 0.15625,0.359375 0.359375,0.359375 0.4375,0 0.515625,-0.328125 0.640625,-0.84375 L 6.84375,-4.125 C 6.875,-4.25 7.609375,-6.03125 9.1875,-6.03125 c 0.578125,0 0.78125,0.421875 0.78125,1 0,0.796875 -0.5625,2.359375 -0.875,3.21875 -0.125,0.34375 -0.203125,0.53125 -0.203125,0.796875 0,0.640625 0.453125,1.15625 1.140625,1.15625 1.328125,0 1.828125,-2.109375 1.828125,-2.1875 0,-0.078125 -0.04687,-0.140625 -0.140625,-0.140625 -0.125,0 -0.140625,0.046875 -0.21875,0.296875 -0.328125,1.140625 -0.859375,1.75 -1.4375,1.75 -0.140625,0 -0.359375,-0.015625 -0.359375,-0.46875 0,-0.375 0.171875,-0.84375 0.21875,-1 0.265625,-0.6875 0.90625,-2.375 0.90625,-3.203125 0,-0.875 -0.5,-1.515625 -1.59375,-1.515625 -0.953125,0 -1.734375,0.546875 -2.3125,1.390625 -0.03125,-0.765625 -0.515625,-1.390625 -1.59375,-1.390625 -1.265625,0 -1.9375,0.90625 -2.203125,1.265625 C 3.078125,-5.875 2.5,-6.328125 1.859375,-6.328125 c -0.40625,0 -0.734375,0.203125 -1.015625,0.75 -0.25,0.515625 -0.453125,1.390625 -0.453125,1.453125 0,0.046875 0.046875,0.125 0.15625,0.125 0.109375,0 0.125,-0.015625 0.21875,-0.34375 0.203125,-0.84375 0.484375,-1.6875 1.0625,-1.6875 0.328125,0 0.4375,0.21875 0.4375,0.65625 0,0.3125 -0.140625,0.875 -0.25,1.3125 L 1.625,-2.515625 c -0.0625,0.28125 -0.21875,0.921875 -0.296875,1.1875 -0.09375,0.359375 -0.25,1.046875 -0.25,1.109375 0,0.203125 0.15625,0.359375 0.375,0.359375 0.171875,0 0.375,-0.078125 0.484375,-0.296875 0.03125,-0.078125 0.15625,-0.578125 0.234375,-0.859375 l 0.3125,-1.296875 z m 0,0"
   id="path154" />
    </g>
  </g>
</g></g></svg>
