<?xml version="1.0" encoding="UTF-8" standalone="no"?>
<svg
   x="0"
   y="0"
   width="252.59596"
   height="63.151344"
   style="fill:none"
   version="1.1"
   id="svg54"
   sodipodi:docname="first_silent_transitions_daggered.svg"
   inkscape:version="1.4 (86a8ad7, 2024-10-11)"
   xmlns:inkscape="http://www.inkscape.org/namespaces/inkscape"
   xmlns:sodipodi="http://sodipodi.sourceforge.net/DTD/sodipodi-0.dtd"
   xmlns="http://www.w3.org/2000/svg"
   xmlns:svg="http://www.w3.org/2000/svg">
  <defs
     id="defs54" />
  <sodipodi:namedview
     id="namedview54"
     pagecolor="#ffffff"
     bordercolor="#000000"
     borderopacity="0.25"
     inkscape:showpageshadow="2"
     inkscape:pageopacity="0.0"
     inkscape:pagecheckerboard="0"
     inkscape:deskcolor="#d1d1d1"
     inkscape:zoom="2.5820209"
     inkscape:cx="330.74868"
     inkscape:cy="24.205846"
     inkscape:window-width="1920"
     inkscape:window-height="1009"
     inkscape:window-x="-8"
     inkscape:window-y="-8"
     inkscape:window-maximized="1"
     inkscape:current-layer="svg54" />
  <path
     class="connection real"
     stroke-dasharray="none"
     d="M 73.825,25.5 C 109.885,0.39 134.075,-1.66 176.045,9.84"
     style="fill:none;fill-opacity:1;stroke:#000000;stroke-width:2px"
     id="path1"
     sodipodi:nodetypes="cc" />
  <path
     d="M 164.65786,13.273169 179.30499,10.75 168.17507,0.8931 170.7438,8.317739 Z"
     id="path2"
     style="fill:#000000;stroke:none;stroke-width:2px"
     sodipodi:nodetypes="ccccc" />
  <path
     class="connection real"
     stroke-dasharray="none"
     d="m 195.485,18.67 c 37.04,53.22 65.06,-16.75 21.48,-5.92"
     style="fill:none;fill-opacity:1;stroke:#000000;stroke-width:2px"
     id="path3"
     sodipodi:nodetypes="cc" />
  <path
     d="m 224.27882,3.54657 -10.80717,10.203429 14.72435,2.055958 -6.24661,-4.764811 z"
     id="path4"
     style="fill:#000000;stroke:none;stroke-width:2px"
     sodipodi:nodetypes="ccccc" />
  <path
     class="connection real"
     stroke-dasharray="none"
     d="m 73.825,25.5 c -49.17,41.4 -66,-35.56 -16.3,-13.71"
     style="fill:none;fill-opacity:1;stroke:#000000;stroke-width:2px"
     id="path5"
     sodipodi:nodetypes="cc" />
  <path
     d="M 45.793291,13.064282 60.655,13.249998 51.505684,1.531483 l 1.174031,7.76822 z"
     id="path6"
     style="fill:#000000;stroke:none;stroke-width:2px"
     sodipodi:nodetypes="ccccc" />
  <path
     class="connection real"
     stroke-dasharray="none"
     d="m 191.485,24 c -33.44,22.8 -70.72,26.02 -101.07,16.95"
     style="fill:none;fill-opacity:1;stroke:#000000;stroke-width:2px"
     id="path7"
     sodipodi:nodetypes="cc" />
  <path
     d="M 101.40947,37.958223 86.654999,39.749996 97.28105,50.148099 95.08467,42.604923 Z"
     id="path8"
     style="fill:#000000;stroke:none;stroke-width:2px"
     sodipodi:nodetypes="ccccc" />
  <path
     class="real"
     d="m 56.155,25.5 c 0,-9.76 7.91,-17.67 17.67,-17.67 9.75,0 17.66,7.91 17.66,17.67 0,9.76 -7.91,17.67 -17.66,17.67 -9.76,0 -17.67,-7.91 -17.67,-17.67 z"
     style="fill:#ffffff;fill-opacity:1;stroke:#000000;stroke-width:2px"
     id="path9"
     sodipodi:nodetypes="sssss" />
  <path
     class="real"
     d="m 177.825,18.67 c 0,-9.76 7.91,-17.67 17.66,-17.67 9.76,0 17.67,7.91 17.67,17.67 0,9.75 -7.91,17.66 -17.67,17.66 -9.75,0 -17.66,-7.91 -17.66,-17.66 z"
     style="fill:#ffffff;fill-opacity:1;stroke:#000000;stroke-width:2px"
     id="path10"
     sodipodi:nodetypes="sssss" />
  <path
     class="real"
     d="m 180.965,18.67 c 0,-8.02 6.5,-14.52 14.52,-14.52 8.02,0 14.52,6.5 14.52,14.52 0,8.02 -6.5,14.52 -14.52,14.52 -8.02,0 -14.52,-6.5 -14.52,-14.52 z"
     style="fill:#ffffff;fill-opacity:1;stroke:#000000;stroke-width:2px"
     id="path11"
     sodipodi:nodetypes="sssss" />
  <path
     class="real"
     d="m 59.305,25.5 c 0,-8.02 6.5,-14.52 14.52,-14.52 8.02,0 14.52,6.5 14.52,14.52 0,8.02 -6.5,14.52 -14.52,14.52 -8.02,0 -14.52,-6.5 -14.52,-14.52 z"
     style="fill:#ffffff;fill-opacity:1;stroke:#000000;stroke-width:2px"
     id="path13"
     sodipodi:nodetypes="sssss" />
  <path
     d="m 75.364,23.024656 c 0,-0.884 -1.003,-1.122 -1.581,-1.122 -0.986,0 -1.581,0.901 -1.785,1.292 -0.425,-1.122 -1.343,-1.292 -1.836,-1.292 -1.768,0 -2.737,2.193 -2.737,2.618 0,0.17 0.204,0.17 0.204,0.17 0.136,0 0.187,-0.034 0.221,-0.187 0.578,-1.802 1.7,-2.227 2.278,-2.227 0.323,0 0.918,0.153 0.918,1.139 0,0.527 -0.289,1.666 -0.918,4.046 -0.272,1.054 -0.867,1.768 -1.615,1.768 -0.102,0 -0.493,0 -0.85,-0.221 0.425,-0.085 0.799,-0.442 0.799,-0.918 0,-0.459 -0.374,-0.595 -0.629,-0.595 -0.51,0 -0.935,0.442 -0.935,0.986 0,0.782 0.85,1.122 1.598,1.122 1.122,0 1.734,-1.19 1.785,-1.292 0.204,0.629 0.816,1.292 1.836,1.292 1.751,0 2.72,-2.193 2.72,-2.618 0,-0.17 -0.153,-0.17 -0.204,-0.17 -0.153,0 -0.187,0.068 -0.221,0.187 -0.561,1.819 -1.717,2.227 -2.261,2.227 -0.663,0 -0.935,-0.544 -0.935,-1.122 0,-0.374 0.102,-0.748 0.289,-1.496 l 0.578,-2.329 c 0.102,-0.442 0.493,-2.006 1.683,-2.006 0.085,0 0.493,0 0.85,0.221 -0.476,0.085 -0.816,0.51 -0.816,0.918 0,0.272 0.187,0.595 0.646,0.595 0.374,0 0.918,-0.306 0.918,-0.986 z"
     stroke="#000000"
     stroke-opacity="1"
     stroke-width="0.136"
     fill="#000000"
     fill-opacity="1"
     id="path19"
     style="font-family:LatinModern-Math, LatinModern, Asana-Math, Asana"
     sodipodi:nodetypes="sscssccsscscsssscssscssccscsss" />
  <path
     d="m 82.112337,28.942006 c 0,-0.952 -0.0595,-1.904 -0.476,-2.7846 -0.5474,-1.1424 -1.5232,-1.3328 -2.023,-1.3328 -0.714,0 -1.5827,0.3094 -2.0706,1.4161 -0.3808,0.8211 -0.4403,1.7493 -0.4403,2.7013 0,0.8925 0.0476,1.9635 0.5355,2.8679 0.5117,0.9639 1.3804,1.2019 1.9635,1.2019 0.6426,0 1.547,-0.2499 2.0706,-1.3804 0.3808,-0.8211 0.4403,-1.7493 0.4403,-2.6894 z m -0.9877,-0.1428 c 0,0.8925 0,1.7017 -0.1309,2.4633 -0.1785,1.1305 -0.8568,1.4875 -1.3923,1.4875 -0.4641,0 -1.1662,-0.2975 -1.3804,-1.4399 -0.1309,-0.714 -0.1309,-1.8088 -0.1309,-2.5109 0,-0.7616 0,-1.547 0.0952,-2.1896 0.2261,-1.4161 1.1186,-1.5232 1.4161,-1.5232 0.3927,0 1.1781,0.2142 1.4042,1.3923 0.119,0.6664 0.119,1.5708 0.119,2.3205 z"
     stroke="#000000"
     stroke-opacity="1"
     stroke-width="0.0952"
     fill="#000000"
     fill-opacity="1"
     id="path21"
     style="font-family:LatinModern-Math, LatinModern, Asana-Math, Asana"
     sodipodi:nodetypes="scscscscsscscscscs" />
  <path
     d="m 140.538,60.125344 h -0.425 c -0.085,0.51 -0.204,1.258 -0.374,1.513 -0.119,0.136 -1.241,0.136 -1.615,0.136 h -3.06 l 1.802,-1.751 c 2.652,-2.346 3.672,-3.264 3.672,-4.964 0,-1.938 -1.53,-3.298 -3.604,-3.298 -1.921,0 -3.179,1.564 -3.179,3.077 0,0.952 0.85,0.952 0.901,0.952 0.289,0 0.884,-0.204 0.884,-0.901 0,-0.442 -0.306,-0.884 -0.901,-0.884 -0.136,0 -0.17,0 -0.221,0.017 0.391,-1.105 1.309,-1.734 2.295,-1.734 1.547,0 2.278,1.377 2.278,2.771 0,1.36 -0.85,2.703 -1.785,3.757 l -3.264,3.638 c -0.187,0.187 -0.187,0.221 -0.187,0.629 h 6.307 z"
     stroke="#000000"
     stroke-opacity="1"
     stroke-width="0.136"
     fill="#000000"
     fill-opacity="1"
     id="path28"
     style="font-family:LatinModern-Math, LatinModern, Asana-Math, Asana"
     sodipodi:nodetypes="cccsccsssssscssccccc" />
  <path
     d="m 7.225,15.143344 c 0,-1.36 -0.085,-2.72 -0.68,-3.978 -0.782,-1.632 -2.176,-1.904 -2.89,-1.904 -1.02,0 -2.261,0.442 -2.958,2.023 -0.544,1.173 -0.629,2.499 -0.629,3.859 0,1.275 0.068,2.805 0.765,4.097 0.731,1.377 1.972,1.717 2.805,1.717 0.918,0 2.21,-0.357 2.958,-1.972 0.544,-1.173 0.629,-2.499 0.629,-3.842 z m -1.411,-0.204 c 0,1.275 0,2.431 -0.187,3.519 -0.255,1.615 -1.224,2.125 -1.989,2.125 -0.663,0 -1.666,-0.425 -1.972,-2.057 -0.187,-1.02 -0.187,-2.584 -0.187,-3.587 0,-1.088 0,-2.21 0.136,-3.128 0.323,-2.023 1.598,-2.176 2.023,-2.176 0.561,0 1.683,0.306 2.006,1.989 0.17,0.952 0.17,2.244 0.17,3.315 z"
     stroke="#000000"
     stroke-opacity="1"
     stroke-width="0.136"
     fill="#000000"
     fill-opacity="1"
     id="path32"
     style="font-family:LatinModern-Math, LatinModern, Asana-Math, Asana"
     sodipodi:nodetypes="scscscscsscscscscs" />
  <path
     d="m 11.356,20.566344 c 0,-1.122 -0.425,-1.785 -1.088,-1.785 -0.561,0 -0.901,0.425 -0.901,0.901 0,0.459 0.34,0.901 0.901,0.901 0.204,0 0.425,-0.068 0.595,-0.221 0.051,-0.034 0.085,-0.051 0.085,-0.051 0,0 0.034,0.017 0.034,0.255 0,1.258 -0.595,2.278 -1.156,2.839 -0.187,0.187 -0.187,0.221 -0.187,0.272 0,0.119 0.085,0.187 0.17,0.187 0.187,0 1.547,-1.309 1.547,-3.298 z"
     stroke="#000000"
     stroke-opacity="1"
     stroke-width="0.136"
     fill="#000000"
     fill-opacity="1"
     id="path34"
     style="font-family:LatinModern-Math, LatinModern, Asana-Math, Asana"
     sodipodi:nodetypes="ssssccsssss" />
  <path
     d="m 23.671331,17.625344 h -0.425 c -0.085,0.51 -0.204,1.258 -0.374,1.513 -0.119,0.136 -1.241,0.136 -1.615,0.136 h -3.06 l 1.802,-1.751 c 2.652,-2.346 3.672,-3.264 3.672,-4.964 0,-1.938 -1.53,-3.298 -3.604,-3.298 -1.921,0 -3.179,1.564 -3.179,3.077 0,0.952 0.85,0.952 0.901,0.952 0.289,0 0.884,-0.204 0.884,-0.901 0,-0.442 -0.306,-0.884 -0.901,-0.884 -0.136,0 -0.17,0 -0.221,0.017 0.391,-1.105 1.309,-1.734 2.295,-1.734 1.547,0 2.278,1.377 2.278,2.771 0,1.36 -0.85,2.703 -1.785,3.757 l -3.264,3.638 c -0.187,0.187 -0.187,0.221 -0.187,0.629 h 6.307 z"
     stroke="#000000"
     stroke-opacity="1"
     stroke-width="0.136"
     fill="#000000"
     fill-opacity="1"
     id="path36"
     style="font-family:LatinModern-Math, LatinModern, Asana-Math, Asana"
     sodipodi:nodetypes="cccsccsssssscssccccc" />
  <path
     d="m 252.52797,34.083344 v -0.527 h -0.544 c -1.53,0 -1.581,-0.187 -1.581,-0.816 v -9.537 c 0,-0.408 0,-0.442 -0.391,-0.442 -1.054,1.088 -2.55,1.088 -3.094,1.088 v 0.527 c 0.34,0 1.343,0 2.227,-0.442 v 8.806 c 0,0.612 -0.051,0.816 -1.581,0.816 h -0.544 v 0.527 c 0.595,-0.051 2.074,-0.051 2.754,-0.051 0.68,0 2.159,0 2.754,0.051 z"
     stroke="#000000"
     stroke-opacity="1"
     stroke-width="0.136"
     fill="#000000"
     fill-opacity="1"
     id="path40"
     style="font-family:LatinModern-Math, LatinModern, Asana-Math, Asana"
     sodipodi:nodetypes="ccsssccccssccsc" />
  <path
     d="m 197.03066,16.191344 c 0,-0.884 -1.003,-1.122 -1.581,-1.122 -0.986,0 -1.581,0.901 -1.785,1.292 -0.425,-1.122 -1.343,-1.292 -1.836,-1.292 -1.768,0 -2.737,2.193 -2.737,2.618 0,0.17 0.204,0.17 0.204,0.17 0.136,0 0.187,-0.034 0.221,-0.187 0.578,-1.802 1.7,-2.227 2.278,-2.227 0.323,0 0.918,0.153 0.918,1.139 0,0.527 -0.289,1.666 -0.918,4.046 -0.272,1.054 -0.867,1.768 -1.615,1.768 -0.102,0 -0.493,0 -0.85,-0.221 0.425,-0.085 0.799,-0.442 0.799,-0.918 0,-0.459 -0.374,-0.595 -0.629,-0.595 -0.51,0 -0.935,0.442 -0.935,0.986 0,0.782 0.85,1.122 1.598,1.122 1.122,0 1.734,-1.19 1.785,-1.292 0.204,0.629 0.816,1.292 1.836,1.292 1.751,0 2.72,-2.193 2.72,-2.618 0,-0.17 -0.153,-0.17 -0.204,-0.17 -0.153,0 -0.187,0.068 -0.221,0.187 -0.561,1.819 -1.717,2.227 -2.261,2.227 -0.663,0 -0.935,-0.544 -0.935,-1.122 0,-0.374 0.102,-0.748 0.289,-1.496 l 0.578,-2.329 c 0.102,-0.442 0.493,-2.006 1.683,-2.006 0.085,0 0.493,0 0.85,0.221 -0.476,0.085 -0.816,0.51 -0.816,0.918 0,0.272 0.187,0.595 0.646,0.595 0.374,0 0.918,-0.306 0.918,-0.986 z"
     stroke="#000000"
     stroke-opacity="1"
     stroke-width="0.136"
     fill="#000000"
     fill-opacity="1"
     id="path44"
     style="font-family:LatinModern-Math, LatinModern, Asana-Math, Asana"
     sodipodi:nodetypes="sscssccsscscsssscssscssccscsss" />
  <path
     d="m 203.29109,25.916663 v -0.3689 h -0.3808 c -1.071,0 -1.1067,-0.1309 -1.1067,-0.5712 v -6.6759 c 0,-0.2856 0,-0.3094 -0.2737,-0.3094 -0.7378,0.7616 -1.785,0.7616 -2.1658,0.7616 v 0.3689 c 0.238,0 0.9401,0 1.5589,-0.3094 v 6.1642 c 0,0.4284 -0.0357,0.5712 -1.1067,0.5712 h -0.3808 v 0.3689 c 0.4165,-0.0357 1.4518,-0.0357 1.9278,-0.0357 0.476,0 1.5113,0 1.9278,0.0357 z"
     stroke="#000000"
     stroke-opacity="1"
     stroke-width="0.0952"
     fill="#000000"
     fill-opacity="1"
     id="path46"
     style="font-family:LatinModern-Math, LatinModern, Asana-Math, Asana"
     sodipodi:nodetypes="ccsssccccssccsc" />
</svg>
