<?xml version="1.0" encoding="UTF-8" standalone="no"?>
<!-- Created with Inkscape (http://www.inkscape.org/) -->

<svg
   width="67.211693mm"
   height="45.110126mm"
   viewBox="0 0 67.211693 45.110126"
   version="1.1"
   id="svg1"
   xml:space="preserve"
   xmlns="http://www.w3.org/2000/svg"
   xmlns:svg="http://www.w3.org/2000/svg"><defs
     id="defs1"><marker
       style="overflow:visible"
       id="marker4"
       refX="0"
       refY="0"
       orient="auto-start-reverse"
       markerWidth="1"
       markerHeight="1"
       viewBox="0 0 1 1"
       preserveAspectRatio="xMidYMid"><path
         style="fill:context-stroke;fill-rule:evenodd;stroke:none"
         d="M 0,0 5,-5 -12.5,0 5,5 Z"
         transform="scale(-0.5)"
         id="path4" /></marker><marker
       style="overflow:visible"
       id="DartArrow"
       refX="0"
       refY="0"
       orient="auto-start-reverse"
       markerWidth="1"
       markerHeight="1"
       viewBox="0 0 1 1"
       preserveAspectRatio="xMidYMid"><path
         style="fill:context-stroke;fill-rule:evenodd;stroke:none"
         d="M 0,0 5,-5 -12.5,0 5,5 Z"
         transform="scale(-0.5)"
         id="path2" /></marker><marker
       style="overflow:visible"
       id="DartArrow-4"
       refX="0"
       refY="0"
       orient="auto-start-reverse"
       markerWidth="1"
       markerHeight="1"
       viewBox="0 0 1 1"
       preserveAspectRatio="xMidYMid"><path
         style="fill:context-stroke;fill-rule:evenodd;stroke:none"
         d="M 0,0 5,-5 -12.5,0 5,5 Z"
         transform="scale(-0.5)"
         id="path2-3" /></marker><marker
       style="overflow:visible"
       id="DartArrow-4-9"
       refX="0"
       refY="0"
       orient="auto-start-reverse"
       markerWidth="1"
       markerHeight="1"
       viewBox="0 0 1 1"
       preserveAspectRatio="xMidYMid"><path
         style="fill:context-stroke;fill-rule:evenodd;stroke:none"
         d="M 0,0 5,-5 -12.5,0 5,5 Z"
         transform="scale(-0.5)"
         id="path2-3-5" /></marker><marker
       style="overflow:visible"
       id="DartArrow-4-9-3"
       refX="0"
       refY="0"
       orient="auto-start-reverse"
       markerWidth="1"
       markerHeight="1"
       viewBox="0 0 1 1"
       preserveAspectRatio="xMidYMid"><path
         style="fill:context-stroke;fill-rule:evenodd;stroke:none"
         d="M 0,0 5,-5 -12.5,0 5,5 Z"
         transform="scale(-0.5)"
         id="path2-3-5-3" /></marker></defs><g
     id="layer1"
     transform="translate(-29.477242,-56.952063)"><path
       class="connection real"
       stroke-dasharray="none"
       d="M 52.568648,70.133104 C 62.466711,68.648792 68.90459,68.458073 75.831381,68.463365"
       style="fill:none;fill-opacity:1;stroke:#000000;stroke-width:0.529167px;marker-end:url(#marker4)"
       id="path1" /><path
       class="connection real"
       stroke-dasharray="none"
       d="M 51.917773,70.776042 C 35.682411,76.279302 33.342928,62.591038 43.378155,66.703666"
       style="fill:none;fill-opacity:1;stroke:#000000;stroke-width:0.529167px;marker-end:url(#DartArrow)"
       id="path3" /><path
       class="connection real"
       stroke-dasharray="none"
       d="M 65.042422,96.86788 C 52.255329,89.023001 54.142756,85.123372 53.277003,78.668724"
       style="fill:none;fill-opacity:1;stroke:#000000;stroke-width:0.529167px;marker-end:url(#DartArrow-4)"
       id="path3-8" /><path
       class="connection real"
       stroke-dasharray="none"
       d="M 66.098034,95.616332 C 66.325376,84.879365 73.32959,76.196645 77.46939,73.635208"
       style="fill:none;fill-opacity:1;stroke:#000000;stroke-width:0.529167px;marker-end:url(#DartArrow-4-9)"
       id="path3-8-7" /><path
       class="connection real"
       stroke-dasharray="none"
       d="m 84.394652,69.097443 c 0.227342,9.285244 -5.449176,17.065228 -11.542949,22.40144"
       style="fill:none;fill-opacity:1;stroke:#000000;stroke-width:0.529167px;marker-end:url(#DartArrow-4-9-3)"
       id="path3-8-7-8" /><path
       class="real"
       d="m 46.488796,69.410273 c 0,-2.960405 2.399262,-5.359667 5.356634,-5.359667 2.960406,0 5.359669,2.399262 5.359669,5.359667 0,2.957373 -2.399263,5.356636 -5.359669,5.356636 -2.957372,0 -5.356634,-2.399263 -5.356634,-5.356636 z"
       style="fill:#ffffff;fill-opacity:1;stroke:#000000;stroke-width:0.606641px"
       id="path6" /><path
       class="real"
       d="m 60.084275,96.45783 c 0,-2.931323 2.375693,-5.307016 5.304012,-5.307016 2.931324,0 5.307017,2.375693 5.307017,5.307016 0,2.92832 -2.375693,5.30402 -5.307017,5.30402 -2.928319,0 -5.304012,-2.3757 -5.304012,-5.30402 z"
       style="fill:#ffffff;fill-opacity:1;stroke:#000000;stroke-width:0.600681px"
       id="path6-5" /><g
       id="g1"
       transform="matrix(1.1464072,0,0,1.1464072,-11.591034,-10.820377)"><path
         class="real"
         d="m 79.43444,68.968938 c 0,-2.582334 2.092855,-4.675188 4.672542,-4.675188 2.582333,0 4.675187,2.092854 4.675187,4.675188 0,2.579687 -2.092854,4.672541 -4.675187,4.672541 -2.579687,0 -4.672542,-2.092854 -4.672542,-4.672541 z"
         style="fill:#ffffff;fill-opacity:1;stroke:#000000;stroke-width:0.529167px"
         id="path5" /><path
         class="real"
         d="m 80.265232,68.968938 c 0,-2.121959 1.719792,-3.84175 3.84175,-3.84175 2.121958,0 3.84175,1.719791 3.84175,3.84175 0,2.121958 -1.719792,3.84175 -3.84175,3.84175 -2.121958,0 -3.84175,-1.719792 -3.84175,-3.84175 z"
         style="fill:#ffffff;fill-opacity:1;stroke:#000000;stroke-width:0.529167px"
         id="path7" /></g><g
       transform="translate(59.288031,59.287983)"
       id="g4"><g
   fill="#000000"
   fill-opacity="1"
   id="g5"
   transform="matrix(0.352778,0,0,0.352778,-71.3409,-4.02131)">
    <g
   id="use4"
   transform="translate(201.39799,26.899)">
      <path
   d="m 6.21875,-2.453125 c -0.109375,0.34375 -0.109375,0.390625 -0.390625,0.78125 -0.453125,0.578125 -1.359375,1.46875 -2.34375,1.46875 -0.84375,0 -1.3125,-0.765625 -1.3125,-1.984375 0,-1.140625 0.640625,-3.453125 1.03125,-4.3125 C 3.90625,-7.953125 4.875,-8.703125 5.6875,-8.703125 c 1.359375,0 1.625,1.703125 1.625,1.859375 0,0.03125 -0.0625,0.296875 -0.078125,0.34375 z M 7.546875,-7.75 C 7.3125,-8.28125 6.75,-9.109375 5.6875,-9.109375 c -2.34375,0 -4.859375,3.015625 -4.859375,6.078125 0,2.046875 1.203125,3.234375 2.59375,3.234375 1.140625,0 2.109375,-0.890625 2.6875,-1.5625 0.21875,1.21875 1.1875,1.5625 1.796875,1.5625 0.625,0 1.125,-0.375 1.5,-1.109375 0.328125,-0.703125 0.609375,-1.96875 0.609375,-2.046875 0,-0.109375 -0.078125,-0.1875 -0.203125,-0.1875 -0.1875,0 -0.203125,0.109375 -0.296875,0.40625 -0.296875,1.21875 -0.703125,2.53125 -1.546875,2.53125 -0.59375,0 -0.640625,-0.546875 -0.640625,-0.953125 0,-0.46875 0.0625,-0.703125 0.25,-1.515625 0.140625,-0.515625 0.25,-0.96875 0.421875,-1.5625 0.765625,-3.09375 0.9375,-3.84375 0.9375,-3.96875 0,-0.28125 -0.21875,-0.515625 -0.53125,-0.515625 C 7.75,-8.71875 7.578125,-8 7.546875,-7.75 Z m 0,0"
   id="path8" />
    </g>
  </g>
  <g
   fill="#000000"
   fill-opacity="1"
   id="g6"
   transform="matrix(0.352778,0,0,0.352778,-71.3409,-4.02131)">
    <g
   id="use5"
   transform="translate(217.758,26.899)">
      <path
   d="m 3.28125,-14.75 c 0,-0.375 0,-0.75 -0.40625,-0.75 -0.421875,0 -0.421875,0.375 -0.421875,0.75 V 4.421875 c 0,0.375 0,0.75 0.421875,0.75 0.40625,0 0.40625,-0.375 0.40625,-0.75 z m 0,0"
   id="path9" />
    </g>
  </g>
  <g
   fill="#000000"
   fill-opacity="1"
   id="g7"
   transform="matrix(0.352778,0,0,0.352778,-71.3409,-4.02131)">
    <g
   id="use6"
   transform="translate(229.24222,26.899)">
      <path
   d="m 5.578125,-11.46875 c 0.5,0.796875 1.078125,1.375 1.59375,1.765625 1.25,0.9375 2.515625,1.15625 2.5625,1.15625 0.25,0 0.25,-0.234375 0.25,-0.390625 0,-0.34375 -0.03125,-0.359375 -0.484375,-0.5 -1.40625,-0.390625 -2.203125,-1.140625 -2.6875,-1.65625 -1.046875,-1.140625 -1.296875,-2.375 -1.421875,-3.03125 -0.015625,-0.109375 -0.109375,-0.1875 -0.21875,-0.1875 -0.1875,0 -0.21875,0.125 -0.25,0.375 -0.484375,2.28125 -1.953125,3.90625 -4.21875,4.53125 -0.3125,0.109375 -0.359375,0.109375 -0.359375,0.46875 0,0.15625 0,0.390625 0.25,0.390625 0.0625,0 1.28125,-0.234375 2.46875,-1.078125 0.671875,-0.515625 1.234375,-1.140625 1.6875,-1.84375 V 3.265625 C 4.75,3.640625 4.75,4 5.171875,4 5.578125,4 5.578125,3.640625 5.578125,3.265625 Z m 0,0"
   id="path10" />
    </g>
  </g>
  <g
   fill="#000000"
   fill-opacity="1"
   id="g8"
   transform="matrix(0.352778,0,0,0.352778,-71.3409,-4.02131)">
    <g
   id="use7"
   transform="translate(239.56799,26.899)">
      <path
   d="m 8.671875,-6.625 c 0,-1.265625 -0.015625,-3.40625 -0.890625,-5.0625 -0.765625,-1.453125 -1.984375,-1.96875 -3.046875,-1.96875 -1,0 -2.25,0.453125 -3.046875,1.9375 -0.8125,1.5625 -0.90625,3.484375 -0.90625,5.09375 0,1.171875 0.03125,2.96875 0.671875,4.53125 0.875,2.140625 2.46875,2.421875 3.28125,2.421875 C 5.6875,0.328125 7.125,-0.0625 7.96875,-2.03125 8.59375,-3.453125 8.671875,-5.125 8.671875,-6.625 Z M 4.734375,0 C 3.40625,0 2.625,-1.140625 2.328125,-2.703125 c -0.21875,-1.21875 -0.21875,-3 -0.21875,-4.15625 0,-1.59375 0,-2.90625 0.265625,-4.171875 0.390625,-1.75 1.546875,-2.296875 2.359375,-2.296875 0.84375,0 1.9375,0.5625 2.328125,2.25 0.265625,1.1875 0.296875,2.5625 0.296875,4.21875 0,1.34375 0,3 -0.25,4.21875 C 6.671875,-0.390625 5.453125,0 4.734375,0 Z m 0,0"
   id="path11" />
    </g>
  </g>
</g><g
       transform="translate(29.477188,56.952058)"
       id="g20"><g
   fill="#000000"
   fill-opacity="1"
   id="g13"
   transform="matrix(0.352778,0,0,0.352778,-71.7299,-4.02131)">
    <g
   id="g12"
   transform="translate(202.407,26.899)">
      <path
   d="m 4.765625,-13.8125 c 0.03125,-0.09375 0.0625,-0.21875 0.0625,-0.3125 0,-0.203125 -0.203125,-0.203125 -0.25,-0.203125 -0.015625,0 -0.75,0.04687 -1.125,0.09375 -0.359375,0.01563 -0.671875,0.0625 -1.03125,0.07813 -0.5,0.04687 -0.640625,0.0625 -0.640625,0.4375 0,0.203125 0.203125,0.203125 0.40625,0.203125 1.0625,0 1.0625,0.1875 1.0625,0.40625 C 3.25,-12.96875 3.078125,-12.375 3,-12 l -0.5,1.984375 C 2.296875,-9.1875 1.109375,-4.5 1.03125,-4.125 0.921875,-3.609375 0.921875,-3.265625 0.921875,-3 c 0,2.109375 1.1875,3.203125 2.53125,3.203125 2.390625,0 4.875,-3.078125 4.875,-6.0625 0,-1.90625 -1.078125,-3.25 -2.625,-3.25 -1.078125,0 -2.046875,0.890625 -2.4375,1.296875 z M 3.46875,-0.203125 c -0.65625,0 -1.375,-0.5 -1.375,-2.109375 0,-0.6875 0.046875,-1.078125 0.421875,-2.515625 C 2.578125,-5.109375 2.90625,-6.421875 3,-6.6875 c 0.03125,-0.171875 1.25,-2.015625 2.65625,-2.015625 0.90625,0 1.328125,0.921875 1.328125,1.984375 0,1 -0.578125,3.328125 -1.09375,4.40625 C 5.375,-1.203125 4.421875,-0.203125 3.46875,-0.203125 Z m 0,0"
   id="path12" />
    </g>
  </g>
  <g
   fill="#000000"
   fill-opacity="1"
   id="g15"
   transform="matrix(0.352778,0,0,0.352778,-71.7299,-4.02131)">
    <g
   id="g14"
   transform="translate(216.748,26.899)">
      <path
   d="m 3.28125,-14.75 c 0,-0.375 0,-0.75 -0.40625,-0.75 -0.421875,0 -0.421875,0.375 -0.421875,0.75 V 4.421875 c 0,0.375 0,0.75 0.421875,0.75 0.40625,0 0.40625,-0.375 0.40625,-0.75 z m 0,0"
   id="path13" />
    </g>
  </g>
  <g
   fill="#000000"
   fill-opacity="1"
   id="g17"
   transform="matrix(0.352778,0,0,0.352778,-71.7299,-4.02131)">
    <g
   id="g16"
   transform="translate(228.23222,26.899)">
      <path
   d="m 5.578125,-13.59375 c 0,-0.375 0,-0.734375 -0.40625,-0.734375 C 4.75,-14.328125 4.75,-13.96875 4.75,-13.59375 V 1.140625 C 4.25,0.34375 3.671875,-0.234375 3.15625,-0.625 c -1.25,-0.9375 -2.515625,-1.15625 -2.5625,-1.15625 -0.25,0 -0.25,0.234375 -0.25,0.390625 0,0.34375 0.03125,0.359375 0.484375,0.5 C 2.234375,-0.5 3.03125,0.25 3.515625,0.765625 4.5625,1.90625 4.8125,3.140625 4.9375,3.78125 4.953125,3.890625 5.015625,3.984375 5.171875,3.984375 5.34375,3.984375 5.375,3.84375 5.40625,3.65625 5.859375,1.328125 7.359375,-0.296875 9.625,-0.921875 9.9375,-1.03125 9.984375,-1.03125 9.984375,-1.390625 c 0,-0.15625 0,-0.390625 -0.25,-0.390625 -0.0625,0 -1.28125,0.234375 -2.46875,1.078125 C 6.59375,-0.1875 6.03125,0.4375 5.578125,1.140625 Z m 0,0"
   id="path15" />
    </g>
  </g>
  <g
   fill="#000000"
   fill-opacity="1"
   id="g19"
   transform="matrix(0.352778,0,0,0.352778,-71.7299,-4.02131)">
    <g
   id="g18"
   transform="translate(238.55901,26.899)">
      <path
   d="m 8.671875,-6.625 c 0,-1.265625 -0.015625,-3.40625 -0.890625,-5.0625 -0.765625,-1.453125 -1.984375,-1.96875 -3.046875,-1.96875 -1,0 -2.25,0.453125 -3.046875,1.9375 -0.8125,1.5625 -0.90625,3.484375 -0.90625,5.09375 0,1.171875 0.03125,2.96875 0.671875,4.53125 0.875,2.140625 2.46875,2.421875 3.28125,2.421875 C 5.6875,0.328125 7.125,-0.0625 7.96875,-2.03125 8.59375,-3.453125 8.671875,-5.125 8.671875,-6.625 Z M 4.734375,0 C 3.40625,0 2.625,-1.140625 2.328125,-2.703125 c -0.21875,-1.21875 -0.21875,-3 -0.21875,-4.15625 0,-1.59375 0,-2.90625 0.265625,-4.171875 0.390625,-1.75 1.546875,-2.296875 2.359375,-2.296875 0.84375,0 1.9375,0.5625 2.328125,2.25 0.265625,1.1875 0.296875,2.5625 0.296875,4.21875 0,1.34375 0,3 -0.25,4.21875 C 6.671875,-0.390625 5.453125,0 4.734375,0 Z m 0,0"
   id="path17" />
    </g>
  </g>
</g><g
       transform="translate(81.201224,85.761792)"
       id="g29"><g
   fill="#000000"
   fill-opacity="1"
   id="g22"
   transform="matrix(0.352778,0,0,0.352778,-71.7299,-4.02131)">
    <g
   id="g21"
   transform="translate(202.407,26.899)">
      <path
   d="m 4.765625,-13.8125 c 0.03125,-0.09375 0.0625,-0.21875 0.0625,-0.3125 0,-0.203125 -0.203125,-0.203125 -0.25,-0.203125 -0.015625,0 -0.75,0.04687 -1.125,0.09375 -0.359375,0.01563 -0.671875,0.0625 -1.03125,0.07813 -0.5,0.04687 -0.640625,0.0625 -0.640625,0.4375 0,0.203125 0.203125,0.203125 0.40625,0.203125 1.0625,0 1.0625,0.1875 1.0625,0.40625 C 3.25,-12.96875 3.078125,-12.375 3,-12 l -0.5,1.984375 C 2.296875,-9.1875 1.109375,-4.5 1.03125,-4.125 0.921875,-3.609375 0.921875,-3.265625 0.921875,-3 c 0,2.109375 1.1875,3.203125 2.53125,3.203125 2.390625,0 4.875,-3.078125 4.875,-6.0625 0,-1.90625 -1.078125,-3.25 -2.625,-3.25 -1.078125,0 -2.046875,0.890625 -2.4375,1.296875 z M 3.46875,-0.203125 c -0.65625,0 -1.375,-0.5 -1.375,-2.109375 0,-0.6875 0.046875,-1.078125 0.421875,-2.515625 C 2.578125,-5.109375 2.90625,-6.421875 3,-6.6875 c 0.03125,-0.171875 1.25,-2.015625 2.65625,-2.015625 0.90625,0 1.328125,0.921875 1.328125,1.984375 0,1 -0.578125,3.328125 -1.09375,4.40625 C 5.375,-1.203125 4.421875,-0.203125 3.46875,-0.203125 Z m 0,0"
   id="path20" />
    </g>
  </g>
  <g
   fill="#000000"
   fill-opacity="1"
   id="g24"
   transform="matrix(0.352778,0,0,0.352778,-71.7299,-4.02131)">
    <g
   id="g23"
   transform="translate(216.748,26.899)">
      <path
   d="m 3.28125,-14.75 c 0,-0.375 0,-0.75 -0.40625,-0.75 -0.421875,0 -0.421875,0.375 -0.421875,0.75 V 4.421875 c 0,0.375 0,0.75 0.421875,0.75 0.40625,0 0.40625,-0.375 0.40625,-0.75 z m 0,0"
   id="path22" />
    </g>
  </g>
  <g
   fill="#000000"
   fill-opacity="1"
   id="g26"
   transform="matrix(0.352778,0,0,0.352778,-71.7299,-4.02131)">
    <g
   id="g25"
   transform="translate(228.23222,26.899)">
      <path
   d="m 5.578125,-11.46875 c 0.5,0.796875 1.078125,1.375 1.59375,1.765625 1.25,0.9375 2.515625,1.15625 2.5625,1.15625 0.25,0 0.25,-0.234375 0.25,-0.390625 0,-0.34375 -0.03125,-0.359375 -0.484375,-0.5 -1.40625,-0.390625 -2.203125,-1.140625 -2.6875,-1.65625 -1.046875,-1.140625 -1.296875,-2.375 -1.421875,-3.03125 -0.015625,-0.109375 -0.109375,-0.1875 -0.21875,-0.1875 -0.1875,0 -0.21875,0.125 -0.25,0.375 -0.484375,2.28125 -1.953125,3.90625 -4.21875,4.53125 -0.3125,0.109375 -0.359375,0.109375 -0.359375,0.46875 0,0.15625 0,0.390625 0.25,0.390625 0.0625,0 1.28125,-0.234375 2.46875,-1.078125 0.671875,-0.515625 1.234375,-1.140625 1.6875,-1.84375 V 3.265625 C 4.75,3.640625 4.75,4 5.171875,4 5.578125,4 5.578125,3.640625 5.578125,3.265625 Z m 0,0"
   id="path24" />
    </g>
  </g>
  <g
   fill="#000000"
   fill-opacity="1"
   id="g28"
   transform="matrix(0.352778,0,0,0.352778,-71.7299,-4.02131)">
    <g
   id="g27"
   transform="translate(238.55901,26.899)">
      <path
   d="m 8.671875,-6.625 c 0,-1.265625 -0.015625,-3.40625 -0.890625,-5.0625 -0.765625,-1.453125 -1.984375,-1.96875 -3.046875,-1.96875 -1,0 -2.25,0.453125 -3.046875,1.9375 -0.8125,1.5625 -0.90625,3.484375 -0.90625,5.09375 0,1.171875 0.03125,2.96875 0.671875,4.53125 0.875,2.140625 2.46875,2.421875 3.28125,2.421875 C 5.6875,0.328125 7.125,-0.0625 7.96875,-2.03125 8.59375,-3.453125 8.671875,-5.125 8.671875,-6.625 Z M 4.734375,0 C 3.40625,0 2.625,-1.140625 2.328125,-2.703125 c -0.21875,-1.21875 -0.21875,-3 -0.21875,-4.15625 0,-1.59375 0,-2.90625 0.265625,-4.171875 0.390625,-1.75 1.546875,-2.296875 2.359375,-2.296875 0.84375,0 1.9375,0.5625 2.328125,2.25 0.265625,1.1875 0.296875,2.5625 0.296875,4.21875 0,1.34375 0,3 -0.25,4.21875 C 6.671875,-0.390625 5.453125,0 4.734375,0 Z m 0,0"
   id="path26" />
    </g>
  </g>
</g><g
       transform="translate(66.046329,77.196735)"
       id="g30"><g
   fill="#000000"
   fill-opacity="1"
   id="g2"
   transform="matrix(0.352778,0,0,0.352778,-77.8719,-6.27578)">
    <g
   id="use1"
   transform="translate(219.911,26.899)">
      <path
   d="m 6.21875,-2.453125 c -0.109375,0.34375 -0.109375,0.390625 -0.390625,0.78125 -0.453125,0.578125 -1.359375,1.46875 -2.34375,1.46875 -0.84375,0 -1.3125,-0.765625 -1.3125,-1.984375 0,-1.140625 0.640625,-3.453125 1.03125,-4.3125 C 3.90625,-7.953125 4.875,-8.703125 5.6875,-8.703125 c 1.359375,0 1.625,1.703125 1.625,1.859375 0,0.03125 -0.0625,0.296875 -0.078125,0.34375 z M 7.546875,-7.75 C 7.3125,-8.28125 6.75,-9.109375 5.6875,-9.109375 c -2.34375,0 -4.859375,3.015625 -4.859375,6.078125 0,2.046875 1.203125,3.234375 2.59375,3.234375 1.140625,0 2.109375,-0.890625 2.6875,-1.5625 0.21875,1.21875 1.1875,1.5625 1.796875,1.5625 0.625,0 1.125,-0.375 1.5,-1.109375 0.328125,-0.703125 0.609375,-1.96875 0.609375,-2.046875 0,-0.109375 -0.078125,-0.1875 -0.203125,-0.1875 -0.1875,0 -0.203125,0.109375 -0.296875,0.40625 -0.296875,1.21875 -0.703125,2.53125 -1.546875,2.53125 -0.59375,0 -0.640625,-0.546875 -0.640625,-0.953125 0,-0.46875 0.0625,-0.703125 0.25,-1.515625 0.140625,-0.515625 0.25,-0.96875 0.421875,-1.5625 0.765625,-3.09375 0.9375,-3.84375 0.9375,-3.96875 0,-0.28125 -0.21875,-0.515625 -0.53125,-0.515625 C 7.75,-8.71875 7.578125,-8 7.546875,-7.75 Z m 0,0"
   id="path29" />
    </g>
  </g>
</g><g
       transform="translate(49.833099,85.316853)"
       id="g33"><g
   fill="#000000"
   fill-opacity="1"
   id="g32"
   transform="matrix(0.352778,0,0,0.352778,-78.2609,-4.43473)">
    <g
   id="g31"
   transform="translate(220.92,26.899)">
      <path
   d="m 4.765625,-13.8125 c 0.03125,-0.09375 0.0625,-0.21875 0.0625,-0.3125 0,-0.203125 -0.203125,-0.203125 -0.25,-0.203125 -0.015625,0 -0.75,0.04687 -1.125,0.09375 -0.359375,0.01563 -0.671875,0.0625 -1.03125,0.07813 -0.5,0.04687 -0.640625,0.0625 -0.640625,0.4375 0,0.203125 0.203125,0.203125 0.40625,0.203125 1.0625,0 1.0625,0.1875 1.0625,0.40625 C 3.25,-12.96875 3.078125,-12.375 3,-12 l -0.5,1.984375 C 2.296875,-9.1875 1.109375,-4.5 1.03125,-4.125 0.921875,-3.609375 0.921875,-3.265625 0.921875,-3 c 0,2.109375 1.1875,3.203125 2.53125,3.203125 2.390625,0 4.875,-3.078125 4.875,-6.0625 0,-1.90625 -1.078125,-3.25 -2.625,-3.25 -1.078125,0 -2.046875,0.890625 -2.4375,1.296875 z M 3.46875,-0.203125 c -0.65625,0 -1.375,-0.5 -1.375,-2.109375 0,-0.6875 0.046875,-1.078125 0.421875,-2.515625 C 2.578125,-5.109375 2.90625,-6.421875 3,-6.6875 c 0.03125,-0.171875 1.25,-2.015625 2.65625,-2.015625 0.90625,0 1.328125,0.921875 1.328125,1.984375 0,1 -0.578125,3.328125 -1.09375,4.40625 C 5.375,-1.203125 4.421875,-0.203125 3.46875,-0.203125 Z m 0,0"
   id="path30" />
    </g>
  </g>
</g><g
       transform="translate(48.720755,67.630538)"
       id="g35"><g
   fill="#000000"
   fill-opacity="1"
   id="g3"
   transform="matrix(0.352778,0,0,0.352778,-76.3024,-6.27578)">
    <g
   id="use2"
   transform="translate(215.71201,26.899)">
      <path
   d="m 9.796875,-8.421875 c -0.671875,0.125 -0.921875,0.609375 -0.921875,1 0,0.5 0.40625,0.671875 0.6875,0.671875 0.625,0 1.0625,-0.546875 1.0625,-1.09375 0,-0.875 -1,-1.265625 -1.859375,-1.265625 -1.265625,0 -1.96875,1.234375 -2.15625,1.625 -0.46875,-1.546875 -1.75,-1.625 -2.125,-1.625 -2.109375,0 -3.21875,2.703125 -3.21875,3.15625 0,0.09375 0.078125,0.1875 0.21875,0.1875 0.171875,0 0.203125,-0.125 0.25,-0.203125 0.703125,-2.296875 2.09375,-2.734375 2.6875,-2.734375 0.921875,0 1.109375,0.875 1.109375,1.375 0,0.453125 -0.125,0.921875 -0.359375,1.921875 L 4.46875,-2.578125 c -0.3125,1.234375 -0.921875,2.375 -2.015625,2.375 -0.09375,0 -0.609375,0 -1.046875,-0.265625 C 2.140625,-0.625 2.3125,-1.234375 2.3125,-1.484375 2.3125,-1.90625 2,-2.140625 1.609375,-2.140625 c -0.5,0 -1.03125,0.421875 -1.03125,1.09375 0,0.859375 0.96875,1.25 1.859375,1.25 0.984375,0 1.6875,-0.78125 2.125,-1.625 0.328125,1.21875 1.359375,1.625 2.125,1.625 2.109375,0 3.234375,-2.703125 3.234375,-3.15625 0,-0.109375 -0.09375,-0.1875 -0.21875,-0.1875 -0.1875,0 -0.203125,0.109375 -0.265625,0.265625 -0.5625,1.828125 -1.75,2.671875 -2.6875,2.671875 -0.71875,0 -1.109375,-0.546875 -1.109375,-1.390625 0,-0.453125 0.078125,-0.78125 0.40625,-2.140625 l 0.734375,-2.8125 c 0.296875,-1.234375 1,-2.15625 1.953125,-2.15625 0.046875,0 0.625,0 1.0625,0.28125 z m 0,0"
   id="path33" />
    </g>
  </g>
  <g
   fill="#000000"
   fill-opacity="1"
   id="g34"
   transform="matrix(0.352778,0,0,0.352778,-76.3024,-6.27578)">
    <g
   id="use3"
   transform="translate(227.209,29.997999)">
      <path
   d="m 6.421875,-4.59375 c 0,-1.1875 -0.0625,-2.34375 -0.578125,-3.4375 -0.59375,-1.1875 -1.625,-1.5 -2.328125,-1.5 -0.828125,0 -1.859375,0.40625 -2.375,1.59375 -0.40625,0.90625 -0.546875,1.796875 -0.546875,3.34375 0,1.390625 0.09375,2.4375 0.609375,3.453125 0.5625,1.09375 1.546875,1.4375 2.296875,1.4375 1.25,0 1.96875,-0.734375 2.375,-1.578125 0.515625,-1.078125 0.546875,-2.484375 0.546875,-3.3125 z M 3.5,0.015625 C 3.046875,0.015625 2.109375,-0.25 1.84375,-1.8125 1.671875,-2.671875 1.671875,-3.765625 1.671875,-4.765625 1.671875,-5.9375 1.671875,-7 1.90625,-7.84375 2.15625,-8.8125 2.890625,-9.25 3.5,-9.25 c 0.546875,0 1.375,0.328125 1.65625,1.5625 0.171875,0.8125 0.171875,1.953125 0.171875,2.921875 0,0.96875 0,2.046875 -0.15625,2.921875 C 4.90625,-0.265625 4,0.015625 3.5,0.015625 Z m 0,0"
   id="path34" />
    </g>
  </g>
</g><g
       transform="translate(82.202338,66.073255)"
       id="g40"><g
   fill="#000000"
   fill-opacity="1"
   id="g37"
   transform="matrix(0.352778,0,0,0.352778,-76.3024,-6.27578)">
    <g
   id="g36"
   transform="translate(215.71201,26.899)">
      <path
   d="m 9.796875,-8.421875 c -0.671875,0.125 -0.921875,0.609375 -0.921875,1 0,0.5 0.40625,0.671875 0.6875,0.671875 0.625,0 1.0625,-0.546875 1.0625,-1.09375 0,-0.875 -1,-1.265625 -1.859375,-1.265625 -1.265625,0 -1.96875,1.234375 -2.15625,1.625 -0.46875,-1.546875 -1.75,-1.625 -2.125,-1.625 -2.109375,0 -3.21875,2.703125 -3.21875,3.15625 0,0.09375 0.078125,0.1875 0.21875,0.1875 0.171875,0 0.203125,-0.125 0.25,-0.203125 0.703125,-2.296875 2.09375,-2.734375 2.6875,-2.734375 0.921875,0 1.109375,0.875 1.109375,1.375 0,0.453125 -0.125,0.921875 -0.359375,1.921875 L 4.46875,-2.578125 c -0.3125,1.234375 -0.921875,2.375 -2.015625,2.375 -0.09375,0 -0.609375,0 -1.046875,-0.265625 C 2.140625,-0.625 2.3125,-1.234375 2.3125,-1.484375 2.3125,-1.90625 2,-2.140625 1.609375,-2.140625 c -0.5,0 -1.03125,0.421875 -1.03125,1.09375 0,0.859375 0.96875,1.25 1.859375,1.25 0.984375,0 1.6875,-0.78125 2.125,-1.625 0.328125,1.21875 1.359375,1.625 2.125,1.625 2.109375,0 3.234375,-2.703125 3.234375,-3.15625 0,-0.109375 -0.09375,-0.1875 -0.21875,-0.1875 -0.1875,0 -0.203125,0.109375 -0.265625,0.265625 -0.5625,1.828125 -1.75,2.671875 -2.6875,2.671875 -0.71875,0 -1.109375,-0.546875 -1.109375,-1.390625 0,-0.453125 0.078125,-0.78125 0.40625,-2.140625 l 0.734375,-2.8125 c 0.296875,-1.234375 1,-2.15625 1.953125,-2.15625 0.046875,0 0.625,0 1.0625,0.28125 z m 0,0"
   id="path35" />
    </g>
  </g>
  <g
   fill="#000000"
   fill-opacity="1"
   id="g39"
   transform="matrix(0.352778,0,0,0.352778,-76.3024,-6.27578)">
    <g
   id="g38"
   transform="translate(227.209,29.997999)">
      <path
   d="m 4.125,-9.1875 c 0,-0.34375 0,-0.34375 -0.28125,-0.34375 C 3.5,-9.15625 2.78125,-8.625 1.3125,-8.625 v 0.421875 c 0.328125,0 1.046875,0 1.828125,-0.375 v 7.46875 c 0,0.515625 -0.046875,0.6875 -1.296875,0.6875 H 1.390625 V 0 c 0.390625,-0.03125 1.78125,-0.03125 2.25,-0.03125 0.46875,0 1.859375,0 2.234375,0.03125 V -0.421875 H 5.4375 c -1.265625,0 -1.3125,-0.171875 -1.3125,-0.6875 z m 0,0"
   id="path37" />
    </g>
  </g>
</g><g
       transform="translate(62.7363,94.882987)"
       id="g45"><g
   fill="#000000"
   fill-opacity="1"
   id="g42"
   transform="matrix(0.352778,0,0,0.352778,-76.3024,-6.27578)">
    <g
   id="g41"
   transform="translate(215.71201,26.899)">
      <path
   d="m 9.796875,-8.421875 c -0.671875,0.125 -0.921875,0.609375 -0.921875,1 0,0.5 0.40625,0.671875 0.6875,0.671875 0.625,0 1.0625,-0.546875 1.0625,-1.09375 0,-0.875 -1,-1.265625 -1.859375,-1.265625 -1.265625,0 -1.96875,1.234375 -2.15625,1.625 -0.46875,-1.546875 -1.75,-1.625 -2.125,-1.625 -2.109375,0 -3.21875,2.703125 -3.21875,3.15625 0,0.09375 0.078125,0.1875 0.21875,0.1875 0.171875,0 0.203125,-0.125 0.25,-0.203125 0.703125,-2.296875 2.09375,-2.734375 2.6875,-2.734375 0.921875,0 1.109375,0.875 1.109375,1.375 0,0.453125 -0.125,0.921875 -0.359375,1.921875 L 4.46875,-2.578125 c -0.3125,1.234375 -0.921875,2.375 -2.015625,2.375 -0.09375,0 -0.609375,0 -1.046875,-0.265625 C 2.140625,-0.625 2.3125,-1.234375 2.3125,-1.484375 2.3125,-1.90625 2,-2.140625 1.609375,-2.140625 c -0.5,0 -1.03125,0.421875 -1.03125,1.09375 0,0.859375 0.96875,1.25 1.859375,1.25 0.984375,0 1.6875,-0.78125 2.125,-1.625 0.328125,1.21875 1.359375,1.625 2.125,1.625 2.109375,0 3.234375,-2.703125 3.234375,-3.15625 0,-0.109375 -0.09375,-0.1875 -0.21875,-0.1875 -0.1875,0 -0.203125,0.109375 -0.265625,0.265625 -0.5625,1.828125 -1.75,2.671875 -2.6875,2.671875 -0.71875,0 -1.109375,-0.546875 -1.109375,-1.390625 0,-0.453125 0.078125,-0.78125 0.40625,-2.140625 l 0.734375,-2.8125 c 0.296875,-1.234375 1,-2.15625 1.953125,-2.15625 0.046875,0 0.625,0 1.0625,0.28125 z m 0,0"
   id="path40" />
    </g>
  </g>
  <g
   fill="#000000"
   fill-opacity="1"
   id="g44"
   transform="matrix(0.352778,0,0,0.352778,-76.3024,-6.27578)">
    <g
   id="g43"
   transform="translate(227.209,29.997999)">
      <path
   d="M 6.3125,-2.40625 H 6 c -0.046875,0.234375 -0.15625,1.03125 -0.3125,1.265625 -0.09375,0.125 -0.90625,0.125 -1.34375,0.125 H 1.6875 c 0.390625,-0.328125 1.265625,-1.25 1.640625,-1.59375 2.1875,-2.015625 2.984375,-2.75 2.984375,-4.171875 0,-1.65625 -1.3125,-2.75 -2.96875,-2.75 -1.671875,0 -2.640625,1.40625 -2.640625,2.640625 0,0.734375 0.625,0.734375 0.671875,0.734375 0.296875,0 0.671875,-0.21875 0.671875,-0.671875 C 2.046875,-7.234375 1.78125,-7.5 1.375,-7.5 1.25,-7.5 1.21875,-7.5 1.171875,-7.484375 1.453125,-8.46875 2.21875,-9.125 3.15625,-9.125 4.375,-9.125 5.125,-8.109375 5.125,-6.78125 5.125,-5.5625 4.421875,-4.5 3.59375,-3.578125 L 0.703125,-0.34375 V 0 H 5.9375 Z m 0,0"
   id="path42" />
    </g>
  </g>
</g></g></svg>
