<?xml version="1.0" encoding="UTF-8" standalone="no"?>
<svg
   x="0"
   y="0"
   width="585.0603"
   height="696.93298"
   style="fill:none"
   version="1.1"
   id="svg411"
   sodipodi:docname="kill_epsilons_with_a_dagger.svg"
   inkscape:version="1.4 (86a8ad7, 2024-10-11)"
   xmlns:inkscape="http://www.inkscape.org/namespaces/inkscape"
   xmlns:sodipodi="http://sodipodi.sourceforge.net/DTD/sodipodi-0.dtd"
   xmlns="http://www.w3.org/2000/svg"
   xmlns:svg="http://www.w3.org/2000/svg">
  <defs
     id="defs411" />
  <sodipodi:namedview
     id="namedview411"
     pagecolor="#ffffff"
     bordercolor="#000000"
     borderopacity="0.25"
     inkscape:showpageshadow="2"
     inkscape:pageopacity="0.0"
     inkscape:pagecheckerboard="0"
     inkscape:deskcolor="#d1d1d1"
     inkscape:zoom="1.0964674"
     inkscape:cx="310.08674"
     inkscape:cy="352.49566"
     inkscape:window-width="1920"
     inkscape:window-height="1009"
     inkscape:window-x="-8"
     inkscape:window-y="-8"
     inkscape:window-maximized="1"
     inkscape:current-layer="svg411" />
  <path
     class="connection real"
     stroke-dasharray="none"
     d="m 224.9548,663.44 c -44.55,-31.61 -69.62,-32.78 -105.7,-8.35"
     style="fill:none;fill-opacity:1;stroke:#ff0000;stroke-width:2px;stroke-opacity:1"
     id="path1" />
  <path
     d="m 123.73084,644.05472 -7.27271,12.96197 14.66751,-2.42851 -7.3833,-2.68523 z"
     id="path2"
     style="fill:#ff0000;fill-opacity:1;stroke:none;stroke-width:2px" />
  <path
     class="connection real"
     stroke-dasharray="none"
     d="m 224.9548,663.44 c 37.04,53.22 65.06,-16.75 21.48,-5.92"
     style="fill:none;fill-opacity:1;stroke:#ff0000;stroke-width:2px;stroke-opacity:1"
     id="path3" />
  <path
     d="m 253.74862,648.31658 -10.80717,10.20343 14.72436,2.05596 -6.24661,-4.76482 z"
     id="path4"
     style="fill:#ff0000;fill-opacity:1;stroke:none;stroke-width:2px" />
  <path
     class="connection real"
     stroke-dasharray="none"
     d="m 162.7948,236.27 q -3.77,-0.16 -3.87,-3.84 0.16,-3.53 -3.29,-3.72 -3.43,-0.32 -3.13,-4.2 1,-3.06 -2.44,-4.03 -3.37,-1.19 -1.97,-4.38 1.58,-3.25 -1.38,-5.09 -2.78,-2.22 -0.3,-4.64 2.73,-2.1 0.86,-4.9 -1.21,-3.63 2.16,-4.42 3.41,-0.25 3.42,-3.63 1.13,-3.7 4.47,-2.45 2.96,1.82 4.83,-0.83 3.07,-2.18 5.01,1.06 0.55,3.17 4.04,2.95 3.67,0.78 2.62,4.21 -1.58,3.13 1.32,4.83 2.77,2.45 0.33,4.86 l -0.01,0.59 -0.92,7.93"
     style="fill:none;fill-opacity:1;stroke:#ff0000;stroke-width:2px;stroke-opacity:1"
     id="path5" />
  <path
     d="m 170.82043,205.84559 2.82937,14.59108 9.62165,-11.33391 -7.36922,2.72365 z"
     id="path6"
     style="fill:#ff0000;fill-opacity:1;stroke:none;stroke-width:2px" />
  <path
     class="connection real"
     stroke-dasharray="none"
     d="m 227.4548,319.44 q -2.63,2.58 -5.32,0.15 -2.57,-2.46 -5,0.06 -2.38,2.51 -4.68,-0.01 -2.73,-2.54 -5.47,-0.11 -2.17,2.43 -4.6,-0.17 -2.3,-2.62 -5.26,-0.29 -2.45,2.35 -4.95,-0.34 -2.39,-2.69 -4.7,-0.37 -2.7,2.29 -5.35,-0.44 -2.23,-2.69 -4.84,-0.38 -2.58,2.33 -4.85,-0.31 -2.34,-2.62 -4.95,-0.22 -2.58,2.44 -5.16,-0.08 -2.72,-2.48 -4.99,0.08 -2.26,2.58 -4.82,0.21 -2.71,-2.34 -5.15,0.36 -2.47,2.74 -4.97,0.48 -2.61,-2.22 -5.32,0.64 l -1.23,0.17 -7.85,1.17"
     style="fill:none;fill-opacity:1;stroke:#ff0000;stroke-width:2px;stroke-opacity:1"
     id="path7" />
  <path
     d="m 136.50379,312.01957 -12.104,8.62543 14.30345,4.05523 -5.53437,-5.57622 z"
     id="path8"
     style="fill:#ff0000;fill-opacity:1;stroke:none;stroke-width:2px" />
  <path
     class="connection real"
     stroke-dasharray="none"
     d="m 162.7948,236.27 c -42.8,-0.12 -81.419995,25.54 -65.249995,69"
     style="fill:none;fill-opacity:1;stroke:#ff0000;stroke-width:2px;stroke-opacity:1"
     id="path9" />
  <path
     d="m 87.710925,298.86163 11.18886,9.78337 0.64041,-14.8534 -4.14649,6.6731 z"
     id="path10"
     style="fill:#ff0000;fill-opacity:1;stroke:none;stroke-width:2px" />
  <path
     class="connection real"
     stroke-dasharray="none"
     d="m 162.7948,236.27 c -6.76,29.28 -12.17,63 43.61,75.16"
     style="fill:none;fill-opacity:1;stroke:#ff0000;stroke-width:2px;stroke-opacity:1"
     id="path11" />
  <path
     d="m 195.52302,315.91508 14.37677,-3.77008 -11.93429,-8.86602 3.19603,7.17697 z"
     id="path12"
     style="fill:#ff0000;fill-opacity:1;stroke:none;stroke-width:2px" />
  <path
     class="connection real"
     stroke-dasharray="none"
     d="m 224.4548,140.94 q -3.32,-1.84 -1.92,-5.32 1.65,-2.79 -1.62,-4.45 -3.26,-1.6 -1.8,-4.86 1.47,-3.23 -1.74,-4.63 -3.18,-1.34 -1.68,-4.41 1.5,-3.03 -1.85,-4.69 -3.32,-1.55 -1.8,-4.43 1.31,-3.32 -1.97,-4.61 -3.44,-1.6 -2.13,-4.73 1.29,-3.12 -2.12,-4.38 -3.37,-1.08 -2.32,-4.4 0.78,-3.66 -2.56,-4.34 -3.48,-0.78 -2.83,-4.23 0.51,-3.49 -2.96,-3.79 -3.6,-0.29 -3.6,-3.86 0.01,-3.4 -3.61,-3.19 l -0.76,-0.6 -6.53,-4.27"
     style="fill:none;fill-opacity:1;stroke:#808080;stroke-width:2px;stroke-opacity:1"
     id="path13" />
  <path
     d="m 192.01263,63.904484 -14.86284,0.03218 9.32013,11.583125 -1.28779,-7.750174 z"
     id="path14"
     style="fill:#808080;fill-opacity:1;stroke:none;stroke-width:2px" />
  <path
     class="connection real"
     stroke-dasharray="none"
     d="m 159.7948,57.77 q 2.81,2.38 0.71,5.34 -2.04,2.97 0.89,4.97 2.94,1.81 1.05,4.65 -1.7,3.33 1.35,4.76 3.17,1.63 1.69,4.82 -1.35,3.27 1.94,4.48 3.27,0.97 2.36,4.51 -0.95,3.3 2.63,4.23 3.55,0.7 2.9,4 -0.25,3.68 3.17,3.83 3.65,0.32 3.43,3.73 -0.09,3.48 3.41,3.41 3.79,0.16 3.93,3.7 -0.09,3.29 3.53,3.19 3.66,-0.11 3.72,3.27 l 2.46,2.15 5.89,5.15"
     style="fill:none;fill-opacity:1;stroke:#808080;stroke-width:2px;stroke-opacity:1"
     id="path15" />
  <path
     d="m 193.3624,126.34092 14.2874,4.09575 -5.73763,-13.71544 -0.91468,7.80301 z"
     id="path16"
     style="fill:#808080;fill-opacity:1;stroke:none;stroke-width:2px" />
  <path
     class="connection real"
     stroke-dasharray="none"
     d="m 159.7948,57.77 q -1.28,3.51 -4.63,2.54 -3.44,-0.85 -4.27,2.62 -0.72,3.48 -4.24,2.9 -3.25,-0.73 -3.86,2.87 -0.49,3.6 -3.79,3.08 -3.69,-0.1 -3.72,3.28 -0.25,3.68 -3.62,3.48 -3.73,0.24 -3.5,3.65 0.02,3.72 -3.38,3.83 -3.43,0.22 -3.22,4 0.6,3.35 -2.79,3.77 -3.68,0.94 -2.88,4.3 0.89,3.3 -2.68,4.45 -3.35,0.88 -2.25,4.16 1.21,3.2 -2.23,4.7 -3.25,1.22 -1.81,4.38 l -1.13,3.12 -2.15,7.31"
     style="fill:none;fill-opacity:1;stroke:#808080;stroke-width:2px;stroke-opacity:1"
     id="path17" />
  <path
     d="m 99.038955,115.72197 3.752505,14.38136 8.8806,-11.92345 -7.18087,3.18726 z"
     id="path18"
     style="fill:#808080;fill-opacity:1;stroke:none;stroke-width:2px" />
  <path
     class="connection real"
     stroke-dasharray="none"
     d="M 102.7948,147.77 C 53.624805,189.17 36.794805,112.21 86.494805,134.06"
     style="fill:none;fill-opacity:1;stroke:#000000;stroke-width:2px"
     id="path19" />
  <path
     d="m 74.763095,135.33428 14.86171,0.18572 -9.14932,-11.71852 1.17403,7.76822 z"
     id="path20"
     style="fill:#000000;stroke:none;stroke-width:2px" />
  <path
     class="connection real"
     stroke-dasharray="none"
     d="m 102.7948,147.77 c 38.66,12.77 60.99,10.8 99.71,-0.28"
     style="fill:none;fill-opacity:1;stroke:#000000;stroke-width:2px"
     id="path21" />
  <path
     d="m 195.09482,156.37108 11.05497,-9.93441 -14.66931,-2.41766 6.12748,4.91708 z"
     id="path22"
     style="fill:#000000;stroke:none;stroke-width:2px" />
  <path
     class="real"
     d="m 85.124805,147.77 c 0,-9.76 7.91,-17.67 17.669995,-17.67 9.75,0 17.66,7.91 17.66,17.67 0,9.76 -7.91,17.67 -17.66,17.67 -9.759995,0 -17.669995,-7.91 -17.669995,-17.67 z"
     style="fill:#ffffff;fill-opacity:1;stroke:#000000;stroke-width:2px"
     id="path23" />
  <path
     class="real"
     d="m 206.7948,140.94 c 0,-9.76 7.91,-17.67 17.66,-17.67 9.76,0 17.67,7.91 17.67,17.67 0,9.75 -7.91,17.66 -17.67,17.66 -9.75,0 -17.66,-7.91 -17.66,-17.66 z"
     style="fill:#ffffff;fill-opacity:1;stroke:#000000;stroke-width:2px"
     id="path24" />
  <path
     class="real"
     d="m 209.9348,140.94 c 0,-8.02 6.5,-14.52 14.52,-14.52 8.02,0 14.52,6.5 14.52,14.52 0,8.02 -6.5,14.52 -14.52,14.52 -8.02,0 -14.52,-6.5 -14.52,-14.52 z"
     style="fill:#ffffff;fill-opacity:1;stroke:#000000;stroke-width:2px"
     id="path25" />
  <path
     class="connection real"
     stroke-dasharray="none"
     d="m 159.7948,57.77 q -3.77,-0.16 -3.87,-3.84 0.16,-3.53 -3.29,-3.72 -3.43,-0.32 -3.13,-4.2 1,-3.06 -2.44,-4.03 -3.37,-1.19 -1.97,-4.38 1.58,-3.25 -1.38,-5.09 -2.78,-2.22 -0.3,-4.64 2.73,-2.1 0.86,-4.9 -1.21,-3.63 2.16,-4.42 3.41,-0.25 3.42,-3.63 1.13,-3.7 4.47,-2.45 2.96,1.82 4.83,-0.83 3.07,-2.18 5.01,1.06 0.55,3.17 4.04,2.95 3.67,0.78 2.62,4.21 -1.58,3.13 1.32,4.83 2.77,2.45 0.33,4.86 l -0.01,0.59 -0.92,7.93"
     style="fill:none;fill-opacity:1;stroke:#808080;stroke-width:2px;stroke-opacity:1"
     id="path26" />
  <path
     d="m 167.82043,27.345582 2.82936,14.59108 9.62165,-11.333907 -7.36922,2.723649 z"
     id="path27"
     style="fill:#808080;fill-opacity:1;stroke:none;stroke-width:2px" />
  <path
     class="real"
     d="m 142.1248,57.77 c 0,-9.76 7.91,-17.67 17.67,-17.67 9.75,0 17.66,7.91 17.66,17.67 0,9.76 -7.91,17.67 -17.66,17.67 -9.76,0 -17.67,-7.91 -17.67,-17.67 z"
     style="fill:#ffffff;fill-opacity:1;stroke:#000000;stroke-width:2px"
     id="path28" />
  <path
     class="real"
     d="m 143.6248,14.63 c 0,-7.53 6.11,-13.63 13.64,-13.63 7.53,0 13.63,6.1 13.63,13.63 0,7.53 -6.1,13.64 -13.63,13.64 -7.53,0 -13.64,-6.11 -13.64,-13.64 z"
     style="fill:none;fill-opacity:1;stroke:#ff0000;stroke-width:2px;stroke-opacity:0.5"
     id="path29" />
  <path
     class="real"
     d="m 147.6148,4.99 19.29,19.29"
     style="fill:none;fill-opacity:1;stroke:#ff0000;stroke-width:2px;stroke-opacity:0.5"
     id="path30" />
  <path
     class="real"
     d="m 166.9048,4.99 -19.29,19.29"
     style="fill:none;fill-opacity:1;stroke:#ff0000;stroke-width:2px;stroke-opacity:0.5"
     id="path31" />
  <path
     class="connection real"
     stroke-dasharray="none"
     d="m 227.4548,319.44 q -3.32,-1.84 -1.92,-5.32 1.65,-2.79 -1.62,-4.45 -3.26,-1.6 -1.8,-4.86 1.47,-3.23 -1.74,-4.63 -3.18,-1.34 -1.68,-4.41 1.5,-3.03 -1.85,-4.69 -3.32,-1.55 -1.8,-4.43 1.31,-3.32 -1.97,-4.61 -3.44,-1.6 -2.13,-4.73 1.29,-3.12 -2.12,-4.38 -3.37,-1.08 -2.32,-4.4 0.78,-3.66 -2.56,-4.34 -3.48,-0.78 -2.83,-4.23 0.51,-3.49 -2.96,-3.79 -3.6,-0.29 -3.6,-3.86 0.01,-3.4 -3.61,-3.19 l -0.76,-0.6 -6.53,-4.27"
     style="fill:none;fill-opacity:1;stroke:#808080;stroke-width:2px;stroke-opacity:1"
     id="path32" />
  <path
     d="m 195.01263,242.40448 -14.86284,0.0322 9.32013,11.58313 -1.28779,-7.75018 z"
     id="path33"
     style="fill:#808080;fill-opacity:1;stroke:none;stroke-width:2px" />
  <path
     class="connection real"
     stroke-dasharray="none"
     d="m 162.7948,236.27 q 2.81,2.38 0.71,5.34 -2.04,2.97 0.89,4.97 2.94,1.81 1.05,4.65 -1.7,3.33 1.35,4.76 3.17,1.63 1.69,4.82 -1.35,3.27 1.94,4.48 3.27,0.97 2.36,4.51 -0.95,3.3 2.63,4.23 3.55,0.7 2.9,4 -0.25,3.68 3.17,3.83 3.65,0.32 3.43,3.73 -0.09,3.48 3.41,3.41 3.79,0.16 3.93,3.7 -0.09,3.29 3.53,3.19 3.66,-0.11 3.72,3.27 l 2.46,2.15 5.89,5.15"
     style="fill:none;fill-opacity:1;stroke:#808080;stroke-width:2px;stroke-opacity:1"
     id="path34" />
  <path
     d="m 196.36239,304.84092 14.2874,4.09575 -5.73763,-13.71544 -0.91468,7.80301 z"
     id="path35"
     style="fill:#808080;fill-opacity:1;stroke:none;stroke-width:2px" />
  <path
     class="connection real"
     stroke-dasharray="none"
     d="m 162.7948,236.27 q -1.28,3.51 -4.63,2.54 -3.44,-0.85 -4.27,2.62 -0.72,3.48 -4.24,2.9 -3.25,-0.73 -3.86,2.87 -0.49,3.6 -3.79,3.08 -3.69,-0.1 -3.72,3.28 -0.25,3.68 -3.62,3.48 -3.73,0.24 -3.5,3.65 0.02,3.72 -3.38,3.83 -3.43,0.22 -3.22,4 0.6,3.35 -2.79,3.77 -3.68,0.94 -2.88,4.3 0.89,3.3 -2.68,4.45 -3.35,0.88 -2.25,4.16 1.21,3.2 -2.23,4.7 -3.25,1.22 -1.81,4.38 l -1.13,3.12 -2.15,7.31"
     style="fill:none;fill-opacity:1;stroke:#808080;stroke-width:2px;stroke-opacity:1"
     id="path36" />
  <path
     d="m 102.03895,294.22197 3.75251,14.38136 8.8806,-11.92344 -7.18087,3.18725 z"
     id="path37"
     style="fill:#808080;fill-opacity:1;stroke:none;stroke-width:2px" />
  <path
     class="connection real"
     stroke-dasharray="none"
     d="m 227.4548,319.44 q 3.67,0.82 3.31,4.46 -0.27,3.61 3.25,3.83 3.38,-0.07 3.18,3.23 0.47,3.76 4.11,3.43 3.34,-0.74 3.95,2.51 1.42,3.44 4.67,1.95 3.02,-1.88 4.74,0.79 3.12,2.33 4.98,-0.62 1.28,-3.17 4.51,-2.19 3.61,0.25 3.69,-3.62 -0.92,-3.19 2.25,-4.12 3.17,-2.04 0.98,-5.06 -2.65,-2.02 -0.88,-4.8 0.8,-3.61 -2.95,-3.94 -3.38,0.81 -4.42,-2.24 -2.13,-2.98 -5.27,-0.69 l -1.01,0.02 -7.61,1.14"
     style="fill:none;fill-opacity:1;stroke:#ff0000;stroke-width:2px;stroke-opacity:1"
     id="path38" />
  <path
     d="m 256.24862,304.31658 -10.80717,10.20343 14.72436,2.05595 -6.24662,-4.76481 z"
     id="path39"
     style="fill:#ff0000;fill-opacity:1;stroke:none;stroke-width:2px" />
  <path
     class="connection real"
     stroke-dasharray="none"
     d="M 105.7948,326.27 C 56.624805,367.67 39.794805,290.71 89.494805,312.56"
     style="fill:none;fill-opacity:1;stroke:#000000;stroke-width:2px"
     id="path40" />
  <path
     d="m 77.763095,313.83428 14.86171,0.18572 -9.14932,-11.71852 1.17404,7.76822 z"
     id="path41"
     style="fill:#000000;stroke:none;stroke-width:2px" />
  <path
     class="connection real"
     stroke-dasharray="none"
     d="m 105.7948,326.27 c 38.66,12.77 60.99,10.8 99.71,-0.28"
     style="fill:none;fill-opacity:1;stroke:#000000;stroke-width:2px"
     id="path42" />
  <path
     d="m 198.09482,334.87108 11.05497,-9.93441 -14.6693,-2.41766 6.12747,4.91708 z"
     id="path43"
     style="fill:#000000;stroke:none;stroke-width:2px" />
  <path
     class="real"
     d="m 88.124805,326.27 c 0,-9.76 7.91,-17.67 17.669995,-17.67 9.75,0 17.66,7.91 17.66,17.67 0,9.76 -7.91,17.67 -17.66,17.67 -9.759995,0 -17.669995,-7.91 -17.669995,-17.67 z"
     style="fill:#ffffff;fill-opacity:1;stroke:#000000;stroke-width:2px"
     id="path44" />
  <path
     class="real"
     d="m 209.7948,319.44 c 0,-9.76 7.91,-17.67 17.66,-17.67 9.76,0 17.67,7.91 17.67,17.67 0,9.75 -7.91,17.66 -17.67,17.66 -9.75,0 -17.66,-7.91 -17.66,-17.66 z"
     style="fill:#ffffff;fill-opacity:1;stroke:#000000;stroke-width:2px"
     id="path45" />
  <path
     class="real"
     d="m 212.9348,319.44 c 0,-8.02 6.5,-14.52 14.52,-14.52 8.02,0 14.52,6.5 14.52,14.52 0,8.02 -6.5,14.52 -14.52,14.52 -8.02,0 -14.52,-6.5 -14.52,-14.52 z"
     style="fill:#ffffff;fill-opacity:1;stroke:#000000;stroke-width:2px"
     id="path46" />
  <path
     class="real"
     d="m 145.1248,236.27 c 0,-9.76 7.91,-17.67 17.67,-17.67 9.75,0 17.66,7.91 17.66,17.67 0,9.76 -7.91,17.67 -17.66,17.67 -9.76,0 -17.67,-7.91 -17.67,-17.67 z"
     style="fill:#ffffff;fill-opacity:1;stroke:#000000;stroke-width:2px"
     id="path47" />
  <path
     class="real"
     d="m 167.6248,281.63 c 0,-7.53 6.11,-13.63 13.64,-13.63 7.53,0 13.63,6.1 13.63,13.63 0,7.53 -6.1,13.64 -13.63,13.64 -7.53,0 -13.64,-6.11 -13.64,-13.64 z"
     style="fill:none;fill-opacity:1;stroke:#ff0000;stroke-width:2px;stroke-opacity:0.5"
     id="path48" />
  <path
     class="real"
     d="m 171.6148,271.99 19.29,19.29"
     style="fill:none;fill-opacity:1;stroke:#ff0000;stroke-width:2px;stroke-opacity:0.5"
     id="path49" />
  <path
     class="real"
     d="m 190.9048,271.99 -19.29,19.29"
     style="fill:none;fill-opacity:1;stroke:#ff0000;stroke-width:2px;stroke-opacity:0.5"
     id="path50" />
  <path
     class="real"
     d="m 199.1248,281.13 c 0,-7.53 6.11,-13.63 13.64,-13.63 7.53,0 13.63,6.1 13.63,13.63 0,7.53 -6.1,13.64 -13.63,13.64 -7.53,0 -13.64,-6.11 -13.64,-13.64 z"
     style="fill:none;fill-opacity:1;stroke:#ff0000;stroke-width:2px;stroke-opacity:0.5"
     id="path51" />
  <path
     class="real"
     d="m 203.1148,271.49 19.29,19.29"
     style="fill:none;fill-opacity:1;stroke:#ff0000;stroke-width:2px;stroke-opacity:0.5"
     id="path52" />
  <path
     class="real"
     d="m 222.4048,271.49 -19.29,19.29"
     style="fill:none;fill-opacity:1;stroke:#ff0000;stroke-width:2px;stroke-opacity:0.5"
     id="path53" />
  <path
     class="connection real"
     stroke-dasharray="none"
     d="m 524.4548,140.94 q -3.32,-1.84 -1.92,-5.32 1.65,-2.79 -1.62,-4.45 -3.26,-1.6 -1.8,-4.86 1.47,-3.23 -1.74,-4.63 -3.18,-1.34 -1.68,-4.41 1.5,-3.03 -1.85,-4.69 -3.32,-1.55 -1.8,-4.43 1.31,-3.32 -1.97,-4.61 -3.44,-1.6 -2.13,-4.73 1.29,-3.12 -2.12,-4.38 -3.37,-1.08 -2.32,-4.4 0.78,-3.66 -2.56,-4.34 -3.48,-0.78 -2.83,-4.23 0.51,-3.49 -2.96,-3.79 -3.6,-0.29 -3.6,-3.86 0.01,-3.4 -3.61,-3.19 l -0.76,-0.6 -6.53,-4.27"
     style="fill:none;fill-opacity:1;stroke:#808080;stroke-width:2px;stroke-opacity:1"
     id="path54" />
  <path
     d="m 492.01264,63.904485 -14.86284,0.03218 9.32013,11.583125 -1.28779,-7.750174 z"
     id="path55"
     style="fill:#808080;fill-opacity:1;stroke:none;stroke-width:2px" />
  <path
     class="connection real"
     stroke-dasharray="none"
     d="m 459.7948,57.77 q 2.81,2.38 0.71,5.34 -2.04,2.97 0.89,4.97 2.94,1.81 1.05,4.65 -1.7,3.33 1.35,4.76 3.17,1.63 1.69,4.82 -1.35,3.27 1.94,4.48 3.27,0.97 2.36,4.51 -0.95,3.3 2.63,4.23 3.55,0.7 2.9,4 -0.25,3.68 3.17,3.83 3.65,0.32 3.43,3.73 -0.09,3.48 3.41,3.41 3.79,0.16 3.93,3.7 -0.09,3.29 3.53,3.19 3.66,-0.11 3.72,3.27 l 2.46,2.15 5.89,5.15"
     style="fill:none;fill-opacity:1;stroke:#808080;stroke-width:2px;stroke-opacity:1"
     id="path56" />
  <path
     d="m 493.3624,126.34092 14.2874,4.09575 -5.73763,-13.71544 -0.91468,7.80301 z"
     id="path57"
     style="fill:#808080;fill-opacity:1;stroke:none;stroke-width:2px" />
  <path
     class="connection real"
     stroke-dasharray="none"
     d="m 459.7948,57.77 q -1.28,3.51 -4.63,2.54 -3.44,-0.85 -4.27,2.62 -0.72,3.48 -4.24,2.9 -3.25,-0.73 -3.86,2.87 -0.49,3.6 -3.79,3.08 -3.69,-0.1 -3.72,3.28 -0.25,3.68 -3.62,3.48 -3.73,0.24 -3.5,3.65 0.02,3.72 -3.38,3.83 -3.43,0.22 -3.22,4 0.6,3.35 -2.79,3.77 -3.68,0.94 -2.88,4.3 0.89,3.3 -2.68,4.45 -3.35,0.88 -2.25,4.16 1.21,3.2 -2.23,4.7 -3.25,1.22 -1.81,4.38 l -1.13,3.12 -2.15,7.31"
     style="fill:none;fill-opacity:1;stroke:#808080;stroke-width:2px;stroke-opacity:1"
     id="path58" />
  <path
     d="m 399.03895,115.72197 3.75251,14.38136 8.8806,-11.92344 -7.18088,3.18726 z"
     id="path59"
     style="fill:#808080;fill-opacity:1;stroke:none;stroke-width:2px" />
  <path
     class="connection real"
     stroke-dasharray="none"
     d="m 402.7948,147.77 c -49.17,41.4 -66,-35.56 -16.3,-13.71"
     style="fill:none;fill-opacity:1;stroke:#000000;stroke-width:2px"
     id="path60" />
  <path
     d="m 374.76309,135.33428 14.86171,0.18572 -9.14932,-11.71852 1.17403,7.76822 z"
     id="path61"
     style="fill:#000000;stroke:none;stroke-width:2px" />
  <path
     class="connection real"
     stroke-dasharray="none"
     d="m 402.7948,147.77 c 38.66,12.77 60.99,10.8 99.71,-0.28"
     style="fill:none;fill-opacity:1;stroke:#000000;stroke-width:2px"
     id="path62" />
  <path
     d="m 495.09482,156.37109 11.05497,-9.93442 -14.66931,-2.41765 6.12748,4.91708 z"
     id="path63"
     style="fill:#000000;stroke:none;stroke-width:2px" />
  <path
     class="real"
     d="m 385.1248,147.77 c 0,-9.76 7.91,-17.67 17.67,-17.67 9.75,0 17.66,7.91 17.66,17.67 0,9.76 -7.91,17.67 -17.66,17.67 -9.76,0 -17.67,-7.91 -17.67,-17.67 z"
     style="fill:#ffffff;fill-opacity:1;stroke:#000000;stroke-width:2px"
     id="path64" />
  <path
     class="real"
     d="m 506.7948,140.94 c 0,-9.76 7.91,-17.67 17.66,-17.67 9.76,0 17.67,7.91 17.67,17.67 0,9.75 -7.91,17.66 -17.67,17.66 -9.75,0 -17.66,-7.91 -17.66,-17.66 z"
     style="fill:#ffffff;fill-opacity:1;stroke:#000000;stroke-width:2px"
     id="path65" />
  <path
     class="real"
     d="m 509.9348,140.94 c 0,-8.02 6.5,-14.52 14.52,-14.52 8.02,0 14.52,6.5 14.52,14.52 0,8.02 -6.5,14.52 -14.52,14.52 -8.02,0 -14.52,-6.5 -14.52,-14.52 z"
     style="fill:#ffffff;fill-opacity:1;stroke:#000000;stroke-width:2px"
     id="path66" />
  <path
     class="real"
     d="m 442.1248,57.77 c 0,-9.76 7.91,-17.67 17.67,-17.67 9.75,0 17.66,7.91 17.66,17.67 0,9.76 -7.91,17.67 -17.66,17.67 -9.76,0 -17.67,-7.91 -17.67,-17.67 z"
     style="fill:#ffffff;fill-opacity:1;stroke:#000000;stroke-width:2px"
     id="path67" />
  <path
     class="connection real"
     stroke-dasharray="none"
     d="m 462.7948,236.27 q -3.76,-0.13 -3.87,-3.79 0.13,-3.52 -3.31,-3.63 -3.4,-0.19 -3.19,-4.02 0.57,-3.57 -2.52,-3.8 -3.65,-1.45 -2.32,-4.54 1.5,-3.12 -1.57,-5 -2.82,-2.31 -0.31,-4.75 2.83,-1.78 1.34,-4.86 -0.59,-3.66 3.06,-3.8 3.2,0.86 4.53,-2.39 2.08,-2.99 4.88,-0.63 2.01,2.75 4.95,1.02 3.29,-1.19 4.22,2.5 -0.21,3.32 3.16,3.74 3.51,1.47 1.95,4.74 l 0.44,2.15 0.03,7.59"
     style="fill:none;fill-opacity:1;stroke:#9b9b9b;stroke-width:2px;stroke-opacity:1"
     id="path68" />
  <path
     d="m 470.19423,205.98108 3.45556,14.45558 9.12426,-11.73803 -7.24499,3.0387 z"
     id="path69"
     style="fill:#9b9b9b;fill-opacity:1;stroke:none;stroke-width:2px" />
  <path
     class="connection real"
     stroke-dasharray="none"
     d="m 527.4548,319.44 q -2.63,2.58 -5.32,0.15 -2.57,-2.46 -5,0.06 -2.38,2.51 -4.68,-0.01 -2.73,-2.54 -5.47,-0.11 -2.17,2.43 -4.6,-0.17 -2.3,-2.62 -5.26,-0.29 -2.45,2.35 -4.95,-0.34 -2.39,-2.69 -4.7,-0.37 -2.7,2.29 -5.35,-0.44 -2.23,-2.69 -4.84,-0.38 -2.58,2.33 -4.85,-0.31 -2.34,-2.62 -4.95,-0.22 -2.58,2.44 -5.16,-0.08 -2.72,-2.48 -4.99,0.08 -2.26,2.58 -4.82,0.21 -2.71,-2.34 -5.15,0.36 -2.47,2.74 -4.97,0.48 -2.61,-2.22 -5.32,0.64 l -1.23,0.17 -7.85,1.17"
     style="fill:none;fill-opacity:1;stroke:#9b9b9b;stroke-width:2px;stroke-opacity:1"
     id="path70" />
  <path
     d="m 436.50379,312.01957 -12.104,8.62543 14.30345,4.05524 -5.53438,-5.57623 z"
     id="path71"
     style="fill:#9b9b9b;fill-opacity:1;stroke:none;stroke-width:2px" />
  <path
     class="connection real"
     stroke-dasharray="none"
     d="m 462.7948,236.27 c -28.53,16.2 -44.89,35.4 -51.39,67.72"
     style="fill:none;fill-opacity:1;stroke:#212e3a;stroke-width:2px;stroke-opacity:1"
     id="path72" />
  <path
     d="m 406.69525,293.2578 4.03789,14.30386 8.64162,-12.09777 -7.11604,3.3295 z"
     id="path73"
     style="fill:#212e3a;fill-opacity:1;stroke:none;stroke-width:2px" />
  <path
     class="connection real"
     stroke-dasharray="none"
     d="m 462.7948,236.27 c 36.96,17.58 38.54,23.99 55.03,61.09"
     style="fill:none;fill-opacity:1;stroke:#212e3a;stroke-width:2px;stroke-opacity:1"
     id="path74" />
  <path
     d="m 508.06032,291.28661 11.33948,9.60839 0.40961,-14.86155 -4.04234,6.73669 z"
     id="path75"
     style="fill:#212e3a;fill-opacity:1;stroke:none;stroke-width:2px" />
  <path
     class="connection real"
     stroke-dasharray="none"
     d="m 527.4548,319.44 q 3.67,0.82 3.31,4.46 -0.27,3.61 3.25,3.83 3.38,-0.07 3.18,3.23 0.47,3.76 4.11,3.43 3.34,-0.74 3.95,2.51 1.42,3.44 4.67,1.95 3.02,-1.88 4.74,0.79 3.12,2.33 4.98,-0.62 1.28,-3.17 4.51,-2.19 3.61,0.25 3.69,-3.62 -0.92,-3.19 2.25,-4.12 3.17,-2.04 0.98,-5.06 -2.65,-2.02 -0.88,-4.8 0.8,-3.61 -2.95,-3.94 -3.38,0.81 -4.42,-2.24 -2.13,-2.98 -5.27,-0.69 l -1.01,0.02 -7.61,1.14"
     style="fill:none;fill-opacity:1;stroke:#9b9b9b;stroke-width:2px;stroke-opacity:1"
     id="path76" />
  <path
     d="m 556.24862,304.31658 -10.80717,10.20343 14.72435,2.05596 -6.24661,-4.76482 z"
     id="path77"
     style="fill:#9b9b9b;fill-opacity:1;stroke:none;stroke-width:2px" />
  <path
     class="connection real"
     stroke-dasharray="none"
     d="m 405.7948,326.27 c -49.17,41.4 -66,-35.56 -16.3,-13.71"
     style="fill:none;fill-opacity:1;stroke:#000000;stroke-width:2px"
     id="path78" />
  <path
     d="m 377.76309,313.83428 14.86171,0.18572 -9.14932,-11.71852 1.17404,7.76822 z"
     id="path79"
     style="fill:#000000;stroke:none;stroke-width:2px" />
  <path
     class="connection real"
     stroke-dasharray="none"
     d="m 405.7948,326.27 c 38.66,12.77 60.99,10.8 99.71,-0.28"
     style="fill:none;fill-opacity:1;stroke:#000000;stroke-width:2px"
     id="path80" />
  <path
     d="m 498.09483,334.87108 11.05497,-9.93441 -14.6693,-2.41765 6.12747,4.91707 z"
     id="path81"
     style="fill:#000000;stroke:none;stroke-width:2px" />
  <path
     class="real"
     d="m 388.1248,326.27 c 0,-9.76 7.91,-17.67 17.67,-17.67 9.75,0 17.66,7.91 17.66,17.67 0,9.76 -7.91,17.67 -17.66,17.67 -9.76,0 -17.67,-7.91 -17.67,-17.67 z"
     style="fill:#ffffff;fill-opacity:1;stroke:#000000;stroke-width:2px"
     id="path82" />
  <path
     class="real"
     d="m 509.7948,319.44 c 0,-9.76 7.91,-17.67 17.66,-17.67 9.76,0 17.67,7.91 17.67,17.67 0,9.75 -7.91,17.66 -17.67,17.66 -9.75,0 -17.66,-7.91 -17.66,-17.66 z"
     style="fill:#ffffff;fill-opacity:1;stroke:#000000;stroke-width:2px"
     id="path83" />
  <path
     class="real"
     d="m 512.9348,319.44 c 0,-8.02 6.5,-14.52 14.52,-14.52 8.02,0 14.52,6.5 14.52,14.52 0,8.02 -6.5,14.52 -14.52,14.52 -8.02,0 -14.52,-6.5 -14.52,-14.52 z"
     style="fill:#ffffff;fill-opacity:1;stroke:#000000;stroke-width:2px"
     id="path84" />
  <path
     class="real"
     d="m 445.1248,236.27 c 0,-9.76 7.91,-17.67 17.67,-17.67 9.75,0 17.66,7.91 17.66,17.67 0,9.76 -7.91,17.67 -17.66,17.67 -9.76,0 -17.67,-7.91 -17.67,-17.67 z"
     style="fill:#ffffff;fill-opacity:1;stroke:#000000;stroke-width:2px"
     id="path85" />
  <path
     class="real"
     d="m 148.2748,236.27 c 0,-8.02 6.5,-14.52 14.52,-14.52 8.02,0 14.52,6.5 14.52,14.52 0,8.02 -6.5,14.52 -14.52,14.52 -8.02,0 -14.52,-6.5 -14.52,-14.52 z"
     style="fill:#ffffff;fill-opacity:1;stroke:#ff0000;stroke-width:2px;stroke-opacity:1"
     id="path86" />
  <path
     class="real"
     d="m 448.2748,236.27 c 0,-8.02 6.5,-14.52 14.52,-14.52 8.02,0 14.52,6.5 14.52,14.52 0,8.02 -6.5,14.52 -14.52,14.52 -8.02,0 -14.52,-6.5 -14.52,-14.52 z"
     style="fill:#ffffff;fill-opacity:1;stroke:#212e3a;stroke-width:2px;stroke-opacity:1"
     id="path87" />
  <path
     class="connection real"
     stroke-dasharray="none"
     d="m 160.2948,420.27 q -3.76,-0.13 -3.87,-3.79 0.13,-3.52 -3.31,-3.63 -3.4,-0.19 -3.19,-4.02 0.57,-3.57 -2.52,-3.8 -3.65,-1.45 -2.32,-4.54 1.5,-3.12 -1.57,-5 -2.82,-2.31 -0.31,-4.75 2.83,-1.78 1.34,-4.86 -0.59,-3.66 3.06,-3.8 3.2,0.86 4.53,-2.39 2.08,-2.99 4.88,-0.63 2.01,2.75 4.95,1.02 3.29,-1.19 4.22,2.5 -0.21,3.32 3.16,3.74 3.51,1.47 1.95,4.74 l 0.44,2.15 0.03,7.59"
     style="fill:none;fill-opacity:1;stroke:#9b9b9b;stroke-width:2px;stroke-opacity:1"
     id="path88" />
  <path
     d="m 167.69424,389.98108 3.45556,14.45559 9.12426,-11.73804 -7.24499,3.03871 z"
     id="path89"
     style="fill:#9b9b9b;fill-opacity:1;stroke:none;stroke-width:2px" />
  <path
     class="connection real"
     stroke-dasharray="none"
     d="m 224.9548,503.44 q -2.63,2.58 -5.32,0.15 -2.57,-2.46 -5,0.06 -2.38,2.51 -4.68,-0.01 -2.73,-2.54 -5.47,-0.11 -2.17,2.43 -4.6,-0.17 -2.3,-2.62 -5.26,-0.29 -2.45,2.35 -4.95,-0.34 -2.39,-2.69 -4.7,-0.37 -2.7,2.29 -5.35,-0.44 -2.23,-2.69 -4.84,-0.38 -2.58,2.33 -4.85,-0.31 -2.34,-2.62 -4.95,-0.22 -2.58,2.44 -5.16,-0.08 -2.72,-2.48 -4.99,0.08 -2.26,2.58 -4.82,0.21 -2.71,-2.34 -5.15,0.36 -2.47,2.74 -4.97,0.48 -2.61,-2.22 -5.32,0.64 l -1.23,0.17 -7.85,1.17"
     style="fill:none;fill-opacity:1;stroke:#9b9b9b;stroke-width:2px;stroke-opacity:1"
     id="path90" />
  <path
     d="m 134.00379,496.01956 -12.104,8.62543 14.30345,4.05524 -5.53438,-5.57622 z"
     id="path91"
     style="fill:#9b9b9b;fill-opacity:1;stroke:none;stroke-width:2px" />
  <path
     class="connection real"
     stroke-dasharray="none"
     d="m 160.2948,420.27 c -28.53,16.2 -44.89,35.4 -51.39,67.72"
     style="fill:none;fill-opacity:1;stroke:#212e3a;stroke-width:2px;stroke-opacity:1"
     id="path92" />
  <path
     d="m 104.19524,477.25781 4.03789,14.30386 8.64163,-12.09777 -7.11605,3.3295 z"
     id="path93"
     style="fill:#212e3a;fill-opacity:1;stroke:none;stroke-width:2px" />
  <path
     class="connection real"
     stroke-dasharray="none"
     d="m 160.2948,420.27 c 36.96,17.58 38.54,23.99 55.03,61.09"
     style="fill:none;fill-opacity:1;stroke:#212e3a;stroke-width:2px;stroke-opacity:1"
     id="path94" />
  <path
     d="m 205.56032,475.28661 11.33947,9.60839 0.40962,-14.86155 -4.04234,6.73669 z"
     id="path95"
     style="fill:#212e3a;fill-opacity:1;stroke:none;stroke-width:2px" />
  <path
     class="connection real"
     stroke-dasharray="none"
     d="m 224.9548,503.44 q 3.67,0.82 3.31,4.46 -0.27,3.61 3.25,3.83 3.38,-0.07 3.18,3.23 0.47,3.76 4.11,3.43 3.34,-0.74 3.95,2.51 1.42,3.44 4.67,1.95 3.02,-1.88 4.74,0.79 3.12,2.33 4.98,-0.62 1.28,-3.17 4.51,-2.19 3.61,0.25 3.69,-3.62 -0.92,-3.19 2.25,-4.12 3.17,-2.04 0.98,-5.06 -2.65,-2.02 -0.88,-4.8 0.8,-3.61 -2.95,-3.94 -3.38,0.81 -4.42,-2.24 -2.13,-2.98 -5.27,-0.69 l -1.01,0.02 -7.61,1.14"
     style="fill:none;fill-opacity:1;stroke:#9b9b9b;stroke-width:2px;stroke-opacity:1"
     id="path96" />
  <path
     d="m 253.74862,488.31657 -10.80717,10.20343 14.72436,2.05595 -6.24662,-4.76481 z"
     id="path97"
     style="fill:#9b9b9b;fill-opacity:1;stroke:none;stroke-width:2px" />
  <path
     class="connection real"
     stroke-dasharray="none"
     d="M 103.2948,510.27 C 54.124805,551.67 37.294805,474.71 86.994805,496.56"
     style="fill:none;fill-opacity:1;stroke:#000000;stroke-width:2px"
     id="path98" />
  <path
     d="m 75.263095,497.83428 14.86171,0.18572 -9.14931,-11.71852 1.17403,7.76822 z"
     id="path99"
     style="fill:#000000;stroke:none;stroke-width:2px" />
  <path
     class="connection real"
     stroke-dasharray="none"
     d="m 103.2948,510.27 c 38.66,12.77 60.99,10.8 99.71,-0.28"
     style="fill:none;fill-opacity:1;stroke:#000000;stroke-width:2px"
     id="path100" />
  <path
     d="m 195.59482,518.87107 11.05497,-9.93441 -14.6693,-2.41765 6.12747,4.91707 z"
     id="path101"
     style="fill:#000000;stroke:none;stroke-width:2px" />
  <path
     class="real"
     d="m 85.624805,510.27 c 0,-9.76 7.91,-17.67 17.669995,-17.67 9.75,0 17.66,7.91 17.66,17.67 0,9.76 -7.91,17.67 -17.66,17.67 -9.759995,0 -17.669995,-7.91 -17.669995,-17.67 z"
     style="fill:#ffffff;fill-opacity:1;stroke:#000000;stroke-width:2px"
     id="path102" />
  <path
     class="real"
     d="m 207.2948,503.44 c 0,-9.76 7.91,-17.67 17.66,-17.67 9.76,0 17.67,7.91 17.67,17.67 0,9.75 -7.91,17.66 -17.67,17.66 -9.75,0 -17.66,-7.91 -17.66,-17.66 z"
     style="fill:#ffffff;fill-opacity:1;stroke:#000000;stroke-width:2px"
     id="path103" />
  <path
     class="real"
     d="m 210.4348,503.44 c 0,-8.02 6.5,-14.52 14.52,-14.52 8.02,0 14.52,6.5 14.52,14.52 0,8.02 -6.5,14.52 -14.52,14.52 -8.02,0 -14.52,-6.5 -14.52,-14.52 z"
     style="fill:#ffffff;fill-opacity:1;stroke:#000000;stroke-width:2px"
     id="path104" />
  <path
     class="real"
     d="m 142.6248,420.27 c 0,-9.76 7.91,-17.67 17.67,-17.67 9.75,0 17.66,7.91 17.66,17.67 0,9.76 -7.91,17.67 -17.66,17.67 -9.76,0 -17.67,-7.91 -17.67,-17.67 z"
     style="fill:#ffffff;fill-opacity:1;stroke:#000000;stroke-width:2px"
     id="path105" />
  <path
     class="real"
     d="m 145.7748,420.27 c 0,-8.02 6.5,-14.52 14.52,-14.52 8.02,0 14.52,6.5 14.52,14.52 0,8.02 -6.5,14.52 -14.52,14.52 -8.02,0 -14.52,-6.5 -14.52,-14.52 z"
     style="fill:#ffffff;fill-opacity:1;stroke:#212e3a;stroke-width:2px;stroke-opacity:1"
     id="path106" />
  <path
     class="real"
     d="m 142.1248,383.63 c 0,-7.53 6.11,-13.63 13.64,-13.63 7.53,0 13.63,6.1 13.63,13.63 0,7.53 -6.1,13.64 -13.63,13.64 -7.53,0 -13.64,-6.11 -13.64,-13.64 z"
     style="fill:none;fill-opacity:1;stroke:#ff0000;stroke-width:2px;stroke-opacity:0.5"
     id="path107" />
  <path
     class="real"
     d="m 146.1148,373.99 19.29,19.29"
     style="fill:none;fill-opacity:1;stroke:#ff0000;stroke-width:2px;stroke-opacity:0.5"
     id="path108" />
  <path
     class="real"
     d="m 165.4048,373.99 -19.29,19.29"
     style="fill:none;fill-opacity:1;stroke:#ff0000;stroke-width:2px;stroke-opacity:0.5"
     id="path109" />
  <path
     class="real"
     d="m 252.1248,515.63 c 0,-7.53 6.11,-13.63 13.64,-13.63 7.53,0 13.63,6.1 13.63,13.63 0,7.53 -6.1,13.64 -13.63,13.64 -7.53,0 -13.64,-6.11 -13.64,-13.64 z"
     style="fill:none;fill-opacity:1;stroke:#ff0000;stroke-width:2px;stroke-opacity:0.5"
     id="path110" />
  <path
     class="real"
     d="m 256.1148,505.99 19.29,19.29"
     style="fill:none;fill-opacity:1;stroke:#ff0000;stroke-width:2px;stroke-opacity:0.5"
     id="path111" />
  <path
     class="real"
     d="m 275.4048,505.99 -19.29,19.29"
     style="fill:none;fill-opacity:1;stroke:#ff0000;stroke-width:2px;stroke-opacity:0.5"
     id="path112" />
  <path
     class="connection real"
     stroke-dasharray="none"
     d="m 524.9548,503.44 q -2.63,2.58 -5.32,0.15 -2.57,-2.46 -5,0.06 -2.38,2.51 -4.68,-0.01 -2.73,-2.54 -5.47,-0.11 -2.17,2.43 -4.6,-0.17 -2.3,-2.62 -5.26,-0.29 -2.45,2.35 -4.95,-0.34 -2.39,-2.69 -4.7,-0.37 -2.7,2.29 -5.35,-0.44 -2.23,-2.69 -4.84,-0.38 -2.58,2.33 -4.85,-0.31 -2.34,-2.62 -4.95,-0.22 -2.58,2.44 -5.16,-0.08 -2.72,-2.48 -4.99,0.08 -2.26,2.58 -4.82,0.21 -2.71,-2.34 -5.15,0.36 -2.47,2.74 -4.97,0.48 -2.61,-2.22 -5.32,0.64 l -1.23,0.17 -7.85,1.17"
     style="fill:none;fill-opacity:1;stroke:#9b9b9b;stroke-width:2px;stroke-opacity:1"
     id="path113" />
  <path
     d="m 434.0038,496.01956 -12.104,8.62543 14.30345,4.05524 -5.53438,-5.57622 z"
     id="path114"
     style="fill:#9b9b9b;fill-opacity:1;stroke:none;stroke-width:2px" />
  <path
     class="connection real"
     stroke-dasharray="none"
     d="m 460.2948,420.27 c -28.53,16.2 -44.89,35.4 -51.39,67.72"
     style="fill:none;fill-opacity:1;stroke:#212e3a;stroke-width:2px;stroke-opacity:1"
     id="path115" />
  <path
     d="m 404.19525,477.25781 4.03789,14.30386 8.64162,-12.09777 -7.11604,3.32949 z"
     id="path116"
     style="fill:#212e3a;fill-opacity:1;stroke:none;stroke-width:2px" />
  <path
     class="connection real"
     stroke-dasharray="none"
     d="m 460.2948,420.27 c 36.96,17.58 38.54,23.99 55.03,61.09"
     style="fill:none;fill-opacity:1;stroke:#212e3a;stroke-width:2px;stroke-opacity:1"
     id="path117" />
  <path
     d="m 505.56032,475.28661 11.33947,9.60839 0.40962,-14.86155 -4.04234,6.73669 z"
     id="path118"
     style="fill:#212e3a;fill-opacity:1;stroke:none;stroke-width:2px" />
  <path
     class="connection real"
     stroke-dasharray="none"
     d="m 403.2948,510.27 c -49.17,41.4 -66,-35.56 -16.3,-13.71"
     style="fill:none;fill-opacity:1;stroke:#000000;stroke-width:2px"
     id="path119" />
  <path
     d="m 375.26309,497.83428 14.86171,0.18572 -9.14931,-11.71852 1.17403,7.76822 z"
     id="path120"
     style="fill:#000000;stroke:none;stroke-width:2px" />
  <path
     class="connection real"
     stroke-dasharray="none"
     d="m 403.2948,510.27 c 38.66,12.77 60.99,10.8 99.71,-0.28"
     style="fill:none;fill-opacity:1;stroke:#000000;stroke-width:2px"
     id="path121" />
  <path
     d="m 495.59482,518.87107 11.05497,-9.93441 -14.66931,-2.41765 6.12748,4.91708 z"
     id="path122"
     style="fill:#000000;stroke:none;stroke-width:2px" />
  <path
     class="real"
     d="m 385.6248,510.27 c 0,-9.76 7.91,-17.67 17.67,-17.67 9.75,0 17.66,7.91 17.66,17.67 0,9.76 -7.91,17.67 -17.66,17.67 -9.76,0 -17.67,-7.91 -17.67,-17.67 z"
     style="fill:#ffffff;fill-opacity:1;stroke:#000000;stroke-width:2px"
     id="path123" />
  <path
     class="real"
     d="m 507.2948,503.44 c 0,-9.76 7.91,-17.67 17.66,-17.67 9.76,0 17.67,7.91 17.67,17.67 0,9.75 -7.91,17.66 -17.67,17.66 -9.75,0 -17.66,-7.91 -17.66,-17.66 z"
     style="fill:#ffffff;fill-opacity:1;stroke:#000000;stroke-width:2px"
     id="path124" />
  <path
     class="real"
     d="m 510.4348,503.44 c 0,-8.02 6.5,-14.52 14.52,-14.52 8.02,0 14.52,6.5 14.52,14.52 0,8.02 -6.5,14.52 -14.52,14.52 -8.02,0 -14.52,-6.5 -14.52,-14.52 z"
     style="fill:#ffffff;fill-opacity:1;stroke:#000000;stroke-width:2px"
     id="path125" />
  <path
     class="real"
     d="m 442.6248,420.27 c 0,-9.76 7.91,-17.67 17.67,-17.67 9.75,0 17.66,7.91 17.66,17.67 0,9.76 -7.91,17.67 -17.66,17.67 -9.76,0 -17.67,-7.91 -17.67,-17.67 z"
     style="fill:#ffffff;fill-opacity:1;stroke:#000000;stroke-width:2px"
     id="path126" />
  <path
     class="real"
     d="m 445.7748,420.27 c 0,-8.02 6.5,-14.52 14.52,-14.52 8.02,0 14.52,6.5 14.52,14.52 0,8.02 -6.5,14.52 -14.52,14.52 -8.02,0 -14.52,-6.5 -14.52,-14.52 z"
     style="fill:#ffffff;fill-opacity:1;stroke:#212e3a;stroke-width:2px;stroke-opacity:1"
     id="path127" />
  <path
     class="connection real"
     stroke-dasharray="none"
     d="m 224.9548,663.44 q -2.63,2.58 -5.32,0.15 -2.57,-2.46 -5,0.06 -2.38,2.51 -4.68,-0.01 -2.73,-2.54 -5.47,-0.11 -2.17,2.43 -4.6,-0.17 -2.3,-2.62 -5.26,-0.29 -2.45,2.35 -4.95,-0.34 -2.39,-2.69 -4.7,-0.37 -2.7,2.29 -5.35,-0.44 -2.23,-2.69 -4.84,-0.38 -2.58,2.33 -4.85,-0.31 -2.34,-2.62 -4.95,-0.22 -2.58,2.44 -5.16,-0.08 -2.72,-2.48 -4.99,0.08 -2.26,2.58 -4.82,0.21 -2.71,-2.34 -5.15,0.36 -2.47,2.74 -4.97,0.48 -2.61,-2.22 -5.32,0.64 l -1.23,0.17 -7.85,1.17"
     style="fill:none;fill-opacity:1;stroke:#9b9b9b;stroke-width:2px;stroke-opacity:1"
     id="path128" />
  <path
     d="m 134.00379,656.01956 -12.104,8.62543 14.30345,4.05524 -5.53438,-5.57622 z"
     id="path129"
     style="fill:#9b9b9b;fill-opacity:1;stroke:none;stroke-width:2px" />
  <path
     class="connection real"
     stroke-dasharray="none"
     d="m 160.2948,580.27 c -28.53,16.2 -44.89,35.4 -51.39,67.72"
     style="fill:none;fill-opacity:1;stroke:#212e3a;stroke-width:2px;stroke-opacity:1"
     id="path130" />
  <path
     d="m 104.19524,637.25781 4.03789,14.30385 8.64162,-12.09776 -7.11604,3.32949 z"
     id="path131"
     style="fill:#212e3a;fill-opacity:1;stroke:none;stroke-width:2px" />
  <path
     class="connection real"
     stroke-dasharray="none"
     d="m 160.2948,580.27 c 36.96,17.58 38.54,23.99 55.03,61.09"
     style="fill:none;fill-opacity:1;stroke:#212e3a;stroke-width:2px;stroke-opacity:1"
     id="path132" />
  <path
     d="m 205.56031,635.28661 11.33948,9.60839 0.40962,-14.86156 -4.04234,6.7367 z"
     id="path133"
     style="fill:#212e3a;fill-opacity:1;stroke:none;stroke-width:2px" />
  <path
     class="connection real"
     stroke-dasharray="none"
     d="M 103.2948,670.27 C 54.124805,711.67 37.294805,634.71 86.994805,656.56"
     style="fill:none;fill-opacity:1;stroke:#000000;stroke-width:2px"
     id="path134" />
  <path
     d="m 75.263105,657.83428 14.86171,0.18572 -9.14932,-11.71852 1.17403,7.76822 z"
     id="path135"
     style="fill:#000000;stroke:none;stroke-width:2px" />
  <path
     class="connection real"
     stroke-dasharray="none"
     d="m 103.2948,670.27 c 38.66,12.77 60.99,10.8 99.71,-0.28"
     style="fill:none;fill-opacity:1;stroke:#000000;stroke-width:2px"
     id="path136" />
  <path
     d="m 195.59482,678.87107 11.05497,-9.93441 -14.6693,-2.41765 6.12747,4.91707 z"
     id="path137"
     style="fill:#000000;stroke:none;stroke-width:2px" />
  <path
     class="real"
     d="m 85.624805,670.27 c 0,-9.76 7.91,-17.67 17.669995,-17.67 9.75,0 17.66,7.91 17.66,17.67 0,9.76 -7.91,17.67 -17.66,17.67 -9.759995,0 -17.669995,-7.91 -17.669995,-17.67 z"
     style="fill:#ffffff;fill-opacity:1;stroke:#000000;stroke-width:2px"
     id="path138" />
  <path
     class="real"
     d="m 207.2948,663.44 c 0,-9.76 7.91,-17.67 17.66,-17.67 9.76,0 17.67,7.91 17.67,17.67 0,9.75 -7.91,17.66 -17.67,17.66 -9.75,0 -17.66,-7.91 -17.66,-17.66 z"
     style="fill:#ffffff;fill-opacity:1;stroke:#000000;stroke-width:2px"
     id="path139" />
  <path
     class="real"
     d="m 210.4348,663.44 c 0,-8.02 6.5,-14.52 14.52,-14.52 8.02,0 14.52,6.5 14.52,14.52 0,8.02 -6.5,14.52 -14.52,14.52 -8.02,0 -14.52,-6.5 -14.52,-14.52 z"
     style="fill:#ffffff;fill-opacity:1;stroke:#000000;stroke-width:2px"
     id="path140" />
  <path
     class="real"
     d="m 142.6248,580.27 c 0,-9.76 7.91,-17.67 17.67,-17.67 9.75,0 17.66,7.91 17.66,17.67 0,9.76 -7.91,17.67 -17.66,17.67 -9.76,0 -17.67,-7.91 -17.67,-17.67 z"
     style="fill:#ffffff;fill-opacity:1;stroke:#000000;stroke-width:2px"
     id="path141" />
  <path
     class="real"
     d="m 145.7748,580.27 c 0,-8.02 6.5,-14.52 14.52,-14.52 8.02,0 14.52,6.5 14.52,14.52 0,8.02 -6.5,14.52 -14.52,14.52 -8.02,0 -14.52,-6.5 -14.52,-14.52 z"
     style="fill:#ffffff;fill-opacity:1;stroke:#212e3a;stroke-width:2px;stroke-opacity:1"
     id="path142" />
  <path
     class="real"
     d="m 140.1248,659.31 c 0,-7.53 6.11,-13.64 13.64,-13.64 7.53,0 13.63,6.11 13.63,13.64 0,7.53 -6.1,13.63 -13.63,13.63 -7.53,0 -13.64,-6.1 -13.64,-13.63 z"
     style="fill:none;fill-opacity:1;stroke:#ff0000;stroke-width:2px;stroke-opacity:0.5"
     id="path143" />
  <path
     class="real"
     d="m 144.1148,649.66 19.29,19.29"
     style="fill:none;fill-opacity:1;stroke:#ff0000;stroke-width:2px;stroke-opacity:0.5"
     id="path144" />
  <path
     class="real"
     d="m 163.4048,649.66 -19.29,19.29"
     style="fill:none;fill-opacity:1;stroke:#ff0000;stroke-width:2px;stroke-opacity:0.5"
     id="path145" />
  <path
     class="connection real"
     stroke-dasharray="none"
     d="m 526.9548,663.44 c -39.84,-20.25 -69.69,-13.07 -99.74,-2.44"
     style="fill:none;fill-opacity:1;stroke:#212e3a;stroke-width:2px;stroke-opacity:1"
     id="path146" />
  <path
     d="m 433.8712,651.74246 -10.41307,10.60532 14.79165,1.49695 -6.42255,-4.52486 z"
     id="path147"
     style="fill:#212e3a;fill-opacity:1;stroke:none;stroke-width:2px" />
  <path
     class="connection real"
     stroke-dasharray="none"
     d="m 526.9548,663.44 c 37.04,53.22 65.06,-16.75 21.48,-5.92"
     style="fill:none;fill-opacity:1;stroke:#212e3a;stroke-width:2px;stroke-opacity:1"
     id="path148" />
  <path
     d="m 555.74861,648.31658 -10.80717,10.20343 14.72436,2.05596 -6.24661,-4.76481 z"
     id="path149"
     style="fill:#212e3a;fill-opacity:1;stroke:none;stroke-width:2px" />
  <path
     class="connection real"
     stroke-dasharray="none"
     d="m 462.2948,580.27 c -28.53,16.2 -44.89,35.4 -51.39,67.72"
     style="fill:none;fill-opacity:1;stroke:#212e3a;stroke-width:2px;stroke-opacity:1"
     id="path150" />
  <path
     d="m 406.19524,637.2578 4.03789,14.30386 8.64162,-12.09777 -7.11604,3.3295 z"
     id="path151"
     style="fill:#212e3a;fill-opacity:1;stroke:none;stroke-width:2px" />
  <path
     class="connection real"
     stroke-dasharray="none"
     d="m 462.2948,580.27 c 36.96,17.58 38.54,23.99 55.03,61.09"
     style="fill:none;fill-opacity:1;stroke:#212e3a;stroke-width:2px;stroke-opacity:1"
     id="path152" />
  <path
     d="m 507.56031,635.28661 11.33948,9.60839 0.40962,-14.86155 -4.04235,6.73669 z"
     id="path153"
     style="fill:#212e3a;fill-opacity:1;stroke:none;stroke-width:2px" />
  <path
     class="connection real"
     stroke-dasharray="none"
     d="m 405.2948,670.27 c -49.17,41.4 -66,-35.56 -16.3,-13.71"
     style="fill:none;fill-opacity:1;stroke:#000000;stroke-width:2px"
     id="path154" />
  <path
     d="m 377.2631,657.83428 14.86171,0.18571 -9.14932,-11.71851 1.17403,7.76822 z"
     id="path155"
     style="fill:#000000;stroke:none;stroke-width:2px" />
  <path
     class="connection real"
     stroke-dasharray="none"
     d="m 405.2948,670.27 c 38.66,12.77 60.99,10.8 99.71,-0.28"
     style="fill:none;fill-opacity:1;stroke:#000000;stroke-width:2px"
     id="path156" />
  <path
     d="m 497.59483,678.87107 11.05497,-9.93441 -14.6693,-2.41765 6.12747,4.91707 z"
     id="path157"
     style="fill:#000000;stroke:none;stroke-width:2px" />
  <path
     class="real"
     d="m 387.6248,670.27 c 0,-9.76 7.91,-17.67 17.67,-17.67 9.75,0 17.66,7.91 17.66,17.67 0,9.76 -7.91,17.67 -17.66,17.67 -9.76,0 -17.67,-7.91 -17.67,-17.67 z"
     style="fill:#ffffff;fill-opacity:1;stroke:#000000;stroke-width:2px"
     id="path158" />
  <path
     class="real"
     d="m 509.2948,663.44 c 0,-9.76 7.91,-17.67 17.66,-17.67 9.76,0 17.67,7.91 17.67,17.67 0,9.75 -7.91,17.66 -17.67,17.66 -9.75,0 -17.66,-7.91 -17.66,-17.66 z"
     style="fill:#ffffff;fill-opacity:1;stroke:#000000;stroke-width:2px"
     id="path159" />
  <path
     class="real"
     d="m 512.4348,663.44 c 0,-8.02 6.5,-14.52 14.52,-14.52 8.02,0 14.52,6.5 14.52,14.52 0,8.02 -6.5,14.52 -14.52,14.52 -8.02,0 -14.52,-6.5 -14.52,-14.52 z"
     style="fill:#ffffff;fill-opacity:1;stroke:#000000;stroke-width:2px"
     id="path160" />
  <path
     class="real"
     d="m 444.6248,580.27 c 0,-9.76 7.91,-17.67 17.67,-17.67 9.75,0 17.66,7.91 17.66,17.67 0,9.76 -7.91,17.67 -17.66,17.67 -9.76,0 -17.67,-7.91 -17.67,-17.67 z"
     style="fill:#ffffff;fill-opacity:1;stroke:#000000;stroke-width:2px"
     id="path161" />
  <path
     class="real"
     d="m 447.7748,580.27 c 0,-8.02 6.5,-14.52 14.52,-14.52 8.02,0 14.52,6.5 14.52,14.52 0,8.02 -6.5,14.52 -14.52,14.52 -8.02,0 -14.52,-6.5 -14.52,-14.52 z"
     style="fill:#ffffff;fill-opacity:1;stroke:#212e3a;stroke-width:2px;stroke-opacity:1"
     id="path162" />
  <path
     class="connection real"
     stroke-dasharray="none"
     d="M 5.4548047,95.01 V 244.35"
     style="fill:none;fill-opacity:1;stroke:#ff0000;stroke-width:1px;stroke-opacity:1"
     id="path163" />
  <path
     d="m 2.1681447,235.41778 q 2.84,5.97 3.29,10.93 0.45,-4.96 3.29,-10.93"
     id="path164"
     style="fill:none;stroke:#ff0000;stroke-width:1px;stroke-opacity:1" />
  <path
     class="connection real"
     stroke-dasharray="none"
     d="M 5.4548047,271.68 V 421.01"
     style="fill:none;fill-opacity:1;stroke:#ff0000;stroke-width:1px;stroke-opacity:1"
     id="path165" />
  <path
     d="m 2.1681347,412.08445 q 2.84,5.97 3.29,10.93 0.45,-4.96 3.29,-10.93"
     id="path166"
     style="fill:none;stroke:#ff0000;stroke-width:1px;stroke-opacity:1" />
  <path
     class="connection real"
     stroke-dasharray="none"
     d="M 4.7948047,449.01 V 598.35"
     style="fill:none;fill-opacity:1;stroke:#ff0000;stroke-width:1px;stroke-opacity:1"
     id="path167" />
  <path
     d="m 1.5014647,589.41778 q 2.84,5.97 3.29,10.93 0.45,-4.96 3.29,-10.93"
     id="path168"
     style="fill:none;stroke:#ff0000;stroke-width:1px;stroke-opacity:1" />
  <g
     transform="translate(98.369275,151.19222)"
     id="g175"
     style="font-family:LatinModern-Math, LatinModern, Asana-Math, Asana">
    <path
       transform="scale(0.017,-0.017)"
       d="m 490,404 c 0,18 -14,27 -29,27 -10,0 -26,-6 -35,-21 -2,-5 -10,-36 -14,-54 L 392,276 347,96 C 343,81 300,11 234,11 c -51,0 -62,44 -62,81 0,46 17,108 51,196 16,41 20,52 20,72 0,45 -32,82 -82,82 C 66,442 29,297 29,288 c 0,-10 12,-10 12,-10 10,0 11,2 16,18 27,94 67,124 101,124 8,0 25,0 25,-32 0,-25 -10,-51 -17,-70 -40,-106 -58,-163 -58,-210 0,-89 63,-119 122,-119 39,0 73,17 101,45 -13,-52 -25,-101 -65,-154 -26,-34 -64,-63 -110,-63 -14,0 -59,3 -76,42 16,0 29,0 43,12 10,9 20,22 20,41 0,31 -27,35 -37,35 -23,0 -56,-16 -56,-65 0,-50 44,-87 106,-87 103,0 206,91 234,204 l 96,382 c 4,14 4,16 4,23 z"
       stroke="#000000"
       stroke-opacity="1"
       stroke-width="8"
       fill="#000000"
       fill-opacity="1"
       id="path174" />
  </g>
  <g
     transform="translate(43.369271,150.35889)"
     id="g179"
     style="font-family:LatinModern-Math, LatinModern, Asana-Math, Asana">
    <path
       transform="scale(0.017,-0.017)"
       d="m 460,320 c 0,80 -5,160 -40,234 C 374,650 292,666 250,666 190,666 117,640 76,547 44,478 39,400 39,320 39,245 43,155 84,79 127,-2 200,-22 249,-22 c 54,0 130,21 174,116 32,69 37,147 37,226 z m -83,12 C 377,257 377,189 366,125 351,30 294,0 249,0 210,0 151,25 133,121 c -11,60 -11,152 -11,211 0,64 0,130 8,184 19,119 94,128 119,128 33,0 99,-18 118,-117 10,-56 10,-132 10,-195 z"
       stroke="#000000"
       stroke-opacity="1"
       stroke-width="8"
       fill="#000000"
       fill-opacity="1"
       id="path178" />
  </g>
  <g
     transform="translate(221.03593,145.35889)"
     id="g183"
     style="font-family:LatinModern-Math, LatinModern, Asana-Math, Asana">
    <path
       transform="scale(0.017,-0.017)"
       d="m 467,432 c 0,10 -11,10 -11,10 -7,0 -10,-2 -15,-11 -30,-48 -51,-64 -75,-64 -24,0 -36,15 -51,32 -19,23 -36,43 -69,43 -75,0 -121,-93 -121,-114 0,-5 3,-11 12,-11 9,0 11,5 13,11 19,46 77,47 85,47 21,0 40,-7 63,-15 40,-15 51,-15 77,-15 C 339,302 255,230 236,214 L 146,130 C 78,63 43,6 43,-1 c 0,-10 12,-10 12,-10 8,0 10,2 16,13 23,35 53,62 85,62 23,0 33,-9 58,-38 17,-21 35,-37 64,-37 99,0 157,127 157,154 0,5 -4,10 -12,10 -9,0 -11,-6 -14,-13 -23,-65 -87,-84 -120,-84 -20,0 -38,6 -59,13 -34,13 -49,17 -70,17 0,0 -18,0 -27,-3 54,58 83,83 119,114 0,0 62,54 98,90 95,93 117,141 117,145 z"
       stroke="#000000"
       stroke-opacity="1"
       stroke-width="8"
       fill="#000000"
       fill-opacity="1"
       id="path182" />
  </g>
  <g
     transform="translate(151.36927,174.35889)"
     id="g187"
     style="font-family:LatinModern-Math, LatinModern, Asana-Math, Asana">
    <path
       transform="scale(0.017,-0.017)"
       d="m 419,0 v 31 h -32 c -90,0 -93,11 -93,48 v 561 c 0,24 0,26 -23,26 C 209,602 121,602 89,602 v -31 c 20,0 79,0 131,26 V 79 C 220,43 217,31 127,31 H 95 V 0 c 35,3 122,3 162,3 40,0 127,0 162,-3 z"
       stroke="#000000"
       stroke-opacity="1"
       stroke-width="8"
       fill="#000000"
       fill-opacity="1"
       id="path186" />
  </g>
  <g
     transform="translate(154.86927,61.692221)"
     id="g191"
     style="font-family:LatinModern-Math, LatinModern, Asana-Math, Asana">
    <path
       transform="scale(0.017,-0.017)"
       d="m 527,376 c 0,52 -59,66 -93,66 -58,0 -93,-53 -105,-76 -25,66 -79,76 -108,76 C 117,442 60,313 60,288 c 0,-10 12,-10 12,-10 8,0 11,2 13,11 34,106 100,131 134,131 19,0 54,-9 54,-67 0,-31 -17,-98 -54,-238 C 203,53 168,11 124,11 c -6,0 -29,0 -50,13 25,5 47,26 47,54 0,27 -22,35 -37,35 -30,0 -55,-26 -55,-58 0,-46 50,-66 94,-66 66,0 102,70 105,76 12,-37 48,-76 108,-76 103,0 160,129 160,154 0,10 -9,10 -12,10 -9,0 -11,-4 -13,-11 C 438,35 370,11 338,11 c -39,0 -55,32 -55,66 0,22 6,44 17,88 l 34,137 c 6,26 29,118 99,118 5,0 29,0 50,-13 -28,-5 -48,-30 -48,-54 0,-16 11,-35 38,-35 22,0 54,18 54,58 z"
       stroke="#000000"
       stroke-opacity="1"
       stroke-width="8"
       fill="#000000"
       fill-opacity="1"
       id="path190" />
  </g>
  <text
     x="-0.46406251"
     y="65.89222"
     style="font-style:normal;font-weight:400;font-size:21.6px;font-family:'Times New Roman', Times, serif;dominant-baseline:text-before-edge;white-space:pre;fill:#ff0000;fill-opacity:1;stroke:none"
     id="text194">2.</text>
  <g
     transform="translate(101.36927,329.69222)"
     id="g198"
     style="font-family:LatinModern-Math, LatinModern, Asana-Math, Asana">
    <path
       transform="scale(0.017,-0.017)"
       d="m 490,404 c 0,18 -14,27 -29,27 -10,0 -26,-6 -35,-21 -2,-5 -10,-36 -14,-54 L 392,276 347,96 C 343,81 300,11 234,11 c -51,0 -62,44 -62,81 0,46 17,108 51,196 16,41 20,52 20,72 0,45 -32,82 -82,82 C 66,442 29,297 29,288 c 0,-10 12,-10 12,-10 10,0 11,2 16,18 27,94 67,124 101,124 8,0 25,0 25,-32 0,-25 -10,-51 -17,-70 -40,-106 -58,-163 -58,-210 0,-89 63,-119 122,-119 39,0 73,17 101,45 -13,-52 -25,-101 -65,-154 -26,-34 -64,-63 -110,-63 -14,0 -59,3 -76,42 16,0 29,0 43,12 10,9 20,22 20,41 0,31 -27,35 -37,35 -23,0 -56,-16 -56,-65 0,-50 44,-87 106,-87 103,0 206,91 234,204 l 96,382 c 4,14 4,16 4,23 z"
       stroke="#000000"
       stroke-opacity="1"
       stroke-width="8"
       fill="#000000"
       fill-opacity="1"
       id="path197" />
  </g>
  <g
     transform="translate(46.369271,328.85889)"
     id="g202"
     style="font-family:LatinModern-Math, LatinModern, Asana-Math, Asana">
    <path
       transform="scale(0.017,-0.017)"
       d="m 460,320 c 0,80 -5,160 -40,234 C 374,650 292,666 250,666 190,666 117,640 76,547 44,478 39,400 39,320 39,245 43,155 84,79 127,-2 200,-22 249,-22 c 54,0 130,21 174,116 32,69 37,147 37,226 z m -83,12 C 377,257 377,189 366,125 351,30 294,0 249,0 210,0 151,25 133,121 c -11,60 -11,152 -11,211 0,64 0,130 8,184 19,119 94,128 119,128 33,0 99,-18 118,-117 10,-56 10,-132 10,-195 z"
       stroke="#000000"
       stroke-opacity="1"
       stroke-width="8"
       fill="#000000"
       fill-opacity="1"
       id="path201" />
  </g>
  <g
     transform="translate(224.03593,323.85889)"
     id="g206"
     style="font-family:LatinModern-Math, LatinModern, Asana-Math, Asana">
    <path
       transform="scale(0.017,-0.017)"
       d="m 467,432 c 0,10 -11,10 -11,10 -7,0 -10,-2 -15,-11 -30,-48 -51,-64 -75,-64 -24,0 -36,15 -51,32 -19,23 -36,43 -69,43 -75,0 -121,-93 -121,-114 0,-5 3,-11 12,-11 9,0 11,5 13,11 19,46 77,47 85,47 21,0 40,-7 63,-15 40,-15 51,-15 77,-15 C 339,302 255,230 236,214 L 146,130 C 78,63 43,6 43,-1 c 0,-10 12,-10 12,-10 8,0 10,2 16,13 23,35 53,62 85,62 23,0 33,-9 58,-38 17,-21 35,-37 64,-37 99,0 157,127 157,154 0,5 -4,10 -12,10 -9,0 -11,-6 -14,-13 -23,-65 -87,-84 -120,-84 -20,0 -38,6 -59,13 -34,13 -49,17 -70,17 0,0 -18,0 -27,-3 54,58 83,83 119,114 0,0 62,54 98,90 95,93 117,141 117,145 z"
       stroke="#000000"
       stroke-opacity="1"
       stroke-width="8"
       fill="#000000"
       fill-opacity="1"
       id="path205" />
  </g>
  <g
     transform="translate(154.36927,352.85889)"
     id="g210"
     style="font-family:LatinModern-Math, LatinModern, Asana-Math, Asana">
    <path
       transform="scale(0.017,-0.017)"
       d="m 419,0 v 31 h -32 c -90,0 -93,11 -93,48 v 561 c 0,24 0,26 -23,26 C 209,602 121,602 89,602 v -31 c 20,0 79,0 131,26 V 79 C 220,43 217,31 127,31 H 95 V 0 c 35,3 122,3 162,3 40,0 127,0 162,-3 z"
       stroke="#000000"
       stroke-opacity="1"
       stroke-width="8"
       fill="#000000"
       fill-opacity="1"
       id="path209" />
  </g>
  <g
     transform="translate(157.86927,240.19222)"
     id="g214"
     style="font-family:LatinModern-Math, LatinModern, Asana-Math, Asana">
    <path
       transform="scale(0.017,-0.017)"
       d="m 527,376 c 0,52 -59,66 -93,66 -58,0 -93,-53 -105,-76 -25,66 -79,76 -108,76 C 117,442 60,313 60,288 c 0,-10 12,-10 12,-10 8,0 11,2 13,11 34,106 100,131 134,131 19,0 54,-9 54,-67 0,-31 -17,-98 -54,-238 C 203,53 168,11 124,11 c -6,0 -29,0 -50,13 25,5 47,26 47,54 0,27 -22,35 -37,35 -30,0 -55,-26 -55,-58 0,-46 50,-66 94,-66 66,0 102,70 105,76 12,-37 48,-76 108,-76 103,0 160,129 160,154 0,10 -9,10 -12,10 -9,0 -11,-4 -13,-11 C 438,35 370,11 338,11 c -39,0 -55,32 -55,66 0,22 6,44 17,88 l 34,137 c 6,26 29,118 99,118 5,0 29,0 50,-13 -28,-5 -48,-30 -48,-54 0,-16 11,-35 38,-35 22,0 54,18 54,58 z"
       stroke="#000000"
       stroke-opacity="1"
       stroke-width="8"
       fill="#000000"
       fill-opacity="1"
       id="path213" />
  </g>
  <text
     x="0.53593749"
     y="246.89223"
     style="font-style:normal;font-weight:400;font-size:21.6px;font-family:'Times New Roman', Times, serif;dominant-baseline:text-before-edge;white-space:pre;fill:#ff0000;fill-opacity:1;stroke:none"
     id="text217">3.</text>
  <g
     transform="translate(150.36927,285.85889)"
     id="g221"
     style="font-family:LatinModern-Math, LatinModern, Asana-Math, Asana">
    <path
       transform="scale(0.017,-0.017)"
       d="m 419,0 v 31 h -32 c -90,0 -93,11 -93,48 v 561 c 0,24 0,26 -23,26 C 209,602 121,602 89,602 v -31 c 20,0 79,0 131,26 V 79 C 220,43 217,31 127,31 H 95 V 0 c 35,3 122,3 162,3 40,0 127,0 162,-3 z"
       stroke="#ff0000"
       stroke-opacity="1"
       stroke-width="8"
       fill="#ff0000"
       fill-opacity="1"
       id="path220" />
  </g>
  <g
     transform="translate(87.869275,256.85889)"
     id="g225"
     style="font-family:LatinModern-Math, LatinModern, Asana-Math, Asana">
    <path
       transform="scale(0.017,-0.017)"
       d="m 460,320 c 0,80 -5,160 -40,234 C 374,650 292,666 250,666 190,666 117,640 76,547 44,478 39,400 39,320 39,245 43,155 84,79 127,-2 200,-22 249,-22 c 54,0 130,21 174,116 32,69 37,147 37,226 z m -83,12 C 377,257 377,189 366,125 351,30 294,0 249,0 210,0 151,25 133,121 c -11,60 -11,152 -11,211 0,64 0,130 8,184 19,119 94,128 119,128 33,0 99,-18 118,-117 10,-56 10,-132 10,-195 z"
       stroke="#ff0000"
       stroke-opacity="1"
       stroke-width="8"
       fill="#ff0000"
       fill-opacity="1"
       id="path224" />
  </g>
  <g
     transform="translate(398.36927,151.19222)"
     id="g229"
     style="font-family:LatinModern-Math, LatinModern, Asana-Math, Asana">
    <path
       transform="scale(0.017,-0.017)"
       d="m 490,404 c 0,18 -14,27 -29,27 -10,0 -26,-6 -35,-21 -2,-5 -10,-36 -14,-54 L 392,276 347,96 C 343,81 300,11 234,11 c -51,0 -62,44 -62,81 0,46 17,108 51,196 16,41 20,52 20,72 0,45 -32,82 -82,82 C 66,442 29,297 29,288 c 0,-10 12,-10 12,-10 10,0 11,2 16,18 27,94 67,124 101,124 8,0 25,0 25,-32 0,-25 -10,-51 -17,-70 -40,-106 -58,-163 -58,-210 0,-89 63,-119 122,-119 39,0 73,17 101,45 -13,-52 -25,-101 -65,-154 -26,-34 -64,-63 -110,-63 -14,0 -59,3 -76,42 16,0 29,0 43,12 10,9 20,22 20,41 0,31 -27,35 -37,35 -23,0 -56,-16 -56,-65 0,-50 44,-87 106,-87 103,0 206,91 234,204 l 96,382 c 4,14 4,16 4,23 z"
       stroke="#000000"
       stroke-opacity="1"
       stroke-width="8"
       fill="#000000"
       fill-opacity="1"
       id="path228" />
  </g>
  <g
     transform="translate(343.36927,150.35889)"
     id="g233"
     style="font-family:LatinModern-Math, LatinModern, Asana-Math, Asana">
    <path
       transform="scale(0.017,-0.017)"
       d="m 460,320 c 0,80 -5,160 -40,234 C 374,650 292,666 250,666 190,666 117,640 76,547 44,478 39,400 39,320 39,245 43,155 84,79 127,-2 200,-22 249,-22 c 54,0 130,21 174,116 32,69 37,147 37,226 z m -83,12 C 377,257 377,189 366,125 351,30 294,0 249,0 210,0 151,25 133,121 c -11,60 -11,152 -11,211 0,64 0,130 8,184 19,119 94,128 119,128 33,0 99,-18 118,-117 10,-56 10,-132 10,-195 z"
       stroke="#000000"
       stroke-opacity="1"
       stroke-width="8"
       fill="#000000"
       fill-opacity="1"
       id="path232" />
  </g>
  <g
     transform="translate(521.03593,145.35889)"
     id="g237"
     style="font-family:LatinModern-Math, LatinModern, Asana-Math, Asana">
    <path
       transform="scale(0.017,-0.017)"
       d="m 467,432 c 0,10 -11,10 -11,10 -7,0 -10,-2 -15,-11 -30,-48 -51,-64 -75,-64 -24,0 -36,15 -51,32 -19,23 -36,43 -69,43 -75,0 -121,-93 -121,-114 0,-5 3,-11 12,-11 9,0 11,5 13,11 19,46 77,47 85,47 21,0 40,-7 63,-15 40,-15 51,-15 77,-15 C 339,302 255,230 236,214 L 146,130 C 78,63 43,6 43,-1 c 0,-10 12,-10 12,-10 8,0 10,2 16,13 23,35 53,62 85,62 23,0 33,-9 58,-38 17,-21 35,-37 64,-37 99,0 157,127 157,154 0,5 -4,10 -12,10 -9,0 -11,-6 -14,-13 -23,-65 -87,-84 -120,-84 -20,0 -38,6 -59,13 -34,13 -49,17 -70,17 0,0 -18,0 -27,-3 54,58 83,83 119,114 0,0 62,54 98,90 95,93 117,141 117,145 z"
       stroke="#000000"
       stroke-opacity="1"
       stroke-width="8"
       fill="#000000"
       fill-opacity="1"
       id="path236" />
  </g>
  <g
     transform="translate(451.36927,174.35889)"
     id="g241"
     style="font-family:LatinModern-Math, LatinModern, Asana-Math, Asana">
    <path
       transform="scale(0.017,-0.017)"
       d="m 419,0 v 31 h -32 c -90,0 -93,11 -93,48 v 561 c 0,24 0,26 -23,26 C 209,602 121,602 89,602 v -31 c 20,0 79,0 131,26 V 79 C 220,43 217,31 127,31 H 95 V 0 c 35,3 122,3 162,3 40,0 127,0 162,-3 z"
       stroke="#000000"
       stroke-opacity="1"
       stroke-width="8"
       fill="#000000"
       fill-opacity="1"
       id="path240" />
  </g>
  <g
     transform="translate(454.86927,61.692221)"
     id="g245"
     style="font-family:LatinModern-Math, LatinModern, Asana-Math, Asana">
    <path
       transform="scale(0.017,-0.017)"
       d="m 527,376 c 0,52 -59,66 -93,66 -58,0 -93,-53 -105,-76 -25,66 -79,76 -108,76 C 117,442 60,313 60,288 c 0,-10 12,-10 12,-10 8,0 11,2 13,11 34,106 100,131 134,131 19,0 54,-9 54,-67 0,-31 -17,-98 -54,-238 C 203,53 168,11 124,11 c -6,0 -29,0 -50,13 25,5 47,26 47,54 0,27 -22,35 -37,35 -30,0 -55,-26 -55,-58 0,-46 50,-66 94,-66 66,0 102,70 105,76 12,-37 48,-76 108,-76 103,0 160,129 160,154 0,10 -9,10 -12,10 -9,0 -11,-4 -13,-11 C 438,35 370,11 338,11 c -39,0 -55,32 -55,66 0,22 6,44 17,88 l 34,137 c 6,26 29,118 99,118 5,0 29,0 50,-13 -28,-5 -48,-30 -48,-54 0,-16 11,-35 38,-35 22,0 54,18 54,58 z"
       stroke="#000000"
       stroke-opacity="1"
       stroke-width="8"
       fill="#000000"
       fill-opacity="1"
       id="path244" />
  </g>
  <g
     transform="translate(401.36927,329.69222)"
     id="g249"
     style="font-family:LatinModern-Math, LatinModern, Asana-Math, Asana">
    <path
       transform="scale(0.017,-0.017)"
       d="m 490,404 c 0,18 -14,27 -29,27 -10,0 -26,-6 -35,-21 -2,-5 -10,-36 -14,-54 L 392,276 347,96 C 343,81 300,11 234,11 c -51,0 -62,44 -62,81 0,46 17,108 51,196 16,41 20,52 20,72 0,45 -32,82 -82,82 C 66,442 29,297 29,288 c 0,-10 12,-10 12,-10 10,0 11,2 16,18 27,94 67,124 101,124 8,0 25,0 25,-32 0,-25 -10,-51 -17,-70 -40,-106 -58,-163 -58,-210 0,-89 63,-119 122,-119 39,0 73,17 101,45 -13,-52 -25,-101 -65,-154 -26,-34 -64,-63 -110,-63 -14,0 -59,3 -76,42 16,0 29,0 43,12 10,9 20,22 20,41 0,31 -27,35 -37,35 -23,0 -56,-16 -56,-65 0,-50 44,-87 106,-87 103,0 206,91 234,204 l 96,382 c 4,14 4,16 4,23 z"
       stroke="#000000"
       stroke-opacity="1"
       stroke-width="8"
       fill="#000000"
       fill-opacity="1"
       id="path248" />
  </g>
  <g
     transform="translate(346.36927,328.85889)"
     id="g253"
     style="font-family:LatinModern-Math, LatinModern, Asana-Math, Asana">
    <path
       transform="scale(0.017,-0.017)"
       d="m 460,320 c 0,80 -5,160 -40,234 C 374,650 292,666 250,666 190,666 117,640 76,547 44,478 39,400 39,320 39,245 43,155 84,79 127,-2 200,-22 249,-22 c 54,0 130,21 174,116 32,69 37,147 37,226 z m -83,12 C 377,257 377,189 366,125 351,30 294,0 249,0 210,0 151,25 133,121 c -11,60 -11,152 -11,211 0,64 0,130 8,184 19,119 94,128 119,128 33,0 99,-18 118,-117 10,-56 10,-132 10,-195 z"
       stroke="#000000"
       stroke-opacity="1"
       stroke-width="8"
       fill="#000000"
       fill-opacity="1"
       id="path252" />
  </g>
  <g
     transform="translate(524.03593,323.85889)"
     id="g257"
     style="font-family:LatinModern-Math, LatinModern, Asana-Math, Asana">
    <path
       transform="scale(0.017,-0.017)"
       d="m 467,432 c 0,10 -11,10 -11,10 -7,0 -10,-2 -15,-11 -30,-48 -51,-64 -75,-64 -24,0 -36,15 -51,32 -19,23 -36,43 -69,43 -75,0 -121,-93 -121,-114 0,-5 3,-11 12,-11 9,0 11,5 13,11 19,46 77,47 85,47 21,0 40,-7 63,-15 40,-15 51,-15 77,-15 C 339,302 255,230 236,214 L 146,130 C 78,63 43,6 43,-1 c 0,-10 12,-10 12,-10 8,0 10,2 16,13 23,35 53,62 85,62 23,0 33,-9 58,-38 17,-21 35,-37 64,-37 99,0 157,127 157,154 0,5 -4,10 -12,10 -9,0 -11,-6 -14,-13 -23,-65 -87,-84 -120,-84 -20,0 -38,6 -59,13 -34,13 -49,17 -70,17 0,0 -18,0 -27,-3 54,58 83,83 119,114 0,0 62,54 98,90 95,93 117,141 117,145 z"
       stroke="#000000"
       stroke-opacity="1"
       stroke-width="8"
       fill="#000000"
       fill-opacity="1"
       id="path256" />
  </g>
  <g
     transform="translate(454.36927,352.85889)"
     id="g261"
     style="font-family:LatinModern-Math, LatinModern, Asana-Math, Asana">
    <path
       transform="scale(0.017,-0.017)"
       d="m 419,0 v 31 h -32 c -90,0 -93,11 -93,48 v 561 c 0,24 0,26 -23,26 C 209,602 121,602 89,602 v -31 c 20,0 79,0 131,26 V 79 C 220,43 217,31 127,31 H 95 V 0 c 35,3 122,3 162,3 40,0 127,0 162,-3 z"
       stroke="#000000"
       stroke-opacity="1"
       stroke-width="8"
       fill="#000000"
       fill-opacity="1"
       id="path260" />
  </g>
  <g
     transform="translate(457.86927,240.19222)"
     id="g265"
     style="font-family:LatinModern-Math, LatinModern, Asana-Math, Asana">
    <path
       transform="scale(0.017,-0.017)"
       d="m 527,376 c 0,52 -59,66 -93,66 -58,0 -93,-53 -105,-76 -25,66 -79,76 -108,76 C 117,442 60,313 60,288 c 0,-10 12,-10 12,-10 8,0 11,2 13,11 34,106 100,131 134,131 19,0 54,-9 54,-67 0,-31 -17,-98 -54,-238 C 203,53 168,11 124,11 c -6,0 -29,0 -50,13 25,5 47,26 47,54 0,27 -22,35 -37,35 -30,0 -55,-26 -55,-58 0,-46 50,-66 94,-66 66,0 102,70 105,76 12,-37 48,-76 108,-76 103,0 160,129 160,154 0,10 -9,10 -12,10 -9,0 -11,-4 -13,-11 C 438,35 370,11 338,11 c -39,0 -55,32 -55,66 0,22 6,44 17,88 l 34,137 c 6,26 29,118 99,118 5,0 29,0 50,-13 -28,-5 -48,-30 -48,-54 0,-16 11,-35 38,-35 22,0 54,18 54,58 z"
       stroke="#000000"
       stroke-opacity="1"
       stroke-width="8"
       fill="#000000"
       fill-opacity="1"
       id="path264" />
  </g>
  <g
     transform="translate(504.86927,261.35889)"
     id="g269"
     style="font-family:LatinModern-Math, LatinModern, Asana-Math, Asana">
    <path
       transform="scale(0.017,-0.017)"
       d="m 419,0 v 31 h -32 c -90,0 -93,11 -93,48 v 561 c 0,24 0,26 -23,26 C 209,602 121,602 89,602 v -31 c 20,0 79,0 131,26 V 79 C 220,43 217,31 127,31 H 95 V 0 c 35,3 122,3 162,3 40,0 127,0 162,-3 z"
       stroke="#212e3a"
       stroke-opacity="1"
       stroke-width="8"
       fill="#212e3a"
       fill-opacity="1"
       id="path268" />
  </g>
  <g
     transform="translate(409.86927,267.35889)"
     id="g273"
     style="font-family:LatinModern-Math, LatinModern, Asana-Math, Asana">
    <path
       transform="scale(0.017,-0.017)"
       d="m 460,320 c 0,80 -5,160 -40,234 C 374,650 292,666 250,666 190,666 117,640 76,547 44,478 39,400 39,320 39,245 43,155 84,79 127,-2 200,-22 249,-22 c 54,0 130,21 174,116 32,69 37,147 37,226 z m -83,12 C 377,257 377,189 366,125 351,30 294,0 249,0 210,0 151,25 133,121 c -11,60 -11,152 -11,211 0,64 0,130 8,184 19,119 94,128 119,128 33,0 99,-18 118,-117 10,-56 10,-132 10,-195 z"
       stroke="#212e3a"
       stroke-opacity="1"
       stroke-width="8"
       fill="#212e3a"
       fill-opacity="1"
       id="path272" />
  </g>
  <g
     transform="translate(98.869275,513.69222)"
     id="g277"
     style="font-family:LatinModern-Math, LatinModern, Asana-Math, Asana">
    <path
       transform="scale(0.017,-0.017)"
       d="m 490,404 c 0,18 -14,27 -29,27 -10,0 -26,-6 -35,-21 -2,-5 -10,-36 -14,-54 L 392,276 347,96 C 343,81 300,11 234,11 c -51,0 -62,44 -62,81 0,46 17,108 51,196 16,41 20,52 20,72 0,45 -32,82 -82,82 C 66,442 29,297 29,288 c 0,-10 12,-10 12,-10 10,0 11,2 16,18 27,94 67,124 101,124 8,0 25,0 25,-32 0,-25 -10,-51 -17,-70 -40,-106 -58,-163 -58,-210 0,-89 63,-119 122,-119 39,0 73,17 101,45 -13,-52 -25,-101 -65,-154 -26,-34 -64,-63 -110,-63 -14,0 -59,3 -76,42 16,0 29,0 43,12 10,9 20,22 20,41 0,31 -27,35 -37,35 -23,0 -56,-16 -56,-65 0,-50 44,-87 106,-87 103,0 206,91 234,204 l 96,382 c 4,14 4,16 4,23 z"
       stroke="#000000"
       stroke-opacity="1"
       stroke-width="8"
       fill="#000000"
       fill-opacity="1"
       id="path276" />
  </g>
  <g
     transform="translate(43.869271,512.85889)"
     id="g281"
     style="font-family:LatinModern-Math, LatinModern, Asana-Math, Asana">
    <path
       transform="scale(0.017,-0.017)"
       d="m 460,320 c 0,80 -5,160 -40,234 C 374,650 292,666 250,666 190,666 117,640 76,547 44,478 39,400 39,320 39,245 43,155 84,79 127,-2 200,-22 249,-22 c 54,0 130,21 174,116 32,69 37,147 37,226 z m -83,12 C 377,257 377,189 366,125 351,30 294,0 249,0 210,0 151,25 133,121 c -11,60 -11,152 -11,211 0,64 0,130 8,184 19,119 94,128 119,128 33,0 99,-18 118,-117 10,-56 10,-132 10,-195 z"
       stroke="#000000"
       stroke-opacity="1"
       stroke-width="8"
       fill="#000000"
       fill-opacity="1"
       id="path280" />
  </g>
  <g
     transform="translate(221.53593,507.85889)"
     id="g285"
     style="font-family:LatinModern-Math, LatinModern, Asana-Math, Asana">
    <path
       transform="scale(0.017,-0.017)"
       d="m 467,432 c 0,10 -11,10 -11,10 -7,0 -10,-2 -15,-11 -30,-48 -51,-64 -75,-64 -24,0 -36,15 -51,32 -19,23 -36,43 -69,43 -75,0 -121,-93 -121,-114 0,-5 3,-11 12,-11 9,0 11,5 13,11 19,46 77,47 85,47 21,0 40,-7 63,-15 40,-15 51,-15 77,-15 C 339,302 255,230 236,214 L 146,130 C 78,63 43,6 43,-1 c 0,-10 12,-10 12,-10 8,0 10,2 16,13 23,35 53,62 85,62 23,0 33,-9 58,-38 17,-21 35,-37 64,-37 99,0 157,127 157,154 0,5 -4,10 -12,10 -9,0 -11,-6 -14,-13 -23,-65 -87,-84 -120,-84 -20,0 -38,6 -59,13 -34,13 -49,17 -70,17 0,0 -18,0 -27,-3 54,58 83,83 119,114 0,0 62,54 98,90 95,93 117,141 117,145 z"
       stroke="#000000"
       stroke-opacity="1"
       stroke-width="8"
       fill="#000000"
       fill-opacity="1"
       id="path284" />
  </g>
  <g
     transform="translate(151.86927,536.85889)"
     id="g289"
     style="font-family:LatinModern-Math, LatinModern, Asana-Math, Asana">
    <path
       transform="scale(0.017,-0.017)"
       d="m 419,0 v 31 h -32 c -90,0 -93,11 -93,48 v 561 c 0,24 0,26 -23,26 C 209,602 121,602 89,602 v -31 c 20,0 79,0 131,26 V 79 C 220,43 217,31 127,31 H 95 V 0 c 35,3 122,3 162,3 40,0 127,0 162,-3 z"
       stroke="#000000"
       stroke-opacity="1"
       stroke-width="8"
       fill="#000000"
       fill-opacity="1"
       id="path288" />
  </g>
  <g
     transform="translate(155.36927,424.19222)"
     id="g293"
     style="font-family:LatinModern-Math, LatinModern, Asana-Math, Asana">
    <path
       transform="scale(0.017,-0.017)"
       d="m 527,376 c 0,52 -59,66 -93,66 -58,0 -93,-53 -105,-76 -25,66 -79,76 -108,76 C 117,442 60,313 60,288 c 0,-10 12,-10 12,-10 8,0 11,2 13,11 34,106 100,131 134,131 19,0 54,-9 54,-67 0,-31 -17,-98 -54,-238 C 203,53 168,11 124,11 c -6,0 -29,0 -50,13 25,5 47,26 47,54 0,27 -22,35 -37,35 -30,0 -55,-26 -55,-58 0,-46 50,-66 94,-66 66,0 102,70 105,76 12,-37 48,-76 108,-76 103,0 160,129 160,154 0,10 -9,10 -12,10 -9,0 -11,-4 -13,-11 C 438,35 370,11 338,11 c -39,0 -55,32 -55,66 0,22 6,44 17,88 l 34,137 c 6,26 29,118 99,118 5,0 29,0 50,-13 -28,-5 -48,-30 -48,-54 0,-16 11,-35 38,-35 22,0 54,18 54,58 z"
       stroke="#000000"
       stroke-opacity="1"
       stroke-width="8"
       fill="#000000"
       fill-opacity="1"
       id="path292" />
  </g>
  <g
     transform="translate(202.36927,445.35889)"
     id="g297"
     style="font-family:LatinModern-Math, LatinModern, Asana-Math, Asana">
    <path
       transform="scale(0.017,-0.017)"
       d="m 419,0 v 31 h -32 c -90,0 -93,11 -93,48 v 561 c 0,24 0,26 -23,26 C 209,602 121,602 89,602 v -31 c 20,0 79,0 131,26 V 79 C 220,43 217,31 127,31 H 95 V 0 c 35,3 122,3 162,3 40,0 127,0 162,-3 z"
       stroke="#212e3a"
       stroke-opacity="1"
       stroke-width="8"
       fill="#212e3a"
       fill-opacity="1"
       id="path296" />
  </g>
  <g
     transform="translate(107.36927,451.35889)"
     id="g301"
     style="font-family:LatinModern-Math, LatinModern, Asana-Math, Asana">
    <path
       transform="scale(0.017,-0.017)"
       d="m 460,320 c 0,80 -5,160 -40,234 C 374,650 292,666 250,666 190,666 117,640 76,547 44,478 39,400 39,320 39,245 43,155 84,79 127,-2 200,-22 249,-22 c 54,0 130,21 174,116 32,69 37,147 37,226 z m -83,12 C 377,257 377,189 366,125 351,30 294,0 249,0 210,0 151,25 133,121 c -11,60 -11,152 -11,211 0,64 0,130 8,184 19,119 94,128 119,128 33,0 99,-18 118,-117 10,-56 10,-132 10,-195 z"
       stroke="#212e3a"
       stroke-opacity="1"
       stroke-width="8"
       fill="#212e3a"
       fill-opacity="1"
       id="path300" />
  </g>
  <g
     transform="translate(398.86927,513.69222)"
     id="g305"
     style="font-family:LatinModern-Math, LatinModern, Asana-Math, Asana">
    <path
       transform="scale(0.017,-0.017)"
       d="m 490,404 c 0,18 -14,27 -29,27 -10,0 -26,-6 -35,-21 -2,-5 -10,-36 -14,-54 L 392,276 347,96 C 343,81 300,11 234,11 c -51,0 -62,44 -62,81 0,46 17,108 51,196 16,41 20,52 20,72 0,45 -32,82 -82,82 C 66,442 29,297 29,288 c 0,-10 12,-10 12,-10 10,0 11,2 16,18 27,94 67,124 101,124 8,0 25,0 25,-32 0,-25 -10,-51 -17,-70 -40,-106 -58,-163 -58,-210 0,-89 63,-119 122,-119 39,0 73,17 101,45 -13,-52 -25,-101 -65,-154 -26,-34 -64,-63 -110,-63 -14,0 -59,3 -76,42 16,0 29,0 43,12 10,9 20,22 20,41 0,31 -27,35 -37,35 -23,0 -56,-16 -56,-65 0,-50 44,-87 106,-87 103,0 206,91 234,204 l 96,382 c 4,14 4,16 4,23 z"
       stroke="#000000"
       stroke-opacity="1"
       stroke-width="8"
       fill="#000000"
       fill-opacity="1"
       id="path304" />
  </g>
  <g
     transform="translate(343.86927,512.85889)"
     id="g309"
     style="font-family:LatinModern-Math, LatinModern, Asana-Math, Asana">
    <path
       transform="scale(0.017,-0.017)"
       d="m 460,320 c 0,80 -5,160 -40,234 C 374,650 292,666 250,666 190,666 117,640 76,547 44,478 39,400 39,320 39,245 43,155 84,79 127,-2 200,-22 249,-22 c 54,0 130,21 174,116 32,69 37,147 37,226 z m -83,12 C 377,257 377,189 366,125 351,30 294,0 249,0 210,0 151,25 133,121 c -11,60 -11,152 -11,211 0,64 0,130 8,184 19,119 94,128 119,128 33,0 99,-18 118,-117 10,-56 10,-132 10,-195 z"
       stroke="#000000"
       stroke-opacity="1"
       stroke-width="8"
       fill="#000000"
       fill-opacity="1"
       id="path308" />
  </g>
  <g
     transform="translate(521.53593,507.85889)"
     id="g313"
     style="font-family:LatinModern-Math, LatinModern, Asana-Math, Asana">
    <path
       transform="scale(0.017,-0.017)"
       d="m 467,432 c 0,10 -11,10 -11,10 -7,0 -10,-2 -15,-11 -30,-48 -51,-64 -75,-64 -24,0 -36,15 -51,32 -19,23 -36,43 -69,43 -75,0 -121,-93 -121,-114 0,-5 3,-11 12,-11 9,0 11,5 13,11 19,46 77,47 85,47 21,0 40,-7 63,-15 40,-15 51,-15 77,-15 C 339,302 255,230 236,214 L 146,130 C 78,63 43,6 43,-1 c 0,-10 12,-10 12,-10 8,0 10,2 16,13 23,35 53,62 85,62 23,0 33,-9 58,-38 17,-21 35,-37 64,-37 99,0 157,127 157,154 0,5 -4,10 -12,10 -9,0 -11,-6 -14,-13 -23,-65 -87,-84 -120,-84 -20,0 -38,6 -59,13 -34,13 -49,17 -70,17 0,0 -18,0 -27,-3 54,58 83,83 119,114 0,0 62,54 98,90 95,93 117,141 117,145 z"
       stroke="#000000"
       stroke-opacity="1"
       stroke-width="8"
       fill="#000000"
       fill-opacity="1"
       id="path312" />
  </g>
  <g
     transform="translate(451.86927,536.85889)"
     id="g317"
     style="font-family:LatinModern-Math, LatinModern, Asana-Math, Asana">
    <path
       transform="scale(0.017,-0.017)"
       d="m 419,0 v 31 h -32 c -90,0 -93,11 -93,48 v 561 c 0,24 0,26 -23,26 C 209,602 121,602 89,602 v -31 c 20,0 79,0 131,26 V 79 C 220,43 217,31 127,31 H 95 V 0 c 35,3 122,3 162,3 40,0 127,0 162,-3 z"
       stroke="#000000"
       stroke-opacity="1"
       stroke-width="8"
       fill="#000000"
       fill-opacity="1"
       id="path316" />
  </g>
  <g
     transform="translate(455.36927,424.19222)"
     id="g321"
     style="font-family:LatinModern-Math, LatinModern, Asana-Math, Asana">
    <path
       transform="scale(0.017,-0.017)"
       d="m 527,376 c 0,52 -59,66 -93,66 -58,0 -93,-53 -105,-76 -25,66 -79,76 -108,76 C 117,442 60,313 60,288 c 0,-10 12,-10 12,-10 8,0 11,2 13,11 34,106 100,131 134,131 19,0 54,-9 54,-67 0,-31 -17,-98 -54,-238 C 203,53 168,11 124,11 c -6,0 -29,0 -50,13 25,5 47,26 47,54 0,27 -22,35 -37,35 -30,0 -55,-26 -55,-58 0,-46 50,-66 94,-66 66,0 102,70 105,76 12,-37 48,-76 108,-76 103,0 160,129 160,154 0,10 -9,10 -12,10 -9,0 -11,-4 -13,-11 C 438,35 370,11 338,11 c -39,0 -55,32 -55,66 0,22 6,44 17,88 l 34,137 c 6,26 29,118 99,118 5,0 29,0 50,-13 -28,-5 -48,-30 -48,-54 0,-16 11,-35 38,-35 22,0 54,18 54,58 z"
       stroke="#000000"
       stroke-opacity="1"
       stroke-width="8"
       fill="#000000"
       fill-opacity="1"
       id="path320" />
  </g>
  <g
     transform="translate(502.36927,445.35889)"
     id="g325"
     style="font-family:LatinModern-Math, LatinModern, Asana-Math, Asana">
    <path
       transform="scale(0.017,-0.017)"
       d="m 419,0 v 31 h -32 c -90,0 -93,11 -93,48 v 561 c 0,24 0,26 -23,26 C 209,602 121,602 89,602 v -31 c 20,0 79,0 131,26 V 79 C 220,43 217,31 127,31 H 95 V 0 c 35,3 122,3 162,3 40,0 127,0 162,-3 z"
       stroke="#212e3a"
       stroke-opacity="1"
       stroke-width="8"
       fill="#212e3a"
       fill-opacity="1"
       id="path324" />
  </g>
  <g
     transform="translate(407.36927,451.35889)"
     id="g329"
     style="font-family:LatinModern-Math, LatinModern, Asana-Math, Asana">
    <path
       transform="scale(0.017,-0.017)"
       d="m 460,320 c 0,80 -5,160 -40,234 C 374,650 292,666 250,666 190,666 117,640 76,547 44,478 39,400 39,320 39,245 43,155 84,79 127,-2 200,-22 249,-22 c 54,0 130,21 174,116 32,69 37,147 37,226 z m -83,12 C 377,257 377,189 366,125 351,30 294,0 249,0 210,0 151,25 133,121 c -11,60 -11,152 -11,211 0,64 0,130 8,184 19,119 94,128 119,128 33,0 99,-18 118,-117 10,-56 10,-132 10,-195 z"
       stroke="#212e3a"
       stroke-opacity="1"
       stroke-width="8"
       fill="#212e3a"
       fill-opacity="1"
       id="path328" />
  </g>
  <text
     x="-0.46406251"
     y="425.22552"
     style="font-style:normal;font-weight:400;font-size:21.6px;font-family:'Times New Roman', Times, serif;dominant-baseline:text-before-edge;white-space:pre;fill:#ff0000;fill-opacity:1;stroke:none"
     id="text332">2.</text>
  <g
     transform="translate(98.869275,673.69222)"
     id="g336"
     style="font-family:LatinModern-Math, LatinModern, Asana-Math, Asana">
    <path
       transform="scale(0.017,-0.017)"
       d="m 490,404 c 0,18 -14,27 -29,27 -10,0 -26,-6 -35,-21 -2,-5 -10,-36 -14,-54 L 392,276 347,96 C 343,81 300,11 234,11 c -51,0 -62,44 -62,81 0,46 17,108 51,196 16,41 20,52 20,72 0,45 -32,82 -82,82 C 66,442 29,297 29,288 c 0,-10 12,-10 12,-10 10,0 11,2 16,18 27,94 67,124 101,124 8,0 25,0 25,-32 0,-25 -10,-51 -17,-70 -40,-106 -58,-163 -58,-210 0,-89 63,-119 122,-119 39,0 73,17 101,45 -13,-52 -25,-101 -65,-154 -26,-34 -64,-63 -110,-63 -14,0 -59,3 -76,42 16,0 29,0 43,12 10,9 20,22 20,41 0,31 -27,35 -37,35 -23,0 -56,-16 -56,-65 0,-50 44,-87 106,-87 103,0 206,91 234,204 l 96,382 c 4,14 4,16 4,23 z"
       stroke="#000000"
       stroke-opacity="1"
       stroke-width="8"
       fill="#000000"
       fill-opacity="1"
       id="path335" />
  </g>
  <g
     transform="translate(43.869271,672.85889)"
     id="g340"
     style="font-family:LatinModern-Math, LatinModern, Asana-Math, Asana">
    <path
       transform="scale(0.017,-0.017)"
       d="m 460,320 c 0,80 -5,160 -40,234 C 374,650 292,666 250,666 190,666 117,640 76,547 44,478 39,400 39,320 39,245 43,155 84,79 127,-2 200,-22 249,-22 c 54,0 130,21 174,116 32,69 37,147 37,226 z m -83,12 C 377,257 377,189 366,125 351,30 294,0 249,0 210,0 151,25 133,121 c -11,60 -11,152 -11,211 0,64 0,130 8,184 19,119 94,128 119,128 33,0 99,-18 118,-117 10,-56 10,-132 10,-195 z"
       stroke="#000000"
       stroke-opacity="1"
       stroke-width="8"
       fill="#000000"
       fill-opacity="1"
       id="path339" />
  </g>
  <g
     transform="translate(221.53593,667.85889)"
     id="g344"
     style="font-family:LatinModern-Math, LatinModern, Asana-Math, Asana">
    <path
       transform="scale(0.017,-0.017)"
       d="m 467,432 c 0,10 -11,10 -11,10 -7,0 -10,-2 -15,-11 -30,-48 -51,-64 -75,-64 -24,0 -36,15 -51,32 -19,23 -36,43 -69,43 -75,0 -121,-93 -121,-114 0,-5 3,-11 12,-11 9,0 11,5 13,11 19,46 77,47 85,47 21,0 40,-7 63,-15 40,-15 51,-15 77,-15 C 339,302 255,230 236,214 L 146,130 C 78,63 43,6 43,-1 c 0,-10 12,-10 12,-10 8,0 10,2 16,13 23,35 53,62 85,62 23,0 33,-9 58,-38 17,-21 35,-37 64,-37 99,0 157,127 157,154 0,5 -4,10 -12,10 -9,0 -11,-6 -14,-13 -23,-65 -87,-84 -120,-84 -20,0 -38,6 -59,13 -34,13 -49,17 -70,17 0,0 -18,0 -27,-3 54,58 83,83 119,114 0,0 62,54 98,90 95,93 117,141 117,145 z"
       stroke="#000000"
       stroke-opacity="1"
       stroke-width="8"
       fill="#000000"
       fill-opacity="1"
       id="path343" />
  </g>
  <g
     transform="translate(151.86927,696.85889)"
     id="g348"
     style="font-family:LatinModern-Math, LatinModern, Asana-Math, Asana">
    <path
       transform="scale(0.017,-0.017)"
       d="m 419,0 v 31 h -32 c -90,0 -93,11 -93,48 v 561 c 0,24 0,26 -23,26 C 209,602 121,602 89,602 v -31 c 20,0 79,0 131,26 V 79 C 220,43 217,31 127,31 H 95 V 0 c 35,3 122,3 162,3 40,0 127,0 162,-3 z"
       stroke="#000000"
       stroke-opacity="1"
       stroke-width="8"
       fill="#000000"
       fill-opacity="1"
       id="path347" />
  </g>
  <g
     transform="translate(155.36927,584.19222)"
     id="g352"
     style="font-family:LatinModern-Math, LatinModern, Asana-Math, Asana">
    <path
       transform="scale(0.017,-0.017)"
       d="m 527,376 c 0,52 -59,66 -93,66 -58,0 -93,-53 -105,-76 -25,66 -79,76 -108,76 C 117,442 60,313 60,288 c 0,-10 12,-10 12,-10 8,0 11,2 13,11 34,106 100,131 134,131 19,0 54,-9 54,-67 0,-31 -17,-98 -54,-238 C 203,53 168,11 124,11 c -6,0 -29,0 -50,13 25,5 47,26 47,54 0,27 -22,35 -37,35 -30,0 -55,-26 -55,-58 0,-46 50,-66 94,-66 66,0 102,70 105,76 12,-37 48,-76 108,-76 103,0 160,129 160,154 0,10 -9,10 -12,10 -9,0 -11,-4 -13,-11 C 438,35 370,11 338,11 c -39,0 -55,32 -55,66 0,22 6,44 17,88 l 34,137 c 6,26 29,118 99,118 5,0 29,0 50,-13 -28,-5 -48,-30 -48,-54 0,-16 11,-35 38,-35 22,0 54,18 54,58 z"
       stroke="#000000"
       stroke-opacity="1"
       stroke-width="8"
       fill="#000000"
       fill-opacity="1"
       id="path351" />
  </g>
  <g
     transform="translate(202.36927,605.35889)"
     id="g356"
     style="font-family:LatinModern-Math, LatinModern, Asana-Math, Asana">
    <path
       transform="scale(0.017,-0.017)"
       d="m 419,0 v 31 h -32 c -90,0 -93,11 -93,48 v 561 c 0,24 0,26 -23,26 C 209,602 121,602 89,602 v -31 c 20,0 79,0 131,26 V 79 C 220,43 217,31 127,31 H 95 V 0 c 35,3 122,3 162,3 40,0 127,0 162,-3 z"
       stroke="#212e3a"
       stroke-opacity="1"
       stroke-width="8"
       fill="#212e3a"
       fill-opacity="1"
       id="path355" />
  </g>
  <g
     transform="translate(107.36927,611.35889)"
     id="g360"
     style="font-family:LatinModern-Math, LatinModern, Asana-Math, Asana">
    <path
       transform="scale(0.017,-0.017)"
       d="m 460,320 c 0,80 -5,160 -40,234 C 374,650 292,666 250,666 190,666 117,640 76,547 44,478 39,400 39,320 39,245 43,155 84,79 127,-2 200,-22 249,-22 c 54,0 130,21 174,116 32,69 37,147 37,226 z m -83,12 C 377,257 377,189 366,125 351,30 294,0 249,0 210,0 151,25 133,121 c -11,60 -11,152 -11,211 0,64 0,130 8,184 19,119 94,128 119,128 33,0 99,-18 118,-117 10,-56 10,-132 10,-195 z"
       stroke="#212e3a"
       stroke-opacity="1"
       stroke-width="8"
       fill="#212e3a"
       fill-opacity="1"
       id="path359" />
  </g>
  <g
     transform="translate(275.86927,677.6589)"
     id="g364"
     style="font-family:LatinModern-Math, LatinModern, Asana-Math, Asana">
    <path
       transform="scale(0.017,-0.017)"
       d="m 419,0 v 31 h -32 c -90,0 -93,11 -93,48 v 561 c 0,24 0,26 -23,26 C 209,602 121,602 89,602 v -31 c 20,0 79,0 131,26 V 79 C 220,43 217,31 127,31 H 95 V 0 c 35,3 122,3 162,3 40,0 127,0 162,-3 z"
       stroke="#ff0000"
       stroke-opacity="1"
       stroke-width="8"
       fill="#ff0000"
       fill-opacity="1"
       id="path363" />
  </g>
  <g
     transform="translate(161.06926,632.05888)"
     id="g368"
     style="font-family:LatinModern-Math, LatinModern, Asana-Math, Asana">
    <path
       transform="scale(0.017,-0.017)"
       d="m 460,320 c 0,80 -5,160 -40,234 C 374,650 292,666 250,666 190,666 117,640 76,547 44,478 39,400 39,320 39,245 43,155 84,79 127,-2 200,-22 249,-22 c 54,0 130,21 174,116 32,69 37,147 37,226 z m -83,12 C 377,257 377,189 366,125 351,30 294,0 249,0 210,0 151,25 133,121 c -11,60 -11,152 -11,211 0,64 0,130 8,184 19,119 94,128 119,128 33,0 99,-18 118,-117 10,-56 10,-132 10,-195 z"
       stroke="#ff0000"
       stroke-opacity="1"
       stroke-width="8"
       fill="#ff0000"
       fill-opacity="1"
       id="path367" />
  </g>
  <text
     x="-0.13073045"
     y="600.51447"
     style="font-style:normal;font-weight:400;font-size:21.6px;font-family:'Times New Roman', Times, serif;dominant-baseline:text-before-edge;white-space:pre;fill:#ff0000;fill-opacity:1;stroke:none"
     id="text371">3.</text>
  <g
     transform="translate(400.86927,673.69222)"
     id="g375"
     style="font-family:LatinModern-Math, LatinModern, Asana-Math, Asana">
    <path
       transform="scale(0.017,-0.017)"
       d="m 490,404 c 0,18 -14,27 -29,27 -10,0 -26,-6 -35,-21 -2,-5 -10,-36 -14,-54 L 392,276 347,96 C 343,81 300,11 234,11 c -51,0 -62,44 -62,81 0,46 17,108 51,196 16,41 20,52 20,72 0,45 -32,82 -82,82 C 66,442 29,297 29,288 c 0,-10 12,-10 12,-10 10,0 11,2 16,18 27,94 67,124 101,124 8,0 25,0 25,-32 0,-25 -10,-51 -17,-70 -40,-106 -58,-163 -58,-210 0,-89 63,-119 122,-119 39,0 73,17 101,45 -13,-52 -25,-101 -65,-154 -26,-34 -64,-63 -110,-63 -14,0 -59,3 -76,42 16,0 29,0 43,12 10,9 20,22 20,41 0,31 -27,35 -37,35 -23,0 -56,-16 -56,-65 0,-50 44,-87 106,-87 103,0 206,91 234,204 l 96,382 c 4,14 4,16 4,23 z"
       stroke="#000000"
       stroke-opacity="1"
       stroke-width="8"
       fill="#000000"
       fill-opacity="1"
       id="path374" />
  </g>
  <g
     transform="translate(345.86927,672.85889)"
     id="g379"
     style="font-family:LatinModern-Math, LatinModern, Asana-Math, Asana">
    <path
       transform="scale(0.017,-0.017)"
       d="m 460,320 c 0,80 -5,160 -40,234 C 374,650 292,666 250,666 190,666 117,640 76,547 44,478 39,400 39,320 39,245 43,155 84,79 127,-2 200,-22 249,-22 c 54,0 130,21 174,116 32,69 37,147 37,226 z m -83,12 C 377,257 377,189 366,125 351,30 294,0 249,0 210,0 151,25 133,121 c -11,60 -11,152 -11,211 0,64 0,130 8,184 19,119 94,128 119,128 33,0 99,-18 118,-117 10,-56 10,-132 10,-195 z"
       stroke="#000000"
       stroke-opacity="1"
       stroke-width="8"
       fill="#000000"
       fill-opacity="1"
       id="path378" />
  </g>
  <g
     transform="translate(523.53593,667.85889)"
     id="g383"
     style="font-family:LatinModern-Math, LatinModern, Asana-Math, Asana">
    <path
       transform="scale(0.017,-0.017)"
       d="m 467,432 c 0,10 -11,10 -11,10 -7,0 -10,-2 -15,-11 -30,-48 -51,-64 -75,-64 -24,0 -36,15 -51,32 -19,23 -36,43 -69,43 -75,0 -121,-93 -121,-114 0,-5 3,-11 12,-11 9,0 11,5 13,11 19,46 77,47 85,47 21,0 40,-7 63,-15 40,-15 51,-15 77,-15 C 339,302 255,230 236,214 L 146,130 C 78,63 43,6 43,-1 c 0,-10 12,-10 12,-10 8,0 10,2 16,13 23,35 53,62 85,62 23,0 33,-9 58,-38 17,-21 35,-37 64,-37 99,0 157,127 157,154 0,5 -4,10 -12,10 -9,0 -11,-6 -14,-13 -23,-65 -87,-84 -120,-84 -20,0 -38,6 -59,13 -34,13 -49,17 -70,17 0,0 -18,0 -27,-3 54,58 83,83 119,114 0,0 62,54 98,90 95,93 117,141 117,145 z"
       stroke="#000000"
       stroke-opacity="1"
       stroke-width="8"
       fill="#000000"
       fill-opacity="1"
       id="path382" />
  </g>
  <g
     transform="translate(453.86927,696.85889)"
     id="g387"
     style="font-family:LatinModern-Math, LatinModern, Asana-Math, Asana">
    <path
       transform="scale(0.017,-0.017)"
       d="m 419,0 v 31 h -32 c -90,0 -93,11 -93,48 v 561 c 0,24 0,26 -23,26 C 209,602 121,602 89,602 v -31 c 20,0 79,0 131,26 V 79 C 220,43 217,31 127,31 H 95 V 0 c 35,3 122,3 162,3 40,0 127,0 162,-3 z"
       stroke="#000000"
       stroke-opacity="1"
       stroke-width="8"
       fill="#000000"
       fill-opacity="1"
       id="path386" />
  </g>
  <g
     transform="translate(457.36927,584.19222)"
     id="g391"
     style="font-family:LatinModern-Math, LatinModern, Asana-Math, Asana">
    <path
       transform="scale(0.017,-0.017)"
       d="m 527,376 c 0,52 -59,66 -93,66 -58,0 -93,-53 -105,-76 -25,66 -79,76 -108,76 C 117,442 60,313 60,288 c 0,-10 12,-10 12,-10 8,0 11,2 13,11 34,106 100,131 134,131 19,0 54,-9 54,-67 0,-31 -17,-98 -54,-238 C 203,53 168,11 124,11 c -6,0 -29,0 -50,13 25,5 47,26 47,54 0,27 -22,35 -37,35 -30,0 -55,-26 -55,-58 0,-46 50,-66 94,-66 66,0 102,70 105,76 12,-37 48,-76 108,-76 103,0 160,129 160,154 0,10 -9,10 -12,10 -9,0 -11,-4 -13,-11 C 438,35 370,11 338,11 c -39,0 -55,32 -55,66 0,22 6,44 17,88 l 34,137 c 6,26 29,118 99,118 5,0 29,0 50,-13 -28,-5 -48,-30 -48,-54 0,-16 11,-35 38,-35 22,0 54,18 54,58 z"
       stroke="#000000"
       stroke-opacity="1"
       stroke-width="8"
       fill="#000000"
       fill-opacity="1"
       id="path390" />
  </g>
  <g
     transform="translate(504.36927,605.35889)"
     id="g395"
     style="font-family:LatinModern-Math, LatinModern, Asana-Math, Asana">
    <path
       transform="scale(0.017,-0.017)"
       d="m 419,0 v 31 h -32 c -90,0 -93,11 -93,48 v 561 c 0,24 0,26 -23,26 C 209,602 121,602 89,602 v -31 c 20,0 79,0 131,26 V 79 C 220,43 217,31 127,31 H 95 V 0 c 35,3 122,3 162,3 40,0 127,0 162,-3 z"
       stroke="#212e3a"
       stroke-opacity="1"
       stroke-width="8"
       fill="#212e3a"
       fill-opacity="1"
       id="path394" />
  </g>
  <g
     transform="translate(409.36927,611.35889)"
     id="g399"
     style="font-family:LatinModern-Math, LatinModern, Asana-Math, Asana">
    <path
       transform="scale(0.017,-0.017)"
       d="m 460,320 c 0,80 -5,160 -40,234 C 374,650 292,666 250,666 190,666 117,640 76,547 44,478 39,400 39,320 39,245 43,155 84,79 127,-2 200,-22 249,-22 c 54,0 130,21 174,116 32,69 37,147 37,226 z m -83,12 C 377,257 377,189 366,125 351,30 294,0 249,0 210,0 151,25 133,121 c -11,60 -11,152 -11,211 0,64 0,130 8,184 19,119 94,128 119,128 33,0 99,-18 118,-117 10,-56 10,-132 10,-195 z"
       stroke="#212e3a"
       stroke-opacity="1"
       stroke-width="8"
       fill="#212e3a"
       fill-opacity="1"
       id="path398" />
  </g>
  <g
     transform="translate(577.86927,677.6589)"
     id="g403"
     style="font-family:LatinModern-Math, LatinModern, Asana-Math, Asana">
    <path
       transform="scale(0.017,-0.017)"
       d="m 419,0 v 31 h -32 c -90,0 -93,11 -93,48 v 561 c 0,24 0,26 -23,26 C 209,602 121,602 89,602 v -31 c 20,0 79,0 131,26 V 79 C 220,43 217,31 127,31 H 95 V 0 c 35,3 122,3 162,3 40,0 127,0 162,-3 z"
       stroke="#212e3a"
       stroke-opacity="1"
       stroke-width="8"
       fill="#212e3a"
       fill-opacity="1"
       id="path402" />
  </g>
  <g
     transform="translate(461.06922,645.39221)"
     id="g407"
     style="font-family:LatinModern-Math, LatinModern, Asana-Math, Asana">
    <path
       transform="scale(0.017,-0.017)"
       d="m 460,320 c 0,80 -5,160 -40,234 C 374,650 292,666 250,666 190,666 117,640 76,547 44,478 39,400 39,320 39,245 43,155 84,79 127,-2 200,-22 249,-22 c 54,0 130,21 174,116 32,69 37,147 37,226 z m -83,12 C 377,257 377,189 366,125 351,30 294,0 249,0 210,0 151,25 133,121 c -11,60 -11,152 -11,211 0,64 0,130 8,184 19,119 94,128 119,128 33,0 99,-18 118,-117 10,-56 10,-132 10,-195 z"
       stroke="#212e3a"
       stroke-opacity="1"
       stroke-width="8"
       fill="#212e3a"
       fill-opacity="1"
       id="path406" />
  </g>
</svg>
