<svg xmlns="http://www.w3.org/2000/svg" xmlns:xlink="http://www.w3.org/1999/xlink" x="0" y="0" width="702" height="79.33333333333333" style="
        width:702px;
        height:79.33333333333333px;
        background: transparent;
        fill: none;
">
        
        
        <svg xmlns="http://www.w3.org/2000/svg" class="role-diagram-draw-area" style="overflow: visible;"><g class="shapes-region" style="stroke: black; fill: none;"><g class="arrow-line"><path class="connection real" stroke-dasharray="" d="  M249.07,40.1 L351.27,40.1" style="stroke: rgb(0, 0, 0); stroke-width: 2px; fill: none; fill-opacity: 1;"/><g stroke="none" fill="#000" transform="matrix(-1,1.2246467991473532e-16,-1.2246467991473532e-16,-1,355.26666666666665,40.099999999999994)" style="stroke: none; fill: rgb(0, 0, 0); stroke-width: 2px;"><path d=" M13.4,-6.43 L0,0 L13.4,6.44 L8.9,0 Z"/></g></g><g class="arrow-line"><path class="connection real" stroke-dasharray="" d="  M388.17,39.5 L472.07,39.5" style="stroke: rgb(0, 0, 0); stroke-width: 2px; fill: none; fill-opacity: 1;"/><g stroke="none" fill="#000" transform="matrix(-1,1.2246467991473532e-16,-1.2246467991473532e-16,-1,476.0666666666666,39.5)" style="stroke: none; fill: rgb(0, 0, 0); stroke-width: 2px;"><path d=" M13.4,-6.43 L0,0 L13.4,6.44 L8.9,0 Z"/></g></g><g class="arrow-line"><path class="connection real" stroke-dasharray="" d="  M501.12,39.9 L573.27,39.9" style="stroke: rgb(0, 0, 0); stroke-width: 2px; fill: none; fill-opacity: 1;"/><g stroke="none" fill="#000" transform="matrix(-1,1.2246467991473532e-16,-1.2246467991473532e-16,-1,577.2666666666667,39.900000000000006)" style="stroke: none; fill: rgb(0, 0, 0); stroke-width: 2px;"><path d=" M13.4,-6.43 L0,0 L13.4,6.44 L8.9,0 Z"/></g></g><g class="composite-shape"><path class="real" d=" M477.27,25.86 C477.27,20.69 481.46,16.5 486.63,16.5 L515.91,16.5 C521.08,16.5 525.27,20.69 525.27,25.86 L525.27,53.94 C525.27,59.11 521.08,63.3 515.91,63.3 L486.63,63.3 C481.46,63.3 477.27,59.11 477.27,53.94 Z" style="stroke-width: 2px; stroke: rgb(0, 0, 0); fill: rgb(255, 255, 255); fill-opacity: 1;"/></g><g class="composite-shape"><path class="real" d=" M356.47,25.46 C356.47,20.29 360.66,16.1 365.83,16.1 L410.71,16.1 C415.88,16.1 420.07,20.29 420.07,25.46 L420.07,53.54 C420.07,58.71 415.88,62.9 410.71,62.9 L365.83,62.9 C360.66,62.9 356.47,58.71 356.47,53.54 Z" style="stroke-width: 2px; stroke: rgb(0, 0, 0); fill: rgb(255, 255, 255); fill-opacity: 1;"/></g><g class="composite-shape"><path class="real" d=" M202.87,26.24 C202.87,21.14 207,17 212.11,17 L286.03,17 C291.13,17 295.27,21.14 295.27,26.24 L295.27,53.96 C295.27,59.06 291.13,63.2 286.03,63.2 L212.11,63.2 C207,63.2 202.87,59.06 202.87,53.96 Z" style="stroke-width: 2px; stroke: rgb(0, 0, 0); fill: rgb(255, 255, 255); fill-opacity: 1;"/></g><g class="composite-shape"><path class="real" d=" M206.67,28 C206.67,23.58 210.25,20 214.67,20 L283.67,20 C288.08,20 291.67,23.58 291.67,28 L291.67,52 C291.67,56.42 288.08,60 283.67,60 L214.67,60 C210.25,60 206.67,56.42 206.67,52 Z" style="stroke-width: 2px; stroke: rgb(0, 0, 0); fill: rgb(255, 255, 255); fill-opacity: 1;"/></g><g class="arrow-line"><path class="connection real" stroke-dasharray="" d="  M89.92,40 L198.47,40" style="stroke: rgb(0, 0, 0); stroke-width: 2px; fill: none; fill-opacity: 1;"/><g stroke="none" transform="matrix(-1,1.2246467991473532e-16,-1.2246467991473532e-16,-1,202.46666666666667,39.99999999999999)" style="stroke: none; stroke-width: 2px; fill: rgb(0, 0, 0);" fill="#000"><path d=" M13.4,-6.43 L0,0 L13.4,6.44 L8.9,0 Z"/></g></g><g class="arrow-line"><path class="connection real" stroke-dasharray="" d="  M593.23,40.4 C669.06,77.39 662.08,33.95 614.72,32.37" style="stroke: rgb(0, 0, 0); stroke-width: 2px; fill: none; fill-opacity: 1;"/><g stroke="none" fill="#000" transform="matrix(0.999914327574007,-0.013089595571344759,0.013089595571344759,0.999914327574007,611,32.33333333333334)" style="stroke: none; fill: rgb(0, 0, 0); stroke-width: 2px;"><path d=" M13.4,-6.43 L0,0 L13.4,6.44 L8.9,0 Z"/></g></g><g class="composite-shape"><path class="real" d=" M39.17,28 C39.17,23.58 42.75,20 47.17,20 L132.67,20 C137.08,20 140.67,23.58 140.67,28 L140.67,52 C140.67,56.42 137.08,60 132.67,60 L47.17,60 C42.75,60 39.17,56.42 39.17,52 Z" style="stroke-width: 2px; stroke: rgb(0, 0, 0); fill: rgb(255, 255, 255); fill-opacity: 1;"/></g><g class="composite-shape"><path class="real" d=" M360.17,27.5 C360.17,23.08 363.75,19.5 368.17,19.5 L408.17,19.5 C412.58,19.5 416.17,23.08 416.17,27.5 L416.17,51.5 C416.17,55.92 412.58,59.5 408.17,59.5 L368.17,59.5 C363.75,59.5 360.17,55.92 360.17,51.5 Z" style="stroke-width: 2px; stroke: rgb(0, 0, 0); fill: rgb(255, 255, 255); fill-opacity: 1;"/></g><g class="composite-shape"><path class="real" d=" M480.87,27.9 C480.87,23.48 484.45,19.9 488.87,19.9 L513.37,19.9 C517.78,19.9 521.37,23.48 521.37,27.9 L521.37,51.9 C521.37,56.32 517.78,59.9 513.37,59.9 L488.87,59.9 C484.45,59.9 480.87,56.32 480.87,51.9 Z" style="stroke-width: 2px; stroke: rgb(0, 0, 0); fill: rgb(255, 255, 255); fill-opacity: 1;"/></g><g class="composite-shape"><path class="real" d=" M577.07,26.87 C577.07,23.3 579.96,20.4 583.53,20.4 L602.93,20.4 C606.5,20.4 609.4,23.3 609.4,26.87 L609.4,53.93 C609.4,57.5 606.5,60.4 602.93,60.4 L583.53,60.4 C579.96,60.4 577.07,57.5 577.07,53.93 Z" style="stroke-width: 2px; stroke: rgb(0, 0, 0); fill: rgb(255, 255, 255); fill-opacity: 1;"/></g><g/></g><g/><g/><g/></svg>
        <svg xmlns="http://www.w3.org/2000/svg" xmlns:xlink="http://www.w3.org/1999/xlink" width="700" height="77.33333333333333" style="width:700px;height:77.33333333333333px;font-family:LatinModern-Math, LatinModern, Asana-Math, Asana;background:transparent;"><g><g><g><g transform="matrix(1,0,0,1,159.66666666666666,24.312222900390623)"><path transform="matrix(0.03519,0,0,-0.03519,0,0)" d="M498 143C498 153 489 153 486 153C476 153 475 149 472 135C455 70 437 11 396 11C369 11 366 37 366 57C366 79 368 87 379 131L401 221L437 361C444 389 444 391 444 395C444 412 432 422 415 422C391 422 376 400 373 378C355 415 326 442 281 442C164 442 40 295 40 149C40 55 95 -11 173 -11C193 -11 243 -7 303 64C311 22 346 -11 394 -11C429 -11 452 12 468 44C485 80 498 143 498 143ZM361 332C361 326 359 320 358 315L308 119C303 101 303 99 288 82C244 27 203 11 175 11C125 11 111 66 111 105C111 155 143 278 166 324C197 383 242 420 282 420C347 420 361 338 361 332Z" stroke="rgb(0,0,0)" stroke-opacity="1" stroke-width="8" fill="rgb(0,0,0)" fill-opacity="1"></path></g></g></g></g><g><g><g><g transform="matrix(1,0,0,1,46.16666666666667,45.5)"><path transform="matrix(0.017,0,0,-0.017,0,0)" d="M425 -238C425 -231 420 -226 413 -226C338 -226 283 -177 283 -125L283 125C283 183 235 229 168 250C235 271 283 317 283 375L283 625C283 677 338 726 413 726C420 726 425 731 425 738C425 745 420 750 413 750C308 750 217 698 217 625L217 375C217 317 162 262 87 262C80 262 75 257 75 250C75 243 80 238 87 238C162 238 217 183 217 125L217 -125C217 -198 308 -250 413 -250C420 -250 425 -245 425 -238Z" stroke="rgb(0,0,0)" stroke-opacity="1" stroke-width="8" fill="rgb(0,0,0)" fill-opacity="1"></path></g></g><g><g transform="matrix(1,0,0,1,55.522216796875,45.199991861979164)"><path transform="matrix(0.017,0,0,-0.017,0,0)" d="M498 143C498 153 489 153 486 153C476 153 475 149 472 135C455 70 437 11 396 11C369 11 366 37 366 57C366 79 368 87 379 131L401 221L437 361C444 389 444 391 444 395C444 412 432 422 415 422C391 422 376 400 373 378C355 415 326 442 281 442C164 442 40 295 40 149C40 55 95 -11 173 -11C193 -11 243 -7 303 64C311 22 346 -11 394 -11C429 -11 452 12 468 44C485 80 498 143 498 143ZM361 332C361 326 359 320 358 315L308 119C303 101 303 99 288 82C244 27 203 11 175 11C125 11 111 66 111 105C111 155 143 278 166 324C197 383 242 420 282 420C347 420 361 338 361 332Z" stroke="rgb(0,0,0)" stroke-opacity="1" stroke-width="8" fill="rgb(0,0,0)" fill-opacity="1"></path></g></g><g><g transform="matrix(1,0,0,1,64.522216796875,45.199991861979164)"><path transform="matrix(0.017,0,0,-0.017,0,0)" d="M203 1C203 67 178 106 139 106C106 106 86 81 86 53C86 26 106 0 139 0C151 0 164 4 174 13C177 15 179 16 179 16C179 16 181 15 181 1C181 -73 146 -133 113 -166C102 -177 102 -179 102 -182C102 -189 107 -193 112 -193C123 -193 203 -116 203 1Z" stroke="rgb(0,0,0)" stroke-opacity="1" stroke-width="8" fill="rgb(0,0,0)" fill-opacity="1"></path></g></g><g><g transform="matrix(1,0,0,1,72.64444986979167,45.199991861979164)"><path transform="matrix(0.017,0,0,-0.017,0,0)" d="M498 143C498 153 489 153 486 153C476 153 475 149 472 135C455 70 437 11 396 11C369 11 366 37 366 57C366 79 368 87 379 131L401 221L437 361C444 389 444 391 444 395C444 412 432 422 415 422C391 422 376 400 373 378C355 415 326 442 281 442C164 442 40 295 40 149C40 55 95 -11 173 -11C193 -11 243 -7 303 64C311 22 346 -11 394 -11C429 -11 452 12 468 44C485 80 498 143 498 143ZM361 332C361 326 359 320 358 315L308 119C303 101 303 99 288 82C244 27 203 11 175 11C125 11 111 66 111 105C111 155 143 278 166 324C197 383 242 420 282 420C347 420 361 338 361 332ZM1027 143C1027 153 1018 153 1015 153C1005 153 1004 149 1001 135C984 70 966 11 925 11C898 11 895 37 895 57C895 79 897 87 908 131L930 221L966 361C973 389 973 391 973 395C973 412 961 422 944 422C920 422 905 400 902 378C884 415 855 442 810 442C693 442 569 295 569 149C569 55 624 -11 702 -11C722 -11 772 -7 832 64C840 22 875 -11 923 -11C958 -11 981 12 997 44C1014 80 1027 143 1027 143ZM890 332C890 326 888 320 887 315L837 119C832 101 832 99 817 82C773 27 732 11 704 11C654 11 640 66 640 105C640 155 672 278 695 324C726 383 771 420 811 420C876 420 890 338 890 332Z" stroke="rgb(0,0,0)" stroke-opacity="1" stroke-width="8" fill="rgb(0,0,0)" fill-opacity="1"></path></g></g><g><g transform="matrix(1,0,0,1,90.64444986979167,45.199991861979164)"><path transform="matrix(0.017,0,0,-0.017,0,0)" d="M203 1C203 67 178 106 139 106C106 106 86 81 86 53C86 26 106 0 139 0C151 0 164 4 174 13C177 15 179 16 179 16C179 16 181 15 181 1C181 -73 146 -133 113 -166C102 -177 102 -179 102 -182C102 -189 107 -193 112 -193C123 -193 203 -116 203 1Z" stroke="rgb(0,0,0)" stroke-opacity="1" stroke-width="8" fill="rgb(0,0,0)" fill-opacity="1"></path></g></g><g><g transform="matrix(1,0,0,1,98.78889973958333,45.199991861979164)"><path transform="matrix(0.017,0,0,-0.017,0,0)" d="M498 143C498 153 489 153 486 153C476 153 475 149 472 135C455 70 437 11 396 11C369 11 366 37 366 57C366 79 368 87 379 131L401 221L437 361C444 389 444 391 444 395C444 412 432 422 415 422C391 422 376 400 373 378C355 415 326 442 281 442C164 442 40 295 40 149C40 55 95 -11 173 -11C193 -11 243 -7 303 64C311 22 346 -11 394 -11C429 -11 452 12 468 44C485 80 498 143 498 143ZM361 332C361 326 359 320 358 315L308 119C303 101 303 99 288 82C244 27 203 11 175 11C125 11 111 66 111 105C111 155 143 278 166 324C197 383 242 420 282 420C347 420 361 338 361 332ZM1027 143C1027 153 1018 153 1015 153C1005 153 1004 149 1001 135C984 70 966 11 925 11C898 11 895 37 895 57C895 79 897 87 908 131L930 221L966 361C973 389 973 391 973 395C973 412 961 422 944 422C920 422 905 400 902 378C884 415 855 442 810 442C693 442 569 295 569 149C569 55 624 -11 702 -11C722 -11 772 -7 832 64C840 22 875 -11 923 -11C958 -11 981 12 997 44C1014 80 1027 143 1027 143ZM890 332C890 326 888 320 887 315L837 119C832 101 832 99 817 82C773 27 732 11 704 11C654 11 640 66 640 105C640 155 672 278 695 324C726 383 771 420 811 420C876 420 890 338 890 332ZM1556 143C1556 153 1547 153 1544 153C1534 153 1533 149 1530 135C1513 70 1495 11 1454 11C1427 11 1424 37 1424 57C1424 79 1426 87 1437 131L1459 221L1495 361C1502 389 1502 391 1502 395C1502 412 1490 422 1473 422C1449 422 1434 400 1431 378C1413 415 1384 442 1339 442C1222 442 1098 295 1098 149C1098 55 1153 -11 1231 -11C1251 -11 1301 -7 1361 64C1369 22 1404 -11 1452 -11C1487 -11 1510 12 1526 44C1543 80 1556 143 1556 143ZM1419 332C1419 326 1417 320 1416 315L1366 119C1361 101 1361 99 1346 82C1302 27 1261 11 1233 11C1183 11 1169 66 1169 105C1169 155 1201 278 1224 324C1255 383 1300 420 1340 420C1405 420 1419 338 1419 332Z" stroke="rgb(0,0,0)" stroke-opacity="1" stroke-width="8" fill="rgb(0,0,0)" fill-opacity="1"></path></g></g><g><g transform="matrix(1,0,0,1,126.63334147135416,45.5)"><path transform="matrix(0.017,0,0,-0.017,0,0)" d="M425 250C425 257 420 262 413 262C338 262 283 317 283 375L283 625C283 698 192 750 87 750C80 750 75 745 75 738C75 731 80 726 87 726C162 726 217 677 217 625L217 375C217 317 265 271 332 250C265 229 217 183 217 125L217 -125C217 -177 162 -226 87 -226C80 -226 75 -231 75 -238C75 -245 80 -250 87 -250C192 -250 283 -198 283 -125L283 125C283 183 338 238 413 238C420 238 425 243 425 250Z" stroke="rgb(0,0,0)" stroke-opacity="1" stroke-width="8" fill="rgb(0,0,0)" fill-opacity="1"></path></g></g></g></g><g><g><g><g transform="matrix(1,0,0,1,213.66666666666666,45.5)"><path transform="matrix(0.017,0,0,-0.017,0,0)" d="M425 -238C425 -231 420 -226 413 -226C338 -226 283 -177 283 -125L283 125C283 183 235 229 168 250C235 271 283 317 283 375L283 625C283 677 338 726 413 726C420 726 425 731 425 738C425 745 420 750 413 750C308 750 217 698 217 625L217 375C217 317 162 262 87 262C80 262 75 257 75 250C75 243 80 238 87 238C162 238 217 183 217 125L217 -125C217 -198 308 -250 413 -250C420 -250 425 -245 425 -238Z" stroke="rgb(0,0,0)" stroke-opacity="1" stroke-width="8" fill="rgb(0,0,0)" fill-opacity="1"></path></g></g><g><g transform="matrix(1,0,0,1,223.022216796875,45.199991861979164)"><path transform="matrix(0.017,0,0,-0.017,0,0)" d="M429 396C429 415 368 453 300 453C185 453 77 386 77 310C77 267 113 242 117 239C58 206 26 150 26 104C26 39 83 -22 189 -22C321 -22 377 66 377 81C377 87 372 91 366 91C361 91 358 87 356 84C342 61 318 24 198 24C137 24 52 39 52 110C52 144 80 197 141 227C174 213 203 213 227 213C253 213 308 213 308 244C308 268 273 271 235 271C214 271 179 269 142 252C119 264 102 283 102 310C102 371 200 407 290 407C306 407 342 407 382 379C393 371 395 369 402 369C415 369 429 382 429 396ZM282 243C267 236 265 235 227 235C205 235 193 235 174 240C197 248 218 249 235 249C260 249 264 248 282 243Z" stroke="rgb(0,0,0)" stroke-opacity="1" stroke-width="8" fill="rgb(0,0,0)" fill-opacity="1"></path></g></g><g><g transform="matrix(1,0,0,1,230.933349609375,45.199991861979164)"><path transform="matrix(0.017,0,0,-0.017,0,0)" d="M203 1C203 67 178 106 139 106C106 106 86 81 86 53C86 26 106 0 139 0C151 0 164 4 174 13C177 15 179 16 179 16C179 16 181 15 181 1C181 -73 146 -133 113 -166C102 -177 102 -179 102 -182C102 -189 107 -193 112 -193C123 -193 203 -116 203 1Z" stroke="rgb(0,0,0)" stroke-opacity="1" stroke-width="8" fill="rgb(0,0,0)" fill-opacity="1"></path></g></g><g><g transform="matrix(1,0,0,1,239.066650390625,45.199991861979164)"><path transform="matrix(0.017,0,0,-0.017,0,0)" d="M498 143C498 153 489 153 486 153C476 153 475 149 472 135C455 70 437 11 396 11C369 11 366 37 366 57C366 79 368 87 379 131L401 221L437 361C444 389 444 391 444 395C444 412 432 422 415 422C391 422 376 400 373 378C355 415 326 442 281 442C164 442 40 295 40 149C40 55 95 -11 173 -11C193 -11 243 -7 303 64C311 22 346 -11 394 -11C429 -11 452 12 468 44C485 80 498 143 498 143ZM361 332C361 326 359 320 358 315L308 119C303 101 303 99 288 82C244 27 203 11 175 11C125 11 111 66 111 105C111 155 143 278 166 324C197 383 242 420 282 420C347 420 361 338 361 332Z" stroke="rgb(0,0,0)" stroke-opacity="1" stroke-width="8" fill="rgb(0,0,0)" fill-opacity="1"></path></g></g><g><g transform="matrix(1,0,0,1,248.066650390625,45.199991861979164)"><path transform="matrix(0.017,0,0,-0.017,0,0)" d="M203 1C203 67 178 106 139 106C106 106 86 81 86 53C86 26 106 0 139 0C151 0 164 4 174 13C177 15 179 16 179 16C179 16 181 15 181 1C181 -73 146 -133 113 -166C102 -177 102 -179 102 -182C102 -189 107 -193 112 -193C123 -193 203 -116 203 1Z" stroke="rgb(0,0,0)" stroke-opacity="1" stroke-width="8" fill="rgb(0,0,0)" fill-opacity="1"></path></g></g><g><g transform="matrix(1,0,0,1,256.1999918619792,45.199991861979164)"><path transform="matrix(0.017,0,0,-0.017,0,0)" d="M498 143C498 153 489 153 486 153C476 153 475 149 472 135C455 70 437 11 396 11C369 11 366 37 366 57C366 79 368 87 379 131L401 221L437 361C444 389 444 391 444 395C444 412 432 422 415 422C391 422 376 400 373 378C355 415 326 442 281 442C164 442 40 295 40 149C40 55 95 -11 173 -11C193 -11 243 -7 303 64C311 22 346 -11 394 -11C429 -11 452 12 468 44C485 80 498 143 498 143ZM361 332C361 326 359 320 358 315L308 119C303 101 303 99 288 82C244 27 203 11 175 11C125 11 111 66 111 105C111 155 143 278 166 324C197 383 242 420 282 420C347 420 361 338 361 332ZM1027 143C1027 153 1018 153 1015 153C1005 153 1004 149 1001 135C984 70 966 11 925 11C898 11 895 37 895 57C895 79 897 87 908 131L930 221L966 361C973 389 973 391 973 395C973 412 961 422 944 422C920 422 905 400 902 378C884 415 855 442 810 442C693 442 569 295 569 149C569 55 624 -11 702 -11C722 -11 772 -7 832 64C840 22 875 -11 923 -11C958 -11 981 12 997 44C1014 80 1027 143 1027 143ZM890 332C890 326 888 320 887 315L837 119C832 101 832 99 817 82C773 27 732 11 704 11C654 11 640 66 640 105C640 155 672 278 695 324C726 383 771 420 811 420C876 420 890 338 890 332Z" stroke="rgb(0,0,0)" stroke-opacity="1" stroke-width="8" fill="rgb(0,0,0)" fill-opacity="1"></path></g></g><g><g transform="matrix(1,0,0,1,275.04443359375,45.5)"><path transform="matrix(0.017,0,0,-0.017,0,0)" d="M425 250C425 257 420 262 413 262C338 262 283 317 283 375L283 625C283 698 192 750 87 750C80 750 75 745 75 738C75 731 80 726 87 726C162 726 217 677 217 625L217 375C217 317 265 271 332 250C265 229 217 183 217 125L217 -125C217 -177 162 -226 87 -226C80 -226 75 -231 75 -238C75 -245 80 -250 87 -250C192 -250 283 -198 283 -125L283 125C283 183 338 238 413 238C420 238 425 243 425 250Z" stroke="rgb(0,0,0)" stroke-opacity="1" stroke-width="8" fill="rgb(0,0,0)" fill-opacity="1"></path></g></g></g></g><g><g><g><g transform="matrix(1,0,0,1,367.1666666666667,45)"><path transform="matrix(0.017,0,0,-0.017,0,0)" d="M425 -238C425 -231 420 -226 413 -226C338 -226 283 -177 283 -125L283 125C283 183 235 229 168 250C235 271 283 317 283 375L283 625C283 677 338 726 413 726C420 726 425 731 425 738C425 745 420 750 413 750C308 750 217 698 217 625L217 375C217 317 162 262 87 262C80 262 75 257 75 250C75 243 80 238 87 238C162 238 217 183 217 125L217 -125C217 -198 308 -250 413 -250C420 -250 425 -245 425 -238Z" stroke="rgb(0,0,0)" stroke-opacity="1" stroke-width="8" fill="rgb(0,0,0)" fill-opacity="1"></path></g></g><g><g transform="matrix(1,0,0,1,376.522216796875,44.699991861979164)"><path transform="matrix(0.017,0,0,-0.017,0,0)" d="M429 396C429 415 368 453 300 453C185 453 77 386 77 310C77 267 113 242 117 239C58 206 26 150 26 104C26 39 83 -22 189 -22C321 -22 377 66 377 81C377 87 372 91 366 91C361 91 358 87 356 84C342 61 318 24 198 24C137 24 52 39 52 110C52 144 80 197 141 227C174 213 203 213 227 213C253 213 308 213 308 244C308 268 273 271 235 271C214 271 179 269 142 252C119 264 102 283 102 310C102 371 200 407 290 407C306 407 342 407 382 379C393 371 395 369 402 369C415 369 429 382 429 396ZM282 243C267 236 265 235 227 235C205 235 193 235 174 240C197 248 218 249 235 249C260 249 264 248 282 243Z" stroke="rgb(0,0,0)" stroke-opacity="1" stroke-width="8" fill="rgb(0,0,0)" fill-opacity="1"></path></g></g><g><g transform="matrix(1,0,0,1,384.433349609375,44.699991861979164)"><path transform="matrix(0.017,0,0,-0.017,0,0)" d="M203 1C203 67 178 106 139 106C106 106 86 81 86 53C86 26 106 0 139 0C151 0 164 4 174 13C177 15 179 16 179 16C179 16 181 15 181 1C181 -73 146 -133 113 -166C102 -177 102 -179 102 -182C102 -189 107 -193 112 -193C123 -193 203 -116 203 1Z" stroke="rgb(0,0,0)" stroke-opacity="1" stroke-width="8" fill="rgb(0,0,0)" fill-opacity="1"></path></g></g><g><g transform="matrix(1,0,0,1,392.566650390625,44.699991861979164)"><path transform="matrix(0.017,0,0,-0.017,0,0)" d="M498 143C498 153 489 153 486 153C476 153 475 149 472 135C455 70 437 11 396 11C369 11 366 37 366 57C366 79 368 87 379 131L401 221L437 361C444 389 444 391 444 395C444 412 432 422 415 422C391 422 376 400 373 378C355 415 326 442 281 442C164 442 40 295 40 149C40 55 95 -11 173 -11C193 -11 243 -7 303 64C311 22 346 -11 394 -11C429 -11 452 12 468 44C485 80 498 143 498 143ZM361 332C361 326 359 320 358 315L308 119C303 101 303 99 288 82C244 27 203 11 175 11C125 11 111 66 111 105C111 155 143 278 166 324C197 383 242 420 282 420C347 420 361 338 361 332Z" stroke="rgb(0,0,0)" stroke-opacity="1" stroke-width="8" fill="rgb(0,0,0)" fill-opacity="1"></path></g></g><g><g transform="matrix(1,0,0,1,402.4222005208333,45)"><path transform="matrix(0.017,0,0,-0.017,0,0)" d="M425 250C425 257 420 262 413 262C338 262 283 317 283 375L283 625C283 698 192 750 87 750C80 750 75 745 75 738C75 731 80 726 87 726C162 726 217 677 217 625L217 375C217 317 265 271 332 250C265 229 217 183 217 125L217 -125C217 -177 162 -226 87 -226C80 -226 75 -231 75 -238C75 -245 80 -250 87 -250C192 -250 283 -198 283 -125L283 125C283 183 338 238 413 238C420 238 425 243 425 250Z" stroke="rgb(0,0,0)" stroke-opacity="1" stroke-width="8" fill="rgb(0,0,0)" fill-opacity="1"></path></g></g></g></g><g><g><g><g transform="matrix(1,0,0,1,487.86669921875,45.400004069010414)"><path transform="matrix(0.017,0,0,-0.017,0,0)" d="M425 -238C425 -231 420 -226 413 -226C338 -226 283 -177 283 -125L283 125C283 183 235 229 168 250C235 271 283 317 283 375L283 625C283 677 338 726 413 726C420 726 425 731 425 738C425 745 420 750 413 750C308 750 217 698 217 625L217 375C217 317 162 262 87 262C80 262 75 257 75 250C75 243 80 238 87 238C162 238 217 183 217 125L217 -125C217 -198 308 -250 413 -250C420 -250 425 -245 425 -238Z" stroke="rgb(0,0,0)" stroke-opacity="1" stroke-width="8" fill="rgb(0,0,0)" fill-opacity="1"></path></g></g><g><g transform="matrix(1,0,0,1,497.22224934895837,45.099995930989586)"><path transform="matrix(0.017,0,0,-0.017,0,0)" d="M429 396C429 415 368 453 300 453C185 453 77 386 77 310C77 267 113 242 117 239C58 206 26 150 26 104C26 39 83 -22 189 -22C321 -22 377 66 377 81C377 87 372 91 366 91C361 91 358 87 356 84C342 61 318 24 198 24C137 24 52 39 52 110C52 144 80 197 141 227C174 213 203 213 227 213C253 213 308 213 308 244C308 268 273 271 235 271C214 271 179 269 142 252C119 264 102 283 102 310C102 371 200 407 290 407C306 407 342 407 382 379C393 371 395 369 402 369C415 369 429 382 429 396ZM282 243C267 236 265 235 227 235C205 235 193 235 174 240C197 248 218 249 235 249C260 249 264 248 282 243Z" stroke="rgb(0,0,0)" stroke-opacity="1" stroke-width="8" fill="rgb(0,0,0)" fill-opacity="1"></path></g></g><g><g transform="matrix(1,0,0,1,505.98893229166663,45.400004069010414)"><path transform="matrix(0.017,0,0,-0.017,0,0)" d="M425 250C425 257 420 262 413 262C338 262 283 317 283 375L283 625C283 698 192 750 87 750C80 750 75 745 75 738C75 731 80 726 87 726C162 726 217 677 217 625L217 375C217 317 265 271 332 250C265 229 217 183 217 125L217 -125C217 -177 162 -226 87 -226C80 -226 75 -231 75 -238C75 -245 80 -250 87 -250C192 -250 283 -198 283 -125L283 125C283 183 338 238 413 238C420 238 425 243 425 250Z" stroke="rgb(0,0,0)" stroke-opacity="1" stroke-width="8" fill="rgb(0,0,0)" fill-opacity="1"></path></g></g></g></g><g><g><g><g transform="matrix(1,0,0,1,584.066650390625,45.900004069010414)"><path transform="matrix(0.017,0,0,-0.017,0,0)" d="M425 -238C425 -231 420 -226 413 -226C338 -226 283 -177 283 -125L283 125C283 183 235 229 168 250C235 271 283 317 283 375L283 625C283 677 338 726 413 726C420 726 425 731 425 738C425 745 420 750 413 750C308 750 217 698 217 625L217 375C217 317 162 262 87 262C80 262 75 257 75 250C75 243 80 238 87 238C162 238 217 183 217 125L217 -125C217 -198 308 -250 413 -250C420 -250 425 -245 425 -238Z" stroke="rgb(0,0,0)" stroke-opacity="1" stroke-width="8" fill="rgb(0,0,0)" fill-opacity="1"></path></g></g><g><g transform="matrix(1,0,0,1,594.2666829427084,45.900004069010414)"><path transform="matrix(0.017,0,0,-0.017,0,0)" d="M425 250C425 257 420 262 413 262C338 262 283 317 283 375L283 625C283 698 192 750 87 750C80 750 75 745 75 738C75 731 80 726 87 726C162 726 217 677 217 625L217 375C217 317 265 271 332 250C265 229 217 183 217 125L217 -125C217 -177 162 -226 87 -226C80 -226 75 -231 75 -238C75 -245 80 -250 87 -250C192 -250 283 -198 283 -125L283 125C283 183 338 238 413 238C420 238 425 243 425 250Z" stroke="rgb(0,0,0)" stroke-opacity="1" stroke-width="8" fill="rgb(0,0,0)" fill-opacity="1"></path></g></g></g></g><g><g><g><g transform="matrix(1,0,0,1,311.6666666666667,24.97888956705729)"><path transform="matrix(0.03519,0,0,-0.03519,0,0)" d="M498 143C498 153 489 153 486 153C476 153 475 149 472 135C455 70 437 11 396 11C369 11 366 37 366 57C366 79 368 87 379 131L401 221L437 361C444 389 444 391 444 395C444 412 432 422 415 422C391 422 376 400 373 378C355 415 326 442 281 442C164 442 40 295 40 149C40 55 95 -11 173 -11C193 -11 243 -7 303 64C311 22 346 -11 394 -11C429 -11 452 12 468 44C485 80 498 143 498 143ZM361 332C361 326 359 320 358 315L308 119C303 101 303 99 288 82C244 27 203 11 175 11C125 11 111 66 111 105C111 155 143 278 166 324C197 383 242 420 282 420C347 420 361 338 361 332Z" stroke="rgb(0,0,0)" stroke-opacity="1" stroke-width="8" fill="rgb(0,0,0)" fill-opacity="1"></path></g></g></g></g><g><g><g><g transform="matrix(1,0,0,1,433.6666666666667,23.645556233723955)"><path transform="matrix(0.03519,0,0,-0.03519,0,0)" d="M498 143C498 153 489 153 486 153C476 153 475 149 472 135C455 70 437 11 396 11C369 11 366 37 366 57C366 79 368 87 379 131L401 221L437 361C444 389 444 391 444 395C444 412 432 422 415 422C391 422 376 400 373 378C355 415 326 442 281 442C164 442 40 295 40 149C40 55 95 -11 173 -11C193 -11 243 -7 303 64C311 22 346 -11 394 -11C429 -11 452 12 468 44C485 80 498 143 498 143ZM361 332C361 326 359 320 358 315L308 119C303 101 303 99 288 82C244 27 203 11 175 11C125 11 111 66 111 105C111 155 143 278 166 324C197 383 242 420 282 420C347 420 361 338 361 332Z" stroke="rgb(0,0,0)" stroke-opacity="1" stroke-width="8" fill="rgb(0,0,0)" fill-opacity="1"></path></g></g></g></g><g><g><g><g transform="matrix(1,0,0,1,537,22.312222900390623)"><path transform="matrix(0.03519,0,0,-0.03519,0,0)" d="M498 143C498 153 489 153 486 153C476 153 475 149 472 135C455 70 437 11 396 11C369 11 366 37 366 57C366 79 368 87 379 131L401 221L437 361C444 389 444 391 444 395C444 412 432 422 415 422C391 422 376 400 373 378C355 415 326 442 281 442C164 442 40 295 40 149C40 55 95 -11 173 -11C193 -11 243 -7 303 64C311 22 346 -11 394 -11C429 -11 452 12 468 44C485 80 498 143 498 143ZM361 332C361 326 359 320 358 315L308 119C303 101 303 99 288 82C244 27 203 11 175 11C125 11 111 66 111 105C111 155 143 278 166 324C197 383 242 420 282 420C347 420 361 338 361 332Z" stroke="rgb(0,0,0)" stroke-opacity="1" stroke-width="8" fill="rgb(0,0,0)" fill-opacity="1"></path></g></g></g></g><g><g><g><g transform="matrix(1,0,0,1,658.3333333333334,48.978889567057294)"><path transform="matrix(0.03519,0,0,-0.03519,0,0)" d="M498 143C498 153 489 153 486 153C476 153 475 149 472 135C455 70 437 11 396 11C369 11 366 37 366 57C366 79 368 87 379 131L401 221L437 361C444 389 444 391 444 395C444 412 432 422 415 422C391 422 376 400 373 378C355 415 326 442 281 442C164 442 40 295 40 149C40 55 95 -11 173 -11C193 -11 243 -7 303 64C311 22 346 -11 394 -11C429 -11 452 12 468 44C485 80 498 143 498 143ZM361 332C361 326 359 320 358 315L308 119C303 101 303 99 288 82C244 27 203 11 175 11C125 11 111 66 111 105C111 155 143 278 166 324C197 383 242 420 282 420C347 420 361 338 361 332Z" stroke="rgb(0,0,0)" stroke-opacity="1" stroke-width="8" fill="rgb(0,0,0)" fill-opacity="1"></path></g></g></g></g></svg>
</svg>
