<?xml version="1.0" encoding="UTF-8" standalone="no"?>
<svg
   x="0"
   y="0"
   width="151.39536"
   height="149.41814"
   style="fill:none"
   version="1.1"
   id="svg97"
   xmlns="http://www.w3.org/2000/svg"
   xmlns:svg="http://www.w3.org/2000/svg">
  <defs
     id="defs97" />
  <path
     class="connection real"
     stroke-dasharray="none"
     d="m 120.89236,57.472667 c -4.08,-47.08 33.52,-54.61 13.7,-15.56"
     style="fill:none;fill-opacity:1;stroke:#000000;stroke-width:1px"
     id="path1" />
  <path
     d="m 136.13818,31.905607 q -0.25943,6.606 -2.16582,11.20706 2.70332,-4.18284 7.99225,-8.14941"
     id="path2"
     style="fill:none;stroke:#000000;stroke-width:1px" />
  <path
     class="connection real"
     stroke-dasharray="none"
     d="m 120.89236,57.472667 c 6.12,19.54 8.56,32.2 6.45,57.660003"
     style="fill:none;fill-opacity:1;stroke:#000000;stroke-width:1px"
     id="path3" />
  <path
     d="m 124.8709,105.93267 q 2.29589,6.19963 2.30146,11.18 0.89084,-4.90005 4.25229,-10.59279"
     id="path4"
     style="fill:none;stroke:#000000;stroke-width:1px" />
  <path
     class="connection real"
     stroke-dasharray="none"
     d="m 39.972358,48.612667 c 18.72,-10.92 40.48,-7.39 61.950002,0.58"
     style="fill:none;fill-opacity:1;stroke:#000000;stroke-width:1px"
     id="path5" />
  <path
     d="m 92.187841,48.987057 q 6.59033,-0.52342 11.384519,0.82561 -4.473119,-2.18981 -9.037189,-6.97268"
     id="path6"
     style="fill:none;stroke:#000000;stroke-width:1px" />
  <path
     class="real"
     d="m 102.75236,57.472667 c 0,-10.01 8.12,-18.14 18.14,-18.14 10.02,0 18.14,8.13 18.14,18.14 0,10.02 -8.12,18.14 -18.14,18.14 -10.02,0 -18.14,-8.12 -18.14,-18.14 z"
     style="fill:#ffffff;fill-opacity:1;stroke:#000000;stroke-width:1px"
     id="path7" />
  <path
     class="connection real"
     stroke-dasharray="none"
     d="m 39.972358,48.612667 c -13.07,-53.36 -58.68,-26.84 -17.28,-9.23"
     style="fill:none;fill-opacity:1;stroke:#000000;stroke-width:1px"
     id="path9" />
  <path
     d="m 12.60542,38.872617 q 6.599031,-0.3991 11.366939,1.04005 -4.431053,-2.27374 -8.904157,-7.14178"
     id="path10"
     style="fill:none;stroke:#000000;stroke-width:1px" />
  <path
     class="connection real"
     stroke-dasharray="none"
     d="m 123.57236,134.71267 c -29.399999,10.98 -45.350002,9.66 -71.580002,0.57"
     style="fill:none;fill-opacity:1;stroke:#000000;stroke-width:1px"
     id="path11" />
  <path
     d="m 61.774222,135.24795 q -6.574861,0.69116 -11.401863,-0.53528 4.527464,2.07513 9.21191,6.74016"
     id="path12"
     style="fill:none;stroke:#000000;stroke-width:1px" />
  <path
     class="connection real"
     stroke-dasharray="none"
     d="m 35.172358,128.71267 c 5.46,-34.710003 0.27,-39.760003 1.86,-62.610003"
     style="fill:none;fill-opacity:1;stroke:#000000;stroke-width:1px"
     id="path13" />
  <path
     d="m 39.557656,75.475077 q -2.342356,-6.18222 -2.385297,-11.16241 -0.854046,4.9066 -4.172671,10.6244"
     id="path14"
     style="fill:none;stroke:#000000;stroke-width:1px" />
  <path
     class="connection real"
     stroke-dasharray="none"
     d="m 34.772358,133.81267 c -13.07,-53.360003 -58.68,-26.84 -17.28,-9.23"
     style="fill:none;fill-opacity:1;stroke:#000000;stroke-width:1px"
     id="path15" />
  <path
     d="m 7.4054188,124.07262 q 6.5990322,-0.3991 11.3669392,1.04005 -4.431053,-2.27374 -8.9041572,-7.14178"
     id="path16"
     style="fill:none;stroke:#000000;stroke-width:1px" />
  <path
     class="connection real"
     stroke-dasharray="none"
     d="m 124.77236,134.31267 c -13.07,-53.360003 -58.680002,-26.84 -17.28,-9.23"
     style="fill:none;fill-opacity:1;stroke:#000000;stroke-width:1px"
     id="path17" />
  <path
     d="m 97.405421,124.57262 q 6.599029,-0.3991 11.366939,1.04005 -4.43105,-2.27373 -8.904159,-7.14178"
     id="path18"
     style="fill:none;stroke:#000000;stroke-width:1px" />
  <circle
     cx="38.897362"
     cy="48.204315"
     r="15.913831"
     style="fill:#ffffff;fill-opacity:1;stroke:#000000;stroke-width:1px"
     id="circle22" />
  <circle
     cx="120.89735"
     cy="57.40432"
     r="15.913831"
     style="fill:#ffffff;fill-opacity:1;stroke:#000000;stroke-width:1px"
     id="circle23" />
  <circle
     cx="122.89735"
     cy="133.0043"
     r="15.913831"
     style="fill:#ffffff;fill-opacity:1;stroke:#000000;stroke-width:1px"
     id="circle24" />
  <circle
     cx="35.697357"
     cy="127.91266"
     r="15.913831"
     style="fill:#ffffff;fill-opacity:1;stroke:#000000;stroke-width:1px"
     id="circle25" />
  <path
     d="m 39.264683,47.560667 c 0,-0.884 -1.003,-1.122 -1.581,-1.122 -0.986,0 -1.581,0.901 -1.785,1.292 -0.425,-1.122 -1.343,-1.292 -1.836,-1.292 -1.768,0 -2.737,2.193 -2.737,2.618 0,0.17 0.204,0.17 0.204,0.17 0.136,0 0.187,-0.034 0.221,-0.187 0.578,-1.802 1.7,-2.227 2.278,-2.227 0.323,0 0.918,0.153 0.918,1.139 0,0.527 -0.289,1.666 -0.918,4.046 -0.272,1.054 -0.867,1.768 -1.615,1.768 -0.102,0 -0.493,0 -0.85,-0.221 0.425,-0.085 0.799,-0.442 0.799,-0.918 0,-0.459 -0.374,-0.595 -0.629,-0.595 -0.51,0 -0.935,0.442 -0.935,0.986 0,0.782 0.85,1.122 1.598,1.122 1.122,0 1.734,-1.19 1.785,-1.292 0.204,0.629 0.816,1.292 1.836,1.292 1.751,0 2.72,-2.193 2.72,-2.618 0,-0.17 -0.153,-0.17 -0.204,-0.17 -0.153,0 -0.187,0.068 -0.221,0.187 -0.561,1.819 -1.717,2.227 -2.261,2.227 -0.663,0 -0.935,-0.544 -0.935,-1.122 0,-0.374 0.102,-0.748 0.289,-1.496 l 0.578,-2.329 c 0.102,-0.442 0.493,-2.006 1.683,-2.006 0.085,0 0.493,0 0.85,0.221 -0.476,0.085 -0.816,0.51 -0.816,0.918 0,0.272 0.187,0.595 0.646,0.595 0.374,0 0.918,-0.306 0.918,-0.986 z"
     stroke="#000000"
     stroke-opacity="1"
     stroke-width="0.136"
     fill="#000000"
     fill-opacity="1"
     id="path28"
     style="font-family:LatinModern-Math, LatinModern, Asana-Math, Asana" />
  <path
     d="m 46.013033,53.197997 c 0,-0.952 -0.0595,-1.904 -0.476,-2.7846 -0.5474,-1.1424 -1.5232,-1.3328 -2.023,-1.3328 -0.714,0 -1.5827,0.3094 -2.0706,1.4161 -0.3808,0.8211 -0.4403,1.7493 -0.4403,2.7013 0,0.8925 0.0476,1.9635 0.5355,2.8679 0.5117,0.9639 1.3804,1.2019 1.9635,1.2019 0.6426,0 1.547,-0.2499 2.0706,-1.3804 0.3808,-0.8211 0.4403,-1.7493 0.4403,-2.6894 z m -0.9877,-0.1428 c 0,0.8925 0,1.7017 -0.1309,2.4633 -0.1785,1.1305 -0.8568,1.4875 -1.3923,1.4875 -0.4641,0 -1.1662,-0.2975 -1.3804,-1.4399 -0.1309,-0.714 -0.1309,-1.8088 -0.1309,-2.5109 0,-0.7616 0,-1.547 0.0952,-2.1896 0.2261,-1.4161 1.1186,-1.5232 1.4161,-1.5232 0.3927,0 1.1781,0.2142 1.4042,1.3923 0.119,0.6664 0.119,1.5708 0.119,2.3205 z"
     stroke="#000000"
     stroke-opacity="1"
     stroke-width="0.0952"
     fill="#000000"
     fill-opacity="1"
     id="path30"
     style="font-family:LatinModern-Math, LatinModern, Asana-Math, Asana" />
  <path
     d="m 81.138358,33.834997 c 0,-0.17 -0.153,-0.17 -0.204,-0.17 -0.17,0 -0.187,0.068 -0.238,0.306 -0.289,1.105 -0.595,2.108 -1.292,2.108 -0.459,0 -0.51,-0.442 -0.51,-0.782 0,-0.374 0.034,-0.51 0.221,-1.258 l 0.374,-1.53 0.612,-2.38 c 0.119,-0.476 0.119,-0.51 0.119,-0.578 0,-0.289 -0.204,-0.459 -0.493,-0.459 -0.408,0 -0.663,0.374 -0.714,0.748 -0.306,-0.629 -0.799,-1.088 -1.564,-1.088 -1.989,0 -4.097,2.499 -4.097,4.981 0,1.598 0.935,2.72 2.261,2.72 0.34,0 1.19,-0.068 2.21,-1.275 0.136,0.714 0.731,1.275 1.547,1.275 0.595,0 0.986,-0.391 1.258,-0.935 0.289,-0.612 0.51,-1.683 0.51,-1.683 z m -2.329,-3.213 c 0,0.102 -0.034,0.204 -0.051,0.289 l -0.85,3.332 c -0.085,0.306 -0.085,0.34 -0.34,0.629 -0.748,0.935 -1.445,1.207 -1.921,1.207 -0.85,0 -1.088,-0.935 -1.088,-1.598 0,-0.85 0.544,-2.941 0.935,-3.723 0.527,-1.003 1.292,-1.632 1.972,-1.632 1.105,0 1.343,1.394 1.343,1.496 z"
     stroke="#000000"
     stroke-opacity="1"
     stroke-width="0.136"
     fill="#000000"
     fill-opacity="1"
     id="path37"
     style="font-family:LatinModern-Math, LatinModern, Asana-Math, Asana" />
  <path
     d="m 121.26469,56.760667 c 0,-0.884 -1.003,-1.122 -1.581,-1.122 -0.986,0 -1.581,0.901 -1.785,1.292 -0.425,-1.122 -1.343,-1.292 -1.836,-1.292 -1.768,0 -2.737,2.193 -2.737,2.618 0,0.17 0.204,0.17 0.204,0.17 0.136,0 0.187,-0.034 0.221,-0.187 0.578,-1.802 1.7,-2.227 2.278,-2.227 0.323,0 0.918,0.153 0.918,1.139 0,0.527 -0.289,1.666 -0.918,4.046 -0.272,1.054 -0.867,1.768 -1.615,1.768 -0.102,0 -0.493,0 -0.85,-0.221 0.425,-0.085 0.799,-0.442 0.799,-0.918 0,-0.459 -0.374,-0.595 -0.629,-0.595 -0.51,0 -0.935,0.442 -0.935,0.986 0,0.782 0.85,1.122 1.598,1.122 1.122,0 1.734,-1.19 1.785,-1.292 0.204,0.629 0.816,1.292 1.836,1.292 1.751,0 2.72,-2.193 2.72,-2.618 0,-0.17 -0.153,-0.17 -0.204,-0.17 -0.153,0 -0.187,0.068 -0.221,0.187 -0.561,1.819 -1.717,2.227 -2.261,2.227 -0.663,0 -0.935,-0.544 -0.935,-1.122 0,-0.374 0.102,-0.748 0.289,-1.496 l 0.578,-2.329 c 0.102,-0.442 0.493,-2.006 1.683,-2.006 0.085,0 0.493,0 0.85,0.221 -0.476,0.085 -0.816,0.51 -0.816,0.918 0,0.272 0.187,0.595 0.646,0.595 0.374,0 0.918,-0.306 0.918,-0.986 z"
     stroke="#000000"
     stroke-opacity="1"
     stroke-width="0.136"
     fill="#000000"
     fill-opacity="1"
     id="path41"
     style="font-family:LatinModern-Math, LatinModern, Asana-Math, Asana" />
  <path
     d="m 127.52513,66.205997 v -0.3689 h -0.3808 c -1.071,0 -1.1067,-0.1309 -1.1067,-0.5712 v -6.6759 c 0,-0.2856 0,-0.3094 -0.2737,-0.3094 -0.7378,0.7616 -1.785,0.7616 -2.1658,0.7616 v 0.3689 c 0.238,0 0.9401,0 1.5589,-0.3094 v 6.1642 c 0,0.4284 -0.0357,0.5712 -1.1067,0.5712 h -0.3808 v 0.3689 c 0.4165,-0.0357 1.4518,-0.0357 1.9278,-0.0357 0.476,0 1.5113,0 1.9278,0.0357 z"
     stroke="#000000"
     stroke-opacity="1"
     stroke-width="0.0952"
     fill="#000000"
     fill-opacity="1"
     id="path43"
     style="font-family:LatinModern-Math, LatinModern, Asana-Math, Asana" />
  <path
     d="m 142.33836,95.034997 c 0,-0.17 -0.153,-0.17 -0.204,-0.17 -0.17,0 -0.187,0.068 -0.238,0.306 -0.289,1.105 -0.595,2.108 -1.292,2.108 -0.459,0 -0.51,-0.442 -0.51,-0.782 0,-0.374 0.034,-0.51 0.221,-1.258 l 0.374,-1.53 0.612,-2.38 c 0.119,-0.476 0.119,-0.51 0.119,-0.578 0,-0.289 -0.204,-0.459 -0.493,-0.459 -0.408,0 -0.663,0.374 -0.714,0.748 -0.306,-0.629 -0.799,-1.088 -1.564,-1.088 -1.989,0 -4.097,2.499 -4.097,4.981 0,1.598 0.935,2.72 2.261,2.72 0.34,0 1.19,-0.068 2.21,-1.275 0.136,0.714 0.731,1.275 1.547,1.275 0.595,0 0.986,-0.391 1.258,-0.935 0.289,-0.612 0.51,-1.683 0.51,-1.683 z m -2.329,-3.213 c 0,0.102 -0.034,0.204 -0.051,0.289 l -0.85,3.332 c -0.085,0.306 -0.085,0.34 -0.34,0.629 -0.748,0.935 -1.445,1.207 -1.921,1.207 -0.85,0 -1.088,-0.935 -1.088,-1.598 0,-0.85 0.544,-2.941 0.935,-3.723 0.527,-1.003 1.292,-1.632 1.972,-1.632 1.105,0 1.343,1.394 1.343,1.496 z"
     stroke="#000000"
     stroke-opacity="1"
     stroke-width="0.136"
     fill="#000000"
     fill-opacity="1"
     id="path50"
     style="font-family:LatinModern-Math, LatinModern, Asana-Math, Asana" />
  <path
     d="m 18.127358,7.0719997 c 0,-1.547 -0.901,-2.72 -2.261,-2.72 -0.782,0 -1.479,0.493 -1.989,1.02 l 1.258,-5.11699971 c 0,0 0,-0.187 -0.221,-0.187 -0.391,0 -1.632,0.136 -2.074,0.17 -0.136,0.017 -0.323,0.034 -0.323,0.34 0,0.204 0.153,0.204 0.408,0.204 0.816,0 0.85,0.119 0.85,0.28900001 0,0.119 -0.153,0.697 -0.238,1.054 l -1.394,5.5419997 c -0.204,0.85 -0.272,1.122 -0.272,1.717 0,1.6150003 0.901,2.6690003 2.159,2.6690003 2.006,0 4.097,-2.5330003 4.097,-4.9810003 z m -1.224,-0.748 c 0,1.003 -0.561,2.958 -0.867,3.604 -0.561,1.1390003 -1.343,1.7510003 -2.006,1.7510003 -0.578,0 -1.139,-0.459 -1.139,-1.7170003 0,-0.323 0,-0.646 0.272,-1.717 l 0.374,-1.564 c 0.102,-0.374 0.102,-0.408 0.255,-0.595 0.833,-1.105 1.598,-1.36 2.04,-1.36 0.612,0 1.071,0.51 1.071,1.598 z"
     stroke="#000000"
     stroke-opacity="1"
     stroke-width="0.136"
     fill="#000000"
     fill-opacity="1"
     id="path54"
     style="font-family:LatinModern-Math, LatinModern, Asana-Math, Asana" />
  <path
     d="m 151.32736,23.872 c 0,-1.547 -0.901,-2.72 -2.261,-2.72 -0.782,0 -1.479,0.493 -1.989,1.02 l 1.258,-5.117 c 0,0 0,-0.187 -0.221,-0.187 -0.391,0 -1.632,0.136 -2.074,0.17 -0.136,0.017 -0.323,0.034 -0.323,0.34 0,0.204 0.153,0.204 0.408,0.204 0.816,0 0.85,0.119 0.85,0.289 0,0.119 -0.153,0.697 -0.238,1.054 l -1.394,5.542 c -0.204,0.85 -0.272,1.122 -0.272,1.717 0,1.615 0.901,2.669 2.159,2.669 2.006,0 4.097,-2.533 4.097,-4.981 z m -1.224,-0.748 c 0,1.003 -0.561,2.958 -0.867,3.604 -0.561,1.139 -1.343,1.751 -2.006,1.751 -0.578,0 -1.139,-0.459 -1.139,-1.717 0,-0.323 0,-0.646 0.272,-1.717 l 0.374,-1.564 c 0.102,-0.374 0.102,-0.408 0.255,-0.595 0.833,-1.105 1.598,-1.36 2.04,-1.36 0.612,0 1.071,0.51 1.071,1.598 z"
     stroke="#000000"
     stroke-opacity="1"
     stroke-width="0.136"
     fill="#000000"
     fill-opacity="1"
     id="path58"
     style="font-family:LatinModern-Math, LatinModern, Asana-Math, Asana" />
  <path
     d="m 123.26469,132.36066 c 0,-0.884 -1.003,-1.122 -1.581,-1.122 -0.986,0 -1.581,0.901 -1.785,1.292 -0.425,-1.122 -1.343,-1.292 -1.836,-1.292 -1.768,0 -2.737,2.193 -2.737,2.618 0,0.17 0.204,0.17 0.204,0.17 0.136,0 0.187,-0.034 0.221,-0.187 0.578,-1.802 1.7,-2.227 2.278,-2.227 0.323,0 0.918,0.153 0.918,1.139 0,0.527 -0.289,1.666 -0.918,4.046 -0.272,1.054 -0.867,1.768 -1.615,1.768 -0.102,0 -0.493,0 -0.85,-0.221 0.425,-0.085 0.799,-0.442 0.799,-0.918 0,-0.459 -0.374,-0.595 -0.629,-0.595 -0.51,0 -0.935,0.442 -0.935,0.986 0,0.782 0.85,1.122 1.598,1.122 1.122,0 1.734,-1.19 1.785,-1.292 0.204,0.629 0.816,1.292 1.836,1.292 1.751,0 2.72,-2.193 2.72,-2.618 0,-0.17 -0.153,-0.17 -0.204,-0.17 -0.153,0 -0.187,0.068 -0.221,0.187 -0.561,1.819 -1.717,2.227 -2.261,2.227 -0.663,0 -0.935,-0.544 -0.935,-1.122 0,-0.374 0.102,-0.748 0.289,-1.496 l 0.578,-2.329 c 0.102,-0.442 0.493,-2.006 1.683,-2.006 0.085,0 0.493,0 0.85,0.221 -0.476,0.085 -0.816,0.51 -0.816,0.918 0,0.272 0.187,0.595 0.646,0.595 0.374,0 0.918,-0.306 0.918,-0.986 z"
     stroke="#000000"
     stroke-opacity="1"
     stroke-width="0.136"
     fill="#000000"
     fill-opacity="1"
     id="path62"
     style="font-family:LatinModern-Math, LatinModern, Asana-Math, Asana" />
  <path
     d="m 129.88213,139.7354 h -0.2975 c -0.0595,0.357 -0.1428,0.8806 -0.2618,1.0591 -0.0833,0.0952 -0.8687,0.0952 -1.1305,0.0952 h -2.142 l 1.2614,-1.2257 c 1.8564,-1.6422 2.5704,-2.2848 2.5704,-3.4748 0,-1.3566 -1.071,-2.3086 -2.5228,-2.3086 -1.3447,0 -2.2253,1.0948 -2.2253,2.1539 0,0.6664 0.595,0.6664 0.6307,0.6664 0.2023,0 0.6188,-0.1428 0.6188,-0.6307 0,-0.3094 -0.2142,-0.6188 -0.6307,-0.6188 -0.0952,0 -0.119,0 -0.1547,0.0119 0.2737,-0.7735 0.9163,-1.2138 1.6065,-1.2138 1.0829,0 1.5946,0.9639 1.5946,1.9397 0,0.952 -0.595,1.8921 -1.2495,2.6299 l -2.2848,2.5466 c -0.1309,0.1309 -0.1309,0.1547 -0.1309,0.4403 h 4.4149 z"
     stroke="#000000"
     stroke-opacity="1"
     stroke-width="0.0952"
     fill="#000000"
     fill-opacity="1"
     id="path64"
     style="font-family:LatinModern-Math, LatinModern, Asana-Math, Asana" />
  <path
     d="m 85.538358,135.14834 c 0,-0.17 -0.153,-0.17 -0.204,-0.17 -0.17,0 -0.187,0.068 -0.238,0.306 -0.289,1.105 -0.595,2.108 -1.292,2.108 -0.459,0 -0.51,-0.442 -0.51,-0.782 0,-0.374 0.034,-0.51 0.221,-1.258 l 0.374,-1.53 0.612,-2.38 c 0.119,-0.476 0.119,-0.51 0.119,-0.578 0,-0.289 -0.204,-0.459 -0.493,-0.459 -0.408,0 -0.663,0.374 -0.714,0.748 -0.306,-0.629 -0.799,-1.088 -1.564,-1.088 -1.989,0 -4.097,2.499 -4.097,4.981 0,1.598 0.935,2.72 2.261,2.72 0.34,0 1.19,-0.068 2.21,-1.275 0.136,0.714 0.731,1.275 1.547,1.275 0.595,0 0.986,-0.391 1.258,-0.935 0.289,-0.612 0.51,-1.683 0.51,-1.683 z m -2.329,-3.213 c 0,0.102 -0.034,0.204 -0.051,0.289 l -0.85,3.332 c -0.085,0.306 -0.085,0.34 -0.34,0.629 -0.748,0.935 -1.445,1.207 -1.921,1.207 -0.85,0 -1.088,-0.935 -1.088,-1.598 0,-0.85 0.544,-2.941 0.935,-3.723 0.527,-1.003 1.292,-1.632 1.972,-1.632 1.105,0 1.343,1.394 1.343,1.496 z"
     stroke="#000000"
     stroke-opacity="1"
     stroke-width="0.136"
     fill="#000000"
     fill-opacity="1"
     id="path71"
     style="font-family:LatinModern-Math, LatinModern, Asana-Math, Asana" />
  <path
     d="m 36.051353,127.28068 c 0,-0.884 -1.003,-1.122 -1.581,-1.122 -0.986,0 -1.581,0.901 -1.785,1.292 -0.425,-1.122 -1.343,-1.292 -1.836,-1.292 -1.768,0 -2.737,2.193 -2.737,2.618 0,0.17 0.204,0.17 0.204,0.17 0.136,0 0.187,-0.034 0.221,-0.187 0.578,-1.802 1.7,-2.227 2.278,-2.227 0.323,0 0.918,0.153 0.918,1.139 0,0.527 -0.289,1.666 -0.918,4.046 -0.272,1.054 -0.867,1.768 -1.615,1.768 -0.102,0 -0.493,0 -0.85,-0.221 0.425,-0.085 0.799,-0.442 0.799,-0.918 0,-0.459 -0.374,-0.595 -0.629,-0.595 -0.51,0 -0.935,0.442 -0.935,0.986 0,0.782 0.85,1.122 1.598,1.122 1.122,0 1.734,-1.19 1.785,-1.292 0.204,0.629 0.816,1.292 1.836,1.292 1.751,0 2.72,-2.193 2.72,-2.618 0,-0.17 -0.153,-0.17 -0.204,-0.17 -0.153,0 -0.187,0.068 -0.221,0.187 -0.561,1.819 -1.717,2.227 -2.261,2.227 -0.663,0 -0.935,-0.544 -0.935,-1.122 0,-0.374 0.102,-0.748 0.289,-1.496 l 0.578,-2.329 c 0.102,-0.442 0.493,-2.006 1.683,-2.006 0.085,0 0.493,0 0.85,0.221 -0.476,0.085 -0.816,0.51 -0.816,0.918 0,0.272 0.187,0.595 0.646,0.595 0.374,0 0.918,-0.306 0.918,-0.986 z"
     stroke="#000000"
     stroke-opacity="1"
     stroke-width="0.136"
     fill="#000000"
     fill-opacity="1"
     id="path75"
     style="font-family:LatinModern-Math, LatinModern, Asana-Math, Asana" />
  <path
     d="m 42.668778,134.64874 h -0.2975 c -0.0595,0.357 -0.1428,0.8806 -0.2618,1.0591 -0.0833,0.0952 -0.8687,0.0952 -1.1305,0.0952 h -2.142 l 1.2614,-1.2257 c 1.8564,-1.6422 2.5704,-2.2848 2.5704,-3.4748 0,-1.3566 -1.071,-2.3086 -2.5228,-2.3086 -1.3447,0 -2.2253,1.0948 -2.2253,2.1539 0,0.6664 0.595,0.6664 0.6307,0.6664 0.2023,0 0.6188,-0.1428 0.6188,-0.6307 0,-0.3094 -0.2142,-0.6188 -0.6307,-0.6188 -0.0952,0 -0.119,0 -0.1547,0.0119 0.2737,-0.7735 0.9163,-1.2138 1.6065,-1.2138 1.0829,0 1.5946,0.9639 1.5946,1.9397 0,0.952 -0.595,1.8921 -1.2495,2.6299 l -2.2848,2.5466 c -0.1309,0.1309 -0.1309,0.1547 -0.1309,0.4403 h 4.4149 z"
     stroke="#000000"
     stroke-opacity="1"
     stroke-width="0.0952"
     fill="#000000"
     fill-opacity="1"
     id="path77"
     style="font-family:LatinModern-Math, LatinModern, Asana-Math, Asana" />
  <path
     d="m 50.738358,92.534997 c 0,-0.17 -0.153,-0.17 -0.204,-0.17 -0.17,0 -0.187,0.068 -0.238,0.306 -0.289,1.105 -0.595,2.108 -1.292,2.108 -0.459,0 -0.51,-0.442 -0.51,-0.782 0,-0.374 0.034,-0.51 0.221,-1.258 l 0.374,-1.53 0.612,-2.38 c 0.119,-0.476 0.119,-0.51 0.119,-0.578 0,-0.289 -0.204,-0.459 -0.493,-0.459 -0.408,0 -0.663,0.374 -0.714,0.748 -0.306,-0.629 -0.799,-1.088 -1.564,-1.088 -1.989,0 -4.097,2.499 -4.097,4.981 0,1.598 0.935,2.72 2.261,2.72 0.34,0 1.19,-0.068 2.21,-1.275 0.136,0.714 0.731,1.275 1.547,1.275 0.595,0 0.986,-0.391 1.258,-0.935 0.289,-0.612 0.51,-1.683 0.51,-1.683 z m -2.329,-3.213 c 0,0.102 -0.034,0.204 -0.051,0.289 l -0.85,3.332 c -0.085,0.306 -0.085,0.34 -0.34,0.629 -0.748,0.935 -1.445,1.207 -1.921,1.207 -0.85,0 -1.088,-0.935 -1.088,-1.598 0,-0.85 0.544,-2.941 0.935,-3.723 0.527,-1.003 1.292,-1.632 1.972,-1.632 1.105,0 1.343,1.394 1.343,1.496 z"
     stroke="#000000"
     stroke-opacity="1"
     stroke-width="0.136"
     fill="#000000"
     fill-opacity="1"
     id="path84"
     style="font-family:LatinModern-Math, LatinModern, Asana-Math, Asana" />
  <path
     d="m 12.927358,92.271997 c 0,-1.547 -0.901,-2.72 -2.261,-2.72 -0.7820002,0 -1.4790002,0.493 -1.9890002,1.02 l 1.258,-5.117 c 0,0 0,-0.187 -0.221,-0.187 -0.391,0 -1.632,0.136 -2.074,0.17 -0.136,0.017 -0.323,0.034 -0.323,0.34 0,0.204 0.153,0.204 0.408,0.204 0.816,0 0.85,0.119 0.85,0.289 0,0.119 -0.153,0.697 -0.238,1.054 l -1.394,5.542 c -0.204,0.85 -0.272,1.122 -0.272,1.717 0,1.615 0.901,2.669 2.159,2.669 2.0060002,0 4.0970002,-2.533 4.0970002,-4.981 z m -1.224,-0.748 c 0,1.003 -0.561,2.958 -0.867,3.604 -0.561,1.139 -1.3430002,1.751 -2.0060002,1.751 -0.578,0 -1.139,-0.459 -1.139,-1.717 0,-0.323 0,-0.646 0.272,-1.717 l 0.374,-1.564 c 0.102,-0.374 0.102,-0.408 0.255,-0.595 0.833,-1.105 1.5980002,-1.36 2.0400002,-1.36 0.612,0 1.071,0.51 1.071,1.598 z"
     stroke="#000000"
     stroke-opacity="1"
     stroke-width="0.136"
     fill="#000000"
     fill-opacity="1"
     id="path88"
     style="font-family:LatinModern-Math, LatinModern, Asana-Math, Asana" />
  <path
     d="m 102.92736,92.771997 c 0,-1.547 -0.901,-2.72 -2.261,-2.72 -0.781999,0 -1.478999,0.493 -1.988999,1.02 l 1.258,-5.117 c 0,0 0,-0.187 -0.221,-0.187 -0.391,0 -1.632,0.136 -2.074,0.17 -0.136,0.017 -0.323,0.034 -0.323,0.34 0,0.204 0.153,0.204 0.408,0.204 0.816,0 0.85,0.119 0.85,0.289 0,0.119 -0.153,0.697 -0.238,1.054 l -1.394,5.542 c -0.204,0.85 -0.272,1.122 -0.272,1.717 0,1.615 0.901,2.669 2.159,2.669 2.005999,0 4.096999,-2.533 4.096999,-4.981 z m -1.224,-0.748 c 0,1.003 -0.561,2.958 -0.867,3.604 -0.561,1.139 -1.342999,1.751 -2.005999,1.751 -0.578,0 -1.139,-0.459 -1.139,-1.717 0,-0.323 0,-0.646 0.272,-1.717 l 0.374,-1.564 c 0.102,-0.374 0.102,-0.408 0.255,-0.595 0.833,-1.105 1.597999,-1.36 2.039999,-1.36 0.612,0 1.071,0.51 1.071,1.598 z"
     stroke="#000000"
     stroke-opacity="1"
     stroke-width="0.136"
     fill="#000000"
     fill-opacity="1"
     id="path92"
     style="font-family:LatinModern-Math, LatinModern, Asana-Math, Asana" />
</svg>
