<?xml version="1.0" encoding="UTF-8" standalone="no"?>
<svg
   x="0"
   y="0"
   width="305.69797"
   height="373.47342"
   style="fill:none"
   version="1.1"
   id="svg127"
   xmlns="http://www.w3.org/2000/svg"
   xmlns:svg="http://www.w3.org/2000/svg">
  <defs
     id="defs127" />
  <path
     class="connection real"
     stroke-dasharray="none"
     d="m 85.697968,129.80342 c 50.670002,-6.31 112.770002,-6.47 162.840002,-0.47"
     style="fill:none;fill-opacity:1;stroke:#000000;stroke-width:2px"
     id="path1" />
  <path
     d="m 238.25786,134.48689 14.10678,-4.68014 -12.47591,-8.08611 3.64765,6.95832 z"
     id="path2"
     style="fill:#000000;stroke:none;stroke-width:2px" />
  <path
     class="connection real"
     stroke-dasharray="none"
     d="m 81.942018,225.38778 c -14.01744,42.24624 1.75428,76.6273 43.524642,107.06647"
     style="fill:none;fill-opacity:1;stroke:#000000;stroke-width:2.15588px"
     id="path19" />
  <path
     d="m 122.02569,321.27876 6.697,13.51138 -16.03639,-2.43172 8.48928,-2.86567 z"
     id="path20"
     style="fill:#000000;stroke:none;stroke-width:2.15588px" />
  <path
     class="connection real"
     stroke-dasharray="none"
     d="m 85.697968,129.80342 c -89.0200005,36.51 -75.43,-46.319997 -25.91,-17.64"
     style="fill:none;fill-opacity:1;stroke:#000000;stroke-width:2px"
     id="path3" />
  <path
     d="m 48.130508,112.10495 14.73415,1.95181 -7.69077,-12.72343 0.24187,7.85271 z"
     id="path4"
     style="fill:#000000;stroke:none;stroke-width:2px" />
  <path
     class="real"
     d="m 60.697968,129.80342 c 0,-13.8 11.19,-25 25,-25 13.81,0 25.000002,11.2 25.000002,25 0,13.81 -11.190002,25 -25.000002,25 -13.81,0 -25,-11.19 -25,-25 z"
     style="fill:#ffffff;fill-opacity:1;stroke:#000000;stroke-width:2px"
     id="path5" />
  <path
     class="real"
     d="m 252.36797,129.80342 c 0,-13.8 11.19,-25 25,-25 13.8,0 25,11.2 25,25 0,13.81 -11.2,25 -25,25 -13.81,0 -25,-11.19 -25,-25 z"
     style="fill:#ffffff;fill-opacity:1;stroke:#000000;stroke-width:2px"
     id="path7" />
  <path
     class="real"
     d="m 256.36797,129.58342 c 0,-11.48 9.3,-20.78 20.77,-20.78 11.47,0 20.77,9.3 20.77,20.78 0,11.47 -9.3,20.77 -20.77,20.77 -11.47,0 -20.77,-9.3 -20.77,-20.77 z"
     style="fill:#ffffff;fill-opacity:1;stroke:#000000;stroke-width:2px"
     id="path8" />
  <path
     class="connection real"
     stroke-dasharray="none"
     d="m 88.027968,223.47342 c 50.670002,-6.32 112.780002,-6.47 162.840002,-0.47"
     style="fill:none;fill-opacity:1;stroke:#000000;stroke-width:2px"
     id="path11" />
  <path
     d="m 240.5912,228.15356 14.10678,-4.68014 -12.47591,-8.08611 3.64765,6.95832 z"
     id="path12"
     style="fill:#000000;stroke:none;stroke-width:2px" />
  <path
     class="connection real"
     stroke-dasharray="none"
     d="m 88.027968,223.47342 c -89.01000047,36.51 -75.43,-46.32 -25.91,-17.65"
     style="fill:none;fill-opacity:1;stroke:#000000;stroke-width:2px"
     id="path13" />
  <path
     d="m 50.463838,205.77161 14.73416,1.95181 L 57.507218,195 l 0.24187,7.85271 z"
     id="path14"
     style="fill:#000000;stroke:none;stroke-width:2px" />
  <path
     class="real"
     d="m 63.027968,223.47342 c 0,-13.81 11.2,-25 25,-25 13.810002,0 25.000002,11.19 25.000002,25 0,13.81 -11.19,25 -25.000002,25 -13.8,0 -25,-11.19 -25,-25 z"
     style="fill:#ffffff;fill-opacity:1;stroke:#000000;stroke-width:2px"
     id="path17" />
  <path
     class="real"
     d="m 125.69797,347.47342 c 0,-13.81 11.19,-25 25,-25 13.81,0 25,11.19 25,25 0,13.81 -11.19,25 -25,25 -13.81,0 -25,-11.19 -25,-25 z"
     style="fill:#ffffff;fill-opacity:1;stroke:#000000;stroke-width:2px"
     id="path21" />
  <path
     class="real"
     d="m 129.69797,347.24342 c 0,-11.47 9.3,-20.77 20.77,-20.77 11.48,0 20.78,9.3 20.78,20.77 0,11.48 -9.3,20.78 -20.78,20.78 -11.47,0 -20.77,-9.3 -20.77,-20.78 z"
     style="fill:#ffffff;fill-opacity:1;stroke:#000000;stroke-width:2px"
     id="path22" />
  <path
     class="connection real"
     stroke-dasharray="none"
     d="m 279.69797,223.47342 c -29.43,19.06 -84.94,73.27 -109.01,101.31"
     style="fill:none;fill-opacity:1;stroke:#000000;stroke-width:2px"
     id="path25" />
  <path
     d="m 171.83789,313.31315 -3.63992,14.41027 13.5263,-6.17033 -7.82813,-0.6664 z"
     id="path26"
     style="fill:#000000;stroke:none;stroke-width:2px" />
  <path
     class="real"
     d="m 254.69797,223.47342 c 0,-13.81 11.19,-25 25,-25 13.81,0 25,11.19 25,25 0,13.81 -11.19,25 -25,25 -13.81,0 -25,-11.19 -25,-25 z"
     style="fill:#ffffff;fill-opacity:1;stroke:#000000;stroke-width:2px"
     id="path27" />
  <path
     class="connection real"
     stroke-dasharray="none"
     d="m 182.69797,28.473423 c -89.020002,36.51 -75.43,-46.32 -25.91,-17.65"
     style="fill:none;fill-opacity:1;stroke:#000000;stroke-width:2px"
     id="path31" />
  <path
     d="M 145.13051,10.771616 159.86466,12.723425 152.17389,0 l 0.24187,7.852713 z"
     id="path32"
     style="fill:#000000;stroke:none;stroke-width:2px" />
  <path
     class="real"
     d="m 157.69797,28.473423 c 0,-13.81 11.19,-25 25,-25 13.81,0 25,11.19 25,25 0,13.81 -11.19,25 -25,25 -13.81,0 -25,-11.19 -25,-25 z"
     style="fill:#ffffff;fill-opacity:1;stroke:#000000;stroke-width:2px"
     id="path33" />
  <path
     d="m 180.30182,104.18982 c 0,-3.20229 -1.86507,-5.630397 -4.68027,-5.630397 -1.61874,0 -3.06153,1.02051 -4.11723,2.111397 l 2.60406,-10.592187 c 0,0 0,-0.38709 -0.45747,-0.38709 -0.80937,0 -3.37824,0.28152 -4.29318,0.3519 -0.28152,0.0352 -0.66861,0.0704 -0.66861,0.7038 0,0.42228 0.31671,0.42228 0.84456,0.42228 1.68912,0 1.7595,0.24633 1.7595,0.59823 0,0.24633 -0.31671,1.44279 -0.49266,2.18178 l -2.88558,11.471937 c -0.42228,1.7595 -0.56304,2.32254 -0.56304,3.55419 0,3.34305 1.86507,5.52483 4.46913,5.52483 4.15242,0 8.48079,-5.24331 8.48079,-10.31067 z m -2.53368,-1.54836 c 0,2.07621 -1.16127,6.12306 -1.79469,7.46028 -1.16127,2.35773 -2.78001,3.62457 -4.15242,3.62457 -1.19646,0 -2.35773,-0.95013 -2.35773,-3.55419 0,-0.66861 0,-1.33722 0.56304,-3.55419 l 0.77418,-3.23748 c 0.21114,-0.77418 0.21114,-0.84456 0.52785,-1.23165 1.72431,-2.287347 3.30786,-2.815197 4.2228,-2.815197 1.26684,0 2.21697,1.055697 2.21697,3.307857 z"
     stroke="#000000"
     stroke-opacity="1"
     stroke-width="0.28152"
     fill="#000000"
     fill-opacity="1"
     id="path40"
     style="font-family:LatinModern-Math, LatinModern, Asana-Math, Asana" />
  <path
     d="m 13.829668,116.34807 c 0,-0.21114 -0.21114,-0.45747 -0.42228,-0.45747 -0.17595,0 -0.24633,0.0704 -0.45747,0.3519 -2.78001,3.48381 -6.6157205,3.48381 -7.0380005,3.48381 -2.21697,0 -3.1671,-1.72431 -3.1671,-3.83571 0,-1.44279 0.7038,-4.85622 1.90026,-7.038 1.09089,-2.00583 3.02634,-3.519 4.96179,-3.519 1.1964605,0 2.5336805,0.45747 3.0263405,1.4076 -0.56304,0 -1.0557,0 -1.54836,0.49266 -0.56304,0.52785 -0.63342,1.12608 -0.63342,1.37241 0,0.84456 0.63342,1.23165 1.30203,1.23165 1.02051,0 1.97064,-0.84456 1.97064,-2.25216 0,-1.72431 -1.65393,-3.02634 -4.1524205,-3.02634 -4.75065,0 -9.43091997,5.03217 -9.43091997,9.99396 0,3.1671 2.04101997,5.94711 5.70077997,5.94711 5.0321705,0 7.9881305,-3.73014 7.9881305,-4.15242 z"
     stroke="#000000"
     stroke-opacity="1"
     stroke-width="0.28152"
     fill="#000000"
     fill-opacity="1"
     id="path44"
     style="font-family:LatinModern-Math, LatinModern, Asana-Math, Asana" />
  <path
     d="m 182.77589,207.78006 v -1.09089 h -1.12608 c -3.1671,0 -3.27267,-0.38709 -3.27267,-1.68912 v -19.74159 c 0,-0.84456 0,-0.91494 -0.80937,-0.91494 -2.18178,2.25216 -5.2785,2.25216 -6.40458,2.25216 v 1.09089 c 0.7038,0 2.78001,0 4.60989,-0.91494 v 18.22842 c 0,1.26684 -0.10557,1.68912 -3.27267,1.68912 h -1.12608 v 1.09089 c 1.23165,-0.10557 4.29318,-0.10557 5.70078,-0.10557 1.4076,0 4.46913,0 5.70078,0.10557 z"
     stroke="#000000"
     stroke-opacity="1"
     stroke-width="0.28152"
     fill="#000000"
     fill-opacity="1"
     id="path48"
     style="font-family:LatinModern-Math, LatinModern, Asana-Math, Asana" />
  <path
     d="m 16.718678,203.01926 c 0,-2.8152 -0.17595,-5.6304 -1.4076,-8.23446 -1.61874,-3.37824 -4.50432,-3.94128 -5.9823005,-3.94128 -2.1114,0 -4.68027,0.91494 -6.12306,4.18761 -1.12608,2.42811 -1.30203,5.17293 -1.30203,7.98813 0,2.63925 0.14076,5.80635 1.58355,8.48079 1.51317,2.85039 4.08204,3.55419 5.80635,3.55419 1.9002605,0 4.5747005,-0.73899 6.1230605,-4.08204 1.12608,-2.42811 1.30203,-5.17293 1.30203,-7.95294 z m -2.92077,-0.42228 c 0,2.63925 0,5.03217 -0.38709,7.28433 -0.52785,3.34305 -2.53368,4.39875 -4.1172305,4.39875 -1.37241,0 -3.44862,-0.87975 -4.08204,-4.25799 -0.38709,-2.1114 -0.38709,-5.34888 -0.38709,-7.42509 0,-2.25216 0,-4.5747 0.28152,-6.47496 0.66861,-4.18761 3.30786,-4.50432 4.18761,-4.50432 1.1612705,0 3.4838105,0.63342 4.1524205,4.11723 0.3519,1.97064 0.3519,4.64508 0.3519,6.86205 z"
     stroke="#000000"
     stroke-opacity="1"
     stroke-width="0.28152"
     fill="#000000"
     fill-opacity="1"
     id="path52"
     style="font-family:LatinModern-Math, LatinModern, Asana-Math, Asana" />
  <path
     d="m 78.357548,314.38465 v -1.09089 h -1.12608 c -3.1671,0 -3.27267,-0.38709 -3.27267,-1.68912 v -19.74159 c 0,-0.84456 0,-0.91494 -0.80937,-0.91494 -2.18178,2.25216 -5.2785,2.25216 -6.40458,2.25216 v 1.09089 c 0.7038,0 2.78001,0 4.60989,-0.91494 v 18.22842 c 0,1.26684 -0.10557,1.68912 -3.27267,1.68912 h -1.12608 v 1.09089 c 1.23165,-0.10557 4.29318,-0.10557 5.70078,-0.10557 1.4076,0 4.46913,0 5.70078,0.10557 z"
     stroke="#000000"
     stroke-opacity="1"
     stroke-width="0.28152"
     fill="#000000"
     fill-opacity="1"
     id="path56"
     style="font-family:LatinModern-Math, LatinModern, Asana-Math, Asana" />
  <path
     d="m 200.71868,267.51926 c 0,-2.8152 -0.17595,-5.6304 -1.4076,-8.23446 -1.61874,-3.37824 -4.50432,-3.94128 -5.9823,-3.94128 -2.1114,0 -4.68027,0.91494 -6.12306,4.18761 -1.12608,2.42811 -1.30203,5.17293 -1.30203,7.98813 0,2.63925 0.14076,5.80635 1.58355,8.48079 1.51317,2.85039 4.08204,3.55419 5.80635,3.55419 1.90026,0 4.5747,-0.73899 6.12306,-4.08204 1.12608,-2.42811 1.30203,-5.17293 1.30203,-7.95294 z m -2.92077,-0.42228 c 0,2.63925 0,5.03217 -0.38709,7.28433 -0.52785,3.34305 -2.53368,4.39875 -4.11723,4.39875 -1.37241,0 -3.44862,-0.87975 -4.08204,-4.25799 -0.38709,-2.1114 -0.38709,-5.34888 -0.38709,-7.42509 0,-2.25216 0,-4.5747 0.28152,-6.47496 0.66861,-4.18761 3.30786,-4.50432 4.18761,-4.50432 1.16127,0 3.48381,0.63342 4.15242,4.11723 0.3519,1.97064 0.3519,4.64508 0.3519,6.86205 z"
     stroke="#000000"
     stroke-opacity="1"
     stroke-width="0.28152"
     fill="#000000"
     fill-opacity="1"
     id="path64"
     style="font-family:LatinModern-Math, LatinModern, Asana-Math, Asana" />
  <path
     d="m 107.88928,15.747891 c 0,-0.3519 -0.31671,-0.3519 -0.42228,-0.3519 -0.3519,0 -0.38709,0.14076 -0.49266,0.63342 -0.59823,2.28735 -1.23165,4.36356 -2.67444,4.36356 -0.95013,0 -1.0557,-0.91494 -1.0557,-1.61874 0,-0.77418 0.0704,-1.0557 0.45747,-2.60406 l 0.77418,-3.1671 1.26684,-4.9266 c 0.24633,-0.98532 0.24633,-1.0557 0.24633,-1.19646 0,-0.59823 -0.42228,-0.95013 -1.02051,-0.95013 -0.84456,0 -1.37241,0.77418 -1.47798,1.54836 -0.63342,-1.30203 -1.65393,-2.25216 -3.23748,-2.25216 -4.117232,0 -8.480792,5.17293 -8.480792,10.31067 0,3.30786 1.93545,5.6304 4.68027,5.6304 0.7038,0 2.4633,-0.14076 4.574702,-2.63925 0.28152,1.47798 1.51317,2.63925 3.20229,2.63925 1.23165,0 2.04102,-0.80937 2.60406,-1.93545 0.59823,-1.26684 1.0557,-3.48381 1.0557,-3.48381 z m -4.82103,-6.65091 c 0,0.21114 -0.0704,0.42228 -0.10557,0.59823 l -1.7595,6.89724 c -0.17595,0.63342 -0.17595,0.7038 -0.7038,1.30203 -1.548362,1.93545 -2.991152,2.49849 -3.976472,2.49849 -1.7595,0 -2.25216,-1.93545 -2.25216,-3.30786 0,-1.7595 1.12608,-6.08787 1.93545,-7.70661 1.09089,-2.07621 2.67444,-3.37824 4.082042,-3.37824 2.28735,0 2.78001,2.88558 2.78001,3.09672 z"
     stroke="#000000"
     stroke-opacity="1"
     stroke-width="0.28152"
     fill="#000000"
     fill-opacity="1"
     id="path68"
     style="font-family:LatinModern-Math, LatinModern, Asana-Math, Asana" />
  <path
     d="m 283.19704,216.97522 c 0,-1.52932 -1.73519,-1.94106 -2.73513,-1.94106 -1.70578,0 -2.73513,1.55873 -3.08805,2.23516 -0.73525,-1.94106 -2.32339,-2.23516 -3.17628,-2.23516 -3.05864,0 -4.73501,3.79389 -4.73501,4.52914 0,0.2941 0.35292,0.2941 0.35292,0.2941 0.23528,0 0.32351,-0.0588 0.38233,-0.32351 0.99994,-3.11746 2.941,-3.85271 3.94094,-3.85271 0.55879,0 1.58814,0.26469 1.58814,1.97047 0,0.91171 -0.49997,2.88218 -1.58814,6.99958 -0.47056,1.82342 -1.49991,3.05864 -2.79395,3.05864 -0.17646,0 -0.85289,0 -1.4705,-0.38233 0.73525,-0.14705 1.38227,-0.76466 1.38227,-1.58814 0,-0.79407 -0.64702,-1.02935 -1.08817,-1.02935 -0.8823,0 -1.61755,0.76466 -1.61755,1.70578 0,1.35286 1.4705,1.94106 2.76454,1.94106 1.94106,0 2.99982,-2.0587 3.08805,-2.23516 0.35292,1.08817 1.41168,2.23516 3.17628,2.23516 3.02923,0 4.7056,-3.79389 4.7056,-4.52914 0,-0.2941 -0.26469,-0.2941 -0.35292,-0.2941 -0.26469,0 -0.32351,0.11764 -0.38233,0.32351 -0.97053,3.14687 -2.97041,3.85271 -3.91153,3.85271 -1.14699,0 -1.61755,-0.94112 -1.61755,-1.94106 0,-0.64702 0.17646,-1.29404 0.49997,-2.58808 l 0.99994,-4.02917 c 0.17646,-0.76466 0.85289,-3.47038 2.91159,-3.47038 0.14705,0 0.85289,0 1.4705,0.38233 -0.82348,0.14705 -1.41168,0.8823 -1.41168,1.58814 0,0.47056 0.32351,1.02935 1.11758,1.02935 0.64702,0 1.58814,-0.52938 1.58814,-1.70578 z"
     stroke="#000000"
     stroke-opacity="1"
     stroke-width="0.23528"
     fill="#000000"
     fill-opacity="1"
     id="path72"
     style="font-family:LatinModern-Math, LatinModern, Asana-Math, Asana" />
  <path
     d="m 294.6582,229.99494 h -0.51467 c -0.10294,0.61761 -0.24705,1.52344 -0.45292,1.83224 -0.1441,0.1647 -1.50285,0.1647 -1.95576,0.1647 h -3.70566 l 2.18222,-2.12046 c 3.21157,-2.84101 4.44679,-3.9527 4.44679,-6.0114 0,-2.34692 -1.85283,-3.99388 -4.36444,-3.99388 -2.32633,0 -3.84977,1.894 -3.84977,3.72624 0,1.15288 1.02935,1.15288 1.09111,1.15288 0.34998,0 1.07053,-0.24705 1.07053,-1.09111 0,-0.53527 -0.37057,-1.07053 -1.09112,-1.07053 -0.16469,0 -0.20587,0 -0.26763,0.0206 0.4735,-1.33816 1.5852,-2.09988 2.77925,-2.09988 1.87342,0 2.75866,1.66755 2.75866,3.35569 0,1.64696 -1.02935,3.27333 -2.16164,4.54972 l -3.9527,4.40562 c -0.22646,0.22646 -0.22646,0.26763 -0.22646,0.76172 h 7.63778 z"
     stroke="#000000"
     stroke-opacity="1"
     stroke-width="0.164696"
     fill="#000000"
     fill-opacity="1"
     id="path74"
     style="font-family:LatinModern-Math, LatinModern, Asana-Math, Asana" />
  <path
     d="m 154.19704,340.97522 c 0,-1.52932 -1.73519,-1.94106 -2.73513,-1.94106 -1.70578,0 -2.73513,1.55873 -3.08805,2.23516 -0.73525,-1.94106 -2.32339,-2.23516 -3.17628,-2.23516 -3.05864,0 -4.73501,3.79389 -4.73501,4.52914 0,0.2941 0.35292,0.2941 0.35292,0.2941 0.23528,0 0.32351,-0.0588 0.38233,-0.32351 0.99994,-3.11746 2.941,-3.85271 3.94094,-3.85271 0.55879,0 1.58814,0.26469 1.58814,1.97047 0,0.91171 -0.49997,2.88218 -1.58814,6.99958 -0.47056,1.82342 -1.49991,3.05864 -2.79395,3.05864 -0.17646,0 -0.85289,0 -1.4705,-0.38233 0.73525,-0.14705 1.38227,-0.76466 1.38227,-1.58814 0,-0.79407 -0.64702,-1.02935 -1.08817,-1.02935 -0.8823,0 -1.61755,0.76466 -1.61755,1.70578 0,1.35286 1.4705,1.94106 2.76454,1.94106 1.94106,0 2.99982,-2.0587 3.08805,-2.23516 0.35292,1.08817 1.41168,2.23516 3.17628,2.23516 3.02923,0 4.7056,-3.79389 4.7056,-4.52914 0,-0.2941 -0.26469,-0.2941 -0.35292,-0.2941 -0.26469,0 -0.32351,0.11764 -0.38233,0.32351 -0.97053,3.14687 -2.97041,3.85271 -3.91153,3.85271 -1.14699,0 -1.61755,-0.94112 -1.61755,-1.94106 0,-0.64702 0.17646,-1.29404 0.49997,-2.58808 l 0.99994,-4.02917 c 0.17646,-0.76466 0.85289,-3.47038 2.91159,-3.47038 0.14705,0 0.85289,0 1.4705,0.38233 -0.82348,0.14705 -1.41168,0.8823 -1.41168,1.58814 0,0.47056 0.32351,1.02935 1.11758,1.02935 0.64702,0 1.58814,-0.52938 1.58814,-1.70578 z"
     stroke="#000000"
     stroke-opacity="1"
     stroke-width="0.23528"
     fill="#000000"
     fill-opacity="1"
     id="path81"
     style="font-family:LatinModern-Math, LatinModern, Asana-Math, Asana" />
  <path
     d="m 165.04059,357.57708 v -0.6382 h -0.65878 c -1.85283,0 -1.91459,-0.22645 -1.91459,-0.98817 V 344.4014 c 0,-0.49409 0,-0.53526 -0.4735,-0.53526 -1.2764,1.31757 -3.08805,1.31757 -3.74684,1.31757 v 0.63819 c 0.41174,0 1.62638,0 2.6969,-0.53526 v 10.66407 c 0,0.74113 -0.0618,0.98817 -1.91459,0.98817 h -0.65879 v 0.6382 c 0.72055,-0.0618 2.51162,-0.0618 3.3351,-0.0618 0.82348,0 2.61455,0 3.33509,0.0618 z"
     stroke="#000000"
     stroke-opacity="1"
     stroke-width="0.164696"
     fill="#000000"
     fill-opacity="1"
     id="path83"
     style="font-family:LatinModern-Math, LatinModern, Asana-Math, Asana" />
  <path
     d="m 94.530348,219.47522 c 0,-1.52932 -1.73519,-1.94106 -2.73513,-1.94106 -1.70578,0 -2.73513,1.55873 -3.08805,2.23516 -0.73525,-1.94106 -2.32339,-2.23516 -3.17628,-2.23516 -3.05864,0 -4.73501,3.79389 -4.73501,4.52914 0,0.2941 0.35292,0.2941 0.35292,0.2941 0.23528,0 0.32351,-0.0588 0.38233,-0.32351 0.99994,-3.11746 2.941,-3.85271 3.94094,-3.85271 0.55879,0 1.58814,0.26469 1.58814,1.97047 0,0.91171 -0.49997,2.88218 -1.58814,6.99958 -0.47056,1.82342 -1.49991,3.05864 -2.79395,3.05864 -0.17646,0 -0.85289,0 -1.4705,-0.38233 0.73525,-0.14705 1.38227,-0.76466 1.38227,-1.58814 0,-0.79407 -0.64702,-1.02935 -1.08817,-1.02935 -0.8823,0 -1.61755,0.76466 -1.61755,1.70578 0,1.35286 1.4705,1.94106 2.76454,1.94106 1.94106,0 2.99982,-2.0587 3.08805,-2.23516 0.35292,1.08817 1.41168,2.23516 3.17628,2.23516 3.02923,0 4.7056,-3.79389 4.7056,-4.52914 0,-0.2941 -0.26469,-0.2941 -0.35292,-0.2941 -0.26469,0 -0.32351,0.11764 -0.38233,0.32351 -0.97053,3.14687 -2.97041,3.85271 -3.91153,3.85271 -1.14699,0 -1.61755,-0.94112 -1.61755,-1.94106 0,-0.64702 0.17646,-1.29404 0.49997,-2.58808 l 0.99994,-4.02917 c 0.17646,-0.76466 0.85289,-3.47038 2.91159,-3.47038 0.14705,0 0.85289,0 1.4705,0.38233 -0.82348,0.14705 -1.41168,0.8823 -1.41168,1.58814 0,0.47056 0.32351,1.02935 1.11758,1.02935 0.64702,0 1.58814,-0.52938 1.58814,-1.70578 z"
     stroke="#000000"
     stroke-opacity="1"
     stroke-width="0.23528"
     fill="#000000"
     fill-opacity="1"
     id="path90"
     style="font-family:LatinModern-Math, LatinModern, Asana-Math, Asana" />
  <path
     d="m 106.21798,229.48924 c 0,-1.64696 -0.10294,-3.29392 -0.82348,-4.81736 -0.947,-1.97635 -2.63514,-2.30574 -3.49979,-2.30574 -1.23522,0 -2.738072,0.53526 -3.582142,2.44985 -0.65878,1.4205 -0.76172,3.02629 -0.76172,4.67325 0,1.54402 0.0823,3.39685 0.92642,4.96147 0.88524,1.66754 2.388092,2.07928 3.396852,2.07928 1.1117,0 2.67631,-0.43232 3.58214,-2.38809 0.65878,-1.4205 0.76172,-3.02629 0.76172,-4.65266 z m -1.70872,-0.24704 c 0,1.54402 0,2.94394 -0.22646,4.2615 -0.3088,1.95577 -1.48226,2.57338 -2.40868,2.57338 -0.80289,0 -2.017522,-0.51468 -2.388092,-2.49103 -0.22646,-1.23522 -0.22646,-3.12922 -0.22646,-4.34385 0,-1.31757 0,-2.67631 0.1647,-3.78801 0.39115,-2.44986 1.935182,-2.63514 2.449852,-2.63514 0.67937,0 2.03812,0.37057 2.42927,2.40868 0.20587,1.15287 0.20587,2.71748 0.20587,4.01447 z"
     stroke="#000000"
     stroke-opacity="1"
     stroke-width="0.164696"
     fill="#000000"
     fill-opacity="1"
     id="path92"
     style="font-family:LatinModern-Math, LatinModern, Asana-Math, Asana" />
  <path
     d="m 279.97557,122.1851 c 0,-0.52938 -0.41174,-0.79407 -0.85289,-0.79407 -0.2941,0 -0.76466,0.17646 -1.02935,0.61761 -0.0588,0.14705 -0.2941,1.05876 -0.41174,1.58814 l -0.5882,2.3528 -1.32345,5.2938 c -0.11764,0.44115 -1.38227,2.49985 -3.32333,2.49985 -1.49991,0 -1.82342,-1.29404 -1.82342,-2.38221 0,-1.35286 0.49997,-3.17628 1.49991,-5.76436 0.47056,-1.20581 0.5882,-1.52932 0.5882,-2.11752 0,-1.32345 -0.94112,-2.41162 -2.41162,-2.41162 -2.79395,0 -3.88212,4.26445 -3.88212,4.52914 0,0.2941 0.35292,0.2941 0.35292,0.2941 0.2941,0 0.32351,-0.0588 0.47056,-0.52938 0.79407,-2.76454 1.97047,-3.64684 2.97041,-3.64684 0.23528,0 0.73525,0 0.73525,0.94112 0,0.73525 -0.2941,1.49991 -0.49997,2.0587 -1.1764,3.11746 -1.70578,4.79383 -1.70578,6.1761 0,2.61749 1.85283,3.49979 3.58802,3.49979 1.14699,0 2.14693,-0.49997 2.97041,-1.32345 -0.38233,1.52932 -0.73525,2.97041 -1.91165,4.52914 -0.76466,0.99994 -1.88224,1.85283 -3.2351,1.85283 -0.41174,0 -1.73519,-0.0882 -2.23516,-1.23522 0.47056,0 0.85289,0 1.26463,-0.35292 0.2941,-0.26469 0.5882,-0.64702 0.5882,-1.20581 0,-0.91171 -0.79407,-1.02935 -1.08817,-1.02935 -0.67643,0 -1.64696,0.47056 -1.64696,1.91165 0,1.4705 1.29404,2.55867 3.11746,2.55867 3.02923,0 6.05846,-2.67631 6.88194,-5.99964 l 2.82336,-11.23462 c 0.11764,-0.41174 0.11764,-0.47056 0.11764,-0.67643 z"
     stroke="#000000"
     stroke-opacity="1"
     stroke-width="0.23528"
     fill="#000000"
     fill-opacity="1"
     id="path99"
     style="font-family:LatinModern-Math, LatinModern, Asana-Math, Asana" />
  <path
     d="m 290.33462,133.02257 c 0,-1.64696 -0.10294,-3.29392 -0.82348,-4.81736 -0.947,-1.97635 -2.63514,-2.30574 -3.49979,-2.30574 -1.23522,0 -2.73807,0.53526 -3.58214,2.44985 -0.65878,1.4205 -0.76172,3.02629 -0.76172,4.67325 0,1.54402 0.0824,3.39685 0.92642,4.96147 0.88524,1.66754 2.38809,2.07928 3.39685,2.07928 1.1117,0 2.67631,-0.43232 3.58214,-2.38809 0.65878,-1.4205 0.76172,-3.02629 0.76172,-4.65266 z m -1.70872,-0.24704 c 0,1.54402 0,2.94394 -0.22646,4.2615 -0.3088,1.95577 -1.48226,2.57338 -2.40868,2.57338 -0.80289,0 -2.01752,-0.51468 -2.38809,-2.49103 -0.22646,-1.23522 -0.22646,-3.12922 -0.22646,-4.34385 0,-1.31757 0,-2.67631 0.1647,-3.78801 0.39115,-2.44986 1.93518,-2.63514 2.44985,-2.63514 0.67937,0 2.03812,0.37057 2.42927,2.40868 0.20587,1.15287 0.20587,2.71748 0.20587,4.01447 z"
     stroke="#000000"
     stroke-opacity="1"
     stroke-width="0.164696"
     fill="#000000"
     fill-opacity="1"
     id="path101"
     style="font-family:LatinModern-Math, LatinModern, Asana-Math, Asana" />
  <path
     d="m 88.997028,124.60859 c 0,-1.52932 -1.73519,-1.94106 -2.73513,-1.94106 -1.70578,0 -2.73513,1.55873 -3.08805,2.23516 -0.73525,-1.94106 -2.32339,-2.23516 -3.17628,-2.23516 -3.05864,0 -4.73501,3.79389 -4.73501,4.52914 0,0.2941 0.35292,0.2941 0.35292,0.2941 0.23528,0 0.32351,-0.0588 0.38233,-0.32351 0.99994,-3.11746 2.941,-3.85271 3.94094,-3.85271 0.55879,0 1.58814,0.26469 1.58814,1.97047 0,0.91171 -0.49997,2.88218 -1.58814,6.99958 -0.47056,1.82342 -1.49991,3.05864 -2.79395,3.05864 -0.17646,0 -0.85289,0 -1.4705,-0.38233 0.73525,-0.14705 1.38227,-0.76466 1.38227,-1.58814 0,-0.79407 -0.64702,-1.02935 -1.08817,-1.02935 -0.8823,0 -1.61755,0.76466 -1.61755,1.70578 0,1.35286 1.4705,1.94106 2.76454,1.94106 1.94106,0 2.99982,-2.0587 3.08805,-2.23516 0.35292,1.08817 1.41168,2.23516 3.17628,2.23516 3.02923,0 4.7056,-3.79389 4.7056,-4.52914 0,-0.2941 -0.26469,-0.2941 -0.35292,-0.2941 -0.26469,0 -0.32351,0.11764 -0.38233,0.32351 -0.97053,3.14687 -2.97041,3.85271 -3.91153,3.85271 -1.14699,0 -1.61755,-0.94112 -1.61755,-1.94106 0,-0.64702 0.17646,-1.29404 0.49997,-2.58808 l 0.99994,-4.02917 c 0.17646,-0.76466 0.85289,-3.47038 2.91159,-3.47038 0.14705,0 0.85289,0 1.4705,0.38233 -0.82348,0.14705 -1.41168,0.8823 -1.41168,1.58814 0,0.47056 0.32351,1.02935 1.11758,1.02935 0.64702,0 1.58814,-0.52938 1.58814,-1.70578 z"
     stroke="#000000"
     stroke-opacity="1"
     stroke-width="0.23528"
     fill="#000000"
     fill-opacity="1"
     id="path108"
     style="font-family:LatinModern-Math, LatinModern, Asana-Math, Asana" />
  <path
     d="m 100.68465,134.62254 c 0,-1.64696 -0.10294,-3.29392 -0.823482,-4.81736 -0.947,-1.97635 -2.63514,-2.30574 -3.49979,-2.30574 -1.23522,0 -2.73807,0.53526 -3.58214,2.44985 -0.65878,1.4205 -0.76172,3.02629 -0.76172,4.67325 0,1.54403 0.0824,3.39685 0.92642,4.96147 0.88524,1.66754 2.38809,2.07928 3.39685,2.07928 1.1117,0 2.67631,-0.43232 3.58214,-2.38809 0.658782,-1.4205 0.761722,-3.02629 0.761722,-4.65266 z m -1.708722,-0.24704 c 0,1.54402 0,2.94394 -0.22646,4.2615 -0.3088,1.95577 -1.48226,2.57338 -2.40868,2.57338 -0.80289,0 -2.01752,-0.51468 -2.38809,-2.49103 -0.22646,-1.23522 -0.22646,-3.12922 -0.22646,-4.34385 0,-1.31757 0,-2.67631 0.1647,-3.78801 0.39115,-2.44985 1.93518,-2.63514 2.44985,-2.63514 0.67937,0 2.03812,0.37057 2.42927,2.40868 0.20587,1.15287 0.20587,2.71748 0.20587,4.01447 z"
     stroke="#000000"
     stroke-opacity="1"
     stroke-width="0.164696"
     fill="#000000"
     fill-opacity="1"
     id="path110"
     style="font-family:LatinModern-Math, LatinModern, Asana-Math, Asana" />
  <path
     d="m 185.19704,24.075263 c 0,-1.52932 -1.73519,-1.94106 -2.73513,-1.94106 -1.70578,0 -2.73513,1.55873 -3.08805,2.23516 -0.73525,-1.94106 -2.32339,-2.23516 -3.17628,-2.23516 -3.05864,0 -4.73501,3.79389 -4.73501,4.52914 0,0.2941 0.35292,0.2941 0.35292,0.2941 0.23528,0 0.32351,-0.05882 0.38233,-0.32351 0.99994,-3.11746 2.941,-3.85271 3.94094,-3.85271 0.55879,0 1.58814,0.26469 1.58814,1.97047 0,0.91171 -0.49997,2.88218 -1.58814,6.99958 -0.47056,1.82342 -1.49991,3.05864 -2.79395,3.05864 -0.17646,0 -0.85289,0 -1.4705,-0.38233 0.73525,-0.14705 1.38227,-0.76466 1.38227,-1.58814 0,-0.79407 -0.64702,-1.02935 -1.08817,-1.02935 -0.8823,0 -1.61755,0.76466 -1.61755,1.70578 0,1.35286 1.4705,1.94106 2.76454,1.94106 1.94106,0 2.99982,-2.0587 3.08805,-2.23516 0.35292,1.08817 1.41168,2.23516 3.17628,2.23516 3.02923,0 4.7056,-3.79389 4.7056,-4.52914 0,-0.2941 -0.26469,-0.2941 -0.35292,-0.2941 -0.26469,0 -0.32351,0.11764 -0.38233,0.32351 -0.97053,3.14687 -2.97041,3.85271 -3.91153,3.85271 -1.14699,0 -1.61755,-0.94112 -1.61755,-1.94106 0,-0.64702 0.17646,-1.29404 0.49997,-2.58808 l 0.99994,-4.02917 c 0.17646,-0.76466 0.85289,-3.47038 2.91159,-3.47038 0.14705,0 0.85289,0 1.4705,0.38233 -0.82348,0.14705 -1.41168,0.8823 -1.41168,1.58814 0,0.47056 0.32351,1.02935 1.11758,1.02935 0.64702,0 1.58814,-0.52938 1.58814,-1.70578 z"
     stroke="#000000"
     stroke-opacity="1"
     stroke-width="0.23528"
     fill="#000000"
     fill-opacity="1"
     id="path117"
     style="font-family:LatinModern-Math, LatinModern, Asana-Math, Asana" />
  <path
     d="m 196.88466,34.089221 c 0,-1.64696 -0.10294,-3.29392 -0.82348,-4.817358 -0.947,-1.976352 -2.63514,-2.305744 -3.49979,-2.305744 -1.23522,0 -2.73807,0.535262 -3.58214,2.449853 -0.65878,1.420503 -0.76172,3.026289 -0.76172,4.673249 0,1.544025 0.0823,3.396855 0.92642,4.961467 0.88524,1.667547 2.38809,2.079287 3.39685,2.079287 1.1117,0 2.67631,-0.432327 3.58214,-2.388092 0.65878,-1.420503 0.76172,-3.026289 0.76172,-4.652662 z m -1.70872,-0.247044 c 0,1.544025 0,2.943941 -0.22646,4.261509 -0.3088,1.955765 -1.48226,2.573375 -2.40868,2.573375 -0.80289,0 -2.01752,-0.514675 -2.38809,-2.491027 -0.22646,-1.23522 -0.22646,-3.129224 -0.22646,-4.343857 0,-1.317568 0,-2.67631 0.1647,-3.788008 0.39115,-2.449853 1.93518,-2.635136 2.44985,-2.635136 0.67937,0 2.03812,0.370566 2.42927,2.408679 0.20587,1.152872 0.20587,2.717484 0.20587,4.014465 z"
     stroke="#000000"
     stroke-opacity="1"
     stroke-width="0.164696"
     fill="#000000"
     fill-opacity="1"
     id="path119"
     style="font-family:LatinModern-Math, LatinModern, Asana-Math, Asana" />
</svg>
