<svg xmlns="http://www.w3.org/2000/svg" xmlns:xlink="http://www.w3.org/1999/xlink" x="0" y="0" width="648" height="429.33331298828125" style="
        width:648px;
        height:429.33331298828125px;
        background: transparent;
        fill: none;
">
        
        
        <svg xmlns="http://www.w3.org/2000/svg" class="role-diagram-draw-area"><g class="shapes-region" style="stroke: black; fill: none;"><g class="composite-shape"><path class="real" d=" M290,235.67 C290,226.83 297.16,219.67 306,219.67 C314.84,219.67 322,226.83 322,235.67 C322,244.5 314.84,251.67 306,251.67 C297.16,251.67 290,244.5 290,235.67 Z" style="stroke-width: 1px; stroke: none; stroke-opacity: 1; fill: rgb(189, 16, 224); fill-opacity: 1;"/></g><g class="composite-shape"><path class="real" d=" M360.62,257.77 C361.9,251.19 357.59,244.81 351.01,243.54 L315.23,236.61 C308.65,235.33 302.27,239.64 301,246.23 L270.78,402.27 C269.5,408.86 273.81,415.23 280.39,416.51 L316.17,423.44 C322.75,424.71 329.13,420.41 330.4,413.82 Z" style="stroke-width: 2px; stroke: rgb(33, 46, 58); stroke-opacity: 1; fill: rgb(255, 255, 255); fill-opacity: 1;"/></g><g class="composite-shape"><path class="real" d=" M355.75,258.45 C356.75,253.31 353.39,248.34 348.25,247.34 L316.37,241.17 C311.23,240.18 306.26,243.53 305.26,248.67 L275.65,401.59 C274.65,406.73 278.01,411.71 283.15,412.7 L315.03,418.87 C320.17,419.87 325.14,416.51 326.14,411.37 Z" style="stroke-width: 2px; stroke: rgb(33, 46, 58); stroke-opacity: 1; fill: rgb(255, 255, 255); fill-opacity: 1;"/></g><g class="arrow-line"><path class="connection real" stroke-dasharray="" d="  M460.66,105.83 C478.17,113.31 500.24,120.95 527.74,126.26" style="stroke: rgb(33, 46, 58); stroke-opacity: 1; stroke-width: 2px; fill: none; fill-opacity: 1;"/><g stroke="none" fill="rgb(33,46,58)" fill-opacity="1" transform="matrix(-0.9838850379335417,-0.17880221511634942,0.17880221511634942,-0.9838850379335417,531.6666666666667,127)" style="stroke: none; fill: rgb(33, 46, 58); stroke-width: 2px;"><path d=" M13.4,-6.43 L0,0 L13.4,6.44 L8.9,0 Z"/></g></g><g class="composite-shape"><path class="real" d=" M604.39,36.14 C605.5,30.4 601.75,24.85 596.01,23.74 L564.83,17.7 C559.09,16.59 553.53,20.34 552.42,26.08 L521.61,185.19 C520.5,190.93 524.25,196.48 529.99,197.6 L561.17,203.63 C566.91,204.75 572.47,200.99 573.58,195.25 Z" style="stroke-width: 2px; stroke: rgb(144, 19, 254); stroke-opacity: 1; fill: rgb(255, 255, 255); fill-opacity: 1;"/></g><g class="arrow-line"><path class="connection real" stroke-dasharray="" d="  M215.73,323.66 C234.87,333.91 252.22,339.85 281.89,343.25" style="stroke: rgb(33, 46, 58); stroke-opacity: 1; stroke-width: 2px; fill: none; fill-opacity: 1;"/><g stroke="none" fill="rgb(33,46,58)" fill-opacity="1" transform="matrix(-0.994612734963156,-0.10366053949845487,0.10366053949845487,-0.994612734963156,285.6666666666667,343.6666666666667)" style="stroke: none; fill: rgb(33, 46, 58); stroke-width: 2px;"><path d=" M13.4,-6.43 L0,0 L13.4,6.44 L8.9,0 Z"/></g></g><g class="arrow-line"><path class="connection real" stroke-dasharray="" d="  M133.67,307 C155.01,313.79 148.12,313.05 184.8,318.78" style="stroke: rgb(33, 46, 58); stroke-opacity: 1; stroke-width: 2px; fill: none; fill-opacity: 1;"/><g stroke="none" fill="rgb(33,46,58)" fill-opacity="1" transform="matrix(-0.9880944998464435,-0.15384816987278965,0.15384816987278965,-0.9880944998464435,188.33333333333343,319.33333333333326)" style="stroke: none; fill: rgb(33, 46, 58); stroke-width: 2px;"><path d=" M13.4,-6.43 L0,0 L13.4,6.44 L8.9,0 Z"/></g></g><g class="arrow-line"><path class="connection real" stroke-dasharray="" d="  M380.33,90 C401.67,96.79 394.79,96.05 431.47,101.78" style="stroke: rgb(33, 46, 58); stroke-opacity: 1; stroke-width: 2px; fill: none; fill-opacity: 1;"/><g stroke="none" fill="rgb(33,46,58)" fill-opacity="1" transform="matrix(-0.9880944998464435,-0.15384816987278965,0.15384816987278965,-0.9880944998464435,435.00000000000006,102.33333333333331)" style="stroke: none; fill: rgb(33, 46, 58); stroke-width: 2px;"><path d=" M13.4,-6.43 L0,0 L13.4,6.44 L8.9,0 Z"/></g></g><g class="arrow-line"><path class="connection real" stroke-dasharray="" d="  M35.67,82.67 C57.01,89.46 50.75,88.09 87.47,93.78" style="stroke: rgb(33, 46, 58); stroke-opacity: 1; stroke-width: 2px; fill: none; fill-opacity: 1;"/><g stroke="none" fill="rgb(33,46,58)" fill-opacity="1" transform="matrix(-0.9880944998464435,-0.15384816987278965,0.15384816987278965,-0.9880944998464435,91,94.33333333333333)" style="stroke: none; fill: rgb(33, 46, 58); stroke-width: 2px;"><path d=" M13.4,-6.43 L0,0 L13.4,6.44 L8.9,0 Z"/></g></g><g class="composite-shape"><path class="real" d=" M251.06,271.48 C252.1,266.11 248.59,260.91 243.22,259.87 L214.04,254.22 C208.67,253.18 203.48,256.69 202.43,262.06 L180.4,375.85 C179.36,381.22 182.87,386.42 188.24,387.46 L217.42,393.11 C222.79,394.15 227.99,390.64 229.03,385.26 Z" style="stroke-width: 2px; stroke: rgb(0, 0, 0); fill: rgb(255, 255, 255); fill-opacity: 1;"/></g><g class="composite-shape"><path class="real" d=" M160.77,272.35 C161.61,268.01 158.77,263.81 154.43,262.97 L130.85,258.4 C126.5,257.56 122.3,260.4 121.46,264.74 L106.57,341.65 C105.73,345.99 108.56,350.19 112.91,351.03 L136.49,355.6 C140.83,356.44 145.03,353.6 145.87,349.26 Z" style="stroke-width: 2px; stroke: rgb(0, 0, 0); fill: rgb(255, 255, 255); fill-opacity: 1;"/></g><g class="composite-shape"><path class="real" d=" M439.94,35.22 C439.94,26.38 447.11,19.22 455.94,19.22 C464.78,19.22 471.94,26.38 471.94,35.22 C471.94,44.06 464.78,51.22 455.94,51.22 C447.11,51.22 439.94,44.06 439.94,35.22 Z" style="stroke-width: 1px; stroke: none; stroke-opacity: 1; fill: rgb(189, 16, 224); fill-opacity: 1;"/></g><g class="composite-shape"><path class="real" d=" M496.92,54.24 C498,48.65 494.34,43.24 488.75,42.15 L458.37,36.27 C452.78,35.19 447.37,38.84 446.29,44.44 L424.41,157.42 C423.32,163.01 426.98,168.43 432.57,169.51 L462.95,175.39 C468.54,176.47 473.95,172.82 475.04,167.23 Z" style="stroke-width: 2px; stroke: rgb(0, 0, 0); fill: rgb(255, 255, 255); fill-opacity: 1;"/></g><g class="composite-shape"><path class="real" d=" M152.91,47.6 C154,41.97 150.32,36.52 144.7,35.43 L114.12,29.51 C108.5,28.42 103.05,32.1 101.96,37.73 L80.11,150.59 C79.02,156.22 82.7,161.66 88.32,162.75 L118.89,168.67 C124.52,169.76 129.97,166.08 131.06,160.45 Z" style="stroke-width: 2px; stroke: rgb(144, 19, 254); stroke-opacity: 1; fill: rgb(255, 255, 255); fill-opacity: 1;"/></g><g class="composite-shape"><path class="real" d=" M406.6,54.81 C407.4,50.67 404.7,46.66 400.55,45.86 L378.05,41.5 C373.91,40.7 369.9,43.41 369.1,47.55 L354.07,125.19 C353.26,129.33 355.97,133.34 360.11,134.14 L382.61,138.5 C386.76,139.3 390.76,136.59 391.57,132.45 Z" style="stroke-width: 2px; stroke: rgb(0, 0, 0); fill: rgb(255, 255, 255); fill-opacity: 1;"/></g><g class="composite-shape"><path class="real" d=" M11.33,31 C11.33,22.16 18.5,15 27.33,15 C36.17,15 43.33,22.16 43.33,31 C43.33,39.84 36.17,47 27.33,47 C18.5,47 11.33,39.84 11.33,31 Z" style="stroke-width: 1px; stroke: none; stroke-opacity: 1; fill: rgb(189, 16, 224); fill-opacity: 1;"/></g><g class="composite-shape"><path class="real" d=" M62.77,48.01 C63.61,43.67 60.77,39.47 56.43,38.63 L32.85,34.06 C28.5,33.22 24.3,36.06 23.46,40.4 L8.57,117.32 C7.73,121.66 10.56,125.86 14.91,126.7 L38.49,131.27 C42.83,132.11 47.03,129.27 47.87,124.93 Z" style="stroke-width: 2px; stroke: rgb(0, 0, 0); fill: rgb(255, 255, 255); fill-opacity: 1;"/></g><g class="arrow-line"><path class="connection real" stroke-dasharray="" d="  M130.33,54.67 C159.41,32.13 174.71,31.04 216.73,36.96" style="stroke: rgb(155, 155, 155); stroke-opacity: 0.5; stroke-width: 1px; fill: none; fill-opacity: 1;"/><g stroke="none" fill="rgb(155,155,155)" fill-opacity="0.5" transform="matrix(-0.9898011092775263,-0.14245618299315246,0.14245618299315246,-0.9898011092775263,219.33333333333343,37.333333333333314)" style="stroke: none; fill: rgb(155, 155, 155); stroke-width: 1px;"><path d=" M10.72,-5.15 L0,0 L10.72,5.15 L7.12,0 Z"/></g></g><g class="arrow-line"><path class="connection real" stroke-dasharray="" d="  M103.67,135.33 C132.74,112.79 155.73,101.46 198.05,106.97" style="stroke: rgb(155, 155, 155); stroke-opacity: 0.5; stroke-width: 1px; fill: none; fill-opacity: 1;"/><g stroke="none" fill="rgb(155,155,155)" fill-opacity="0.5" transform="matrix(-0.9898011092775263,-0.14245618299315246,0.14245618299315246,-0.9898011092775263,200.66666666666677,107.33333333333331)" style="stroke: none; fill: rgb(155, 155, 155); stroke-width: 1px;"><path d=" M10.72,-5.15 L0,0 L10.72,5.15 L7.12,0 Z"/></g></g><g class="arrow-line"><path class="connection real" stroke-dasharray="" d="  M103.67,135.33 C135.35,159.83 135.99,160.96 177.41,166.96" style="stroke: rgb(155, 155, 155); stroke-opacity: 0.5; stroke-width: 1px; fill: none; fill-opacity: 1;"/><g stroke="none" fill="rgb(155,155,155)" fill-opacity="0.5" transform="matrix(-0.9898011092775263,-0.14245618299315246,0.14245618299315246,-0.9898011092775263,180,167.33333333333334)" style="stroke: none; fill: rgb(155, 155, 155); stroke-width: 1px;"><path d=" M10.72,-5.15 L0,0 L10.72,5.15 L7.12,0 Z"/></g></g><g class="arrow-line"><path class="connection real" stroke-dasharray="" d="  M35.67,82.67 C51.59,56.34 77.34,55.05 110.13,54.69" style="stroke: rgb(155, 155, 155); stroke-opacity: 0.5; stroke-width: 1px; fill: none; fill-opacity: 1;"/><g stroke="none" fill="rgb(155,155,155)" fill-opacity="0.5" transform="matrix(-0.9999522363688097,0.009773688199248792,-0.009773688199248792,-0.9999522363688097,112.66666666666669,54.66666666666664)" style="stroke: none; fill: rgb(155, 155, 155); stroke-width: 1px;"><path d=" M10.72,-5.15 L0,0 L10.72,5.15 L7.12,0 Z"/></g></g><g class="arrow-line"><path class="connection real" stroke-dasharray="" d="  M35.67,82.67 C38.61,117.62 45.07,128.56 83.6,134.95" style="stroke: rgb(155, 155, 155); stroke-opacity: 0.5; stroke-width: 1px; fill: none; fill-opacity: 1;"/><g stroke="none" fill="rgb(155,155,155)" fill-opacity="0.5" transform="matrix(-0.9880944998464435,-0.15384816987278965,0.15384816987278965,-0.9880944998464435,86.00000000000003,135.3333333333333)" style="stroke: none; fill: rgb(155, 155, 155); stroke-width: 1px;"><path d=" M10.72,-5.15 L0,0 L10.72,5.15 L7.12,0 Z"/></g></g><g class="composite-shape"><path class="real" d=" M18,82.67 C18,72.91 25.91,65 35.67,65 C45.42,65 53.33,72.91 53.33,82.67 C53.33,92.42 45.42,100.33 35.67,100.33 C25.91,100.33 18,92.42 18,82.67 Z" style="stroke-width: 1px; stroke: rgb(155, 155, 155); stroke-opacity: 0.5; fill: rgb(255, 255, 255); fill-opacity: 1;"/></g><g class="composite-shape"><path class="real" d=" M86,135.33 C86,125.58 93.91,117.67 103.67,117.67 C113.42,117.67 121.33,125.58 121.33,135.33 C121.33,145.09 113.42,153 103.67,153 C93.91,153 86,145.09 86,135.33 Z" style="stroke-width: 1px; stroke: rgb(155, 155, 155); stroke-opacity: 0.5; fill: rgb(255, 255, 255); fill-opacity: 1;"/></g><g class="composite-shape"><path class="real" d=" M112.67,54.67 C112.67,44.91 120.58,37 130.33,37 C140.09,37 148,44.91 148,54.67 C148,64.42 140.09,72.33 130.33,72.33 C120.58,72.33 112.67,64.42 112.67,54.67 Z" style="stroke-width: 1px; stroke: rgb(155, 155, 155); stroke-opacity: 0.5; fill: rgb(255, 255, 255); fill-opacity: 1;"/></g><g class="composite-shape"><path class="real" d=" M180,167.33 C180,157.58 187.91,149.67 197.67,149.67 C207.42,149.67 215.33,157.58 215.33,167.33 C215.33,177.09 207.42,185 197.67,185 C187.91,185 180,177.09 180,167.33 Z" style="stroke-width: 1px; stroke: rgb(155, 155, 155); stroke-opacity: 0.5; fill: rgb(255, 255, 255); fill-opacity: 1;"/></g><g class="composite-shape"><path class="real" d=" M200.67,107.33 C200.67,97.58 208.58,89.67 218.33,89.67 C228.09,89.67 236,97.58 236,107.33 C236,117.09 228.09,125 218.33,125 C208.58,125 200.67,117.09 200.67,107.33 Z" style="stroke-width: 1px; stroke: rgb(155, 155, 155); stroke-opacity: 0.5; fill: rgb(255, 255, 255); fill-opacity: 1;"/></g><g class="composite-shape"><path class="real" d=" M219.33,37.33 C219.33,27.58 227.24,19.67 237,19.67 C246.76,19.67 254.67,27.58 254.67,37.33 C254.67,47.09 246.76,55 237,55 C227.24,55 219.33,47.09 219.33,37.33 Z" style="stroke-width: 1px; stroke: rgb(155, 155, 155); stroke-opacity: 0.5; fill: rgb(255, 255, 255); fill-opacity: 1;"/></g><g class="arrow-line"><path class="connection real" stroke-dasharray="" d="  M475,62 C504.07,39.46 519.38,38.37 561.39,44.3" style="stroke: rgb(155, 155, 155); stroke-opacity: 0.5; stroke-width: 1px; fill: none; fill-opacity: 1;"/><g stroke="none" fill="rgb(155,155,155)" fill-opacity="0.5" transform="matrix(-0.9898011092775263,-0.14245618299315246,0.14245618299315246,-0.9898011092775263,564,44.66666666666666)" style="stroke: none; fill: rgb(155, 155, 155); stroke-width: 1px;"><path d=" M10.72,-5.15 L0,0 L10.72,5.15 L7.12,0 Z"/></g></g><g class="arrow-line"><path class="connection real" stroke-dasharray="" d="  M448.33,142.67 C477.41,120.13 500.4,108.79 542.72,114.31" style="stroke: rgb(155, 155, 155); stroke-opacity: 0.5; stroke-width: 1px; fill: none; fill-opacity: 1;"/><g stroke="none" fill="rgb(155,155,155)" fill-opacity="0.5" transform="matrix(-0.9898011092775263,-0.14245618299315246,0.14245618299315246,-0.9898011092775263,545.3333333333333,114.66666666666666)" style="stroke: none; fill: rgb(155, 155, 155); stroke-width: 1px;"><path d=" M10.72,-5.15 L0,0 L10.72,5.15 L7.12,0 Z"/></g></g><g class="arrow-line"><path class="connection real" stroke-dasharray="" d="  M448.33,142.67 C480.02,167.17 480.65,168.3 522.08,174.29" style="stroke: rgb(155, 155, 155); stroke-opacity: 0.5; stroke-width: 1px; fill: none; fill-opacity: 1;"/><g stroke="none" fill="rgb(155,155,155)" fill-opacity="0.5" transform="matrix(-0.9898011092775263,-0.14245618299315246,0.14245618299315246,-0.9898011092775263,524.6666666666665,174.66666666666663)" style="stroke: none; fill: rgb(155, 155, 155); stroke-width: 1px;"><path d=" M10.72,-5.15 L0,0 L10.72,5.15 L7.12,0 Z"/></g></g><g class="arrow-line"><path class="connection real" stroke-dasharray="1.125 3.35" d="  M380.33,90 C396.26,63.67 422.01,62.38 454.8,62.03" style="stroke: rgb(155, 155, 155); stroke-opacity: 0.5; stroke-width: 1px; fill: none; fill-opacity: 1;"/><g stroke="none" fill="rgb(155,155,155)" fill-opacity="0.5" transform="matrix(-0.9999522363688097,0.009773688199248792,-0.009773688199248792,-0.9999522363688097,457.33333333333337,61.999999999999964)" style="stroke: none; fill: rgb(155, 155, 155); stroke-width: 1px;"><path d=" M10.72,-5.15 L0,0 L10.72,5.15 L7.12,0 Z"/></g></g><g class="arrow-line"><path class="connection real" stroke-dasharray="1.125 3.35" d="  M380.33,90 C383.27,124.95 389.73,135.9 428.27,142.28" style="stroke: rgb(155, 155, 155); stroke-opacity: 0.5; stroke-width: 1px; fill: none; fill-opacity: 1;"/><g stroke="none" fill="rgb(155,155,155)" fill-opacity="0.5" transform="matrix(-0.9880944998464435,-0.15384816987278965,0.15384816987278965,-0.9880944998464435,430.66666666666663,142.66666666666663)" style="stroke: none; fill: rgb(155, 155, 155); stroke-width: 1px;"><path d=" M10.72,-5.15 L0,0 L10.72,5.15 L7.12,0 Z"/></g></g><g class="composite-shape"><path class="real" d=" M362.67,90 C362.67,80.24 370.58,72.33 380.33,72.33 C390.09,72.33 398,80.24 398,90 C398,99.76 390.09,107.67 380.33,107.67 C370.58,107.67 362.67,99.76 362.67,90 Z" style="stroke-width: 1px; stroke: rgb(155, 155, 155); stroke-opacity: 0.5; fill: rgb(255, 255, 255); fill-opacity: 1;"/></g><g class="composite-shape"><path class="real" d=" M430.67,142.67 C430.67,132.91 438.58,125 448.33,125 C458.09,125 466,132.91 466,142.67 C466,152.42 458.09,160.33 448.33,160.33 C438.58,160.33 430.67,152.42 430.67,142.67 Z" style="stroke-width: 1px; stroke: rgb(155, 155, 155); stroke-opacity: 0.5; fill: rgb(255, 255, 255); fill-opacity: 1;"/></g><g class="composite-shape"><path class="real" d=" M457.33,62 C457.33,52.24 465.24,44.33 475,44.33 C484.76,44.33 492.67,52.24 492.67,62 C492.67,71.76 484.76,79.67 475,79.67 C465.24,79.67 457.33,71.76 457.33,62 Z" style="stroke-width: 1px; stroke: rgb(155, 155, 155); stroke-opacity: 0.5; fill: rgb(255, 255, 255); fill-opacity: 1;"/></g><g class="composite-shape"><path class="real" d=" M524.67,174.67 C524.67,164.91 532.58,157 542.33,157 C552.09,157 560,164.91 560,174.67 C560,184.42 552.09,192.33 542.33,192.33 C532.58,192.33 524.67,184.42 524.67,174.67 Z" style="stroke-width: 1px; stroke: rgb(155, 155, 155); stroke-opacity: 0.5; fill: rgb(255, 255, 255); fill-opacity: 1;"/></g><g class="composite-shape"><path class="real" d=" M545.33,114.67 C545.33,104.91 553.24,97 563,97 C572.76,97 580.67,104.91 580.67,114.67 C580.67,124.42 572.76,132.33 563,132.33 C553.24,132.33 545.33,124.42 545.33,114.67 Z" style="stroke-width: 1px; stroke: rgb(155, 155, 155); stroke-opacity: 0.5; fill: rgb(255, 255, 255); fill-opacity: 1;"/></g><g class="composite-shape"><path class="real" d=" M564,44.67 C564,34.91 571.91,27 581.67,27 C591.42,27 599.33,34.91 599.33,44.67 C599.33,54.42 591.42,62.33 581.67,62.33 C571.91,62.33 564,54.42 564,44.67 Z" style="stroke-width: 1px; stroke: rgb(155, 155, 155); stroke-opacity: 0.5; fill: rgb(255, 255, 255); fill-opacity: 1;"/></g><g class="composite-shape"><path class="real" d=" M264.67,85.67 L304,85.67 L304,76 L334.67,96 L304,116 L304,106.33 L264.67,106.33 Z" style="stroke-width: 1px; stroke: rgb(0, 104, 255); stroke-opacity: 1; fill: rgb(0, 104, 255); fill-opacity: 0.19;"/></g><g class="arrow-line"><path class="connection real" stroke-dasharray="1.125 3.35" d="  M228.33,280.67 C257.41,258.13 272.71,257.04 314.73,262.96" style="stroke: rgb(155, 155, 155); stroke-opacity: 0.5; stroke-width: 1px; fill: none; fill-opacity: 1;"/><g stroke="none" fill="rgb(155,155,155)" fill-opacity="0.5" transform="matrix(-0.9898011092775263,-0.14245618299315246,0.14245618299315246,-0.9898011092775263,317.33333333333326,263.33333333333337)" style="stroke: none; fill: rgb(155, 155, 155); stroke-width: 1px;"><path d=" M10.72,-5.15 L0,0 L10.72,5.15 L7.12,0 Z"/></g></g><g class="arrow-line"><path class="connection real" stroke-dasharray="1.125 3.35" d="  M201.67,361.33 C230.74,338.79 253.73,327.46 296.05,332.97" style="stroke: rgb(155, 155, 155); stroke-opacity: 0.5; stroke-width: 1px; fill: none; fill-opacity: 1;"/><g stroke="none" fill="rgb(155,155,155)" fill-opacity="0.5" transform="matrix(-0.9898011092775263,-0.14245618299315246,0.14245618299315246,-0.9898011092775263,298.6666666666667,333.33333333333326)" style="stroke: none; fill: rgb(155, 155, 155); stroke-width: 1px;"><path d=" M10.72,-5.15 L0,0 L10.72,5.15 L7.12,0 Z"/></g></g><g class="arrow-line"><path class="connection real" stroke-dasharray="1.125 3.35" d="  M201.67,361.33 C233.35,385.83 233.99,386.96 275.41,392.96" style="stroke: rgb(155, 155, 155); stroke-opacity: 0.5; stroke-width: 1px; fill: none; fill-opacity: 1;"/><g stroke="none" fill="rgb(155,155,155)" fill-opacity="0.5" transform="matrix(-0.9898011092775263,-0.14245618299315246,0.14245618299315246,-0.9898011092775263,277.9999999999999,393.33333333333326)" style="stroke: none; fill: rgb(155, 155, 155); stroke-width: 1px;"><path d=" M10.72,-5.15 L0,0 L10.72,5.15 L7.12,0 Z"/></g></g><g class="arrow-line"><path class="connection real" stroke-dasharray="1.125 3.35" d="  M133.67,308.67 C149.59,282.34 175.34,281.05 208.13,280.69" style="stroke: rgb(155, 155, 155); stroke-opacity: 0.5; stroke-width: 1px; fill: none; fill-opacity: 1;"/><g stroke="none" fill="rgb(155,155,155)" fill-opacity="0.5" transform="matrix(-0.9999522363688097,0.009773688199248792,-0.009773688199248792,-0.9999522363688097,210.6666666666666,280.6666666666666)" style="stroke: none; fill: rgb(155, 155, 155); stroke-width: 1px;"><path d=" M10.72,-5.15 L0,0 L10.72,5.15 L7.12,0 Z"/></g></g><g class="arrow-line"><path class="connection real" stroke-dasharray="1.125 3.35" d="  M133.67,308.67 C136.61,343.62 143.07,354.56 181.6,360.95" style="stroke: rgb(155, 155, 155); stroke-opacity: 0.5; stroke-width: 1px; fill: none; fill-opacity: 1;"/><g stroke="none" fill="rgb(155,155,155)" fill-opacity="0.5" transform="matrix(-0.9880944998464435,-0.15384816987278965,0.15384816987278965,-0.9880944998464435,183.99999999999994,361.33333333333326)" style="stroke: none; fill: rgb(155, 155, 155); stroke-width: 1px;"><path d=" M10.72,-5.15 L0,0 L10.72,5.15 L7.12,0 Z"/></g></g><g class="composite-shape"><path class="real" d=" M116,308.67 C116,298.91 123.91,291 133.67,291 C143.42,291 151.33,298.91 151.33,308.67 C151.33,318.42 143.42,326.33 133.67,326.33 C123.91,326.33 116,318.42 116,308.67 Z" style="stroke-width: 1px; stroke: rgb(155, 155, 155); stroke-opacity: 0.5; fill: rgb(255, 255, 255); fill-opacity: 1;"/></g><g class="composite-shape"><path class="real" d=" M184,361.33 C184,351.58 191.91,343.67 201.67,343.67 C211.42,343.67 219.33,351.58 219.33,361.33 C219.33,371.09 211.42,379 201.67,379 C191.91,379 184,371.09 184,361.33 Z" style="stroke-width: 1px; stroke: rgb(155, 155, 155); stroke-opacity: 0.5; fill: rgb(255, 255, 255); fill-opacity: 1;"/></g><g class="composite-shape"><path class="real" d=" M210.67,280.67 C210.67,270.91 218.58,263 228.33,263 C238.09,263 246,270.91 246,280.67 C246,290.42 238.09,298.33 228.33,298.33 C218.58,298.33 210.67,290.42 210.67,280.67 Z" style="stroke-width: 1px; stroke: rgb(155, 155, 155); stroke-opacity: 0.5; fill: rgb(255, 255, 255); fill-opacity: 1;"/></g><g class="composite-shape"><path class="real" d=" M278,393.33 C278,383.58 285.91,375.67 295.67,375.67 C305.42,375.67 313.33,383.58 313.33,393.33 C313.33,403.09 305.42,411 295.67,411 C285.91,411 278,403.09 278,393.33 Z" style="stroke-width: 1px; stroke: rgb(155, 155, 155); stroke-opacity: 0.5; fill: rgb(255, 255, 255); fill-opacity: 1;"/></g><g class="composite-shape"><path class="real" d=" M298.67,333.33 C298.67,323.58 306.58,315.67 316.33,315.67 C326.09,315.67 334,323.58 334,333.33 C334,343.09 326.09,351 316.33,351 C306.58,351 298.67,343.09 298.67,333.33 Z" style="stroke-width: 1px; stroke: rgb(155, 155, 155); stroke-opacity: 0.5; fill: rgb(255, 255, 255); fill-opacity: 1;"/></g><g class="composite-shape"><path class="real" d=" M317.33,263.33 C317.33,253.58 325.24,245.67 335,245.67 C344.76,245.67 352.67,253.58 352.67,263.33 C352.67,273.09 344.76,281 335,281 C325.24,281 317.33,273.09 317.33,263.33 Z" style="stroke-width: 1px; stroke: rgb(155, 155, 155); stroke-opacity: 0.5; fill: rgb(255, 255, 255); fill-opacity: 1;"/></g><g class="composite-shape"><path class="real" d=" M425.77,199.99 L397.88,227.72 L404.69,234.57 L368.84,242.01 L376.49,206.2 L383.31,213.06 L411.2,185.33 Z" style="stroke-width: 1px; stroke: rgb(0, 104, 255); stroke-opacity: 1; fill: rgb(0, 104, 255); fill-opacity: 0.19;"/></g><g class="composite-shape"><path class="real" d=" M203.81,107.33 C203.81,99.31 210.31,92.81 218.33,92.81 C226.35,92.81 232.85,99.31 232.85,107.33 C232.85,115.35 226.35,121.85 218.33,121.85 C210.31,121.85 203.81,115.35 203.81,107.33 Z" style="stroke-width: 1px; stroke: rgb(155, 155, 155); stroke-opacity: 0.5; fill: rgb(255, 255, 255); fill-opacity: 1;"/></g><g class="composite-shape"><path class="real" d=" M548.48,114.67 C548.48,106.65 554.98,100.15 563,100.15 C571.02,100.15 577.52,106.65 577.52,114.67 C577.52,122.69 571.02,129.19 563,129.19 C554.98,129.19 548.48,122.69 548.48,114.67 Z" style="stroke-width: 1px; stroke: rgb(155, 155, 155); stroke-opacity: 0.5; fill: rgb(255, 255, 255); fill-opacity: 1;"/></g><g class="composite-shape"><path class="real" d=" M301.81,333.33 C301.81,325.31 308.31,318.81 316.33,318.81 C324.35,318.81 330.85,325.31 330.85,333.33 C330.85,341.35 324.35,347.85 316.33,347.85 C308.31,347.85 301.81,341.35 301.81,333.33 Z" style="stroke-width: 1px; stroke: rgb(155, 155, 155); stroke-opacity: 0.5; fill: rgb(255, 255, 255); fill-opacity: 1;"/></g><g/></g><g/><g/><g/></svg>
        <svg xmlns="http://www.w3.org/2000/svg" xmlns:xlink="http://www.w3.org/1999/xlink" width="646" height="427.33331298828125" style="width:646px;height:427.33331298828125px;font-family:LatinModern-Math, LatinModern, Asana-Math, Asana;background:transparent;"><g><g><g><g transform="matrix(1,0,0,1,28.33331298828125,86.69998168945312)"><path transform="matrix(0.017,0,0,-0.017,0,0)" d="M527 376C527 428 468 442 434 442C376 442 341 389 329 366C304 432 250 442 221 442C117 442 60 313 60 288C60 278 72 278 72 278C80 278 83 280 85 289C119 395 185 420 219 420C238 420 273 411 273 353C273 322 256 255 219 115C203 53 168 11 124 11C118 11 95 11 74 24C99 29 121 50 121 78C121 105 99 113 84 113C54 113 29 87 29 55C29 9 79 -11 123 -11C189 -11 225 59 228 65C240 28 276 -11 336 -11C439 -11 496 118 496 143C496 153 487 153 484 153C475 153 473 149 471 142C438 35 370 11 338 11C299 11 283 43 283 77C283 99 289 121 300 165L334 302C340 328 363 420 433 420C438 420 462 420 483 407C455 402 435 377 435 353C435 337 446 318 473 318C495 318 527 336 527 376Z" stroke="rgb(0,0,0)" stroke-opacity="1" stroke-width="8" fill="rgb(0,0,0)" fill-opacity="1"></path></g></g><g><g><g><g><g transform="matrix(1,0,0,1,38.566650390625,89.9999755859375)"><path transform="matrix(0.0119,0,0,-0.0119,0,0)" d="M460 320C460 400 455 480 420 554C374 650 292 666 250 666C190 666 117 640 76 547C44 478 39 400 39 320C39 245 43 155 84 79C127 -2 200 -22 249 -22C303 -22 379 -1 423 94C455 163 460 241 460 320ZM377 332C377 257 377 189 366 125C351 30 294 0 249 0C210 0 151 25 133 121C122 181 122 273 122 332C122 396 122 462 130 516C149 635 224 644 249 644C282 644 348 626 367 527C377 471 377 395 377 332Z" stroke="rgb(0,0,0)" stroke-opacity="1" stroke-width="8" fill="rgb(0,0,0)" fill-opacity="1"></path></g></g></g></g></g></g></g><g><g><g><g transform="matrix(1,0,0,1,96.33331298828125,139.36663818359375)"><path transform="matrix(0.017,0,0,-0.017,0,0)" d="M527 376C527 428 468 442 434 442C376 442 341 389 329 366C304 432 250 442 221 442C117 442 60 313 60 288C60 278 72 278 72 278C80 278 83 280 85 289C119 395 185 420 219 420C238 420 273 411 273 353C273 322 256 255 219 115C203 53 168 11 124 11C118 11 95 11 74 24C99 29 121 50 121 78C121 105 99 113 84 113C54 113 29 87 29 55C29 9 79 -11 123 -11C189 -11 225 59 228 65C240 28 276 -11 336 -11C439 -11 496 118 496 143C496 153 487 153 484 153C475 153 473 149 471 142C438 35 370 11 338 11C299 11 283 43 283 77C283 99 289 121 300 165L334 302C340 328 363 420 433 420C438 420 462 420 483 407C455 402 435 377 435 353C435 337 446 318 473 318C495 318 527 336 527 376Z" stroke="rgb(0,0,0)" stroke-opacity="1" stroke-width="8" fill="rgb(0,0,0)" fill-opacity="1"></path></g></g><g><g><g><g><g transform="matrix(1,0,0,1,106.566650390625,142.66666259765626)"><path transform="matrix(0.0119,0,0,-0.0119,0,0)" d="M419 0L419 31L387 31C297 31 294 42 294 79L294 640C294 664 294 666 271 666C209 602 121 602 89 602L89 571C109 571 168 571 220 597L220 79C220 43 217 31 127 31L95 31L95 0C130 3 217 3 257 3C297 3 384 3 419 0Z" stroke="rgb(0,0,0)" stroke-opacity="1" stroke-width="8" fill="rgb(0,0,0)" fill-opacity="1"></path></g></g></g></g></g></g></g><g><g><g><g transform="matrix(1,0,0,1,123,58.699981689453125)"><path transform="matrix(0.017,0,0,-0.017,0,0)" d="M527 376C527 428 468 442 434 442C376 442 341 389 329 366C304 432 250 442 221 442C117 442 60 313 60 288C60 278 72 278 72 278C80 278 83 280 85 289C119 395 185 420 219 420C238 420 273 411 273 353C273 322 256 255 219 115C203 53 168 11 124 11C118 11 95 11 74 24C99 29 121 50 121 78C121 105 99 113 84 113C54 113 29 87 29 55C29 9 79 -11 123 -11C189 -11 225 59 228 65C240 28 276 -11 336 -11C439 -11 496 118 496 143C496 153 487 153 484 153C475 153 473 149 471 142C438 35 370 11 338 11C299 11 283 43 283 77C283 99 289 121 300 165L334 302C340 328 363 420 433 420C438 420 462 420 483 407C455 402 435 377 435 353C435 337 446 318 473 318C495 318 527 336 527 376Z" stroke="rgb(0,0,0)" stroke-opacity="1" stroke-width="8" fill="rgb(0,0,0)" fill-opacity="1"></path></g></g><g><g><g><g><g transform="matrix(1,0,0,1,133.23333740234375,61.9999755859375)"><path transform="matrix(0.0119,0,0,-0.0119,0,0)" d="M449 174L424 174C419 144 412 100 402 85C395 77 329 77 307 77L127 77L233 180C389 318 449 372 449 472C449 586 359 666 237 666C124 666 50 574 50 485C50 429 100 429 103 429C120 429 155 441 155 482C155 508 137 534 102 534C94 534 92 534 89 533C112 598 166 635 224 635C315 635 358 554 358 472C358 392 308 313 253 251L61 37C50 26 50 24 50 0L421 0Z" stroke="rgb(0,0,0)" stroke-opacity="1" stroke-width="8" fill="rgb(0,0,0)" fill-opacity="1"></path></g></g></g></g></g></g></g><g><g><g><g transform="matrix(1,0,0,1,190.33331298828125,171.36663818359375)"><path transform="matrix(0.017,0,0,-0.017,0,0)" d="M527 376C527 428 468 442 434 442C376 442 341 389 329 366C304 432 250 442 221 442C117 442 60 313 60 288C60 278 72 278 72 278C80 278 83 280 85 289C119 395 185 420 219 420C238 420 273 411 273 353C273 322 256 255 219 115C203 53 168 11 124 11C118 11 95 11 74 24C99 29 121 50 121 78C121 105 99 113 84 113C54 113 29 87 29 55C29 9 79 -11 123 -11C189 -11 225 59 228 65C240 28 276 -11 336 -11C439 -11 496 118 496 143C496 153 487 153 484 153C475 153 473 149 471 142C438 35 370 11 338 11C299 11 283 43 283 77C283 99 289 121 300 165L334 302C340 328 363 420 433 420C438 420 462 420 483 407C455 402 435 377 435 353C435 337 446 318 473 318C495 318 527 336 527 376Z" stroke="rgb(0,0,0)" stroke-opacity="1" stroke-width="8" fill="rgb(0,0,0)" fill-opacity="1"></path></g></g><g><g><g><g><g transform="matrix(1,0,0,1,200.566650390625,174.66666259765626)"><path transform="matrix(0.0119,0,0,-0.0119,0,0)" d="M457 171C457 253 394 331 290 352C372 379 430 449 430 528C430 610 342 666 246 666C145 666 69 606 69 530C69 497 91 478 120 478C151 478 171 500 171 529C171 579 124 579 109 579C140 628 206 641 242 641C283 641 338 619 338 529C338 517 336 459 310 415C280 367 246 364 221 363C213 362 189 360 182 360C174 359 167 358 167 348C167 337 174 337 191 337L235 337C317 337 354 269 354 171C354 35 285 6 241 6C198 6 123 23 88 82C123 77 154 99 154 137C154 173 127 193 98 193C74 193 42 179 42 135C42 44 135 -22 244 -22C366 -22 457 69 457 171Z" stroke="rgb(0,0,0)" stroke-opacity="1" stroke-width="8" fill="rgb(0,0,0)" fill-opacity="1"></path></g></g></g></g></g></g></g><g><g><g><g transform="matrix(1,0,0,1,211,111.36663818359375)"><path transform="matrix(0.017,0,0,-0.017,0,0)" d="M527 376C527 428 468 442 434 442C376 442 341 389 329 366C304 432 250 442 221 442C117 442 60 313 60 288C60 278 72 278 72 278C80 278 83 280 85 289C119 395 185 420 219 420C238 420 273 411 273 353C273 322 256 255 219 115C203 53 168 11 124 11C118 11 95 11 74 24C99 29 121 50 121 78C121 105 99 113 84 113C54 113 29 87 29 55C29 9 79 -11 123 -11C189 -11 225 59 228 65C240 28 276 -11 336 -11C439 -11 496 118 496 143C496 153 487 153 484 153C475 153 473 149 471 142C438 35 370 11 338 11C299 11 283 43 283 77C283 99 289 121 300 165L334 302C340 328 363 420 433 420C438 420 462 420 483 407C455 402 435 377 435 353C435 337 446 318 473 318C495 318 527 336 527 376Z" stroke="rgb(0,0,0)" stroke-opacity="1" stroke-width="8" fill="rgb(0,0,0)" fill-opacity="1"></path></g></g><g><g><g><g><g transform="matrix(1,0,0,1,221.23333740234375,114.66666259765626)"><path transform="matrix(0.0119,0,0,-0.0119,0,0)" d="M471 165L471 196L371 196L371 651C371 671 371 677 355 677C346 677 343 677 335 665L28 196L28 165L294 165L294 78C294 42 292 31 218 31L197 31L197 0C238 3 290 3 332 3C374 3 427 3 468 0L468 31L447 31C373 31 371 42 371 78L371 165ZM300 196L56 196L300 569Z" stroke="rgb(0,0,0)" stroke-opacity="1" stroke-width="8" fill="rgb(0,0,0)" fill-opacity="1"></path></g></g></g></g></g></g></g><g><g><g><g transform="matrix(1,0,0,1,229.66668701171875,41.36663818359375)"><path transform="matrix(0.017,0,0,-0.017,0,0)" d="M527 376C527 428 468 442 434 442C376 442 341 389 329 366C304 432 250 442 221 442C117 442 60 313 60 288C60 278 72 278 72 278C80 278 83 280 85 289C119 395 185 420 219 420C238 420 273 411 273 353C273 322 256 255 219 115C203 53 168 11 124 11C118 11 95 11 74 24C99 29 121 50 121 78C121 105 99 113 84 113C54 113 29 87 29 55C29 9 79 -11 123 -11C189 -11 225 59 228 65C240 28 276 -11 336 -11C439 -11 496 118 496 143C496 153 487 153 484 153C475 153 473 149 471 142C438 35 370 11 338 11C299 11 283 43 283 77C283 99 289 121 300 165L334 302C340 328 363 420 433 420C438 420 462 420 483 407C455 402 435 377 435 353C435 337 446 318 473 318C495 318 527 336 527 376Z" stroke="rgb(0,0,0)" stroke-opacity="1" stroke-width="8" fill="rgb(0,0,0)" fill-opacity="1"></path></g></g><g><g><g><g><g transform="matrix(1,0,0,1,239.9000244140625,44.66666259765625)"><path transform="matrix(0.0119,0,0,-0.0119,0,0)" d="M449 201C449 320 367 420 259 420C211 420 168 404 132 369L132 564C152 558 185 551 217 551C340 551 410 642 410 655C410 661 407 666 400 666C400 666 397 666 392 663C372 654 323 634 256 634C216 634 170 641 123 662C115 665 111 665 111 665C101 665 101 657 101 641L101 345C101 327 101 319 115 319C122 319 124 322 128 328C139 344 176 398 257 398C309 398 334 352 342 334C358 297 360 258 360 208C360 173 360 113 336 71C312 32 275 6 229 6C156 6 99 59 82 118C85 117 88 116 99 116C132 116 149 141 149 165C149 189 132 214 99 214C85 214 50 207 50 161C50 75 119 -22 231 -22C347 -22 449 74 449 201Z" stroke="rgb(0,0,0)" stroke-opacity="1" stroke-width="8" fill="rgb(0,0,0)" fill-opacity="1"></path></g></g></g></g></g></g></g><g><g><g><g transform="matrix(1,0,0,1,64.33331298828125,83.69998168945312)"><path transform="matrix(0.017,0,0,-0.017,0,0)" d="M498 143C498 153 489 153 486 153C476 153 475 149 472 135C455 70 437 11 396 11C369 11 366 37 366 57C366 79 368 87 379 131L401 221L437 361C444 389 444 391 444 395C444 412 432 422 415 422C391 422 376 400 373 378C355 415 326 442 281 442C164 442 40 295 40 149C40 55 95 -11 173 -11C193 -11 243 -7 303 64C311 22 346 -11 394 -11C429 -11 452 12 468 44C485 80 498 143 498 143ZM361 332C361 326 359 320 358 315L308 119C303 101 303 99 288 82C244 27 203 11 175 11C125 11 111 66 111 105C111 155 143 278 166 324C197 383 242 420 282 420C347 420 361 338 361 332Z" stroke="rgb(0,0,0)" stroke-opacity="1" stroke-width="8" fill="rgb(0,0,0)" fill-opacity="1"></path></g></g></g></g><g><g><g><g transform="matrix(1,0,0,1,373,94.0333251953125)"><path transform="matrix(0.017,0,0,-0.017,0,0)" d="M527 376C527 428 468 442 434 442C376 442 341 389 329 366C304 432 250 442 221 442C117 442 60 313 60 288C60 278 72 278 72 278C80 278 83 280 85 289C119 395 185 420 219 420C238 420 273 411 273 353C273 322 256 255 219 115C203 53 168 11 124 11C118 11 95 11 74 24C99 29 121 50 121 78C121 105 99 113 84 113C54 113 29 87 29 55C29 9 79 -11 123 -11C189 -11 225 59 228 65C240 28 276 -11 336 -11C439 -11 496 118 496 143C496 153 487 153 484 153C475 153 473 149 471 142C438 35 370 11 338 11C299 11 283 43 283 77C283 99 289 121 300 165L334 302C340 328 363 420 433 420C438 420 462 420 483 407C455 402 435 377 435 353C435 337 446 318 473 318C495 318 527 336 527 376Z" stroke="rgb(0,0,0)" stroke-opacity="1" stroke-width="8" fill="rgb(0,0,0)" fill-opacity="1"></path></g></g><g><g><g><g><g transform="matrix(1,0,0,1,383.2333984375,97.33331909179688)"><path transform="matrix(0.0119,0,0,-0.0119,0,0)" d="M460 320C460 400 455 480 420 554C374 650 292 666 250 666C190 666 117 640 76 547C44 478 39 400 39 320C39 245 43 155 84 79C127 -2 200 -22 249 -22C303 -22 379 -1 423 94C455 163 460 241 460 320ZM377 332C377 257 377 189 366 125C351 30 294 0 249 0C210 0 151 25 133 121C122 181 122 273 122 332C122 396 122 462 130 516C149 635 224 644 249 644C282 644 348 626 367 527C377 471 377 395 377 332Z" stroke="rgb(0,0,0)" stroke-opacity="1" stroke-width="8" fill="rgb(0,0,0)" fill-opacity="1"></path></g></g></g></g></g></g></g><g><g><g><g transform="matrix(1,0,0,1,287.66668701171875,99.69998168945312)"><path transform="matrix(0.017,0,0,-0.017,0,0)" d="M498 143C498 153 489 153 486 153C476 153 475 149 472 135C455 70 437 11 396 11C369 11 366 37 366 57C366 79 368 87 379 131L401 221L437 361C444 389 444 391 444 395C444 412 432 422 415 422C391 422 376 400 373 378C355 415 326 442 281 442C164 442 40 295 40 149C40 55 95 -11 173 -11C193 -11 243 -7 303 64C311 22 346 -11 394 -11C429 -11 452 12 468 44C485 80 498 143 498 143ZM361 332C361 326 359 320 358 315L308 119C303 101 303 99 288 82C244 27 203 11 175 11C125 11 111 66 111 105C111 155 143 278 166 324C197 383 242 420 282 420C347 420 361 338 361 332Z" stroke="rgb(0,0,0)" stroke-opacity="1" stroke-width="8" fill="rgb(0,0,0)" fill-opacity="1"></path></g></g></g></g><g><g><g><g transform="matrix(1,0,0,1,441,147.36663818359375)"><path transform="matrix(0.017,0,0,-0.017,0,0)" d="M527 376C527 428 468 442 434 442C376 442 341 389 329 366C304 432 250 442 221 442C117 442 60 313 60 288C60 278 72 278 72 278C80 278 83 280 85 289C119 395 185 420 219 420C238 420 273 411 273 353C273 322 256 255 219 115C203 53 168 11 124 11C118 11 95 11 74 24C99 29 121 50 121 78C121 105 99 113 84 113C54 113 29 87 29 55C29 9 79 -11 123 -11C189 -11 225 59 228 65C240 28 276 -11 336 -11C439 -11 496 118 496 143C496 153 487 153 484 153C475 153 473 149 471 142C438 35 370 11 338 11C299 11 283 43 283 77C283 99 289 121 300 165L334 302C340 328 363 420 433 420C438 420 462 420 483 407C455 402 435 377 435 353C435 337 446 318 473 318C495 318 527 336 527 376Z" stroke="rgb(0,0,0)" stroke-opacity="1" stroke-width="8" fill="rgb(0,0,0)" fill-opacity="1"></path></g></g><g><g><g><g><g transform="matrix(1,0,0,1,451.2333984375,150.66666259765626)"><path transform="matrix(0.0119,0,0,-0.0119,0,0)" d="M419 0L419 31L387 31C297 31 294 42 294 79L294 640C294 664 294 666 271 666C209 602 121 602 89 602L89 571C109 571 168 571 220 597L220 79C220 43 217 31 127 31L95 31L95 0C130 3 217 3 257 3C297 3 384 3 419 0Z" stroke="rgb(0,0,0)" stroke-opacity="1" stroke-width="8" fill="rgb(0,0,0)" fill-opacity="1"></path></g></g></g></g></g></g></g><g><g><g><g transform="matrix(1,0,0,1,467.6666259765625,66.69998168945312)"><path transform="matrix(0.017,0,0,-0.017,0,0)" d="M527 376C527 428 468 442 434 442C376 442 341 389 329 366C304 432 250 442 221 442C117 442 60 313 60 288C60 278 72 278 72 278C80 278 83 280 85 289C119 395 185 420 219 420C238 420 273 411 273 353C273 322 256 255 219 115C203 53 168 11 124 11C118 11 95 11 74 24C99 29 121 50 121 78C121 105 99 113 84 113C54 113 29 87 29 55C29 9 79 -11 123 -11C189 -11 225 59 228 65C240 28 276 -11 336 -11C439 -11 496 118 496 143C496 153 487 153 484 153C475 153 473 149 471 142C438 35 370 11 338 11C299 11 283 43 283 77C283 99 289 121 300 165L334 302C340 328 363 420 433 420C438 420 462 420 483 407C455 402 435 377 435 353C435 337 446 318 473 318C495 318 527 336 527 376Z" stroke="rgb(0,0,0)" stroke-opacity="1" stroke-width="8" fill="rgb(0,0,0)" fill-opacity="1"></path></g></g><g><g><g><g><g transform="matrix(1,0,0,1,477.9000244140625,69.9999755859375)"><path transform="matrix(0.0119,0,0,-0.0119,0,0)" d="M449 174L424 174C419 144 412 100 402 85C395 77 329 77 307 77L127 77L233 180C389 318 449 372 449 472C449 586 359 666 237 666C124 666 50 574 50 485C50 429 100 429 103 429C120 429 155 441 155 482C155 508 137 534 102 534C94 534 92 534 89 533C112 598 166 635 224 635C315 635 358 554 358 472C358 392 308 313 253 251L61 37C50 26 50 24 50 0L421 0Z" stroke="rgb(0,0,0)" stroke-opacity="1" stroke-width="8" fill="rgb(0,0,0)" fill-opacity="1"></path></g></g></g></g></g></g></g><g><g><g><g transform="matrix(1,0,0,1,535,179.36663818359375)"><path transform="matrix(0.017,0,0,-0.017,0,0)" d="M527 376C527 428 468 442 434 442C376 442 341 389 329 366C304 432 250 442 221 442C117 442 60 313 60 288C60 278 72 278 72 278C80 278 83 280 85 289C119 395 185 420 219 420C238 420 273 411 273 353C273 322 256 255 219 115C203 53 168 11 124 11C118 11 95 11 74 24C99 29 121 50 121 78C121 105 99 113 84 113C54 113 29 87 29 55C29 9 79 -11 123 -11C189 -11 225 59 228 65C240 28 276 -11 336 -11C439 -11 496 118 496 143C496 153 487 153 484 153C475 153 473 149 471 142C438 35 370 11 338 11C299 11 283 43 283 77C283 99 289 121 300 165L334 302C340 328 363 420 433 420C438 420 462 420 483 407C455 402 435 377 435 353C435 337 446 318 473 318C495 318 527 336 527 376Z" stroke="rgb(0,0,0)" stroke-opacity="1" stroke-width="8" fill="rgb(0,0,0)" fill-opacity="1"></path></g></g><g><g><g><g><g transform="matrix(1,0,0,1,545.2333984375,182.66666259765626)"><path transform="matrix(0.0119,0,0,-0.0119,0,0)" d="M457 171C457 253 394 331 290 352C372 379 430 449 430 528C430 610 342 666 246 666C145 666 69 606 69 530C69 497 91 478 120 478C151 478 171 500 171 529C171 579 124 579 109 579C140 628 206 641 242 641C283 641 338 619 338 529C338 517 336 459 310 415C280 367 246 364 221 363C213 362 189 360 182 360C174 359 167 358 167 348C167 337 174 337 191 337L235 337C317 337 354 269 354 171C354 35 285 6 241 6C198 6 123 23 88 82C123 77 154 99 154 137C154 173 127 193 98 193C74 193 42 179 42 135C42 44 135 -22 244 -22C366 -22 457 69 457 171Z" stroke="rgb(0,0,0)" stroke-opacity="1" stroke-width="8" fill="rgb(0,0,0)" fill-opacity="1"></path></g></g></g></g></g></g></g><g><g><g><g transform="matrix(1,0,0,1,555.6666259765625,119.36663818359375)"><path transform="matrix(0.017,0,0,-0.017,0,0)" d="M527 376C527 428 468 442 434 442C376 442 341 389 329 366C304 432 250 442 221 442C117 442 60 313 60 288C60 278 72 278 72 278C80 278 83 280 85 289C119 395 185 420 219 420C238 420 273 411 273 353C273 322 256 255 219 115C203 53 168 11 124 11C118 11 95 11 74 24C99 29 121 50 121 78C121 105 99 113 84 113C54 113 29 87 29 55C29 9 79 -11 123 -11C189 -11 225 59 228 65C240 28 276 -11 336 -11C439 -11 496 118 496 143C496 153 487 153 484 153C475 153 473 149 471 142C438 35 370 11 338 11C299 11 283 43 283 77C283 99 289 121 300 165L334 302C340 328 363 420 433 420C438 420 462 420 483 407C455 402 435 377 435 353C435 337 446 318 473 318C495 318 527 336 527 376Z" stroke="rgb(0,0,0)" stroke-opacity="1" stroke-width="8" fill="rgb(0,0,0)" fill-opacity="1"></path></g></g><g><g><g><g><g transform="matrix(1,0,0,1,565.9000244140625,122.66666259765626)"><path transform="matrix(0.0119,0,0,-0.0119,0,0)" d="M471 165L471 196L371 196L371 651C371 671 371 677 355 677C346 677 343 677 335 665L28 196L28 165L294 165L294 78C294 42 292 31 218 31L197 31L197 0C238 3 290 3 332 3C374 3 427 3 468 0L468 31L447 31C373 31 371 42 371 78L371 165ZM300 196L56 196L300 569Z" stroke="rgb(0,0,0)" stroke-opacity="1" stroke-width="8" fill="rgb(0,0,0)" fill-opacity="1"></path></g></g></g></g></g></g></g><g><g><g><g transform="matrix(1,0,0,1,574.3333740234375,49.36663818359375)"><path transform="matrix(0.017,0,0,-0.017,0,0)" d="M527 376C527 428 468 442 434 442C376 442 341 389 329 366C304 432 250 442 221 442C117 442 60 313 60 288C60 278 72 278 72 278C80 278 83 280 85 289C119 395 185 420 219 420C238 420 273 411 273 353C273 322 256 255 219 115C203 53 168 11 124 11C118 11 95 11 74 24C99 29 121 50 121 78C121 105 99 113 84 113C54 113 29 87 29 55C29 9 79 -11 123 -11C189 -11 225 59 228 65C240 28 276 -11 336 -11C439 -11 496 118 496 143C496 153 487 153 484 153C475 153 473 149 471 142C438 35 370 11 338 11C299 11 283 43 283 77C283 99 289 121 300 165L334 302C340 328 363 420 433 420C438 420 462 420 483 407C455 402 435 377 435 353C435 337 446 318 473 318C495 318 527 336 527 376Z" stroke="rgb(0,0,0)" stroke-opacity="1" stroke-width="8" fill="rgb(0,0,0)" fill-opacity="1"></path></g></g><g><g><g><g><g transform="matrix(1,0,0,1,584.566650390625,52.66666259765625)"><path transform="matrix(0.0119,0,0,-0.0119,0,0)" d="M449 201C449 320 367 420 259 420C211 420 168 404 132 369L132 564C152 558 185 551 217 551C340 551 410 642 410 655C410 661 407 666 400 666C400 666 397 666 392 663C372 654 323 634 256 634C216 634 170 641 123 662C115 665 111 665 111 665C101 665 101 657 101 641L101 345C101 327 101 319 115 319C122 319 124 322 128 328C139 344 176 398 257 398C309 398 334 352 342 334C358 297 360 258 360 208C360 173 360 113 336 71C312 32 275 6 229 6C156 6 99 59 82 118C85 117 88 116 99 116C132 116 149 141 149 165C149 189 132 214 99 214C85 214 50 207 50 161C50 75 119 -22 231 -22C347 -22 449 74 449 201Z" stroke="rgb(0,0,0)" stroke-opacity="1" stroke-width="8" fill="rgb(0,0,0)" fill-opacity="1"></path></g></g></g></g></g></g></g><g><g><g><g transform="matrix(1,0,0,1,126.33331298828125,312.70001220703125)"><path transform="matrix(0.017,0,0,-0.017,0,0)" d="M527 376C527 428 468 442 434 442C376 442 341 389 329 366C304 432 250 442 221 442C117 442 60 313 60 288C60 278 72 278 72 278C80 278 83 280 85 289C119 395 185 420 219 420C238 420 273 411 273 353C273 322 256 255 219 115C203 53 168 11 124 11C118 11 95 11 74 24C99 29 121 50 121 78C121 105 99 113 84 113C54 113 29 87 29 55C29 9 79 -11 123 -11C189 -11 225 59 228 65C240 28 276 -11 336 -11C439 -11 496 118 496 143C496 153 487 153 484 153C475 153 473 149 471 142C438 35 370 11 338 11C299 11 283 43 283 77C283 99 289 121 300 165L334 302C340 328 363 420 433 420C438 420 462 420 483 407C455 402 435 377 435 353C435 337 446 318 473 318C495 318 527 336 527 376Z" stroke="rgb(0,0,0)" stroke-opacity="1" stroke-width="8" fill="rgb(0,0,0)" fill-opacity="1"></path></g></g><g><g><g><g><g transform="matrix(1,0,0,1,136.566650390625,315.9999755859375)"><path transform="matrix(0.0119,0,0,-0.0119,0,0)" d="M460 320C460 400 455 480 420 554C374 650 292 666 250 666C190 666 117 640 76 547C44 478 39 400 39 320C39 245 43 155 84 79C127 -2 200 -22 249 -22C303 -22 379 -1 423 94C455 163 460 241 460 320ZM377 332C377 257 377 189 366 125C351 30 294 0 249 0C210 0 151 25 133 121C122 181 122 273 122 332C122 396 122 462 130 516C149 635 224 644 249 644C282 644 348 626 367 527C377 471 377 395 377 332Z" stroke="rgb(0,0,0)" stroke-opacity="1" stroke-width="8" fill="rgb(0,0,0)" fill-opacity="1"></path></g></g></g></g></g></g></g><g><g><g><g transform="matrix(1,0,0,1,194.33331298828125,366.0333251953125)"><path transform="matrix(0.017,0,0,-0.017,0,0)" d="M527 376C527 428 468 442 434 442C376 442 341 389 329 366C304 432 250 442 221 442C117 442 60 313 60 288C60 278 72 278 72 278C80 278 83 280 85 289C119 395 185 420 219 420C238 420 273 411 273 353C273 322 256 255 219 115C203 53 168 11 124 11C118 11 95 11 74 24C99 29 121 50 121 78C121 105 99 113 84 113C54 113 29 87 29 55C29 9 79 -11 123 -11C189 -11 225 59 228 65C240 28 276 -11 336 -11C439 -11 496 118 496 143C496 153 487 153 484 153C475 153 473 149 471 142C438 35 370 11 338 11C299 11 283 43 283 77C283 99 289 121 300 165L334 302C340 328 363 420 433 420C438 420 462 420 483 407C455 402 435 377 435 353C435 337 446 318 473 318C495 318 527 336 527 376Z" stroke="rgb(0,0,0)" stroke-opacity="1" stroke-width="8" fill="rgb(0,0,0)" fill-opacity="1"></path></g></g><g><g><g><g><g transform="matrix(1,0,0,1,204.566650390625,369.3332885742187)"><path transform="matrix(0.0119,0,0,-0.0119,0,0)" d="M419 0L419 31L387 31C297 31 294 42 294 79L294 640C294 664 294 666 271 666C209 602 121 602 89 602L89 571C109 571 168 571 220 597L220 79C220 43 217 31 127 31L95 31L95 0C130 3 217 3 257 3C297 3 384 3 419 0Z" stroke="rgb(0,0,0)" stroke-opacity="1" stroke-width="8" fill="rgb(0,0,0)" fill-opacity="1"></path></g></g></g></g></g></g></g><g><g><g><g transform="matrix(1,0,0,1,221,285.36663818359375)"><path transform="matrix(0.017,0,0,-0.017,0,0)" d="M527 376C527 428 468 442 434 442C376 442 341 389 329 366C304 432 250 442 221 442C117 442 60 313 60 288C60 278 72 278 72 278C80 278 83 280 85 289C119 395 185 420 219 420C238 420 273 411 273 353C273 322 256 255 219 115C203 53 168 11 124 11C118 11 95 11 74 24C99 29 121 50 121 78C121 105 99 113 84 113C54 113 29 87 29 55C29 9 79 -11 123 -11C189 -11 225 59 228 65C240 28 276 -11 336 -11C439 -11 496 118 496 143C496 153 487 153 484 153C475 153 473 149 471 142C438 35 370 11 338 11C299 11 283 43 283 77C283 99 289 121 300 165L334 302C340 328 363 420 433 420C438 420 462 420 483 407C455 402 435 377 435 353C435 337 446 318 473 318C495 318 527 336 527 376Z" stroke="rgb(0,0,0)" stroke-opacity="1" stroke-width="8" fill="rgb(0,0,0)" fill-opacity="1"></path></g></g><g><g><g><g><g transform="matrix(1,0,0,1,231.23333740234375,288.6666625976562)"><path transform="matrix(0.0119,0,0,-0.0119,0,0)" d="M449 174L424 174C419 144 412 100 402 85C395 77 329 77 307 77L127 77L233 180C389 318 449 372 449 472C449 586 359 666 237 666C124 666 50 574 50 485C50 429 100 429 103 429C120 429 155 441 155 482C155 508 137 534 102 534C94 534 92 534 89 533C112 598 166 635 224 635C315 635 358 554 358 472C358 392 308 313 253 251L61 37C50 26 50 24 50 0L421 0Z" stroke="rgb(0,0,0)" stroke-opacity="1" stroke-width="8" fill="rgb(0,0,0)" fill-opacity="1"></path></g></g></g></g></g></g></g><g><g><g><g transform="matrix(1,0,0,1,288.33331298828125,398.0333251953125)"><path transform="matrix(0.017,0,0,-0.017,0,0)" d="M527 376C527 428 468 442 434 442C376 442 341 389 329 366C304 432 250 442 221 442C117 442 60 313 60 288C60 278 72 278 72 278C80 278 83 280 85 289C119 395 185 420 219 420C238 420 273 411 273 353C273 322 256 255 219 115C203 53 168 11 124 11C118 11 95 11 74 24C99 29 121 50 121 78C121 105 99 113 84 113C54 113 29 87 29 55C29 9 79 -11 123 -11C189 -11 225 59 228 65C240 28 276 -11 336 -11C439 -11 496 118 496 143C496 153 487 153 484 153C475 153 473 149 471 142C438 35 370 11 338 11C299 11 283 43 283 77C283 99 289 121 300 165L334 302C340 328 363 420 433 420C438 420 462 420 483 407C455 402 435 377 435 353C435 337 446 318 473 318C495 318 527 336 527 376Z" stroke="rgb(0,0,0)" stroke-opacity="1" stroke-width="8" fill="rgb(0,0,0)" fill-opacity="1"></path></g></g><g><g><g><g><g transform="matrix(1,0,0,1,298.566650390625,401.3332885742187)"><path transform="matrix(0.0119,0,0,-0.0119,0,0)" d="M457 171C457 253 394 331 290 352C372 379 430 449 430 528C430 610 342 666 246 666C145 666 69 606 69 530C69 497 91 478 120 478C151 478 171 500 171 529C171 579 124 579 109 579C140 628 206 641 242 641C283 641 338 619 338 529C338 517 336 459 310 415C280 367 246 364 221 363C213 362 189 360 182 360C174 359 167 358 167 348C167 337 174 337 191 337L235 337C317 337 354 269 354 171C354 35 285 6 241 6C198 6 123 23 88 82C123 77 154 99 154 137C154 173 127 193 98 193C74 193 42 179 42 135C42 44 135 -22 244 -22C366 -22 457 69 457 171Z" stroke="rgb(0,0,0)" stroke-opacity="1" stroke-width="8" fill="rgb(0,0,0)" fill-opacity="1"></path></g></g></g></g></g></g></g><g><g><g><g transform="matrix(1,0,0,1,309,338.0333251953125)"><path transform="matrix(0.017,0,0,-0.017,0,0)" d="M527 376C527 428 468 442 434 442C376 442 341 389 329 366C304 432 250 442 221 442C117 442 60 313 60 288C60 278 72 278 72 278C80 278 83 280 85 289C119 395 185 420 219 420C238 420 273 411 273 353C273 322 256 255 219 115C203 53 168 11 124 11C118 11 95 11 74 24C99 29 121 50 121 78C121 105 99 113 84 113C54 113 29 87 29 55C29 9 79 -11 123 -11C189 -11 225 59 228 65C240 28 276 -11 336 -11C439 -11 496 118 496 143C496 153 487 153 484 153C475 153 473 149 471 142C438 35 370 11 338 11C299 11 283 43 283 77C283 99 289 121 300 165L334 302C340 328 363 420 433 420C438 420 462 420 483 407C455 402 435 377 435 353C435 337 446 318 473 318C495 318 527 336 527 376Z" stroke="rgb(0,0,0)" stroke-opacity="1" stroke-width="8" fill="rgb(0,0,0)" fill-opacity="1"></path></g></g><g><g><g><g><g transform="matrix(1,0,0,1,319.23333740234375,341.3332885742187)"><path transform="matrix(0.0119,0,0,-0.0119,0,0)" d="M471 165L471 196L371 196L371 651C371 671 371 677 355 677C346 677 343 677 335 665L28 196L28 165L294 165L294 78C294 42 292 31 218 31L197 31L197 0C238 3 290 3 332 3C374 3 427 3 468 0L468 31L447 31C373 31 371 42 371 78L371 165ZM300 196L56 196L300 569Z" stroke="rgb(0,0,0)" stroke-opacity="1" stroke-width="8" fill="rgb(0,0,0)" fill-opacity="1"></path></g></g></g></g></g></g></g><g><g><g><g transform="matrix(1,0,0,1,327.66668701171875,268.0333251953125)"><path transform="matrix(0.017,0,0,-0.017,0,0)" d="M527 376C527 428 468 442 434 442C376 442 341 389 329 366C304 432 250 442 221 442C117 442 60 313 60 288C60 278 72 278 72 278C80 278 83 280 85 289C119 395 185 420 219 420C238 420 273 411 273 353C273 322 256 255 219 115C203 53 168 11 124 11C118 11 95 11 74 24C99 29 121 50 121 78C121 105 99 113 84 113C54 113 29 87 29 55C29 9 79 -11 123 -11C189 -11 225 59 228 65C240 28 276 -11 336 -11C439 -11 496 118 496 143C496 153 487 153 484 153C475 153 473 149 471 142C438 35 370 11 338 11C299 11 283 43 283 77C283 99 289 121 300 165L334 302C340 328 363 420 433 420C438 420 462 420 483 407C455 402 435 377 435 353C435 337 446 318 473 318C495 318 527 336 527 376Z" stroke="rgb(0,0,0)" stroke-opacity="1" stroke-width="8" fill="rgb(0,0,0)" fill-opacity="1"></path></g></g><g><g><g><g><g transform="matrix(1,0,0,1,337.9000244140625,271.3332885742187)"><path transform="matrix(0.0119,0,0,-0.0119,0,0)" d="M449 201C449 320 367 420 259 420C211 420 168 404 132 369L132 564C152 558 185 551 217 551C340 551 410 642 410 655C410 661 407 666 400 666C400 666 397 666 392 663C372 654 323 634 256 634C216 634 170 641 123 662C115 665 111 665 111 665C101 665 101 657 101 641L101 345C101 327 101 319 115 319C122 319 124 322 128 328C139 344 176 398 257 398C309 398 334 352 342 334C358 297 360 258 360 208C360 173 360 113 336 71C312 32 275 6 229 6C156 6 99 59 82 118C85 117 88 116 99 116C132 116 149 141 149 165C149 189 132 214 99 214C85 214 50 207 50 161C50 75 119 -22 231 -22C347 -22 449 74 449 201Z" stroke="rgb(0,0,0)" stroke-opacity="1" stroke-width="8" fill="rgb(0,0,0)" fill-opacity="1"></path></g></g></g></g></g></g></g><g><g><g><g transform="matrix(1,0,0,1,391.6666259765625,218.0333251953125)"><path transform="matrix(0.017,0,0,-0.017,0,0)" d="M498 143C498 153 489 153 486 153C476 153 475 149 472 135C455 70 437 11 396 11C369 11 366 37 366 57C366 79 368 87 379 131L401 221L437 361C444 389 444 391 444 395C444 412 432 422 415 422C391 422 376 400 373 378C355 415 326 442 281 442C164 442 40 295 40 149C40 55 95 -11 173 -11C193 -11 243 -7 303 64C311 22 346 -11 394 -11C429 -11 452 12 468 44C485 80 498 143 498 143ZM361 332C361 326 359 320 358 315L308 119C303 101 303 99 288 82C244 27 203 11 175 11C125 11 111 66 111 105C111 155 143 278 166 324C197 383 242 420 282 420C347 420 361 338 361 332Z" stroke="rgb(0,0,0)" stroke-opacity="1" stroke-width="8" fill="rgb(0,0,0)" fill-opacity="1"></path></g></g></g></g><g><g><g><g transform="matrix(1,0,0,1,410.3333740234375,87.69998168945312)"><path transform="matrix(0.017,0,0,-0.017,0,0)" d="M498 143C498 153 489 153 486 153C476 153 475 149 472 135C455 70 437 11 396 11C369 11 366 37 366 57C366 79 368 87 379 131L401 221L437 361C444 389 444 391 444 395C444 412 432 422 415 422C391 422 376 400 373 378C355 415 326 442 281 442C164 442 40 295 40 149C40 55 95 -11 173 -11C193 -11 243 -7 303 64C311 22 346 -11 394 -11C429 -11 452 12 468 44C485 80 498 143 498 143ZM361 332C361 326 359 320 358 315L308 119C303 101 303 99 288 82C244 27 203 11 175 11C125 11 111 66 111 105C111 155 143 278 166 324C197 383 242 420 282 420C347 420 361 338 361 332Z" stroke="rgb(0,0,0)" stroke-opacity="1" stroke-width="8" fill="rgb(0,0,0)" fill-opacity="1"></path></g></g></g></g><g><g><g><g transform="matrix(1,0,0,1,502.3333740234375,105.69998168945312)"><path transform="matrix(0.017,0,0,-0.017,0,0)" d="M498 143C498 153 489 153 486 153C476 153 475 149 472 135C455 70 437 11 396 11C369 11 366 37 366 57C366 79 368 87 379 131L401 221L437 361C444 389 444 391 444 395C444 412 432 422 415 422C391 422 376 400 373 378C355 415 326 442 281 442C164 442 40 295 40 149C40 55 95 -11 173 -11C193 -11 243 -7 303 64C311 22 346 -11 394 -11C429 -11 452 12 468 44C485 80 498 143 498 143ZM361 332C361 326 359 320 358 315L308 119C303 101 303 99 288 82C244 27 203 11 175 11C125 11 111 66 111 105C111 155 143 278 166 324C197 383 242 420 282 420C347 420 361 338 361 332Z" stroke="rgb(0,0,0)" stroke-opacity="1" stroke-width="8" fill="rgb(0,0,0)" fill-opacity="1"></path></g></g></g></g><g><g><g><g transform="matrix(1,0,0,1,260.33331298828125,324.36663818359375)"><path transform="matrix(0.017,0,0,-0.017,0,0)" d="M498 143C498 153 489 153 486 153C476 153 475 149 472 135C455 70 437 11 396 11C369 11 366 37 366 57C366 79 368 87 379 131L401 221L437 361C444 389 444 391 444 395C444 412 432 422 415 422C391 422 376 400 373 378C355 415 326 442 281 442C164 442 40 295 40 149C40 55 95 -11 173 -11C193 -11 243 -7 303 64C311 22 346 -11 394 -11C429 -11 452 12 468 44C485 80 498 143 498 143ZM361 332C361 326 359 320 358 315L308 119C303 101 303 99 288 82C244 27 203 11 175 11C125 11 111 66 111 105C111 155 143 278 166 324C197 383 242 420 282 420C347 420 361 338 361 332Z" stroke="rgb(0,0,0)" stroke-opacity="1" stroke-width="8" fill="rgb(0,0,0)" fill-opacity="1"></path></g></g></g></g><g><g><g><g transform="matrix(1,0,0,1,165,308.36663818359375)"><path transform="matrix(0.017,0,0,-0.017,0,0)" d="M498 143C498 153 489 153 486 153C476 153 475 149 472 135C455 70 437 11 396 11C369 11 366 37 366 57C366 79 368 87 379 131L401 221L437 361C444 389 444 391 444 395C444 412 432 422 415 422C391 422 376 400 373 378C355 415 326 442 281 442C164 442 40 295 40 149C40 55 95 -11 173 -11C193 -11 243 -7 303 64C311 22 346 -11 394 -11C429 -11 452 12 468 44C485 80 498 143 498 143ZM361 332C361 326 359 320 358 315L308 119C303 101 303 99 288 82C244 27 203 11 175 11C125 11 111 66 111 105C111 155 143 278 166 324C197 383 242 420 282 420C347 420 361 338 361 332Z" stroke="rgb(0,0,0)" stroke-opacity="1" stroke-width="8" fill="rgb(0,0,0)" fill-opacity="1"></path></g></g></g></g></svg>
</svg>
