<?xml version="1.0" encoding="UTF-8" standalone="no"?>
<!-- Created with Inkscape (http://www.inkscape.org/) -->

<svg
   width="71.030418mm"
   height="40.389015mm"
   viewBox="0 0 71.030418 40.389015"
   version="1.1"
   id="svg1"
   xmlns="http://www.w3.org/2000/svg"
   xmlns:svg="http://www.w3.org/2000/svg">
  <defs
     id="defs1" />
  <g
     id="layer1"
     transform="translate(-58.283151,-16.531726)">
    <g
       transform="translate(93.733877,16.531718)"
       id="g1">
      <g
         fill="#000000"
         fill-opacity="1"
         id="g2"
         transform="matrix(0.352778,0,0,0.352778,-77.6288,-6.27578)">
        <g
           id="use1"
           transform="translate(219.472,26.899)">
          <path
             d="m 9.796875,-8.421875 c -0.671875,0.125 -0.921875,0.609375 -0.921875,1 0,0.5 0.40625,0.671875 0.6875,0.671875 0.625,0 1.0625,-0.546875 1.0625,-1.09375 0,-0.875 -1,-1.265625 -1.859375,-1.265625 -1.265625,0 -1.96875,1.234375 -2.15625,1.625 -0.46875,-1.546875 -1.75,-1.625 -2.125,-1.625 -2.109375,0 -3.21875,2.703125 -3.21875,3.15625 0,0.09375 0.078125,0.1875 0.21875,0.1875 0.171875,0 0.203125,-0.125 0.25,-0.203125 0.703125,-2.296875 2.09375,-2.734375 2.6875,-2.734375 0.921875,0 1.109375,0.875 1.109375,1.375 0,0.453125 -0.125,0.921875 -0.359375,1.921875 L 4.46875,-2.578125 c -0.3125,1.234375 -0.921875,2.375 -2.015625,2.375 -0.09375,0 -0.609375,0 -1.046875,-0.265625 C 2.140625,-0.625 2.3125,-1.234375 2.3125,-1.484375 2.3125,-1.90625 2,-2.140625 1.609375,-2.140625 c -0.5,0 -1.03125,0.421875 -1.03125,1.09375 0,0.859375 0.96875,1.25 1.859375,1.25 0.984375,0 1.6875,-0.78125 2.125,-1.625 0.328125,1.21875 1.359375,1.625 2.125,1.625 2.109375,0 3.234375,-2.703125 3.234375,-3.15625 0,-0.109375 -0.09375,-0.1875 -0.21875,-0.1875 -0.1875,0 -0.203125,0.109375 -0.265625,0.265625 -0.5625,1.828125 -1.75,2.671875 -2.6875,2.671875 -0.71875,0 -1.109375,-0.546875 -1.109375,-1.390625 0,-0.453125 0.078125,-0.78125 0.40625,-2.140625 l 0.734375,-2.8125 c 0.296875,-1.234375 1,-2.15625 1.953125,-2.15625 0.046875,0 0.625,0 1.0625,0.28125 z m 0,0"
             id="path2" />
        </g>
      </g>
    </g>
    <g
       transform="translate(58.28314,34.84406)"
       id="g25">
      <g
         fill="#000000"
         fill-opacity="1"
         id="g3"
         transform="matrix(0.352778,0,0,0.352778,-76.2937,-6.27578)">
        <g
           id="use2"
           transform="translate(215.703,26.899)">
          <path
             d="m 7.046875,-1.203125 c 0.265625,1.15625 1.25,1.40625 1.75,1.40625 0.65625,0 1.15625,-0.4375 1.484375,-1.125 0.359375,-0.75 0.625,-1.96875 0.625,-2.03125 0,-0.109375 -0.07813,-0.1875 -0.203125,-0.1875 -0.1875,0 -0.203125,0.109375 -0.296875,0.40625 -0.375,1.4375 -0.734375,2.53125 -1.5625,2.53125 -0.625,0 -0.625,-0.6875 -0.625,-0.953125 0,-0.46875 0.0625,-0.6875 0.265625,-1.546875 0.15625,-0.5625 0.296875,-1.125 0.421875,-1.703125 L 9.75,-7.765625 c 0.140625,-0.515625 0.140625,-0.5625 0.140625,-0.625 0,-0.3125 -0.25,-0.515625 -0.546875,-0.515625 -0.609375,0 -0.75,0.515625 -0.875,1.03125 C 8.265625,-7.0625 7.140625,-2.625 7,-1.90625 c -0.015625,0 -0.828125,1.703125 -2.328125,1.703125 -1.078125,0 -1.28125,-0.9375 -1.28125,-1.703125 0,-1.171875 0.578125,-2.828125 1.109375,-4.203125 0.25,-0.671875 0.359375,-0.9375 0.359375,-1.34375 0,-0.890625 -0.640625,-1.65625 -1.640625,-1.65625 -1.890625,0 -2.65625,3 -2.65625,3.15625 0,0.09375 0.078125,0.1875 0.21875,0.1875 0.1875,0 0.203125,-0.078125 0.296875,-0.375 0.484375,-1.765625 1.296875,-2.5625 2.078125,-2.5625 0.203125,0 0.546875,0.03125 0.546875,0.6875 0,0.53125 -0.234375,1.140625 -0.546875,1.921875 -0.90625,2.453125 -1.015625,3.25 -1.015625,3.859375 0,2.109375 1.59375,2.4375 2.4375,2.4375 1.328125,0 2.046875,-0.90625 2.46875,-1.40625 z m 0,0"
             id="path4" />
        </g>
      </g>
      <g
         fill="#000000"
         fill-opacity="1"
         id="g4"
         transform="matrix(0.352778,0,0,0.352778,-76.2937,-6.27578)">
        <g
           id="use3"
           transform="translate(227.218,29.997999)">
          <path
             d="m 6.421875,-4.59375 c 0,-1.1875 -0.0625,-2.34375 -0.578125,-3.4375 -0.59375,-1.1875 -1.625,-1.5 -2.328125,-1.5 -0.828125,0 -1.859375,0.40625 -2.375,1.59375 -0.40625,0.90625 -0.546875,1.796875 -0.546875,3.34375 0,1.390625 0.09375,2.4375 0.609375,3.453125 0.5625,1.09375 1.546875,1.4375 2.296875,1.4375 1.25,0 1.96875,-0.734375 2.375,-1.578125 0.515625,-1.078125 0.546875,-2.484375 0.546875,-3.3125 z M 3.5,0.015625 C 3.046875,0.015625 2.109375,-0.25 1.84375,-1.8125 1.671875,-2.671875 1.671875,-3.765625 1.671875,-4.765625 1.671875,-5.9375 1.671875,-7 1.90625,-7.84375 2.15625,-8.8125 2.890625,-9.25 3.5,-9.25 c 0.546875,0 1.375,0.328125 1.65625,1.5625 0.171875,0.8125 0.171875,1.953125 0.171875,2.921875 0,0.96875 0,2.046875 -0.15625,2.921875 C 4.90625,-0.265625 4,0.015625 3.5,0.015625 Z m 0,0"
             id="path5" />
        </g>
      </g>
    </g>
    <g
       transform="translate(68.827447,34.765397)"
       id="g30">
      <g
         fill="#000000"
         fill-opacity="1"
         id="g27"
         transform="matrix(0.352778,0,0,0.352778,-76.3024,-6.27578)">
        <g
           id="g26"
           transform="translate(215.71201,26.899)">
          <path
             d="m 9.796875,-8.421875 c -0.671875,0.125 -0.921875,0.609375 -0.921875,1 0,0.5 0.40625,0.671875 0.6875,0.671875 0.625,0 1.0625,-0.546875 1.0625,-1.09375 0,-0.875 -1,-1.265625 -1.859375,-1.265625 -1.265625,0 -1.96875,1.234375 -2.15625,1.625 -0.46875,-1.546875 -1.75,-1.625 -2.125,-1.625 -2.109375,0 -3.21875,2.703125 -3.21875,3.15625 0,0.09375 0.078125,0.1875 0.21875,0.1875 0.171875,0 0.203125,-0.125 0.25,-0.203125 0.703125,-2.296875 2.09375,-2.734375 2.6875,-2.734375 0.921875,0 1.109375,0.875 1.109375,1.375 0,0.453125 -0.125,0.921875 -0.359375,1.921875 L 4.46875,-2.578125 c -0.3125,1.234375 -0.921875,2.375 -2.015625,2.375 -0.09375,0 -0.609375,0 -1.046875,-0.265625 C 2.140625,-0.625 2.3125,-1.234375 2.3125,-1.484375 2.3125,-1.90625 2,-2.140625 1.609375,-2.140625 c -0.5,0 -1.03125,0.421875 -1.03125,1.09375 0,0.859375 0.96875,1.25 1.859375,1.25 0.984375,0 1.6875,-0.78125 2.125,-1.625 0.328125,1.21875 1.359375,1.625 2.125,1.625 2.109375,0 3.234375,-2.703125 3.234375,-3.15625 0,-0.109375 -0.09375,-0.1875 -0.21875,-0.1875 -0.1875,0 -0.203125,0.109375 -0.265625,0.265625 -0.5625,1.828125 -1.75,2.671875 -2.6875,2.671875 -0.71875,0 -1.109375,-0.546875 -1.109375,-1.390625 0,-0.453125 0.078125,-0.78125 0.40625,-2.140625 l 0.734375,-2.8125 c 0.296875,-1.234375 1,-2.15625 1.953125,-2.15625 0.046875,0 0.625,0 1.0625,0.28125 z m 0,0"
             id="path25" />
        </g>
      </g>
      <g
         fill="#000000"
         fill-opacity="1"
         id="g29"
         transform="matrix(0.352778,0,0,0.352778,-76.3024,-6.27578)">
        <g
           id="g28"
           transform="translate(227.209,29.997999)">
          <path
             d="m 4.125,-9.1875 c 0,-0.34375 0,-0.34375 -0.28125,-0.34375 C 3.5,-9.15625 2.78125,-8.625 1.3125,-8.625 v 0.421875 c 0.328125,0 1.046875,0 1.828125,-0.375 v 7.46875 c 0,0.515625 -0.046875,0.6875 -1.296875,0.6875 H 1.390625 V 0 c 0.390625,-0.03125 1.78125,-0.03125 2.25,-0.03125 0.46875,0 1.859375,0 2.234375,0.03125 V -0.421875 H 5.4375 c -1.265625,0 -1.3125,-0.171875 -1.3125,-0.6875 z m 0,0"
             id="path27" />
        </g>
      </g>
    </g>
    <g
       transform="translate(91.804428,34.418198)"
       id="g35">
      <g
         fill="#000000"
         fill-opacity="1"
         id="g32"
         transform="matrix(0.352778,0,0,0.352778,-76.3024,-6.27578)">
        <g
           id="g31"
           transform="translate(215.71201,26.899)">
          <path
             d="m 9.796875,-8.421875 c -0.671875,0.125 -0.921875,0.609375 -0.921875,1 0,0.5 0.40625,0.671875 0.6875,0.671875 0.625,0 1.0625,-0.546875 1.0625,-1.09375 0,-0.875 -1,-1.265625 -1.859375,-1.265625 -1.265625,0 -1.96875,1.234375 -2.15625,1.625 -0.46875,-1.546875 -1.75,-1.625 -2.125,-1.625 -2.109375,0 -3.21875,2.703125 -3.21875,3.15625 0,0.09375 0.078125,0.1875 0.21875,0.1875 0.171875,0 0.203125,-0.125 0.25,-0.203125 0.703125,-2.296875 2.09375,-2.734375 2.6875,-2.734375 0.921875,0 1.109375,0.875 1.109375,1.375 0,0.453125 -0.125,0.921875 -0.359375,1.921875 L 4.46875,-2.578125 c -0.3125,1.234375 -0.921875,2.375 -2.015625,2.375 -0.09375,0 -0.609375,0 -1.046875,-0.265625 C 2.140625,-0.625 2.3125,-1.234375 2.3125,-1.484375 2.3125,-1.90625 2,-2.140625 1.609375,-2.140625 c -0.5,0 -1.03125,0.421875 -1.03125,1.09375 0,0.859375 0.96875,1.25 1.859375,1.25 0.984375,0 1.6875,-0.78125 2.125,-1.625 0.328125,1.21875 1.359375,1.625 2.125,1.625 2.109375,0 3.234375,-2.703125 3.234375,-3.15625 0,-0.109375 -0.09375,-0.1875 -0.21875,-0.1875 -0.1875,0 -0.203125,0.109375 -0.265625,0.265625 -0.5625,1.828125 -1.75,2.671875 -2.6875,2.671875 -0.71875,0 -1.109375,-0.546875 -1.109375,-1.390625 0,-0.453125 0.078125,-0.78125 0.40625,-2.140625 l 0.734375,-2.8125 c 0.296875,-1.234375 1,-2.15625 1.953125,-2.15625 0.046875,0 0.625,0 1.0625,0.28125 z m 0,0"
             id="path30" />
        </g>
      </g>
      <g
         fill="#000000"
         fill-opacity="1"
         id="g34"
         transform="matrix(0.352778,0,0,0.352778,-76.3024,-6.27578)">
        <g
           id="g33"
           transform="translate(227.209,29.997999)">
          <path
             d="M 6.3125,-2.40625 H 6 c -0.046875,0.234375 -0.15625,1.03125 -0.3125,1.265625 -0.09375,0.125 -0.90625,0.125 -1.34375,0.125 H 1.6875 c 0.390625,-0.328125 1.265625,-1.25 1.640625,-1.59375 2.1875,-2.015625 2.984375,-2.75 2.984375,-4.171875 0,-1.65625 -1.3125,-2.75 -2.96875,-2.75 -1.671875,0 -2.640625,1.40625 -2.640625,2.640625 0,0.734375 0.625,0.734375 0.671875,0.734375 0.296875,0 0.671875,-0.21875 0.671875,-0.671875 C 2.046875,-7.234375 1.78125,-7.5 1.375,-7.5 1.25,-7.5 1.21875,-7.5 1.171875,-7.484375 1.453125,-8.46875 2.21875,-9.125 3.15625,-9.125 4.375,-9.125 5.125,-8.109375 5.125,-6.78125 5.125,-5.5625 4.421875,-4.5 3.59375,-3.578125 L 0.703125,-0.34375 V 0 H 5.9375 Z m 0,0"
             id="path32" />
        </g>
      </g>
    </g>
    <g
       transform="translate(111.56815,34.608088)"
       id="g40">
      <g
         fill="#000000"
         fill-opacity="1"
         id="g37"
         transform="matrix(0.352778,0,0,0.352778,-76.1676,-6.27578)">
        <g
           id="g36"
           transform="translate(215.33,26.899)">
          <path
             d="m 9.796875,-8.421875 c -0.671875,0.125 -0.921875,0.609375 -0.921875,1 0,0.5 0.40625,0.671875 0.6875,0.671875 0.625,0 1.0625,-0.546875 1.0625,-1.09375 0,-0.875 -1,-1.265625 -1.859375,-1.265625 -1.265625,0 -1.96875,1.234375 -2.15625,1.625 -0.46875,-1.546875 -1.75,-1.625 -2.125,-1.625 -2.109375,0 -3.21875,2.703125 -3.21875,3.15625 0,0.09375 0.078125,0.1875 0.21875,0.1875 0.171875,0 0.203125,-0.125 0.25,-0.203125 0.703125,-2.296875 2.09375,-2.734375 2.6875,-2.734375 0.921875,0 1.109375,0.875 1.109375,1.375 0,0.453125 -0.125,0.921875 -0.359375,1.921875 L 4.46875,-2.578125 c -0.3125,1.234375 -0.921875,2.375 -2.015625,2.375 -0.09375,0 -0.609375,0 -1.046875,-0.265625 C 2.140625,-0.625 2.3125,-1.234375 2.3125,-1.484375 2.3125,-1.90625 2,-2.140625 1.609375,-2.140625 c -0.5,0 -1.03125,0.421875 -1.03125,1.09375 0,0.859375 0.96875,1.25 1.859375,1.25 0.984375,0 1.6875,-0.78125 2.125,-1.625 0.328125,1.21875 1.359375,1.625 2.125,1.625 2.109375,0 3.234375,-2.703125 3.234375,-3.15625 0,-0.109375 -0.09375,-0.1875 -0.21875,-0.1875 -0.1875,0 -0.203125,0.109375 -0.265625,0.265625 -0.5625,1.828125 -1.75,2.671875 -2.6875,2.671875 -0.71875,0 -1.109375,-0.546875 -1.109375,-1.390625 0,-0.453125 0.078125,-0.78125 0.40625,-2.140625 l 0.734375,-2.8125 c 0.296875,-1.234375 1,-2.15625 1.953125,-2.15625 0.046875,0 0.625,0 1.0625,0.28125 z m 0,0"
             id="path35" />
        </g>
      </g>
      <g
         fill="#000000"
         fill-opacity="1"
         id="g39"
         transform="matrix(0.352778,0,0,0.352778,-76.1676,-6.27578)">
        <g
           id="g38"
           transform="translate(226.827,29.997999)">
          <path
             d="m 4.03125,-9.59375 c 0.015625,-0.0625 0.046875,-0.140625 0.046875,-0.21875 0,-0.140625 -0.140625,-0.140625 -0.171875,-0.140625 -0.015625,0 -0.53125,0.046875 -0.796875,0.0625 C 2.875,-9.875 2.65625,-9.84375 2.390625,-9.828125 c -0.34375,0.03125 -0.4375,0.046875 -0.4375,0.296875 0,0.15625 0.140625,0.15625 0.28125,0.15625 0.734375,0 0.734375,0.125 0.734375,0.265625 0,0.0625 0,0.09375 -0.078125,0.34375 L 0.84375,-0.5625 c -0.0625,0.21875 -0.0625,0.25 -0.0625,0.328125 0,0.328125 0.25,0.375 0.390625,0.375 0.40625,0 0.484375,-0.3125 0.609375,-0.75 l 0.671875,-2.6875 c 1.03125,0.109375 1.65625,0.546875 1.65625,1.234375 0,0.078125 0,0.140625 -0.046875,0.359375 C 4,-1.484375 4,-1.3125 4,-1.25 c 0,0.828125 0.546875,1.390625 1.28125,1.390625 0.65625,0 1,-0.59375 1.109375,-0.796875 0.3125,-0.53125 0.5,-1.34375 0.5,-1.390625 0,-0.078125 -0.0625,-0.140625 -0.15625,-0.140625 -0.125,0 -0.140625,0.0625 -0.1875,0.296875 -0.203125,0.75 -0.515625,1.75 -1.234375,1.75 -0.296875,0 -0.484375,-0.140625 -0.484375,-0.6875 0,-0.28125 0.0625,-0.59375 0.125,-0.8125 C 5,-1.890625 5,-1.90625 5,-2.078125 c 0,-0.84375 -0.75,-1.328125 -2.078125,-1.5 0.515625,-0.3125 1.03125,-0.875 1.234375,-1.078125 0.828125,-0.921875 1.375,-1.375 2.046875,-1.375 0.328125,0 0.40625,0.078125 0.515625,0.171875 C 6.1875,-5.8125 5.984375,-5.4375 5.984375,-5.15625 c 0,0.34375 0.265625,0.46875 0.46875,0.46875 0.390625,0 0.734375,-0.328125 0.734375,-0.796875 0,-0.40625 -0.328125,-0.84375 -0.984375,-0.84375 -0.78125,0 -1.421875,0.5625 -2.4375,1.703125 -0.15625,0.171875 -0.6875,0.71875 -1.21875,0.921875 z m 0,0"
             id="path37" />
        </g>
      </g>
    </g>
    <g
       transform="translate(122.91413,34.5939)"
       id="g45">
      <g
         fill="#000000"
         fill-opacity="1"
         id="g42"
         transform="matrix(0.352778,0,0,0.352778,-76.1589,-6.27578)">
        <g
           id="g41"
           transform="translate(215.321,26.899)">
          <path
             d="m 7.046875,-1.203125 c 0.265625,1.15625 1.25,1.40625 1.75,1.40625 0.65625,0 1.15625,-0.4375 1.484375,-1.125 0.359375,-0.75 0.625,-1.96875 0.625,-2.03125 0,-0.109375 -0.07813,-0.1875 -0.203125,-0.1875 -0.1875,0 -0.203125,0.109375 -0.296875,0.40625 -0.375,1.4375 -0.734375,2.53125 -1.5625,2.53125 -0.625,0 -0.625,-0.6875 -0.625,-0.953125 0,-0.46875 0.0625,-0.6875 0.265625,-1.546875 0.15625,-0.5625 0.296875,-1.125 0.421875,-1.703125 L 9.75,-7.765625 c 0.140625,-0.515625 0.140625,-0.5625 0.140625,-0.625 0,-0.3125 -0.25,-0.515625 -0.546875,-0.515625 -0.609375,0 -0.75,0.515625 -0.875,1.03125 C 8.265625,-7.0625 7.140625,-2.625 7,-1.90625 c -0.015625,0 -0.828125,1.703125 -2.328125,1.703125 -1.078125,0 -1.28125,-0.9375 -1.28125,-1.703125 0,-1.171875 0.578125,-2.828125 1.109375,-4.203125 0.25,-0.671875 0.359375,-0.9375 0.359375,-1.34375 0,-0.890625 -0.640625,-1.65625 -1.640625,-1.65625 -1.890625,0 -2.65625,3 -2.65625,3.15625 0,0.09375 0.078125,0.1875 0.21875,0.1875 0.1875,0 0.203125,-0.078125 0.296875,-0.375 0.484375,-1.765625 1.296875,-2.5625 2.078125,-2.5625 0.203125,0 0.546875,0.03125 0.546875,0.6875 0,0.53125 -0.234375,1.140625 -0.546875,1.921875 -0.90625,2.453125 -1.015625,3.25 -1.015625,3.859375 0,2.109375 1.59375,2.4375 2.4375,2.4375 1.328125,0 2.046875,-0.90625 2.46875,-1.40625 z m 0,0"
             id="path40" />
        </g>
      </g>
      <g
         fill="#000000"
         fill-opacity="1"
         id="g44"
         transform="matrix(0.352778,0,0,0.352778,-76.1589,-6.27578)">
        <g
           id="g43"
           transform="translate(226.836,29.997999)">
          <path
             d="m 4.03125,-9.59375 c 0.015625,-0.0625 0.046875,-0.140625 0.046875,-0.21875 0,-0.140625 -0.140625,-0.140625 -0.171875,-0.140625 -0.015625,0 -0.53125,0.046875 -0.796875,0.0625 C 2.875,-9.875 2.65625,-9.84375 2.390625,-9.828125 c -0.34375,0.03125 -0.4375,0.046875 -0.4375,0.296875 0,0.15625 0.140625,0.15625 0.28125,0.15625 0.734375,0 0.734375,0.125 0.734375,0.265625 0,0.0625 0,0.09375 -0.078125,0.34375 L 0.84375,-0.5625 c -0.0625,0.21875 -0.0625,0.25 -0.0625,0.328125 0,0.328125 0.25,0.375 0.390625,0.375 0.40625,0 0.484375,-0.3125 0.609375,-0.75 l 0.671875,-2.6875 c 1.03125,0.109375 1.65625,0.546875 1.65625,1.234375 0,0.078125 0,0.140625 -0.046875,0.359375 C 4,-1.484375 4,-1.3125 4,-1.25 c 0,0.828125 0.546875,1.390625 1.28125,1.390625 0.65625,0 1,-0.59375 1.109375,-0.796875 0.3125,-0.53125 0.5,-1.34375 0.5,-1.390625 0,-0.078125 -0.0625,-0.140625 -0.15625,-0.140625 -0.125,0 -0.140625,0.0625 -0.1875,0.296875 -0.203125,0.75 -0.515625,1.75 -1.234375,1.75 -0.296875,0 -0.484375,-0.140625 -0.484375,-0.6875 0,-0.28125 0.0625,-0.59375 0.125,-0.8125 C 5,-1.890625 5,-1.90625 5,-2.078125 c 0,-0.84375 -0.75,-1.328125 -2.078125,-1.5 0.515625,-0.3125 1.03125,-0.875 1.234375,-1.078125 0.828125,-0.921875 1.375,-1.375 2.046875,-1.375 0.328125,0 0.40625,0.078125 0.515625,0.171875 C 6.1875,-5.8125 5.984375,-5.4375 5.984375,-5.15625 c 0,0.34375 0.265625,0.46875 0.46875,0.46875 0.390625,0 0.734375,-0.328125 0.734375,-0.796875 0,-0.40625 -0.328125,-0.84375 -0.984375,-0.84375 -0.78125,0 -1.421875,0.5625 -2.4375,1.703125 -0.15625,0.171875 -0.6875,0.71875 -1.21875,0.921875 z m 0,0"
             id="path42" />
        </g>
      </g>
    </g>
    <g
       transform="translate(79.977617,34.5939)"
       id="g50">
      <g
         fill="#000000"
         fill-opacity="1"
         id="g47"
         transform="matrix(0.352778,0,0,0.352778,-76.2937,-6.27578)">
        <g
           id="g46"
           transform="translate(215.703,26.899)">
          <path
             d="m 7.046875,-1.203125 c 0.265625,1.15625 1.25,1.40625 1.75,1.40625 0.65625,0 1.15625,-0.4375 1.484375,-1.125 0.359375,-0.75 0.625,-1.96875 0.625,-2.03125 0,-0.109375 -0.07813,-0.1875 -0.203125,-0.1875 -0.1875,0 -0.203125,0.109375 -0.296875,0.40625 -0.375,1.4375 -0.734375,2.53125 -1.5625,2.53125 -0.625,0 -0.625,-0.6875 -0.625,-0.953125 0,-0.46875 0.0625,-0.6875 0.265625,-1.546875 0.15625,-0.5625 0.296875,-1.125 0.421875,-1.703125 L 9.75,-7.765625 c 0.140625,-0.515625 0.140625,-0.5625 0.140625,-0.625 0,-0.3125 -0.25,-0.515625 -0.546875,-0.515625 -0.609375,0 -0.75,0.515625 -0.875,1.03125 C 8.265625,-7.0625 7.140625,-2.625 7,-1.90625 c -0.015625,0 -0.828125,1.703125 -2.328125,1.703125 -1.078125,0 -1.28125,-0.9375 -1.28125,-1.703125 0,-1.171875 0.578125,-2.828125 1.109375,-4.203125 0.25,-0.671875 0.359375,-0.9375 0.359375,-1.34375 0,-0.890625 -0.640625,-1.65625 -1.640625,-1.65625 -1.890625,0 -2.65625,3 -2.65625,3.15625 0,0.09375 0.078125,0.1875 0.21875,0.1875 0.1875,0 0.203125,-0.078125 0.296875,-0.375 0.484375,-1.765625 1.296875,-2.5625 2.078125,-2.5625 0.203125,0 0.546875,0.03125 0.546875,0.6875 0,0.53125 -0.234375,1.140625 -0.546875,1.921875 -0.90625,2.453125 -1.015625,3.25 -1.015625,3.859375 0,2.109375 1.59375,2.4375 2.4375,2.4375 1.328125,0 2.046875,-0.90625 2.46875,-1.40625 z m 0,0"
             id="path45" />
        </g>
      </g>
      <g
         fill="#000000"
         fill-opacity="1"
         id="g49"
         transform="matrix(0.352778,0,0,0.352778,-76.2937,-6.27578)">
        <g
           id="g48"
           transform="translate(227.218,29.997999)">
          <path
             d="m 4.125,-9.1875 c 0,-0.34375 0,-0.34375 -0.28125,-0.34375 C 3.5,-9.15625 2.78125,-8.625 1.3125,-8.625 v 0.421875 c 0.328125,0 1.046875,0 1.828125,-0.375 v 7.46875 c 0,0.515625 -0.046875,0.6875 -1.296875,0.6875 H 1.390625 V 0 c 0.390625,-0.03125 1.78125,-0.03125 2.25,-0.03125 0.46875,0 1.859375,0 2.234375,0.03125 V -0.421875 H 5.4375 c -1.265625,0 -1.3125,-0.171875 -1.3125,-0.6875 z m 0,0"
             id="path47" />
        </g>
      </g>
    </g>
    <g
       transform="translate(100.8897,35.817479)"
       id="g57">
      <g
         fill="#000000"
         fill-opacity="1"
         id="g52"
         transform="matrix(0.352778,0,0,0.352778,-75.2218,-7.279)">
        <g
           id="g51"
           transform="translate(211.446,26.899)">
          <path
             d="m 3.96875,-5.171875 c 0,-0.59375 -0.5,-1.09375 -1.09375,-1.09375 -0.609375,0 -1.09375,0.5 -1.09375,1.09375 0,0.609375 0.484375,1.109375 1.09375,1.109375 0.59375,0 1.09375,-0.5 1.09375,-1.109375 z m 0,0"
             id="path50" />
        </g>
      </g>
      <g
         fill="#000000"
         fill-opacity="1"
         id="g54"
         transform="matrix(0.352778,0,0,0.352778,-75.2218,-7.279)">
        <g
           id="g53"
           transform="translate(220.63667,26.899)">
          <path
             d="m 3.96875,-5.171875 c 0,-0.59375 -0.5,-1.09375 -1.09375,-1.09375 -0.609375,0 -1.09375,0.5 -1.09375,1.09375 0,0.609375 0.484375,1.109375 1.09375,1.109375 0.59375,0 1.09375,-0.5 1.09375,-1.109375 z m 0,0"
             id="path52" />
        </g>
      </g>
      <g
         fill="#000000"
         fill-opacity="1"
         id="g56"
         transform="matrix(0.352778,0,0,0.352778,-75.2218,-7.279)">
        <g
           id="g55"
           transform="translate(229.8067,26.899)">
          <path
             d="m 3.96875,-5.171875 c 0,-0.59375 -0.5,-1.09375 -1.09375,-1.09375 -0.609375,0 -1.09375,0.5 -1.09375,1.09375 0,0.609375 0.484375,1.109375 1.09375,1.109375 0.59375,0 1.09375,-0.5 1.09375,-1.109375 z m 0,0"
             id="path6" />
        </g>
      </g>
    </g>
    <path
       style="fill:none;fill-opacity:1;stroke:#000000;stroke-width:0.3;stroke-dasharray:none;stroke-opacity:1"
       d="M 92.435859,20.133442 62.068844,33.704051"
       id="path64" />
    <path
       style="fill:none;fill-opacity:1;stroke:#000000;stroke-width:0.3;stroke-dasharray:none;stroke-opacity:1"
       d="M 93.103265,20.355911 71.412541,33.036642"
       id="path65" />
    <path
       style="fill:none;fill-opacity:1;stroke:#000000;stroke-width:0.3;stroke-dasharray:none;stroke-opacity:1"
       d="M 93.770674,20.57838 82.31352,32.480469"
       id="path66" />
    <path
       style="fill:none;fill-opacity:1;stroke:#000000;stroke-width:0.3;stroke-dasharray:none;stroke-opacity:1"
       d="m 94.771783,20.355911 -0.22247,12.791967"
       id="path67" />
    <path
       style="fill:none;fill-opacity:1;stroke:#000000;stroke-width:0.3;stroke-dasharray:none;stroke-opacity:1"
       d="m 96.106598,20.355911 7.897652,12.347028"
       id="path68" />
    <path
       style="fill:none;fill-opacity:1;stroke:#000000;stroke-width:0.3;stroke-dasharray:none;stroke-opacity:1"
       d="m 97.44141,19.688504 15.23912,12.458262"
       id="path69" />
    <path
       style="fill:none;fill-opacity:1;stroke:#000000;stroke-width:0.3;stroke-dasharray:none;stroke-opacity:1"
       d="M 98.331286,18.798628 124.69386,32.258002"
       id="path70" />
    <path
       style="fill:none;fill-opacity:1;stroke:#000000;stroke-width:0.3;stroke-dasharray:none;stroke-opacity:1"
       d="M 69.966493,39.377008 61.735141,50.722926 H 74.193402 Z"
       id="path71" />
    <path
       style="fill:none;fill-opacity:1;stroke:#000000;stroke-width:0.3;stroke-dasharray:none;stroke-opacity:1"
       d="m 93.770674,39.154539 -6.175761,10.696728 h 10.40267 z"
       id="path72" />
    <path
       style="fill:none;fill-opacity:1;stroke:#000000;stroke-width:0.3;stroke-dasharray:none;stroke-opacity:1"
       d="m 113.57041,38.932072 -6.09779,10.561677 h 11.10334 z"
       id="path73" />
    <g
       transform="translate(64.960961,52.613887)"
       id="g78">
      <g
         fill="#000000"
         fill-opacity="1"
         id="g75"
         transform="matrix(0.352778,0,0,0.352778,-76.5995,-6.27578)">
        <g
           id="g74"
           transform="translate(216.57001,26.899)">
          <path
             d="m 9.4375,-7.71875 c 0,-1.3125 -0.65625,-1.390625 -0.828125,-1.390625 -0.484375,0 -0.953125,0.5 -0.953125,0.90625 0,0.25 0.15625,0.390625 0.234375,0.484375 0.203125,0.171875 0.75,0.734375 0.75,1.8125 0,0.859375 -1.25,5.703125 -3.71875,5.703125 -1.265625,0 -1.515625,-1.0625 -1.515625,-1.828125 0,-1.03125 0.484375,-2.46875 1.03125,-3.953125 0.328125,-0.859375 0.421875,-1.0625 0.421875,-1.46875 0,-0.875 -0.625,-1.65625 -1.640625,-1.65625 -1.890625,0 -2.65625,3 -2.65625,3.15625 0,0.09375 0.078125,0.1875 0.21875,0.1875 0.1875,0 0.203125,-0.078125 0.296875,-0.375 0.484375,-1.765625 1.296875,-2.5625 2.078125,-2.5625 0.1875,0 0.546875,0 0.546875,0.6875 0,0.53125 -0.234375,1.140625 -0.546875,1.921875 -0.984375,2.640625 -0.984375,3.28125 -0.984375,3.78125 0,0.453125 0.0625,1.296875 0.703125,1.875 0.734375,0.640625 1.765625,0.640625 1.953125,0.640625 3.4375,0 4.609375,-6.75 4.609375,-7.921875 z m 0,0"
             id="path74" />
        </g>
      </g>
      <g
         fill="#000000"
         fill-opacity="1"
         id="g77"
         transform="matrix(0.352778,0,0,0.352778,-76.5995,-6.27578)">
        <g
           id="g76"
           transform="translate(226.351,29.997999)">
          <path
             d="m 4.125,-9.1875 c 0,-0.34375 0,-0.34375 -0.28125,-0.34375 C 3.5,-9.15625 2.78125,-8.625 1.3125,-8.625 v 0.421875 c 0.328125,0 1.046875,0 1.828125,-0.375 v 7.46875 c 0,0.515625 -0.046875,0.6875 -1.296875,0.6875 H 1.390625 V 0 c 0.390625,-0.03125 1.78125,-0.03125 2.25,-0.03125 0.46875,0 1.859375,0 2.234375,0.03125 V -0.421875 H 5.4375 c -1.265625,0 -1.3125,-0.171875 -1.3125,-0.6875 z m 0,0"
             id="path75" />
        </g>
      </g>
    </g>
    <g
       transform="translate(89.988721,52.502652)"
       id="g83">
      <g
         fill="#000000"
         fill-opacity="1"
         id="g80"
         transform="matrix(0.352778,0,0,0.352778,-76.5995,-6.27578)">
        <g
           id="g79"
           transform="translate(216.57001,26.899)">
          <path
             d="m 9.4375,-7.71875 c 0,-1.3125 -0.65625,-1.390625 -0.828125,-1.390625 -0.484375,0 -0.953125,0.5 -0.953125,0.90625 0,0.25 0.15625,0.390625 0.234375,0.484375 0.203125,0.171875 0.75,0.734375 0.75,1.8125 0,0.859375 -1.25,5.703125 -3.71875,5.703125 -1.265625,0 -1.515625,-1.0625 -1.515625,-1.828125 0,-1.03125 0.484375,-2.46875 1.03125,-3.953125 0.328125,-0.859375 0.421875,-1.0625 0.421875,-1.46875 0,-0.875 -0.625,-1.65625 -1.640625,-1.65625 -1.890625,0 -2.65625,3 -2.65625,3.15625 0,0.09375 0.078125,0.1875 0.21875,0.1875 0.1875,0 0.203125,-0.078125 0.296875,-0.375 0.484375,-1.765625 1.296875,-2.5625 2.078125,-2.5625 0.1875,0 0.546875,0 0.546875,0.6875 0,0.53125 -0.234375,1.140625 -0.546875,1.921875 -0.984375,2.640625 -0.984375,3.28125 -0.984375,3.78125 0,0.453125 0.0625,1.296875 0.703125,1.875 0.734375,0.640625 1.765625,0.640625 1.953125,0.640625 3.4375,0 4.609375,-6.75 4.609375,-7.921875 z m 0,0"
             id="path78" />
        </g>
      </g>
      <g
         fill="#000000"
         fill-opacity="1"
         id="g82"
         transform="matrix(0.352778,0,0,0.352778,-76.5995,-6.27578)">
        <g
           id="g81"
           transform="translate(226.351,29.997999)">
          <path
             d="M 6.3125,-2.40625 H 6 c -0.046875,0.234375 -0.15625,1.03125 -0.3125,1.265625 -0.09375,0.125 -0.90625,0.125 -1.34375,0.125 H 1.6875 c 0.390625,-0.328125 1.265625,-1.25 1.640625,-1.59375 2.1875,-2.015625 2.984375,-2.75 2.984375,-4.171875 0,-1.65625 -1.3125,-2.75 -2.96875,-2.75 -1.671875,0 -2.640625,1.40625 -2.640625,2.640625 0,0.734375 0.625,0.734375 0.671875,0.734375 0.296875,0 0.671875,-0.21875 0.671875,-0.671875 C 2.046875,-7.234375 1.78125,-7.5 1.375,-7.5 1.25,-7.5 1.21875,-7.5 1.171875,-7.484375 1.453125,-8.46875 2.21875,-9.125 3.15625,-9.125 4.375,-9.125 5.125,-8.109375 5.125,-6.78125 5.125,-5.5625 4.421875,-4.5 3.59375,-3.578125 L 0.703125,-0.34375 V 0 H 5.9375 Z m 0,0"
             id="path80" />
        </g>
      </g>
    </g>
    <g
       transform="translate(110.5671,52.057715)"
       id="g88">
      <g
         fill="#000000"
         fill-opacity="1"
         id="g85"
         transform="matrix(0.352778,0,0,0.352778,-76.4648,-6.27578)">
        <g
           id="g84"
           transform="translate(216.188,26.899)">
          <path
             d="m 9.4375,-7.71875 c 0,-1.3125 -0.65625,-1.390625 -0.828125,-1.390625 -0.484375,0 -0.953125,0.5 -0.953125,0.90625 0,0.25 0.15625,0.390625 0.234375,0.484375 0.203125,0.171875 0.75,0.734375 0.75,1.8125 0,0.859375 -1.25,5.703125 -3.71875,5.703125 -1.265625,0 -1.515625,-1.0625 -1.515625,-1.828125 0,-1.03125 0.484375,-2.46875 1.03125,-3.953125 0.328125,-0.859375 0.421875,-1.0625 0.421875,-1.46875 0,-0.875 -0.625,-1.65625 -1.640625,-1.65625 -1.890625,0 -2.65625,3 -2.65625,3.15625 0,0.09375 0.078125,0.1875 0.21875,0.1875 0.1875,0 0.203125,-0.078125 0.296875,-0.375 0.484375,-1.765625 1.296875,-2.5625 2.078125,-2.5625 0.1875,0 0.546875,0 0.546875,0.6875 0,0.53125 -0.234375,1.140625 -0.546875,1.921875 -0.984375,2.640625 -0.984375,3.28125 -0.984375,3.78125 0,0.453125 0.0625,1.296875 0.703125,1.875 0.734375,0.640625 1.765625,0.640625 1.953125,0.640625 3.4375,0 4.609375,-6.75 4.609375,-7.921875 z m 0,0"
             id="path83" />
        </g>
      </g>
      <g
         fill="#000000"
         fill-opacity="1"
         id="g87"
         transform="matrix(0.352778,0,0,0.352778,-76.4648,-6.27578)">
        <g
           id="g86"
           transform="translate(225.96899,29.997999)">
          <path
             d="m 4.03125,-9.59375 c 0.015625,-0.0625 0.046875,-0.140625 0.046875,-0.21875 0,-0.140625 -0.140625,-0.140625 -0.171875,-0.140625 -0.015625,0 -0.53125,0.046875 -0.796875,0.0625 C 2.875,-9.875 2.65625,-9.84375 2.390625,-9.828125 c -0.34375,0.03125 -0.4375,0.046875 -0.4375,0.296875 0,0.15625 0.140625,0.15625 0.28125,0.15625 0.734375,0 0.734375,0.125 0.734375,0.265625 0,0.0625 0,0.09375 -0.078125,0.34375 L 0.84375,-0.5625 c -0.0625,0.21875 -0.0625,0.25 -0.0625,0.328125 0,0.328125 0.25,0.375 0.390625,0.375 0.40625,0 0.484375,-0.3125 0.609375,-0.75 l 0.671875,-2.6875 c 1.03125,0.109375 1.65625,0.546875 1.65625,1.234375 0,0.078125 0,0.140625 -0.046875,0.359375 C 4,-1.484375 4,-1.3125 4,-1.25 c 0,0.828125 0.546875,1.390625 1.28125,1.390625 0.65625,0 1,-0.59375 1.109375,-0.796875 0.3125,-0.53125 0.5,-1.34375 0.5,-1.390625 0,-0.078125 -0.0625,-0.140625 -0.15625,-0.140625 -0.125,0 -0.140625,0.0625 -0.1875,0.296875 -0.203125,0.75 -0.515625,1.75 -1.234375,1.75 -0.296875,0 -0.484375,-0.140625 -0.484375,-0.6875 0,-0.28125 0.0625,-0.59375 0.125,-0.8125 C 5,-1.890625 5,-1.90625 5,-2.078125 c 0,-0.84375 -0.75,-1.328125 -2.078125,-1.5 0.515625,-0.3125 1.03125,-0.875 1.234375,-1.078125 0.828125,-0.921875 1.375,-1.375 2.046875,-1.375 0.328125,0 0.40625,0.078125 0.515625,0.171875 C 6.1875,-5.8125 5.984375,-5.4375 5.984375,-5.15625 c 0,0.34375 0.265625,0.46875 0.46875,0.46875 0.390625,0 0.734375,-0.328125 0.734375,-0.796875 0,-0.40625 -0.328125,-0.84375 -0.984375,-0.84375 -0.78125,0 -1.421875,0.5625 -2.4375,1.703125 -0.15625,0.171875 -0.6875,0.71875 -1.21875,0.921875 z m 0,0"
             id="path85" />
        </g>
      </g>
    </g>
  </g>
</svg>
