<?xml version="1.0" encoding="UTF-8" standalone="no"?>
<svg
   x="0"
   y="0"
   width="188.07166"
   height="190.26999"
   style="fill:none"
   version="1.1"
   id="svg104"
   sodipodi:docname="reach.svg"
   inkscape:version="1.3.2 (091e20e, 2023-11-25)"
   xmlns:inkscape="http://www.inkscape.org/namespaces/inkscape"
   xmlns:sodipodi="http://sodipodi.sourceforge.net/DTD/sodipodi-0.dtd"
   xmlns="http://www.w3.org/2000/svg"
   xmlns:svg="http://www.w3.org/2000/svg">
  <sodipodi:namedview
     id="namedview1"
     pagecolor="#ffffff"
     bordercolor="#000000"
     borderopacity="0.25"
     inkscape:showpageshadow="2"
     inkscape:pageopacity="0.0"
     inkscape:pagecheckerboard="0"
     inkscape:deskcolor="#d1d1d1"
     inkscape:zoom="1.2403426"
     inkscape:cx="86.266485"
     inkscape:cy="84.654027"
     inkscape:window-width="1472"
     inkscape:window-height="863"
     inkscape:window-x="0"
     inkscape:window-y="1117"
     inkscape:window-maximized="0"
     inkscape:current-layer="svg104" />
  <defs
     id="defs104" />
  <path
     class="connection real"
     stroke-dasharray="none"
     d="m 108.57166,162.27 c 17.79,-6.89 36.07,-16.29 48.71,-28.63"
     style="fill:none;fill-opacity:1;stroke:#000000;stroke-width:2px"
     id="path1" />
  <path
     d="m 155.69534,145.02482 4.33703,-14.21602 -13.8106,5.50462 7.78641,1.04665 z"
     id="path2"
     style="fill:#000000;stroke:none;stroke-width:2px" />
  <path
     class="connection real"
     stroke-dasharray="none"
     d="m 163.07166,124.27 c -21.43,3.19 -37.09,19.05 -46.61,29.64"
     style="fill:none;fill-opacity:1;stroke:#000000;stroke-width:2px"
     id="path3" />
  <path
     d="m 117.88217,142.5859 -4.06083,14.29736 13.70138,-5.77112 -7.80522,-0.89561 z"
     id="path4"
     style="fill:#000000;stroke:none;stroke-width:2px" />
  <path
     class="connection real"
     stroke-dasharray="none"
     d="m 37.901657,114.61 c 9.33,29.11 15.25,32.92 44.85,47.98"
     style="fill:none;fill-opacity:1;stroke:#000000;stroke-width:2px"
     id="path5" />
  <path
     d="m 71.21253,163.93978 14.859127,0.33356 -9.032286,-11.80896 1.096694,7.77952 z"
     id="path6"
     style="fill:#000000;stroke:none;stroke-width:2px" />
  <path
     class="connection real"
     stroke-dasharray="none"
     d="m 37.901657,114.61 c 24.16,-22.880005 44.48,-35.320005 71.730003,-50.430005"
     style="fill:none;fill-opacity:1;stroke:#000000;stroke-width:2px"
     id="path7" />
  <path
     d="m 104.44583,74.377046 8.62583,-12.103715 -14.843713,0.835401 7.051333,3.464452 z"
     id="path8"
     style="fill:#000000;stroke:none;stroke-width:2px" />
  <path
     class="connection real"
     stroke-dasharray="none"
     d="m 23.071657,24.769995 c -5.28,22.08 -4.11,42.78 4.84,70.5"
     style="fill:none;fill-opacity:1;stroke:#000000;stroke-width:2px"
     id="path9" />
  <path
     d="m 18.679316,88.147695 10.392341,10.62564 1.796093,-14.758311 -4.653962,6.329631 z"
     id="path10"
     style="fill:#000000;stroke:none;stroke-width:2px" />
  <path
     class="connection real"
     stroke-dasharray="none"
     d="m 27.401657,21.609995 c 28.63,-11.42 62.23,-5.3 87.460003,15.36"
     style="fill:none;fill-opacity:1;stroke:#000000;stroke-width:2px"
     id="path11" />
  <path
     d="m 103.26935,35.229973 14.30231,4.043358 -5.78786,-13.694316 -0.88607,7.80631 z"
     id="path12"
     style="fill:#000000;stroke:none;stroke-width:2px" />
  <path
     class="real"
     d="m 20.241657,114.61 c 0,-9.76 7.91,-17.670005 17.66,-17.670005 9.76,0 17.67,7.910005 17.67,17.670005 0,9.75 -7.91,17.66 -17.67,17.66 -9.75,0 -17.66,-7.91 -17.66,-17.66 z"
     style="fill:#ffffff;fill-opacity:1;stroke:#000000;stroke-width:2px"
     id="path13" />
  <path
     class="real"
     d="m 151.74166,114.61 c 0,-9.76 7.91,-17.670005 17.66,-17.670005 9.76,0 17.67,7.910005 17.67,17.670005 0,9.75 -7.91,17.66 -17.67,17.66 -9.75,0 -17.66,-7.91 -17.66,-17.66 z"
     style="fill:#ffffff;fill-opacity:1;stroke:#000000;stroke-width:2px"
     id="path15" />
  <path
     class="real"
     d="m 85.241657,171.61 c 0,-9.76 7.91,-17.67 17.660003,-17.67 9.76,0 17.67,7.91 17.67,17.67 0,9.75 -7.91,17.66 -17.67,17.66 -9.750003,0 -17.660003,-7.91 -17.660003,-17.66 z"
     style="fill:#ffffff;fill-opacity:1;stroke:#000000;stroke-width:2px"
     id="path17" />
  <path
     class="real"
     d="m 9.7416565,21.609995 c 0,-9.76 7.9100005,-17.67 17.6600005,-17.67 9.76,0 17.67,7.91 17.67,17.67 0,9.75 -7.91,17.66 -17.67,17.66 -9.75,0 -17.6600005,-7.91 -17.6600005,-17.66 z"
     style="fill:#ffffff;fill-opacity:1;stroke:#000000;stroke-width:2px"
     id="path19" />
  <path
     class="real"
     d="m 154.74166,114.61 c 0,-8.1 6.56,-14.670005 14.66,-14.670005 8.1,0 14.67,6.570005 14.67,14.670005 0,8.1 -6.57,14.66 -14.67,14.66 -8.1,0 -14.66,-6.56 -14.66,-14.66 z"
     style="fill:#ffffff;fill-opacity:1;stroke:#000000;stroke-width:2px"
     id="path20" />
  <path
     class="connection real"
     stroke-dasharray="none"
     d="m 129.40166,54.609995 c 21.9,11.02 25.33,18.33 31.97,38.08"
     style="fill:none;fill-opacity:1;stroke:#000000;stroke-width:2px"
     id="path21" />
  <path
     d="m 152.23509,85.593425 10.33657,10.6799 1.87334,-14.748697 -4.68704,6.305177 z"
     id="path22"
     style="fill:#000000;stroke:none;stroke-width:2px" />
  <path
     class="real"
     d="m 111.74166,54.609995 c 0,-9.76 7.91,-17.67 17.66,-17.67 9.76,0 17.67,7.91 17.67,17.67 0,9.75 -7.91,17.66 -17.67,17.66 -9.75,0 -17.66,-7.91 -17.66,-17.66 z"
     style="fill:#ffffff;fill-opacity:1;stroke:#000000;stroke-width:2px"
     id="path23" />
  <path
     d="m 130.864,53.331328 c 0,-0.884 -1.003,-1.122 -1.581,-1.122 -0.986,0 -1.581,0.901 -1.785,1.292 -0.425,-1.122 -1.343,-1.292 -1.836,-1.292 -1.768,0 -2.737,2.193 -2.737,2.618 0,0.17 0.204,0.17 0.204,0.17 0.136,0 0.187,-0.034 0.221,-0.187 0.578,-1.802 1.7,-2.227 2.278,-2.227 0.323,0 0.918,0.153 0.918,1.139 0,0.527 -0.289,1.666 -0.918,4.046 -0.272,1.054 -0.867,1.768 -1.615,1.768 -0.102,0 -0.493,0 -0.85,-0.221 0.425,-0.085 0.799,-0.442 0.799,-0.918 0,-0.459 -0.374,-0.595 -0.629,-0.595 -0.51,0 -0.935,0.442 -0.935,0.986 0,0.782 0.85,1.122 1.598,1.122 1.122,0 1.734,-1.19 1.785,-1.292 0.204,0.629 0.816,1.292 1.836,1.292 1.751,0 2.72,-2.193 2.72,-2.618 0,-0.17 -0.153,-0.17 -0.204,-0.17 -0.153,0 -0.187,0.068 -0.221,0.187 -0.561,1.819 -1.717,2.227 -2.261,2.227 -0.663,0 -0.935,-0.544 -0.935,-1.122 0,-0.374 0.102,-0.748 0.289,-1.496 l 0.578,-2.329 c 0.102,-0.442 0.493,-2.006 1.683,-2.006 0.085,0 0.493,0 0.85,0.221 -0.476,0.085 -0.816,0.51 -0.816,0.918 0,0.272 0.187,0.595 0.646,0.595 0.374,0 0.918,-0.306 0.918,-0.986 z"
     stroke="#000000"
     stroke-opacity="1"
     stroke-width="0.136"
     fill="#000000"
     fill-opacity="1"
     id="path30"
     style="font-family:LatinModern-Math, LatinModern, Asana-Math, Asana" />
  <path
     d="m 137.12441,62.773337 v -0.3689 h -0.3808 c -1.071,0 -1.1067,-0.1309 -1.1067,-0.5712 v -6.6759 c 0,-0.2856 0,-0.3094 -0.2737,-0.3094 -0.7378,0.7616 -1.785,0.7616 -2.1658,0.7616 v 0.3689 c 0.238,0 0.9401,0 1.5589,-0.3094 v 6.1642 c 0,0.4284 -0.0357,0.5712 -1.1067,0.5712 h -0.3808 v 0.3689 c 0.4165,-0.0357 1.4518,-0.0357 1.9278,-0.0357 0.476,0 1.5113,0 1.9278,0.0357 z"
     stroke="#000000"
     stroke-opacity="1"
     stroke-width="0.0952"
     fill="#000000"
     fill-opacity="1"
     id="path32"
     style="font-family:LatinModern-Math, LatinModern, Asana-Math, Asana" />
  <path
     d="m 170.864,112.33133 c 0,-0.884 -1.003,-1.122 -1.581,-1.122 -0.986,0 -1.581,0.901 -1.785,1.292 -0.425,-1.122 -1.343,-1.292 -1.836,-1.292 -1.768,0 -2.737,2.193 -2.737,2.618 0,0.17 0.204,0.17 0.204,0.17 0.136,0 0.187,-0.034 0.221,-0.187 0.578,-1.802 1.7,-2.227 2.278,-2.227 0.323,0 0.918,0.153 0.918,1.139 0,0.527 -0.289,1.666 -0.918,4.046 -0.272,1.054 -0.867,1.768 -1.615,1.768 -0.102,0 -0.493,0 -0.85,-0.221 0.425,-0.085 0.799,-0.442 0.799,-0.918 0,-0.459 -0.374,-0.595 -0.629,-0.595 -0.51,0 -0.935,0.442 -0.935,0.986 0,0.782 0.85,1.122 1.598,1.122 1.122,0 1.734,-1.19 1.785,-1.292 0.204,0.629 0.816,1.292 1.836,1.292 1.751,0 2.72,-2.193 2.72,-2.618 0,-0.17 -0.153,-0.17 -0.204,-0.17 -0.153,0 -0.187,0.068 -0.221,0.187 -0.561,1.819 -1.717,2.227 -2.261,2.227 -0.663,0 -0.935,-0.544 -0.935,-1.122 0,-0.374 0.102,-0.748 0.289,-1.496 l 0.578,-2.329 c 0.102,-0.442 0.493,-2.006 1.683,-2.006 0.085,0 0.493,0 0.85,0.221 -0.476,0.085 -0.816,0.51 -0.816,0.918 0,0.272 0.187,0.595 0.646,0.595 0.374,0 0.918,-0.306 0.918,-0.986 z"
     stroke="#000000"
     stroke-opacity="1"
     stroke-width="0.136"
     fill="#000000"
     fill-opacity="1"
     id="path39"
     style="font-family:LatinModern-Math, LatinModern, Asana-Math, Asana" />
  <path
     d="m 177.57661,119.73844 c 0,-0.9758 -0.7497,-1.904 -1.9873,-2.1539 0.9758,-0.3213 1.666,-1.1543 1.666,-2.0944 0,-0.9758 -1.0472,-1.6422 -2.1896,-1.6422 -1.2019,0 -2.1063,0.714 -2.1063,1.6184 0,0.3927 0.2618,0.6188 0.6069,0.6188 0.3689,0 0.6069,-0.2618 0.6069,-0.6069 0,-0.595 -0.5593,-0.595 -0.7378,-0.595 0.3689,-0.5831 1.1543,-0.7378 1.5827,-0.7378 0.4879,0 1.1424,0.2618 1.1424,1.3328 0,0.1428 -0.0238,0.833 -0.3332,1.3566 -0.357,0.5712 -0.7616,0.6069 -1.0591,0.6188 -0.0952,0.0119 -0.3808,0.0357 -0.4641,0.0357 -0.0952,0.0119 -0.1785,0.0238 -0.1785,0.1428 0,0.1309 0.0833,0.1309 0.2856,0.1309 h 0.5236 c 0.9758,0 1.4161,0.8092 1.4161,1.9754 0,1.6184 -0.8211,1.9635 -1.3447,1.9635 -0.5117,0 -1.4042,-0.2023 -1.8207,-0.9044 0.4165,0.0595 0.7854,-0.2023 0.7854,-0.6545 0,-0.4284 -0.3213,-0.6664 -0.6664,-0.6664 -0.2856,0 -0.6664,0.1666 -0.6664,0.6902 0,1.0829 1.1067,1.8683 2.4038,1.8683 1.4518,0 2.5347,-1.0829 2.5347,-2.2967 z"
     stroke="#000000"
     stroke-opacity="1"
     stroke-width="0.0952"
     fill="#000000"
     fill-opacity="1"
     id="path41"
     style="font-family:LatinModern-Math, LatinModern, Asana-Math, Asana" />
  <path
     d="m 104.864,168.83135 c 0,-0.884 -1.003,-1.122 -1.581,-1.122 -0.986,0 -1.581,0.901 -1.785,1.292 -0.425,-1.122 -1.343,-1.292 -1.836003,-1.292 -1.768,0 -2.737,2.193 -2.737,2.618 0,0.17 0.204,0.17 0.204,0.17 0.136,0 0.187,-0.034 0.221,-0.187 0.578,-1.802 1.7,-2.227 2.278,-2.227 0.323,0 0.918003,0.153 0.918003,1.139 0,0.527 -0.289,1.666 -0.918003,4.046 -0.272,1.054 -0.867,1.768 -1.615,1.768 -0.102,0 -0.493,0 -0.85,-0.221 0.425,-0.085 0.799,-0.442 0.799,-0.918 0,-0.459 -0.374,-0.595 -0.629,-0.595 -0.51,0 -0.935,0.442 -0.935,0.986 0,0.782 0.85,1.122 1.598,1.122 1.122,0 1.734,-1.19 1.785,-1.292 0.204,0.629 0.816003,1.292 1.836003,1.292 1.751,0 2.72,-2.193 2.72,-2.618 0,-0.17 -0.153,-0.17 -0.204,-0.17 -0.153,0 -0.187,0.068 -0.221,0.187 -0.561,1.819 -1.717,2.227 -2.261,2.227 -0.663,0 -0.935,-0.544 -0.935,-1.122 0,-0.374 0.102,-0.748 0.289,-1.496 l 0.578,-2.329 c 0.102,-0.442 0.493,-2.006 1.683,-2.006 0.085,0 0.493,0 0.85,0.221 -0.476,0.085 -0.816,0.51 -0.816,0.918 0,0.272 0.187,0.595 0.646,0.595 0.374,0 0.918,-0.306 0.918,-0.986 z"
     stroke="#000000"
     stroke-opacity="1"
     stroke-width="0.136"
     fill="#000000"
     fill-opacity="1"
     id="path48"
     style="font-family:LatinModern-Math, LatinModern, Asana-Math, Asana" />
  <path
     d="m 111.74321,176.30984 v -0.3689 h -1.19 v -5.4145 c 0,-0.238 0,-0.3094 -0.1904,-0.3094 -0.1071,0 -0.1428,0 -0.238,0.1428 l -3.6533,5.5811 v 0.3689 h 3.1654 v 1.0353 c 0,0.4284 -0.0238,0.5593 -0.9044,0.5593 h -0.2499 v 0.3689 c 0.4879,-0.0357 1.1067,-0.0357 1.6065,-0.0357 0.4998,0 1.1305,0 1.6184,0.0357 v -0.3689 h -0.2499 c -0.8806,0 -0.9044,-0.1309 -0.9044,-0.5593 v -1.0353 z m -2.0349,-0.3689 h -2.9036 l 2.9036,-4.4387 z"
     stroke="#000000"
     stroke-opacity="1"
     stroke-width="0.0952"
     fill="#000000"
     fill-opacity="1"
     id="path50"
     style="font-family:LatinModern-Math, LatinModern, Asana-Math, Asana" />
  <path
     d="m 39.864001,112.33133 c 0,-0.884 -1.003,-1.122 -1.581,-1.122 -0.986,0 -1.581,0.901 -1.785,1.292 -0.425,-1.122 -1.343,-1.292 -1.836,-1.292 -1.768,0 -2.737,2.193 -2.737,2.618 0,0.17 0.204,0.17 0.204,0.17 0.136,0 0.187,-0.034 0.221,-0.187 0.578,-1.802 1.7,-2.227 2.278,-2.227 0.323,0 0.918,0.153 0.918,1.139 0,0.527 -0.289,1.666 -0.918,4.046 -0.272,1.054 -0.867,1.768 -1.615,1.768 -0.102,0 -0.493,0 -0.85,-0.221 0.425,-0.085 0.799,-0.442 0.799,-0.918 0,-0.459 -0.374,-0.595 -0.629,-0.595 -0.51,0 -0.935,0.442 -0.935,0.986 0,0.782 0.85,1.122 1.598,1.122 1.122,0 1.734,-1.19 1.785,-1.292 0.204,0.629 0.816,1.292 1.836,1.292 1.751,0 2.72,-2.193 2.72,-2.618 0,-0.17 -0.153,-0.17 -0.204,-0.17 -0.153,0 -0.187,0.068 -0.221,0.187 -0.561,1.819 -1.717,2.227 -2.261,2.227 -0.663,0 -0.935,-0.544 -0.935,-1.122 0,-0.374 0.102,-0.748 0.289,-1.496 l 0.578,-2.329 c 0.102,-0.442 0.493,-2.006 1.683,-2.006 0.085,0 0.493,0 0.85,0.221 -0.476,0.085 -0.816,0.51 -0.816,0.918 0,0.272 0.187,0.595 0.646,0.595 0.374,0 0.918,-0.306 0.918,-0.986 z"
     stroke="#000000"
     stroke-opacity="1"
     stroke-width="0.136"
     fill="#000000"
     fill-opacity="1"
     id="path57"
     style="font-family:LatinModern-Math, LatinModern, Asana-Math, Asana" />
  <path
     d="m 46.481423,119.70274 h -0.2975 c -0.0595,0.357 -0.1428,0.8806 -0.2618,1.0591 -0.0833,0.0952 -0.8687,0.0952 -1.1305,0.0952 h -2.142 l 1.2614,-1.2257 c 1.8564,-1.6422 2.5704,-2.2848 2.5704,-3.4748 0,-1.3566 -1.071,-2.3086 -2.5228,-2.3086 -1.3447,0 -2.2253,1.0948 -2.2253,2.1539 0,0.6664 0.595,0.6664 0.6307,0.6664 0.2023,0 0.6188,-0.1428 0.6188,-0.6307 0,-0.3094 -0.2142,-0.6188 -0.6307,-0.6188 -0.0952,0 -0.119,0 -0.1547,0.0119 0.2737,-0.7735 0.9163,-1.2138 1.6065,-1.2138 1.0829,0 1.5946,0.9639 1.5946,1.9397 0,0.952 -0.595,1.8921 -1.2495,2.6299 l -2.2848,2.5466 c -0.1309,0.1309 -0.1309,0.1547 -0.1309,0.4403 h 4.4149 z"
     stroke="#000000"
     stroke-opacity="1"
     stroke-width="0.0952"
     fill="#000000"
     fill-opacity="1"
     id="path59"
     style="font-family:LatinModern-Math, LatinModern, Asana-Math, Asana" />
  <path
     d="m 28.864001,19.331328 c 0,-0.884 -1.003,-1.122 -1.581,-1.122 -0.986,0 -1.581,0.901 -1.785,1.292 -0.425,-1.122 -1.343,-1.292 -1.836,-1.292 -1.768,0 -2.737,2.193 -2.737,2.618 0,0.17 0.204,0.17 0.204,0.17 0.136,0 0.187,-0.034 0.221,-0.187 0.578,-1.802 1.7,-2.227 2.278,-2.227 0.323,0 0.918,0.153 0.918,1.139 0,0.527 -0.289,1.666 -0.918,4.046 -0.272,1.054 -0.867,1.768 -1.615,1.768 -0.102,0 -0.493,0 -0.85,-0.221 0.425,-0.085 0.799,-0.442 0.799,-0.918 0,-0.459 -0.374,-0.595 -0.629,-0.595 -0.51,0 -0.935,0.442 -0.935,0.986 0,0.782 0.85,1.122 1.598,1.122 1.122,0 1.734,-1.19 1.785,-1.292 0.204,0.629 0.816,1.292 1.836,1.292 1.751,0 2.72,-2.193 2.72,-2.618 0,-0.17 -0.153,-0.17 -0.204,-0.17 -0.153,0 -0.187,0.068 -0.221,0.187 -0.561,1.819 -1.717,2.227 -2.261,2.227 -0.663,0 -0.935,-0.544 -0.935,-1.122 0,-0.374 0.102,-0.748 0.289,-1.496 l 0.578,-2.329 c 0.102,-0.442 0.493,-2.006 1.683,-2.006 0.085,0 0.493,0 0.85,0.221 -0.476,0.085 -0.816,0.51 -0.816,0.918 0,0.272 0.187,0.595 0.646,0.595 0.374,0 0.918,-0.306 0.918,-0.986 z"
     stroke="#000000"
     stroke-opacity="1"
     stroke-width="0.136"
     fill="#000000"
     fill-opacity="1"
     id="path66"
     style="font-family:LatinModern-Math, LatinModern, Asana-Math, Asana" />
  <path
     d="m 35.612323,24.965337 c 0,-0.952 -0.0595,-1.904 -0.476,-2.7846 -0.5474,-1.1424 -1.5232,-1.3328 -2.023,-1.3328 -0.714,0 -1.5827,0.3094 -2.0706,1.4161 -0.3808,0.8211 -0.4403,1.7493 -0.4403,2.7013 0,0.8925 0.0476,1.9635 0.5355,2.8679 0.5117,0.9639 1.3804,1.2019 1.9635,1.2019 0.6426,0 1.547,-0.2499 2.0706,-1.3804 0.3808,-0.8211 0.4403,-1.7493 0.4403,-2.6894 z m -0.9877,-0.1428 c 0,0.8925 0,1.7017 -0.1309,2.4633 -0.1785,1.1305 -0.8568,1.4875 -1.3923,1.4875 -0.4641,0 -1.1662,-0.2975 -1.3804,-1.4399 -0.1309,-0.714 -0.1309,-1.8088 -0.1309,-2.5109 0,-0.7616 0,-1.547 0.0952,-2.1896 0.2261,-1.4161 1.1186,-1.5232 1.4161,-1.5232 0.3927,0 1.1781,0.2142 1.4042,1.3923 0.119,0.6664 0.119,1.5708 0.119,2.3205 z"
     stroke="#000000"
     stroke-opacity="1"
     stroke-width="0.0952"
     fill="#000000"
     fill-opacity="1"
     id="path68"
     style="font-family:LatinModern-Math, LatinModern, Asana-Math, Asana" />
  <path
     d="m 7.2250005,65.45 c 0,-1.36 -0.085,-2.72 -0.68,-3.978 -0.782,-1.632 -2.176,-1.904 -2.89,-1.904 -1.02,0 -2.2610005,0.442 -2.9580005,2.023 -0.544,1.173 -0.629,2.499 -0.629,3.859 0,1.275 0.068,2.805 0.765,4.097 0.731,1.377 1.9720005,1.717 2.8050005,1.717 0.918,0 2.209999,-0.357 2.958,-1.972 0.544,-1.173 0.629,-2.499 0.629,-3.842 z m -1.411,-0.204 c 0,1.275 0,2.431 -0.187001,3.519 -0.254999,1.615 -1.224,2.125 -1.988999,2.125 C 2.9750005,70.89 1.972,70.465 1.666,68.833 1.479,67.813 1.479,66.249 1.479,65.246 c 0,-1.088 0,-2.21 0.136,-3.128 0.323,-2.023 1.5980005,-2.176 2.0230005,-2.176 0.561,0 1.683,0.306 2.006,1.989 0.17,0.952 0.17,2.244 0.17,3.315 z"
     stroke="#000000"
     stroke-opacity="1"
     stroke-width="0.136"
     fill="#000000"
     fill-opacity="1"
     id="path75"
     style="font-family:LatinModern-Math, LatinModern, Asana-Math, Asana" />
  <path
     d="m 77.225001,70.45 c 0,-1.36 -0.085,-2.72 -0.68,-3.978 -0.782,-1.632 -2.176,-1.904 -2.89,-1.904 -1.02,0 -2.261,0.442 -2.958,2.023 -0.544,1.173 -0.629,2.499 -0.629,3.859 0,1.275 0.068,2.805 0.765,4.097 0.731,1.377 1.972,1.717 2.805,1.717 0.918,0 2.21,-0.357 2.958,-1.972 0.544,-1.173 0.629,-2.499 0.629,-3.842 z m -1.411,-0.204 c 0,1.275 0,2.431 -0.187,3.519 -0.255,1.615 -1.224,2.125 -1.989,2.125 -0.663,0 -1.666,-0.425 -1.972,-2.057 -0.187,-1.02 -0.187,-2.584 -0.187,-3.587 0,-1.088 0,-2.21 0.136,-3.128 0.323,-2.023 1.598,-2.176 2.023,-2.176 0.561,0 1.683,0.306 2.006,1.989 0.17,0.952 0.17,2.244 0.17,3.315 z"
     stroke="#000000"
     stroke-opacity="1"
     stroke-width="0.136"
     fill="#000000"
     fill-opacity="1"
     id="path79"
     style="font-family:LatinModern-Math, LatinModern, Asana-Math, Asana" />
  <path
     d="m 131.225,125.45 c 0,-1.36 -0.085,-2.72 -0.68,-3.978 -0.782,-1.632 -2.176,-1.904 -2.89,-1.904 -1.02,0 -2.261,0.442 -2.958,2.023 -0.544,1.173 -0.629,2.499 -0.629,3.859 0,1.275 0.068,2.805 0.765,4.097 0.731,1.377 1.972,1.717 2.805,1.717 0.918,0 2.21,-0.357 2.958,-1.972 0.544,-1.173 0.629,-2.499 0.629,-3.842 z m -1.411,-0.204 c 0,1.275 0,2.431 -0.187,3.519 -0.255,1.615 -1.224,2.125 -1.989,2.125 -0.663,0 -1.666,-0.425 -1.972,-2.057 -0.187,-1.02 -0.187,-2.584 -0.187,-3.587 0,-1.088 0,-2.21 0.136,-3.128 0.323,-2.023 1.598,-2.176 2.023,-2.176 0.561,0 1.683,0.306 2.006,1.989 0.17,0.952 0.17,2.244 0.17,3.315 z"
     stroke="#000000"
     stroke-opacity="1"
     stroke-width="0.136"
     fill="#000000"
     fill-opacity="1"
     id="path83"
     style="font-family:LatinModern-Math, LatinModern, Asana-Math, Asana" />
  <path
     d="m 171.225,65.45 c 0,-1.36 -0.085,-2.72 -0.68,-3.978 -0.782,-1.632 -2.176,-1.904 -2.89,-1.904 -1.02,0 -2.261,0.442 -2.958,2.023 -0.544,1.173 -0.629,2.499 -0.629,3.859 0,1.275 0.068,2.805 0.765,4.097 0.731,1.377 1.972,1.717 2.805,1.717 0.918,0 2.21,-0.357 2.958,-1.972 0.544,-1.173 0.629,-2.499 0.629,-3.842 z m -1.411,-0.204 c 0,1.275 0,2.431 -0.187,3.519 -0.255,1.615 -1.224,2.125 -1.989,2.125 -0.663,0 -1.666,-0.425 -1.972,-2.057 -0.187,-1.02 -0.187,-2.584 -0.187,-3.587 0,-1.088 0,-2.21 0.136,-3.128 0.323,-2.023 1.598,-2.176 2.023,-2.176 0.561,0 1.683,0.306 2.006,1.989 0.17,0.952 0.17,2.244 0.17,3.315 z"
     stroke="#000000"
     stroke-opacity="1"
     stroke-width="0.136"
     fill="#000000"
     fill-opacity="1"
     id="path87"
     style="font-family:LatinModern-Math, LatinModern, Asana-Math, Asana" />
  <path
     d="m 155.528,168.39 v -0.527 h -0.544 c -1.53,0 -1.581,-0.187 -1.581,-0.816 v -9.537 c 0,-0.408 0,-0.442 -0.391,-0.442 -1.054,1.088 -2.55,1.088 -3.094,1.088 v 0.527 c 0.34,0 1.343,0 2.227,-0.442 v 8.806 c 0,0.612 -0.051,0.816 -1.581,0.816 h -0.544 v 0.527 c 0.595,-0.051 2.074,-0.051 2.754,-0.051 0.68,0 2.159,0 2.754,0.051 z"
     stroke="#000000"
     stroke-opacity="1"
     stroke-width="0.136"
     fill="#000000"
     fill-opacity="1"
     id="path91"
     style="font-family:LatinModern-Math, LatinModern, Asana-Math, Asana" />
  <path
     d="m 46.528001,163.39 v -0.527 h -0.544 c -1.53,0 -1.581,-0.187 -1.581,-0.816 v -9.537 c 0,-0.408 0,-0.442 -0.391,-0.442 -1.054,1.088 -2.55,1.088 -3.094,1.088 v 0.527 c 0.34,0 1.343,0 2.227,-0.442 v 8.806 c 0,0.612 -0.051,0.816 -1.581,0.816 h -0.544 v 0.527 c 0.595,-0.051 2.074,-0.051 2.754,-0.051 0.68,0 2.159,0 2.754,0.051 z"
     stroke="#000000"
     stroke-opacity="1"
     stroke-width="0.136"
     fill="#000000"
     fill-opacity="1"
     id="path95"
     style="font-family:LatinModern-Math, LatinModern, Asana-Math, Asana" />
  <path
     d="m 86.528001,11.39 v -0.527 h -0.544 c -1.53,0 -1.581,-0.187 -1.581,-0.816 V 0.51 c 0,-0.408 0,-0.442 -0.391,-0.442 -1.054,1.088 -2.55,1.088 -3.094,1.088 v 0.527 c 0.34,0 1.343,0 2.227,-0.442 v 8.806 c 0,0.612 -0.051,0.816 -1.581,0.816 h -0.544 v 0.527 c 0.595,-0.051 2.074,-0.051 2.754,-0.051 0.68,0 2.159,0 2.754,0.051 z"
     stroke="#000000"
     stroke-opacity="1"
     stroke-width="0.136"
     fill="#000000"
     fill-opacity="1"
     id="path99"
     style="font-family:LatinModern-Math, LatinModern, Asana-Math, Asana" />
</svg>
