<?xml version="1.0" encoding="UTF-8" standalone="no"?>
<svg
   x="0"
   y="0"
   width="188.07166"
   height="190.27"
   style="fill:none"
   version="1.1"
   id="svg104"
   xmlns="http://www.w3.org/2000/svg"
   xmlns:svg="http://www.w3.org/2000/svg">
  <defs
     id="defs104" />
  <svg
     class="role-diagram-draw-area"
     style="overflow:visible"
     version="1.1"
     id="svg30"
     width="100%"
     height="100%"
     transform="translate(-7.9283433,-10.560004)">
    <g
       class="shapes-region"
       style="fill:none;stroke:#000000"
       id="g27">
      <g
         class="arrow-line"
         id="g3">
        <path
           class="connection real"
           stroke-dasharray="none"
           d="m 116.5,172.83 c 17.79,-6.89 36.07,-16.29 48.71,-28.63"
           style="fill:none;fill-opacity:1;stroke:#000000;stroke-width:2px"
           id="path1" />
        <g
           stroke="none"
           fill="#000"
           transform="rotate(132.6,52.952073,107.5492)"
           style="fill:#000000;stroke:none;stroke-width:2px"
           id="g2">
          <path
             d="M 13.4,-6.43 0,0 13.4,6.44 8.9,0 Z"
             id="path2" />
        </g>
      </g>
      <g
         class="arrow-line"
         id="g5">
        <path
           class="connection real"
           stroke-dasharray="none"
           d="m 171,134.83 c -21.43,3.19 -37.09,19.05 -46.61,29.64"
           style="fill:none;fill-opacity:1;stroke:#000000;stroke-width:2px"
           id="path3" />
        <g
           stroke="none"
           fill="#000"
           transform="rotate(-48.51,246.68667,-51.384019)"
           style="fill:#000000;stroke:none;stroke-width:2px"
           id="g4">
          <path
             d="M 13.4,-6.43 0,0 13.4,6.44 8.9,0 Z"
             id="path4" />
        </g>
      </g>
      <g
         class="arrow-line"
         id="g7">
        <path
           class="connection real"
           stroke-dasharray="none"
           d="m 45.83,125.17 c 9.33,29.11 15.25,32.92 44.85,47.98"
           style="fill:none;fill-opacity:1;stroke:#000000;stroke-width:2px"
           id="path5" />
        <g
           stroke="none"
           fill="#000"
           transform="rotate(-153.08,67.92235,76.167664)"
           style="fill:#000000;stroke:none;stroke-width:2px"
           id="g6">
          <path
             d="M 13.4,-6.43 0,0 13.4,6.44 8.9,0 Z"
             id="path6" />
        </g>
      </g>
      <g
         class="arrow-line"
         id="g9">
        <path
           class="connection real"
           stroke-dasharray="none"
           d="M 45.83,125.17 C 69.99,102.29 90.31,89.85 117.56,74.74"
           style="fill:none;fill-opacity:1;stroke:#000000;stroke-width:2px"
           id="path7" />
        <g
           stroke="none"
           fill="#000"
           transform="rotate(151.11,51.119296,52.001087)"
           style="fill:#000000;stroke:none;stroke-width:2px"
           id="g8">
          <path
             d="M 13.4,-6.43 0,0 13.4,6.44 8.9,0 Z"
             id="path8" />
        </g>
      </g>
      <g
         class="arrow-line"
         id="g11">
        <path
           class="connection real"
           stroke-dasharray="none"
           d="m 31,35.33 c -5.28,22.08 -4.11,42.78 4.84,70.5"
           style="fill:none;fill-opacity:1;stroke:#000000;stroke-width:2px"
           id="path9" />
        <g
           stroke="none"
           fill="#000"
           transform="rotate(-108.73,57.688023,41.404868)"
           style="fill:#000000;stroke:none;stroke-width:2px"
           id="g10">
          <path
             d="M 13.4,-6.43 0,0 13.4,6.44 8.9,0 Z"
             id="path10" />
        </g>
      </g>
      <g
         class="arrow-line"
         id="g13">
        <path
           class="connection real"
           stroke-dasharray="none"
           d="m 35.33,32.17 c 28.63,-11.42 62.23,-5.3 87.46,15.36"
           style="fill:none;fill-opacity:1;stroke:#000000;stroke-width:2px"
           id="path11" />
        <g
           stroke="none"
           fill="#000"
           transform="rotate(-138.58,72.170194,1.1929023)"
           style="fill:#000000;stroke:none;stroke-width:2px"
           id="g12">
          <path
             d="M 13.4,-6.43 0,0 13.4,6.44 8.9,0 Z"
             id="path12" />
        </g>
      </g>
      <g
         class="grouped-shape"
         id="g15">
        <g
           class="composite-shape"
           id="g14">
          <path
             class="real"
             d="m 28.17,125.17 c 0,-9.76 7.91,-17.67 17.66,-17.67 9.76,0 17.67,7.91 17.67,17.67 0,9.75 -7.91,17.66 -17.67,17.66 -9.75,0 -17.66,-7.91 -17.66,-17.66 z"
             style="fill:#ffffff;fill-opacity:1;stroke:#000000;stroke-width:2px"
             id="path13" />
        </g>
      </g>
      <g
         class="grouped-shape"
         id="g17">
        <g
           class="composite-shape"
           id="g16">
          <path
             class="real"
             d="m 159.67,125.17 c 0,-9.76 7.91,-17.67 17.66,-17.67 9.76,0 17.67,7.91 17.67,17.67 0,9.75 -7.91,17.66 -17.67,17.66 -9.75,0 -17.66,-7.91 -17.66,-17.66 z"
             style="fill:#ffffff;fill-opacity:1;stroke:#000000;stroke-width:2px"
             id="path15" />
        </g>
      </g>
      <g
         class="grouped-shape"
         id="g19">
        <g
           class="composite-shape"
           id="g18">
          <path
             class="real"
             d="m 93.17,182.17 c 0,-9.76 7.91,-17.67 17.66,-17.67 9.76,0 17.67,7.91 17.67,17.67 0,9.75 -7.91,17.66 -17.67,17.66 -9.75,0 -17.66,-7.91 -17.66,-17.66 z"
             style="fill:#ffffff;fill-opacity:1;stroke:#000000;stroke-width:2px"
             id="path17" />
        </g>
      </g>
      <g
         class="composite-shape"
         id="g20">
        <path
           class="real"
           d="m 17.67,32.17 c 0,-9.76 7.91,-17.67 17.66,-17.67 9.76,0 17.67,7.91 17.67,17.67 0,9.75 -7.91,17.66 -17.67,17.66 -9.75,0 -17.66,-7.91 -17.66,-17.66 z"
           style="fill:#ffffff;fill-opacity:1;stroke:#000000;stroke-width:2px"
           id="path19" />
      </g>
      <g
         class="composite-shape"
         id="g21">
        <path
           class="real"
           d="m 162.67,125.17 c 0,-8.1 6.56,-14.67 14.66,-14.67 8.1,0 14.67,6.57 14.67,14.67 0,8.1 -6.57,14.66 -14.67,14.66 -8.1,0 -14.66,-6.56 -14.66,-14.66 z"
           style="fill:#ffffff;fill-opacity:1;stroke:#000000;stroke-width:2px"
           id="path20" />
      </g>
      <g
         class="arrow-line"
         id="g23">
        <path
           class="connection real"
           stroke-dasharray="none"
           d="m 137.33,65.17 c 21.9,11.02 25.33,18.33 31.97,38.08"
           style="fill:none;fill-opacity:1;stroke:#000000;stroke-width:2px"
           id="path21" />
        <g
           stroke="none"
           fill="#000"
           transform="rotate(-108.43,123.75406,-8.03365)"
           style="fill:#000000;stroke:none;stroke-width:2px"
           id="g22">
          <path
             d="M 13.4,-6.43 0,0 13.4,6.44 8.9,0 Z"
             id="path22" />
        </g>
      </g>
      <g
         class="grouped-shape"
         id="g25">
        <g
           class="composite-shape"
           id="g24">
          <path
             class="real"
             d="m 119.67,65.17 c 0,-9.76 7.91,-17.67 17.66,-17.67 9.76,0 17.67,7.91 17.67,17.67 0,9.75 -7.91,17.66 -17.67,17.66 -9.75,0 -17.66,-7.91 -17.66,-17.66 z"
             style="fill:#ffffff;fill-opacity:1;stroke:#000000;stroke-width:2px"
             id="path23" />
        </g>
      </g>
      <g
         id="g26" />
    </g>
    <g
       id="g28" />
    <g
       id="g29" />
    <g
       id="g30" />
  </svg>
  <svg
     width="686"
     height="205.66667"
     style="font-family:LatinModern-Math, LatinModern, Asana-Math, Asana"
     version="1.1"
     id="svg103"
     transform="translate(-7.9283433,-10.560004)">
    <g
       id="g39">
      <g
         id="g38">
        <g
           id="g32">
          <g
             transform="translate(129.83334,70.283333)"
             id="g31">
            <path
               transform="scale(0.017,-0.017)"
               d="m 527,376 c 0,52 -59,66 -93,66 -58,0 -93,-53 -105,-76 -25,66 -79,76 -108,76 C 117,442 60,313 60,288 c 0,-10 12,-10 12,-10 8,0 11,2 13,11 34,106 100,131 134,131 19,0 54,-9 54,-67 0,-31 -17,-98 -54,-238 C 203,53 168,11 124,11 c -6,0 -29,0 -50,13 25,5 47,26 47,54 0,27 -22,35 -37,35 -30,0 -55,-26 -55,-58 0,-46 50,-66 94,-66 66,0 102,70 105,76 12,-37 48,-76 108,-76 103,0 160,129 160,154 0,10 -9,10 -12,10 -9,0 -11,-4 -13,-11 C 438,35 370,11 338,11 c -39,0 -55,32 -55,66 0,22 6,44 17,88 l 34,137 c 6,26 29,118 99,118 5,0 29,0 50,-13 -28,-5 -48,-30 -48,-54 0,-16 11,-35 38,-35 22,0 54,18 54,58 z"
               stroke="#000000"
               stroke-opacity="1"
               stroke-width="8"
               fill="#000000"
               fill-opacity="1"
               id="path30" />
          </g>
        </g>
        <g
           id="g37">
          <g
             id="g36">
            <g
               id="g35">
              <g
                 id="g34">
                <g
                   transform="translate(140.06665,73.333342)"
                   id="g33">
                  <path
                     transform="scale(0.0119,-0.0119)"
                     d="m 419,0 v 31 h -32 c -90,0 -93,11 -93,48 v 561 c 0,24 0,26 -23,26 C 209,602 121,602 89,602 v -31 c 20,0 79,0 131,26 V 79 C 220,43 217,31 127,31 H 95 V 0 c 35,3 122,3 162,3 40,0 127,0 162,-3 z"
                     stroke="#000000"
                     stroke-opacity="1"
                     stroke-width="8"
                     fill="#000000"
                     fill-opacity="1"
                     id="path32" />
                </g>
              </g>
            </g>
          </g>
        </g>
      </g>
    </g>
    <g
       id="g48">
      <g
         id="g47">
        <g
           id="g41">
          <g
             transform="translate(169.83334,129.28333)"
             id="g40">
            <path
               transform="scale(0.017,-0.017)"
               d="m 527,376 c 0,52 -59,66 -93,66 -58,0 -93,-53 -105,-76 -25,66 -79,76 -108,76 C 117,442 60,313 60,288 c 0,-10 12,-10 12,-10 8,0 11,2 13,11 34,106 100,131 134,131 19,0 54,-9 54,-67 0,-31 -17,-98 -54,-238 C 203,53 168,11 124,11 c -6,0 -29,0 -50,13 25,5 47,26 47,54 0,27 -22,35 -37,35 -30,0 -55,-26 -55,-58 0,-46 50,-66 94,-66 66,0 102,70 105,76 12,-37 48,-76 108,-76 103,0 160,129 160,154 0,10 -9,10 -12,10 -9,0 -11,-4 -13,-11 C 438,35 370,11 338,11 c -39,0 -55,32 -55,66 0,22 6,44 17,88 l 34,137 c 6,26 29,118 99,118 5,0 29,0 50,-13 -28,-5 -48,-30 -48,-54 0,-16 11,-35 38,-35 22,0 54,18 54,58 z"
               stroke="#000000"
               stroke-opacity="1"
               stroke-width="8"
               fill="#000000"
               fill-opacity="1"
               id="path39" />
          </g>
        </g>
        <g
           id="g46">
          <g
             id="g45">
            <g
               id="g44">
              <g
                 id="g43">
                <g
                   transform="translate(180.06665,132.33334)"
                   id="g42">
                  <path
                     transform="scale(0.0119,-0.0119)"
                     d="m 457,171 c 0,82 -63,160 -167,181 82,27 140,97 140,176 0,82 -88,138 -184,138 -101,0 -177,-60 -177,-136 0,-33 22,-52 51,-52 31,0 51,22 51,51 0,50 -47,50 -62,50 31,49 97,62 133,62 41,0 96,-22 96,-112 0,-12 -2,-70 -28,-114 -30,-48 -64,-51 -89,-52 -8,-1 -32,-3 -39,-3 -8,-1 -15,-2 -15,-12 0,-11 7,-11 24,-11 h 44 C 317,337 354,269 354,171 354,35 285,6 241,6 198,6 123,23 88,82 c 35,-5 66,17 66,55 0,36 -27,56 -56,56 -24,0 -56,-14 -56,-58 0,-91 93,-157 202,-157 122,0 213,91 213,193 z"
                     stroke="#000000"
                     stroke-opacity="1"
                     stroke-width="8"
                     fill="#000000"
                     fill-opacity="1"
                     id="path41" />
                </g>
              </g>
            </g>
          </g>
        </g>
      </g>
    </g>
    <g
       id="g57">
      <g
         id="g56">
        <g
           id="g50">
          <g
             transform="translate(103.83334,185.78335)"
             id="g49">
            <path
               transform="scale(0.017,-0.017)"
               d="m 527,376 c 0,52 -59,66 -93,66 -58,0 -93,-53 -105,-76 -25,66 -79,76 -108,76 C 117,442 60,313 60,288 c 0,-10 12,-10 12,-10 8,0 11,2 13,11 34,106 100,131 134,131 19,0 54,-9 54,-67 0,-31 -17,-98 -54,-238 C 203,53 168,11 124,11 c -6,0 -29,0 -50,13 25,5 47,26 47,54 0,27 -22,35 -37,35 -30,0 -55,-26 -55,-58 0,-46 50,-66 94,-66 66,0 102,70 105,76 12,-37 48,-76 108,-76 103,0 160,129 160,154 0,10 -9,10 -12,10 -9,0 -11,-4 -13,-11 C 438,35 370,11 338,11 c -39,0 -55,32 -55,66 0,22 6,44 17,88 l 34,137 c 6,26 29,118 99,118 5,0 29,0 50,-13 -28,-5 -48,-30 -48,-54 0,-16 11,-35 38,-35 22,0 54,18 54,58 z"
               stroke="#000000"
               stroke-opacity="1"
               stroke-width="8"
               fill="#000000"
               fill-opacity="1"
               id="path48" />
          </g>
        </g>
        <g
           id="g55">
          <g
             id="g54">
            <g
               id="g53">
              <g
                 id="g52">
                <g
                   transform="translate(114.06665,188.83334)"
                   id="g51">
                  <path
                     transform="scale(0.0119,-0.0119)"
                     d="m 471,165 v 31 H 371 v 455 c 0,20 0,26 -16,26 -9,0 -12,0 -20,-12 L 28,196 V 165 H 294 V 78 C 294,42 292,31 218,31 H 197 V 0 c 41,3 93,3 135,3 42,0 95,0 136,-3 v 31 h -21 c -74,0 -76,11 -76,47 v 87 z M 300,196 H 56 l 244,373 z"
                     stroke="#000000"
                     stroke-opacity="1"
                     stroke-width="8"
                     fill="#000000"
                     fill-opacity="1"
                     id="path50" />
                </g>
              </g>
            </g>
          </g>
        </g>
      </g>
    </g>
    <g
       id="g66">
      <g
         id="g65">
        <g
           id="g59">
          <g
             transform="translate(38.833344,129.28333)"
             id="g58">
            <path
               transform="scale(0.017,-0.017)"
               d="m 527,376 c 0,52 -59,66 -93,66 -58,0 -93,-53 -105,-76 -25,66 -79,76 -108,76 C 117,442 60,313 60,288 c 0,-10 12,-10 12,-10 8,0 11,2 13,11 34,106 100,131 134,131 19,0 54,-9 54,-67 0,-31 -17,-98 -54,-238 C 203,53 168,11 124,11 c -6,0 -29,0 -50,13 25,5 47,26 47,54 0,27 -22,35 -37,35 -30,0 -55,-26 -55,-58 0,-46 50,-66 94,-66 66,0 102,70 105,76 12,-37 48,-76 108,-76 103,0 160,129 160,154 0,10 -9,10 -12,10 -9,0 -11,-4 -13,-11 C 438,35 370,11 338,11 c -39,0 -55,32 -55,66 0,22 6,44 17,88 l 34,137 c 6,26 29,118 99,118 5,0 29,0 50,-13 -28,-5 -48,-30 -48,-54 0,-16 11,-35 38,-35 22,0 54,18 54,58 z"
               stroke="#000000"
               stroke-opacity="1"
               stroke-width="8"
               fill="#000000"
               fill-opacity="1"
               id="path57" />
          </g>
        </g>
        <g
           id="g64">
          <g
             id="g63">
            <g
               id="g62">
              <g
                 id="g61">
                <g
                   transform="translate(49.066666,132.33334)"
                   id="g60">
                  <path
                     transform="scale(0.0119,-0.0119)"
                     d="m 449,174 h -25 c -5,-30 -12,-74 -22,-89 -7,-8 -73,-8 -95,-8 H 127 L 233,180 C 389,318 449,372 449,472 449,586 359,666 237,666 124,666 50,574 50,485 c 0,-56 50,-56 53,-56 17,0 52,12 52,53 0,26 -18,52 -53,52 -8,0 -10,0 -13,-1 23,65 77,102 135,102 91,0 134,-81 134,-163 0,-80 -50,-159 -105,-221 L 61,37 C 50,26 50,24 50,0 h 371 z"
                     stroke="#000000"
                     stroke-opacity="1"
                     stroke-width="8"
                     fill="#000000"
                     fill-opacity="1"
                     id="path59" />
                </g>
              </g>
            </g>
          </g>
        </g>
      </g>
    </g>
    <g
       id="g75">
      <g
         id="g74">
        <g
           id="g68">
          <g
             transform="translate(27.833344,36.283333)"
             id="g67">
            <path
               transform="scale(0.017,-0.017)"
               d="m 527,376 c 0,52 -59,66 -93,66 -58,0 -93,-53 -105,-76 -25,66 -79,76 -108,76 C 117,442 60,313 60,288 c 0,-10 12,-10 12,-10 8,0 11,2 13,11 34,106 100,131 134,131 19,0 54,-9 54,-67 0,-31 -17,-98 -54,-238 C 203,53 168,11 124,11 c -6,0 -29,0 -50,13 25,5 47,26 47,54 0,27 -22,35 -37,35 -30,0 -55,-26 -55,-58 0,-46 50,-66 94,-66 66,0 102,70 105,76 12,-37 48,-76 108,-76 103,0 160,129 160,154 0,10 -9,10 -12,10 -9,0 -11,-4 -13,-11 C 438,35 370,11 338,11 c -39,0 -55,32 -55,66 0,22 6,44 17,88 l 34,137 c 6,26 29,118 99,118 5,0 29,0 50,-13 -28,-5 -48,-30 -48,-54 0,-16 11,-35 38,-35 22,0 54,18 54,58 z"
               stroke="#000000"
               stroke-opacity="1"
               stroke-width="8"
               fill="#000000"
               fill-opacity="1"
               id="path66" />
          </g>
        </g>
        <g
           id="g73">
          <g
             id="g72">
            <g
               id="g71">
              <g
                 id="g70">
                <g
                   transform="translate(38.066666,39.333342)"
                   id="g69">
                  <path
                     transform="scale(0.0119,-0.0119)"
                     d="m 460,320 c 0,80 -5,160 -40,234 C 374,650 292,666 250,666 190,666 117,640 76,547 44,478 39,400 39,320 39,245 43,155 84,79 127,-2 200,-22 249,-22 c 54,0 130,21 174,116 32,69 37,147 37,226 z m -83,12 C 377,257 377,189 366,125 351,30 294,0 249,0 210,0 151,25 133,121 c -11,60 -11,152 -11,211 0,64 0,130 8,184 19,119 94,128 119,128 33,0 99,-18 118,-117 10,-56 10,-132 10,-195 z"
                     stroke="#000000"
                     stroke-opacity="1"
                     stroke-width="8"
                     fill="#000000"
                     fill-opacity="1"
                     id="path68" />
                </g>
              </g>
            </g>
          </g>
        </g>
      </g>
    </g>
    <g
       id="g79">
      <g
         id="g78">
        <g
           id="g77">
          <g
             transform="translate(7.3333435,81.450005)"
             id="g76">
            <path
               transform="scale(0.017,-0.017)"
               d="m 460,320 c 0,80 -5,160 -40,234 C 374,650 292,666 250,666 190,666 117,640 76,547 44,478 39,400 39,320 39,245 43,155 84,79 127,-2 200,-22 249,-22 c 54,0 130,21 174,116 32,69 37,147 37,226 z m -83,12 C 377,257 377,189 366,125 351,30 294,0 249,0 210,0 151,25 133,121 c -11,60 -11,152 -11,211 0,64 0,130 8,184 19,119 94,128 119,128 33,0 99,-18 118,-117 10,-56 10,-132 10,-195 z"
               stroke="#000000"
               stroke-opacity="1"
               stroke-width="8"
               fill="#000000"
               fill-opacity="1"
               id="path75" />
          </g>
        </g>
      </g>
    </g>
    <g
       id="g83">
      <g
         id="g82">
        <g
           id="g81">
          <g
             transform="translate(77.333344,86.450005)"
             id="g80">
            <path
               transform="scale(0.017,-0.017)"
               d="m 460,320 c 0,80 -5,160 -40,234 C 374,650 292,666 250,666 190,666 117,640 76,547 44,478 39,400 39,320 39,245 43,155 84,79 127,-2 200,-22 249,-22 c 54,0 130,21 174,116 32,69 37,147 37,226 z m -83,12 C 377,257 377,189 366,125 351,30 294,0 249,0 210,0 151,25 133,121 c -11,60 -11,152 -11,211 0,64 0,130 8,184 19,119 94,128 119,128 33,0 99,-18 118,-117 10,-56 10,-132 10,-195 z"
               stroke="#000000"
               stroke-opacity="1"
               stroke-width="8"
               fill="#000000"
               fill-opacity="1"
               id="path79" />
          </g>
        </g>
      </g>
    </g>
    <g
       id="g87">
      <g
         id="g86">
        <g
           id="g85">
          <g
             transform="translate(131.33334,141.45)"
             id="g84">
            <path
               transform="scale(0.017,-0.017)"
               d="m 460,320 c 0,80 -5,160 -40,234 C 374,650 292,666 250,666 190,666 117,640 76,547 44,478 39,400 39,320 39,245 43,155 84,79 127,-2 200,-22 249,-22 c 54,0 130,21 174,116 32,69 37,147 37,226 z m -83,12 C 377,257 377,189 366,125 351,30 294,0 249,0 210,0 151,25 133,121 c -11,60 -11,152 -11,211 0,64 0,130 8,184 19,119 94,128 119,128 33,0 99,-18 118,-117 10,-56 10,-132 10,-195 z"
               stroke="#000000"
               stroke-opacity="1"
               stroke-width="8"
               fill="#000000"
               fill-opacity="1"
               id="path83" />
          </g>
        </g>
      </g>
    </g>
    <g
       id="g91">
      <g
         id="g90">
        <g
           id="g89">
          <g
             transform="translate(171.33334,81.450005)"
             id="g88">
            <path
               transform="scale(0.017,-0.017)"
               d="m 460,320 c 0,80 -5,160 -40,234 C 374,650 292,666 250,666 190,666 117,640 76,547 44,478 39,400 39,320 39,245 43,155 84,79 127,-2 200,-22 249,-22 c 54,0 130,21 174,116 32,69 37,147 37,226 z m -83,12 C 377,257 377,189 366,125 351,30 294,0 249,0 210,0 151,25 133,121 c -11,60 -11,152 -11,211 0,64 0,130 8,184 19,119 94,128 119,128 33,0 99,-18 118,-117 10,-56 10,-132 10,-195 z"
               stroke="#000000"
               stroke-opacity="1"
               stroke-width="8"
               fill="#000000"
               fill-opacity="1"
               id="path87" />
          </g>
        </g>
      </g>
    </g>
    <g
       id="g95">
      <g
         id="g94">
        <g
           id="g93">
          <g
             transform="translate(156.33334,178.95)"
             id="g92">
            <path
               transform="scale(0.017,-0.017)"
               d="m 419,0 v 31 h -32 c -90,0 -93,11 -93,48 v 561 c 0,24 0,26 -23,26 C 209,602 121,602 89,602 v -31 c 20,0 79,0 131,26 V 79 C 220,43 217,31 127,31 H 95 V 0 c 35,3 122,3 162,3 40,0 127,0 162,-3 z"
               stroke="#000000"
               stroke-opacity="1"
               stroke-width="8"
               fill="#000000"
               fill-opacity="1"
               id="path91" />
          </g>
        </g>
      </g>
    </g>
    <g
       id="g99">
      <g
         id="g98">
        <g
           id="g97">
          <g
             transform="translate(47.333344,173.95)"
             id="g96">
            <path
               transform="scale(0.017,-0.017)"
               d="m 419,0 v 31 h -32 c -90,0 -93,11 -93,48 v 561 c 0,24 0,26 -23,26 C 209,602 121,602 89,602 v -31 c 20,0 79,0 131,26 V 79 C 220,43 217,31 127,31 H 95 V 0 c 35,3 122,3 162,3 40,0 127,0 162,-3 z"
               stroke="#000000"
               stroke-opacity="1"
               stroke-width="8"
               fill="#000000"
               fill-opacity="1"
               id="path95" />
          </g>
        </g>
      </g>
    </g>
    <g
       id="g103">
      <g
         id="g102">
        <g
           id="g101">
          <g
             transform="translate(87.333344,21.950005)"
             id="g100">
            <path
               transform="scale(0.017,-0.017)"
               d="m 419,0 v 31 h -32 c -90,0 -93,11 -93,48 v 561 c 0,24 0,26 -23,26 C 209,602 121,602 89,602 v -31 c 20,0 79,0 131,26 V 79 C 220,43 217,31 127,31 H 95 V 0 c 35,3 122,3 162,3 40,0 127,0 162,-3 z"
               stroke="#000000"
               stroke-opacity="1"
               stroke-width="8"
               fill="#000000"
               fill-opacity="1"
               id="path99" />
          </g>
        </g>
      </g>
    </g>
  </svg>
</svg>
