<?xml version="1.0" encoding="UTF-8" standalone="no"?>
<svg
   x="0"
   y="0"
   width="648"
   height="239.2"
   style="fill:none"
   version="1.1"
   id="svg195"
   xmlns="http://www.w3.org/2000/svg"
   xmlns:svg="http://www.w3.org/2000/svg">
  <defs
     id="defs195" />
  <svg
     class="role-diagram-draw-area"
     version="1.1"
     id="svg33"
     width="100%"
     height="100%">
    <g
       class="shapes-region"
       style="fill:none;stroke:#000000"
       id="g24">
      <g
         class="composite-shape"
         id="g1">
        <path
           class="real"
           d="m 213.25,24 h 50 v 50 h -50 z"
           style="fill:none;fill-opacity:1;stroke:#000000;stroke-width:1px"
           id="path1" />
      </g>
      <g
         class="composite-shape"
         id="g2">
        <path
           class="real"
           d="m 263.25,24 h 50 v 50 h -50 z"
           style="fill:none;fill-opacity:1;stroke:#000000;stroke-width:1px"
           id="path2" />
      </g>
      <g
         class="composite-shape"
         id="g3">
        <path
           class="real"
           d="m 313.25,24 h 50 v 50 h -50 z"
           style="fill:none;fill-opacity:1;stroke:#000000;stroke-width:1px"
           id="path3" />
      </g>
      <g
         class="composite-shape"
         id="g4">
        <path
           class="real"
           d="m 413.25,24 h 50 v 50 h -50 z"
           style="fill:none;fill-opacity:1;stroke:#000000;stroke-width:1px"
           id="path4" />
      </g>
      <g
         class="composite-shape"
         id="g5">
        <path
           class="real"
           d="m 463.25,24 h 50 v 50 h -50 z"
           style="fill:none;fill-opacity:1;stroke:#000000;stroke-width:1px"
           id="path5" />
      </g>
      <g
         class="composite-shape"
         id="g6"
         transform="translate(146)">
        <path
           class="real"
           d="M 238.29,32.11 251.04,8.07 h -25.5 z"
           style="fill:#bd10e0;fill-opacity:1;stroke:none;stroke-width:1px;stroke-opacity:1"
           id="path6" />
      </g>
      <g
         class="arrow-line"
         id="g9">
        <path
           class="connection real"
           stroke-dasharray="none"
           d="m 146.67,130.07 c 18.72,-10.92 43.33,-5.87 64.94,2.17"
           style="fill:none;fill-opacity:1;stroke:#000000;stroke-width:1px"
           id="path7" />
        <g
           stroke="#000"
           transform="rotate(-159.1,118.88607,46.766249)"
           style="stroke:#000000;stroke-width:1px"
           id="g8">
          <path
             d="M 10.93,-3.29 Q 4.96,-0.45 0,0 4.96,0.45 10.93,3.29"
             id="path8" />
        </g>
      </g>
      <g
         class="arrow-line"
         id="g11">
        <path
           class="connection real"
           stroke-dasharray="none"
           d="m 230.67,137.27 c -3.34,29.4 5.43,47.66 22.73,67.2"
           style="fill:none;fill-opacity:1;stroke:#000000;stroke-width:1px"
           id="path9" />
        <g
           stroke="#000"
           transform="rotate(-131.99,173.02844,46.172099)"
           style="stroke:#000000;stroke-width:1px"
           id="g10">
          <path
             d="M 10.93,-3.29 Q 4.96,-0.45 0,0 4.96,0.45 10.93,3.29"
             id="path10" />
        </g>
      </g>
      <g
         class="arrow-line"
         id="g13">
        <path
           class="connection real"
           stroke-dasharray="none"
           d="m 228.27,140.87 c 18.72,-10.92 43.33,-5.87 64.94,2.17"
           style="fill:none;fill-opacity:1;stroke:#000000;stroke-width:1px"
           id="path11" />
        <g
           stroke="#000"
           transform="rotate(-159.1,160.68203,44.641238)"
           style="stroke:#000000;stroke-width:1px"
           id="g12">
          <path
             d="M 10.93,-3.29 Q 4.96,-0.45 0,0 4.96,0.45 10.93,3.29"
             id="path12" />
        </g>
      </g>
      <g
         class="arrow-line"
         id="g15">
        <path
           class="connection real"
           stroke-dasharray="none"
           d="m 309.07,151.27 c 18.72,-10.92 43.33,-5.87 64.94,2.17"
           style="fill:none;fill-opacity:1;stroke:#000000;stroke-width:1px"
           id="path13" />
        <g
           stroke="#000"
           transform="rotate(-159.1,202.0411,42.390001)"
           style="stroke:#000000;stroke-width:1px"
           id="g14">
          <path
             d="M 10.93,-3.29 Q 4.96,-0.45 0,0 4.96,0.45 10.93,3.29"
             id="path14" />
        </g>
      </g>
      <g
         class="arrow-line"
         id="g17">
        <path
           class="connection real"
           stroke-dasharray="none"
           d="m 387.07,164.87 c 18.72,-10.92 43.33,-5.87 64.94,2.17"
           style="fill:none;fill-opacity:1;stroke:#000000;stroke-width:1px"
           id="path15" />
        <g
           stroke="#000"
           transform="rotate(-159.1,242.29526,41.996976)"
           style="stroke:#000000;stroke-width:1px"
           id="g16">
          <path
             d="M 10.93,-3.29 Q 4.96,-0.45 0,0 4.96,0.45 10.93,3.29"
             id="path16" />
        </g>
      </g>
      <g
         class="arrow-line"
         id="g19">
        <path
           class="connection real"
           stroke-dasharray="none"
           d="m 266.27,216.87 c 58.14,-5.68 78.98,-7.04 114.32,-40.71"
           style="fill:none;fill-opacity:1;stroke:#000000;stroke-width:1px"
           id="path17" />
        <g
           stroke="#000"
           transform="rotate(136.08,155.5252,164.51341)"
           style="stroke:#000000;stroke-width:1px"
           id="g18">
          <path
             d="M 10.93,-3.29 Q 4.96,-0.45 0,0 4.96,0.45 10.93,3.29"
             id="path18" />
        </g>
      </g>
      <g
         class="arrow-line"
         id="g21">
        <path
           class="connection real"
           stroke-dasharray="none"
           d="m 487.07,171.27 c 18.72,-10.92 43.33,-5.87 64.94,2.17"
           style="fill:none;fill-opacity:1;stroke:#000000;stroke-width:1px"
           id="path19" />
        <g
           stroke="#000"
           transform="rotate(-159.1,292.88546,35.975149)"
           style="stroke:#000000;stroke-width:1px"
           id="g20">
          <path
             d="M 10.93,-3.29 Q 4.96,-0.45 0,0 4.96,0.45 10.93,3.29"
             id="path20" />
        </g>
      </g>
      <g
         class="composite-shape"
         id="g22">
        <path
           class="real"
           d="m 377.44499,143.69421 c 0,-4.69 3.81,-8.5 8.5,-8.5 4.7,0 8.5,3.81 8.5,8.5 0,4.7 -3.8,8.5 -8.5,8.5 -4.69,0 -8.5,-3.8 -8.5,-8.5 z"
           style="fill:#bd10e0;fill-opacity:1;stroke:none;stroke-width:1px;stroke-opacity:1"
           id="path21" />
      </g>
      <g
         id="g23" />
    </g>
    <g
       id="g25" />
    <g
       id="g32">
      <g
         id="g26">
        <circle
           cx="145.59166"
           cy="129.65831"
           r="15.945219"
           style="fill:#ffffff;fill-opacity:1;stroke:#000000;stroke-width:1px"
           id="circle25" />
      </g>
      <g
         id="g27">
        <circle
           cx="267.19168"
           cy="214.85832"
           r="15.945219"
           style="fill:#ffffff;fill-opacity:1;stroke:#000000;stroke-width:1px"
           id="circle26" />
      </g>
      <g
         id="g28">
        <circle
           cx="227.59166"
           cy="138.85832"
           r="15.945219"
           style="fill:#ffffff;fill-opacity:1;stroke:#000000;stroke-width:1px"
           id="circle27" />
      </g>
      <g
         id="g29">
        <circle
           cx="309.19168"
           cy="149.65831"
           r="15.945219"
           style="fill:#ffffff;fill-opacity:1;stroke:#000000;stroke-width:1px"
           id="circle28" />
      </g>
      <g
         id="g30">
        <circle
           cx="389.59167"
           cy="161.25832"
           r="15.945219"
           style="fill:#ffffff;fill-opacity:1;stroke:#000000;stroke-width:1px"
           id="circle29" />
      </g>
      <g
         id="g31">
        <circle
           cx="573.59167"
           cy="183.25832"
           r="22.472204"
           style="fill:#ffffff;fill-opacity:1;stroke:#000000;stroke-width:1px"
           id="circle30" />
      </g>
    </g>
    <g
       id="g33" />
  </svg>
  <svg
     width="646"
     height="237.2"
     style="font-family:LatinModern-Math, LatinModern, Asana-Math, Asana"
     version="1.1"
     id="svg194">
    <g
       id="g37">
      <g
         id="g36">
        <g
           id="g35">
          <g
             transform="translate(381.34998,55.949982)"
             id="g34">
            <path
               transform="scale(0.017,-0.017)"
               d="m 162,250 c 0,29 -24,53 -53,53 -29,0 -53,-24 -53,-53 0,-29 24,-53 53,-53 29,0 53,24 53,53 z m 279,0 c 0,29 -24,53 -53,53 -29,0 -53,-24 -53,-53 0,-29 24,-53 53,-53 29,0 53,24 53,53 z m 279,0 c 0,29 -24,53 -53,53 -29,0 -53,-24 -53,-53 0,-29 24,-53 53,-53 29,0 53,24 53,53 z"
               stroke="#000000"
               stroke-opacity="1"
               stroke-width="8"
               fill="#000000"
               fill-opacity="1"
               id="path33" />
          </g>
        </g>
      </g>
    </g>
    <g
       id="g46">
      <g
         id="g45">
        <g
           id="g39">
          <g
             transform="translate(230.25,54.949982)"
             id="g38">
            <path
               transform="scale(0.017,-0.017)"
               d="m 498,143 c 0,10 -9,10 -12,10 -10,0 -11,-4 -14,-18 C 455,70 437,11 396,11 c -27,0 -30,26 -30,46 0,22 2,30 13,74 l 22,90 36,140 c 7,28 7,30 7,34 0,17 -12,27 -29,27 -24,0 -39,-22 -42,-44 -18,37 -47,64 -92,64 C 164,442 40,295 40,149 40,55 95,-11 173,-11 c 20,0 70,4 130,75 8,-42 43,-75 91,-75 35,0 58,23 74,55 17,36 30,99 30,99 z M 361,332 c 0,-6 -2,-12 -3,-17 L 308,119 C 303,101 303,99 288,82 244,27 203,11 175,11 c -50,0 -64,55 -64,94 0,50 32,173 55,219 31,59 76,96 116,96 65,0 79,-82 79,-88 z"
               stroke="#000000"
               stroke-opacity="1"
               stroke-width="8"
               fill="#000000"
               fill-opacity="1"
               id="path37" />
          </g>
        </g>
        <g
           id="g44">
          <g
             id="g43">
            <g
               id="g42">
              <g
                 id="g41">
                <g
                   transform="translate(239.76666,58.000006)"
                   id="g40">
                  <path
                     transform="scale(0.0119,-0.0119)"
                     d="m 460,320 c 0,80 -5,160 -40,234 C 374,650 292,666 250,666 190,666 117,640 76,547 44,478 39,400 39,320 39,245 43,155 84,79 127,-2 200,-22 249,-22 c 54,0 130,21 174,116 32,69 37,147 37,226 z m -83,12 C 377,257 377,189 366,125 351,30 294,0 249,0 210,0 151,25 133,121 c -11,60 -11,152 -11,211 0,64 0,130 8,184 19,119 94,128 119,128 33,0 99,-18 118,-117 10,-56 10,-132 10,-195 z"
                     stroke="#000000"
                     stroke-opacity="1"
                     stroke-width="8"
                     fill="#000000"
                     fill-opacity="1"
                     id="path39" />
                </g>
              </g>
            </g>
          </g>
        </g>
      </g>
    </g>
    <g
       id="g55">
      <g
         id="g54">
        <g
           id="g48">
          <g
             transform="translate(279.75,54.949982)"
             id="g47">
            <path
               transform="scale(0.017,-0.017)"
               d="m 498,143 c 0,10 -9,10 -12,10 -10,0 -11,-4 -14,-18 C 455,70 437,11 396,11 c -27,0 -30,26 -30,46 0,22 2,30 13,74 l 22,90 36,140 c 7,28 7,30 7,34 0,17 -12,27 -29,27 -24,0 -39,-22 -42,-44 -18,37 -47,64 -92,64 C 164,442 40,295 40,149 40,55 95,-11 173,-11 c 20,0 70,4 130,75 8,-42 43,-75 91,-75 35,0 58,23 74,55 17,36 30,99 30,99 z M 361,332 c 0,-6 -2,-12 -3,-17 L 308,119 C 303,101 303,99 288,82 244,27 203,11 175,11 c -50,0 -64,55 -64,94 0,50 32,173 55,219 31,59 76,96 116,96 65,0 79,-82 79,-88 z"
               stroke="#000000"
               stroke-opacity="1"
               stroke-width="8"
               fill="#000000"
               fill-opacity="1"
               id="path46" />
          </g>
        </g>
        <g
           id="g53">
          <g
             id="g52">
            <g
               id="g51">
              <g
                 id="g50">
                <g
                   transform="translate(289.26666,58.000006)"
                   id="g49">
                  <path
                     transform="scale(0.0119,-0.0119)"
                     d="m 419,0 v 31 h -32 c -90,0 -93,11 -93,48 v 561 c 0,24 0,26 -23,26 C 209,602 121,602 89,602 v -31 c 20,0 79,0 131,26 V 79 C 220,43 217,31 127,31 H 95 V 0 c 35,3 122,3 162,3 40,0 127,0 162,-3 z"
                     stroke="#000000"
                     stroke-opacity="1"
                     stroke-width="8"
                     fill="#000000"
                     fill-opacity="1"
                     id="path48" />
                </g>
              </g>
            </g>
          </g>
        </g>
      </g>
    </g>
    <g
       id="g64">
      <g
         id="g63">
        <g
           id="g57">
          <g
             transform="translate(334.03333,54.949982)"
             id="g56">
            <path
               transform="scale(0.017,-0.017)"
               d="m 498,143 c 0,10 -9,10 -12,10 -10,0 -11,-4 -14,-18 C 455,70 437,11 396,11 c -27,0 -30,26 -30,46 0,22 2,30 13,74 l 22,90 36,140 c 7,28 7,30 7,34 0,17 -12,27 -29,27 -24,0 -39,-22 -42,-44 -18,37 -47,64 -92,64 C 164,442 40,295 40,149 40,55 95,-11 173,-11 c 20,0 70,4 130,75 8,-42 43,-75 91,-75 35,0 58,23 74,55 17,36 30,99 30,99 z M 361,332 c 0,-6 -2,-12 -3,-17 L 308,119 C 303,101 303,99 288,82 244,27 203,11 175,11 c -50,0 -64,55 -64,94 0,50 32,173 55,219 31,59 76,96 116,96 65,0 79,-82 79,-88 z"
               stroke="#000000"
               stroke-opacity="1"
               stroke-width="8"
               fill="#000000"
               fill-opacity="1"
               id="path55" />
          </g>
        </g>
        <g
           id="g62">
          <g
             id="g61">
            <g
               id="g60">
              <g
                 id="g59">
                <g
                   transform="translate(343.54999,58.000006)"
                   id="g58">
                  <path
                     transform="scale(0.0119,-0.0119)"
                     d="m 449,174 h -25 c -5,-30 -12,-74 -22,-89 -7,-8 -73,-8 -95,-8 H 127 L 233,180 C 389,318 449,372 449,472 449,586 359,666 237,666 124,666 50,574 50,485 c 0,-56 50,-56 53,-56 17,0 52,12 52,53 0,26 -18,52 -53,52 -8,0 -10,0 -13,-1 23,65 77,102 135,102 91,0 134,-81 134,-163 0,-80 -50,-159 -105,-221 L 61,37 C 50,26 50,24 50,0 h 371 z"
                     stroke="#000000"
                     stroke-opacity="1"
                     stroke-width="8"
                     fill="#000000"
                     fill-opacity="1"
                     id="path57" />
                </g>
              </g>
            </g>
          </g>
        </g>
      </g>
    </g>
    <g
       id="g73">
      <g
         id="g72">
        <g
           id="g66">
          <g
             transform="translate(426.31665,54.949982)"
             id="g65">
            <path
               transform="scale(0.017,-0.017)"
               d="m 498,143 c 0,10 -9,10 -12,10 -10,0 -11,-4 -14,-18 C 455,70 437,11 396,11 c -27,0 -30,26 -30,46 0,22 2,30 13,74 l 22,90 36,140 c 7,28 7,30 7,34 0,17 -12,27 -29,27 -24,0 -39,-22 -42,-44 -18,37 -47,64 -92,64 C 164,442 40,295 40,149 40,55 95,-11 173,-11 c 20,0 70,4 130,75 8,-42 43,-75 91,-75 35,0 58,23 74,55 17,36 30,99 30,99 z M 361,332 c 0,-6 -2,-12 -3,-17 L 308,119 C 303,101 303,99 288,82 244,27 203,11 175,11 c -50,0 -64,55 -64,94 0,50 32,173 55,219 31,59 76,96 116,96 65,0 79,-82 79,-88 z"
               stroke="#000000"
               stroke-opacity="1"
               stroke-width="8"
               fill="#000000"
               fill-opacity="1"
               id="path64" />
          </g>
        </g>
        <g
           id="g71">
          <g
             id="g70">
            <g
               id="g69">
              <g
                 id="g68">
                <g
                   transform="translate(435.83331,57.9)"
                   id="g67">
                  <path
                     transform="scale(0.0119,-0.0119)"
                     d="m 571,143 c 0,10 -9,10 -12,10 -10,0 -10,-3 -15,-18 C 524,67 491,11 442,11 c -17,0 -24,10 -24,33 0,25 9,49 18,71 19,53 61,163 61,220 0,67 -43,107 -115,107 -90,0 -139,-64 -156,-87 -5,56 -46,87 -92,87 -46,0 -65,-39 -75,-57 -16,-34 -30,-93 -30,-97 0,-10 12,-10 12,-10 10,0 11,1 17,23 17,71 37,119 73,119 20,0 31,-13 31,-46 0,-21 -3,-32 -16,-84 L 88,59 C 85,44 79,21 79,16 c 0,-18 14,-27 29,-27 12,0 30,8 37,28 1,2 13,49 19,74 l 22,90 c 6,22 12,44 17,67 l 13,50 c 15,31 68,122 163,122 45,0 54,-37 54,-70 0,-62 -49,-190 -65,-233 -9,-23 -10,-35 -10,-46 0,-47 35,-82 82,-82 94,0 131,146 131,154 z m 751,107 c 0,11 -9,20 -20,20 H 676 c -11,0 -20,-9 -20,-20 0,-11 9,-20 20,-20 h 626 c 11,0 20,9 20,20 z M 1797,0 v 31 h -32 c -90,0 -93,11 -93,48 v 561 c 0,24 0,26 -23,26 -62,-64 -150,-64 -182,-64 v -31 c 20,0 79,0 131,26 V 79 c 0,-36 -3,-48 -93,-48 h -32 V 0 c 35,3 122,3 162,3 40,0 127,0 162,-3 z"
                     stroke="#000000"
                     stroke-opacity="1"
                     stroke-width="8"
                     fill="#000000"
                     fill-opacity="1"
                     id="path66" />
                </g>
              </g>
            </g>
          </g>
        </g>
      </g>
    </g>
    <g
       id="g82">
      <g
         id="g81">
        <g
           id="g75">
          <g
             transform="translate(137.8833,135.41666)"
             id="g74">
            <path
               transform="scale(0.017,-0.017)"
               d="m 420,356 c 0,45 -43,86 -119,86 -132,0 -169,-102 -169,-146 0,-78 74,-93 103,-99 52,-10 104,-21 104,-76 0,-26 -23,-110 -143,-110 -14,0 -91,0 -114,53 38,-5 63,25 63,53 0,23 -16,35 -37,35 -26,0 -56,-21 -56,-66 0,-57 57,-97 143,-97 162,0 201,121 201,166 0,36 -19,61 -31,73 -27,28 -56,33 -100,42 -36,8 -76,15 -76,60 0,29 24,90 112,90 25,0 75,-7 90,-46 -28,-1 -48,-23 -48,-45 0,-14 9,-29 31,-29 22,0 46,17 46,56 z"
               stroke="#000000"
               stroke-opacity="1"
               stroke-width="8"
               fill="#000000"
               fill-opacity="1"
               id="path73" />
          </g>
        </g>
        <g
           id="g80">
          <g
             id="g79">
            <g
               id="g78">
              <g
                 id="g77">
                <g
                   transform="translate(146.3667,138.46668)"
                   id="g76">
                  <path
                     transform="scale(0.0119,-0.0119)"
                     d="m 419,0 v 31 h -32 c -90,0 -93,11 -93,48 v 561 c 0,24 0,26 -23,26 C 209,602 121,602 89,602 v -31 c 20,0 79,0 131,26 V 79 C 220,43 217,31 127,31 H 95 V 0 c 35,3 122,3 162,3 40,0 127,0 162,-3 z"
                     stroke="#000000"
                     stroke-opacity="1"
                     stroke-width="8"
                     fill="#000000"
                     fill-opacity="1"
                     id="path75" />
                </g>
              </g>
            </g>
          </g>
        </g>
      </g>
    </g>
    <g
       id="g91">
      <g
         id="g90">
        <g
           id="g84">
          <g
             transform="translate(179.8667,117.81668)"
             id="g83">
            <path
               transform="scale(0.017,-0.017)"
               d="m 498,143 c 0,10 -9,10 -12,10 -10,0 -11,-4 -14,-18 C 455,70 437,11 396,11 c -27,0 -30,26 -30,46 0,22 2,30 13,74 l 22,90 36,140 c 7,28 7,30 7,34 0,17 -12,27 -29,27 -24,0 -39,-22 -42,-44 -18,37 -47,64 -92,64 C 164,442 40,295 40,149 40,55 95,-11 173,-11 c 20,0 70,4 130,75 8,-42 43,-75 91,-75 35,0 58,23 74,55 17,36 30,99 30,99 z M 361,332 c 0,-6 -2,-12 -3,-17 L 308,119 C 303,101 303,99 288,82 244,27 203,11 175,11 c -50,0 -64,55 -64,94 0,50 32,173 55,219 31,59 76,96 116,96 65,0 79,-82 79,-88 z"
               stroke="#000000"
               stroke-opacity="1"
               stroke-width="8"
               fill="#000000"
               fill-opacity="1"
               id="path82" />
          </g>
        </g>
        <g
           id="g89">
          <g
             id="g88">
            <g
               id="g87">
              <g
                 id="g86">
                <g
                   transform="translate(189.3833,120.86667)"
                   id="g85">
                  <path
                     transform="scale(0.0119,-0.0119)"
                     d="m 460,320 c 0,80 -5,160 -40,234 C 374,650 292,666 250,666 190,666 117,640 76,547 44,478 39,400 39,320 39,245 43,155 84,79 127,-2 200,-22 249,-22 c 54,0 130,21 174,116 32,69 37,147 37,226 z m -83,12 C 377,257 377,189 366,125 351,30 294,0 249,0 210,0 151,25 133,121 c -11,60 -11,152 -11,211 0,64 0,130 8,184 19,119 94,128 119,128 33,0 99,-18 118,-117 10,-56 10,-132 10,-195 z"
                     stroke="#000000"
                     stroke-opacity="1"
                     stroke-width="8"
                     fill="#000000"
                     fill-opacity="1"
                     id="path84" />
                </g>
              </g>
            </g>
          </g>
        </g>
      </g>
    </g>
    <g
       id="g100">
      <g
         id="g99">
        <g
           id="g93">
          <g
             transform="translate(259.5,220.61667)"
             id="g92">
            <path
               transform="scale(0.017,-0.017)"
               d="m 420,356 c 0,45 -43,86 -119,86 -132,0 -169,-102 -169,-146 0,-78 74,-93 103,-99 52,-10 104,-21 104,-76 0,-26 -23,-110 -143,-110 -14,0 -91,0 -114,53 38,-5 63,25 63,53 0,23 -16,35 -37,35 -26,0 -56,-21 -56,-66 0,-57 57,-97 143,-97 162,0 201,121 201,166 0,36 -19,61 -31,73 -27,28 -56,33 -100,42 -36,8 -76,15 -76,60 0,29 24,90 112,90 25,0 75,-7 90,-46 -28,-1 -48,-23 -48,-45 0,-14 9,-29 31,-29 22,0 46,17 46,56 z m 223,314 c 2,20 -15,35 -35,35 -20,0 -37,-15 -35,-35 l 22,-247 h 26 z"
               stroke="#000000"
               stroke-opacity="1"
               stroke-width="8"
               fill="#000000"
               fill-opacity="1"
               id="path91" />
          </g>
        </g>
        <g
           id="g98">
          <g
             id="g97">
            <g
               id="g96">
              <g
                 id="g95">
                <g
                   transform="translate(267.95001,223.66666)"
                   id="g94">
                  <path
                     transform="scale(0.0119,-0.0119)"
                     d="m 457,171 c 0,82 -63,160 -167,181 82,27 140,97 140,176 0,82 -88,138 -184,138 -101,0 -177,-60 -177,-136 0,-33 22,-52 51,-52 31,0 51,22 51,51 0,50 -47,50 -62,50 31,49 97,62 133,62 41,0 96,-22 96,-112 0,-12 -2,-70 -28,-114 -30,-48 -64,-51 -89,-52 -8,-1 -32,-3 -39,-3 -8,-1 -15,-2 -15,-12 0,-11 7,-11 24,-11 h 44 C 317,337 354,269 354,171 354,35 285,6 241,6 198,6 123,23 88,82 c 35,-5 66,17 66,55 0,36 -27,56 -56,56 -24,0 -56,-14 -56,-58 0,-91 93,-157 202,-157 122,0 213,91 213,193 z"
                     stroke="#000000"
                     stroke-opacity="1"
                     stroke-width="8"
                     fill="#000000"
                     fill-opacity="1"
                     id="path93" />
                </g>
              </g>
            </g>
          </g>
        </g>
      </g>
    </g>
    <g
       id="g109">
      <g
         id="g108">
        <g
           id="g102">
          <g
             transform="translate(211.8667,199.01666)"
             id="g101">
            <path
               transform="scale(0.017,-0.017)"
               d="m 498,143 c 0,10 -9,10 -12,10 -10,0 -11,-4 -14,-18 C 455,70 437,11 396,11 c -27,0 -30,26 -30,46 0,22 2,30 13,74 l 22,90 36,140 c 7,28 7,30 7,34 0,17 -12,27 -29,27 -24,0 -39,-22 -42,-44 -18,37 -47,64 -92,64 C 164,442 40,295 40,149 40,55 95,-11 173,-11 c 20,0 70,4 130,75 8,-42 43,-75 91,-75 35,0 58,23 74,55 17,36 30,99 30,99 z M 361,332 c 0,-6 -2,-12 -3,-17 L 308,119 C 303,101 303,99 288,82 244,27 203,11 175,11 c -50,0 -64,55 -64,94 0,50 32,173 55,219 31,59 76,96 116,96 65,0 79,-82 79,-88 z"
               stroke="#000000"
               stroke-opacity="1"
               stroke-width="8"
               fill="#000000"
               fill-opacity="1"
               id="path100" />
          </g>
        </g>
        <g
           id="g107">
          <g
             id="g106">
            <g
               id="g105">
              <g
                 id="g104">
                <g
                   transform="translate(221.3833,202.06666)"
                   id="g103">
                  <path
                     transform="scale(0.0119,-0.0119)"
                     d="m 419,0 v 31 h -32 c -90,0 -93,11 -93,48 v 561 c 0,24 0,26 -23,26 C 209,602 121,602 89,602 v -31 c 20,0 79,0 131,26 V 79 C 220,43 217,31 127,31 H 95 V 0 c 35,3 122,3 162,3 40,0 127,0 162,-3 z"
                     stroke="#000000"
                     stroke-opacity="1"
                     stroke-width="8"
                     fill="#000000"
                     fill-opacity="1"
                     id="path102" />
                </g>
              </g>
            </g>
          </g>
        </g>
      </g>
    </g>
    <g
       id="g118">
      <g
         id="g117">
        <g
           id="g111">
          <g
             transform="translate(219.8833,144.61667)"
             id="g110">
            <path
               transform="scale(0.017,-0.017)"
               d="m 420,356 c 0,45 -43,86 -119,86 -132,0 -169,-102 -169,-146 0,-78 74,-93 103,-99 52,-10 104,-21 104,-76 0,-26 -23,-110 -143,-110 -14,0 -91,0 -114,53 38,-5 63,25 63,53 0,23 -16,35 -37,35 -26,0 -56,-21 -56,-66 0,-57 57,-97 143,-97 162,0 201,121 201,166 0,36 -19,61 -31,73 -27,28 -56,33 -100,42 -36,8 -76,15 -76,60 0,29 24,90 112,90 25,0 75,-7 90,-46 -28,-1 -48,-23 -48,-45 0,-14 9,-29 31,-29 22,0 46,17 46,56 z"
               stroke="#000000"
               stroke-opacity="1"
               stroke-width="8"
               fill="#000000"
               fill-opacity="1"
               id="path109" />
          </g>
        </g>
        <g
           id="g116">
          <g
             id="g115">
            <g
               id="g114">
              <g
                 id="g113">
                <g
                   transform="translate(228.3667,147.66666)"
                   id="g112">
                  <path
                     transform="scale(0.0119,-0.0119)"
                     d="m 449,174 h -25 c -5,-30 -12,-74 -22,-89 -7,-8 -73,-8 -95,-8 H 127 L 233,180 C 389,318 449,372 449,472 449,586 359,666 237,666 124,666 50,574 50,485 c 0,-56 50,-56 53,-56 17,0 52,12 52,53 0,26 -18,52 -53,52 -8,0 -10,0 -13,-1 23,65 77,102 135,102 91,0 134,-81 134,-163 0,-80 -50,-159 -105,-221 L 61,37 C 50,26 50,24 50,0 h 371 z"
                     stroke="#000000"
                     stroke-opacity="1"
                     stroke-width="8"
                     fill="#000000"
                     fill-opacity="1"
                     id="path111" />
                </g>
              </g>
            </g>
          </g>
        </g>
      </g>
    </g>
    <g
       id="g127">
      <g
         id="g126">
        <g
           id="g120">
          <g
             transform="translate(261.46667,128.61667)"
             id="g119">
            <path
               transform="scale(0.017,-0.017)"
               d="m 498,143 c 0,10 -9,10 -12,10 -10,0 -11,-4 -14,-18 C 455,70 437,11 396,11 c -27,0 -30,26 -30,46 0,22 2,30 13,74 l 22,90 36,140 c 7,28 7,30 7,34 0,17 -12,27 -29,27 -24,0 -39,-22 -42,-44 -18,37 -47,64 -92,64 C 164,442 40,295 40,149 40,55 95,-11 173,-11 c 20,0 70,4 130,75 8,-42 43,-75 91,-75 35,0 58,23 74,55 17,36 30,99 30,99 z M 361,332 c 0,-6 -2,-12 -3,-17 L 308,119 C 303,101 303,99 288,82 244,27 203,11 175,11 c -50,0 -64,55 -64,94 0,50 32,173 55,219 31,59 76,96 116,96 65,0 79,-82 79,-88 z"
               stroke="#000000"
               stroke-opacity="1"
               stroke-width="8"
               fill="#000000"
               fill-opacity="1"
               id="path118" />
          </g>
        </g>
        <g
           id="g125">
          <g
             id="g124">
            <g
               id="g123">
              <g
                 id="g122">
                <g
                   transform="translate(270.98334,131.66666)"
                   id="g121">
                  <path
                     transform="scale(0.0119,-0.0119)"
                     d="m 419,0 v 31 h -32 c -90,0 -93,11 -93,48 v 561 c 0,24 0,26 -23,26 C 209,602 121,602 89,602 v -31 c 20,0 79,0 131,26 V 79 C 220,43 217,31 127,31 H 95 V 0 c 35,3 122,3 162,3 40,0 127,0 162,-3 z"
                     stroke="#000000"
                     stroke-opacity="1"
                     stroke-width="8"
                     fill="#000000"
                     fill-opacity="1"
                     id="path120" />
                </g>
              </g>
            </g>
          </g>
        </g>
      </g>
    </g>
    <g
       id="g136">
      <g
         id="g135">
        <g
           id="g129">
          <g
             transform="translate(301.48334,155.41666)"
             id="g128">
            <path
               transform="scale(0.017,-0.017)"
               d="m 420,356 c 0,45 -43,86 -119,86 -132,0 -169,-102 -169,-146 0,-78 74,-93 103,-99 52,-10 104,-21 104,-76 0,-26 -23,-110 -143,-110 -14,0 -91,0 -114,53 38,-5 63,25 63,53 0,23 -16,35 -37,35 -26,0 -56,-21 -56,-66 0,-57 57,-97 143,-97 162,0 201,121 201,166 0,36 -19,61 -31,73 -27,28 -56,33 -100,42 -36,8 -76,15 -76,60 0,29 24,90 112,90 25,0 75,-7 90,-46 -28,-1 -48,-23 -48,-45 0,-14 9,-29 31,-29 22,0 46,17 46,56 z"
               stroke="#000000"
               stroke-opacity="1"
               stroke-width="8"
               fill="#000000"
               fill-opacity="1"
               id="path127" />
          </g>
        </g>
        <g
           id="g134">
          <g
             id="g133">
            <g
               id="g132">
              <g
                 id="g131">
                <g
                   transform="translate(309.96667,158.46668)"
                   id="g130">
                  <path
                     transform="scale(0.0119,-0.0119)"
                     d="m 457,171 c 0,82 -63,160 -167,181 82,27 140,97 140,176 0,82 -88,138 -184,138 -101,0 -177,-60 -177,-136 0,-33 22,-52 51,-52 31,0 51,22 51,51 0,50 -47,50 -62,50 31,49 97,62 133,62 41,0 96,-22 96,-112 0,-12 -2,-70 -28,-114 -30,-48 -64,-51 -89,-52 -8,-1 -32,-3 -39,-3 -8,-1 -15,-2 -15,-12 0,-11 7,-11 24,-11 h 44 C 317,337 354,269 354,171 354,35 285,6 241,6 198,6 123,23 88,82 c 35,-5 66,17 66,55 0,36 -27,56 -56,56 -24,0 -56,-14 -56,-58 0,-91 93,-157 202,-157 122,0 213,91 213,193 z"
                     stroke="#000000"
                     stroke-opacity="1"
                     stroke-width="8"
                     fill="#000000"
                     fill-opacity="1"
                     id="path129" />
                </g>
              </g>
            </g>
          </g>
        </g>
      </g>
    </g>
    <g
       id="g145">
      <g
         id="g144">
        <g
           id="g138">
          <g
             transform="translate(342.26666,139.01666)"
             id="g137">
            <path
               transform="scale(0.017,-0.017)"
               d="m 498,143 c 0,10 -9,10 -12,10 -10,0 -11,-4 -14,-18 C 455,70 437,11 396,11 c -27,0 -30,26 -30,46 0,22 2,30 13,74 l 22,90 36,140 c 7,28 7,30 7,34 0,17 -12,27 -29,27 -24,0 -39,-22 -42,-44 -18,37 -47,64 -92,64 C 164,442 40,295 40,149 40,55 95,-11 173,-11 c 20,0 70,4 130,75 8,-42 43,-75 91,-75 35,0 58,23 74,55 17,36 30,99 30,99 z M 361,332 c 0,-6 -2,-12 -3,-17 L 308,119 C 303,101 303,99 288,82 244,27 203,11 175,11 c -50,0 -64,55 -64,94 0,50 32,173 55,219 31,59 76,96 116,96 65,0 79,-82 79,-88 z"
               stroke="#000000"
               stroke-opacity="1"
               stroke-width="8"
               fill="#000000"
               fill-opacity="1"
               id="path136" />
          </g>
        </g>
        <g
           id="g143">
          <g
             id="g142">
            <g
               id="g141">
              <g
                 id="g140">
                <g
                   transform="translate(351.78333,142.06666)"
                   id="g139">
                  <path
                     transform="scale(0.0119,-0.0119)"
                     d="m 449,174 h -25 c -5,-30 -12,-74 -22,-89 -7,-8 -73,-8 -95,-8 H 127 L 233,180 C 389,318 449,372 449,472 449,586 359,666 237,666 124,666 50,574 50,485 c 0,-56 50,-56 53,-56 17,0 52,12 52,53 0,26 -18,52 -53,52 -8,0 -10,0 -13,-1 23,65 77,102 135,102 91,0 134,-81 134,-163 0,-80 -50,-159 -105,-221 L 61,37 C 50,26 50,24 50,0 h 371 z"
                     stroke="#000000"
                     stroke-opacity="1"
                     stroke-width="8"
                     fill="#000000"
                     fill-opacity="1"
                     id="path138" />
                </g>
              </g>
            </g>
          </g>
        </g>
      </g>
    </g>
    <g
       id="g154">
      <g
         id="g153">
        <g
           id="g147">
          <g
             transform="translate(381.8833,167.01666)"
             id="g146">
            <path
               transform="scale(0.017,-0.017)"
               d="m 420,356 c 0,45 -43,86 -119,86 -132,0 -169,-102 -169,-146 0,-78 74,-93 103,-99 52,-10 104,-21 104,-76 0,-26 -23,-110 -143,-110 -14,0 -91,0 -114,53 38,-5 63,25 63,53 0,23 -16,35 -37,35 -26,0 -56,-21 -56,-66 0,-57 57,-97 143,-97 162,0 201,121 201,166 0,36 -19,61 -31,73 -27,28 -56,33 -100,42 -36,8 -76,15 -76,60 0,29 24,90 112,90 25,0 75,-7 90,-46 -28,-1 -48,-23 -48,-45 0,-14 9,-29 31,-29 22,0 46,17 46,56 z"
               stroke="#000000"
               stroke-opacity="1"
               stroke-width="8"
               fill="#000000"
               fill-opacity="1"
               id="path145" />
          </g>
        </g>
        <g
           id="g152">
          <g
             id="g151">
            <g
               id="g150">
              <g
                 id="g149">
                <g
                   transform="translate(390.3667,170.06666)"
                   id="g148">
                  <path
                     transform="scale(0.0119,-0.0119)"
                     d="m 471,165 v 31 H 371 v 455 c 0,20 0,26 -16,26 -9,0 -12,0 -20,-12 L 28,196 V 165 H 294 V 78 C 294,42 292,31 218,31 H 197 V 0 c 41,3 93,3 135,3 42,0 95,0 136,-3 v 31 h -21 c -74,0 -76,11 -76,47 v 87 z M 300,196 H 56 l 244,373 z"
                     stroke="#000000"
                     stroke-opacity="1"
                     stroke-width="8"
                     fill="#000000"
                     fill-opacity="1"
                     id="path147" />
                </g>
              </g>
            </g>
          </g>
        </g>
      </g>
    </g>
    <g
       id="g158">
      <g
         id="g157">
        <g
           id="g156">
          <g
             transform="translate(463.6167,177.61667)"
             id="g155">
            <path
               transform="scale(0.017,-0.017)"
               d="m 162,250 c 0,29 -24,53 -53,53 -29,0 -53,-24 -53,-53 0,-29 24,-53 53,-53 29,0 53,24 53,53 z m 279,0 c 0,29 -24,53 -53,53 -29,0 -53,-24 -53,-53 0,-29 24,-53 53,-53 29,0 53,24 53,53 z m 279,0 c 0,29 -24,53 -53,53 -29,0 -53,-24 -53,-53 0,-29 24,-53 53,-53 29,0 53,24 53,53 z"
               stroke="#000000"
               stroke-opacity="1"
               stroke-width="8"
               fill="#000000"
               fill-opacity="1"
               id="path154" />
          </g>
        </g>
      </g>
    </g>
    <g
       id="g167">
      <g
         id="g166">
        <g
           id="g160">
          <g
             transform="translate(420.26666,152.61667)"
             id="g159">
            <path
               transform="scale(0.017,-0.017)"
               d="m 498,143 c 0,10 -9,10 -12,10 -10,0 -11,-4 -14,-18 C 455,70 437,11 396,11 c -27,0 -30,26 -30,46 0,22 2,30 13,74 l 22,90 36,140 c 7,28 7,30 7,34 0,17 -12,27 -29,27 -24,0 -39,-22 -42,-44 -18,37 -47,64 -92,64 C 164,442 40,295 40,149 40,55 95,-11 173,-11 c 20,0 70,4 130,75 8,-42 43,-75 91,-75 35,0 58,23 74,55 17,36 30,99 30,99 z M 361,332 c 0,-6 -2,-12 -3,-17 L 308,119 C 303,101 303,99 288,82 244,27 203,11 175,11 c -50,0 -64,55 -64,94 0,50 32,173 55,219 31,59 76,96 116,96 65,0 79,-82 79,-88 z"
               stroke="#000000"
               stroke-opacity="1"
               stroke-width="8"
               fill="#000000"
               fill-opacity="1"
               id="path158" />
          </g>
        </g>
        <g
           id="g165">
          <g
             id="g164">
            <g
               id="g163">
              <g
                 id="g162">
                <g
                   transform="translate(429.78333,155.66666)"
                   id="g161">
                  <path
                     transform="scale(0.0119,-0.0119)"
                     d="m 457,171 c 0,82 -63,160 -167,181 82,27 140,97 140,176 0,82 -88,138 -184,138 -101,0 -177,-60 -177,-136 0,-33 22,-52 51,-52 31,0 51,22 51,51 0,50 -47,50 -62,50 31,49 97,62 133,62 41,0 96,-22 96,-112 0,-12 -2,-70 -28,-114 -30,-48 -64,-51 -89,-52 -8,-1 -32,-3 -39,-3 -8,-1 -15,-2 -15,-12 0,-11 7,-11 24,-11 h 44 C 317,337 354,269 354,171 354,35 285,6 241,6 198,6 123,23 88,82 c 35,-5 66,17 66,55 0,36 -27,56 -56,56 -24,0 -56,-14 -56,-58 0,-91 93,-157 202,-157 122,0 213,91 213,193 z"
                     stroke="#000000"
                     stroke-opacity="1"
                     stroke-width="8"
                     fill="#000000"
                     fill-opacity="1"
                     id="path160" />
                </g>
              </g>
            </g>
          </g>
        </g>
      </g>
    </g>
    <g
       id="g176">
      <g
         id="g175">
        <g
           id="g169">
          <g
             transform="translate(321.46667,194.61667)"
             id="g168">
            <path
               transform="scale(0.017,-0.017)"
               d="m 498,143 c 0,10 -9,10 -12,10 -10,0 -11,-4 -14,-18 C 455,70 437,11 396,11 c -27,0 -30,26 -30,46 0,22 2,30 13,74 l 22,90 36,140 c 7,28 7,30 7,34 0,17 -12,27 -29,27 -24,0 -39,-22 -42,-44 -18,37 -47,64 -92,64 C 164,442 40,295 40,149 40,55 95,-11 173,-11 c 20,0 70,4 130,75 8,-42 43,-75 91,-75 35,0 58,23 74,55 17,36 30,99 30,99 z M 361,332 c 0,-6 -2,-12 -3,-17 L 308,119 C 303,101 303,99 288,82 244,27 203,11 175,11 c -50,0 -64,55 -64,94 0,50 32,173 55,219 31,59 76,96 116,96 65,0 79,-82 79,-88 z"
               stroke="#000000"
               stroke-opacity="1"
               stroke-width="8"
               fill="#000000"
               fill-opacity="1"
               id="path167" />
          </g>
        </g>
        <g
           id="g174">
          <g
             id="g173">
            <g
               id="g172">
              <g
                 id="g171">
                <g
                   transform="translate(330.98334,197.66666)"
                   id="g170">
                  <path
                     transform="scale(0.0119,-0.0119)"
                     d="m 449,174 h -25 c -5,-30 -12,-74 -22,-89 -7,-8 -73,-8 -95,-8 H 127 L 233,180 C 389,318 449,372 449,472 449,586 359,666 237,666 124,666 50,574 50,485 c 0,-56 50,-56 53,-56 17,0 52,12 52,53 0,26 -18,52 -53,52 -8,0 -10,0 -13,-1 23,65 77,102 135,102 91,0 134,-81 134,-163 0,-80 -50,-159 -105,-221 L 61,37 C 50,26 50,24 50,0 h 371 z"
                     stroke="#000000"
                     stroke-opacity="1"
                     stroke-width="8"
                     fill="#000000"
                     fill-opacity="1"
                     id="path169" />
                </g>
              </g>
            </g>
          </g>
        </g>
      </g>
    </g>
    <g
       id="g185">
      <g
         id="g184">
        <g
           id="g178">
          <g
             transform="translate(520.26666,159.01666)"
             id="g177">
            <path
               transform="scale(0.017,-0.017)"
               d="m 498,143 c 0,10 -9,10 -12,10 -10,0 -11,-4 -14,-18 C 455,70 437,11 396,11 c -27,0 -30,26 -30,46 0,22 2,30 13,74 l 22,90 36,140 c 7,28 7,30 7,34 0,17 -12,27 -29,27 -24,0 -39,-22 -42,-44 -18,37 -47,64 -92,64 C 164,442 40,295 40,149 40,55 95,-11 173,-11 c 20,0 70,4 130,75 8,-42 43,-75 91,-75 35,0 58,23 74,55 17,36 30,99 30,99 z M 361,332 c 0,-6 -2,-12 -3,-17 L 308,119 C 303,101 303,99 288,82 244,27 203,11 175,11 c -50,0 -64,55 -64,94 0,50 32,173 55,219 31,59 76,96 116,96 65,0 79,-82 79,-88 z"
               stroke="#000000"
               stroke-opacity="1"
               stroke-width="8"
               fill="#000000"
               fill-opacity="1"
               id="path176" />
          </g>
        </g>
        <g
           id="g183">
          <g
             id="g182">
            <g
               id="g181">
              <g
                 id="g180">
                <g
                   transform="translate(529.78333,161.96668)"
                   id="g179">
                  <path
                     transform="scale(0.0119,-0.0119)"
                     d="m 571,143 c 0,10 -9,10 -12,10 -10,0 -10,-3 -15,-18 C 524,67 491,11 442,11 c -17,0 -24,10 -24,33 0,25 9,49 18,71 19,53 61,163 61,220 0,67 -43,107 -115,107 -90,0 -139,-64 -156,-87 -5,56 -46,87 -92,87 -46,0 -65,-39 -75,-57 -16,-34 -30,-93 -30,-97 0,-10 12,-10 12,-10 10,0 11,1 17,23 17,71 37,119 73,119 20,0 31,-13 31,-46 0,-21 -3,-32 -16,-84 L 88,59 C 85,44 79,21 79,16 c 0,-18 14,-27 29,-27 12,0 30,8 37,28 1,2 13,49 19,74 l 22,90 c 6,22 12,44 17,67 l 13,50 c 15,31 68,122 163,122 45,0 54,-37 54,-70 0,-62 -49,-190 -65,-233 -9,-23 -10,-35 -10,-46 0,-47 35,-82 82,-82 94,0 131,146 131,154 z m 751,107 c 0,11 -9,20 -20,20 H 676 c -11,0 -20,-9 -20,-20 0,-11 9,-20 20,-20 h 626 c 11,0 20,9 20,20 z M 1797,0 v 31 h -32 c -90,0 -93,11 -93,48 v 561 c 0,24 0,26 -23,26 -62,-64 -150,-64 -182,-64 v -31 c 20,0 79,0 131,26 V 79 c 0,-36 -3,-48 -93,-48 h -32 V 0 c 35,3 122,3 162,3 40,0 127,0 162,-3 z"
                     stroke="#000000"
                     stroke-opacity="1"
                     stroke-width="8"
                     fill="#000000"
                     fill-opacity="1"
                     id="path178" />
                </g>
              </g>
            </g>
          </g>
        </g>
      </g>
    </g>
    <g
       id="g194">
      <g
         id="g193">
        <g
           id="g187">
          <g
             transform="translate(557.68335,189.01666)"
             id="g186">
            <path
               transform="scale(0.017,-0.017)"
               d="m 420,356 c 0,45 -43,86 -119,86 -132,0 -169,-102 -169,-146 0,-78 74,-93 103,-99 52,-10 104,-21 104,-76 0,-26 -23,-110 -143,-110 -14,0 -91,0 -114,53 38,-5 63,25 63,53 0,23 -16,35 -37,35 -26,0 -56,-21 -56,-66 0,-57 57,-97 143,-97 162,0 201,121 201,166 0,36 -19,61 -31,73 -27,28 -56,33 -100,42 -36,8 -76,15 -76,60 0,29 24,90 112,90 25,0 75,-7 90,-46 -28,-1 -48,-23 -48,-45 0,-14 9,-29 31,-29 22,0 46,17 46,56 z"
               stroke="#000000"
               stroke-opacity="1"
               stroke-width="8"
               fill="#000000"
               fill-opacity="1"
               id="path185" />
          </g>
        </g>
        <g
           id="g192">
          <g
             id="g191">
            <g
               id="g190">
              <g
                 id="g189">
                <g
                   transform="translate(566.16669,191.96668)"
                   id="g188">
                  <path
                     transform="scale(0.0119,-0.0119)"
                     d="m 571,143 c 0,10 -9,10 -12,10 -10,0 -10,-3 -15,-18 C 524,67 491,11 442,11 c -17,0 -24,10 -24,33 0,25 9,49 18,71 19,53 61,163 61,220 0,67 -43,107 -115,107 -90,0 -139,-64 -156,-87 -5,56 -46,87 -92,87 -46,0 -65,-39 -75,-57 -16,-34 -30,-93 -30,-97 0,-10 12,-10 12,-10 10,0 11,1 17,23 17,71 37,119 73,119 20,0 31,-13 31,-46 0,-21 -3,-32 -16,-84 L 88,59 C 85,44 79,21 79,16 c 0,-18 14,-27 29,-27 12,0 30,8 37,28 1,2 13,49 19,74 l 22,90 c 6,22 12,44 17,67 l 13,50 c 15,31 68,122 163,122 45,0 54,-37 54,-70 0,-62 -49,-190 -65,-233 -9,-23 -10,-35 -10,-46 0,-47 35,-82 82,-82 94,0 131,146 131,154 z m 751,107 c 0,11 -9,20 -20,20 H 676 c -11,0 -20,-9 -20,-20 0,-11 9,-20 20,-20 h 626 c 11,0 20,9 20,20 z M 1797,0 v 31 h -32 c -90,0 -93,11 -93,48 v 561 c 0,24 0,26 -23,26 -62,-64 -150,-64 -182,-64 v -31 c 20,0 79,0 131,26 V 79 c 0,-36 -3,-48 -93,-48 h -32 V 0 c 35,3 122,3 162,3 40,0 127,0 162,-3 z"
                     stroke="#000000"
                     stroke-opacity="1"
                     stroke-width="8"
                     fill="#000000"
                     fill-opacity="1"
                     id="path187" />
                </g>
              </g>
            </g>
          </g>
        </g>
      </g>
    </g>
  </svg>
</svg>
