<?xml version="1.0" encoding="UTF-8" standalone="no"?>
<svg
   x="0"
   y="0"
   width="149.67999"
   height="162.84808"
   style="fill:none"
   version="1.1"
   id="svg83"
   xmlns="http://www.w3.org/2000/svg"
   xmlns:svg="http://www.w3.org/2000/svg">
  <defs
     id="defs83" />
  <path
     class="connection real"
     stroke-dasharray="none"
     d="m 54.120001,15.948101 c 15.68,6.27 29.44,9.47 50.689999,33.69"
     style="fill:none;fill-opacity:1;stroke:#000000;stroke-width:1px"
     id="path1" />
  <path
     d="M 96.501521,45.002058 Q 102.54624,47.679326 106.12,51.1481 103.22887,47.092795 101.49229,40.713863"
     id="path2"
     style="fill:none;stroke:#000000;stroke-width:1px" />
  <path
     class="connection real"
     stroke-dasharray="none"
     d="m 111.32,64.348101 c -40.579999,5.52 -53.219999,11.03 -77.669999,32.99"
     style="fill:none;fill-opacity:1;stroke:#000000;stroke-width:1px"
     id="path3" />
  <path
     d="m 38.417271,88.575111 q -2.52132,6.11142 -5.89727,9.77299 3.9798,-2.99421 10.31209,-4.89387"
     id="path4"
     style="fill:none;stroke:#000000;stroke-width:1px" />
  <path
     class="connection real"
     stroke-dasharray="none"
     d="m 28.120001,109.1481 c 32.54,-5.1 51.24,-14.419999 72.679999,-35.489999"
     style="fill:none;fill-opacity:1;stroke:#000000;stroke-width:1px"
     id="path5" />
  <path
     d="m 96.717711,82.403161 q 2.21324,-6.229612 5.402299,-10.05506 -3.825449,3.189052 -10.055059,5.402296"
     id="path6"
     style="fill:none;stroke:#000000;stroke-width:1px" />
  <path
     class="connection real"
     stroke-dasharray="none"
     d="m 113.32,65.548101 c -7.06,28.22 -4.51,36.469999 4.63,62.389999"
     style="fill:none;fill-opacity:1;stroke:#000000;stroke-width:1px"
     id="path7" />
  <path
     d="m 111.77985,120.33619 q 4.66502,4.68445 6.74015,9.21191 -1.22643,-4.827 -0.53527,-11.40186"
     id="path8"
     style="fill:none;stroke:#000000;stroke-width:1px" />
  <path
     class="connection real"
     stroke-dasharray="none"
     d="m 128.92,146.7481 c 8.23,-27.83 5.71,-43.37 -4.19,-68.829999"
     style="fill:none;fill-opacity:1;stroke:#000000;stroke-width:1px"
     id="path9" />
  <path
     d="m 131.18693,85.311781 q -4.8304,-4.51373 -7.06693,-8.963675 1.39915,4.779796 0.94478,11.375255"
     id="path10"
     style="fill:none;stroke:#000000;stroke-width:1px" />
  <path
     class="real"
     d="m 0.50000122,106.2081 c 0,-10.009999 8.11999998,-18.129999 18.13999978,-18.129999 10.02,0 18.14,8.12 18.14,18.129999 0,10.02 -8.12,18.14 -18.14,18.14 -10.0199998,0 -18.13999978,-8.12 -18.13999978,-18.14 z"
     style="fill:#ffffff;fill-opacity:1;stroke:#000000;stroke-width:1px"
     id="path11" />
  <path
     class="real"
     d="m 97.300001,62.608101 c 0,-10.01 8.119999,-18.14 18.139999,-18.14 10.02,0 18.14,8.13 18.14,18.14 0,10.02 -8.12,18.14 -18.14,18.14 -10.02,0 -18.139999,-8.12 -18.139999,-18.14 z"
     style="fill:#ffffff;fill-opacity:1;stroke:#000000;stroke-width:1px"
     id="path13" />
  <path
     class="real"
     d="m 112.9,144.2081 c 0,-10.01 8.12,-18.13 18.14,-18.13 10.02,0 18.14,8.12 18.14,18.13 0,10.02 -8.12,18.14 -18.14,18.14 -10.02,0 -18.14,-8.12 -18.14,-18.14 z"
     style="fill:#ffffff;fill-opacity:1;stroke:#000000;stroke-width:1px"
     id="path15" />
  <circle
     cx="49.845001"
     cy="15.73975"
     r="15.239751"
     style="fill:#ffffff;fill-opacity:1;stroke:#000000;stroke-width:1px"
     id="circle20" />
  <circle
     cx="18.644989"
     cy="106.13976"
     r="15.239751"
     style="fill:#ffffff;fill-opacity:1;stroke:#000000;stroke-width:1px"
     id="circle21" />
  <circle
     cx="115.44501"
     cy="62.539753"
     r="15.239751"
     style="fill:#ffffff;fill-opacity:1;stroke:#000000;stroke-width:1px"
     id="circle22" />
  <circle
     cx="131.04501"
     cy="144.13976"
     r="15.239751"
     style="fill:#ffffff;fill-opacity:1;stroke:#000000;stroke-width:1px"
     id="circle23" />
  <path
     d="m 49.266681,15.436097 c 0,-0.765 -0.731,-1.462 -2.023,-1.462 -2.244,0 -2.873,1.734 -2.873,2.482 0,1.326 1.258,1.581 1.751,1.683 0.884,0.17 1.768,0.357 1.768,1.292 0,0.442 -0.391,1.87 -2.431,1.87 -0.238,0 -1.547,0 -1.938,-0.901 0.646,0.085 1.071,-0.425 1.071,-0.901 0,-0.391 -0.272,-0.595 -0.629,-0.595 -0.442,0 -0.952,0.357 -0.952,1.122 0,0.969 0.969,1.649 2.431,1.649 2.754,0 3.417,-2.057 3.417,-2.822 0,-0.612 -0.323,-1.037 -0.527,-1.241 -0.459,-0.476 -0.952,-0.561 -1.7,-0.714 -0.612,-0.136 -1.292,-0.255 -1.292,-1.02 0,-0.493 0.408,-1.53 1.904,-1.53 0.425,0 1.275,0.119 1.53,0.782 -0.476,0.017 -0.816,0.391 -0.816,0.765 0,0.238 0.153,0.493 0.527,0.493 0.374,0 0.782,-0.289 0.782,-0.952 z"
     stroke="#000000"
     stroke-opacity="1"
     stroke-width="0.136"
     fill="#000000"
     fill-opacity="1"
     id="path26"
     style="font-family:LatinModern-Math, LatinModern, Asana-Math, Asana" />
  <path
     d="m 55.599451,24.541436 v -0.3689 h -0.3808 c -1.071,0 -1.1067,-0.1309 -1.1067,-0.5712 v -6.6759 c 0,-0.2856 0,-0.3094 -0.2737,-0.3094 -0.7378,0.7616 -1.785,0.7616 -2.1658,0.7616 v 0.3689 c 0.238,0 0.9401,0 1.5589,-0.3094 v 6.1642 c 0,0.4284 -0.0357,0.5712 -1.1067,0.5712 h -0.3808 v 0.3689 c 0.4165,-0.0357 1.4518,-0.0357 1.9278,-0.0357 0.476,0 1.5113,0 1.9278,0.0357 z"
     stroke="#000000"
     stroke-opacity="1"
     stroke-width="0.0952"
     fill="#000000"
     fill-opacity="1"
     id="path28"
     style="font-family:LatinModern-Math, LatinModern, Asana-Math, Asana" />
  <path
     d="m 18.053351,105.8361 c 0,-0.765 -0.731,-1.462 -2.023,-1.462 -2.244,0 -2.873,1.734 -2.873,2.482 0,1.326 1.258,1.581 1.751,1.683 0.884,0.17 1.768,0.357 1.768,1.292 0,0.442 -0.391,1.87 -2.431,1.87 -0.238,0 -1.547,0 -1.938,-0.901 0.646,0.085 1.071,-0.425 1.071,-0.901 0,-0.391 -0.272,-0.595 -0.629,-0.595 -0.442,0 -0.952,0.357 -0.952,1.122 0,0.969 0.969,1.649 2.431,1.649 2.754,0 3.417,-2.057 3.417,-2.822 0,-0.612 -0.323,-1.037 -0.527,-1.241 -0.459,-0.476 -0.952,-0.561 -1.7,-0.714 -0.612,-0.136 -1.292,-0.255 -1.292,-1.02 0,-0.493 0.408,-1.53 1.904,-1.53 0.425,0 1.275,0.119 1.53,0.782 -0.476,0.017 -0.816,0.391 -0.816,0.765 0,0.238 0.153,0.493 0.527,0.493 0.374,0 0.782,-0.289 0.782,-0.952 z"
     stroke="#000000"
     stroke-opacity="1"
     stroke-width="0.136"
     fill="#000000"
     fill-opacity="1"
     id="path35"
     style="font-family:LatinModern-Math, LatinModern, Asana-Math, Asana" />
  <path
     d="m 24.998231,112.97793 v -0.3689 h -1.19 v -5.4145 c 0,-0.238 0,-0.3094 -0.1904,-0.3094 -0.1071,0 -0.1428,0 -0.238,0.1428 l -3.6533,5.5811 v 0.3689 h 3.1654 v 1.0353 c 0,0.4284 -0.0238,0.5593 -0.9044,0.5593 h -0.2499 v 0.3689 c 0.4879,-0.0357 1.1067,-0.0357 1.6065,-0.0357 0.4998,0 1.1305,0 1.6184,0.0357 v -0.3689 h -0.2499 c -0.8806,0 -0.9044,-0.1309 -0.9044,-0.5593 v -1.0353 z m -2.0349,-0.3689 h -2.9036 l 2.9036,-4.4387 z"
     stroke="#000000"
     stroke-opacity="1"
     stroke-width="0.0952"
     fill="#000000"
     fill-opacity="1"
     id="path37"
     style="font-family:LatinModern-Math, LatinModern, Asana-Math, Asana" />
  <path
     d="m 114.86668,62.236097 c 0,-0.765 -0.731,-1.462 -2.023,-1.462 -2.244,0 -2.873,1.734 -2.873,2.482 0,1.326 1.258,1.581 1.751,1.683 0.884,0.17 1.768,0.357 1.768,1.292 0,0.442 -0.391,1.87 -2.431,1.87 -0.238,0 -1.547,0 -1.938,-0.901 0.646,0.085 1.071,-0.425 1.071,-0.901 0,-0.391 -0.272,-0.595 -0.629,-0.595 -0.442,0 -0.952,0.357 -0.952,1.122 0,0.969 0.969,1.649 2.431,1.649 2.754,0 3.417,-2.057 3.417,-2.822 0,-0.612 -0.323,-1.037 -0.527,-1.241 -0.459,-0.476 -0.952,-0.561 -1.7,-0.714 -0.612,-0.136 -1.292,-0.255 -1.292,-1.02 0,-0.493 0.408,-1.53 1.904,-1.53 0.425,0 1.275,0.119 1.53,0.782 -0.476,0.017 -0.816,0.391 -0.816,0.765 0,0.238 0.153,0.493 0.527,0.493 0.374,0 0.782,-0.289 0.782,-0.952 z"
     stroke="#000000"
     stroke-opacity="1"
     stroke-width="0.136"
     fill="#000000"
     fill-opacity="1"
     id="path44"
     style="font-family:LatinModern-Math, LatinModern, Asana-Math, Asana" />
  <path
     d="m 121.55645,69.27083 h -0.2975 c -0.0595,0.357 -0.1428,0.8806 -0.2618,1.0591 -0.0833,0.0952 -0.8687,0.0952 -1.1305,0.0952 h -2.142 l 1.2614,-1.2257 c 1.8564,-1.6422 2.5704,-2.2848 2.5704,-3.4748 0,-1.3566 -1.071,-2.3086 -2.5228,-2.3086 -1.3447,0 -2.2253,1.0948 -2.2253,2.1539 0,0.6664 0.595,0.6664 0.6307,0.6664 0.2023,0 0.6188,-0.1428 0.6188,-0.6307 0,-0.3094 -0.2142,-0.6188 -0.6307,-0.6188 -0.0952,0 -0.119,0 -0.1547,0.0119 0.2737,-0.7735 0.9163,-1.2138 1.6065,-1.2138 1.0829,0 1.5946,0.9639 1.5946,1.9397 0,0.952 -0.595,1.8921 -1.2495,2.6299 l -2.2848,2.5466 c -0.1309,0.1309 -0.1309,0.1547 -0.1309,0.4403 h 4.4149 z"
     stroke="#000000"
     stroke-opacity="1"
     stroke-width="0.0952"
     fill="#000000"
     fill-opacity="1"
     id="path46"
     style="font-family:LatinModern-Math, LatinModern, Asana-Math, Asana" />
  <path
     d="m 130.46668,143.83611 c 0,-0.765 -0.731,-1.462 -2.023,-1.462 -2.244,0 -2.873,1.734 -2.873,2.482 0,1.326 1.258,1.581 1.751,1.683 0.884,0.17 1.768,0.357 1.768,1.292 0,0.442 -0.391,1.87 -2.431,1.87 -0.238,0 -1.547,0 -1.938,-0.901 0.646,0.085 1.071,-0.425 1.071,-0.901 0,-0.391 -0.272,-0.595 -0.629,-0.595 -0.442,0 -0.952,0.357 -0.952,1.122 0,0.969 0.969,1.649 2.431,1.649 2.754,0 3.417,-2.057 3.417,-2.822 0,-0.612 -0.323,-1.037 -0.527,-1.241 -0.459,-0.476 -0.952,-0.561 -1.7,-0.714 -0.612,-0.136 -1.292,-0.255 -1.292,-1.02 0,-0.493 0.408,-1.53 1.904,-1.53 0.425,0 1.275,0.119 1.53,0.782 -0.476,0.017 -0.816,0.391 -0.816,0.765 0,0.238 0.153,0.493 0.527,0.493 0.374,0 0.782,-0.289 0.782,-0.952 z"
     stroke="#000000"
     stroke-opacity="1"
     stroke-width="0.136"
     fill="#000000"
     fill-opacity="1"
     id="path53"
     style="font-family:LatinModern-Math, LatinModern, Asana-Math, Asana" />
  <path
     d="m 137.25165,150.90653 c 0,-0.9758 -0.7497,-1.904 -1.9873,-2.1539 0.9758,-0.3213 1.666,-1.1543 1.666,-2.0944 0,-0.9758 -1.0472,-1.6422 -2.1896,-1.6422 -1.2019,0 -2.1063,0.714 -2.1063,1.6184 0,0.3927 0.2618,0.6188 0.6069,0.6188 0.3689,0 0.6069,-0.2618 0.6069,-0.6069 0,-0.595 -0.5593,-0.595 -0.7378,-0.595 0.3689,-0.5831 1.1543,-0.7378 1.5827,-0.7378 0.4879,0 1.1424,0.2618 1.1424,1.3328 0,0.1428 -0.0238,0.833 -0.3332,1.3566 -0.357,0.5712 -0.7616,0.6069 -1.0591,0.6188 -0.0952,0.0119 -0.3808,0.0357 -0.4641,0.0357 -0.0952,0.0119 -0.1785,0.0238 -0.1785,0.1428 0,0.1309 0.0833,0.1309 0.2856,0.1309 h 0.5236 c 0.9758,0 1.4161,0.8092 1.4161,1.9754 0,1.6184 -0.8211,1.9635 -1.3447,1.9635 -0.5117,0 -1.4042,-0.2023 -1.8207,-0.9044 0.4165,0.0595 0.7854,-0.2023 0.7854,-0.6545 0,-0.4284 -0.3213,-0.6664 -0.6664,-0.6664 -0.2856,0 -0.6664,0.1666 -0.6664,0.6902 0,1.0829 1.1067,1.8683 2.4038,1.8683 1.4518,0 2.5347,-1.0829 2.5347,-2.2967 z"
     stroke="#000000"
     stroke-opacity="1"
     stroke-width="0.0952"
     fill="#000000"
     fill-opacity="1"
     id="path55"
     style="font-family:LatinModern-Math, LatinModern, Asana-Math, Asana" />
  <path
     d="m 106.68299,20.351434 c 0,-0.102 -0.068,-0.187 -0.153,-0.221 -1.224,-0.323 -2.278,-1.02 -3.196,-1.819 -0.748,-0.663 -1.377,-1.462 -1.836,-2.363 -0.051,-0.119 -0.17,-0.187 -0.306,-0.187 -0.187,0 -0.34,0.153 -0.34,0.34 0,0.051 0.017,0.102 0.034,0.153 0.408,0.782 0.918,1.496 1.513,2.108 H 92.079991 c -0.187,0 -0.34,0.153 -0.34,0.34 0,0.187 0.153,0.34 0.34,0.34 h 11.066999 c 0.68,0.544 1.428,0.986 2.244,1.309 -0.816,0.323 -1.564,0.765 -2.244,1.309 H 92.079991 c -0.187,0 -0.34,0.153 -0.34,0.34 0,0.187 0.153,0.34 0.34,0.34 h 10.318999 c -0.595,0.612 -1.105,1.326 -1.513,2.108 -0.017,0.051 -0.034,0.102 -0.034,0.153 0,0.187 0.153,0.34 0.34,0.34 0.136,0 0.255,-0.068 0.306,-0.187 0.459,-0.901 1.088,-1.7 1.836,-2.363 0.918,-0.799 1.972,-1.496 3.196,-1.819 0.085,-0.034 0.153,-0.119 0.153,-0.221 z"
     stroke="#000000"
     stroke-opacity="1"
     stroke-width="0.136"
     fill="#000000"
     fill-opacity="1"
     id="path62"
     style="font-family:LatinModern-Math, LatinModern, Asana-Math, Asana" />
  <path
     d="m 144.51199,111.70244 c 0,-0.187 -0.153,-0.34 -0.34,-0.34 -0.051,0 -0.102,0.017 -0.153,0.034 -0.782,0.408 -1.496,0.918 -2.108,1.513 v -10.319 c 0,-0.187 -0.153,-0.34 -0.34,-0.34 -0.187,0 -0.34,0.153 -0.34,0.34 v 11.067 c -0.544,0.68 -0.986,1.428 -1.309,2.244 -0.323,-0.816 -0.765,-1.564 -1.309,-2.244 v -11.067 c 0,-0.187 -0.153,-0.34 -0.34,-0.34 -0.187,0 -0.34,0.153 -0.34,0.34 v 10.319 c -0.612,-0.595 -1.326,-1.105 -2.108,-1.513 -0.051,-0.017 -0.102,-0.034 -0.153,-0.034 -0.187,0 -0.34,0.153 -0.34,0.34 0,0.136 0.068,0.255 0.187,0.306 0.901,0.459 1.7,1.088 2.363,1.836 0.799,0.918 1.496,1.972 1.819,3.196 0.034,0.085 0.119,0.153 0.221,0.153 0.102,0 0.187,-0.068 0.221,-0.153 0.323,-1.224 1.02,-2.278 1.819,-3.196 0.663,-0.748 1.462,-1.377 2.363,-1.836 0.119,-0.051 0.187,-0.17 0.187,-0.306 z"
     stroke="#000000"
     stroke-opacity="1"
     stroke-width="0.136"
     fill="#000000"
     fill-opacity="1"
     id="path66"
     style="font-family:LatinModern-Math, LatinModern, Asana-Math, Asana" />
  <path
     d="m 106.51199,104.20044 c 0,-0.136 -0.068,-0.255 -0.187,-0.306 -0.901,-0.459 -1.7,-1.088 -2.363,-1.836 -0.799,-0.918 -1.496,-1.972 -1.819,-3.195999 -0.034,-0.085 -0.119,-0.153 -0.221,-0.153 -0.102,0 -0.187,0.068 -0.221,0.153 -0.323,1.223999 -1.02,2.277999 -1.818999,3.195999 -0.663,0.748 -1.462,1.377 -2.363,1.836 -0.119,0.051 -0.187,0.17 -0.187,0.306 0,0.187 0.153,0.34 0.34,0.34 0.051,0 0.102,-0.017 0.153,-0.034 0.782,-0.408 1.496,-0.918 2.108,-1.513 v 10.319 c 0,0.187 0.152999,0.34 0.339999,0.34 0.187,0 0.34,-0.153 0.34,-0.34 v -11.067 c 0.544,-0.68 0.986,-1.428 1.309,-2.244 0.323,0.816 0.765,1.564 1.309,2.244 v 11.067 c 0,0.187 0.153,0.34 0.34,0.34 0.187,0 0.34,-0.153 0.34,-0.34 v -10.319 c 0.612,0.595 1.326,1.105 2.108,1.513 0.051,0.017 0.102,0.034 0.153,0.034 0.187,0 0.34,-0.153 0.34,-0.34 z"
     stroke="#000000"
     stroke-opacity="1"
     stroke-width="0.136"
     fill="#000000"
     fill-opacity="1"
     id="path70"
     style="font-family:LatinModern-Math, LatinModern, Asana-Math, Asana" />
  <path
     d="m 76.455921,111.32028 c 0,-0.102 -0.068,-0.187 -0.153,-0.221 -1.224,-0.323 -2.278,-1.02 -3.196,-1.819 -0.748,-0.663 -1.377,-1.462 -1.836,-2.363 -0.051,-0.119 -0.17,-0.187 -0.306,-0.187 -0.187,0 -0.34,0.153 -0.34,0.34 0,0.051 0.017,0.102 0.034,0.153 0.408,0.782 0.918,1.496 1.513,2.108 h -10.319 c -0.187,0 -0.34,0.153 -0.34,0.34 0,0.187 0.153,0.34 0.34,0.34 h 11.067 c 0.68,0.544 1.428,0.986 2.244,1.309 -0.816,0.323 -1.564,0.765 -2.244,1.309 h -11.067 c -0.187,0 -0.34,0.153 -0.34,0.34 0,0.187 0.153,0.34 0.34,0.34 h 10.319 c -0.595,0.612 -1.105,1.326 -1.513,2.108 -0.017,0.051 -0.034,0.102 -0.034,0.153 0,0.187 0.153,0.34 0.34,0.34 0.136,0 0.255,-0.068 0.306,-0.187 0.459,-0.901 1.088,-1.7 1.836,-2.363 0.918,-0.799 1.972,-1.496 3.196,-1.819 0.085,-0.034 0.153,-0.119 0.153,-0.221 z"
     stroke="#000000"
     stroke-opacity="1"
     stroke-width="0.136"
     fill="#000000"
     fill-opacity="1"
     id="path74"
     style="font-family:LatinModern-Math, LatinModern, Asana-Math, Asana" />
  <path
     d="m 62.744761,70.030577 c 0,-0.187 -0.153,-0.34 -0.34,-0.34 h -11.067 c -0.68,-0.544 -1.428,-0.986 -2.244,-1.309 0.816,-0.323 1.564,-0.765 2.244,-1.309 h 11.067 c 0.187,0 0.34,-0.153 0.34,-0.34 0,-0.187 -0.153,-0.34 -0.34,-0.34 h -10.319 c 0.595,-0.612 1.105,-1.326 1.513,-2.108 0.017,-0.051 0.034,-0.102 0.034,-0.153 0,-0.187 -0.153,-0.34 -0.34,-0.34 -0.136,0 -0.255,0.068 -0.306,0.187 -0.459,0.901 -1.088,1.7 -1.836,2.363 -0.918,0.799 -1.972,1.496 -3.196,1.819 -0.085,0.034 -0.153,0.119 -0.153,0.221 0,0.102 0.068,0.187 0.153,0.221 1.224,0.323 2.278,1.02 3.196,1.819 0.748,0.663 1.377,1.462 1.836,2.363 0.051,0.119 0.17,0.187 0.306,0.187 0.187,0 0.34,-0.153 0.34,-0.34 0,-0.051 -0.017,-0.102 -0.034,-0.153 -0.408,-0.782 -0.918,-1.496 -1.513,-2.108 h 10.319 c 0.187,0 0.34,-0.153 0.34,-0.34 z"
     stroke="#000000"
     stroke-opacity="1"
     stroke-width="0.136"
     fill="#000000"
     fill-opacity="1"
     id="path78"
     style="font-family:LatinModern-Math, LatinModern, Asana-Math, Asana" />
</svg>
