<?xml version="1.0" encoding="UTF-8" standalone="no"?>
<svg
   x="0"
   y="0"
   width="278.79413"
   height="45.632561"
   style="fill:none"
   version="1.1"
   id="svg145"
   xmlns="http://www.w3.org/2000/svg"
   xmlns:svg="http://www.w3.org/2000/svg">
  <defs
     id="defs145" />
  <g
     class="arrow-line"
     id="g21"
     style="fill:none;stroke:#000000"
     transform="translate(-237.51384,-5.0873332)">
    <path
       class="connection real"
       stroke-dasharray="none"
       d="M 314.6,34.7 C 297.62,15.4 284.73,19.19 268.75,27.39"
       style="fill:none;fill-opacity:1;stroke:#000000;stroke-width:1px"
       id="path19" />
    <g
       stroke="#000"
       transform="rotate(-27.65,191.00016,-528.34269)"
       style="stroke:#000000;stroke-width:1px"
       id="g20">
      <path
         d="M 10.93,-3.29 Q 4.96,-0.45 0,0 4.96,0.45 10.93,3.29"
         id="path20" />
    </g>
  </g>
  <g
     class="arrow-line"
     id="g23"
     style="fill:none;stroke:#000000"
     transform="translate(-237.51384,-5.0873332)">
    <path
       class="connection real"
       stroke-dasharray="none"
       d="M 374.6,35.2 C 357.62,15.9 344.73,19.69 328.75,27.89"
       style="fill:none;fill-opacity:1;stroke:#000000;stroke-width:1px"
       id="path21" />
    <g
       stroke="#000"
       transform="rotate(-27.65,222.01607,-650.00116)"
       style="stroke:#000000;stroke-width:1px"
       id="g22">
      <path
         d="M 10.93,-3.29 Q 4.96,-0.45 0,0 4.96,0.45 10.93,3.29"
         id="path22" />
    </g>
  </g>
  <g
     class="arrow-line"
     id="g25"
     style="fill:none;stroke:#000000"
     transform="translate(-237.51384,-5.0873332)">
    <path
       class="connection real"
       stroke-dasharray="none"
       d="M 434.6,35.2 C 417.62,15.9 404.73,19.69 388.75,27.89"
       style="fill:none;fill-opacity:1;stroke:#000000;stroke-width:1px"
       id="path23" />
    <g
       stroke="#000"
       transform="rotate(-27.65,252.01607,-771.90963)"
       style="stroke:#000000;stroke-width:1px"
       id="g24">
      <path
         d="M 10.93,-3.29 Q 4.96,-0.45 0,0 4.96,0.45 10.93,3.29"
         id="path24" />
    </g>
  </g>
  <g
     class="arrow-line"
     id="g27"
     style="fill:none;stroke:#000000"
     transform="translate(-237.51384,-5.0873332)">
    <path
       class="connection real"
       stroke-dasharray="none"
       d="M 494.6,35.2 C 477.62,15.9 464.73,19.69 448.75,27.89"
       style="fill:none;fill-opacity:1;stroke:#000000;stroke-width:1px"
       id="path25" />
    <g
       stroke="#000"
       transform="rotate(-27.65,282.01607,-893.8181)"
       style="stroke:#000000;stroke-width:1px"
       id="g26">
      <path
         d="M 10.93,-3.29 Q 4.96,-0.45 0,0 4.96,0.45 10.93,3.29"
         id="path26" />
    </g>
  </g>
  <g
     id="g35"
     transform="translate(-237.51384,-5.0873332)">
    <circle
       cx="254.40147"
       cy="33.83226"
       r="16.257664"
       style="fill:#ffffff;fill-opacity:1;stroke:#000000;stroke-width:1.25994px"
       id="circle34-9" />
    <circle
       cx="254.39999"
       cy="33.791649"
       r="12.903488"
       style="fill:#ffffff;fill-opacity:1;stroke:#000000;stroke-width:1px"
       id="circle34" />
  </g>
  <g
     id="g36"
     transform="translate(-237.51384,-5.0873332)">
    <circle
       cx="314.39999"
       cy="33.791649"
       r="12.903488"
       style="fill:#ffffff;fill-opacity:1;stroke:#000000;stroke-width:1px"
       id="circle35" />
  </g>
  <g
     id="g37"
     transform="translate(-237.51384,-5.0873332)">
    <circle
       cx="374.39999"
       cy="33.791649"
       r="12.903488"
       style="fill:#ffffff;fill-opacity:1;stroke:#000000;stroke-width:1px"
       id="circle36" />
  </g>
  <g
     id="g38"
     transform="translate(-237.51384,-5.0873332)">
    <circle
       cx="434.39999"
       cy="33.791649"
       r="12.903488"
       style="fill:#ffffff;fill-opacity:1;stroke:#000000;stroke-width:1px"
       id="circle37" />
  </g>
  <svg
     width="686"
     height="227.5"
     style="font-family:LatinModern-Math, LatinModern, Asana-Math, Asana"
     version="1.1"
     id="svg144"
     transform="translate(-237.51384,-5.0873332)">
    <g
       id="g112">
      <g
         id="g111">
        <g
           id="g110">
          <g
             transform="translate(249.17334,40.533331)"
             id="g109">
            <path
               transform="scale(0.017,-0.017)"
               d="m 460,320 c 0,80 -5,160 -40,234 C 374,650 292,666 250,666 190,666 117,640 76,547 44,478 39,400 39,320 39,245 43,155 84,79 127,-2 200,-22 249,-22 c 54,0 130,21 174,116 32,69 37,147 37,226 z m -83,12 C 377,257 377,189 366,125 351,30 294,0 249,0 210,0 151,25 133,121 c -11,60 -11,152 -11,211 0,64 0,130 8,184 19,119 94,128 119,128 33,0 99,-18 118,-117 10,-56 10,-132 10,-195 z"
               stroke="#000000"
               stroke-opacity="1"
               stroke-width="8"
               fill="#000000"
               fill-opacity="1"
               id="path108" />
          </g>
        </g>
      </g>
    </g>
    <g
       id="g116">
      <g
         id="g115">
        <g
           id="g114">
          <g
             transform="translate(309.17334,40.533331)"
             id="g113">
            <path
               transform="scale(0.017,-0.017)"
               d="m 419,0 v 31 h -32 c -90,0 -93,11 -93,48 v 561 c 0,24 0,26 -23,26 C 209,602 121,602 89,602 v -31 c 20,0 79,0 131,26 V 79 C 220,43 217,31 127,31 H 95 V 0 c 35,3 122,3 162,3 40,0 127,0 162,-3 z"
               stroke="#000000"
               stroke-opacity="1"
               stroke-width="8"
               fill="#000000"
               fill-opacity="1"
               id="path112" />
          </g>
        </g>
      </g>
    </g>
    <g
       id="g120">
      <g
         id="g119">
        <g
           id="g118">
          <g
             transform="translate(369.17334,40.533331)"
             id="g117">
            <path
               transform="scale(0.017,-0.017)"
               d="m 449,174 h -25 c -5,-30 -12,-74 -22,-89 -7,-8 -73,-8 -95,-8 H 127 L 233,180 C 389,318 449,372 449,472 449,586 359,666 237,666 124,666 50,574 50,485 c 0,-56 50,-56 53,-56 17,0 52,12 52,53 0,26 -18,52 -53,52 -8,0 -10,0 -13,-1 23,65 77,102 135,102 91,0 134,-81 134,-163 0,-80 -50,-159 -105,-221 L 61,37 C 50,26 50,24 50,0 h 371 z"
               stroke="#000000"
               stroke-opacity="1"
               stroke-width="8"
               fill="#000000"
               fill-opacity="1"
               id="path116" />
          </g>
        </g>
      </g>
    </g>
    <g
       id="g124">
      <g
         id="g123">
        <g
           id="g122">
          <g
             transform="translate(429.17334,40.533331)"
             id="g121">
            <path
               transform="scale(0.017,-0.017)"
               d="m 457,171 c 0,82 -63,160 -167,181 82,27 140,97 140,176 0,82 -88,138 -184,138 -101,0 -177,-60 -177,-136 0,-33 22,-52 51,-52 31,0 51,22 51,51 0,50 -47,50 -62,50 31,49 97,62 133,62 41,0 96,-22 96,-112 0,-12 -2,-70 -28,-114 -30,-48 -64,-51 -89,-52 -8,-1 -32,-3 -39,-3 -8,-1 -15,-2 -15,-12 0,-11 7,-11 24,-11 h 44 C 317,337 354,269 354,171 354,35 285,6 241,6 198,6 123,23 88,82 c 35,-5 66,17 66,55 0,36 -27,56 -56,56 -24,0 -56,-14 -56,-58 0,-91 93,-157 202,-157 122,0 213,91 213,193 z"
               stroke="#000000"
               stroke-opacity="1"
               stroke-width="8"
               fill="#000000"
               fill-opacity="1"
               id="path120" />
          </g>
        </g>
      </g>
    </g>
    <g
       id="g128">
      <g
         id="g127">
        <g
           id="g126">
          <g
             transform="translate(504,39.853333)"
             id="g125">
            <path
               transform="scale(0.017,-0.017)"
               d="m 162,250 c 0,29 -24,53 -53,53 -29,0 -53,-24 -53,-53 0,-29 24,-53 53,-53 29,0 53,24 53,53 z m 279,0 c 0,29 -24,53 -53,53 -29,0 -53,-24 -53,-53 0,-29 24,-53 53,-53 29,0 53,24 53,53 z m 279,0 c 0,29 -24,53 -53,53 -29,0 -53,-24 -53,-53 0,-29 24,-53 53,-53 29,0 53,24 53,53 z"
               stroke="#000000"
               stroke-opacity="1"
               stroke-width="8"
               fill="#000000"
               fill-opacity="1"
               id="path124" />
          </g>
        </g>
      </g>
    </g>
    <g
       id="g132">
      <g
         id="g131">
        <g
           id="g130">
          <g
             transform="translate(286.9,16.953333)"
             id="g129">
            <path
               transform="scale(0.017,-0.017)"
               d="m 258,683 c 0,0 0,11 -13,11 -23,0 -96,-8 -122,-10 -8,-1 -19,-2 -19,-21 0,-11 10,-11 25,-11 48,0 49,-9 49,-17 L 175,615 49,115 c -3,-11 -5,-18 -5,-34 0,-57 44,-92 91,-92 33,0 58,20 75,56 18,38 30,98 30,98 0,10 -9,10 -12,10 -10,0 -11,-4 -14,-18 C 197,70 178,11 138,11 c -30,0 -30,32 -30,46 0,24 1,29 6,48 z"
               stroke="#000000"
               stroke-opacity="1"
               stroke-width="8"
               fill="#000000"
               fill-opacity="1"
               id="path128" />
          </g>
        </g>
      </g>
    </g>
    <g
       id="g136">
      <g
         id="g135">
        <g
           id="g134">
          <g
             transform="translate(346.9,17.453333)"
             id="g133">
            <path
               transform="scale(0.017,-0.017)"
               d="m 258,683 c 0,0 0,11 -13,11 -23,0 -96,-8 -122,-10 -8,-1 -19,-2 -19,-21 0,-11 10,-11 25,-11 48,0 49,-9 49,-17 L 175,615 49,115 c -3,-11 -5,-18 -5,-34 0,-57 44,-92 91,-92 33,0 58,20 75,56 18,38 30,98 30,98 0,10 -9,10 -12,10 -10,0 -11,-4 -14,-18 C 197,70 178,11 138,11 c -30,0 -30,32 -30,46 0,24 1,29 6,48 z"
               stroke="#000000"
               stroke-opacity="1"
               stroke-width="8"
               fill="#000000"
               fill-opacity="1"
               id="path132" />
          </g>
        </g>
      </g>
    </g>
    <g
       id="g140">
      <g
         id="g139">
        <g
           id="g138">
          <g
             transform="translate(406.9,17.453333)"
             id="g137">
            <path
               transform="scale(0.017,-0.017)"
               d="m 258,683 c 0,0 0,11 -13,11 -23,0 -96,-8 -122,-10 -8,-1 -19,-2 -19,-21 0,-11 10,-11 25,-11 48,0 49,-9 49,-17 L 175,615 49,115 c -3,-11 -5,-18 -5,-34 0,-57 44,-92 91,-92 33,0 58,20 75,56 18,38 30,98 30,98 0,10 -9,10 -12,10 -10,0 -11,-4 -14,-18 C 197,70 178,11 138,11 c -30,0 -30,32 -30,46 0,24 1,29 6,48 z"
               stroke="#000000"
               stroke-opacity="1"
               stroke-width="8"
               fill="#000000"
               fill-opacity="1"
               id="path136" />
          </g>
        </g>
      </g>
    </g>
    <g
       id="g144">
      <g
         id="g143">
        <g
           id="g142">
          <g
             transform="translate(466.9,17.453333)"
             id="g141">
            <path
               transform="scale(0.017,-0.017)"
               d="m 258,683 c 0,0 0,11 -13,11 -23,0 -96,-8 -122,-10 -8,-1 -19,-2 -19,-21 0,-11 10,-11 25,-11 48,0 49,-9 49,-17 L 175,615 49,115 c -3,-11 -5,-18 -5,-34 0,-57 44,-92 91,-92 33,0 58,20 75,56 18,38 30,98 30,98 0,10 -9,10 -12,10 -10,0 -11,-4 -14,-18 C 197,70 178,11 138,11 c -30,0 -30,32 -30,46 0,24 1,29 6,48 z"
               stroke="#000000"
               stroke-opacity="1"
               stroke-width="8"
               fill="#000000"
               fill-opacity="1"
               id="path140" />
          </g>
        </g>
      </g>
    </g>
  </svg>
</svg>
