<?xml version="1.0" encoding="UTF-8" standalone="no"?>
<svg
   x="0"
   y="0"
   width="149.67999"
   height="162.84808"
   style="fill:none"
   version="1.1"
   id="svg83"
   xmlns="http://www.w3.org/2000/svg"
   xmlns:svg="http://www.w3.org/2000/svg">
  <defs
     id="defs83" />
  <svg
     class="role-diagram-draw-area"
     style="overflow:visible"
     version="1.1"
     id="svg26"
     width="100%"
     height="100%"
     transform="translate(-241.28,-18.051899)">
    <g
       class="shapes-region"
       style="fill:none;stroke:#000000"
       id="g19">
      <g
         class="arrow-line"
         id="g3">
        <path
           class="connection real"
           stroke-dasharray="none"
           d="m 295.4,34 c 15.68,6.27 29.44,9.47 50.69,33.69"
           style="fill:none;fill-opacity:1;stroke:#000000;stroke-width:1px"
           id="path1" />
        <g
           stroke="#000"
           transform="rotate(-130.67,189.58862,-45.164555)"
           style="stroke:#000000;stroke-width:1px"
           id="g2">
          <path
             d="M 10.93,-3.29 Q 4.96,-0.45 0,0 4.96,0.45 10.93,3.29"
             id="path2" />
        </g>
      </g>
      <g
         class="arrow-line"
         id="g5">
        <path
           class="connection real"
           stroke-dasharray="none"
           d="m 352.6,82.4 c -40.58,5.52 -53.22,11.03 -77.67,32.99"
           style="fill:none;fill-opacity:1;stroke:#000000;stroke-width:1px"
           id="path3" />
        <g
           stroke="#000"
           transform="rotate(-42.14,287.96428,-297.1385)"
           style="stroke:#000000;stroke-width:1px"
           id="g4">
          <path
             d="M 10.93,-3.29 Q 4.96,-0.45 0,0 4.96,0.45 10.93,3.29"
             id="path4" />
        </g>
      </g>
      <g
         class="arrow-line"
         id="g7">
        <path
           class="connection real"
           stroke-dasharray="none"
           d="m 269.4,127.2 c 32.54,-5.1 51.24,-14.42 72.68,-35.49"
           style="fill:none;fill-opacity:1;stroke:#000000;stroke-width:1px"
           id="path5" />
        <g
           stroke="#000"
           transform="rotate(135,152.97755,116.32047)"
           style="stroke:#000000;stroke-width:1px"
           id="g6">
          <path
             d="M 10.93,-3.29 Q 4.96,-0.45 0,0 4.96,0.45 10.93,3.29"
             id="path6" />
        </g>
      </g>
      <g
         class="arrow-line"
         id="g9">
        <path
           class="connection real"
           stroke-dasharray="none"
           d="m 354.6,83.6 c -7.06,28.22 -4.51,36.47 4.63,62.39"
           style="fill:none;fill-opacity:1;stroke:#000000;stroke-width:1px"
           id="path7" />
        <g
           stroke="#000"
           transform="rotate(-109.44,232.11465,-53.482045)"
           style="stroke:#000000;stroke-width:1px"
           id="g8">
          <path
             d="M 10.93,-3.29 Q 4.96,-0.45 0,0 4.96,0.45 10.93,3.29"
             id="path8" />
        </g>
      </g>
      <g
         class="arrow-line"
         id="g11">
        <path
           class="connection real"
           stroke-dasharray="none"
           d="m 370.2,164.8 c 8.23,-27.83 5.71,-43.37 -4.19,-68.83"
           style="fill:none;fill-opacity:1;stroke:#000000;stroke-width:1px"
           id="path9" />
        <g
           stroke="#000"
           transform="rotate(68.5,113.37751,315.53089)"
           style="stroke:#000000;stroke-width:1px"
           id="g10">
          <path
             d="M 10.93,-3.29 Q 4.96,-0.45 0,0 4.96,0.45 10.93,3.29"
             id="path10" />
        </g>
      </g>
      <g
         class="grouped-shape"
         id="g13">
        <g
           class="composite-shape"
           id="g12">
          <path
             class="real"
             d="m 241.78,124.26 c 0,-10.01 8.12,-18.13 18.14,-18.13 10.02,0 18.14,8.12 18.14,18.13 0,10.02 -8.12,18.14 -18.14,18.14 -10.02,0 -18.14,-8.12 -18.14,-18.14 z"
             style="fill:#ffffff;fill-opacity:1;stroke:#000000;stroke-width:1px"
             id="path11" />
        </g>
      </g>
      <g
         class="grouped-shape"
         id="g15">
        <g
           class="composite-shape"
           id="g14">
          <path
             class="real"
             d="m 338.58,80.66 c 0,-10.01 8.12,-18.14 18.14,-18.14 10.02,0 18.14,8.13 18.14,18.14 0,10.02 -8.12,18.14 -18.14,18.14 -10.02,0 -18.14,-8.12 -18.14,-18.14 z"
             style="fill:#ffffff;fill-opacity:1;stroke:#000000;stroke-width:1px"
             id="path13" />
        </g>
      </g>
      <g
         class="grouped-shape"
         id="g17">
        <g
           class="composite-shape"
           id="g16">
          <path
             class="real"
             d="m 354.18,162.26 c 0,-10.01 8.12,-18.13 18.14,-18.13 10.02,0 18.14,8.12 18.14,18.13 0,10.02 -8.12,18.14 -18.14,18.14 -10.02,0 -18.14,-8.12 -18.14,-18.14 z"
             style="fill:#ffffff;fill-opacity:1;stroke:#000000;stroke-width:1px"
             id="path15" />
        </g>
      </g>
      <g
         id="g18" />
    </g>
    <g
       id="g20" />
    <g
       id="g25">
      <g
         id="g21">
        <circle
           cx="291.125"
           cy="33.791649"
           r="15.239751"
           style="fill:#ffffff;fill-opacity:1;stroke:#000000;stroke-width:1px"
           id="circle20" />
      </g>
      <g
         id="g22">
        <circle
           cx="259.92499"
           cy="124.19165"
           r="15.239751"
           style="fill:#ffffff;fill-opacity:1;stroke:#000000;stroke-width:1px"
           id="circle21" />
      </g>
      <g
         id="g23">
        <circle
           cx="356.72501"
           cy="80.591652"
           r="15.239751"
           style="fill:#ffffff;fill-opacity:1;stroke:#000000;stroke-width:1px"
           id="circle22" />
      </g>
      <g
         id="g24">
        <circle
           cx="372.32501"
           cy="162.19165"
           r="15.239751"
           style="fill:#ffffff;fill-opacity:1;stroke:#000000;stroke-width:1px"
           id="circle23" />
      </g>
    </g>
    <g
       id="g26" />
  </svg>
  <svg
     width="700"
     height="194"
     style="font-family:LatinModern-Math, LatinModern, Asana-Math, Asana"
     version="1.1"
     id="svg82"
     transform="translate(-241.28,-18.051899)">
    <g
       id="g35">
      <g
         id="g34">
        <g
           id="g28">
          <g
             transform="translate(283.40668,39.539996)"
             id="g27">
            <path
               transform="scale(0.017,-0.017)"
               d="m 420,356 c 0,45 -43,86 -119,86 -132,0 -169,-102 -169,-146 0,-78 74,-93 103,-99 52,-10 104,-21 104,-76 0,-26 -23,-110 -143,-110 -14,0 -91,0 -114,53 38,-5 63,25 63,53 0,23 -16,35 -37,35 -26,0 -56,-21 -56,-66 0,-57 57,-97 143,-97 162,0 201,121 201,166 0,36 -19,61 -31,73 -27,28 -56,33 -100,42 -36,8 -76,15 -76,60 0,29 24,90 112,90 25,0 75,-7 90,-46 -28,-1 -48,-23 -48,-45 0,-14 9,-29 31,-29 22,0 46,17 46,56 z"
               stroke="#000000"
               stroke-opacity="1"
               stroke-width="8"
               fill="#000000"
               fill-opacity="1"
               id="path26" />
          </g>
        </g>
        <g
           id="g33">
          <g
             id="g32">
            <g
               id="g31">
              <g
                 id="g30">
                <g
                   transform="translate(291.89335,42.593335)"
                   id="g29">
                  <path
                     transform="scale(0.0119,-0.0119)"
                     d="m 419,0 v 31 h -32 c -90,0 -93,11 -93,48 v 561 c 0,24 0,26 -23,26 C 209,602 121,602 89,602 v -31 c 20,0 79,0 131,26 V 79 C 220,43 217,31 127,31 H 95 V 0 c 35,3 122,3 162,3 40,0 127,0 162,-3 z"
                     stroke="#000000"
                     stroke-opacity="1"
                     stroke-width="8"
                     fill="#000000"
                     fill-opacity="1"
                     id="path28" />
                </g>
              </g>
            </g>
          </g>
        </g>
      </g>
    </g>
    <g
       id="g44">
      <g
         id="g43">
        <g
           id="g37">
          <g
             transform="translate(252.19335,129.94)"
             id="g36">
            <path
               transform="scale(0.017,-0.017)"
               d="m 420,356 c 0,45 -43,86 -119,86 -132,0 -169,-102 -169,-146 0,-78 74,-93 103,-99 52,-10 104,-21 104,-76 0,-26 -23,-110 -143,-110 -14,0 -91,0 -114,53 38,-5 63,25 63,53 0,23 -16,35 -37,35 -26,0 -56,-21 -56,-66 0,-57 57,-97 143,-97 162,0 201,121 201,166 0,36 -19,61 -31,73 -27,28 -56,33 -100,42 -36,8 -76,15 -76,60 0,29 24,90 112,90 25,0 75,-7 90,-46 -28,-1 -48,-23 -48,-45 0,-14 9,-29 31,-29 22,0 46,17 46,56 z"
               stroke="#000000"
               stroke-opacity="1"
               stroke-width="8"
               fill="#000000"
               fill-opacity="1"
               id="path35" />
          </g>
        </g>
        <g
           id="g42">
          <g
             id="g41">
            <g
               id="g40">
              <g
                 id="g39">
                <g
                   transform="translate(260.67333,132.99333)"
                   id="g38">
                  <path
                     transform="scale(0.0119,-0.0119)"
                     d="m 471,165 v 31 H 371 v 455 c 0,20 0,26 -16,26 -9,0 -12,0 -20,-12 L 28,196 V 165 H 294 V 78 C 294,42 292,31 218,31 H 197 V 0 c 41,3 93,3 135,3 42,0 95,0 136,-3 v 31 h -21 c -74,0 -76,11 -76,47 v 87 z M 300,196 H 56 l 244,373 z"
                     stroke="#000000"
                     stroke-opacity="1"
                     stroke-width="8"
                     fill="#000000"
                     fill-opacity="1"
                     id="path37" />
                </g>
              </g>
            </g>
          </g>
        </g>
      </g>
    </g>
    <g
       id="g53">
      <g
         id="g52">
        <g
           id="g46">
          <g
             transform="translate(349.00668,86.339996)"
             id="g45">
            <path
               transform="scale(0.017,-0.017)"
               d="m 420,356 c 0,45 -43,86 -119,86 -132,0 -169,-102 -169,-146 0,-78 74,-93 103,-99 52,-10 104,-21 104,-76 0,-26 -23,-110 -143,-110 -14,0 -91,0 -114,53 38,-5 63,25 63,53 0,23 -16,35 -37,35 -26,0 -56,-21 -56,-66 0,-57 57,-97 143,-97 162,0 201,121 201,166 0,36 -19,61 -31,73 -27,28 -56,33 -100,42 -36,8 -76,15 -76,60 0,29 24,90 112,90 25,0 75,-7 90,-46 -28,-1 -48,-23 -48,-45 0,-14 9,-29 31,-29 22,0 46,17 46,56 z"
               stroke="#000000"
               stroke-opacity="1"
               stroke-width="8"
               fill="#000000"
               fill-opacity="1"
               id="path44" />
          </g>
        </g>
        <g
           id="g51">
          <g
             id="g50">
            <g
               id="g49">
              <g
                 id="g48">
                <g
                   transform="translate(357.49335,89.393329)"
                   id="g47">
                  <path
                     transform="scale(0.0119,-0.0119)"
                     d="m 449,174 h -25 c -5,-30 -12,-74 -22,-89 -7,-8 -73,-8 -95,-8 H 127 L 233,180 C 389,318 449,372 449,472 449,586 359,666 237,666 124,666 50,574 50,485 c 0,-56 50,-56 53,-56 17,0 52,12 52,53 0,26 -18,52 -53,52 -8,0 -10,0 -13,-1 23,65 77,102 135,102 91,0 134,-81 134,-163 0,-80 -50,-159 -105,-221 L 61,37 C 50,26 50,24 50,0 h 371 z"
                     stroke="#000000"
                     stroke-opacity="1"
                     stroke-width="8"
                     fill="#000000"
                     fill-opacity="1"
                     id="path46" />
                </g>
              </g>
            </g>
          </g>
        </g>
      </g>
    </g>
    <g
       id="g62">
      <g
         id="g61">
        <g
           id="g55">
          <g
             transform="translate(364.60668,167.94001)"
             id="g54">
            <path
               transform="scale(0.017,-0.017)"
               d="m 420,356 c 0,45 -43,86 -119,86 -132,0 -169,-102 -169,-146 0,-78 74,-93 103,-99 52,-10 104,-21 104,-76 0,-26 -23,-110 -143,-110 -14,0 -91,0 -114,53 38,-5 63,25 63,53 0,23 -16,35 -37,35 -26,0 -56,-21 -56,-66 0,-57 57,-97 143,-97 162,0 201,121 201,166 0,36 -19,61 -31,73 -27,28 -56,33 -100,42 -36,8 -76,15 -76,60 0,29 24,90 112,90 25,0 75,-7 90,-46 -28,-1 -48,-23 -48,-45 0,-14 9,-29 31,-29 22,0 46,17 46,56 z"
               stroke="#000000"
               stroke-opacity="1"
               stroke-width="8"
               fill="#000000"
               fill-opacity="1"
               id="path53" />
          </g>
        </g>
        <g
           id="g60">
          <g
             id="g59">
            <g
               id="g58">
              <g
                 id="g57">
                <g
                   transform="translate(373.09335,170.99333)"
                   id="g56">
                  <path
                     transform="scale(0.0119,-0.0119)"
                     d="m 457,171 c 0,82 -63,160 -167,181 82,27 140,97 140,176 0,82 -88,138 -184,138 -101,0 -177,-60 -177,-136 0,-33 22,-52 51,-52 31,0 51,22 51,51 0,50 -47,50 -62,50 31,49 97,62 133,62 41,0 96,-22 96,-112 0,-12 -2,-70 -28,-114 -30,-48 -64,-51 -89,-52 -8,-1 -32,-3 -39,-3 -8,-1 -15,-2 -15,-12 0,-11 7,-11 24,-11 h 44 C 317,337 354,269 354,171 354,35 285,6 241,6 198,6 123,23 88,82 c 35,-5 66,17 66,55 0,36 -27,56 -56,56 -24,0 -56,-14 -56,-58 0,-91 93,-157 202,-157 122,0 213,91 213,193 z"
                     stroke="#000000"
                     stroke-opacity="1"
                     stroke-width="8"
                     fill="#000000"
                     fill-opacity="1"
                     id="path55" />
                </g>
              </g>
            </g>
          </g>
        </g>
      </g>
    </g>
    <g
       id="g66">
      <g
         id="g65">
        <g
           id="g64">
          <g
             transform="translate(331.99999,42.653333)"
             id="g63">
            <path
               transform="scale(0.017,-0.017)"
               d="m 939,250 c 0,6 -4,11 -9,13 -72,19 -134,60 -188,107 -44,39 -81,86 -108,139 -3,7 -10,11 -18,11 -11,0 -20,-9 -20,-20 0,-3 1,-6 2,-9 24,-46 54,-88 89,-124 H 80 c -11,0 -20,-9 -20,-20 0,-11 9,-20 20,-20 h 651 c 40,-32 84,-58 132,-77 -48,-19 -92,-45 -132,-77 H 80 c -11,0 -20,-9 -20,-20 0,-11 9,-20 20,-20 H 687 C 652,97 622,55 598,9 c -1,-3 -2,-6 -2,-9 0,-11 9,-20 20,-20 8,0 15,4 18,11 27,53 64,100 108,139 54,47 116,88 188,107 5,2 9,7 9,13 z"
               stroke="#000000"
               stroke-opacity="1"
               stroke-width="8"
               fill="#000000"
               fill-opacity="1"
               id="path62" />
          </g>
        </g>
      </g>
    </g>
    <g
       id="g70">
      <g
         id="g69">
        <g
           id="g68">
          <g
             transform="translate(375.99999,132.25334)"
             id="g67">
            <path
               transform="scale(0.017,-0.017)"
               d="m 576,147 c 0,11 -9,20 -20,20 -3,0 -6,-1 -9,-2 -46,-24 -88,-54 -124,-89 v 607 c 0,11 -9,20 -20,20 -11,0 -20,-9 -20,-20 V 32 C 351,-8 325,-52 306,-100 287,-52 261,-8 229,32 v 651 c 0,11 -9,20 -20,20 -11,0 -20,-9 -20,-20 V 76 c -36,35 -78,65 -124,89 -3,1 -6,2 -9,2 -11,0 -20,-9 -20,-20 0,-8 4,-15 11,-18 53,-27 100,-64 139,-108 47,-54 88,-116 107,-188 2,-5 7,-9 13,-9 6,0 11,4 13,9 19,72 60,134 107,188 39,44 86,81 139,108 7,3 11,10 11,18 z"
               stroke="#000000"
               stroke-opacity="1"
               stroke-width="8"
               fill="#000000"
               fill-opacity="1"
               id="path66" />
          </g>
        </g>
      </g>
    </g>
    <g
       id="g74">
      <g
         id="g73">
        <g
           id="g72">
          <g
             transform="translate(337.99999,128.25334)"
             id="g71">
            <path
               transform="scale(0.017,-0.017)"
               d="m 576,353 c 0,8 -4,15 -11,18 -53,27 -100,64 -139,108 -47,54 -88,116 -107,188 -2,5 -7,9 -13,9 -6,0 -11,-4 -13,-9 C 274,595 233,533 186,479 147,435 100,398 47,371 40,368 36,361 36,353 c 0,-11 9,-20 20,-20 3,0 6,1 9,2 46,24 88,54 124,89 v -607 c 0,-11 9,-20 20,-20 11,0 20,9 20,20 v 651 c 32,40 58,84 77,132 19,-48 45,-92 77,-132 v -651 c 0,-11 9,-20 20,-20 11,0 20,9 20,20 v 607 c 36,-35 78,-65 124,-89 3,-1 6,-2 9,-2 11,0 20,9 20,20 z"
               stroke="#000000"
               stroke-opacity="1"
               stroke-width="8"
               fill="#000000"
               fill-opacity="1"
               id="path70" />
          </g>
        </g>
      </g>
    </g>
    <g
       id="g78">
      <g
         id="g77">
        <g
           id="g76">
          <g
             transform="translate(292.39999,85.053339)"
             id="g75">
            <path
               transform="scale(0.017,-0.017)"
               d="m 939,250 c 0,6 -4,11 -9,13 -72,19 -134,60 -188,107 -44,39 -81,86 -108,139 -3,7 -10,11 -18,11 -11,0 -20,-9 -20,-20 0,-3 1,-6 2,-9 24,-46 54,-88 89,-124 H 80 c -11,0 -20,-9 -20,-20 0,-11 9,-20 20,-20 h 651 c 40,-32 84,-58 132,-77 -48,-19 -92,-45 -132,-77 H 80 c -11,0 -20,-9 -20,-20 0,-11 9,-20 20,-20 H 687 C 652,97 622,55 598,9 c -1,-3 -2,-6 -2,-9 0,-11 9,-20 20,-20 8,0 15,4 18,11 27,53 64,100 108,139 54,47 116,88 188,107 5,2 9,7 9,13 z"
               stroke="#000000"
               stroke-opacity="1"
               stroke-width="8"
               fill="#000000"
               fill-opacity="1"
               id="path74" />
          </g>
        </g>
      </g>
    </g>
    <g
       id="g82">
      <g
         id="g81">
        <g
           id="g80">
          <g
             transform="translate(300.39999,129.45334)"
             id="g79">
            <path
               transform="scale(0.017,-0.017)"
               d="m 940,153 c 0,11 -9,20 -20,20 H 269 c -40,32 -84,58 -132,77 48,19 92,45 132,77 h 651 c 11,0 20,9 20,20 0,11 -9,20 -20,20 H 313 c 35,36 65,78 89,124 1,3 2,6 2,9 0,11 -9,20 -20,20 -8,0 -15,-4 -18,-11 C 339,456 302,409 258,370 204,323 142,282 70,263 c -5,-2 -9,-7 -9,-13 0,-6 4,-11 9,-13 72,-19 134,-60 188,-107 44,-39 81,-86 108,-139 3,-7 10,-11 18,-11 11,0 20,9 20,20 0,3 -1,6 -2,9 -24,46 -54,88 -89,124 h 607 c 11,0 20,9 20,20 z"
               stroke="#000000"
               stroke-opacity="1"
               stroke-width="8"
               fill="#000000"
               fill-opacity="1"
               id="path78" />
          </g>
        </g>
      </g>
    </g>
  </svg>
</svg>
