<?xml version="1.0" encoding="UTF-8" standalone="no"?>
<svg
   x="0"
   y="0"
   width="280.30801"
   height="46.545227"
   style="fill:none"
   version="1.1"
   id="svg145"
   xmlns="http://www.w3.org/2000/svg"
   xmlns:svg="http://www.w3.org/2000/svg">
  <defs
     id="defs145" />
  <path
     class="connection real"
     stroke-dasharray="none"
     d="m 77.086159,30.525334 c -16.98,-19.3 -29.87,-15.51 -45.85,-7.31"
     style="fill:none;fill-opacity:1;stroke:#000000;stroke-width:1px"
     id="path19" />
  <path
     d="m 37.641153,16.138778 q -3.970263,5.286163 -8.154995,7.986555 4.602394,-1.903173 11.20857,-2.157998"
     id="path20"
     style="fill:none;stroke:#000000;stroke-width:1px" />
  <path
     class="connection real"
     stroke-dasharray="none"
     d="m 137.08616,31.025334 c -16.98,-19.3 -29.87,-15.51 -45.850001,-7.31"
     style="fill:none;fill-opacity:1;stroke:#000000;stroke-width:1px"
     id="path21" />
  <path
     d="m 97.641155,16.638781 q -3.970263,5.286162 -8.154994,7.986555 4.602394,-1.903174 11.208569,-2.157998"
     id="path22"
     style="fill:none;stroke:#000000;stroke-width:1px" />
  <path
     class="connection real"
     stroke-dasharray="none"
     d="m 197.08616,31.025334 c -16.98,-19.3 -29.87,-15.51 -45.85,-7.31"
     style="fill:none;fill-opacity:1;stroke:#000000;stroke-width:1px"
     id="path23" />
  <path
     d="m 157.64116,16.638782 q -3.97027,5.286162 -8.155,7.986555 4.6024,-1.903174 11.20857,-2.157998"
     id="path24"
     style="fill:none;stroke:#000000;stroke-width:1px" />
  <path
     class="connection real"
     stroke-dasharray="none"
     d="m 257.08616,31.025334 c -16.98,-19.3 -29.87,-15.51 -45.85,-7.31"
     style="fill:none;fill-opacity:1;stroke:#000000;stroke-width:1px"
     id="path25" />
  <path
     d="m 217.64116,16.638782 q -3.97027,5.286162 -8.155,7.986555 4.6024,-1.903174 11.20857,-2.157998"
     id="path26"
     style="fill:none;stroke:#000000;stroke-width:1px" />
  <circle
     cx="16.887634"
     cy="29.657593"
     r="16.257664"
     style="fill:#ffffff;fill-opacity:1;stroke:#000000;stroke-width:1.25994px"
     id="circle34-9" />
  <circle
     cx="16.886154"
     cy="29.616982"
     r="12.903488"
     style="fill:#ffffff;fill-opacity:1;stroke:#000000;stroke-width:1px"
     id="circle34" />
  <circle
     cx="76.886154"
     cy="29.616982"
     r="12.903488"
     style="fill:#ffffff;fill-opacity:1;stroke:#000000;stroke-width:1px"
     id="circle35" />
  <circle
     cx="136.88615"
     cy="29.616982"
     r="12.903488"
     style="fill:#ffffff;fill-opacity:1;stroke:#000000;stroke-width:1px"
     id="circle36" />
  <circle
     cx="196.88615"
     cy="29.616982"
     r="12.903488"
     style="fill:#ffffff;fill-opacity:1;stroke:#000000;stroke-width:1px"
     id="circle37" />
  <path
     d="m 20.993339,30.005998 c 0,-1.36 -0.085,-2.72 -0.68,-3.978 -0.782,-1.632 -2.176,-1.904 -2.89,-1.904 -1.02,0 -2.261,0.442 -2.958,2.023 -0.544,1.173 -0.629,2.499 -0.629,3.859 0,1.275 0.068,2.805 0.765,4.097 0.731,1.377 1.972,1.717 2.805,1.717 0.918,0 2.21,-0.357 2.958,-1.972 0.544,-1.173 0.629,-2.499 0.629,-3.842 z m -1.411,-0.204 c 0,1.275 0,2.431 -0.187,3.519 -0.255,1.615 -1.224,2.125 -1.989,2.125 -0.663,0 -1.666,-0.425 -1.972,-2.057 -0.187,-1.02 -0.187,-2.584 -0.187,-3.587 0,-1.088 0,-2.21 0.136,-3.128 0.323,-2.023 1.598,-2.176 2.023,-2.176 0.561,0 1.683,0.306 2.006,1.989 0.17,0.952 0.17,2.244 0.17,3.315 z"
     stroke="#000000"
     stroke-opacity="1"
     stroke-width="0.136"
     fill="#000000"
     fill-opacity="1"
     id="path108"
     style="font-family:LatinModern-Math, LatinModern, Asana-Math, Asana" />
  <path
     d="m 80.296339,35.445998 v -0.527 h -0.544 c -1.53,0 -1.581,-0.187 -1.581,-0.816 v -9.537 c 0,-0.408 0,-0.442 -0.391,-0.442 -1.054,1.088 -2.55,1.088 -3.094,1.088 v 0.527 c 0.34,0 1.343,0 2.227,-0.442 v 8.806 c 0,0.612 -0.051,0.816 -1.581,0.816 h -0.544 v 0.527 c 0.595,-0.051 2.074,-0.051 2.754,-0.051 0.68,0 2.159,0 2.754,0.051 z"
     stroke="#000000"
     stroke-opacity="1"
     stroke-width="0.136"
     fill="#000000"
     fill-opacity="1"
     id="path112"
     style="font-family:LatinModern-Math, LatinModern, Asana-Math, Asana" />
  <path
     d="m 140.80634,32.487998 h -0.425 c -0.085,0.51 -0.204,1.258 -0.374,1.513 -0.119,0.136 -1.241,0.136 -1.615,0.136 h -3.06 l 1.802,-1.751 c 2.652,-2.346 3.672,-3.264 3.672,-4.964 0,-1.938 -1.53,-3.298 -3.604,-3.298 -1.921,0 -3.179,1.564 -3.179,3.077 0,0.952 0.85,0.952 0.901,0.952 0.289,0 0.884,-0.204 0.884,-0.901 0,-0.442 -0.306,-0.884 -0.901,-0.884 -0.136,0 -0.17,0 -0.221,0.017 0.391,-1.105 1.309,-1.734 2.295,-1.734 1.547,0 2.278,1.377 2.278,2.771 0,1.36 -0.85,2.703 -1.785,3.757 l -3.264,3.638 c -0.187,0.187 -0.187,0.221 -0.187,0.629 h 6.307 z"
     stroke="#000000"
     stroke-opacity="1"
     stroke-width="0.136"
     fill="#000000"
     fill-opacity="1"
     id="path116"
     style="font-family:LatinModern-Math, LatinModern, Asana-Math, Asana" />
  <path
     d="m 200.94234,32.538998 c 0,-1.394 -1.071,-2.72 -2.839,-3.077 1.394,-0.459 2.38,-1.649 2.38,-2.992 0,-1.394 -1.496,-2.346 -3.128,-2.346 -1.717,0 -3.009,1.02 -3.009,2.312 0,0.561 0.374,0.884 0.867,0.884 0.527,0 0.867,-0.374 0.867,-0.867 0,-0.85 -0.799,-0.85 -1.054,-0.85 0.527,-0.833 1.649,-1.054 2.261,-1.054 0.697,0 1.632,0.374 1.632,1.904 0,0.204 -0.034,1.19 -0.476,1.938 -0.51,0.816 -1.088,0.867 -1.513,0.884 -0.136,0.017 -0.544,0.051 -0.663,0.051 -0.136,0.017 -0.255,0.034 -0.255,0.204 0,0.187 0.119,0.187 0.408,0.187 h 0.748 c 1.394,0 2.023,1.156 2.023,2.822 0,2.312 -1.173,2.805 -1.921,2.805 -0.731,0 -2.006,-0.289 -2.601,-1.292 0.595,0.085 1.122,-0.289 1.122,-0.935 0,-0.612 -0.459,-0.952 -0.952,-0.952 -0.408,0 -0.952,0.238 -0.952,0.986 0,1.547 1.581,2.669 3.434,2.669 2.074,0 3.621,-1.547 3.621,-3.281 z"
     stroke="#000000"
     stroke-opacity="1"
     stroke-width="0.136"
     fill="#000000"
     fill-opacity="1"
     id="path120"
     style="font-family:LatinModern-Math, LatinModern, Asana-Math, Asana" />
  <path
     d="m 270.754,30.516 c 0,-0.493 -0.408,-0.901 -0.901,-0.901 -0.493,0 -0.901,0.408 -0.901,0.901 0,0.493 0.408,0.901 0.901,0.901 0.493,0 0.901,-0.408 0.901,-0.901 z m 4.743,0 c 0,-0.493 -0.408,-0.901 -0.901,-0.901 -0.493,0 -0.901,0.408 -0.901,0.901 0,0.493 0.408,0.901 0.901,0.901 0.493,0 0.901,-0.408 0.901,-0.901 z m 4.743,0 c 0,-0.493 -0.408,-0.901 -0.901,-0.901 -0.493,0 -0.901,0.408 -0.901,0.901 0,0.493 0.408,0.901 0.901,0.901 0.493,0 0.901,-0.408 0.901,-0.901 z"
     stroke="#000000"
     stroke-opacity="1"
     stroke-width="0.136"
     fill="#000000"
     fill-opacity="1"
     id="path124"
     style="font-family:LatinModern-Math, LatinModern, Asana-Math, Asana" />
  <path
     d="m 55.285999,0.25499998 c 0,0 0,-0.187 -0.221,-0.187 -0.391,0 -1.632,0.136 -2.074,0.17 -0.136,0.017 -0.323,0.034 -0.323,0.357 0,0.187 0.17,0.187 0.425,0.187 0.816,0 0.833,0.153 0.833,0.28900002 l -0.051,0.34 -2.142,8.5 c -0.051,0.187 -0.085,0.306 -0.085,0.578 0,0.969 0.748,1.564 1.547,1.564 0.561,0 0.986,-0.34 1.275,-0.952 0.306,-0.646 0.51,-1.666 0.51,-1.666 0,-0.17 -0.153,-0.17 -0.204,-0.17 -0.17,0 -0.187,0.068 -0.238,0.306 -0.289,1.105 -0.612,2.108 -1.292,2.108 -0.51,0 -0.51,-0.544 -0.51,-0.782 0,-0.408 0.017,-0.493 0.102,-0.816 z"
     stroke="#000000"
     stroke-opacity="1"
     stroke-width="0.136"
     fill="#000000"
     fill-opacity="1"
     id="path128"
     style="font-family:LatinModern-Math, LatinModern, Asana-Math, Asana" />
  <path
     d="m 115.286,0.75499998 c 0,0 0,-0.187 -0.221,-0.187 -0.391,0 -1.632,0.136 -2.074,0.17 -0.136,0.017 -0.323,0.034 -0.323,0.35700002 0,0.187 0.17,0.187 0.425,0.187 0.816,0 0.833,0.153 0.833,0.289 l -0.051,0.34 -2.142,8.5 c -0.051,0.187 -0.085,0.306 -0.085,0.578 0,0.969 0.748,1.564 1.547,1.564 0.561,0 0.986,-0.34 1.275,-0.952 0.306,-0.646 0.51,-1.666 0.51,-1.666 0,-0.17 -0.153,-0.17 -0.204,-0.17 -0.17,0 -0.187,0.068 -0.238,0.306 -0.289,1.105 -0.612,2.108 -1.292,2.108 -0.51,0 -0.51,-0.544 -0.51,-0.782 0,-0.408 0.017,-0.493 0.102,-0.816 z"
     stroke="#000000"
     stroke-opacity="1"
     stroke-width="0.136"
     fill="#000000"
     fill-opacity="1"
     id="path132"
     style="font-family:LatinModern-Math, LatinModern, Asana-Math, Asana" />
  <path
     d="m 175.286,0.75499998 c 0,0 0,-0.187 -0.221,-0.187 -0.391,0 -1.632,0.136 -2.074,0.17 -0.136,0.017 -0.323,0.034 -0.323,0.35700002 0,0.187 0.17,0.187 0.425,0.187 0.816,0 0.833,0.153 0.833,0.289 l -0.051,0.34 -2.142,8.5 c -0.051,0.187 -0.085,0.306 -0.085,0.578 0,0.969 0.748,1.564 1.547,1.564 0.561,0 0.986,-0.34 1.275,-0.952 0.306,-0.646 0.51,-1.666 0.51,-1.666 0,-0.17 -0.153,-0.17 -0.204,-0.17 -0.17,0 -0.187,0.068 -0.238,0.306 -0.289,1.105 -0.612,2.108 -1.292,2.108 -0.51,0 -0.51,-0.544 -0.51,-0.782 0,-0.408 0.017,-0.493 0.102,-0.816 z"
     stroke="#000000"
     stroke-opacity="1"
     stroke-width="0.136"
     fill="#000000"
     fill-opacity="1"
     id="path136"
     style="font-family:LatinModern-Math, LatinModern, Asana-Math, Asana" />
  <path
     d="m 235.286,0.75499998 c 0,0 0,-0.187 -0.221,-0.187 -0.391,0 -1.632,0.136 -2.074,0.17 -0.136,0.017 -0.323,0.034 -0.323,0.35700002 0,0.187 0.17,0.187 0.425,0.187 0.816,0 0.833,0.153 0.833,0.289 l -0.051,0.34 -2.142,8.5 c -0.051,0.187 -0.085,0.306 -0.085,0.578 0,0.969 0.748,1.564 1.547,1.564 0.561,0 0.986,-0.34 1.275,-0.952 0.306,-0.646 0.51,-1.666 0.51,-1.666 0,-0.17 -0.153,-0.17 -0.204,-0.17 -0.17,0 -0.187,0.068 -0.238,0.306 -0.289,1.105 -0.612,2.108 -1.292,2.108 -0.51,0 -0.51,-0.544 -0.51,-0.782 0,-0.408 0.017,-0.493 0.102,-0.816 z"
     stroke="#000000"
     stroke-opacity="1"
     stroke-width="0.136"
     fill="#000000"
     fill-opacity="1"
     id="path140"
     style="font-family:LatinModern-Math, LatinModern, Asana-Math, Asana" />
</svg>
