<svg xmlns="http://www.w3.org/2000/svg" xmlns:xlink="http://www.w3.org/1999/xlink" x="0" y="0" width="687.8333740234375" height="213" style="
        width:687.8333740234375px;
        height:213px;
        background: transparent;
        fill: none;
">
        <svg xmlns="http://www.w3.org/2000/svg"/>
        
        <svg xmlns="http://www.w3.org/2000/svg" class="role-diagram-draw-area" style="overflow: visible;"><g class="shapes-region" style="stroke: black; fill: none;"><g class="arrow-line"><path class="connection real" stroke-dasharray="" d="  M127.42,170.84 Q129.58,167.42 132.62,168.99 Q135.65,170.56 136.94,167.43 Q138.89,164.06 141.82,165.64 Q145.42,166.96 146.53,163.86 Q148.23,160.52 151.06,162.09 Q154.52,163.39 156.04,160.06 Q156.87,157 160.22,158.27 Q163.57,159.51 164.8,156.19 Q165.92,152.89 169.18,154.07 Q172.98,154.92 173.85,151.6 Q174.6,148.31 178.28,149.04 Q181.51,149.98 182.46,146.36 Q182.79,143.09 186.4,143.54 Q190.06,143.85 190.5,140.22 Q190.37,136.99 193.94,137.04 Q197.58,136.9 197.51,133.26 Q197.25,129.69 200.49,129.62 Q204.1,128.94 203.55,125.29 Q202.57,122.16 206.09,121.11 Q209.37,120.32 208.43,116.63 Q207.13,113.51 210.34,112.39 Q213.8,110.5 212.32,107.3 L213.13,104.93 L215.37,97.39" style="stroke: rgb(128, 128, 128); stroke-opacity: 1; stroke-width: 2px; fill: none; fill-opacity: 1;"/><g stroke="none" fill="rgb(128,128,128)" fill-opacity="1" transform="matrix(-0.2315781185457098,0.972816311032473,-0.972816311032473,-0.2315781185457098,216.23332519531252,93.95333251953124)" style="stroke: none; fill: rgb(128, 128, 128); stroke-width: 2px;"><path d=" M13.4,-6.43 L0,0 L13.4,6.44 L8.9,0 Z"/></g></g><g class="arrow-line"><path class="connection real" stroke-dasharray="" d="  M127.42,170.84 C104.15,141.66 88.76,119.53 88.97,80.07" style="stroke: rgb(0, 0, 0); stroke-width: 2px; fill: none; fill-opacity: 1;"/><g stroke="none" fill="#000" transform="matrix(-0.02914287172354423,0.9995752563102516,-0.9995752563102516,-0.02914287172354423,89.03332519531251,76.35333251953125)" style="stroke: none; fill: rgb(0, 0, 0); stroke-width: 2px;"><path d=" M13.4,-6.43 L0,0 L13.4,6.44 L8.9,0 Z"/></g></g><g class="arrow-line"><path class="connection real" stroke-dasharray="" d="  M94.67,58.33 C12.78,93.74 64.43,162.08 105.93,170.26" style="stroke: rgb(0, 0, 0); stroke-width: 2px; fill: none; fill-opacity: 1;"/><g stroke="none" fill="#000" transform="matrix(-0.9943007903969989,-0.1066111542752598,0.1066111542752598,-0.9943007903969989,109.75,170.83984375000003)" style="stroke: none; fill: rgb(0, 0, 0); stroke-width: 2px;"><path d=" M13.4,-6.43 L0,0 L13.4,6.44 L8.9,0 Z"/></g></g><g class="arrow-line"><path class="connection real" stroke-dasharray="" d="  M213.5,75.17 C300.31,40.38 287.08,95.41 233.43,86.33" style="stroke: rgb(0, 0, 0); stroke-width: 2px; fill: none; fill-opacity: 1;"/><g stroke="none" fill="#000" transform="matrix(0.9781112984003684,0.2080824066122494,-0.2080824066122494,0.9781112984003684,230.10000000000002,85.6933349609375)" style="stroke: none; fill: rgb(0, 0, 0); stroke-width: 2px;"><path d=" M13.4,-6.43 L0,0 L13.4,6.44 L8.9,0 Z"/></g></g><g class="arrow-line"><path class="connection real" stroke-dasharray="" d="  M94.67,58.33 C143.91,26.06 171.71,33.5 198.76,56.71" style="stroke: rgb(0, 0, 0); stroke-width: 2px; fill: none; fill-opacity: 1;"/><g stroke="none" fill="#000" transform="matrix(-0.7432615994801269,-0.669000892927837,0.669000892927837,-0.7432615994801269,201.70000000000002,59.2933349609375)" style="stroke: none; fill: rgb(0, 0, 0); stroke-width: 2px;"><path d=" M13.4,-6.43 L0,0 L13.4,6.44 L8.9,0 Z"/></g></g><g class="arrow-line"><path class="connection real" stroke-dasharray="" d="  M213.5,75.17 Q212.94,78.82 209.29,78.49 Q205.73,78.02 205.1,81.53 Q204.39,85.03 200.93,84.29 Q197.57,83.42 196.77,86.77 Q195.87,90.12 192.63,88.98 Q189,87.95 187.98,91.13 Q186.29,94.51 183.33,92.93 Q180.02,91.4 178.7,94.39 Q176.69,97.48 173.54,95.6 Q170.59,93.57 168.9,96.32 Q166.52,99.07 163.74,96.72 Q161.16,94.26 158.56,96.7 Q155.75,99.02 153.89,96.32 Q151.67,93.49 148.67,95.5 Q146.02,97.49 143.95,94.4 Q142.05,91.26 139.21,92.97 Q135.68,94.37 134.43,91.2 Q133.29,88.01 129.62,89.09 Q126.35,90.28 125.32,86.94 Q124.37,83.58 120.98,84.52 Q117.49,85.35 116.61,81.84 L114.41,80.41 L108.3,76.12" style="stroke: rgb(128, 128, 128); stroke-opacity: 1; stroke-width: 2px; fill: none; fill-opacity: 1;"/><g stroke="none" fill="rgb(128,128,128)" fill-opacity="1" transform="matrix(0.7919700635036834,0.610559922132113,-0.610559922132113,0.7919700635036834,105.4333251953125,73.95333251953124)" style="stroke: none; fill: rgb(128, 128, 128); stroke-width: 2px;"><path d=" M13.4,-6.43 L0,0 L13.4,6.44 L8.9,0 Z"/></g></g><g class="composite-shape"><path class="real" d=" M77,58.33 C77,48.58 84.91,40.67 94.67,40.67 C104.42,40.67 112.33,48.58 112.33,58.33 C112.33,68.09 104.42,76 94.67,76 C84.91,76 77,68.09 77,58.33 Z" style="stroke-width: 2px; stroke: rgb(0, 0, 0); fill: rgb(255, 255, 255); fill-opacity: 1;"/></g><g class="composite-shape"><path class="real" d=" M195.83,75.17 C195.83,65.41 203.74,57.5 213.5,57.5 C223.26,57.5 231.17,65.41 231.17,75.17 C231.17,84.92 223.26,92.83 213.5,92.83 C203.74,92.83 195.83,84.92 195.83,75.17 Z" style="stroke-width: 2px; stroke: rgb(0, 0, 0); fill: rgb(255, 255, 255); fill-opacity: 1;"/></g><g class="composite-shape"><path class="real" d=" M198.98,75.17 C198.98,67.15 205.48,60.65 213.5,60.65 C221.52,60.65 228.02,67.15 228.02,75.17 C228.02,83.19 221.52,89.69 213.5,89.69 C205.48,89.69 198.98,83.19 198.98,75.17 Z" style="stroke-width: 2px; stroke: rgb(0, 0, 0); fill: rgb(255, 255, 255); fill-opacity: 1;"/></g><g class="composite-shape"><path class="real" d=" M109.75,170.84 C109.75,161.08 117.66,153.17 127.42,153.17 C137.17,153.17 145.08,161.08 145.08,170.84 C145.08,180.6 137.17,188.51 127.42,188.51 C117.66,188.51 109.75,180.6 109.75,170.84 Z" style="stroke-width: 2px; stroke: rgb(0, 0, 0); fill: rgb(255, 255, 255); fill-opacity: 1;"/></g><g/></g><g/><g/><g/></svg>
        <svg xmlns="http://www.w3.org/2000/svg" xmlns:xlink="http://www.w3.org/1999/xlink" width="686" height="211.16665649414062" style="width:686px;height:211.16665649414062px;font-family:LatinModern-Math, LatinModern, Asana-Math, Asana;background:transparent;"><g><g><g><g transform="matrix(1,0,0,1,88.816650390625,63.11663818359375)"><path transform="matrix(0.017,0,0,-0.017,0,0)" d="M527 376C527 428 468 442 434 442C376 442 341 389 329 366C304 432 250 442 221 442C117 442 60 313 60 288C60 278 72 278 72 278C80 278 83 280 85 289C119 395 185 420 219 420C238 420 273 411 273 353C273 322 256 255 219 115C203 53 168 11 124 11C118 11 95 11 74 24C99 29 121 50 121 78C121 105 99 113 84 113C54 113 29 87 29 55C29 9 79 -11 123 -11C189 -11 225 59 228 65C240 28 276 -11 336 -11C439 -11 496 118 496 143C496 153 487 153 484 153C475 153 473 149 471 142C438 35 370 11 338 11C299 11 283 43 283 77C283 99 289 121 300 165L334 302C340 328 363 420 433 420C438 420 462 420 483 407C455 402 435 377 435 353C435 337 446 318 473 318C495 318 527 336 527 376Z" stroke="rgb(0,0,0)" stroke-opacity="1" stroke-width="8" fill="rgb(0,0,0)" fill-opacity="1"></path></g></g></g></g><g><g><g><g transform="matrix(1,0,0,1,209.08331298828125,78.58331298828125)"><path transform="matrix(0.017,0,0,-0.017,0,0)" d="M490 404C490 422 476 431 461 431C451 431 435 425 426 410C424 405 416 374 412 356L392 276L347 96C343 81 300 11 234 11C183 11 172 55 172 92C172 138 189 200 223 288C239 329 243 340 243 360C243 405 211 442 161 442C66 442 29 297 29 288C29 278 41 278 41 278C51 278 52 280 57 296C84 390 124 420 158 420C166 420 183 420 183 388C183 363 173 337 166 318C126 212 108 155 108 108C108 19 171 -11 230 -11C269 -11 303 6 331 34C318 -18 306 -67 266 -120C240 -154 202 -183 156 -183C142 -183 97 -180 80 -141C96 -141 109 -141 123 -129C133 -120 143 -107 143 -88C143 -57 116 -53 106 -53C83 -53 50 -69 50 -118C50 -168 94 -205 156 -205C259 -205 362 -114 390 -1L486 381C490 395 490 397 490 404Z" stroke="rgb(0,0,0)" stroke-opacity="1" stroke-width="8" fill="rgb(0,0,0)" fill-opacity="1"></path></g></g></g></g><g><g><g><text x="160.449951171875" y="17.63330078125" style="white-space:pre;stroke:none;fill:rgb(0,0,0);fill-opacity:1;font-size:15px;font-family:&quot;Times New Roman&quot;, Times, serif;font-weight:400;font-style:normal;dominant-baseline:text-before-edge;text-decoration:rgb(0, 0, 0);">1</text></g></g><g></g></g><g><g><g><text x="24.9166259765625" y="112.69998168945312" style="white-space:pre;stroke:none;fill:rgb(0,0,0);fill-opacity:1;font-size:15px;font-family:&quot;Times New Roman&quot;, Times, serif;font-weight:400;font-style:normal;dominant-baseline:text-before-edge;text-decoration:rgb(0, 0, 0);">0, 1</text></g></g><g></g></g><g><g><g><g transform="matrix(1,0,0,1,123.4166259765625,176.9166259765625)"><path transform="matrix(0.017,0,0,-0.017,0,0)" d="M467 432C467 442 456 442 456 442C449 442 446 440 441 431C411 383 390 367 366 367C342 367 330 382 315 399C296 422 279 442 246 442C171 442 125 349 125 328C125 323 128 317 137 317C146 317 148 322 150 328C169 374 227 375 235 375C256 375 275 368 298 360C338 345 349 345 375 345C339 302 255 230 236 214L146 130C78 63 43 6 43 -1C43 -11 55 -11 55 -11C63 -11 65 -9 71 2C94 37 124 64 156 64C179 64 189 55 214 26C231 5 249 -11 278 -11C377 -11 435 116 435 143C435 148 431 153 423 153C414 153 412 147 409 140C386 75 322 56 289 56C269 56 251 62 230 69C196 82 181 86 160 86C160 86 142 86 133 83C187 141 216 166 252 197C252 197 314 251 350 287C445 380 467 428 467 432Z" stroke="rgb(0,0,0)" stroke-opacity="1" stroke-width="8" fill="rgb(0,0,0)" fill-opacity="1"></path></g></g></g></g><g><g><g><text x="283.25" y="64.19998168945312" style="white-space:pre;stroke:none;fill:rgb(0,0,0);fill-opacity:1;font-size:15px;font-family:&quot;Times New Roman&quot;, Times, serif;font-weight:400;font-style:normal;dominant-baseline:text-before-edge;text-decoration:rgb(0, 0, 0);">1</text></g></g></g><g><g><g><text x="107.71661376953125" y="118.89996337890625" style="white-space:pre;stroke:none;fill:rgb(0,0,0);fill-opacity:1;font-size:15px;font-family:&quot;Times New Roman&quot;, Times, serif;font-weight:400;font-style:normal;dominant-baseline:text-before-edge;text-decoration:rgb(0, 0, 0);">0</text></g></g></g></svg>
</svg>
