<svg xmlns="http://www.w3.org/2000/svg" xmlns:xlink="http://www.w3.org/1999/xlink" x="0" y="0" width="647.8333129882812" height="246.3333282470703" style="
        width:647.8333129882812px;
        height:246.3333282470703px;
        background: transparent;
        fill: none;
">
        <svg xmlns="http://www.w3.org/2000/svg"/>
        
        <svg xmlns="http://www.w3.org/2000/svg" class="role-diagram-draw-area"><g class="shapes-region" style="stroke: black; fill: none;"><g class="arrow-line"><path class="connection real" stroke-dasharray="" d="  M125.5,173.17 Q127.55,169.76 130.37,171.38 Q134.2,172.61 135.29,169.52 Q136.37,166.43 140.26,167.59 Q143.19,169.12 144.27,166 Q146.35,162.46 149.32,163.94 Q152.31,165.41 154.4,161.82 Q155.46,158.65 158.48,160.07 Q161.53,161.47 163.61,157.83 Q164.64,154.63 167.72,155.99 Q170.82,157.33 171.85,154.11 Q173.89,150.41 177.01,151.7 Q180.15,152.98 181.14,149.73 Q182.12,146.48 186.31,147.21 Q189.49,148.43 190.44,145.16 Q191.36,141.88 194.56,143.06 Q197.76,144.22 198.67,140.93 Q200.57,137.1 203.79,138.21 Q207.02,139.31 207.87,136 Q208.69,132.69 211.93,133.75 Q216.2,134.22 216.97,130.9 Q217.73,127.58 220.98,128.57 Q224.25,129.55 224.96,126.22 Q226.63,122.29 229.89,123.22 Q233.17,124.14 233.8,120.79 Q234.4,117.46 237.67,118.33 Q241.91,118.56 242.45,115.22 Q242.95,111.88 246.22,112.69 Q249.5,113.47 250.87,109.49 Q251.27,106.15 254.54,106.89 Q257.82,107.61 259.04,103.61 Q259.32,100.29 262.59,100.96 Q265.86,101.6 266.93,97.6 Q267.08,94.29 270.34,94.88 Q274.44,94.76 274.5,91.46 Q274.51,88.17 277.75,88.68 Q281.8,88.46 281.72,85.19 Q282.34,81.23 285.56,81.65 Q288.79,82.04 289.29,78.09 Q288.97,74.88 292.88,74.48 Q296.09,74.76 296.34,70.85 Q295.83,67.7 299.66,67.18 Q302.84,67.34 302.83,63.48 L303.45,62.74 L308.16,56.76" style="stroke: rgb(128, 128, 128); stroke-opacity: 1; stroke-width: 2px; fill: none; fill-opacity: 1;"/><g stroke="none" fill="rgb(128,128,128)" fill-opacity="1" transform="matrix(-0.5782848737953924,0.8158349126750136,-0.8158349126750136,-0.5782848737953924,310.3999938964844,53.67500305175781)" style="stroke: none; fill: rgb(128, 128, 128); stroke-width: 2px;"><path d=" M13.4,-6.43 L0,0 L13.4,6.44 L8.9,0 Z"/></g></g><g class="arrow-line"><path class="connection real" stroke-dasharray="" d="  M318.42,36.84 C404.69,27.49 410.25,124.2 350.67,160.08" style="stroke: rgb(0, 0, 0); stroke-width: 2px; fill: none; fill-opacity: 1;"/><g stroke="none" fill="#000" transform="matrix(0.8754645270000179,-0.48328238325500233,0.48328238325500233,0.8754645270000179,347.8999938964844,161.6750030517578)" style="stroke: none; fill: rgb(0, 0, 0); stroke-width: 2px;"><path d=" M13.4,-6.43 L0,0 L13.4,6.44 L8.9,0 Z"/></g></g><g class="arrow-line"><path class="connection real" stroke-dasharray="" d="  M327.5,166.17 C255.1,151.57 163.69,125.47 120.82,65.92" style="stroke: rgb(0, 0, 0); stroke-width: 2px; fill: none; fill-opacity: 1;"/><g stroke="none" fill="#000" transform="matrix(0.563958515726399,0.8258031197202376,-0.8258031197202376,0.563958515726399,118.89999389648438,63.17500305175781)" style="stroke: none; fill: rgb(0, 0, 0); stroke-width: 2px;"><path d=" M13.4,-6.43 L0,0 L13.4,6.44 L8.9,0 Z"/></g></g><g class="arrow-line"><path class="connection real" stroke-dasharray="" d="  M327.5,166.17 Q326.84,162.36 330.09,161.72 Q333.66,160.42 332.45,157.39 Q331.47,153.83 334.88,152.56 Q338.27,151.23 336.78,148.44 Q335.46,145.16 338.69,143.84 Q342.11,141.86 340.53,138.78 Q338.85,135.83 342.03,133.84 Q345.03,132.28 343.22,129 Q341.19,126.41 344.1,124.24 Q346.95,121.92 344.69,119.54 Q342.4,116.81 345.01,114.39 Q347.54,111.82 344.99,109.27 Q342.36,106.9 344.64,104.18 Q346.89,101.84 344.06,99.59 Q341.18,97.48 343.14,94.47 Q345,91.33 342.06,89.83 Q338.96,87.89 340.61,84.6 Q342.34,81.74 339.09,79.83 Q335.99,78.51 337.57,75.52 Q338.88,71.88 335.68,70.57 Q332.47,69.27 333.85,66.07 L332.89,63.79 L329.8,56.76" style="stroke: rgb(128, 128, 128); stroke-opacity: 1; stroke-width: 2px; fill: none; fill-opacity: 1;"/><g stroke="none" fill="rgb(128,128,128)" fill-opacity="1" transform="matrix(0.4162807922604022,0.9092361090470681,-0.9092361090470681,0.4162807922604022,328.3999938964844,53.67500305175781)" style="stroke: none; fill: rgb(128, 128, 128); stroke-width: 2px;"><path d=" M13.4,-6.43 L0,0 L13.4,6.44 L8.9,0 Z"/></g></g><g class="arrow-line"><path class="connection real" stroke-dasharray="" d="  M125.5,173.17 Q128.55,170.95 131.1,173.71 Q133.61,176.46 135.67,174.14 Q138.6,171.91 141.05,174.65 Q143.47,177.39 145.46,175.06 Q148.29,172.8 150.66,175.53 Q153.01,178.24 155.78,175.97 Q158.53,173.7 160.83,176.4 Q163.14,179.09 165.83,176.79 Q168.49,174.49 170.77,177.17 Q173.05,179.83 175.67,177.51 Q178.27,175.17 180.54,177.82 Q182.82,180.46 185.39,178.1 Q187.94,175.73 191.04,178.39 Q193.36,181 195.89,178.6 Q198.41,176.19 200.76,178.77 Q203.13,181.34 205.64,178.91 Q208.15,176.46 210.57,179.01 Q213.02,181.54 215.54,179.06 Q218.05,176.58 220.57,179.08 Q223.12,181.57 225.66,179.05 Q228.2,176.52 230.83,178.98 Q233.51,181.43 236.09,178.86 Q237.8,176.32 240.55,178.73 Q243.36,181.13 246,178.53 Q247.73,175.95 250.63,178.32 Q253.59,180.67 255.35,178.07 Q258.08,175.41 261.14,177.73 Q263.27,180.1 266.08,177.4 Q267.9,174.77 271.12,177.04 Q273.36,179.38 275.24,176.72 Q278.16,173.97 280.49,176.29 Q283.92,178.49 285.86,175.81 Q287.82,173.12 290.26,175.4 Q293.86,177.56 295.88,174.85 L299.31,174.5 L306.35,173.75" style="stroke: rgb(128, 128, 128); stroke-opacity: 1; stroke-width: 2px; fill: none; fill-opacity: 1;"/><g stroke="none" fill="rgb(128,128,128)" fill-opacity="1" transform="matrix(-0.9937679191605964,0.11146893220632599,-0.11146893220632599,-0.9937679191605964,310,173.34375)" style="stroke: none; fill: rgb(128, 128, 128); stroke-width: 2px;"><path d=" M13.4,-6.43 L0,0 L13.4,6.44 L8.9,0 Z"/></g></g><g class="arrow-line"><path class="connection real" stroke-dasharray="" d="  M113.14,43.57 C81.13,16.48 273.1,90.08 316.14,147.72" style="stroke: rgb(0, 0, 0); stroke-width: 2px; fill: none; fill-opacity: 1;"/><g stroke="none" fill="#000" transform="matrix(-0.5580348039381696,-0.8298175447613099,0.8298175447613099,-0.5580348039381696,318,150.34375)" style="stroke: none; fill: rgb(0, 0, 0); stroke-width: 2px;"><path d=" M13.4,-6.43 L0,0 L13.4,6.44 L8.9,0 Z"/></g></g><g class="arrow-line"><path class="connection real" stroke-dasharray="" d="  M113.14,43.57 C70.71,79.08 78.85,129.54 108.58,157.63" style="stroke: rgb(0, 0, 0); stroke-width: 2px; fill: none; fill-opacity: 1;"/><g stroke="none" fill="#000" transform="matrix(-0.7584756701844522,-0.6517013562501203,0.6517013562501203,-0.7584756701844522,111.39999389648438,160.1750030517578)" style="stroke: none; fill: rgb(0, 0, 0); stroke-width: 2px;"><path d=" M13.4,-6.43 L0,0 L13.4,6.44 L8.9,0 Z"/></g></g><g class="composite-shape"><path class="real" d=" M95.82,43.57 C95.68,33.68 103.31,25.67 112.88,25.67 C122.44,25.67 130.31,33.68 130.46,43.57 C130.61,53.45 122.97,61.47 113.41,61.47 C103.84,61.47 95.97,53.45 95.82,43.57 Z" style="stroke-width: 2px; stroke: rgb(0, 0, 0); fill: rgb(255, 255, 255); fill-opacity: 1;"/></g><g class="composite-shape"><path class="real" d=" M309.83,166.17 C309.83,156.41 317.74,148.5 327.5,148.5 C337.26,148.5 345.17,156.41 345.17,166.17 C345.17,175.92 337.26,183.83 327.5,183.83 C317.74,183.83 309.83,175.92 309.83,166.17 Z" style="stroke-width: 2px; stroke: rgb(0, 0, 0); fill: rgb(255, 255, 255); fill-opacity: 1;"/></g><g class="composite-shape"><path class="real" d=" M312.98,166.17 C312.98,158.15 319.48,151.65 327.5,151.65 C335.52,151.65 342.02,158.15 342.02,166.17 C342.02,174.19 335.52,180.69 327.5,180.69 C319.48,180.69 312.98,174.19 312.98,166.17 Z" style="stroke-width: 2px; stroke: rgb(0, 0, 0); fill: rgb(255, 255, 255); fill-opacity: 1;"/></g><g class="composite-shape"><path class="real" d=" M300.75,36.84 C300.75,27.08 308.66,19.17 318.42,19.17 C328.17,19.17 336.08,27.08 336.08,36.84 C336.08,46.6 328.17,54.51 318.42,54.51 C308.66,54.51 300.75,46.6 300.75,36.84 Z" style="stroke-width: 2px; stroke: rgb(0, 0, 0); fill: rgb(255, 255, 255); fill-opacity: 1;"/></g><g class="composite-shape"><path class="real" d=" M107.83,173.17 C107.83,163.41 115.74,155.5 125.5,155.5 C135.26,155.5 143.17,163.41 143.17,173.17 C143.17,182.92 135.26,190.83 125.5,190.83 C115.74,190.83 107.83,182.92 107.83,173.17 Z" style="stroke-width: 2px; stroke: rgb(0, 0, 0); fill: rgb(255, 255, 255); fill-opacity: 1;"/></g><g class="composite-shape"><path class="real" d=" M110.98,173.17 C110.98,165.15 117.48,158.65 125.5,158.65 C133.52,158.65 140.02,165.15 140.02,173.17 C140.02,181.19 133.52,187.69 125.5,187.69 C117.48,187.69 110.98,181.19 110.98,173.17 Z" style="stroke-width: 2px; stroke: rgb(0, 0, 0); fill: rgb(255, 255, 255); fill-opacity: 1;"/></g><g class="arrow-line"><path class="connection real" stroke-dasharray="" d="  M131.17,36.16 Q132.61,32.9 135.87,34.34 Q139.05,35.85 140.57,32.68 Q142.17,29.52 146.08,30.92 Q149.13,32.64 150.81,29.58 Q152.57,26.53 155.55,28.37 Q158.48,30.25 160.31,27.3 Q162.21,24.36 165.08,26.36 Q167.88,28.4 169.86,25.55 Q171.9,22.72 174.66,24.86 Q178.14,26.96 180.27,24.22 Q182.47,21.5 185.1,23.79 Q187.69,26.11 189.95,23.47 Q192.28,20.86 194.82,23.27 Q197.31,25.7 199.7,23.17 Q202.15,20.65 204.61,23.17 Q207.02,25.7 209.53,23.26 Q212.93,20.88 215.3,23.49 Q217.64,26.13 220.27,23.79 Q222.96,21.47 225.27,24.17 Q227.54,26.88 230.28,24.63 Q233.06,22.4 234.48,25.07 Q236.71,27.84 239.54,25.67 Q242.41,23.52 244.63,26.34 Q246.83,29.17 249.74,27.07 Q252.69,24.99 254.88,27.87 Q257.05,30.76 260.05,28.73 Q262.21,26.56 264.38,29.48 Q266.53,32.41 269.6,30.44 Q272.69,28.47 273.97,31.27 Q276.12,34.23 279.25,32.3 Q282.4,30.39 284.56,33.38 Q285.82,36.2 289,34.31 L289.9,34.5 L297.07,36.04" style="stroke: rgb(128, 128, 128); stroke-opacity: 1; stroke-width: 2px; fill: none; fill-opacity: 1;"/><g stroke="none" fill="rgb(128,128,128)" fill-opacity="1" transform="matrix(-0.9767471755999567,-0.21439439115216452,0.21439439115216452,-0.9767471755999567,300.75,36.83984375)" style="stroke: none; fill: rgb(128, 128, 128); stroke-width: 2px;"><path d=" M13.4,-6.43 L0,0 L13.4,6.44 L8.9,0 Z"/></g></g><g/></g><g/><g/><g/></svg>
        <svg xmlns="http://www.w3.org/2000/svg" xmlns:xlink="http://www.w3.org/1999/xlink" width="646" height="244.5" style="width:646px;height:244.5px;font-family:LatinModern-Math, LatinModern, Asana-Math, Asana;background:transparent;"><g><g><g><g transform="matrix(1,0,0,1,105.7166748046875,47.14996337890625)"><path transform="matrix(0.017,0,0,-0.017,0,0)" d="M420 356C420 401 377 442 301 442C169 442 132 340 132 296C132 218 206 203 235 197C287 187 339 176 339 121C339 95 316 11 196 11C182 11 105 11 82 64C120 59 145 89 145 117C145 140 129 152 108 152C82 152 52 131 52 86C52 29 109 -11 195 -11C357 -11 396 110 396 155C396 191 377 216 365 228C338 256 309 261 265 270C229 278 189 285 189 330C189 359 213 420 301 420C326 420 376 413 391 374C363 373 343 351 343 329C343 315 352 300 374 300C396 300 420 317 420 356Z" stroke="rgb(0,0,0)" stroke-opacity="1" stroke-width="8" fill="rgb(0,0,0)" fill-opacity="1"></path></g></g><g><g><g><g><g transform="matrix(1,0,0,1,114.20001220703125,50.48331298828125)"><path transform="matrix(0.0119,0,0,-0.0119,0,0)" d="M419 0L419 31L387 31C297 31 294 42 294 79L294 640C294 664 294 666 271 666C209 602 121 602 89 602L89 571C109 571 168 571 220 597L220 79C220 43 217 31 127 31L95 31L95 0C130 3 217 3 257 3C297 3 384 3 419 0Z" stroke="rgb(0,0,0)" stroke-opacity="1" stroke-width="8" fill="rgb(0,0,0)" fill-opacity="1"></path></g></g></g></g></g></g></g><g><g><g><g transform="matrix(1,0,0,1,118.5833740234375,177.08331298828125)"><path transform="matrix(0.017,0,0,-0.017,0,0)" d="M420 356C420 401 377 442 301 442C169 442 132 340 132 296C132 218 206 203 235 197C287 187 339 176 339 121C339 95 316 11 196 11C182 11 105 11 82 64C120 59 145 89 145 117C145 140 129 152 108 152C82 152 52 131 52 86C52 29 109 -11 195 -11C357 -11 396 110 396 155C396 191 377 216 365 228C338 256 309 261 265 270C229 278 189 285 189 330C189 359 213 420 301 420C326 420 376 413 391 374C363 373 343 351 343 329C343 315 352 300 374 300C396 300 420 317 420 356Z" stroke="rgb(0,0,0)" stroke-opacity="1" stroke-width="8" fill="rgb(0,0,0)" fill-opacity="1"></path></g></g><g><g><g><g><g transform="matrix(1,0,0,1,127.066650390625,180.41666259765626)"><path transform="matrix(0.0119,0,0,-0.0119,0,0)" d="M449 174L424 174C419 144 412 100 402 85C395 77 329 77 307 77L127 77L233 180C389 318 449 372 449 472C449 586 359 666 237 666C124 666 50 574 50 485C50 429 100 429 103 429C120 429 155 441 155 482C155 508 137 534 102 534C94 534 92 534 89 533C112 598 166 635 224 635C315 635 358 554 358 472C358 392 308 313 253 251L61 37C50 26 50 24 50 0L421 0Z" stroke="rgb(0,0,0)" stroke-opacity="1" stroke-width="8" fill="rgb(0,0,0)" fill-opacity="1"></path></g></g></g></g></g></g></g><g><g><g><g transform="matrix(1,0,0,1,312.0999755859375,38.79998779296875)"><path transform="matrix(0.017,0,0,-0.017,0,0)" d="M420 356C420 401 377 442 301 442C169 442 132 340 132 296C132 218 206 203 235 197C287 187 339 176 339 121C339 95 316 11 196 11C182 11 105 11 82 64C120 59 145 89 145 117C145 140 129 152 108 152C82 152 52 131 52 86C52 29 109 -11 195 -11C357 -11 396 110 396 155C396 191 377 216 365 228C338 256 309 261 265 270C229 278 189 285 189 330C189 359 213 420 301 420C326 420 376 413 391 374C363 373 343 351 343 329C343 315 352 300 374 300C396 300 420 317 420 356Z" stroke="rgb(0,0,0)" stroke-opacity="1" stroke-width="8" fill="rgb(0,0,0)" fill-opacity="1"></path></g></g><g><g><g><g><g transform="matrix(1,0,0,1,320.5833740234375,42.13333740234375)"><path transform="matrix(0.0119,0,0,-0.0119,0,0)" d="M457 171C457 253 394 331 290 352C372 379 430 449 430 528C430 610 342 666 246 666C145 666 69 606 69 530C69 497 91 478 120 478C151 478 171 500 171 529C171 579 124 579 109 579C140 628 206 641 242 641C283 641 338 619 338 529C338 517 336 459 310 415C280 367 246 364 221 363C213 362 189 360 182 360C174 359 167 358 167 348C167 337 174 337 191 337L235 337C317 337 354 269 354 171C354 35 285 6 241 6C198 6 123 23 88 82C123 77 154 99 154 137C154 173 127 193 98 193C74 193 42 179 42 135C42 44 135 -22 244 -22C366 -22 457 69 457 171Z" stroke="rgb(0,0,0)" stroke-opacity="1" stroke-width="8" fill="rgb(0,0,0)" fill-opacity="1"></path></g></g></g></g></g></g></g><g><g><g><text x="56.41668701171875" y="101.70001220703125" style="white-space:pre;stroke:none;fill:rgb(0,0,0);fill-opacity:1;font-size:15px;font-family:&quot;Times New Roman&quot;, Times, serif;font-weight:400;font-style:normal;dominant-baseline:text-before-edge;text-decoration:rgb(0, 0, 0);">∆,π</text></g></g></g><g><g><g><g transform="matrix(1,0,0,1,320.0833740234375,169.58331298828125)"><path transform="matrix(0.017,0,0,-0.017,0,0)" d="M420 356C420 401 377 442 301 442C169 442 132 340 132 296C132 218 206 203 235 197C287 187 339 176 339 121C339 95 316 11 196 11C182 11 105 11 82 64C120 59 145 89 145 117C145 140 129 152 108 152C82 152 52 131 52 86C52 29 109 -11 195 -11C357 -11 396 110 396 155C396 191 377 216 365 228C338 256 309 261 265 270C229 278 189 285 189 330C189 359 213 420 301 420C326 420 376 413 391 374C363 373 343 351 343 329C343 315 352 300 374 300C396 300 420 317 420 356Z" stroke="rgb(0,0,0)" stroke-opacity="1" stroke-width="8" fill="rgb(0,0,0)" fill-opacity="1"></path></g></g><g><g><g><g><g transform="matrix(1,0,0,1,328.566650390625,172.91666259765626)"><path transform="matrix(0.0119,0,0,-0.0119,0,0)" d="M471 165L471 196L371 196L371 651C371 671 371 677 355 677C346 677 343 677 335 665L28 196L28 165L294 165L294 78C294 42 292 31 218 31L197 31L197 0C238 3 290 3 332 3C374 3 427 3 468 0L468 31L447 31C373 31 371 42 371 78L371 165ZM300 196L56 196L300 569Z" stroke="rgb(0,0,0)" stroke-opacity="1" stroke-width="8" fill="rgb(0,0,0)" fill-opacity="1"></path></g></g></g></g></g></g></g><g><g><g><text x="219.91668701171875" y="57.70001220703125" style="white-space:pre;stroke:none;fill:rgb(0,0,0);fill-opacity:1;font-size:15px;font-family:&quot;Times New Roman&quot;, Times, serif;font-weight:400;font-style:normal;dominant-baseline:text-before-edge;text-decoration:rgb(0, 0, 0);">μ</text></g></g></g><g><g><g><text x="173.91668701171875" y="91.20001220703125" style="white-space:pre;stroke:none;fill:rgb(0,0,0);fill-opacity:1;font-size:15px;font-family:&quot;Times New Roman&quot;, Times, serif;font-weight:400;font-style:normal;dominant-baseline:text-before-edge;text-decoration:rgb(0, 0, 0);">μ,π</text></g></g></g><g><g><g><text x="400.9166259765625" y="88.70001220703125" style="white-space:pre;stroke:none;fill:rgb(0,0,0);fill-opacity:1;font-size:15px;font-family:&quot;Times New Roman&quot;, Times, serif;font-weight:400;font-style:normal;dominant-baseline:text-before-edge;text-decoration:rgb(0, 0, 0);">∆,π</text></g></g></g><g><g><g><g transform="matrix(1,0,0,1,154.75,225.58331298828125)"><path transform="matrix(0.017,0,0,-0.017,0,0)" d="M721 20C721 31 711 31 698 31C636 31 636 38 633 67L572 692C570 712 570 716 553 716C537 716 533 709 527 699L179 115C139 48 100 34 56 31C44 30 35 30 35 11C35 5 40 0 48 0C75 0 106 3 134 3C167 3 202 0 234 0C240 0 253 0 253 19C253 30 244 31 237 31C214 33 190 41 190 66C190 78 196 89 204 103C211 115 212 115 280 231L531 231C533 210 547 74 547 64C547 34 495 31 475 31C461 31 451 31 451 11C451 0 465 0 465 0C506 0 549 3 590 3C615 3 678 0 703 0C709 0 721 0 721 20ZM528 262L299 262L496 592Z" stroke="rgb(0,0,0)" stroke-opacity="1" stroke-width="8" fill="rgb(0,0,0)" fill-opacity="1"></path></g></g><g><g transform="matrix(1,0,0,1,178.25,225.58331298828125)"><path transform="matrix(0.017,0,0,-0.017,0,0)" d="M722 347C722 358 713 367 702 367L76 367C65 367 56 358 56 347C56 336 65 327 76 327L702 327C713 327 722 336 722 347ZM722 153C722 164 713 173 702 173L76 173C65 173 56 164 56 153C56 142 65 133 76 133L702 133C713 133 722 142 722 153Z" stroke="rgb(0,0,0)" stroke-opacity="1" stroke-width="8" fill="rgb(0,0,0)" fill-opacity="1"></path></g></g><g><g transform="matrix(1,0,0,1,196.5833740234375,225.9166259765625)"><path transform="matrix(0.017,0,0,-0.017,0,0)" d="M425 -238C425 -231 420 -226 413 -226C338 -226 283 -177 283 -125L283 125C283 183 235 229 168 250C235 271 283 317 283 375L283 625C283 677 338 726 413 726C420 726 425 731 425 738C425 745 420 750 413 750C308 750 217 698 217 625L217 375C217 317 162 262 87 262C80 262 75 257 75 250C75 243 80 238 87 238C162 238 217 183 217 125L217 -125C217 -198 308 -250 413 -250C420 -250 425 -245 425 -238Z" stroke="rgb(0,0,0)" stroke-opacity="1" stroke-width="8" fill="rgb(0,0,0)" fill-opacity="1"></path></g></g><g><g transform="matrix(1,0,0,1,205.933349609375,225.58331298828125)"><path transform="matrix(0.017,0,0,-0.017,0,0)" d="M787 10C787 14 786 20 785 24L618 692C613 712 612 716 594 716C585 716 577 716 563 697L57 20C49 10 49 6 49 6C49 1 50 0 71 0L761 0C778 0 787 0 787 10ZM679 72L130 72L542 622Z" stroke="rgb(0,0,0)" stroke-opacity="1" stroke-width="8" fill="rgb(0,0,0)" fill-opacity="1"></path></g></g><g><g transform="matrix(1,0,0,1,220.0999755859375,225.58331298828125)"><path transform="matrix(0.017,0,0,-0.017,0,0)" d="M203 1C203 67 178 106 139 106C106 106 86 81 86 53C86 26 106 0 139 0C151 0 164 4 174 13C177 15 179 16 179 16C179 16 181 15 181 1C181 -73 146 -133 113 -166C102 -177 102 -179 102 -182C102 -189 107 -193 112 -193C123 -193 203 -116 203 1Z" stroke="rgb(0,0,0)" stroke-opacity="1" stroke-width="8" fill="rgb(0,0,0)" fill-opacity="1"></path></g></g><g><g transform="matrix(1,0,0,1,228.23333740234375,225.58331298828125)"><path transform="matrix(0.017,0,0,-0.017,0,0)" d="M567 407C567 431 546 431 527 431L192 431C170 431 132 431 88 384C53 345 27 299 27 294C27 294 27 284 39 284C47 284 49 288 55 296C104 373 162 373 182 373L239 373C207 252 153 131 111 40C103 25 103 23 103 16C103 -3 119 -11 132 -11C162 -11 170 17 182 54C196 100 196 102 209 152L265 373L378 373C345 225 336 182 336 115C336 100 336 73 344 39C354 -5 365 -11 380 -11C400 -11 421 7 421 27C421 33 421 35 415 49C386 121 386 186 386 214C386 267 393 321 404 373L518 373C531 373 567 373 567 407Z" stroke="rgb(0,0,0)" stroke-opacity="1" stroke-width="8" fill="rgb(0,0,0)" fill-opacity="1"></path></g></g><g><g transform="matrix(1,0,0,1,237.91668701171875,225.58331298828125)"><path transform="matrix(0.017,0,0,-0.017,0,0)" d="M203 1C203 67 178 106 139 106C106 106 86 81 86 53C86 26 106 0 139 0C151 0 164 4 174 13C177 15 179 16 179 16C179 16 181 15 181 1C181 -73 146 -133 113 -166C102 -177 102 -179 102 -182C102 -189 107 -193 112 -193C123 -193 203 -116 203 1Z" stroke="rgb(0,0,0)" stroke-opacity="1" stroke-width="8" fill="rgb(0,0,0)" fill-opacity="1"></path></g></g><g><g transform="matrix(1,0,0,1,246.04998779296875,225.58331298828125)"><path transform="matrix(0.017,0,0,-0.017,0,0)" d="M572 143C572 153 563 153 560 153C550 153 549 149 546 135C529 70 511 11 470 11C443 11 440 37 440 57C440 79 452 126 460 161L488 269C491 284 501 322 505 337C510 360 520 398 520 404C520 422 506 431 491 431C486 431 460 430 452 396L405 209L379 107C378 102 330 11 249 11C199 11 175 44 175 98C175 127 182 155 189 183L231 351C236 372 246 410 246 415C246 432 234 442 217 442C214 442 186 441 177 406L33 -173C30 -185 30 -189 30 -189C30 -204 41 -216 58 -216C79 -216 91 -198 93 -195C97 -186 110 -134 148 20C180 -7 225 -11 245 -11C315 -11 354 34 378 62C387 17 424 -11 468 -11C503 -11 526 12 542 44C559 80 572 143 572 143Z" stroke="rgb(0,0,0)" stroke-opacity="1" stroke-width="8" fill="rgb(0,0,0)" fill-opacity="1"></path></g></g><g><g transform="matrix(1,0,0,1,257.1500244140625,225.9166259765625)"><path transform="matrix(0.017,0,0,-0.017,0,0)" d="M425 250C425 257 420 262 413 262C338 262 283 317 283 375L283 625C283 698 192 750 87 750C80 750 75 745 75 738C75 731 80 726 87 726C162 726 217 677 217 625L217 375C217 317 265 271 332 250C265 229 217 183 217 125L217 -125C217 -177 162 -226 87 -226C80 -226 75 -231 75 -238C75 -245 80 -250 87 -250C192 -250 283 -198 283 -125L283 125C283 183 338 238 413 238C420 238 425 243 425 250Z" stroke="rgb(0,0,0)" stroke-opacity="1" stroke-width="8" fill="rgb(0,0,0)" fill-opacity="1"></path></g></g></g></g></svg>
</svg>
