<?xml version="1.0" encoding="UTF-8" standalone="no"?>
<svg
   x="0"
   y="0"
   width="246.08557"
   height="94.650383"
   style="fill:none"
   version="1.1"
   id="svg32"
   sodipodi:docname="silent_2state.svg"
   inkscape:version="1.4 (86a8ad7, 2024-10-11)"
   xmlns:inkscape="http://www.inkscape.org/namespaces/inkscape"
   xmlns:sodipodi="http://sodipodi.sourceforge.net/DTD/sodipodi-0.dtd"
   xmlns="http://www.w3.org/2000/svg"
   xmlns:svg="http://www.w3.org/2000/svg">
  <defs
     id="defs32" />
  <sodipodi:namedview
     id="namedview32"
     pagecolor="#ffffff"
     bordercolor="#000000"
     borderopacity="0.25"
     inkscape:showpageshadow="2"
     inkscape:pageopacity="0.0"
     inkscape:pagecheckerboard="0"
     inkscape:deskcolor="#d1d1d1"
     inkscape:zoom="2.5820207"
     inkscape:cx="299.18428"
     inkscape:cy="45.1197"
     inkscape:window-width="1920"
     inkscape:window-height="1009"
     inkscape:window-x="-8"
     inkscape:window-y="-8"
     inkscape:window-maximized="1"
     inkscape:current-layer="svg32" />
  <path
     class="connection real"
     stroke-dasharray="none"
     d="m 155,53.334081 c 86.81,-34.79 75.05,34.17 18.28,11.19"
     style="fill:none;fill-opacity:1;stroke:#000000;stroke-width:2px"
     id="path1" />
  <path
     d="m 184.6104,62.733101 -14.8604,0.27082 9.50491,11.43199 -1.41206,-7.7285 z"
     id="path2"
     style="fill:#000000;stroke:none;stroke-width:2px" />
  <path
     class="connection real"
     stroke-dasharray="none"
     d="m 18.67,49.994081 c 40.27,-44.4000004 98.54,-31.72 120.42,-13.8"
     style="fill:none;fill-opacity:1;stroke:#000000;stroke-width:2px"
     id="path3" />
  <path
     d="m 127.9071,33.841119 14.02622,4.916292 -4.9337,-14.024695 -1.36504,7.736943 z"
     id="path4"
     style="fill:#000000;stroke:none;stroke-width:2px" />
  <path
     class="connection real"
     stroke-dasharray="none"
     d="m 155,53.334081 q 0.9,3.5 -2.56,4.42 -3.43,0.74 -2.7,4.14 0.14,4.1 -3.3,4.47 -3.39,0.19 -2.97,3.53 -0.24,3.94 -3.61,3.78 -3.28,-0.34 -3.75,3.41 -0.1,3.31 -3.9,3.05 -3.11,-0.88 -4.02,2.69 -1.13,3.57 -4.15,2.36 -3.47,-1.08 -4.87,2.27 -1.62,3.32 -4.37,1.64 -3.24,-1.62 -5.11,1.47 -2.1,3.03 -4.56,0.95 -2.97,-2.07 -5.3,0.71 -2.54,2.7 -4.71,0.29 -2.7,-2.46 -5.44,-0.02 -2.21,2.39 -4.81,-0.32 -1.77,-2.71 -4.84,-0.61 -3.23,1.99 -4.86,-0.88 -2.21,-3.05 -4.88,-1.14 -3.49,1.63 -4.89,-1.41 -1.3,-3.04 -4.88,-1.65 -2.99,1.54 -4.87,-1.9 -1.08,-3.18 -4.16,-1.82 -3.16,1.27 -4.83,-2.34 -0.88,-3.28 -4.1,-2.19 -3.29,1.01 -4.75,-2.75 l -1.34,-0.83 -6.66,-4.39"
     style="fill:none;fill-opacity:1;stroke:#808080;stroke-width:2px;stroke-opacity:1"
     id="path5" />
  <path
     d="m 41.747977,71.062371 -14.614653,-2.70495 7.028067,13.10114 0.161212,-7.85479 z"
     id="path6"
     style="fill:#808080;fill-opacity:1;stroke:none;stroke-width:2px" />
  <path
     class="real"
     d="m 1,49.994081 c 0,-9.75 7.91,-17.66 17.67,-17.66 9.75,0 17.66,7.91 17.66,17.66 0,9.76 -7.91,17.67 -17.66,17.67 -9.76,0 -17.67,-7.91 -17.67,-17.67 z"
     style="fill:#ffffff;fill-opacity:1;stroke:#000000;stroke-width:2px"
     id="path7" />
  <path
     class="real"
     d="m 137.33,53.334081 c 0,-9.76 7.91,-17.67 17.67,-17.67 9.76,0 17.67,7.91 17.67,17.67 0,9.75 -7.91,17.66 -17.67,17.66 -9.76,0 -17.67,-7.91 -17.67,-17.66 z"
     style="fill:#ffffff;fill-opacity:1;stroke:#000000;stroke-width:2px"
     id="path8" />
  <path
     class="real"
     d="m 140.48,53.334081 c 0,-8.02 6.5,-14.52 14.52,-14.52 8.02,0 14.52,6.5 14.52,14.52 0,8.02 -6.5,14.52 -14.52,14.52 -8.02,0 -14.52,-6.5 -14.52,-14.52 z"
     style="fill:#ffffff;fill-opacity:1;stroke:#000000;stroke-width:2px"
     id="path9" />
  <path
     d="m 23.375626,47.788741 c 0,-0.884 -1.003,-1.122 -1.581,-1.122 -0.986,0 -1.581,0.901 -1.785,1.292 -0.425,-1.122 -1.343,-1.292 -1.836,-1.292 -1.768,0 -2.737,2.193 -2.737,2.618 0,0.17 0.204,0.17 0.204,0.17 0.136,0 0.187,-0.034 0.221,-0.187 0.578,-1.802 1.7,-2.227 2.278,-2.227 0.323,0 0.918,0.153 0.918,1.139 0,0.527 -0.289,1.666 -0.918,4.046 -0.272,1.054 -0.867,1.768 -1.615,1.768 -0.102,0 -0.493,0 -0.85,-0.221 0.425,-0.085 0.799,-0.442 0.799,-0.918 0,-0.459 -0.374,-0.595 -0.629,-0.595 -0.51,0 -0.935,0.442 -0.935,0.986 0,0.782 0.85,1.122 1.598,1.122 1.122,0 1.734,-1.19 1.785,-1.292 0.204,0.629 0.816,1.292 1.836,1.292 1.751,0 2.72,-2.193 2.72,-2.618 0,-0.17 -0.153,-0.17 -0.204,-0.17 -0.153,0 -0.187,0.068 -0.221,0.187 -0.561,1.819 -1.717,2.227 -2.261,2.227 -0.663,0 -0.935,-0.544 -0.935,-1.122 0,-0.374 0.102,-0.748 0.289,-1.496 l 0.578,-2.329 c 0.102,-0.442 0.493,-2.006 1.683,-2.006 0.085,0 0.493,0 0.85,0.221 -0.476,0.085 -0.816,0.51 -0.816,0.918 0,0.272 0.187,0.595 0.646,0.595 0.374,0 0.918,-0.306 0.918,-0.986 z"
     stroke="#000000"
     stroke-opacity="1"
     stroke-width="0.136"
     fill="#000000"
     fill-opacity="1"
     id="path15"
     style="font-family:LatinModern-Math, LatinModern, Asana-Math, Asana" />
  <path
     d="m 158.91331,49.879391 c 0,-0.306 -0.238,-0.459 -0.493,-0.459 -0.17,0 -0.442,0.102 -0.595,0.357 -0.034,0.085 -0.17,0.612 -0.238,0.918 l -0.34,1.36 -0.765,3.06 c -0.068,0.255 -0.799,1.445 -1.921,1.445 -0.867,0 -1.054,-0.748 -1.054,-1.377 0,-0.782 0.289,-1.836 0.867,-3.332 0.272,-0.697 0.34,-0.884 0.34,-1.224 0,-0.765 -0.544,-1.394 -1.394,-1.394 -1.615,0 -2.244,2.465 -2.244,2.618 0,0.17 0.204,0.17 0.204,0.17 0.17,0 0.187,-0.034 0.272,-0.306 0.459,-1.598 1.139,-2.108 1.717,-2.108 0.136,0 0.425,0 0.425,0.544 0,0.425 -0.17,0.867 -0.289,1.19 -0.68,1.802 -0.986,2.771 -0.986,3.57 0,1.513 1.071,2.023 2.074,2.023 0.663,0 1.241,-0.289 1.717,-0.765 -0.221,0.884 -0.425,1.717 -1.105,2.618 -0.442,0.578 -1.088,1.071 -1.87,1.071 -0.238,0 -1.003,-0.051 -1.292,-0.714 0.272,0 0.493,0 0.731,-0.204 0.17,-0.153 0.34,-0.374 0.34,-0.697 0,-0.527 -0.459,-0.595 -0.629,-0.595 -0.391,0 -0.952,0.272 -0.952,1.105 0,0.85 0.748,1.479 1.802,1.479 1.751,0 3.502,-1.547 3.978,-3.468 l 1.632,-6.494 c 0.068,-0.238 0.068,-0.272 0.068,-0.391 z"
     stroke="#000000"
     stroke-opacity="1"
     stroke-width="0.136"
     fill="#000000"
     fill-opacity="1"
     id="path19"
     style="font-family:LatinModern-Math, LatinModern, Asana-Math, Asana" />
  <text
     x="78.149963"
     y="-1.3025942"
     style="font-style:normal;font-weight:400;font-size:15px;font-family:'Times New Roman', Times, serif;dominant-baseline:text-before-edge;white-space:pre;fill:#000000;fill-opacity:1;stroke:none"
     id="text23">1</text>
  <text
     x="225.41663"
     y="45.064045"
     style="font-style:normal;font-weight:400;font-size:15px;font-family:'Times New Roman', Times, serif;dominant-baseline:text-before-edge;white-space:pre;fill:#000000;fill-opacity:1;stroke:none"
     id="text27">0, 1</text>
</svg>
