<?xml version="1.0" encoding="UTF-8" standalone="no"?>
<svg
   x="0"
   y="0"
   width="364.53168"
   height="212.06464"
   style="fill:none"
   version="1.1"
   id="svg97"
   sodipodi:docname="silent_4state.svg"
   inkscape:version="1.4 (86a8ad7, 2024-10-11)"
   xmlns:inkscape="http://www.inkscape.org/namespaces/inkscape"
   xmlns:sodipodi="http://sodipodi.sourceforge.net/DTD/sodipodi-0.dtd"
   xmlns="http://www.w3.org/2000/svg"
   xmlns:svg="http://www.w3.org/2000/svg">
  <defs
     id="defs97" />
  <sodipodi:namedview
     id="namedview97"
     pagecolor="#ffffff"
     bordercolor="#000000"
     borderopacity="0.25"
     inkscape:showpageshadow="2"
     inkscape:pageopacity="0.0"
     inkscape:pagecheckerboard="0"
     inkscape:deskcolor="#d1d1d1"
     inkscape:zoom="2.7414459"
     inkscape:cx="267.55954"
     inkscape:cy="104.87167"
     inkscape:window-width="1920"
     inkscape:window-height="1009"
     inkscape:window-x="-8"
     inkscape:window-y="-8"
     inkscape:window-maximized="1"
     inkscape:current-layer="svg97" />
  <path
     class="connection real"
     stroke-dasharray="none"
     d="m 68.892883,155 q 2.05,-3.41 4.87,-1.79 3.83,1.23 4.92,-1.86 1.08,-3.09 4.97,-1.93 2.93,1.53 4.01,-1.59 2.08,-3.54 5.05,-2.06 2.99,1.47 5.08,-2.12 1.06,-3.17 4.079997,-1.75 3.05,1.4 5.13,-2.24 1.03,-3.2 4.11,-1.84 3.1,1.34 4.13,-1.88 2.04,-3.7 5.16,-2.41 3.14,1.28 4.13,-1.97 0.98,-3.25 5.17,-2.52 3.18,1.22 4.13,-2.05 0.92,-3.28 4.12,-2.1 3.2,1.16 4.11,-2.13 1.9,-3.83 5.12,-2.72 3.23,1.1 4.08,-2.21 0.82,-3.31 4.06,-2.25 4.27,0.47 5.04,-2.85 0.76,-3.32 4.01,-2.33 3.27,0.98 3.98,-2.35 1.67,-3.93 4.93,-3 3.28,0.92 3.91,-2.43 0.6,-3.33 3.87,-2.46 4.24,0.23 4.78,-3.11 0.5,-3.34 3.77,-2.53 3.28,0.78 4.65,-3.2 0.4,-3.34 3.67,-2.6 3.28,0.72 4.5,-3.28 0.28,-3.32 3.55,-2.65 3.27,0.64 4.34,-3.36 0.15,-3.31 3.41,-2.72 4.1,-0.12 4.16,-3.42 0.01,-3.29 3.25,-2.78 4.05,-0.22 3.97,-3.49 0.62,-3.96 3.84,-3.54 3.23,0.39 3.73,-3.56 -0.32,-3.21 3.59,-3.61 3.21,0.28 3.46,-3.63 -0.51,-3.15 3.32,-3.67 3.18,0.16 3.17,-3.7 l 0.62,-0.74 4.71,-5.98"
     style="fill:none;fill-opacity:1;stroke:#808080;stroke-width:2px;stroke-opacity:1"
     id="path1" />
  <path
     d="m 251.28967,50.155558 2.5032,-14.65056 -13.003,7.208034 7.85626,0.0529 z"
     id="path2"
     style="fill:#808080;fill-opacity:1;stroke:none;stroke-width:2px" />
  <path
     class="connection real"
     stroke-dasharray="none"
     d="m 261.81288,18.67 c 86.27,-9.35 91.83,87.36 32.25,123.24"
     style="fill:none;fill-opacity:1;stroke:#000000;stroke-width:2px"
     id="path3" />
  <path
     d="m 299.91659,131.39978 -8.62372,12.10522 14.84357,-0.83799 -7.05193,-3.46322 z"
     id="path4"
     style="fill:#000000;stroke:none;stroke-width:2px" />
  <path
     class="connection real"
     stroke-dasharray="none"
     d="m 270.89288,148 c -72.4,-14.6 -163.81,-40.7 -206.679997,-100.25"
     style="fill:none;fill-opacity:1;stroke:#000000;stroke-width:2px"
     id="path5" />
  <path
     d="m 75.159833,52.444512 -12.86696,-7.439509 2.23888,14.697655 2.78035,-7.348007 z"
     id="path6"
     style="fill:#000000;stroke:none;stroke-width:2px" />
  <path
     class="connection real"
     stroke-dasharray="none"
     d="m 270.89288,148 q -0.66,-3.81 2.59,-4.45 3.57,-1.3 2.36,-4.33 -0.98,-3.56 2.43,-4.83 3.39,-1.33 1.9,-4.12 -1.32,-3.28 1.91,-4.6 3.42,-1.98 1.84,-5.06 -1.68,-2.95 1.5,-4.94 3,-1.56 1.19,-4.84 -2.03,-2.59 0.88,-4.76 2.85,-2.32 0.59,-4.7 -2.29,-2.73 0.32,-5.15 2.53,-2.57 -0.02,-5.12 -2.63,-2.37 -0.35,-5.09 2.25,-2.34 -0.58,-4.59 -2.88,-2.11 -0.92,-5.12 1.86,-3.14 -1.08,-4.64 -3.1,-1.94 -1.45,-5.23 1.73,-2.86 -1.52,-4.77 -3.1,-1.32 -1.52,-4.31 1.31,-3.64 -1.89,-4.95 -3.21,-1.3 -1.83,-4.5 l -0.96,-2.28 -3.09,-7.03"
     style="fill:none;fill-opacity:1;stroke:#808080;stroke-width:2px;stroke-opacity:1"
     id="path7" />
  <path
     d="m 283.21742,45.012082 -11.42455,-9.507078 -0.27732,14.864612 3.98222,-6.772411 z"
     id="path8"
     style="fill:#808080;fill-opacity:1;stroke:none;stroke-width:2px" />
  <path
     class="connection real"
     stroke-dasharray="none"
     d="m 68.892883,155 q 3.05,-2.22 5.6,0.54 2.51,2.75 4.57,0.43 2.93,-2.23 5.38,0.51 2.42,2.74 4.41,0.41 2.83,-2.26 5.2,0.47 2.35,2.71 5.12,0.44 2.749997,-2.27 5.049997,0.43 2.31,2.69 5,0.39 2.66,-2.3 4.94,0.38 2.28,2.66 4.9,0.34 2.6,-2.34 4.87,0.31 2.28,2.64 4.85,0.28 2.55,-2.37 5.65,0.29 2.32,2.61 4.85,0.21 2.52,-2.41 4.87,0.17 2.37,2.57 4.88,0.14 2.51,-2.45 4.93,0.1 2.45,2.53 4.97,0.05 2.51,-2.48 5.03,0.02 2.55,2.49 5.09,-0.03 2.54,-2.53 5.17,-0.07 2.68,2.45 5.26,-0.12 1.71,-2.54 4.46,-0.13 2.81,2.4 5.45,-0.2 1.73,-2.58 4.63,-0.21 2.96,2.35 4.72,-0.25 2.73,-2.66 5.79,-0.34 2.13,2.37 4.94,-0.33 1.82,-2.63 5.04,-0.36 2.24,2.34 4.12,-0.32 2.92,-2.75 5.25,-0.43 3.43,2.2 5.37,-0.48 1.96,-2.69 4.4,-0.41 3.6,2.16 5.62,-0.55 l 3.43,-0.35 7.04,-0.75"
     style="fill:none;fill-opacity:1;stroke:#808080;stroke-width:2px;stroke-opacity:1"
     id="path9" />
  <path
     d="m 240.79314,163.05736 12.59974,-7.88361 -14.03435,-4.90618 5.18982,5.89825 z"
     id="path10"
     style="fill:#808080;fill-opacity:1;stroke:none;stroke-width:2px" />
  <path
     class="connection real"
     stroke-dasharray="none"
     d="M 56.532883,25.4 C 24.522883,-1.69 216.49288,71.91 259.53288,129.55"
     style="fill:none;fill-opacity:1;stroke:#000000;stroke-width:2px"
     id="path11" />
  <path
     d="m 248.57949,124.64236 12.8134,7.53139 -2.13365,-14.7133 -2.83286,7.32793 z"
     id="path12"
     style="fill:#000000;stroke:none;stroke-width:2px" />
  <path
     class="connection real"
     stroke-dasharray="none"
     d="m 56.532883,25.4 c -42.43,35.51 -34.29,85.97 -4.56,114.06"
     style="fill:none;fill-opacity:1;stroke:#000000;stroke-width:2px"
     id="path13" />
  <path
     d="m 40.438864,138.1492 14.354009,3.8558 -5.96661,-13.61738 -0.78382,7.81724 z"
     id="path14"
     style="fill:#000000;stroke:none;stroke-width:2px" />
  <path
     class="real"
     d="m 39.212883,25.4 c -0.14,-9.89 7.49,-17.9 17.06,-17.9 9.56,0 17.43,8.01 17.58,17.9 0.15,9.88 -7.49,17.9 -17.05,17.9 -9.57,0 -17.44,-8.02 -17.59,-17.9 z"
     style="fill:#ffffff;fill-opacity:1;stroke:#000000;stroke-width:2px"
     id="path15" />
  <path
     class="real"
     d="m 253.22288,148 c 0,-9.76 7.91,-17.67 17.67,-17.67 9.76,0 17.67,7.91 17.67,17.67 0,9.75 -7.91,17.66 -17.67,17.66 -9.76,0 -17.67,-7.91 -17.67,-17.66 z"
     style="fill:#ffffff;fill-opacity:1;stroke:#000000;stroke-width:2px"
     id="path16" />
  <path
     class="real"
     d="m 256.37288,148 c 0,-8.02 6.5,-14.52 14.52,-14.52 8.02,0 14.52,6.5 14.52,14.52 0,8.02 -6.5,14.52 -14.52,14.52 -8.02,0 -14.52,-6.5 -14.52,-14.52 z"
     style="fill:#ffffff;fill-opacity:1;stroke:#000000;stroke-width:2px"
     id="path17" />
  <path
     class="real"
     d="m 244.14288,18.67 c 0,-9.76 7.91,-17.67 17.67,-17.67 9.75,0 17.66,7.91 17.66,17.67 0,9.76 -7.91,17.67 -17.66,17.67 -9.76,0 -17.67,-7.91 -17.67,-17.67 z"
     style="fill:#ffffff;fill-opacity:1;stroke:#000000;stroke-width:2px"
     id="path18" />
  <path
     class="real"
     d="m 51.222883,155 c 0,-9.76 7.91,-17.67 17.67,-17.67 9.76,0 17.67,7.91 17.67,17.67 0,9.75 -7.91,17.66 -17.67,17.66 -9.76,0 -17.67,-7.91 -17.67,-17.66 z"
     style="fill:#ffffff;fill-opacity:1;stroke:#000000;stroke-width:2px"
     id="path19" />
  <path
     class="real"
     d="m 54.372883,155 c 0,-8.02 6.5,-14.52 14.52,-14.52 8.02,0 14.52,6.5 14.52,14.52 0,8.02 -6.5,14.52 -14.52,14.52 -8.02,0 -14.52,-6.5 -14.52,-14.52 z"
     style="fill:#ffffff;fill-opacity:1;stroke:#000000;stroke-width:2px"
     id="path20" />
  <path
     class="connection real"
     stroke-dasharray="none"
     d="m 74.562883,17.99 q 1.44,-3.26 4.7,-1.82 3.18,1.51 4.7,-1.66 1.6,-3.16 5.51,-1.76 3.05,1.72 4.73,-1.34 1.76,-3.05 4.74,-1.21 2.929997,1.88 4.759997,-1.07 1.9,-2.94 4.77,-0.94 2.8,2.04 4.78,-0.81 2.04,-2.83 4.8,-0.69 3.48,2.1 5.61,-0.64 2.2,-2.72 4.83,-0.43 2.59,2.32 4.85,-0.32 2.33,-2.61 4.87,-0.2 2.49,2.43 4.88,-0.1 2.45,-2.52 4.91,0 2.41,2.53 4.92,0.09 3.4,-2.38 5.77,0.23 2.34,2.64 4.97,0.3 2.69,-2.32 5,0.38 2.27,2.71 5.01,0.46 2.78,-2.23 4.2,0.44 2.23,2.77 5.06,0.6 2.87,-2.15 5.09,0.67 2.2,2.83 5.11,0.73 2.95,-2.08 5.14,0.8 2.17,2.89 5.17,0.86 2.16,-2.17 4.33,0.75 2.15,2.93 5.22,0.96 3.09,-1.97 4.37,0.83 2.15,2.96 5.28,1.03 3.15,-1.91 5.31,1.08 1.26,2.82 4.44,0.93 l 0.9,0.19 7.17,1.54"
     style="fill:none;fill-opacity:1;stroke:#808080;stroke-width:2px;stroke-opacity:1"
     id="path21" />
  <path
     d="m 229.67591,22.077443 14.46697,-3.407599 -11.70771,-9.163137 3.01466,7.255026 z"
     id="path22"
     style="fill:#808080;fill-opacity:1;stroke:none;stroke-width:2px" />
  <path
     d="m 56.249553,22.927963 c 0,-0.765 -0.731,-1.462 -2.023,-1.462 -2.244,0 -2.873,1.734 -2.873,2.482 0,1.326 1.258,1.581 1.751,1.683 0.884,0.17 1.768,0.357 1.768,1.292 0,0.442 -0.391,1.87 -2.431,1.87 -0.238,0 -1.547,0 -1.938,-0.901 0.646,0.085 1.071,-0.425 1.071,-0.901 0,-0.391 -0.272,-0.595 -0.629,-0.595 -0.442,0 -0.952,0.357 -0.952,1.122 0,0.969 0.969,1.649 2.431,1.649 2.754,0 3.417,-2.057 3.417,-2.822 0,-0.612 -0.323,-1.037 -0.527,-1.241 -0.459,-0.476 -0.952,-0.561 -1.7,-0.714 -0.612,-0.136 -1.292,-0.255 -1.292,-1.02 0,-0.493 0.408,-1.53 1.904,-1.53 0.425,0 1.275,0.119 1.53,0.782 -0.476,0.017 -0.816,0.391 -0.816,0.765 0,0.238 0.153,0.493 0.527,0.493 0.374,0 0.782,-0.289 0.782,-0.952 z"
     stroke="#000000"
     stroke-opacity="1"
     stroke-width="0.136"
     fill="#000000"
     fill-opacity="1"
     id="path28"
     style="font-family:LatinModern-Math, LatinModern, Asana-Math, Asana" />
  <path
     d="m 62.578993,32.313313 v -0.3689 h -0.3808 c -1.071,0 -1.1067,-0.1309 -1.1067,-0.5712 v -6.6759 c 0,-0.2856 0,-0.3094 -0.2737,-0.3094 -0.7378,0.7616 -1.785,0.7616 -2.1658,0.7616 v 0.3689 c 0.238,0 0.9401,0 1.5589,-0.3094 v 6.1642 c 0,0.4284 -0.0357,0.5712 -1.1067,0.5712 h -0.3808 v 0.3689 c 0.4165,-0.0357 1.4518,-0.0357 1.9278,-0.0357 0.476,0 1.5113,0 1.9278,0.0357 z"
     stroke="#000000"
     stroke-opacity="1"
     stroke-width="0.0952"
     fill="#000000"
     fill-opacity="1"
     id="path30"
     style="font-family:LatinModern-Math, LatinModern, Asana-Math, Asana" />
  <path
     d="m 69.116253,152.86131 c 0,-0.765 -0.731,-1.462 -2.023,-1.462 -2.244,0 -2.873,1.734 -2.873,2.482 0,1.326 1.258,1.581 1.751,1.683 0.884,0.17 1.768,0.357 1.768,1.292 0,0.442 -0.391,1.87 -2.431,1.87 -0.238,0 -1.547,0 -1.938,-0.901 0.646,0.085 1.071,-0.425 1.071,-0.901 0,-0.391 -0.272,-0.595 -0.629,-0.595 -0.442,0 -0.952,0.357 -0.952,1.122 0,0.969 0.969,1.649 2.431,1.649 2.754,0 3.417,-2.057 3.417,-2.822 0,-0.612 -0.323,-1.037 -0.527,-1.241 -0.459,-0.476 -0.952,-0.561 -1.7,-0.714 -0.612,-0.136 -1.292,-0.255 -1.292,-1.02 0,-0.493 0.408,-1.53 1.904,-1.53 0.425,0 1.275,0.119 1.53,0.782 -0.476,0.017 -0.816,0.391 -0.816,0.765 0,0.238 0.153,0.493 0.527,0.493 0.374,0 0.782,-0.289 0.782,-0.952 z"
     stroke="#000000"
     stroke-opacity="1"
     stroke-width="0.136"
     fill="#000000"
     fill-opacity="1"
     id="path37"
     style="font-family:LatinModern-Math, LatinModern, Asana-Math, Asana" />
  <path
     d="m 75.802633,160.17606 h -0.2975 c -0.0595,0.357 -0.1428,0.8806 -0.2618,1.0591 -0.0833,0.0952 -0.8687,0.0952 -1.1305,0.0952 h -2.142 l 1.2614,-1.2257 c 1.8564,-1.6422 2.5704,-2.2848 2.5704,-3.4748 0,-1.3566 -1.071,-2.3086 -2.5228,-2.3086 -1.3447,0 -2.2253,1.0948 -2.2253,2.1539 0,0.6664 0.595,0.6664 0.6307,0.6664 0.2023,0 0.6188,-0.1428 0.6188,-0.6307 0,-0.3094 -0.2142,-0.6188 -0.6307,-0.6188 -0.0952,0 -0.119,0 -0.1547,0.0119 0.2737,-0.7735 0.9163,-1.2138 1.6065,-1.2138 1.0829,0 1.5946,0.9639 1.5946,1.9397 0,0.952 -0.595,1.8921 -1.2495,2.6299 l -2.2848,2.5466 c -0.1309,0.1309 -0.1309,0.1547 -0.1309,0.4403 h 4.4149 z"
     stroke="#000000"
     stroke-opacity="1"
     stroke-width="0.0952"
     fill="#000000"
     fill-opacity="1"
     id="path39"
     style="font-family:LatinModern-Math, LatinModern, Asana-Math, Asana" />
  <path
     d="m 262.63286,14.577988 c 0,-0.765 -0.731,-1.462 -2.023,-1.462 -2.244,0 -2.873,1.734 -2.873,2.482 0,1.326 1.258,1.581 1.751,1.683 0.884,0.17 1.768,0.357 1.768,1.292 0,0.442 -0.391,1.87 -2.431,1.87 -0.238,0 -1.547,0 -1.938,-0.901 0.646,0.085 1.071,-0.425 1.071,-0.901 0,-0.391 -0.272,-0.595 -0.629,-0.595 -0.442,0 -0.952,0.357 -0.952,1.122 0,0.969 0.969,1.649 2.431,1.649 2.754,0 3.417,-2.057 3.417,-2.822 0,-0.612 -0.323,-1.037 -0.527,-1.241 -0.459,-0.476 -0.952,-0.561 -1.7,-0.714 -0.612,-0.136 -1.292,-0.255 -1.292,-1.02 0,-0.493 0.408,-1.53 1.904,-1.53 0.425,0 1.275,0.119 1.53,0.782 -0.476,0.017 -0.816,0.391 -0.816,0.765 0,0.238 0.153,0.493 0.527,0.493 0.374,0 0.782,-0.289 0.782,-0.952 z"
     stroke="#000000"
     stroke-opacity="1"
     stroke-width="0.136"
     fill="#000000"
     fill-opacity="1"
     id="path46"
     style="font-family:LatinModern-Math, LatinModern, Asana-Math, Asana" />
  <path
     d="m 269.41455,21.928437 c 0,-0.9758 -0.7497,-1.904 -1.9873,-2.1539 0.9758,-0.3213 1.666,-1.1543 1.666,-2.0944 0,-0.9758 -1.0472,-1.6422 -2.1896,-1.6422 -1.2019,0 -2.1063,0.714 -2.1063,1.6184 0,0.3927 0.2618,0.6188 0.6069,0.6188 0.3689,0 0.6069,-0.2618 0.6069,-0.6069 0,-0.595 -0.5593,-0.595 -0.7378,-0.595 0.3689,-0.5831 1.1543,-0.7378 1.5827,-0.7378 0.4879,0 1.1424,0.2618 1.1424,1.3328 0,0.1428 -0.0238,0.833 -0.3332,1.3566 -0.357,0.5712 -0.7616,0.6069 -1.0591,0.6188 -0.0952,0.0119 -0.3808,0.0357 -0.4641,0.0357 -0.0952,0.0119 -0.1785,0.0238 -0.1785,0.1428 0,0.1309 0.0833,0.1309 0.2856,0.1309 h 0.5236 c 0.9758,0 1.4161,0.8092 1.4161,1.9754 0,1.6184 -0.8211,1.9635 -1.3447,1.9635 -0.5117,0 -1.4042,-0.2023 -1.8207,-0.9044 0.4165,0.0595 0.7854,-0.2023 0.7854,-0.6545 0,-0.4284 -0.3213,-0.6664 -0.6664,-0.6664 -0.2856,0 -0.6664,0.1666 -0.6664,0.6902 0,1.0829 1.1067,1.8683 2.4038,1.8683 1.4518,0 2.5347,-1.0829 2.5347,-2.2967 z"
     stroke="#000000"
     stroke-opacity="1"
     stroke-width="0.0952"
     fill="#000000"
     fill-opacity="1"
     id="path48"
     style="font-family:LatinModern-Math, LatinModern, Asana-Math, Asana" />
  <text
     x="-0.19042969"
     y="83.530014"
     style="font-style:normal;font-weight:400;font-size:15px;font-family:'Times New Roman', Times, serif;dominant-baseline:text-before-edge;white-space:pre;fill:#000000;fill-opacity:1;stroke:none"
     id="text55">∆,π</text>
  <path
     d="m 270.61625,145.36131 c 0,-0.765 -0.731,-1.462 -2.023,-1.462 -2.244,0 -2.873,1.734 -2.873,2.482 0,1.326 1.258,1.581 1.751,1.683 0.884,0.17 1.768,0.357 1.768,1.292 0,0.442 -0.391,1.87 -2.431,1.87 -0.238,0 -1.547,0 -1.938,-0.901 0.646,0.085 1.071,-0.425 1.071,-0.901 0,-0.391 -0.272,-0.595 -0.629,-0.595 -0.442,0 -0.952,0.357 -0.952,1.122 0,0.969 0.969,1.649 2.431,1.649 2.754,0 3.417,-2.057 3.417,-2.822 0,-0.612 -0.323,-1.037 -0.527,-1.241 -0.459,-0.476 -0.952,-0.561 -1.7,-0.714 -0.612,-0.136 -1.292,-0.255 -1.292,-1.02 0,-0.493 0.408,-1.53 1.904,-1.53 0.425,0 1.275,0.119 1.53,0.782 -0.476,0.017 -0.816,0.391 -0.816,0.765 0,0.238 0.153,0.493 0.527,0.493 0.374,0 0.782,-0.289 0.782,-0.952 z"
     stroke="#000000"
     stroke-opacity="1"
     stroke-width="0.136"
     fill="#000000"
     fill-opacity="1"
     id="path58"
     style="font-family:LatinModern-Math, LatinModern, Asana-Math, Asana" />
  <path
     d="m 277.56443,152.78316 v -0.3689 h -1.19 v -5.4145 c 0,-0.238 0,-0.3094 -0.1904,-0.3094 -0.1071,0 -0.1428,0 -0.238,0.1428 l -3.6533,5.5811 v 0.3689 h 3.1654 v 1.0353 c 0,0.4284 -0.0238,0.5593 -0.9044,0.5593 h -0.2499 v 0.3689 c 0.4879,-0.0357 1.1067,-0.0357 1.6065,-0.0357 0.4998,0 1.1305,0 1.6184,0.0357 v -0.3689 h -0.2499 c -0.8806,0 -0.9044,-0.1309 -0.9044,-0.5593 v -1.0353 z m -2.0349,-0.3689 h -2.9036 l 2.9036,-4.4387 z"
     stroke="#000000"
     stroke-opacity="1"
     stroke-width="0.0952"
     fill="#000000"
     fill-opacity="1"
     id="path60"
     style="font-family:LatinModern-Math, LatinModern, Asana-Math, Asana" />
  <text
     x="163.30957"
     y="39.530014"
     style="font-style:normal;font-weight:400;font-size:15px;font-family:'Times New Roman', Times, serif;dominant-baseline:text-before-edge;white-space:pre;fill:#000000;fill-opacity:1;stroke:none"
     id="text67">μ</text>
  <text
     x="117.30957"
     y="73.030014"
     style="font-style:normal;font-weight:400;font-size:15px;font-family:'Times New Roman', Times, serif;dominant-baseline:text-before-edge;white-space:pre;fill:#000000;fill-opacity:1;stroke:none"
     id="text70">μ,π</text>
  <text
     x="344.30951"
     y="70.530014"
     style="font-style:normal;font-weight:400;font-size:15px;font-family:'Times New Roman', Times, serif;dominant-baseline:text-before-edge;white-space:pre;fill:#000000;fill-opacity:1;stroke:none"
     id="text73">∆,π</text>
  <path
     d="m 110.39988,207.07331 c 0,-0.187 -0.17,-0.187 -0.391,-0.187 -1.054,0 -1.054,-0.119 -1.105,-0.612 l -1.037,-10.625 c -0.034,-0.34 -0.034,-0.408 -0.323,-0.408 -0.272,0 -0.34,0.119 -0.442,0.289 l -5.916,9.928 c -0.68,1.139 -1.342997,1.377 -2.090997,1.428 -0.204,0.017 -0.357,0.017 -0.357,0.34 0,0.102 0.085,0.187 0.221,0.187 0.459,0 0.986,-0.051 1.461997,-0.051 0.561,0 1.156,0.051 1.7,0.051 0.102,0 0.323,0 0.323,-0.323 0,-0.187 -0.153,-0.204 -0.272,-0.204 -0.391,-0.034 -0.799,-0.17 -0.799,-0.595 0,-0.204 0.102,-0.391 0.238,-0.629 0.119,-0.204 0.136,-0.204 1.292,-2.176 h 4.267 c 0.034,0.357 0.272,2.669 0.272,2.839 0,0.51 -0.884,0.561 -1.224,0.561 -0.238,0 -0.408,0 -0.408,0.34 0,0.187 0.238,0.187 0.238,0.187 0.697,0 1.428,-0.051 2.125,-0.051 0.425,0 1.496,0.051 1.921,0.051 0.102,0 0.306,0 0.306,-0.34 z m -3.281,-4.114 h -3.893 l 3.349,-5.61 z"
     stroke="#000000"
     stroke-opacity="1"
     stroke-width="0.136"
     fill="#000000"
     fill-opacity="1"
     id="path76"
     style="font-family:LatinModern-Math, LatinModern, Asana-Math, Asana" />
  <path
     d="m 133.91688,201.51431 c 0,-0.187 -0.153,-0.34 -0.34,-0.34 h -10.642 c -0.187,0 -0.34,0.153 -0.34,0.34 0,0.187 0.153,0.34 0.34,0.34 h 10.642 c 0.187,0 0.34,-0.153 0.34,-0.34 z m 0,3.298 c 0,-0.187 -0.153,-0.34 -0.34,-0.34 h -10.642 c -0.187,0 -0.34,0.153 -0.34,0.34 0,0.187 0.153,0.34 0.34,0.34 h 10.642 c 0.187,0 0.34,-0.153 0.34,-0.34 z"
     stroke="#000000"
     stroke-opacity="1"
     stroke-width="0.136"
     fill="#000000"
     fill-opacity="1"
     id="path78"
     style="font-family:LatinModern-Math, LatinModern, Asana-Math, Asana" />
  <path
     d="m 147.20125,211.79263 c 0,-0.119 -0.085,-0.204 -0.204,-0.204 -1.275,0 -2.21,-0.833 -2.21,-1.717 v -4.25 c 0,-0.986 -0.816,-1.768 -1.955,-2.125 1.139,-0.357 1.955,-1.139 1.955,-2.125 v -4.25 c 0,-0.884 0.935,-1.717 2.21,-1.717 0.119,0 0.204,-0.085 0.204,-0.204 0,-0.119 -0.085,-0.204 -0.204,-0.204 -1.785,0 -3.332,0.884 -3.332,2.125 v 4.25 c 0,0.986 -0.935,1.921 -2.21,1.921 -0.119,0 -0.204,0.085 -0.204,0.204 0,0.119 0.085,0.204 0.204,0.204 1.275,0 2.21,0.935 2.21,1.921 v 4.25 c 0,1.241 1.547,2.125 3.332,2.125 0.119,0 0.204,-0.085 0.204,-0.204 z"
     stroke="#000000"
     stroke-opacity="1"
     stroke-width="0.136"
     fill="#000000"
     fill-opacity="1"
     id="path80"
     style="font-family:LatinModern-Math, LatinModern, Asana-Math, Asana" />
  <path
     d="m 162.70523,207.24331 c 0,-0.068 -0.017,-0.17 -0.034,-0.238 l -2.839,-11.356 c -0.085,-0.34 -0.102,-0.408 -0.408,-0.408 -0.153,0 -0.289,0 -0.527,0.323 l -8.602,11.509 c -0.136,0.17 -0.136,0.238 -0.136,0.238 0,0.085 0.017,0.102 0.374,0.102 h 11.73 c 0.289,0 0.442,0 0.442,-0.17 z m -1.836,-1.054 h -9.333 l 7.004,-9.35 z"
     stroke="#000000"
     stroke-opacity="1"
     stroke-width="0.136"
     fill="#000000"
     fill-opacity="1"
     id="path82"
     style="font-family:LatinModern-Math, LatinModern, Asana-Math, Asana" />
  <path
     d="m 166.94386,207.39631 c 0,-1.122 -0.425,-1.785 -1.088,-1.785 -0.561,0 -0.901,0.425 -0.901,0.901 0,0.459 0.34,0.901 0.901,0.901 0.204,0 0.425,-0.068 0.595,-0.221 0.051,-0.034 0.085,-0.051 0.085,-0.051 0,0 0.034,0.017 0.034,0.255 0,1.258 -0.595,2.278 -1.156,2.839 -0.187,0.187 -0.187,0.221 -0.187,0.272 0,0.119 0.085,0.187 0.17,0.187 0.187,0 1.547,-1.309 1.547,-3.298 z"
     stroke="#000000"
     stroke-opacity="1"
     stroke-width="0.136"
     fill="#000000"
     fill-opacity="1"
     id="path84"
     style="font-family:LatinModern-Math, LatinModern, Asana-Math, Asana" />
  <path
     d="m 181.26522,200.49431 c 0,-0.408 -0.357,-0.408 -0.68,-0.408 h -5.695 c -0.374,0 -1.02,0 -1.768,0.799 -0.595,0.663 -1.037,1.445 -1.037,1.53 0,0 0,0.17 0.204,0.17 0.136,0 0.17,-0.068 0.272,-0.204 0.833,-1.309 1.819,-1.309 2.159,-1.309 h 0.969 c -0.544,2.057 -1.462,4.114 -2.176,5.661 -0.136,0.255 -0.136,0.289 -0.136,0.408 0,0.323 0.272,0.459 0.493,0.459 0.51,0 0.646,-0.476 0.85,-1.105 0.238,-0.782 0.238,-0.816 0.459,-1.666 l 0.952,-3.757 h 1.921 c -0.561,2.516 -0.714,3.247 -0.714,4.386 0,0.255 0,0.714 0.136,1.292 0.17,0.748 0.357,0.85 0.612,0.85 0.34,0 0.697,-0.306 0.697,-0.646 0,-0.102 0,-0.136 -0.102,-0.374 -0.493,-1.224 -0.493,-2.329 -0.493,-2.805 0,-0.901 0.119,-1.819 0.306,-2.703 h 1.938 c 0.221,0 0.833,0 0.833,-0.578 z"
     stroke="#000000"
     stroke-opacity="1"
     stroke-width="0.136"
     fill="#000000"
     fill-opacity="1"
     id="path86"
     style="font-family:LatinModern-Math, LatinModern, Asana-Math, Asana" />
  <path
     d="m 184.76057,207.39631 c 0,-1.122 -0.425,-1.785 -1.088,-1.785 -0.561,0 -0.901,0.425 -0.901,0.901 0,0.459 0.34,0.901 0.901,0.901 0.204,0 0.425,-0.068 0.595,-0.221 0.051,-0.034 0.085,-0.051 0.085,-0.051 0,0 0.034,0.017 0.034,0.255 0,1.258 -0.595,2.278 -1.156,2.839 -0.187,0.187 -0.187,0.221 -0.187,0.272 0,0.119 0.085,0.187 0.17,0.187 0.187,0 1.547,-1.309 1.547,-3.298 z"
     stroke="#000000"
     stroke-opacity="1"
     stroke-width="0.136"
     fill="#000000"
     fill-opacity="1"
     id="path88"
     style="font-family:LatinModern-Math, LatinModern, Asana-Math, Asana" />
  <path
     d="m 199.16687,204.98231 c 0,-0.17 -0.153,-0.17 -0.204,-0.17 -0.17,0 -0.187,0.068 -0.238,0.306 -0.289,1.105 -0.595,2.108 -1.292,2.108 -0.459,0 -0.51,-0.442 -0.51,-0.782 0,-0.374 0.204,-1.173 0.34,-1.768 l 0.476,-1.836 c 0.051,-0.255 0.221,-0.901 0.289,-1.156 0.085,-0.391 0.255,-1.037 0.255,-1.139 0,-0.306 -0.238,-0.459 -0.493,-0.459 -0.085,0 -0.527,0.017 -0.663,0.595 l -0.799,3.179 -0.442,1.734 c -0.017,0.085 -0.833,1.632 -2.21,1.632 -0.85,0 -1.258,-0.561 -1.258,-1.479 0,-0.493 0.119,-0.969 0.238,-1.445 l 0.714,-2.856 c 0.085,-0.357 0.255,-1.003 0.255,-1.088 0,-0.289 -0.204,-0.459 -0.493,-0.459 -0.051,0 -0.527,0.017 -0.68,0.612 l -2.448,9.843 c -0.051,0.204 -0.051,0.272 -0.051,0.272 0,0.255 0.187,0.459 0.476,0.459 0.357,0 0.561,-0.306 0.595,-0.357 0.068,-0.153 0.289,-1.037 0.935,-3.655 0.544,0.459 1.309,0.527 1.649,0.527 1.19,0 1.853,-0.765 2.261,-1.241 0.153,0.765 0.782,1.241 1.53,1.241 0.595,0 0.986,-0.391 1.258,-0.935 0.289,-0.612 0.51,-1.683 0.51,-1.683 z"
     stroke="#000000"
     stroke-opacity="1"
     stroke-width="0.136"
     fill="#000000"
     fill-opacity="1"
     id="path90"
     style="font-family:LatinModern-Math, LatinModern, Asana-Math, Asana" />
  <path
     d="m 207.7679,203.49663 c 0,-0.119 -0.085,-0.204 -0.204,-0.204 -1.275,0 -2.21,-0.935 -2.21,-1.921 v -4.25 c 0,-1.241 -1.547,-2.125 -3.332,-2.125 -0.119,0 -0.204,0.085 -0.204,0.204 0,0.119 0.085,0.204 0.204,0.204 1.275,0 2.21,0.833 2.21,1.717 v 4.25 c 0,0.986 0.816,1.768 1.955,2.125 -1.139,0.357 -1.955,1.139 -1.955,2.125 v 4.25 c 0,0.884 -0.935,1.717 -2.21,1.717 -0.119,0 -0.204,0.085 -0.204,0.204 0,0.119 0.085,0.204 0.204,0.204 1.785,0 3.332,-0.884 3.332,-2.125 v -4.25 c 0,-0.986 0.935,-1.921 2.21,-1.921 0.119,0 0.204,-0.085 0.204,-0.204 z"
     stroke="#000000"
     stroke-opacity="1"
     stroke-width="0.136"
     fill="#000000"
     fill-opacity="1"
     id="path92"
     style="font-family:LatinModern-Math, LatinModern, Asana-Math, Asana" />
</svg>
