<?xml version="1.0" encoding="UTF-8" standalone="no"?>
<svg
   x="0"
   y="0"
   width="263.46033"
   height="170.57411"
   style="fill:none"
   version="1.1"
   id="svg49"
   sodipodi:docname="silent_3state.svg"
   inkscape:version="1.4 (86a8ad7, 2024-10-11)"
   xmlns:inkscape="http://www.inkscape.org/namespaces/inkscape"
   xmlns:sodipodi="http://sodipodi.sourceforge.net/DTD/sodipodi-0.dtd"
   xmlns="http://www.w3.org/2000/svg"
   xmlns:svg="http://www.w3.org/2000/svg">
  <defs
     id="defs49" />
  <sodipodi:namedview
     id="namedview49"
     pagecolor="#ffffff"
     bordercolor="#000000"
     borderopacity="0.25"
     inkscape:showpageshadow="2"
     inkscape:pageopacity="0.0"
     inkscape:pagecheckerboard="0"
     inkscape:deskcolor="#d1d1d1"
     inkscape:zoom="2.5820207"
     inkscape:cx="318.16166"
     inkscape:cy="87.334699"
     inkscape:window-width="1920"
     inkscape:window-height="1009"
     inkscape:window-x="-8"
     inkscape:window-y="-8"
     inkscape:window-maximized="1"
     inkscape:current-layer="svg49" />
  <path
     class="connection real"
     stroke-dasharray="none"
     d="m 101.96138,151.90411 q 2.16,-3.42 5.2,-1.85 3.03,1.57 4.32,-1.56 1.95,-3.37 4.88,-1.79 3.6,1.32 4.71,-1.78 1.7,-3.34 4.53,-1.77 3.46,1.3 4.98,-2.03 0.83,-3.06 4.18,-1.79 3.35,1.24 4.58,-2.08 1.12,-3.3 4.38,-2.12 3.8,0.85 4.67,-2.47 0.75,-3.29 4.43,-2.56 3.23,0.94 4.18,-2.68 0.33,-3.27 3.94,-2.82 3.66,0.31 4.1,-3.32 -0.13,-3.23 3.44,-3.18 3.64,-0.14 3.57,-3.78 -0.26,-3.57 2.98,-3.64 3.61,-0.68 3.06,-4.33 -0.98,-3.13 2.54,-4.18 3.28,-0.79 2.34,-4.480005 -1.3,-3.12 1.91,-4.24 3.46,-1.89 1.98,-5.09 l 0.81,-2.37 2.24,-7.54"
     style="fill:none;fill-opacity:1;stroke:#808080;stroke-width:2px;stroke-opacity:1"
     id="path1" />
  <path
     d="m 193.92676,89.542225 -3.15206,-14.52479 -9.36808,11.54438 7.30704,-2.88631 z"
     id="path2"
     style="fill:#808080;fill-opacity:1;stroke:none;stroke-width:2px" />
  <path
     class="connection real"
     stroke-dasharray="none"
     d="m 101.96138,151.90411 c -23.269998,-29.18 -38.659998,-51.31 -38.449998,-90.770005"
     style="fill:none;fill-opacity:1;stroke:#000000;stroke-width:2px"
     id="path3" />
  <path
     d="M 69.611461,70.999134 63.574707,57.417437 56.746928,70.624065 63.315335,66.313657 Z"
     id="path4"
     style="fill:#000000;stroke:none;stroke-width:2px" />
  <path
     class="connection real"
     stroke-dasharray="none"
     d="m 69.211382,39.394105 c -81.89,35.41 -30.24,103.750005 11.26,111.930005"
     style="fill:none;fill-opacity:1;stroke:#000000;stroke-width:2px"
     id="path5" />
  <path
     d="m 70.282243,156.86872 14.009139,-4.96477 -12.637054,-7.83188 3.787774,6.88304 z"
     id="path6"
     style="fill:#000000;stroke:none;stroke-width:2px" />
  <path
     class="connection real"
     stroke-dasharray="none"
     d="m 188.04138,56.234105 c 86.81,-34.79 73.58,20.24 19.93,11.16"
     style="fill:none;fill-opacity:1;stroke:#000000;stroke-width:2px"
     id="path7" />
  <path
     d="m 219.08605,63.256489 -14.44466,3.500951 11.76664,9.087341 -3.06145,-7.235407 z"
     id="path8"
     style="fill:#000000;stroke:none;stroke-width:2px" />
  <path
     class="connection real"
     stroke-dasharray="none"
     d="m 69.211382,39.394105 c 49.239998,-32.27 77.039998,-24.83 104.089998,-1.62"
     style="fill:none;fill-opacity:1;stroke:#000000;stroke-width:2px"
     id="path9" />
  <path
     d="m 161.98,36.171999 14.26138,4.18544 -5.65134,-13.751217 -0.96369,7.797109 z"
     id="path10"
     style="fill:#000000;stroke:none;stroke-width:2px" />
  <path
     class="connection real"
     stroke-dasharray="none"
     d="m 188.04138,56.234105 q -0.56,3.65 -4.21,3.32 -3.56,-0.47 -4.19,3.04 -0.71,3.5 -4.17,2.76 -3.36,-0.87 -4.16,2.48 -0.9,3.35 -4.14,2.21 -3.63,-1.03 -4.65,2.15 -1.69,3.38 -4.65,1.8 -3.31,-1.53 -4.63,1.46 -2.01,3.09 -5.16,1.21 -2.95,-2.03 -4.64,0.72 -2.38,2.75 -5.16,0.4 -2.58,-2.46 -5.18,-0.02 -2.81,2.32 -4.67,-0.38 -2.22,-2.83 -5.22,-0.82 -2.65,1.99 -4.72,-1.1 -1.9,-3.14 -4.74,-1.43 -3.53,1.4 -4.78,-1.77 -1.14,-3.19 -4.81,-2.11 -3.27,1.19 -4.299998,-2.15 -0.95,-3.36 -4.34,-2.42 -3.49,0.83 -4.37,-2.68 l -2.2,-1.43 -6.11,-4.29"
     style="fill:none;fill-opacity:1;stroke:#808080;stroke-width:2px;stroke-opacity:1"
     id="path11" />
  <path
     d="m 94.513012,58.106573 -14.5383,-3.089135 6.68039,13.28179 0.36814,-7.847807 z"
     id="path12"
     style="fill:#808080;fill-opacity:1;stroke:none;stroke-width:2px" />
  <path
     class="real"
     d="m 51.541382,39.394105 c 0,-9.75 7.91,-17.66 17.67,-17.66 9.75,0 17.66,7.91 17.66,17.66 0,9.76 -7.91,17.67 -17.66,17.67 -9.76,0 -17.67,-7.91 -17.67,-17.67 z"
     style="fill:#ffffff;fill-opacity:1;stroke:#000000;stroke-width:2px"
     id="path13" />
  <path
     class="real"
     d="m 170.37138,56.234105 c 0,-9.76 7.91,-17.67 17.67,-17.67 9.76,0 17.67,7.91 17.67,17.67 0,9.75 -7.91,17.66 -17.67,17.66 -9.76,0 -17.67,-7.91 -17.67,-17.66 z"
     style="fill:#ffffff;fill-opacity:1;stroke:#000000;stroke-width:2px"
     id="path14" />
  <path
     class="real"
     d="m 173.52138,56.234105 c 0,-8.02 6.5,-14.52 14.52,-14.52 8.02,0 14.52,6.5 14.52,14.52 0,8.02 -6.5,14.52 -14.52,14.52 -8.02,0 -14.52,-6.5 -14.52,-14.52 z"
     style="fill:#ffffff;fill-opacity:1;stroke:#000000;stroke-width:2px"
     id="path15" />
  <path
     class="real"
     d="m 84.291382,151.90411 c 0,-9.76 7.91,-17.67 17.669998,-17.67 9.75,0 17.66,7.91 17.66,17.67 0,9.76 -7.91,17.67 -17.66,17.67 -9.759998,0 -17.669998,-7.91 -17.669998,-17.67 z"
     style="fill:#ffffff;fill-opacity:1;stroke:#000000;stroke-width:2px"
     id="path16" />
  <path
     d="m 72.317032,37.788743 c 0,-0.884 -1.003,-1.122 -1.581,-1.122 -0.986,0 -1.581,0.901 -1.785,1.292 -0.425,-1.122 -1.343,-1.292 -1.836,-1.292 -1.768,0 -2.737,2.193 -2.737,2.618 0,0.17 0.204,0.17 0.204,0.17 0.136,0 0.187,-0.034 0.221,-0.187 0.578,-1.802 1.7,-2.227 2.278,-2.227 0.323,0 0.918,0.153 0.918,1.139 0,0.527 -0.289,1.666 -0.918,4.046 -0.272,1.054 -0.867,1.768 -1.615,1.768 -0.102,0 -0.493,0 -0.85,-0.221 0.425,-0.085 0.799,-0.442 0.799,-0.918 0,-0.459 -0.374,-0.595 -0.629,-0.595 -0.51,0 -0.935,0.442 -0.935,0.986 0,0.782 0.85,1.122 1.598,1.122 1.122,0 1.734,-1.19 1.785,-1.292 0.204,0.629 0.816,1.292 1.836,1.292 1.751,0 2.72,-2.193 2.72,-2.618 0,-0.17 -0.153,-0.17 -0.204,-0.17 -0.153,0 -0.187,0.068 -0.221,0.187 -0.561,1.819 -1.717,2.227 -2.261,2.227 -0.663,0 -0.935,-0.544 -0.935,-1.122 0,-0.374 0.102,-0.748 0.289,-1.496 l 0.578,-2.329 c 0.102,-0.442 0.493,-2.006 1.683,-2.006 0.085,0 0.493,0 0.85,0.221 -0.476,0.085 -0.816,0.51 -0.816,0.918 0,0.272 0.187,0.595 0.646,0.595 0.374,0 0.918,-0.306 0.918,-0.986 z"
     stroke="#000000"
     stroke-opacity="1"
     stroke-width="0.136"
     fill="#000000"
     fill-opacity="1"
     id="path22"
     style="font-family:LatinModern-Math, LatinModern, Asana-Math, Asana" />
  <path
     d="m 191.95469,52.779418 c 0,-0.306 -0.238,-0.459 -0.493,-0.459 -0.17,0 -0.442,0.102 -0.595,0.357 -0.034,0.085 -0.17,0.612 -0.238,0.918 l -0.34,1.36 -0.765,3.06 c -0.068,0.255 -0.799,1.445 -1.921,1.445 -0.867,0 -1.054,-0.748 -1.054,-1.377 0,-0.782 0.289,-1.836 0.867,-3.332 0.272,-0.697 0.34,-0.884 0.34,-1.224 0,-0.765 -0.544,-1.394 -1.394,-1.394 -1.615,0 -2.244,2.465 -2.244,2.618 0,0.17 0.204,0.17 0.204,0.17 0.17,0 0.187,-0.034 0.272,-0.306 0.459,-1.598 1.139,-2.108 1.717,-2.108 0.136,0 0.425,0 0.425,0.544 0,0.425 -0.17,0.867 -0.289,1.19 -0.68,1.802 -0.986,2.771 -0.986,3.57 0,1.513 1.071,2.023 2.074,2.023 0.663,0 1.241,-0.289 1.717,-0.765 -0.221,0.884 -0.425,1.717 -1.105,2.618 -0.442,0.578 -1.088,1.071 -1.87,1.071 -0.238,0 -1.003,-0.051 -1.292,-0.714 0.272,0 0.493,0 0.731,-0.204 0.17,-0.153 0.34,-0.374 0.34,-0.697 0,-0.527 -0.459,-0.595 -0.629,-0.595 -0.391,0 -0.952,0.272 -0.952,1.105 0,0.85 0.748,1.479 1.802,1.479 1.751,0 3.502,-1.547 3.978,-3.468 l 1.632,-6.494 c 0.068,-0.238 0.068,-0.272 0.068,-0.391 z"
     stroke="#000000"
     stroke-opacity="1"
     stroke-width="0.136"
     fill="#000000"
     fill-opacity="1"
     id="path26"
     style="font-family:LatinModern-Math, LatinModern, Asana-Math, Asana" />
  <text
     x="134.99133"
     y="-1.3025942"
     style="font-style:normal;font-weight:400;font-size:15px;font-family:'Times New Roman', Times, serif;dominant-baseline:text-before-edge;white-space:pre;fill:#000000;fill-opacity:1;stroke:none"
     id="text30">1</text>
  <text
     x="-0.54199219"
     y="93.764084"
     style="font-style:normal;font-weight:400;font-size:15px;font-family:'Times New Roman', Times, serif;dominant-baseline:text-before-edge;white-space:pre;fill:#000000;fill-opacity:1;stroke:none"
     id="text34">0, 1</text>
  <path
     d="m 105.89701,150.63674 c 0,-0.17 -0.187,-0.17 -0.187,-0.17 -0.119,0 -0.17,0.034 -0.255,0.187 -0.51,0.816 -0.867,1.088 -1.275,1.088 -0.408,0 -0.612,-0.255 -0.867,-0.544 -0.323,-0.391 -0.612,-0.731 -1.173,-0.731 -1.275,0 -2.057,1.581 -2.057,1.938 0,0.085 0.051,0.187 0.204,0.187 0.153,0 0.187,-0.085 0.221,-0.187 0.323,-0.782 1.309,-0.799 1.445,-0.799 0.357,0 0.68,0.119 1.071,0.255 0.68,0.255 0.867,0.255 1.309,0.255 -0.612,0.731 -2.04,1.955 -2.363,2.227 l -1.53,1.428 c -1.155998,1.139 -1.750998,2.108 -1.750998,2.227 0,0.17 0.204,0.17 0.204,0.17 0.136,0 0.17,-0.034 0.272,-0.221 0.391,-0.595 0.900998,-1.054 1.444998,-1.054 0.391,0 0.561,0.153 0.986,0.646 0.289,0.357 0.595,0.629 1.088,0.629 1.683,0 2.669,-2.159 2.669,-2.618 0,-0.085 -0.068,-0.17 -0.204,-0.17 -0.153,0 -0.187,0.102 -0.238,0.221 -0.391,1.105 -1.479,1.428 -2.04,1.428 -0.34,0 -0.646,-0.102 -1.003,-0.221 -0.578,-0.221 -0.833,-0.289 -1.19,-0.289 0,0 -0.306,0 -0.459,0.051 0.918,-0.986 1.411,-1.411 2.023,-1.938 0,0 1.054,-0.918 1.666,-1.53 1.615,-1.581 1.989,-2.397 1.989,-2.465 z"
     stroke="#000000"
     stroke-opacity="1"
     stroke-width="0.136"
     fill="#000000"
     fill-opacity="1"
     id="path38"
     style="font-family:LatinModern-Math, LatinModern, Asana-Math, Asana" />
  <text
     x="257.79138"
     y="45.264088"
     style="font-style:normal;font-weight:400;font-size:15px;font-family:'Times New Roman', Times, serif;dominant-baseline:text-before-edge;white-space:pre;fill:#000000;fill-opacity:1;stroke:none"
     id="text42">1</text>
  <text
     x="82.257996"
     y="99.964066"
     style="font-style:normal;font-weight:400;font-size:15px;font-family:'Times New Roman', Times, serif;dominant-baseline:text-before-edge;white-space:pre;fill:#000000;fill-opacity:1;stroke:none"
     id="text45">0</text>
</svg>
