<?xml version="1.0" encoding="UTF-8" standalone="no"?>
<!-- Created with Inkscape (http://www.inkscape.org/) -->

<svg
   width="66.551979mm"
   height="42.121517mm"
   viewBox="0 0 66.551979 42.121517"
   version="1.1"
   id="svg1"
   xml:space="preserve"
   xmlns:inkscape="http://www.inkscape.org/namespaces/inkscape"
   xmlns:sodipodi="http://sodipodi.sourceforge.net/DTD/sodipodi-0.dtd"
   xmlns="http://www.w3.org/2000/svg"
   xmlns:svg="http://www.w3.org/2000/svg"><sodipodi:namedview
     id="namedview1"
     pagecolor="#ffffff"
     bordercolor="#000000"
     borderopacity="0.25"
     inkscape:showpageshadow="2"
     inkscape:pageopacity="0.0"
     inkscape:pagecheckerboard="0"
     inkscape:deskcolor="#d1d1d1"
     inkscape:document-units="mm"
     inkscape:zoom="1.0167041"
     inkscape:cx="381.13351"
     inkscape:cy="409.16527"
     inkscape:window-width="1742"
     inkscape:window-height="1000"
     inkscape:window-x="358"
     inkscape:window-y="0"
     inkscape:window-maximized="0"
     inkscape:current-layer="layer1"><inkscape:page
       x="0"
       y="0"
       width="66.551979"
       height="42.121517"
       id="page2"
       margin="0"
       bleed="0" /></sodipodi:namedview><defs
     id="defs1"><marker
       style="overflow:visible"
       id="marker4"
       refX="0"
       refY="0"
       orient="auto-start-reverse"
       markerWidth="1"
       markerHeight="1"
       viewBox="0 0 1 1"
       preserveAspectRatio="xMidYMid"><path
         style="fill:context-stroke;fill-rule:evenodd;stroke:none"
         d="M 0,0 5,-5 -12.5,0 5,5 Z"
         transform="scale(-0.5)"
         id="path4-8" /></marker><marker
       style="overflow:visible"
       id="DartArrow"
       refX="0"
       refY="0"
       orient="auto-start-reverse"
       markerWidth="1"
       markerHeight="1"
       viewBox="0 0 1 1"
       preserveAspectRatio="xMidYMid"><path
         style="fill:context-stroke;fill-rule:evenodd;stroke:none"
         d="M 0,0 5,-5 -12.5,0 5,5 Z"
         transform="scale(-0.5)"
         id="path2-8" /></marker><marker
       style="overflow:visible"
       id="DartArrow-3"
       refX="0"
       refY="0"
       orient="auto-start-reverse"
       markerWidth="1"
       markerHeight="1"
       viewBox="0 0 1 1"
       preserveAspectRatio="xMidYMid"><path
         style="fill:context-stroke;fill-rule:evenodd;stroke:none"
         d="M 0,0 5,-5 -12.5,0 5,5 Z"
         transform="scale(-0.5)"
         id="path2-8-4" /></marker></defs><g
     inkscape:label="Layer 1"
     inkscape:groupmode="layer"
     id="layer1"
     transform="translate(-122.12696,-91.254439)"><path
       class="connection real"
       stroke-dasharray="none"
       d="m 138.90473,114.85112 c 9.89806,-1.48431 28.04657,-1.67503 34.97336,-1.66973"
       style="fill:none;fill-opacity:1;stroke:#000000;stroke-width:0.529167px;stroke-dasharray:1.05833, 0.529167;stroke-dashoffset:0;marker-end:url(#marker4)"
       id="path1-4"
       sodipodi:nodetypes="cc" /><path
       class="connection real"
       stroke-dasharray="none"
       d="m 138.4569,115.05702 c -11.66276,-12.56397 -0.12895,-20.297853 0.22304,-9.45831"
       style="fill:none;fill-opacity:1;stroke:#000000;stroke-width:0.529167px;marker-end:url(#DartArrow)"
       id="path3-5" /><path
       class="connection real"
       stroke-dasharray="none"
       d="m 140.01219,115.23146 c -7.45882,15.435 -18.85944,7.50608 -8.89106,3.23393"
       style="fill:none;fill-opacity:1;stroke:#000000;stroke-width:0.529167px;marker-end:url(#DartArrow-3)"
       id="path3-5-1"
       inkscape:transform-center-x="-0.53320366"
       inkscape:transform-center-y="-0.07574711" /><path
       d="m 130.8707,95.857081 c -0.0386,0.12127 -0.0386,0.13781 -0.1378,0.27561 -0.15985,0.20395 -0.47956,0.51814 -0.82682,0.51814 -0.29766,0 -0.46302,-0.27009 -0.46302,-0.70004 0,-0.40239 0.22599,-1.21819 0.3638,-1.52136 0.24804,-0.51263 0.5898,-0.77721 0.87643,-0.77721 0.47956,0 0.57326,0.60082 0.57326,0.65595 0,0.011 -0.0221,0.10473 -0.0276,0.12126 z m 0.46854,-1.86862 c -0.0827,-0.18741 -0.28112,-0.47956 -0.65595,-0.47956 -0.82682,0 -1.71428,1.06385 -1.71428,2.14423 0,0.72209 0.42444,1.14102 0.91502,1.14102 0.40239,0 0.74414,-0.31419 0.94809,-0.55122 0.0772,0.42995 0.41892,0.55122 0.6339,0.55122 0.22048,0 0.39687,-0.13229 0.52916,-0.39137 0.11576,-0.24804 0.21498,-0.69453 0.21498,-0.72209 0,-0.0386 -0.0276,-0.0661 -0.0717,-0.0661 -0.0661,0 -0.0717,0.0386 -0.10473,0.14331 -0.10473,0.42995 -0.24805,0.89297 -0.54571,0.89297 -0.20946,0 -0.226,-0.19292 -0.226,-0.33624 0,-0.16536 0.0221,-0.24805 0.0882,-0.53468 0.0496,-0.1819 0.0882,-0.34175 0.14883,-0.55121 0.2701,-1.09141 0.33073,-1.35599 0.33073,-1.40009 0,-0.0992 -0.0772,-0.1819 -0.18741,-0.1819 -0.23151,0 -0.29215,0.25356 -0.30317,0.34175 z m 0,0"
       id="path8"
       style="fill:#000000;fill-opacity:1;stroke-width:0.352778" /><path
       d="m 135.60587,91.519011 c 0,-0.13229 0,-0.26458 -0.14332,-0.26458 -0.14882,0 -0.14882,0.13229 -0.14882,0.26458 v 6.76342 c 0,0.13229 0,0.26458 0.14882,0.26458 0.14332,0 0.14332,-0.13229 0.14332,-0.26458 z m 0,0"
       id="path9-1"
       style="fill:#000000;fill-opacity:1;stroke-width:0.352778" /><path
       d="m 140.46754,92.676571 c 0.17639,0.28112 0.38034,0.48507 0.56224,0.62287 0.44097,0.33073 0.88745,0.4079 0.90399,0.4079 0.0882,0 0.0882,-0.0827 0.0882,-0.1378 0,-0.12127 -0.011,-0.12678 -0.17088,-0.17639 -0.49609,-0.13781 -0.77721,-0.40239 -0.94809,-0.58429 -0.36931,-0.40239 -0.45751,-0.83785 -0.5016,-1.06936 -0.005,-0.0386 -0.0386,-0.0662 -0.0772,-0.0662 -0.0661,0 -0.0772,0.0441 -0.0882,0.1323 -0.17088,0.80477 -0.68902,1.37804 -1.48829,1.59852 -0.11024,0.0386 -0.12678,0.0386 -0.12678,0.16537 0,0.0551 0,0.1378 0.0882,0.1378 0.0221,0 0.452,-0.0827 0.87093,-0.38034 0.23702,-0.1819 0.43546,-0.40239 0.59531,-0.65043 v 5.19796 c 0,0.13229 0,0.25907 0.14883,0.25907 0.14331,0 0.14331,-0.12678 0.14331,-0.25907 z m 0,0"
       id="path10-5"
       style="fill:#000000;fill-opacity:1;stroke-width:0.352778" /><path
       d="m 145.20165,94.385341 c 0,-0.44649 -0.006,-1.20165 -0.31419,-1.78594 -0.2701,-0.51263 -0.70005,-0.69453 -1.07488,-0.69453 -0.35277,0 -0.79375,0.15985 -1.07487,0.6835 -0.28663,0.55122 -0.3197,1.22921 -0.3197,1.79697 0,0.41341 0.011,1.04731 0.23702,1.59852 0.30868,0.75517 0.87092,0.85439 1.15755,0.85439 0.33625,0 0.84336,-0.13781 1.14102,-0.83234 0.22049,-0.50161 0.24805,-1.09141 0.24805,-1.62057 z m -1.38907,2.33715 c -0.46853,0 -0.74414,-0.40239 -0.84887,-0.9536 -0.0772,-0.42995 -0.0772,-1.05834 -0.0772,-1.46624 0,-0.56224 0,-1.02526 0.0937,-1.47174 0.13781,-0.61736 0.54571,-0.81029 0.83234,-0.81029 0.29765,0 0.68351,0.19844 0.82131,0.79375 0.0937,0.41893 0.10473,0.90399 0.10473,1.48828 0,0.47405 0,1.05834 -0.0882,1.48829 -0.15434,0.79375 -0.58429,0.93155 -0.83785,0.93155 z m 0,0"
       id="path11"
       style="fill:#000000;fill-opacity:1;stroke-width:0.352778" /><path
       d="m 123.48305,126.67868 c 0.011,-0.0331 0.022,-0.0772 0.022,-0.11024 0,-0.0717 -0.0717,-0.0717 -0.0882,-0.0717 -0.005,0 -0.26459,0.0165 -0.39688,0.0331 -0.12678,0.006 -0.23702,0.022 -0.3638,0.0276 -0.17639,0.0165 -0.226,0.0221 -0.226,0.15434 0,0.0717 0.0717,0.0717 0.14332,0.0717 0.37482,0 0.37482,0.0661 0.37482,0.14331 0,0.0496 -0.0606,0.25907 -0.0882,0.39136 l -0.17638,0.70005 c -0.0717,0.29214 -0.49059,1.94579 -0.51815,2.07808 -0.0386,0.1819 -0.0386,0.30317 -0.0386,0.39688 0,0.74414 0.41893,1.12999 0.89297,1.12999 0.84336,0 1.71979,-1.0859 1.71979,-2.13872 0,-0.67248 -0.38033,-1.14653 -0.92604,-1.14653 -0.38034,0 -0.72209,0.3142 -0.85989,0.45751 z m -0.45751,4.80109 c -0.23151,0 -0.48507,-0.17639 -0.48507,-0.74414 0,-0.24253 0.0165,-0.38034 0.14883,-0.88746 0.022,-0.0992 0.1378,-0.56224 0.17087,-0.65594 0.011,-0.0606 0.44098,-0.71107 0.93707,-0.71107 0.31971,0 0.46853,0.32522 0.46853,0.70004 0,0.35278 -0.20395,1.17409 -0.38585,1.55443 -0.1819,0.39136 -0.51814,0.74414 -0.85438,0.74414 z m 0,0"
       id="path12-4"
       style="fill:#000000;fill-opacity:1;stroke-width:0.352778" /><path
       d="m 128.01858,126.34795 c 0,-0.13229 0,-0.26458 -0.14331,-0.26458 -0.14883,0 -0.14883,0.13229 -0.14883,0.26458 v 6.76342 c 0,0.13229 0,0.26458 0.14883,0.26458 0.14331,0 0.14331,-0.13229 0.14331,-0.26458 z m 0,0"
       id="path13-2"
       style="fill:#000000;fill-opacity:1;stroke-width:0.352778" /><path
       d="m 132.88025,126.75585 c 0,-0.13229 0,-0.25907 -0.14332,-0.25907 -0.14883,0 -0.14883,0.12678 -0.14883,0.25907 v 5.19797 c -0.17638,-0.28112 -0.38033,-0.48507 -0.56224,-0.62288 -0.44097,-0.33073 -0.88745,-0.4079 -0.90399,-0.4079 -0.0882,0 -0.0882,0.0827 -0.0882,0.13781 0,0.12127 0.011,0.12678 0.17088,0.17639 0.49609,0.1378 0.77721,0.40238 0.94809,0.58429 0.36931,0.40238 0.45751,0.83784 0.5016,1.06384 0.006,0.0386 0.0276,0.0717 0.0827,0.0717 0.0606,0 0.0717,-0.0496 0.0827,-0.11576 0.15986,-0.82131 0.68902,-1.39457 1.48829,-1.61506 0.11024,-0.0386 0.12678,-0.0386 0.12678,-0.16536 0,-0.0551 0,-0.13781 -0.0882,-0.13781 -0.0221,0 -0.452,0.0827 -0.87092,0.38034 -0.23703,0.1819 -0.43546,0.40239 -0.59532,0.65044 z m 0,0"
       id="path15-7"
       style="fill:#000000;fill-opacity:1;stroke-width:0.352778" /><path
       d="m 137.61472,129.21428 c 0,-0.44649 -0.006,-1.20165 -0.31419,-1.78594 -0.2701,-0.51263 -0.70005,-0.69453 -1.07487,-0.69453 -0.35278,0 -0.79375,0.15985 -1.07487,0.6835 -0.28664,0.55122 -0.31971,1.22921 -0.31971,1.79697 0,0.41341 0.011,1.04731 0.23702,1.59852 0.30868,0.75517 0.87092,0.85439 1.15756,0.85439 0.33624,0 0.84336,-0.13781 1.14101,-0.83234 0.22049,-0.50161 0.24805,-1.09141 0.24805,-1.62057 z m -1.38906,2.33715 c -0.46854,0 -0.74415,-0.40239 -0.84888,-0.9536 -0.0772,-0.42995 -0.0772,-1.05834 -0.0772,-1.46624 0,-0.56224 0,-1.02526 0.0937,-1.47174 0.13781,-0.61736 0.54571,-0.81029 0.83234,-0.81029 0.29766,0 0.68351,0.19844 0.82131,0.79375 0.0937,0.41893 0.10473,0.90399 0.10473,1.48828 0,0.47405 0,1.05834 -0.0882,1.48829 -0.15434,0.79375 -0.58429,0.93155 -0.83785,0.93155 z m 0,0"
       id="path17-6-7"
       style="fill:#000000;fill-opacity:1;stroke-width:0.352778" /><path
       class="real"
       d="m 133.79385,114.54207 c 0,-2.9604 2.39926,-5.35966 5.35663,-5.35966 2.96041,0 5.35967,2.39926 5.35967,5.35966 0,2.95738 -2.39926,5.35664 -5.35967,5.35664 -2.95737,0 -5.35663,-2.39926 -5.35663,-5.35664 z"
       style="fill:#ffffff;fill-opacity:1;stroke:#000000;stroke-width:0.606641px"
       id="path6-51-4" /><path
       d="m 139.27798,113.00489 c -0.23702,0.0441 -0.32521,0.21497 -0.32521,0.35278 0,0.17638 0.14331,0.23702 0.24253,0.23702 0.22049,0 0.37483,-0.19293 0.37483,-0.38585 0,-0.30868 -0.35278,-0.44649 -0.65595,-0.44649 -0.44648,0 -0.69453,0.43546 -0.76068,0.57327 -0.16536,-0.54571 -0.61736,-0.57327 -0.74965,-0.57327 -0.74414,0 -1.1355,0.95361 -1.1355,1.11346 0,0.0331 0.0276,0.0661 0.0772,0.0661 0.0606,0 0.0717,-0.0441 0.0882,-0.0717 0.24804,-0.81029 0.73862,-0.96463 0.94809,-0.96463 0.32521,0 0.39136,0.30868 0.39136,0.48507 0,0.15985 -0.0441,0.32522 -0.12678,0.67799 l -0.24805,0.9977 c -0.11024,0.43546 -0.32521,0.83785 -0.71106,0.83785 -0.0331,0 -0.21498,0 -0.36932,-0.0937 0.25907,-0.0551 0.31971,-0.2701 0.31971,-0.35829 0,-0.14883 -0.11025,-0.23152 -0.24805,-0.23152 -0.17639,0 -0.3638,0.14883 -0.3638,0.38586 0,0.30316 0.34175,0.44097 0.65594,0.44097 0.34727,0 0.59532,-0.27561 0.74966,-0.57327 0.11575,0.42995 0.47955,0.57327 0.74965,0.57327 0.74414,0 1.14102,-0.95361 1.14102,-1.11346 0,-0.0386 -0.0331,-0.0661 -0.0772,-0.0661 -0.0661,0 -0.0717,0.0386 -0.0937,0.0937 -0.19844,0.64493 -0.61737,0.94258 -0.9481,0.94258 -0.25355,0 -0.39136,-0.19292 -0.39136,-0.49058 0,-0.15985 0.0276,-0.27561 0.14332,-0.75517 l 0.25907,-0.99218 c 0.10473,-0.43546 0.35278,-0.76068 0.68902,-0.76068 0.0165,0 0.22049,0 0.37483,0.0992 z m 0,0"
       id="path33-3"
       style="fill:#000000;fill-opacity:1;stroke-width:0.352778" /><path
       d="m 142.14324,115.44862 c 0,-0.41893 -0.022,-0.82683 -0.20395,-1.21268 -0.20946,-0.41892 -0.57326,-0.52917 -0.82131,-0.52917 -0.29214,0 -0.65594,0.14332 -0.83785,0.56224 -0.14331,0.31971 -0.19292,0.6339 -0.19292,1.17961 0,0.49058 0.0331,0.85989 0.21497,1.21818 0.19844,0.38585 0.54571,0.50712 0.81029,0.50712 0.44097,0 0.69453,-0.25907 0.83785,-0.55673 0.1819,-0.38034 0.19292,-0.87643 0.19292,-1.16857 z m -1.03077,1.62608 c -0.15985,0 -0.49058,-0.0937 -0.58429,-0.64492 -0.0606,-0.30317 -0.0606,-0.68902 -0.0606,-1.0418 0,-0.41341 0,-0.78824 0.0827,-1.08589 0.0882,-0.34176 0.34727,-0.4961 0.56224,-0.4961 0.19293,0 0.48507,0.11576 0.58429,0.55122 0.0606,0.28663 0.0606,0.68902 0.0606,1.03077 0,0.34176 0,0.72209 -0.0551,1.03078 -0.0937,0.55672 -0.41341,0.65594 -0.5898,0.65594 z m 0,0"
       id="path34-1"
       style="fill:#000000;fill-opacity:1;stroke-width:0.352778" /><path
       class="real"
       d="m 177.65934,112.89314 c 0,-2.96041 2.39926,-5.35967 5.35664,-5.35967 2.9604,0 5.35966,2.39926 5.35966,5.35967 0,2.95737 -2.39926,5.35664 -5.35966,5.35664 -2.95738,0 -5.35664,-2.39927 -5.35664,-5.35664 z"
       style="fill:#ffffff;fill-opacity:1;stroke:#000000;stroke-width:0.606641px"
       id="path5-7-1" /><path
       class="real"
       d="m 178.61177,112.89314 c 0,-2.43263 1.97158,-4.40421 4.40421,-4.40421 2.43262,0 4.40421,1.97158 4.40421,4.40421 0,2.43263 -1.97159,4.40421 -4.40421,4.40421 -2.43263,0 -4.40421,-1.97158 -4.40421,-4.40421 z"
       style="fill:#ffffff;fill-opacity:1;stroke:#000000;stroke-width:0.606641px"
       id="path7-1-8" /><path
       d="m 183.64067,110.96284 c -0.23702,0.0441 -0.32522,0.21497 -0.32522,0.35278 0,0.17638 0.14332,0.23702 0.24254,0.23702 0.22049,0 0.37482,-0.19293 0.37482,-0.38585 0,-0.30868 -0.35277,-0.44649 -0.65594,-0.44649 -0.44649,0 -0.69453,0.43546 -0.76068,0.57327 -0.16536,-0.54571 -0.61736,-0.57327 -0.74965,-0.57327 -0.74414,0 -1.13551,0.95361 -1.13551,1.11346 0,0.0331 0.0276,0.0661 0.0772,0.0661 0.0606,0 0.0717,-0.0441 0.0882,-0.0716 0.24805,-0.81029 0.73863,-0.96463 0.94809,-0.96463 0.32522,0 0.39137,0.30868 0.39137,0.48507 0,0.15985 -0.0441,0.32522 -0.12678,0.67799 l -0.24805,0.9977 c -0.11024,0.43546 -0.32522,0.83785 -0.71107,0.83785 -0.0331,0 -0.21497,0 -0.36931,-0.0937 0.25907,-0.0551 0.3197,-0.2701 0.3197,-0.35829 0,-0.14883 -0.11024,-0.23152 -0.24804,-0.23152 -0.17639,0 -0.36381,0.14883 -0.36381,0.38586 0,0.30316 0.34176,0.44097 0.65595,0.44097 0.34727,0 0.59531,-0.27561 0.74966,-0.57327 0.11575,0.42995 0.47955,0.57327 0.74965,0.57327 0.74414,0 1.14101,-0.95361 1.14101,-1.11346 0,-0.0386 -0.0331,-0.0661 -0.0772,-0.0661 -0.0661,0 -0.0717,0.0386 -0.0937,0.0937 -0.19843,0.64493 -0.61736,0.94258 -0.94809,0.94258 -0.25356,0 -0.39136,-0.19292 -0.39136,-0.49058 0,-0.15985 0.0276,-0.27561 0.14332,-0.75517 l 0.25907,-0.99218 c 0.10473,-0.43546 0.35278,-0.76068 0.68902,-0.76068 0.0165,0 0.22048,0 0.37482,0.0992 z m 0,0"
       id="path35-9"
       style="fill:#000000;fill-opacity:1;stroke-width:0.352778" /><path
       d="m 185.69564,111.78599 c 0,-0.12127 0,-0.12127 -0.0992,-0.12127 -0.12126,0.1323 -0.37482,0.31971 -0.89296,0.31971 v 0.14883 c 0.11575,0 0.36931,0 0.64492,-0.13229 v 2.63481 c 0,0.1819 -0.0165,0.24253 -0.45751,0.24253 h -0.15985 v 0.14883 c 0.1378,-0.011 0.62838,-0.011 0.79375,-0.011 0.16536,0 0.65594,0 0.78823,0.011 v -0.14883 h -0.15434 c -0.44648,0 -0.46302,-0.0606 -0.46302,-0.24253 z m 0,0"
       id="path37-2"
       style="fill:#000000;fill-opacity:1;stroke-width:0.352778" /><g
       inkscape:label=""
       transform="translate(159.65541,107.47729)"
       id="g1"><g
   fill="#000000"
   fill-opacity="1"
   id="g2"
   transform="matrix(0.352778,0,0,0.352778,-77.9703,-6.1931)">
    <g
   id="use1"
   transform="translate(220.487,26.899)">
      <path
   d="m 2.875,-4.703125 c 0.65625,0.265625 1.359375,0.265625 1.75,0.265625 0.546875,0 1.609375,0 1.609375,-0.609375 0,-0.359375 -0.390625,-0.515625 -1.4375,-0.515625 C 4.28125,-5.5625 3.65625,-5.5 2.9375,-5.1875 2.296875,-5.5 2.046875,-5.96875 2.046875,-6.421875 c 0,-1.28125 2.015625,-2.03125 3.859375,-2.03125 0.359375,0 1.09375,0 1.96875,0.640625 0.125,0.09375 0.1875,0.15625 0.328125,0.15625 0.25,0 0.515625,-0.28125 0.515625,-0.53125 0,-0.359375 -1.203125,-1.15625 -2.625,-1.15625 -2.3125,0 -4.5,1.390625 -4.5,2.921875 0,0.765625 0.5,1.234375 0.84375,1.484375 -1.203125,0.6875 -1.90625,1.796875 -1.90625,2.8125 0,1.421875 1.28125,2.5625 3.265625,2.5625 2.734375,0 3.828125,-1.828125 3.828125,-2.109375 0,-0.109375 -0.078125,-0.1875 -0.1875,-0.1875 -0.109375,0 -0.140625,0.0625 -0.234375,0.1875 -0.21875,0.390625 -0.765625,1.21875 -3.21875,1.21875 -1.28125,0 -2.96875,-0.328125 -2.96875,-1.796875 0,-0.703125 0.515625,-1.75 1.859375,-2.453125 z m 0.640625,-0.25 c 0.546875,-0.1875 1.09375,-0.1875 1.234375,-0.1875 0.578125,0 0.6875,0.03125 1.015625,0.125 -0.359375,0.15625 -0.390625,0.15625 -1.140625,0.15625 -0.375,0 -0.703125,0 -1.109375,-0.09375 z m 0,0"
   id="path2-1" />
    </g>
  </g>
</g></g></svg>
