<svg xmlns="http://www.w3.org/2000/svg" xmlns:xlink="http://www.w3.org/1999/xlink" x="0" y="0" width="688" height="194.26666259765625" style="
        width:688px;
        height:194.26666259765625px;
        background: transparent;
        fill: none;
">
        
        
        <svg xmlns="http://www.w3.org/2000/svg" class="role-diagram-draw-area" style="overflow: visible;"><g class="shapes-region" style="stroke: black; fill: none;"><g class="arrow-line"><path class="connection real" stroke-dasharray="" d="  M30.38,45.81 C35.13,93.21 84.87,107.89 159.76,149.99" style="stroke: rgb(0, 0, 0); stroke-width: 2px; fill: none; fill-opacity: 1;"/><g stroke="none" fill="#000" transform="matrix(-0.8696672947667646,-0.49363832551075004,0.49363832551075004,-0.8696672947667646,163.2,151.93333129882814)" style="stroke: none; fill: rgb(0, 0, 0); stroke-width: 2px;"><path d=" M13.4,-6.43 L0,0 L13.4,6.44 L8.9,0 Z"/></g></g><g class="arrow-line"><path class="connection real" stroke-dasharray="" d="  M31.47,157.61 C24.26,125.11 20.66,103.12 24.73,70.34" style="stroke: rgb(0, 0, 0); stroke-width: 2px; fill: none; fill-opacity: 1;"/><g stroke="none" fill="#000" transform="matrix(-0.13658011124157363,0.9906290290584258,-0.9906290290584258,-0.13658011124157363,25.200000000000003,66.73333129882813)" style="stroke: none; fill: rgb(0, 0, 0); stroke-width: 2px;"><path d=" M13.4,-6.43 L0,0 L13.4,6.44 L8.9,0 Z"/></g></g><g class="arrow-line"><path class="connection real" stroke-dasharray="" d="  M184,47.1 C188.99,80.16 191.33,105.53 187.69,135.73" style="stroke: rgb(0, 0, 0); stroke-width: 2px; fill: none; fill-opacity: 1;"/><g stroke="none" fill="#000" transform="matrix(0.13433209564170184,-0.9909363693398828,0.9909363693398828,0.13433209564170184,187.2,139.53333129882813)" style="stroke: none; fill: rgb(0, 0, 0); stroke-width: 2px;"><path d=" M13.4,-6.43 L0,0 L13.4,6.44 L8.9,0 Z"/></g></g><g class="arrow-line"><path class="connection real" stroke-dasharray="" d="  M30.38,45.81 C62.6,24.59 106.38,22.17 142.29,36.19" style="stroke: rgb(0, 0, 0); stroke-width: 2px; fill: none; fill-opacity: 1;"/><g stroke="none" fill="#000" transform="matrix(-0.9204366439858744,-0.3908917809420154,0.3908917809420154,-0.9204366439858744,145.6,37.53333129882816)" style="stroke: none; fill: rgb(0, 0, 0); stroke-width: 2px;"><path d=" M13.4,-6.43 L0,0 L13.4,6.44 L8.9,0 Z"/></g></g><g class="arrow-line"><path class="connection real" stroke-dasharray="" d="  M184,47.18 C129.19,86.12 81.45,78.92 47.63,64.71" style="stroke: rgb(0, 0, 0); stroke-width: 2px; fill: none; fill-opacity: 1;"/><g stroke="none" fill="#000" transform="matrix(0.9129054304391198,0.40817113454379095,-0.40817113454379095,0.9129054304391198,44,63.13333129882814)" style="stroke: none; fill: rgb(0, 0, 0); stroke-width: 2px;"><path d=" M13.4,-6.43 L0,0 L13.4,6.44 L8.9,0 Z"/></g></g><g class="arrow-line"><path class="connection real" stroke-dasharray="" d="  M31.47,157.61 C56.17,159.88 113.06,162.21 157.69,161.66" style="stroke: rgb(0, 0, 0); stroke-width: 2px; fill: none; fill-opacity: 1;"/><g stroke="none" fill="#000" transform="matrix(-0.9998710886777297,0.016056339134800608,-0.016056339134800608,-0.9998710886777297,161.10000000000002,161.6083333333333)" style="stroke: none; fill: rgb(0, 0, 0); stroke-width: 2px;"><path d=" M13.4,-6.43 L0,0 L13.4,6.44 L8.9,0 Z"/></g></g><g class="grouped-shape"><g class="composite-shape"><path class="real" d=" M145.25,44.36 C145.25,32.66 154.73,23.18 166.43,23.18 L201.57,23.18 C213.27,23.18 222.75,32.66 222.75,44.36 L222.75,50.01 C222.75,61.7 213.27,71.18 201.57,71.18 L166.43,71.18 C154.73,71.18 145.25,61.7 145.25,50.01 Z" style="stroke-width: 2px; stroke: rgb(0, 0, 0); fill: rgb(255, 255, 255); fill-opacity: 1;"/></g><g class="composite-shape"><path class="real" d=" M149,44.81 C149,35.03 156.93,27.1 166.71,27.1 L201.29,27.1 C211.07,27.1 219,35.03 219,44.81 L219,49.39 C219,59.17 211.07,67.1 201.29,67.1 L166.71,67.1 C156.93,67.1 149,59.17 149,49.39 Z" style="stroke-width: 2px; stroke: rgb(0, 0, 0); fill: rgb(255, 255, 255); fill-opacity: 1;"/></g></g><g class="grouped-shape"><g class="composite-shape"><path class="real" d=" M6.1,157.69 C6.1,143.68 17.46,132.32 31.47,132.32 C45.49,132.32 56.85,143.68 56.85,157.69 C56.85,171.71 45.49,183.07 31.47,183.07 C17.46,183.07 6.1,171.71 6.1,157.69 Z" style="stroke-width: 2px; stroke: rgb(0, 0, 0); fill: rgb(255, 255, 255); fill-opacity: 1;"/></g><g class="composite-shape"><path class="real" d=" M10.1,157.61 C10.1,145.8 19.67,136.23 31.47,136.23 C43.28,136.23 52.85,145.8 52.85,157.61 C52.85,169.41 43.28,178.98 31.47,178.98 C19.67,178.98 10.1,169.41 10.1,157.61 Z" style="stroke-width: 2px; stroke: rgb(0, 0, 0); fill: rgb(255, 255, 255); fill-opacity: 1;"/></g></g><g class="grouped-shape"><g class="composite-shape"><path class="real" d=" M161.1,161.61 C161.1,149.8 170.67,140.23 182.48,140.23 C194.28,140.23 203.85,149.8 203.85,161.61 C203.85,173.41 194.28,182.98 182.48,182.98 C170.67,182.98 161.1,173.41 161.1,161.61 Z" style="stroke-width: 2px; stroke: rgb(0, 0, 0); fill: rgb(255, 255, 255); fill-opacity: 1;"/></g></g><g class="grouped-shape"><g class="composite-shape"><path class="real" d=" M9,45.81 C9,34 18.57,24.43 30.38,24.43 C42.18,24.43 51.75,34 51.75,45.81 C51.75,57.61 42.18,67.18 30.38,67.18 C18.57,67.18 9,57.61 9,45.81 Z" style="stroke-width: 2px; stroke: rgb(0, 0, 0); fill: rgb(255, 255, 255); fill-opacity: 1;"/></g></g><g/></g><g/><g/><g/></svg>
        <svg xmlns="http://www.w3.org/2000/svg" xmlns:xlink="http://www.w3.org/1999/xlink" width="686" height="192.26666259765625" style="width:686px;height:192.26666259765625px;font-family:LatinModern-Math, LatinModern, Asana-Math, Asana;background:transparent;"><g><g><g><g transform="matrix(1,0,0,1,153.5,51.766656494140626)"><path transform="matrix(0.017,0,0,-0.017,0,0)" d="M425 -238C425 -231 420 -226 413 -226C338 -226 283 -177 283 -125L283 125C283 183 235 229 168 250C235 271 283 317 283 375L283 625C283 677 338 726 413 726C420 726 425 731 425 738C425 745 420 750 413 750C308 750 217 698 217 625L217 375C217 317 162 262 87 262C80 262 75 257 75 250C75 243 80 238 87 238C162 238 217 183 217 125L217 -125C217 -198 308 -250 413 -250C420 -250 425 -245 425 -238Z" stroke="rgb(0,0,0)" stroke-opacity="1" stroke-width="8" fill="rgb(0,0,0)" fill-opacity="1"></path></g></g><g><g transform="matrix(1,0,0,1,162.8533203125,51.720001220703125)"><path transform="matrix(0.017,0,0,-0.017,0,0)" d="M527 376C527 428 468 442 434 442C376 442 341 389 329 366C304 432 250 442 221 442C117 442 60 313 60 288C60 278 72 278 72 278C80 278 83 280 85 289C119 395 185 420 219 420C238 420 273 411 273 353C273 322 256 255 219 115C203 53 168 11 124 11C118 11 95 11 74 24C99 29 121 50 121 78C121 105 99 113 84 113C54 113 29 87 29 55C29 9 79 -11 123 -11C189 -11 225 59 228 65C240 28 276 -11 336 -11C439 -11 496 118 496 143C496 153 487 153 484 153C475 153 473 149 471 142C438 35 370 11 338 11C299 11 283 43 283 77C283 99 289 121 300 165L334 302C340 328 363 420 433 420C438 420 462 420 483 407C455 402 435 377 435 353C435 337 446 318 473 318C495 318 527 336 527 376Z" stroke="rgb(0,0,0)" stroke-opacity="1" stroke-width="8" fill="rgb(0,0,0)" fill-opacity="1"></path></g></g><g><g><g><g><g transform="matrix(1,0,0,1,173.086669921875,54.766656494140626)"><path transform="matrix(0.0119,0,0,-0.0119,0,0)" d="M460 320C460 400 455 480 420 554C374 650 292 666 250 666C190 666 117 640 76 547C44 478 39 400 39 320C39 245 43 155 84 79C127 -2 200 -22 249 -22C303 -22 379 -1 423 94C455 163 460 241 460 320ZM377 332C377 257 377 189 366 125C351 30 294 0 249 0C210 0 151 25 133 121C122 181 122 273 122 332C122 396 122 462 130 516C149 635 224 644 249 644C282 644 348 626 367 527C377 471 377 395 377 332Z" stroke="rgb(0,0,0)" stroke-opacity="1" stroke-width="8" fill="rgb(0,0,0)" fill-opacity="1"></path></g></g></g></g></g><g><g transform="matrix(1,0,0,1,180.0533203125,51.720001220703125)"><path transform="matrix(0.017,0,0,-0.017,0,0)" d="M203 1C203 67 178 106 139 106C106 106 86 81 86 53C86 26 106 0 139 0C151 0 164 4 174 13C177 15 179 16 179 16C179 16 181 15 181 1C181 -73 146 -133 113 -166C102 -177 102 -179 102 -182C102 -189 107 -193 112 -193C123 -193 203 -116 203 1Z" stroke="rgb(0,0,0)" stroke-opacity="1" stroke-width="8" fill="rgb(0,0,0)" fill-opacity="1"></path></g></g><g><g transform="matrix(1,0,0,1,188.186669921875,51.720001220703125)"><path transform="matrix(0.017,0,0,-0.017,0,0)" d="M527 376C527 428 468 442 434 442C376 442 341 389 329 366C304 432 250 442 221 442C117 442 60 313 60 288C60 278 72 278 72 278C80 278 83 280 85 289C119 395 185 420 219 420C238 420 273 411 273 353C273 322 256 255 219 115C203 53 168 11 124 11C118 11 95 11 74 24C99 29 121 50 121 78C121 105 99 113 84 113C54 113 29 87 29 55C29 9 79 -11 123 -11C189 -11 225 59 228 65C240 28 276 -11 336 -11C439 -11 496 118 496 143C496 153 487 153 484 153C475 153 473 149 471 142C438 35 370 11 338 11C299 11 283 43 283 77C283 99 289 121 300 165L334 302C340 328 363 420 433 420C438 420 462 420 483 407C455 402 435 377 435 353C435 337 446 318 473 318C495 318 527 336 527 376Z" stroke="rgb(0,0,0)" stroke-opacity="1" stroke-width="8" fill="rgb(0,0,0)" fill-opacity="1"></path></g></g><g><g><g><g><g transform="matrix(1,0,0,1,198.4199951171875,54.766656494140626)"><path transform="matrix(0.0119,0,0,-0.0119,0,0)" d="M419 0L419 31L387 31C297 31 294 42 294 79L294 640C294 664 294 666 271 666C209 602 121 602 89 602L89 571C109 571 168 571 220 597L220 79C220 43 217 31 127 31L95 31L95 0C130 3 217 3 257 3C297 3 384 3 419 0Z" stroke="rgb(0,0,0)" stroke-opacity="1" stroke-width="8" fill="rgb(0,0,0)" fill-opacity="1"></path></g></g></g></g></g><g><g transform="matrix(1,0,0,1,206.2333251953125,51.766656494140626)"><path transform="matrix(0.017,0,0,-0.017,0,0)" d="M425 250C425 257 420 262 413 262C338 262 283 317 283 375L283 625C283 698 192 750 87 750C80 750 75 745 75 738C75 731 80 726 87 726C162 726 217 677 217 625L217 375C217 317 265 271 332 250C265 229 217 183 217 125L217 -125C217 -177 162 -226 87 -226C80 -226 75 -231 75 -238C75 -245 80 -250 87 -250C192 -250 283 -198 283 -125L283 125C283 183 338 238 413 238C420 238 425 243 425 250Z" stroke="rgb(0,0,0)" stroke-opacity="1" stroke-width="8" fill="rgb(0,0,0)" fill-opacity="1"></path></g></g></g></g><g><g><g><g transform="matrix(1,0,0,1,13.100000000000001,161.90000610351564)"><path transform="matrix(0.017,0,0,-0.017,0,0)" d="M425 -238C425 -231 420 -226 413 -226C338 -226 283 -177 283 -125L283 125C283 183 235 229 168 250C235 271 283 317 283 375L283 625C283 677 338 726 413 726C420 726 425 731 425 738C425 745 420 750 413 750C308 750 217 698 217 625L217 375C217 317 162 262 87 262C80 262 75 257 75 250C75 243 80 238 87 238C162 238 217 183 217 125L217 -125C217 -198 308 -250 413 -250C420 -250 425 -245 425 -238Z" stroke="rgb(0,0,0)" stroke-opacity="1" stroke-width="8" fill="rgb(0,0,0)" fill-opacity="1"></path></g></g><g><g transform="matrix(1,0,0,1,22.453320312499997,161.84666137695314)"><path transform="matrix(0.017,0,0,-0.017,0,0)" d="M527 376C527 428 468 442 434 442C376 442 341 389 329 366C304 432 250 442 221 442C117 442 60 313 60 288C60 278 72 278 72 278C80 278 83 280 85 289C119 395 185 420 219 420C238 420 273 411 273 353C273 322 256 255 219 115C203 53 168 11 124 11C118 11 95 11 74 24C99 29 121 50 121 78C121 105 99 113 84 113C54 113 29 87 29 55C29 9 79 -11 123 -11C189 -11 225 59 228 65C240 28 276 -11 336 -11C439 -11 496 118 496 143C496 153 487 153 484 153C475 153 473 149 471 142C438 35 370 11 338 11C299 11 283 43 283 77C283 99 289 121 300 165L334 302C340 328 363 420 433 420C438 420 462 420 483 407C455 402 435 377 435 353C435 337 446 318 473 318C495 318 527 336 527 376Z" stroke="rgb(0,0,0)" stroke-opacity="1" stroke-width="8" fill="rgb(0,0,0)" fill-opacity="1"></path></g></g><g><g><g><g><g transform="matrix(1,0,0,1,32.686669921875,164.90000610351564)"><path transform="matrix(0.0119,0,0,-0.0119,0,0)" d="M419 0L419 31L387 31C297 31 294 42 294 79L294 640C294 664 294 666 271 666C209 602 121 602 89 602L89 571C109 571 168 571 220 597L220 79C220 43 217 31 127 31L95 31L95 0C130 3 217 3 257 3C297 3 384 3 419 0Z" stroke="rgb(0,0,0)" stroke-opacity="1" stroke-width="8" fill="rgb(0,0,0)" fill-opacity="1"></path></g></g></g></g></g><g><g transform="matrix(1,0,0,1,40.5,161.90000610351564)"><path transform="matrix(0.017,0,0,-0.017,0,0)" d="M425 250C425 257 420 262 413 262C338 262 283 317 283 375L283 625C283 698 192 750 87 750C80 750 75 745 75 738C75 731 80 726 87 726C162 726 217 677 217 625L217 375C217 317 265 271 332 250C265 229 217 183 217 125L217 -125C217 -177 162 -226 87 -226C80 -226 75 -231 75 -238C75 -245 80 -250 87 -250C192 -250 283 -198 283 -125L283 125C283 183 338 238 413 238C420 238 425 243 425 250Z" stroke="rgb(0,0,0)" stroke-opacity="1" stroke-width="8" fill="rgb(0,0,0)" fill-opacity="1"></path></g></g></g></g><g><g><g><g transform="matrix(1,0,0,1,12.5,50.600006103515625)"><path transform="matrix(0.017,0,0,-0.017,0,0)" d="M425 -238C425 -231 420 -226 413 -226C338 -226 283 -177 283 -125L283 125C283 183 235 229 168 250C235 271 283 317 283 375L283 625C283 677 338 726 413 726C420 726 425 731 425 738C425 745 420 750 413 750C308 750 217 698 217 625L217 375C217 317 162 262 87 262C80 262 75 257 75 250C75 243 80 238 87 238C162 238 217 183 217 125L217 -125C217 -198 308 -250 413 -250C420 -250 425 -245 425 -238Z" stroke="rgb(0,0,0)" stroke-opacity="1" stroke-width="8" fill="rgb(0,0,0)" fill-opacity="1"></path></g></g><g><g transform="matrix(1,0,0,1,21.853320312500003,50.55332641601562)"><path transform="matrix(0.017,0,0,-0.017,0,0)" d="M527 376C527 428 468 442 434 442C376 442 341 389 329 366C304 432 250 442 221 442C117 442 60 313 60 288C60 278 72 278 72 278C80 278 83 280 85 289C119 395 185 420 219 420C238 420 273 411 273 353C273 322 256 255 219 115C203 53 168 11 124 11C118 11 95 11 74 24C99 29 121 50 121 78C121 105 99 113 84 113C54 113 29 87 29 55C29 9 79 -11 123 -11C189 -11 225 59 228 65C240 28 276 -11 336 -11C439 -11 496 118 496 143C496 153 487 153 484 153C475 153 473 149 471 142C438 35 370 11 338 11C299 11 283 43 283 77C283 99 289 121 300 165L334 302C340 328 363 420 433 420C438 420 462 420 483 407C455 402 435 377 435 353C435 337 446 318 473 318C495 318 527 336 527 376Z" stroke="rgb(0,0,0)" stroke-opacity="1" stroke-width="8" fill="rgb(0,0,0)" fill-opacity="1"></path></g></g><g><g><g><g><g transform="matrix(1,0,0,1,32.086669921875,53.600006103515625)"><path transform="matrix(0.0119,0,0,-0.0119,0,0)" d="M460 320C460 400 455 480 420 554C374 650 292 666 250 666C190 666 117 640 76 547C44 478 39 400 39 320C39 245 43 155 84 79C127 -2 200 -22 249 -22C303 -22 379 -1 423 94C455 163 460 241 460 320ZM377 332C377 257 377 189 366 125C351 30 294 0 249 0C210 0 151 25 133 121C122 181 122 273 122 332C122 396 122 462 130 516C149 635 224 644 249 644C282 644 348 626 367 527C377 471 377 395 377 332Z" stroke="rgb(0,0,0)" stroke-opacity="1" stroke-width="8" fill="rgb(0,0,0)" fill-opacity="1"></path></g></g></g></g></g><g><g transform="matrix(1,0,0,1,39.9,50.600006103515625)"><path transform="matrix(0.017,0,0,-0.017,0,0)" d="M425 250C425 257 420 262 413 262C338 262 283 317 283 375L283 625C283 698 192 750 87 750C80 750 75 745 75 738C75 731 80 726 87 726C162 726 217 677 217 625L217 375C217 317 265 271 332 250C265 229 217 183 217 125L217 -125C217 -177 162 -226 87 -226C80 -226 75 -231 75 -238C75 -245 80 -250 87 -250C192 -250 283 -198 283 -125L283 125C283 183 338 238 413 238C420 238 425 243 425 250Z" stroke="rgb(0,0,0)" stroke-opacity="1" stroke-width="8" fill="rgb(0,0,0)" fill-opacity="1"></path></g></g></g></g><g><g><g><g transform="matrix(1,0,0,1,173.6,165.90000610351564)"><path transform="matrix(0.017,0,0,-0.017,0,0)" d="M425 -238C425 -231 420 -226 413 -226C338 -226 283 -177 283 -125L283 125C283 183 235 229 168 250C235 271 283 317 283 375L283 625C283 677 338 726 413 726C420 726 425 731 425 738C425 745 420 750 413 750C308 750 217 698 217 625L217 375C217 317 162 262 87 262C80 262 75 257 75 250C75 243 80 238 87 238C162 238 217 183 217 125L217 -125C217 -198 308 -250 413 -250C420 -250 425 -245 425 -238Z" stroke="rgb(0,0,0)" stroke-opacity="1" stroke-width="8" fill="rgb(0,0,0)" fill-opacity="1"></path></g></g><g><g transform="matrix(1,0,0,1,183.8,165.90000610351564)"><path transform="matrix(0.017,0,0,-0.017,0,0)" d="M425 250C425 257 420 262 413 262C338 262 283 317 283 375L283 625C283 698 192 750 87 750C80 750 75 745 75 738C75 731 80 726 87 726C162 726 217 677 217 625L217 375C217 317 265 271 332 250C265 229 217 183 217 125L217 -125C217 -177 162 -226 87 -226C80 -226 75 -231 75 -238C75 -245 80 -250 87 -250C192 -250 283 -198 283 -125L283 125C283 183 338 238 413 238C420 238 425 243 425 250Z" stroke="rgb(0,0,0)" stroke-opacity="1" stroke-width="8" fill="rgb(0,0,0)" fill-opacity="1"></path></g></g></g></g><g><g><g><g transform="matrix(1,0,0,1,86.8333251953125,20.25333251953125)"><path transform="matrix(0.017,0,0,-0.017,0,0)" d="M498 143C498 153 489 153 486 153C476 153 475 149 472 135C455 70 437 11 396 11C369 11 366 37 366 57C366 79 368 87 379 131L401 221L437 361C444 389 444 391 444 395C444 412 432 422 415 422C391 422 376 400 373 378C355 415 326 442 281 442C164 442 40 295 40 149C40 55 95 -11 173 -11C193 -11 243 -7 303 64C311 22 346 -11 394 -11C429 -11 452 12 468 44C485 80 498 143 498 143ZM361 332C361 326 359 320 358 315L308 119C303 101 303 99 288 82C244 27 203 11 175 11C125 11 111 66 111 105C111 155 143 278 166 324C197 383 242 420 282 420C347 420 361 338 361 332Z" stroke="rgb(0,0,0)" stroke-opacity="1" stroke-width="8" fill="rgb(0,0,0)" fill-opacity="1"></path></g></g></g></g><g><g><g><g transform="matrix(1,0,0,1,95.2333251953125,69.45332641601563)"><path transform="matrix(0.017,0,0,-0.017,0,0)" d="M498 143C498 153 489 153 486 153C476 153 475 149 472 135C455 70 437 11 396 11C369 11 366 37 366 57C366 79 368 87 379 131L401 221L437 361C444 389 444 391 444 395C444 412 432 422 415 422C391 422 376 400 373 378C355 415 326 442 281 442C164 442 40 295 40 149C40 55 95 -11 173 -11C193 -11 243 -7 303 64C311 22 346 -11 394 -11C429 -11 452 12 468 44C485 80 498 143 498 143ZM361 332C361 326 359 320 358 315L308 119C303 101 303 99 288 82C244 27 203 11 175 11C125 11 111 66 111 105C111 155 143 278 166 324C197 383 242 420 282 420C347 420 361 338 361 332Z" stroke="rgb(0,0,0)" stroke-opacity="1" stroke-width="8" fill="rgb(0,0,0)" fill-opacity="1"></path></g></g></g></g><g><g><g><g transform="matrix(1,0,0,1,7.233325195312499,110.65332641601563)"><path transform="matrix(0.017,0,0,-0.017,0,0)" d="M498 143C498 153 489 153 486 153C476 153 475 149 472 135C455 70 437 11 396 11C369 11 366 37 366 57C366 79 368 87 379 131L401 221L437 361C444 389 444 391 444 395C444 412 432 422 415 422C391 422 376 400 373 378C355 415 326 442 281 442C164 442 40 295 40 149C40 55 95 -11 173 -11C193 -11 243 -7 303 64C311 22 346 -11 394 -11C429 -11 452 12 468 44C485 80 498 143 498 143ZM361 332C361 326 359 320 358 315L308 119C303 101 303 99 288 82C244 27 203 11 175 11C125 11 111 66 111 105C111 155 143 278 166 324C197 383 242 420 282 420C347 420 361 338 361 332Z" stroke="rgb(0,0,0)" stroke-opacity="1" stroke-width="8" fill="rgb(0,0,0)" fill-opacity="1"></path></g></g></g></g><g><g><g><g transform="matrix(1,0,0,1,92.8333251953125,176.65332641601563)"><path transform="matrix(0.017,0,0,-0.017,0,0)" d="M415 282C415 373 362 442 282 442C236 442 195 413 165 382L239 683C239 683 239 694 226 694C203 694 130 686 104 684C96 683 85 682 85 664C85 652 94 652 109 652C157 652 159 645 159 635C159 628 150 594 145 573L63 247C51 197 47 181 47 146C47 51 100 -11 174 -11C292 -11 415 138 415 282ZM343 326C343 267 310 152 292 114C259 47 213 11 174 11C140 11 107 38 107 112C107 131 107 150 123 213L145 305C151 327 151 329 160 340C209 405 254 420 280 420C316 420 343 390 343 326Z" stroke="rgb(0,0,0)" stroke-opacity="1" stroke-width="8" fill="rgb(0,0,0)" fill-opacity="1"></path></g></g></g></g><g><g><g><g transform="matrix(1,0,0,1,106.0333251953125,114.98666381835938)"><path transform="matrix(0.017,0,0,-0.017,0,0)" d="M415 282C415 373 362 442 282 442C236 442 195 413 165 382L239 683C239 683 239 694 226 694C203 694 130 686 104 684C96 683 85 682 85 664C85 652 94 652 109 652C157 652 159 645 159 635C159 628 150 594 145 573L63 247C51 197 47 181 47 146C47 51 100 -11 174 -11C292 -11 415 138 415 282ZM343 326C343 267 310 152 292 114C259 47 213 11 174 11C140 11 107 38 107 112C107 131 107 150 123 213L145 305C151 327 151 329 160 340C209 405 254 420 280 420C316 420 343 390 343 326Z" stroke="rgb(0,0,0)" stroke-opacity="1" stroke-width="8" fill="rgb(0,0,0)" fill-opacity="1"></path></g></g></g></g><g><g><g><g transform="matrix(1,0,0,1,195.6333251953125,103.38666381835938)"><path transform="matrix(0.017,0,0,-0.017,0,0)" d="M415 282C415 373 362 442 282 442C236 442 195 413 165 382L239 683C239 683 239 694 226 694C203 694 130 686 104 684C96 683 85 682 85 664C85 652 94 652 109 652C157 652 159 645 159 635C159 628 150 594 145 573L63 247C51 197 47 181 47 146C47 51 100 -11 174 -11C292 -11 415 138 415 282ZM343 326C343 267 310 152 292 114C259 47 213 11 174 11C140 11 107 38 107 112C107 131 107 150 123 213L145 305C151 327 151 329 160 340C209 405 254 420 280 420C316 420 343 390 343 326Z" stroke="rgb(0,0,0)" stroke-opacity="1" stroke-width="8" fill="rgb(0,0,0)" fill-opacity="1"></path></g></g></g></g></svg>
</svg>
