<?xml version="1.0" encoding="UTF-8" standalone="no"?>
<svg
   x="0"
   y="0"
   width="218.64999"
   height="171.39867"
   style="fill:none"
   version="1.1"
   id="svg107"
   sodipodi:docname="twostatenondetdeterminized.svg"
   inkscape:version="1.3.2 (091e20e, 2023-11-25)"
   xmlns:inkscape="http://www.inkscape.org/namespaces/inkscape"
   xmlns:sodipodi="http://sodipodi.sourceforge.net/DTD/sodipodi-0.dtd"
   xmlns="http://www.w3.org/2000/svg"
   xmlns:svg="http://www.w3.org/2000/svg">
  <defs
     id="defs107" />
  <sodipodi:namedview
     id="namedview107"
     pagecolor="#ffffff"
     bordercolor="#000000"
     borderopacity="0.25"
     inkscape:showpageshadow="2"
     inkscape:pageopacity="0.0"
     inkscape:pagecheckerboard="0"
     inkscape:deskcolor="#d1d1d1"
     inkscape:zoom="1.0523256"
     inkscape:cx="339.24862"
     inkscape:cy="84.574586"
     inkscape:window-width="1920"
     inkscape:window-height="999"
     inkscape:window-x="0"
     inkscape:window-y="25"
     inkscape:window-maximized="0"
     inkscape:current-layer="svg107" />
  <path
     class="connection real"
     stroke-dasharray="none"
     d="m 25.28,33.138667 c 4.75,47.4 54.49,62.08 129.38,104.180003"
     style="fill:none;fill-opacity:1;stroke:#000000;stroke-width:2px"
     id="path1" />
  <path
     d="m 143.27237,138.23921 14.82764,1.02279 -8.47451,-12.21541 0.73447,7.82203 z"
     id="path2"
     style="fill:#000000;stroke:none;stroke-width:2px" />
  <path
     class="connection real"
     stroke-dasharray="none"
     d="m 26.37,144.93867 c -7.21,-32.5 -10.81,-54.490003 -6.74,-87.270003"
     style="fill:none;fill-opacity:1;stroke:#000000;stroke-width:2px"
     id="path3" />
  <path
     d="M 24.639571,68.214637 20.1,54.061998 11.890175,66.456851 18.884437,62.878596 Z"
     id="path4"
     style="fill:#000000;stroke:none;stroke-width:2px" />
  <path
     class="connection real"
     stroke-dasharray="none"
     d="m 178.9,34.428667 c 4.99,33.06 7.33,58.43 3.69,88.630003"
     style="fill:none;fill-opacity:1;stroke:#000000;stroke-width:2px"
     id="path5" />
  <path
     d="m 177.52833,112.7197 4.57167,14.1423 8.18168,-12.41345 -6.98613,3.59412 z"
     id="path6"
     style="fill:#000000;stroke:none;stroke-width:2px" />
  <path
     class="connection real"
     stroke-dasharray="none"
     d="m 25.28,33.138667 c 32.22,-21.22 76,-23.64 111.91,-9.62"
     style="fill:none;fill-opacity:1;stroke:#000000;stroke-width:2px"
     id="path7" />
  <path
     d="M 125.65272,25.542456 140.5,24.861998 l -9.81651,-11.165561 1.62462,7.686625 z"
     id="path8"
     style="fill:#000000;stroke:none;stroke-width:2px" />
  <path
     class="connection real"
     stroke-dasharray="none"
     d="m 178.9,34.508667 c -54.81,38.94 -102.55,31.74 -136.37,17.53"
     style="fill:none;fill-opacity:1;stroke:#000000;stroke-width:2px"
     id="path9" />
  <path
     d="M 53.757473,50.061509 38.9,50.461998 48.504311,61.810602 47.024858,54.094721 Z"
     id="path10"
     style="fill:#000000;stroke:none;stroke-width:2px" />
  <path
     class="connection real"
     stroke-dasharray="none"
     d="m 26.37,144.93867 c 24.7,2.27 81.59,4.6 126.22,4.05"
     style="fill:none;fill-opacity:1;stroke:#000000;stroke-width:2px"
     id="path11" />
  <path
     d="M 142.70497,155.58133 156,148.937 l -13.50167,-6.22401 4.60282,6.36691 z"
     id="path12"
     style="fill:#000000;stroke:none;stroke-width:2px" />
  <path
     class="real"
     d="m 140.15,31.688667 c 0,-11.7 9.48,-21.18 21.18,-21.18 h 35.14 c 11.7,0 21.18,9.48 21.18,21.18 v 5.65 c 0,11.69 -9.48,21.17 -21.18,21.17 h -35.14 c -11.7,0 -21.18,-9.48 -21.18,-21.17 z"
     style="fill:#ffffff;fill-opacity:1;stroke:#000000;stroke-width:2px"
     id="path13" />
  <path
     class="real"
     d="m 143.9,32.138667 c 0,-9.78 7.93,-17.71 17.71,-17.71 h 34.58 c 9.78,0 17.71,7.93 17.71,17.71 v 4.58 c 0,9.78 -7.93,17.71 -17.71,17.71 h -34.58 c -9.78,0 -17.71,-7.93 -17.71,-17.71 z"
     style="fill:#ffffff;fill-opacity:1;stroke:#000000;stroke-width:2px"
     id="path14" />
  <path
     class="real"
     d="m 1,145.01867 c 0,-14.01 11.36,-25.37 25.37,-25.37 14.02,0 25.38,11.36 25.38,25.37 0,14.02 -11.36,25.38 -25.38,25.38 -14.01,0 -25.37,-11.36 -25.37,-25.38 z"
     style="fill:#ffffff;fill-opacity:1;stroke:#000000;stroke-width:2px"
     id="path16" />
  <path
     class="real"
     d="m 5,144.93867 c 0,-11.81 9.57,-21.38 21.37,-21.38 11.81,0 21.38,9.57 21.38,21.38 0,11.8 -9.57,21.37 -21.38,21.37 -11.8,0 -21.37,-9.57 -21.37,-21.37 z"
     style="fill:#ffffff;fill-opacity:1;stroke:#000000;stroke-width:2px"
     id="path17" />
  <path
     class="real"
     d="m 156,148.93867 c 0,-11.81 9.57,-21.38 21.38,-21.38 11.8,0 21.37,9.57 21.37,21.38 0,11.8 -9.57,21.37 -21.37,21.37 -11.81,0 -21.38,-9.57 -21.38,-21.37 z"
     style="fill:#ffffff;fill-opacity:1;stroke:#000000;stroke-width:2px"
     id="path19" />
  <path
     class="real"
     d="m 3.9,33.138667 c 0,-11.81 9.57,-21.38 21.38,-21.38 11.8,0 21.37,9.57 21.37,21.38 0,11.8 -9.57,21.37 -21.37,21.37 -11.81,0 -21.38,-9.57 -21.38,-21.37 z"
     style="fill:#ffffff;fill-opacity:1;stroke:#000000;stroke-width:2px"
     id="path21" />
  <path
     d="m 155.625,43.141323 c 0,-0.119 -0.085,-0.204 -0.204,-0.204 -1.275,0 -2.21,-0.833 -2.21,-1.717 v -4.25 c 0,-0.986 -0.816,-1.768 -1.955,-2.125 1.139,-0.357 1.955,-1.139 1.955,-2.125 v -4.25 c 0,-0.884 0.935,-1.717 2.21,-1.717 0.119,0 0.204,-0.085 0.204,-0.204 0,-0.119 -0.085,-0.204 -0.204,-0.204 -1.785,0 -3.332,0.884 -3.332,2.125 v 4.25 c 0,0.986 -0.935,1.921 -2.21,1.921 -0.119,0 -0.204,0.085 -0.204,0.204 0,0.119 0.085,0.204 0.204,0.204 1.275,0 2.21,0.935 2.21,1.921 v 4.25 c 0,1.241 1.547,2.125 3.332,2.125 0.119,0 0.204,-0.085 0.204,-0.204 z"
     stroke="#000000"
     stroke-opacity="1"
     stroke-width="0.136"
     fill="#000000"
     fill-opacity="1"
     id="path28"
     style="font-family:LatinModern-Math, LatinModern, Asana-Math, Asana" />
  <path
     d="m 166.71232,32.656668 c 0,-0.884 -1.003,-1.122 -1.581,-1.122 -0.986,0 -1.581,0.901 -1.785,1.292 -0.425,-1.122 -1.343,-1.292 -1.836,-1.292 -1.768,0 -2.737,2.193 -2.737,2.618 0,0.17 0.204,0.17 0.204,0.17 0.136,0 0.187,-0.034 0.221,-0.187 0.578,-1.802 1.7,-2.227 2.278,-2.227 0.323,0 0.918,0.153 0.918,1.139 0,0.527 -0.289,1.666 -0.918,4.046 -0.272,1.054 -0.867,1.768 -1.615,1.768 -0.102,0 -0.493,0 -0.85,-0.221 0.425,-0.085 0.799,-0.442 0.799,-0.918 0,-0.459 -0.374,-0.595 -0.629,-0.595 -0.51,0 -0.935,0.442 -0.935,0.986 0,0.782 0.85,1.122 1.598,1.122 1.122,0 1.734,-1.19 1.785,-1.292 0.204,0.629 0.816,1.292 1.836,1.292 1.751,0 2.72,-2.193 2.72,-2.618 0,-0.17 -0.153,-0.17 -0.204,-0.17 -0.153,0 -0.187,0.068 -0.221,0.187 -0.561,1.819 -1.717,2.227 -2.261,2.227 -0.663,0 -0.935,-0.544 -0.935,-1.122 0,-0.374 0.102,-0.748 0.289,-1.496 l 0.578,-2.329 c 0.102,-0.442 0.493,-2.006 1.683,-2.006 0.085,0 0.493,0 0.85,0.221 -0.476,0.085 -0.816,0.51 -0.816,0.918 0,0.272 0.187,0.595 0.646,0.595 0.374,0 0.918,-0.306 0.918,-0.986 z"
     stroke="#000000"
     stroke-opacity="1"
     stroke-width="0.136"
     fill="#000000"
     fill-opacity="1"
     id="path30"
     style="font-family:LatinModern-Math, LatinModern, Asana-Math, Asana" />
  <path
     d="m 173.46067,38.287323 c 0,-0.952 -0.0595,-1.904 -0.476,-2.7846 -0.5474,-1.1424 -1.5232,-1.3328 -2.023,-1.3328 -0.714,0 -1.5827,0.3094 -2.0706,1.4161 -0.3808,0.8211 -0.4403,1.7493 -0.4403,2.7013 0,0.8925 0.0476,1.9635 0.5355,2.8679 0.5117,0.9639 1.3804,1.2019 1.9635,1.2019 0.6426,0 1.547,-0.2499 2.0706,-1.3804 0.3808,-0.8211 0.4403,-1.7493 0.4403,-2.6894 z m -0.9877,-0.1428 c 0,0.8925 0,1.7017 -0.1309,2.4633 -0.1785,1.1305 -0.8568,1.4875 -1.3923,1.4875 -0.4641,0 -1.1662,-0.2975 -1.3804,-1.4399 -0.1309,-0.714 -0.1309,-1.8088 -0.1309,-2.5109 0,-0.7616 0,-1.547 0.0952,-2.1896 0.2261,-1.4161 1.1186,-1.5232 1.4161,-1.5232 0.3927,0 1.1781,0.2142 1.4042,1.3923 0.119,0.6664 0.119,1.5708 0.119,2.3205 z"
     stroke="#000000"
     stroke-opacity="1"
     stroke-width="0.0952"
     fill="#000000"
     fill-opacity="1"
     id="path32"
     style="font-family:LatinModern-Math, LatinModern, Asana-Math, Asana" />
  <path
     d="m 178.40432,39.031668 c 0,-1.122 -0.425,-1.785 -1.088,-1.785 -0.561,0 -0.901,0.425 -0.901,0.901 0,0.459 0.34,0.901 0.901,0.901 0.204,0 0.425,-0.068 0.595,-0.221 0.051,-0.034 0.085,-0.051 0.085,-0.051 0,0 0.034,0.017 0.034,0.255 0,1.258 -0.595,2.278 -1.156,2.839 -0.187,0.187 -0.187,0.221 -0.187,0.272 0,0.119 0.085,0.187 0.17,0.187 0.187,0 1.547,-1.309 1.547,-3.298 z"
     stroke="#000000"
     stroke-opacity="1"
     stroke-width="0.136"
     fill="#000000"
     fill-opacity="1"
     id="path37"
     style="font-family:LatinModern-Math, LatinModern, Asana-Math, Asana" />
  <path
     d="m 192.04567,32.656668 c 0,-0.884 -1.003,-1.122 -1.581,-1.122 -0.986,0 -1.581,0.901 -1.785,1.292 -0.425,-1.122 -1.343,-1.292 -1.836,-1.292 -1.768,0 -2.737,2.193 -2.737,2.618 0,0.17 0.204,0.17 0.204,0.17 0.136,0 0.187,-0.034 0.221,-0.187 0.578,-1.802 1.7,-2.227 2.278,-2.227 0.323,0 0.918,0.153 0.918,1.139 0,0.527 -0.289,1.666 -0.918,4.046 -0.272,1.054 -0.867,1.768 -1.615,1.768 -0.102,0 -0.493,0 -0.85,-0.221 0.425,-0.085 0.799,-0.442 0.799,-0.918 0,-0.459 -0.374,-0.595 -0.629,-0.595 -0.51,0 -0.935,0.442 -0.935,0.986 0,0.782 0.85,1.122 1.598,1.122 1.122,0 1.734,-1.19 1.785,-1.292 0.204,0.629 0.816,1.292 1.836,1.292 1.751,0 2.72,-2.193 2.72,-2.618 0,-0.17 -0.153,-0.17 -0.204,-0.17 -0.153,0 -0.187,0.068 -0.221,0.187 -0.561,1.819 -1.717,2.227 -2.261,2.227 -0.663,0 -0.935,-0.544 -0.935,-1.122 0,-0.374 0.102,-0.748 0.289,-1.496 l 0.578,-2.329 c 0.102,-0.442 0.493,-2.006 1.683,-2.006 0.085,0 0.493,0 0.85,0.221 -0.476,0.085 -0.816,0.51 -0.816,0.918 0,0.272 0.187,0.595 0.646,0.595 0.374,0 0.918,-0.306 0.918,-0.986 z"
     stroke="#000000"
     stroke-opacity="1"
     stroke-width="0.136"
     fill="#000000"
     fill-opacity="1"
     id="path39"
     style="font-family:LatinModern-Math, LatinModern, Asana-Math, Asana" />
  <path
     d="m 198.3061,42.095323 v -0.3689 h -0.3808 c -1.071,0 -1.1067,-0.1309 -1.1067,-0.5712 v -6.6759 c 0,-0.2856 0,-0.3094 -0.2737,-0.3094 -0.7378,0.7616 -1.785,0.7616 -2.1658,0.7616 v 0.3689 c 0.238,0 0.9401,0 1.5589,-0.3094 v 6.1642 c 0,0.4284 -0.0357,0.5712 -1.1067,0.5712 h -0.3808 v 0.3689 c 0.4165,-0.0357 1.4518,-0.0357 1.9278,-0.0357 0.476,0 1.5113,0 1.9278,0.0357 z"
     stroke="#000000"
     stroke-opacity="1"
     stroke-width="0.0952"
     fill="#000000"
     fill-opacity="1"
     id="path41"
     style="font-family:LatinModern-Math, LatinModern, Asana-Math, Asana" />
  <path
     d="m 208.35833,34.845323 c 0,-0.119 -0.085,-0.204 -0.204,-0.204 -1.275,0 -2.21,-0.935 -2.21,-1.921 v -4.25 c 0,-1.241 -1.547,-2.125 -3.332,-2.125 -0.119,0 -0.204,0.085 -0.204,0.204 0,0.119 0.085,0.204 0.204,0.204 1.275,0 2.21,0.833 2.21,1.717 v 4.25 c 0,0.986 0.816,1.768 1.955,2.125 -1.139,0.357 -1.955,1.139 -1.955,2.125 v 4.25 c 0,0.884 -0.935,1.717 -2.21,1.717 -0.119,0 -0.204,0.085 -0.204,0.204 0,0.119 0.085,0.204 0.204,0.204 1.785,0 3.332,-0.884 3.332,-2.125 v -4.25 c 0,-0.986 0.935,-1.921 2.21,-1.921 0.119,0 0.204,-0.085 0.204,-0.204 z"
     stroke="#000000"
     stroke-opacity="1"
     stroke-width="0.136"
     fill="#000000"
     fill-opacity="1"
     id="path46"
     style="font-family:LatinModern-Math, LatinModern, Asana-Math, Asana" />
  <path
     d="m 15.225,153.27468 c 0,-0.119 -0.085,-0.204 -0.204,-0.204 -1.275,0 -2.21,-0.833 -2.21,-1.717 v -4.25 c 0,-0.986 -0.816,-1.768 -1.955,-2.125 1.139,-0.357 1.955,-1.139 1.955,-2.125 v -4.25 c 0,-0.884 0.935,-1.717 2.21,-1.717 0.119,0 0.204,-0.085 0.204,-0.204 0,-0.119 -0.085,-0.204 -0.204,-0.204 -1.785,0 -3.332,0.884 -3.332,2.125 v 4.25 c 0,0.986 -0.935,1.921 -2.21,1.921 -0.119,0 -0.204,0.085 -0.204,0.204 0,0.119 0.085,0.204 0.204,0.204 1.275,0 2.21,0.935 2.21,1.921 v 4.25 c 0,1.241 1.547,2.125 3.332,2.125 0.119,0 0.204,-0.085 0.204,-0.204 z"
     stroke="#000000"
     stroke-opacity="1"
     stroke-width="0.136"
     fill="#000000"
     fill-opacity="1"
     id="path50"
     style="font-family:LatinModern-Math, LatinModern, Asana-Math, Asana" />
  <path
     d="m 26.31232,142.78333 c 0,-0.884 -1.003,-1.122 -1.581,-1.122 -0.986,0 -1.581,0.901 -1.785,1.292 -0.425,-1.122 -1.343,-1.292 -1.836,-1.292 -1.768,0 -2.737,2.193 -2.737,2.618 0,0.17 0.204,0.17 0.204,0.17 0.136,0 0.187,-0.034 0.221,-0.187 0.578,-1.802 1.7,-2.227 2.278,-2.227 0.323,0 0.918,0.153 0.918,1.139 0,0.527 -0.289,1.666 -0.918,4.046 -0.272,1.054 -0.867,1.768 -1.615,1.768 -0.102,0 -0.493,0 -0.85,-0.221 0.425,-0.085 0.799,-0.442 0.799,-0.918 0,-0.459 -0.374,-0.595 -0.629,-0.595 -0.51,0 -0.935,0.442 -0.935,0.986 0,0.782 0.85,1.122 1.598,1.122 1.122,0 1.734,-1.19 1.785,-1.292 0.204,0.629 0.816,1.292 1.836,1.292 1.751,0 2.72,-2.193 2.72,-2.618 0,-0.17 -0.153,-0.17 -0.204,-0.17 -0.153,0 -0.187,0.068 -0.221,0.187 -0.561,1.819 -1.717,2.227 -2.261,2.227 -0.663,0 -0.935,-0.544 -0.935,-1.122 0,-0.374 0.102,-0.748 0.289,-1.496 l 0.578,-2.329 c 0.102,-0.442 0.493,-2.006 1.683,-2.006 0.085,0 0.493,0 0.85,0.221 -0.476,0.085 -0.816,0.51 -0.816,0.918 0,0.272 0.187,0.595 0.646,0.595 0.374,0 0.918,-0.306 0.918,-0.986 z"
     stroke="#000000"
     stroke-opacity="1"
     stroke-width="0.136"
     fill="#000000"
     fill-opacity="1"
     id="path52"
     style="font-family:LatinModern-Math, LatinModern, Asana-Math, Asana" />
  <path
     d="m 32.57277,152.22868 v -0.3689 h -0.3808 c -1.071,0 -1.1067,-0.1309 -1.1067,-0.5712 v -6.6759 c 0,-0.2856 0,-0.3094 -0.2737,-0.3094 -0.7378,0.7616 -1.785,0.7616 -2.1658,0.7616 v 0.3689 c 0.238,0 0.9401,0 1.5589,-0.3094 v 6.1642 c 0,0.4284 -0.0357,0.5712 -1.1067,0.5712 h -0.3808 v 0.3689 c 0.4165,-0.0357 1.4518,-0.0357 1.9278,-0.0357 0.476,0 1.5113,0 1.9278,0.0357 z"
     stroke="#000000"
     stroke-opacity="1"
     stroke-width="0.0952"
     fill="#000000"
     fill-opacity="1"
     id="path54"
     style="font-family:LatinModern-Math, LatinModern, Asana-Math, Asana" />
  <path
     d="m 42.625,144.97868 c 0,-0.119 -0.085,-0.204 -0.204,-0.204 -1.275,0 -2.21,-0.935 -2.21,-1.921 v -4.25 c 0,-1.241 -1.547,-2.125 -3.332,-2.125 -0.119,0 -0.204,0.085 -0.204,0.204 0,0.119 0.085,0.204 0.204,0.204 1.275,0 2.21,0.833 2.21,1.717 v 4.25 c 0,0.986 0.816,1.768 1.955,2.125 -1.139,0.357 -1.955,1.139 -1.955,2.125 v 4.25 c 0,0.884 -0.935,1.717 -2.21,1.717 -0.119,0 -0.204,0.085 -0.204,0.204 0,0.119 0.085,0.204 0.204,0.204 1.785,0 3.332,-0.884 3.332,-2.125 v -4.25 c 0,-0.986 0.935,-1.921 2.21,-1.921 0.119,0 0.204,-0.085 0.204,-0.204 z"
     stroke="#000000"
     stroke-opacity="1"
     stroke-width="0.136"
     fill="#000000"
     fill-opacity="1"
     id="path59"
     style="font-family:LatinModern-Math, LatinModern, Asana-Math, Asana" />
  <path
     d="m 14.625,41.974673 c 0,-0.119 -0.085,-0.204 -0.204,-0.204 -1.275,0 -2.21,-0.833 -2.21,-1.717 v -4.25 c 0,-0.986 -0.816,-1.768 -1.955,-2.125 1.139,-0.357 1.955,-1.139 1.955,-2.125 v -4.25 c 0,-0.884 0.935,-1.717 2.21,-1.717 0.119,0 0.204,-0.085 0.204,-0.204 0,-0.119 -0.085,-0.204 -0.204,-0.204 -1.785,0 -3.332,0.884 -3.332,2.125 v 4.25 c 0,0.986 -0.935,1.921 -2.21,1.921 -0.119,0 -0.204,0.085 -0.204,0.204 0,0.119 0.085,0.204 0.204,0.204 1.275,0 2.21,0.935 2.21,1.921 v 4.25 c 0,1.241 1.547,2.125 3.332,2.125 0.119,0 0.204,-0.085 0.204,-0.204 z"
     stroke="#000000"
     stroke-opacity="1"
     stroke-width="0.136"
     fill="#000000"
     fill-opacity="1"
     id="path63"
     style="font-family:LatinModern-Math, LatinModern, Asana-Math, Asana" />
  <path
     d="m 25.71232,31.489993 c 0,-0.884 -1.003,-1.122 -1.581,-1.122 -0.986,0 -1.581,0.901 -1.785,1.292 -0.425,-1.122 -1.343,-1.292 -1.836,-1.292 -1.768,0 -2.737,2.193 -2.737,2.618 0,0.17 0.204,0.17 0.204,0.17 0.136,0 0.187,-0.034 0.221,-0.187 0.578,-1.802 1.7,-2.227 2.278,-2.227 0.323,0 0.918,0.153 0.918,1.139 0,0.527 -0.289,1.666 -0.918,4.046 -0.272,1.054 -0.867,1.768 -1.615,1.768 -0.102,0 -0.493,0 -0.85,-0.221 0.425,-0.085 0.799,-0.442 0.799,-0.918 0,-0.459 -0.374,-0.595 -0.629,-0.595 -0.51,0 -0.935,0.442 -0.935,0.986 0,0.782 0.85,1.122 1.598,1.122 1.122,0 1.734,-1.19 1.785,-1.292 0.204,0.629 0.816,1.292 1.836,1.292 1.751,0 2.72,-2.193 2.72,-2.618 0,-0.17 -0.153,-0.17 -0.204,-0.17 -0.153,0 -0.187,0.068 -0.221,0.187 -0.561,1.819 -1.717,2.227 -2.261,2.227 -0.663,0 -0.935,-0.544 -0.935,-1.122 0,-0.374 0.102,-0.748 0.289,-1.496 l 0.578,-2.329 c 0.102,-0.442 0.493,-2.006 1.683,-2.006 0.085,0 0.493,0 0.85,0.221 -0.476,0.085 -0.816,0.51 -0.816,0.918 0,0.272 0.187,0.595 0.646,0.595 0.374,0 0.918,-0.306 0.918,-0.986 z"
     stroke="#000000"
     stroke-opacity="1"
     stroke-width="0.136"
     fill="#000000"
     fill-opacity="1"
     id="path65"
     style="font-family:LatinModern-Math, LatinModern, Asana-Math, Asana" />
  <path
     d="m 32.46067,37.120673 c 0,-0.952 -0.0595,-1.904 -0.476,-2.7846 -0.5474,-1.1424 -1.5232,-1.3328 -2.023,-1.3328 -0.714,0 -1.5827,0.3094 -2.0706,1.4161 -0.3808,0.8211 -0.4403,1.7493 -0.4403,2.7013 0,0.8925 0.0476,1.9635 0.5355,2.8679 0.5117,0.9639 1.3804,1.2019 1.9635,1.2019 0.6426,0 1.547,-0.2499 2.0706,-1.3804 0.3808,-0.8211 0.4403,-1.7493 0.4403,-2.6894 z m -0.9877,-0.1428 c 0,0.8925 0,1.7017 -0.1309,2.4633 -0.1785,1.1305 -0.8568,1.4875 -1.3923,1.4875 -0.4641,0 -1.1662,-0.2975 -1.3804,-1.4399 -0.1309,-0.714 -0.1309,-1.8088 -0.1309,-2.5109 0,-0.7616 0,-1.547 0.0952,-2.1896 0.2261,-1.4161 1.1186,-1.5232 1.4161,-1.5232 0.3927,0 1.1781,0.2142 1.4042,1.3923 0.119,0.6664 0.119,1.5708 0.119,2.3205 z"
     stroke="#000000"
     stroke-opacity="1"
     stroke-width="0.0952"
     fill="#000000"
     fill-opacity="1"
     id="path67"
     style="font-family:LatinModern-Math, LatinModern, Asana-Math, Asana" />
  <path
     d="m 42.025,33.678673 c 0,-0.119 -0.085,-0.204 -0.204,-0.204 -1.275,0 -2.21,-0.935 -2.21,-1.921 v -4.25 c 0,-1.241 -1.547,-2.125 -3.332,-2.125 -0.119,0 -0.204,0.085 -0.204,0.204 0,0.119 0.085,0.204 0.204,0.204 1.275,0 2.21,0.833 2.21,1.717 v 4.25 c 0,0.986 0.816,1.768 1.955,2.125 -1.139,0.357 -1.955,1.139 -1.955,2.125 v 4.25 c 0,0.884 -0.935,1.717 -2.21,1.717 -0.119,0 -0.204,0.085 -0.204,0.204 0,0.119 0.085,0.204 0.204,0.204 1.785,0 3.332,-0.884 3.332,-2.125 v -4.25 c 0,-0.986 0.935,-1.921 2.21,-1.921 0.119,0 0.204,-0.085 0.204,-0.204 z"
     stroke="#000000"
     stroke-opacity="1"
     stroke-width="0.136"
     fill="#000000"
     fill-opacity="1"
     id="path72"
     style="font-family:LatinModern-Math, LatinModern, Asana-Math, Asana" />
  <path
     d="m 175.725,157.27468 c 0,-0.119 -0.085,-0.204 -0.204,-0.204 -1.275,0 -2.21,-0.833 -2.21,-1.717 v -4.25 c 0,-0.986 -0.816,-1.768 -1.955,-2.125 1.139,-0.357 1.955,-1.139 1.955,-2.125 v -4.25 c 0,-0.884 0.935,-1.717 2.21,-1.717 0.119,0 0.204,-0.085 0.204,-0.204 0,-0.119 -0.085,-0.204 -0.204,-0.204 -1.785,0 -3.332,0.884 -3.332,2.125 v 4.25 c 0,0.986 -0.935,1.921 -2.21,1.921 -0.119,0 -0.204,0.085 -0.204,0.204 0,0.119 0.085,0.204 0.204,0.204 1.275,0 2.21,0.935 2.21,1.921 v 4.25 c 0,1.241 1.547,2.125 3.332,2.125 0.119,0 0.204,-0.085 0.204,-0.204 z"
     stroke="#000000"
     stroke-opacity="1"
     stroke-width="0.136"
     fill="#000000"
     fill-opacity="1"
     id="path76"
     style="font-family:LatinModern-Math, LatinModern, Asana-Math, Asana" />
  <path
     d="m 185.925,148.97868 c 0,-0.119 -0.085,-0.204 -0.204,-0.204 -1.275,0 -2.21,-0.935 -2.21,-1.921 v -4.25 c 0,-1.241 -1.547,-2.125 -3.332,-2.125 -0.119,0 -0.204,0.085 -0.204,0.204 0,0.119 0.085,0.204 0.204,0.204 1.275,0 2.21,0.833 2.21,1.717 v 4.25 c 0,0.986 0.816,1.768 1.955,2.125 -1.139,0.357 -1.955,1.139 -1.955,2.125 v 4.25 c 0,0.884 -0.935,1.717 -2.21,1.717 -0.119,0 -0.204,0.085 -0.204,0.204 0,0.119 0.085,0.204 0.204,0.204 1.785,0 3.332,-0.884 3.332,-2.125 v -4.25 c 0,-0.986 0.935,-1.921 2.21,-1.921 0.119,0 0.204,-0.085 0.204,-0.204 z"
     stroke="#000000"
     stroke-opacity="1"
     stroke-width="0.136"
     fill="#000000"
     fill-opacity="1"
     id="path78"
     style="font-family:LatinModern-Math, LatinModern, Asana-Math, Asana" />
  <path
     d="m 90.199325,5.151 c 0,-0.17 -0.153,-0.17 -0.204,-0.17 -0.17,0 -0.187,0.068 -0.238,0.306 -0.289,1.105 -0.595,2.108 -1.292,2.108 -0.459,0 -0.51,-0.442 -0.51,-0.782 0,-0.374 0.034,-0.51 0.221,-1.258 l 0.374,-1.53 0.612,-2.38 c 0.119,-0.476 0.119,-0.51 0.119,-0.578 0,-0.289 -0.204,-0.459 -0.493,-0.459 -0.408,0 -0.663,0.374 -0.714,0.748 -0.306,-0.629 -0.799,-1.088 -1.564,-1.088 -1.989,0 -4.097,2.499 -4.097,4.981 0,1.598 0.935,2.72 2.261,2.72 0.34,0 1.19,-0.068 2.21,-1.275 0.136,0.714 0.731,1.275 1.547,1.275 0.595,0 0.986,-0.391 1.258,-0.935 0.289,-0.612 0.51,-1.683 0.51,-1.683 z m -2.329,-3.213 c 0,0.102 -0.034,0.204 -0.051,0.289 l -0.85,3.332 c -0.085,0.306 -0.085,0.34 -0.34,0.629 -0.748,0.935 -1.445,1.207 -1.921,1.207 -0.85,0 -1.088,-0.935 -1.088,-1.598 0,-0.85 0.544,-2.941 0.935,-3.723 0.527,-1.003 1.292,-1.632 1.972,-1.632 1.105,0 1.343,1.394 1.343,1.496 z"
     stroke="#000000"
     stroke-opacity="1"
     stroke-width="0.136"
     fill="#000000"
     fill-opacity="1"
     id="path82"
     style="font-family:LatinModern-Math, LatinModern, Asana-Math, Asana" />
  <path
     d="m 98.59932,54.350993 c 0,-0.17 -0.153,-0.17 -0.204,-0.17 -0.17,0 -0.187,0.068 -0.238,0.306 -0.289,1.105 -0.595,2.108 -1.292,2.108 -0.459,0 -0.51,-0.442 -0.51,-0.782 0,-0.374 0.034,-0.51 0.221,-1.258 l 0.374,-1.53 0.612,-2.38 c 0.119,-0.476 0.119,-0.51 0.119,-0.578 0,-0.289 -0.204,-0.459 -0.49299,-0.459 -0.408,0 -0.66301,0.374 -0.71401,0.748 -0.306,-0.629 -0.799,-1.088 -1.564,-1.088 -1.988995,0 -4.096995,2.499 -4.096995,4.981 0,1.598 0.935,2.72 2.261,2.72 0.34,0 1.19,-0.068 2.209995,-1.275 0.13601,0.714 0.73101,1.275 1.547,1.275 0.59501,0 0.986,-0.391 1.258,-0.935 0.289,-0.612 0.51,-1.683 0.51,-1.683 z m -2.329,-3.213 c 0,0.102 -0.034,0.204 -0.051,0.289 l -0.85,3.332 c -0.085,0.306 -0.085,0.34 -0.34,0.629 -0.747995,0.935 -1.444995,1.207 -1.920995,1.207 -0.85,0 -1.088,-0.935 -1.088,-1.598 0,-0.85 0.544,-2.941 0.935,-3.723 0.527,-1.003 1.292,-1.632 1.971995,-1.632 1.105,0 1.343,1.394 1.343,1.496 z"
     stroke="#000000"
     stroke-opacity="1"
     stroke-width="0.136"
     fill="#000000"
     fill-opacity="1"
     id="path86"
     style="font-family:LatinModern-Math, LatinModern, Asana-Math, Asana" />
  <path
     d="m 10.599325,95.550997 c 0,-0.17 -0.153,-0.17 -0.204,-0.17 -0.17,0 -0.187,0.068 -0.238,0.306 -0.289,1.105 -0.595,2.108 -1.292,2.108 -0.459,0 -0.51,-0.442 -0.51,-0.782 0,-0.374 0.034,-0.51 0.221,-1.258 l 0.374,-1.53 0.612,-2.38 c 0.119,-0.476 0.119,-0.51 0.119,-0.578 0,-0.289 -0.204,-0.459 -0.493,-0.459 -0.408,0 -0.663,0.374 -0.714,0.748 -0.306,-0.629 -0.799,-1.088 -1.564,-1.088 -1.989,0 -4.0969998,2.499 -4.0969998,4.981 0,1.598 0.935,2.72 2.2609998,2.72 0.34,0 1.19,-0.068 2.21,-1.275 0.136,0.714 0.731,1.275 1.547,1.275 0.595,0 0.986,-0.391 1.258,-0.935 0.289,-0.612 0.51,-1.683 0.51,-1.683 z m -2.329,-3.213 c 0,0.102 -0.034,0.204 -0.051,0.289 l -0.85,3.332 c -0.085,0.306 -0.085,0.34 -0.34,0.629 -0.748,0.935 -1.445,1.207 -1.921,1.207 -0.8499998,0 -1.0879998,-0.935 -1.0879998,-1.598 0,-0.85 0.544,-2.941 0.9349998,-3.723 0.527,-1.003 1.292,-1.632 1.972,-1.632 1.105,0 1.343,1.394 1.343,1.496 z"
     stroke="#000000"
     stroke-opacity="1"
     stroke-width="0.136"
     fill="#000000"
     fill-opacity="1"
     id="path90"
     style="font-family:LatinModern-Math, LatinModern, Asana-Math, Asana" />
  <path
     d="m 94.788325,159.188 c 0,-1.547 -0.901,-2.72 -2.261,-2.72 -0.782,0 -1.479,0.493 -1.989,1.02 l 1.258,-5.117 c 0,0 0,-0.187 -0.221,-0.187 -0.391,0 -1.632,0.136 -2.074,0.17 -0.136,0.017 -0.323,0.034 -0.323,0.34 0,0.204 0.153,0.204 0.408,0.204 0.816,0 0.85,0.119 0.85,0.289 0,0.119 -0.153,0.697 -0.238,1.054 l -1.394,5.542 c -0.204,0.85 -0.272,1.122 -0.272,1.717 0,1.615 0.901,2.669 2.159,2.669 2.006,0 4.097,-2.533 4.097,-4.981 z m -1.224,-0.748 c 0,1.003 -0.561,2.958 -0.867,3.604 -0.561,1.139 -1.343,1.751 -2.006,1.751 -0.578,0 -1.139,-0.459 -1.139,-1.717 0,-0.323 0,-0.646 0.272,-1.717 l 0.374,-1.564 c 0.102,-0.374 0.102,-0.408 0.255,-0.595 0.833,-1.105 1.598,-1.36 2.04,-1.36 0.612,0 1.071,0.51 1.071,1.598 z"
     stroke="#000000"
     stroke-opacity="1"
     stroke-width="0.136"
     fill="#000000"
     fill-opacity="1"
     id="path94"
     style="font-family:LatinModern-Math, LatinModern, Asana-Math, Asana" />
  <path
     d="m 107.98833,97.521327 c 0,-1.547 -0.901,-2.72 -2.261,-2.72 -0.782,0 -1.479,0.493 -1.989,1.02 l 1.258,-5.117 c 0,0 0,-0.187 -0.221,-0.187 -0.391,0 -1.632,0.136 -2.074,0.17 -0.136,0.017 -0.323,0.034 -0.323,0.34 0,0.204 0.153,0.204 0.408,0.204 0.816,0 0.85,0.119 0.85,0.289 0,0.119 -0.153,0.697 -0.238,1.054 l -1.394,5.542 c -0.204,0.85 -0.272,1.122 -0.272,1.717 0,1.615003 0.901,2.669003 2.159,2.669003 2.006,0 4.097,-2.533003 4.097,-4.981003 z m -1.224,-0.748 c 0,1.003 -0.561,2.958 -0.867,3.604003 -0.561,1.139 -1.343,1.751 -2.006,1.751 -0.578,0 -1.139,-0.459 -1.139,-1.717 0,-0.323 0,-0.646003 0.272,-1.717003 l 0.374,-1.564 c 0.102,-0.374 0.102,-0.408 0.255,-0.595 0.833,-1.105 1.598,-1.36 2.04,-1.36 0.612,0 1.071,0.51 1.071,1.598 z"
     stroke="#000000"
     stroke-opacity="1"
     stroke-width="0.136"
     fill="#000000"
     fill-opacity="1"
     id="path98"
     style="font-family:LatinModern-Math, LatinModern, Asana-Math, Asana" />
  <path
     d="m 197.58833,85.921327 c 0,-1.547 -0.901,-2.72 -2.261,-2.72 -0.782,0 -1.479,0.493 -1.989,1.02 l 1.258,-5.117 c 0,0 0,-0.187 -0.221,-0.187 -0.391,0 -1.632,0.136 -2.074,0.17 -0.136,0.017 -0.323,0.034 -0.323,0.34 0,0.204 0.153,0.204 0.408,0.204 0.816,0 0.85,0.119 0.85,0.289 0,0.119 -0.153,0.697 -0.238,1.054 l -1.394,5.542 c -0.204,0.85 -0.272,1.122 -0.272,1.717 0,1.615 0.901,2.669 2.159,2.669 2.006,0 4.097,-2.533 4.097,-4.981 z m -1.224,-0.748 c 0,1.003 -0.561,2.958 -0.867,3.604 -0.561,1.139 -1.343,1.751 -2.006,1.751 -0.578,0 -1.139,-0.459 -1.139,-1.717 0,-0.323 0,-0.646 0.272,-1.717 l 0.374,-1.564 c 0.102,-0.374 0.102,-0.408 0.255,-0.595 0.833,-1.105 1.598,-1.36 2.04,-1.36 0.612,0 1.071,0.51 1.071,1.598 z"
     stroke="#000000"
     stroke-opacity="1"
     stroke-width="0.136"
     fill="#000000"
     fill-opacity="1"
     id="path102"
     style="font-family:LatinModern-Math, LatinModern, Asana-Math, Asana" />
</svg>
