<?xml version="1.0" encoding="UTF-8" standalone="no"?>
<svg
   x="0"
   y="0"
   width="225.99902"
   height="164.66354"
   style="fill:none"
   version="1.1"
   id="svg45"
   sodipodi:docname="with_silent_transitions_2.svg"
   inkscape:version="1.4 (86a8ad7, 2024-10-11)"
   xmlns:inkscape="http://www.inkscape.org/namespaces/inkscape"
   xmlns:sodipodi="http://sodipodi.sourceforge.net/DTD/sodipodi-0.dtd"
   xmlns="http://www.w3.org/2000/svg"
   xmlns:svg="http://www.w3.org/2000/svg">
  <defs
     id="defs45" />
  <sodipodi:namedview
     id="namedview45"
     pagecolor="#ffffff"
     bordercolor="#000000"
     borderopacity="0.25"
     inkscape:showpageshadow="2"
     inkscape:pageopacity="0.0"
     inkscape:pagecheckerboard="0"
     inkscape:deskcolor="#d1d1d1"
     inkscape:zoom="2.7414459"
     inkscape:cx="286.71001"
     inkscape:cy="76.784298"
     inkscape:window-width="1920"
     inkscape:window-height="1009"
     inkscape:window-x="-8"
     inkscape:window-y="-8"
     inkscape:window-maximized="1"
     inkscape:current-layer="svg45" />
  <path
     class="connection real"
     stroke-dasharray="none"
     d="m 180.485,131.17613 q -3.32,-1.84 -1.92,-5.32 1.65,-2.79 -1.62,-4.45 -3.26,-1.6 -1.8,-4.86 1.47,-3.23 -1.74,-4.63 -3.18,-1.34 -1.68,-4.41 1.5,-3.03 -1.85,-4.69 -3.32,-1.55 -1.8,-4.429997 1.31,-3.32 -1.97,-4.61 -3.44,-1.6 -2.13,-4.73 1.29,-3.12 -2.12,-4.38 -3.37,-1.08 -2.32,-4.4 0.78,-3.66 -2.56,-4.34 -3.48,-0.78 -2.83,-4.23 0.51,-3.49 -2.96,-3.79 -3.6,-0.29 -3.6,-3.86 0.01,-3.4 -3.61,-3.19 l -0.76,-0.6 -6.53,-4.27"
     style="fill:none;fill-opacity:1;stroke:#808080;stroke-width:2px;stroke-opacity:1"
     id="path1" />
  <path
     d="m 148.04283,54.140617 -14.86284,0.03218 9.32013,11.583125 -1.28779,-7.750174 z"
     id="path2"
     style="fill:#808080;fill-opacity:1;stroke:none;stroke-width:2px" />
  <path
     class="connection real"
     stroke-dasharray="none"
     d="m 115.825,48.006133 q 2.81,2.38 0.71,5.34 -2.04,2.97 0.89,4.97 2.94,1.81 1.05,4.65 -1.7,3.33 1.35,4.76 3.17,1.63 1.69,4.82 -1.35,3.27 1.94,4.48 3.27,0.97 2.36,4.51 -0.95,3.3 2.63,4.23 3.55,0.7 2.9,4 -0.25,3.68 3.17,3.83 3.65,0.32 3.43,3.73 -0.09,3.479997 3.41,3.409997 3.79,0.16 3.93,3.7 -0.09,3.29 3.53,3.19 3.66,-0.11 3.72,3.27 l 2.46,2.15 5.89,5.15"
     style="fill:none;fill-opacity:1;stroke:#808080;stroke-width:2px;stroke-opacity:1"
     id="path3" />
  <path
     d="m 149.3926,116.57705 14.2874,4.09575 -5.73763,-13.71544 -0.91468,7.80301 z"
     id="path4"
     style="fill:#808080;fill-opacity:1;stroke:none;stroke-width:2px" />
  <path
     class="connection real"
     stroke-dasharray="none"
     d="m 115.825,48.006133 q -1.28,3.51 -4.63,2.54 -3.44,-0.85 -4.27,2.62 -0.72,3.48 -4.24,2.9 -3.25,-0.73 -3.86,2.87 -0.49,3.6 -3.79,3.08 -3.69,-0.1 -3.72,3.28 -0.25,3.68 -3.62,3.48 -3.73,0.24 -3.5,3.65 0.02,3.72 -3.38,3.83 -3.43,0.22 -3.22,4 0.6,3.35 -2.79,3.77 -3.68,0.94 -2.88,4.3 0.89,3.3 -2.68,4.45 -3.35,0.88 -2.25,4.16 1.21,3.199997 -2.23,4.699997 -3.25,1.22 -1.81,4.38 l -1.13,3.12 -2.15,7.31"
     style="fill:none;fill-opacity:1;stroke:#808080;stroke-width:2px;stroke-opacity:1"
     id="path5" />
  <path
     d="m 55.069151,105.9581 3.752512,14.38136 8.880597,-11.92345 -7.180872,3.18726 z"
     id="path6"
     style="fill:#808080;fill-opacity:1;stroke:none;stroke-width:2px" />
  <path
     class="connection real"
     stroke-dasharray="none"
     d="m 180.485,131.17613 q 3.67,0.82 3.31,4.46 -0.27,3.61 3.25,3.83 3.38,-0.07 3.18,3.23 0.47,3.76 4.11,3.43 3.34,-0.74 3.95,2.51 1.42,3.44 4.67,1.95 3.02,-1.88 4.74,0.79 3.12,2.33 4.98,-0.62 1.28,-3.17 4.51,-2.19 3.61,0.25 3.69,-3.62 -0.92,-3.19 2.25,-4.12 3.17,-2.04 0.98,-5.06 -2.65,-2.02 -0.88,-4.8 0.8,-3.61 -2.95,-3.94 -3.38,0.81 -4.42,-2.24 -2.13,-2.98 -5.27,-0.69 l -1.01,0.02 -7.61,1.14"
     style="fill:none;fill-opacity:1;stroke:#808080;stroke-width:2px;stroke-opacity:1"
     id="path7" />
  <path
     d="m 209.27882,116.0527 -10.80717,10.20343 14.72435,2.05596 -6.24661,-4.76481 z"
     id="path8"
     style="fill:#808080;fill-opacity:1;stroke:none;stroke-width:2px" />
  <path
     class="connection real"
     stroke-dasharray="none"
     d="m 58.825,138.00613 c -49.17,41.4 -66,-35.56 -16.3,-13.71"
     style="fill:none;fill-opacity:1;stroke:#000000;stroke-width:2px"
     id="path9" />
  <path
     d="m 30.79329,125.57041 14.86171,0.18572 -9.149317,-11.71852 1.174032,7.76822 z"
     id="path10"
     style="fill:#000000;stroke:none;stroke-width:2px" />
  <path
     class="connection real"
     stroke-dasharray="none"
     d="m 58.825,138.00613 c 38.66,12.77 60.99,10.8 99.71,-0.28"
     style="fill:none;fill-opacity:1;stroke:#000000;stroke-width:2px"
     id="path11" />
  <path
     d="m 151.12502,146.60721 11.05497,-9.93442 -14.6693,-2.41765 6.12747,4.91708 z"
     id="path12"
     style="fill:#000000;stroke:none;stroke-width:2px" />
  <path
     class="real"
     d="m 41.155,138.00613 c 0,-9.76 7.91,-17.67 17.67,-17.67 9.75,0 17.66,7.91 17.66,17.67 0,9.76 -7.91,17.67 -17.66,17.67 -9.76,0 -17.67,-7.91 -17.67,-17.67 z"
     style="fill:#ffffff;fill-opacity:1;stroke:#000000;stroke-width:2px"
     id="path13" />
  <path
     class="real"
     d="m 162.825,131.17613 c 0,-9.76 7.91,-17.67 17.66,-17.67 9.76,0 17.67,7.91 17.67,17.67 0,9.75 -7.91,17.66 -17.67,17.66 -9.75,0 -17.66,-7.91 -17.66,-17.66 z"
     style="fill:#ffffff;fill-opacity:1;stroke:#000000;stroke-width:2px"
     id="path14" />
  <path
     class="real"
     d="m 165.965,131.17613 c 0,-8.02 6.5,-14.52 14.52,-14.52 8.02,0 14.52,6.5 14.52,14.52 0,8.02 -6.5,14.52 -14.52,14.52 -8.02,0 -14.52,-6.5 -14.52,-14.52 z"
     style="fill:#ffffff;fill-opacity:1;stroke:#000000;stroke-width:2px"
     id="path15" />
  <path
     class="connection real"
     stroke-dasharray="none"
     d="m 115.825,48.006133 q -3.77,-0.16 -3.87,-3.84 0.16,-3.53 -3.29,-3.72 -3.43,-0.32 -3.13,-4.2 1,-3.06 -2.44,-4.03 -3.37,-1.19 -1.97,-4.38 1.58,-3.25 -1.38,-5.09 -2.78,-2.22 -0.3,-4.64 2.73,-2.1 0.86,-4.9 -1.21,-3.6300003 2.16,-4.4200003 3.41,-0.25 3.42,-3.63 1.13,-3.7 4.47,-2.45 2.96,1.82 4.83,-0.83 3.07,-2.18000002 5.01,1.06 0.55,3.17 4.04,2.95 3.67,0.78 2.62,4.2100003 -1.58,3.13 1.32,4.83 2.77,2.45 0.33,4.86 l -0.01,0.59 -0.92,7.93"
     style="fill:none;fill-opacity:1;stroke:#808080;stroke-width:2px;stroke-opacity:1"
     id="path16" />
  <path
     d="m 123.85063,17.581713 2.82936,14.59108 9.62165,-11.333907 -7.36921,2.723649 z"
     id="path17"
     style="fill:#808080;fill-opacity:1;stroke:none;stroke-width:2px" />
  <path
     class="real"
     d="m 98.155,48.006133 c 0,-9.76 7.91,-17.67 17.67,-17.67 9.75,0 17.66,7.91 17.66,17.67 0,9.76 -7.91,17.67 -17.66,17.67 -9.76,0 -17.67,-7.91 -17.67,-17.67 z"
     style="fill:#ffffff;fill-opacity:1;stroke:#000000;stroke-width:2px"
     id="path18" />
  <path
     d="m 62.735,134.55479 c 0,-0.306 -0.238,-0.459 -0.493,-0.459 -0.17,0 -0.442,0.102 -0.595,0.357 -0.034,0.085 -0.17,0.612 -0.238,0.918 l -0.34,1.36 -0.765,3.06 c -0.068,0.255 -0.799,1.445 -1.921,1.445 -0.867,0 -1.054,-0.748 -1.054,-1.377 0,-0.782 0.289,-1.836 0.867,-3.332 0.272,-0.697 0.34,-0.884 0.34,-1.224 0,-0.765 -0.544,-1.394 -1.394,-1.394 -1.615,0 -2.244,2.465 -2.244,2.618 0,0.17 0.204,0.17 0.204,0.17 0.17,0 0.187,-0.034 0.272,-0.306 0.459,-1.598 1.139,-2.108 1.717,-2.108 0.136,0 0.425,0 0.425,0.544 0,0.425 -0.17,0.867 -0.289,1.19 -0.68,1.802 -0.986,2.771 -0.986,3.57 0,1.513 1.071,2.023 2.074,2.023 0.663,0 1.241,-0.289 1.717,-0.765 -0.221,0.884 -0.425,1.717 -1.105,2.618 -0.442,0.578 -1.088,1.071 -1.87,1.071 -0.238,0 -1.003,-0.051 -1.292,-0.714 0.272,0 0.493,0 0.731,-0.204 0.17,-0.153 0.34,-0.374 0.34,-0.697 0,-0.527 -0.459,-0.595 -0.629,-0.595 -0.391,0 -0.952,0.272 -0.952,1.105 0,0.85 0.748,1.479 1.802,1.479 1.751,0 3.502,-1.547 3.978,-3.468 l 1.632,-6.494 c 0.068,-0.238 0.068,-0.272 0.068,-0.391 z"
     stroke="#000000"
     stroke-opacity="1"
     stroke-width="0.136"
     fill="#000000"
     fill-opacity="1"
     id="path24"
     style="font-family:LatinModern-Math, LatinModern, Asana-Math, Asana" />
  <path
     d="m 7.225,135.14947 c 0,-1.36 -0.085,-2.72 -0.68,-3.978 -0.782,-1.632 -2.176,-1.904 -2.89,-1.904 -1.02,0 -2.261,0.442 -2.958,2.023 -0.544,1.173 -0.629,2.499 -0.629,3.859 0,1.275 0.068,2.805 0.765,4.097 0.731,1.377 1.972,1.717 2.805,1.717 0.918,0 2.21,-0.357 2.958,-1.972 0.544,-1.173 0.629,-2.499 0.629,-3.842 z m -1.411,-0.204 c 0,1.275 0,2.431 -0.187,3.519 -0.255,1.615 -1.224,2.125 -1.989,2.125 -0.663,0 -1.666,-0.425 -1.972,-2.057 -0.187,-1.02 -0.187,-2.584 -0.187,-3.587 0,-1.088 0,-2.21 0.136,-3.128 0.323,-2.023 1.598,-2.176 2.023,-2.176 0.561,0 1.683,0.306 2.006,1.989 0.17,0.952 0.17,2.244 0.17,3.315 z"
     stroke="#000000"
     stroke-opacity="1"
     stroke-width="0.136"
     fill="#000000"
     fill-opacity="1"
     id="path28"
     style="font-family:LatinModern-Math, LatinModern, Asana-Math, Asana" />
  <path
     d="m 185.01069,128.24547 c 0,-0.17 -0.187,-0.17 -0.187,-0.17 -0.119,0 -0.17,0.034 -0.255,0.187 -0.51,0.816 -0.867,1.088 -1.275,1.088 -0.408,0 -0.612,-0.255 -0.867,-0.544 -0.323,-0.391 -0.612,-0.731 -1.173,-0.731 -1.275,0 -2.057,1.581 -2.057,1.938 0,0.085 0.051,0.187 0.204,0.187 0.153,0 0.187,-0.085 0.221,-0.187 0.323,-0.782 1.309,-0.799 1.445,-0.799 0.357,0 0.68,0.119 1.071,0.255 0.68,0.255 0.867,0.255 1.309,0.255 -0.612,0.731 -2.04,1.955 -2.363,2.227 l -1.53,1.428 c -1.156,1.139 -1.751,2.108 -1.751,2.227 0,0.17 0.204,0.17 0.204,0.17 0.136,0 0.17,-0.034 0.272,-0.221 0.391,-0.595 0.901,-1.054 1.445,-1.054 0.391,0 0.561,0.153 0.986,0.646 0.289,0.357 0.595,0.629 1.088,0.629 1.683,0 2.669,-2.159 2.669,-2.618 0,-0.085 -0.068,-0.17 -0.204,-0.17 -0.153,0 -0.187,0.102 -0.238,0.221 -0.391,1.105 -1.479,1.428 -2.04,1.428 -0.34,0 -0.646,-0.102 -1.003,-0.221 -0.578,-0.221 -0.833,-0.289 -1.19,-0.289 0,0 -0.306,0 -0.459,0.051 0.918,-0.986 1.411,-1.411 2.023,-1.938 0,0 1.054,-0.918 1.666,-1.53 1.615,-1.581 1.989,-2.397 1.989,-2.465 z"
     stroke="#000000"
     stroke-opacity="1"
     stroke-width="0.136"
     fill="#000000"
     fill-opacity="1"
     id="path32"
     style="font-family:LatinModern-Math, LatinModern, Asana-Math, Asana" />
  <path
     d="m 114.528,164.58947 v -0.527 h -0.544 c -1.53,0 -1.581,-0.187 -1.581,-0.816 v -9.537 c 0,-0.408 0,-0.442 -0.391,-0.442 -1.054,1.088 -2.55,1.088 -3.094,1.088 v 0.527 c 0.34,0 1.343,0 2.227,-0.442 v 8.806 c 0,0.612 -0.051,0.816 -1.581,0.816 h -0.544 v 0.527 c 0.595,-0.051 2.074,-0.051 2.754,-0.051 0.68,0 2.159,0 2.754,0.051 z"
     stroke="#000000"
     stroke-opacity="1"
     stroke-width="0.136"
     fill="#000000"
     fill-opacity="1"
     id="path36"
     style="font-family:LatinModern-Math, LatinModern, Asana-Math, Asana" />
  <path
     d="m 119.864,45.530789 c 0,-0.884 -1.003,-1.122 -1.581,-1.122 -0.986,0 -1.581,0.901 -1.785,1.292 -0.425,-1.122 -1.343,-1.292 -1.836,-1.292 -1.768,0 -2.737,2.193 -2.737,2.618 0,0.17 0.204,0.17 0.204,0.17 0.136,0 0.187,-0.034 0.221,-0.187 0.578,-1.802 1.7,-2.227 2.278,-2.227 0.323,0 0.918,0.153 0.918,1.139 0,0.527 -0.289,1.666 -0.918,4.046 -0.272,1.054 -0.867,1.768 -1.615,1.768 -0.102,0 -0.493,0 -0.85,-0.221 0.425,-0.085 0.799,-0.442 0.799,-0.918 0,-0.459 -0.374,-0.595 -0.629,-0.595 -0.51,0 -0.935,0.442 -0.935,0.986 0,0.782 0.85,1.122 1.598,1.122 1.122,0 1.734,-1.19 1.785,-1.292 0.204,0.629 0.816,1.292 1.836,1.292 1.751,0 2.72,-2.193 2.72,-2.618 0,-0.17 -0.153,-0.17 -0.204,-0.17 -0.153,0 -0.187,0.068 -0.221,0.187 -0.561,1.819 -1.717,2.227 -2.261,2.227 -0.663,0 -0.935,-0.544 -0.935,-1.122 0,-0.374 0.102,-0.748 0.289,-1.496 l 0.578,-2.329 c 0.102,-0.442 0.493,-2.006 1.683,-2.006 0.085,0 0.493,0 0.85,0.221 -0.476,0.085 -0.816,0.51 -0.816,0.918 0,0.272 0.187,0.595 0.646,0.595 0.374,0 0.918,-0.306 0.918,-0.986 z"
     stroke="#000000"
     stroke-opacity="1"
     stroke-width="0.136"
     fill="#000000"
     fill-opacity="1"
     id="path40"
     style="font-family:LatinModern-Math, LatinModern, Asana-Math, Asana" />
</svg>
