<?xml version="1.0" encoding="UTF-8" standalone="no"?>
<svg
   x="0"
   y="0"
   width="146.19534"
   height="82.520988"
   style="fill:none"
   version="1.1"
   id="svg53"
   xmlns="http://www.w3.org/2000/svg"
   xmlns:svg="http://www.w3.org/2000/svg">
  <defs
     id="defs53" />
  <svg
     class="role-diagram-draw-area"
     style="overflow:visible"
     version="1.1"
     id="svg18"
     width="100%"
     height="100%"
     transform="translate(-33.827641,-69.587334)">
    <g
       class="shapes-region"
       style="fill:none;stroke:#000000"
       id="g13">
      <g
         class="arrow-line"
         id="g3">
        <path
           class="connection real"
           stroke-dasharray="none"
           d="m 149.52,127.06 c -4.08,-47.08 33.52,-54.61 13.7,-15.56"
           style="fill:none;fill-opacity:1;stroke:#000000;stroke-width:1px"
           id="path1" />
        <g
           stroke="#000"
           transform="rotate(-62.31,174.51005,-78.130509)"
           style="stroke:#000000;stroke-width:1px"
           id="g2">
          <path
             d="M 10.93,-3.29 Q 4.96,-0.45 0,0 4.96,0.45 10.93,3.29"
             id="path2" />
        </g>
      </g>
      <g
         class="arrow-line"
         id="g5">
        <path
           class="connection real"
           stroke-dasharray="none"
           d="m 149.52,127.06 c -20.29,17.5 -51.01,10.12 -69.63,3.82"
           style="fill:none;fill-opacity:1;stroke:#000000;stroke-width:1px"
           id="path3" />
        <g
           stroke="#000"
           transform="rotate(19.18,-346.4992,296.56871)"
           style="stroke:#000000;stroke-width:1px"
           id="g4">
          <path
             d="M 10.93,-3.29 Q 4.96,-0.45 0,0 4.96,0.45 10.93,3.29"
             id="path4" />
        </g>
      </g>
      <g
         class="arrow-line"
         id="g7">
        <path
           class="connection real"
           stroke-dasharray="none"
           d="m 68.6,118.2 c 18.72,-10.92 40.48,-7.39 61.95,0.58"
           style="fill:none;fill-opacity:1;stroke:#000000;stroke-width:1px"
           id="path5" />
        <g
           stroke="#000"
           transform="rotate(-159.1,77.110862,47.508744)"
           style="stroke:#000000;stroke-width:1px"
           id="g6">
          <path
             d="M 10.93,-3.29 Q 4.96,-0.45 0,0 4.96,0.45 10.93,3.29"
             id="path6" />
        </g>
      </g>
      <g
         class="grouped-shape"
         id="g9">
        <g
           class="composite-shape"
           id="g8">
          <path
             class="real"
             d="m 131.38,127.06 c 0,-10.01 8.12,-18.14 18.14,-18.14 10.02,0 18.14,8.13 18.14,18.14 0,10.02 -8.12,18.14 -18.14,18.14 -10.02,0 -18.14,-8.12 -18.14,-18.14 z"
             style="fill:#ffffff;fill-opacity:1;stroke:#000000;stroke-width:1px"
             id="path7" />
        </g>
      </g>
      <g
         class="arrow-line"
         id="g11">
        <path
           class="connection real"
           stroke-dasharray="none"
           d="M 68.6,118.2 C 55.53,64.84 9.92,91.36 51.32,108.97"
           style="fill:none;fill-opacity:1;stroke:#000000;stroke-width:1px"
           id="path9" />
        <g
           stroke="#000"
           transform="rotate(-158.02,36.932406,49.642561)"
           style="stroke:#000000;stroke-width:1px"
           id="g10">
          <path
             d="M 10.93,-3.29 Q 4.96,-0.45 0,0 4.96,0.45 10.93,3.29"
             id="path10" />
        </g>
      </g>
      <g
         id="g12" />
    </g>
    <g
       id="g14" />
    <g
       id="g17">
      <g
         id="g15">
        <circle
           cx="67.525002"
           cy="117.79165"
           r="15.913831"
           style="fill:#ffffff;fill-opacity:1;stroke:#000000;stroke-width:1px"
           id="circle14" />
      </g>
      <g
         id="g16">
        <circle
           cx="149.52499"
           cy="126.99165"
           r="15.913831"
           style="fill:#ffffff;fill-opacity:1;stroke:#000000;stroke-width:1px"
           id="circle15" />
      </g>
    </g>
    <g
       id="g18" />
  </svg>
  <svg
     width="686"
     height="227.5"
     style="font-family:LatinModern-Math, LatinModern, Asana-Math, Asana"
     version="1.1"
     id="svg52"
     transform="translate(-33.827641,-69.587334)">
    <g
       id="g27">
      <g
         id="g26">
        <g
           id="g20">
          <g
             transform="translate(58.933325,123.54)"
             id="g19">
            <path
               transform="scale(0.017,-0.017)"
               d="m 527,376 c 0,52 -59,66 -93,66 -58,0 -93,-53 -105,-76 -25,66 -79,76 -108,76 C 117,442 60,313 60,288 c 0,-10 12,-10 12,-10 8,0 11,2 13,11 34,106 100,131 134,131 19,0 54,-9 54,-67 0,-31 -17,-98 -54,-238 C 203,53 168,11 124,11 c -6,0 -29,0 -50,13 25,5 47,26 47,54 0,27 -22,35 -37,35 -30,0 -55,-26 -55,-58 0,-46 50,-66 94,-66 66,0 102,70 105,76 12,-37 48,-76 108,-76 103,0 160,129 160,154 0,10 -9,10 -12,10 -9,0 -11,-4 -13,-11 C 438,35 370,11 338,11 c -39,0 -55,32 -55,66 0,22 6,44 17,88 l 34,137 c 6,26 29,118 99,118 5,0 29,0 50,-13 -28,-5 -48,-30 -48,-54 0,-16 11,-35 38,-35 22,0 54,18 54,58 z"
               stroke="#000000"
               stroke-opacity="1"
               stroke-width="8"
               fill="#000000"
               fill-opacity="1"
               id="path18" />
          </g>
        </g>
        <g
           id="g25">
          <g
             id="g24">
            <g
               id="g23">
              <g
                 id="g22">
                <g
                   transform="translate(69.166675,126.59333)"
                   id="g21">
                  <path
                     transform="scale(0.0119,-0.0119)"
                     d="m 460,320 c 0,80 -5,160 -40,234 C 374,650 292,666 250,666 190,666 117,640 76,547 44,478 39,400 39,320 39,245 43,155 84,79 127,-2 200,-22 249,-22 c 54,0 130,21 174,116 32,69 37,147 37,226 z m -83,12 C 377,257 377,189 366,125 351,30 294,0 249,0 210,0 151,25 133,121 c -11,60 -11,152 -11,211 0,64 0,130 8,184 19,119 94,128 119,128 33,0 99,-18 118,-117 10,-56 10,-132 10,-195 z"
                     stroke="#000000"
                     stroke-opacity="1"
                     stroke-width="8"
                     fill="#000000"
                     fill-opacity="1"
                     id="path20" />
                </g>
              </g>
            </g>
          </g>
        </g>
      </g>
    </g>
    <g
       id="g31">
      <g
         id="g30">
        <g
           id="g29">
          <g
             transform="translate(101.3,105.85333)"
             id="g28">
            <path
               transform="scale(0.017,-0.017)"
               d="m 498,143 c 0,10 -9,10 -12,10 -10,0 -11,-4 -14,-18 C 455,70 437,11 396,11 c -27,0 -30,26 -30,46 0,22 2,30 13,74 l 22,90 36,140 c 7,28 7,30 7,34 0,17 -12,27 -29,27 -24,0 -39,-22 -42,-44 -18,37 -47,64 -92,64 C 164,442 40,295 40,149 40,55 95,-11 173,-11 c 20,0 70,4 130,75 8,-42 43,-75 91,-75 35,0 58,23 74,55 17,36 30,99 30,99 z M 361,332 c 0,-6 -2,-12 -3,-17 L 308,119 C 303,101 303,99 288,82 244,27 203,11 175,11 c -50,0 -64,55 -64,94 0,50 32,173 55,219 31,59 76,96 116,96 65,0 79,-82 79,-88 z"
               stroke="#000000"
               stroke-opacity="1"
               stroke-width="8"
               fill="#000000"
               fill-opacity="1"
               id="path27" />
          </g>
        </g>
      </g>
    </g>
    <g
       id="g40">
      <g
         id="g39">
        <g
           id="g33">
          <g
             transform="translate(140.93333,132.74)"
             id="g32">
            <path
               transform="scale(0.017,-0.017)"
               d="m 527,376 c 0,52 -59,66 -93,66 -58,0 -93,-53 -105,-76 -25,66 -79,76 -108,76 C 117,442 60,313 60,288 c 0,-10 12,-10 12,-10 8,0 11,2 13,11 34,106 100,131 134,131 19,0 54,-9 54,-67 0,-31 -17,-98 -54,-238 C 203,53 168,11 124,11 c -6,0 -29,0 -50,13 25,5 47,26 47,54 0,27 -22,35 -37,35 -30,0 -55,-26 -55,-58 0,-46 50,-66 94,-66 66,0 102,70 105,76 12,-37 48,-76 108,-76 103,0 160,129 160,154 0,10 -9,10 -12,10 -9,0 -11,-4 -13,-11 C 438,35 370,11 338,11 c -39,0 -55,32 -55,66 0,22 6,44 17,88 l 34,137 c 6,26 29,118 99,118 5,0 29,0 50,-13 -28,-5 -48,-30 -48,-54 0,-16 11,-35 38,-35 22,0 54,18 54,58 z"
               stroke="#000000"
               stroke-opacity="1"
               stroke-width="8"
               fill="#000000"
               fill-opacity="1"
               id="path31" />
          </g>
        </g>
        <g
           id="g38">
          <g
             id="g37">
            <g
               id="g36">
              <g
                 id="g35">
                <g
                   transform="translate(151.16667,135.79333)"
                   id="g34">
                  <path
                     transform="scale(0.0119,-0.0119)"
                     d="m 419,0 v 31 h -32 c -90,0 -93,11 -93,48 v 561 c 0,24 0,26 -23,26 C 209,602 121,602 89,602 v -31 c 20,0 79,0 131,26 V 79 C 220,43 217,31 127,31 H 95 V 0 c 35,3 122,3 162,3 40,0 127,0 162,-3 z"
                     stroke="#000000"
                     stroke-opacity="1"
                     stroke-width="8"
                     fill="#000000"
                     fill-opacity="1"
                     id="path33" />
                </g>
              </g>
            </g>
          </g>
        </g>
      </g>
    </g>
    <g
       id="g44">
      <g
         id="g43">
        <g
           id="g42">
          <g
             transform="translate(101.7,151.85332)"
             id="g41">
            <path
               transform="scale(0.017,-0.017)"
               d="m 498,143 c 0,10 -9,10 -12,10 -10,0 -11,-4 -14,-18 C 455,70 437,11 396,11 c -27,0 -30,26 -30,46 0,22 2,30 13,74 l 22,90 36,140 c 7,28 7,30 7,34 0,17 -12,27 -29,27 -24,0 -39,-22 -42,-44 -18,37 -47,64 -92,64 C 164,442 40,295 40,149 40,55 95,-11 173,-11 c 20,0 70,4 130,75 8,-42 43,-75 91,-75 35,0 58,23 74,55 17,36 30,99 30,99 z M 361,332 c 0,-6 -2,-12 -3,-17 L 308,119 C 303,101 303,99 288,82 244,27 203,11 175,11 c -50,0 -64,55 -64,94 0,50 32,173 55,219 31,59 76,96 116,96 65,0 79,-82 79,-88 z"
               stroke="#000000"
               stroke-opacity="1"
               stroke-width="8"
               fill="#000000"
               fill-opacity="1"
               id="path40" />
          </g>
        </g>
      </g>
    </g>
    <g
       id="g48">
      <g
         id="g47">
        <g
           id="g46">
          <g
             transform="translate(39.7,81.453333)"
             id="g45">
            <path
               transform="scale(0.017,-0.017)"
               d="m 415,282 c 0,91 -53,160 -133,160 -46,0 -87,-29 -117,-60 l 74,301 c 0,0 0,11 -13,11 -23,0 -96,-8 -122,-10 -8,-1 -19,-2 -19,-20 0,-12 9,-12 24,-12 48,0 50,-7 50,-17 0,-7 -9,-41 -14,-62 L 63,247 C 51,197 47,181 47,146 47,51 100,-11 174,-11 c 118,0 241,149 241,293 z m -72,44 C 343,267 310,152 292,114 259,47 213,11 174,11 c -34,0 -67,27 -67,101 0,19 0,38 16,101 l 22,92 c 6,22 6,24 15,35 49,65 94,80 120,80 36,0 63,-30 63,-94 z"
               stroke="#000000"
               stroke-opacity="1"
               stroke-width="8"
               fill="#000000"
               fill-opacity="1"
               id="path44" />
          </g>
        </g>
      </g>
    </g>
    <g
       id="g52">
      <g
         id="g51">
        <g
           id="g50">
          <g
             transform="translate(172.9,98.253333)"
             id="g49">
            <path
               transform="scale(0.017,-0.017)"
               d="m 415,282 c 0,91 -53,160 -133,160 -46,0 -87,-29 -117,-60 l 74,301 c 0,0 0,11 -13,11 -23,0 -96,-8 -122,-10 -8,-1 -19,-2 -19,-20 0,-12 9,-12 24,-12 48,0 50,-7 50,-17 0,-7 -9,-41 -14,-62 L 63,247 C 51,197 47,181 47,146 47,51 100,-11 174,-11 c 118,0 241,149 241,293 z m -72,44 C 343,267 310,152 292,114 259,47 213,11 174,11 c -34,0 -67,27 -67,101 0,19 0,38 16,101 l 22,92 c 6,22 6,24 15,35 49,65 94,80 120,80 36,0 63,-30 63,-94 z"
               stroke="#000000"
               stroke-opacity="1"
               stroke-width="8"
               fill="#000000"
               fill-opacity="1"
               id="path48" />
          </g>
        </g>
      </g>
    </g>
  </svg>
</svg>
