<?xml version="1.0" encoding="UTF-8" standalone="no"?>
<svg
   x="0"
   y="0"
   width="146.19536"
   height="82.520988"
   style="fill:none"
   version="1.1"
   id="svg53"
   xmlns="http://www.w3.org/2000/svg"
   xmlns:svg="http://www.w3.org/2000/svg">
  <defs
     id="defs53" />
  <path
     class="connection real"
     stroke-dasharray="none"
     d="m 115.69236,57.472667 c -4.08,-47.08 33.52,-54.61 13.7,-15.56"
     style="fill:none;fill-opacity:1;stroke:#000000;stroke-width:1px"
     id="path1" />
  <path
     d="m 130.93818,31.905607 q -0.25943,6.606 -2.16582,11.20706 2.70332,-4.18284 7.99225,-8.14941"
     id="path2"
     style="fill:none;stroke:#000000;stroke-width:1px" />
  <path
     class="connection real"
     stroke-dasharray="none"
     d="m 115.69236,57.472667 c -20.290002,17.5 -51.010002,10.12 -69.630002,3.82"
     style="fill:none;fill-opacity:1;stroke:#000000;stroke-width:1px"
     id="path3" />
  <path
     d="m 55.776534,61.196197 q -6.571657,0.72099 -11.404175,-0.48353 4.536834,2.05456 9.242401,6.69828"
     id="path4"
     style="fill:none;stroke:#000000;stroke-width:1px" />
  <path
     class="connection real"
     stroke-dasharray="none"
     d="m 34.772358,48.612667 c 18.72,-10.92 40.48,-7.39 61.95,0.58"
     style="fill:none;fill-opacity:1;stroke:#000000;stroke-width:1px"
     id="path5" />
  <path
     d="m 86.987838,48.987057 q 6.59033,-0.52342 11.384523,0.82561 -4.473123,-2.18981 -9.037193,-6.97268"
     id="path6"
     style="fill:none;stroke:#000000;stroke-width:1px" />
  <path
     class="real"
     d="m 97.552361,57.472667 c 0,-10.01 8.119999,-18.14 18.139999,-18.14 10.02,0 18.14,8.13 18.14,18.14 0,10.02 -8.12,18.14 -18.14,18.14 -10.02,0 -18.139999,-8.12 -18.139999,-18.14 z"
     style="fill:#ffffff;fill-opacity:1;stroke:#000000;stroke-width:1px"
     id="path7" />
  <path
     class="connection real"
     stroke-dasharray="none"
     d="m 34.772358,48.612667 c -13.07,-53.36 -58.68,-26.84 -17.28,-9.23"
     style="fill:none;fill-opacity:1;stroke:#000000;stroke-width:1px"
     id="path9" />
  <path
     d="m 7.4054196,38.872617 q 6.5990314,-0.3991 11.3669394,1.04005 -4.431053,-2.27374 -8.9041574,-7.14178"
     id="path10"
     style="fill:none;stroke:#000000;stroke-width:1px" />
  <circle
     cx="33.697357"
     cy="48.204315"
     r="15.913831"
     style="fill:#ffffff;fill-opacity:1;stroke:#000000;stroke-width:1px"
     id="circle14" />
  <circle
     cx="115.69736"
     cy="57.40432"
     r="15.913831"
     style="fill:#ffffff;fill-opacity:1;stroke:#000000;stroke-width:1px"
     id="circle15" />
  <path
     d="m 34.064683,47.560667 c 0,-0.884 -1.003,-1.122 -1.581,-1.122 -0.986,0 -1.581,0.901 -1.785,1.292 -0.425,-1.122 -1.343,-1.292 -1.836,-1.292 -1.768,0 -2.737,2.193 -2.737,2.618 0,0.17 0.204,0.17 0.204,0.17 0.136,0 0.187,-0.034 0.221,-0.187 0.578,-1.802 1.7,-2.227 2.278,-2.227 0.323,0 0.918,0.153 0.918,1.139 0,0.527 -0.289,1.666 -0.918,4.046 -0.272,1.054 -0.867,1.768 -1.615,1.768 -0.102,0 -0.493,0 -0.85,-0.221 0.425,-0.085 0.799,-0.442 0.799,-0.918 0,-0.459 -0.374,-0.595 -0.629,-0.595 -0.51,0 -0.935,0.442 -0.935,0.986 0,0.782 0.85,1.122 1.598,1.122 1.122,0 1.734,-1.19 1.785,-1.292 0.204,0.629 0.816,1.292 1.836,1.292 1.751,0 2.72,-2.193 2.72,-2.618 0,-0.17 -0.153,-0.17 -0.204,-0.17 -0.153,0 -0.187,0.068 -0.221,0.187 -0.561,1.819 -1.717,2.227 -2.261,2.227 -0.663,0 -0.935,-0.544 -0.935,-1.122 0,-0.374 0.102,-0.748 0.289,-1.496 l 0.578,-2.329 c 0.102,-0.442 0.493,-2.006 1.683,-2.006 0.085,0 0.493,0 0.85,0.221 -0.476,0.085 -0.816,0.51 -0.816,0.918 0,0.272 0.187,0.595 0.646,0.595 0.374,0 0.918,-0.306 0.918,-0.986 z"
     stroke="#000000"
     stroke-opacity="1"
     stroke-width="0.136"
     fill="#000000"
     fill-opacity="1"
     id="path18"
     style="font-family:LatinModern-Math, LatinModern, Asana-Math, Asana" />
  <path
     d="m 40.813033,53.197997 c 0,-0.952 -0.0595,-1.904 -0.476,-2.7846 -0.5474,-1.1424 -1.5232,-1.3328 -2.023,-1.3328 -0.714,0 -1.5827,0.3094 -2.0706,1.4161 -0.3808,0.8211 -0.4403,1.7493 -0.4403,2.7013 0,0.8925 0.0476,1.9635 0.5355,2.8679 0.5117,0.9639 1.3804,1.2019 1.9635,1.2019 0.6426,0 1.547,-0.2499 2.0706,-1.3804 0.3808,-0.8211 0.4403,-1.7493 0.4403,-2.6894 z m -0.9877,-0.1428 c 0,0.8925 0,1.7017 -0.1309,2.4633 -0.1785,1.1305 -0.8568,1.4875 -1.3923,1.4875 -0.4641,0 -1.1662,-0.2975 -1.3804,-1.4399 -0.1309,-0.714 -0.1309,-1.8088 -0.1309,-2.5109 0,-0.7616 0,-1.547 0.0952,-2.1896 0.2261,-1.4161 1.1186,-1.5232 1.4161,-1.5232 0.3927,0 1.1781,0.2142 1.4042,1.3923 0.119,0.6664 0.119,1.5708 0.119,2.3205 z"
     stroke="#000000"
     stroke-opacity="1"
     stroke-width="0.0952"
     fill="#000000"
     fill-opacity="1"
     id="path20"
     style="font-family:LatinModern-Math, LatinModern, Asana-Math, Asana" />
  <path
     d="m 75.938358,33.834997 c 0,-0.17 -0.153,-0.17 -0.204,-0.17 -0.17,0 -0.187,0.068 -0.238,0.306 -0.289,1.105 -0.595,2.108 -1.292,2.108 -0.459,0 -0.51,-0.442 -0.51,-0.782 0,-0.374 0.034,-0.51 0.221,-1.258 l 0.374,-1.53 0.612,-2.38 c 0.119,-0.476 0.119,-0.51 0.119,-0.578 0,-0.289 -0.204,-0.459 -0.493,-0.459 -0.408,0 -0.663,0.374 -0.714,0.748 -0.306,-0.629 -0.799,-1.088 -1.564,-1.088 -1.989,0 -4.097,2.499 -4.097,4.981 0,1.598 0.935,2.72 2.261,2.72 0.34,0 1.19,-0.068 2.21,-1.275 0.136,0.714 0.731,1.275 1.547,1.275 0.595,0 0.986,-0.391 1.258,-0.935 0.289,-0.612 0.51,-1.683 0.51,-1.683 z m -2.329,-3.213 c 0,0.102 -0.034,0.204 -0.051,0.289 l -0.85,3.332 c -0.085,0.306 -0.085,0.34 -0.34,0.629 -0.748,0.935 -1.445,1.207 -1.921,1.207 -0.85,0 -1.088,-0.935 -1.088,-1.598 0,-0.85 0.544,-2.941 0.935,-3.723 0.527,-1.003 1.292,-1.632 1.972,-1.632 1.105,0 1.343,1.394 1.343,1.496 z"
     stroke="#000000"
     stroke-opacity="1"
     stroke-width="0.136"
     fill="#000000"
     fill-opacity="1"
     id="path27"
     style="font-family:LatinModern-Math, LatinModern, Asana-Math, Asana" />
  <path
     d="m 116.06469,56.760667 c 0,-0.884 -1.003,-1.122 -1.581,-1.122 -0.986,0 -1.581,0.901 -1.785,1.292 -0.425,-1.122 -1.343,-1.292 -1.836,-1.292 -1.768,0 -2.737,2.193 -2.737,2.618 0,0.17 0.204,0.17 0.204,0.17 0.136,0 0.187,-0.034 0.221,-0.187 0.578,-1.802 1.7,-2.227 2.278,-2.227 0.323,0 0.918,0.153 0.918,1.139 0,0.527 -0.289,1.666 -0.918,4.046 -0.272,1.054 -0.867,1.768 -1.615,1.768 -0.102,0 -0.493,0 -0.85,-0.221 0.425,-0.085 0.799,-0.442 0.799,-0.918 0,-0.459 -0.374,-0.595 -0.629,-0.595 -0.51,0 -0.935,0.442 -0.935,0.986 0,0.782 0.85,1.122 1.598,1.122 1.122,0 1.734,-1.19 1.785,-1.292 0.204,0.629 0.816,1.292 1.836,1.292 1.751,0 2.72,-2.193 2.72,-2.618 0,-0.17 -0.153,-0.17 -0.204,-0.17 -0.153,0 -0.187,0.068 -0.221,0.187 -0.561,1.819 -1.717,2.227 -2.261,2.227 -0.663,0 -0.935,-0.544 -0.935,-1.122 0,-0.374 0.102,-0.748 0.289,-1.496 l 0.578,-2.329 c 0.102,-0.442 0.493,-2.006 1.683,-2.006 0.085,0 0.493,0 0.85,0.221 -0.476,0.085 -0.816,0.51 -0.816,0.918 0,0.272 0.187,0.595 0.646,0.595 0.374,0 0.918,-0.306 0.918,-0.986 z"
     stroke="#000000"
     stroke-opacity="1"
     stroke-width="0.136"
     fill="#000000"
     fill-opacity="1"
     id="path31"
     style="font-family:LatinModern-Math, LatinModern, Asana-Math, Asana" />
  <path
     d="m 122.32513,66.205997 v -0.3689 h -0.3808 c -1.071,0 -1.1067,-0.1309 -1.1067,-0.5712 v -6.6759 c 0,-0.2856 0,-0.3094 -0.2737,-0.3094 -0.7378,0.7616 -1.785,0.7616 -2.1658,0.7616 v 0.3689 c 0.238,0 0.9401,0 1.5589,-0.3094 v 6.1642 c 0,0.4284 -0.0357,0.5712 -1.1067,0.5712 h -0.3808 v 0.3689 c 0.4165,-0.0357 1.4518,-0.0357 1.9278,-0.0357 0.476,0 1.5113,0 1.9278,0.0357 z"
     stroke="#000000"
     stroke-opacity="1"
     stroke-width="0.0952"
     fill="#000000"
     fill-opacity="1"
     id="path33"
     style="font-family:LatinModern-Math, LatinModern, Asana-Math, Asana" />
  <path
     d="m 76.338358,79.834987 c 0,-0.17 -0.153,-0.17 -0.204,-0.17 -0.17,0 -0.187,0.068 -0.238,0.306 -0.289,1.105 -0.595,2.108 -1.292,2.108 -0.459,0 -0.51,-0.442 -0.51,-0.782 0,-0.374 0.034,-0.51 0.221,-1.258 l 0.374,-1.53 0.612,-2.38 c 0.119,-0.476 0.119,-0.51 0.119,-0.578 0,-0.289 -0.204,-0.459 -0.493,-0.459 -0.408,0 -0.663,0.374 -0.714,0.748 -0.306,-0.629 -0.799,-1.088 -1.564,-1.088 -1.989,0 -4.097,2.499 -4.097,4.981 0,1.598 0.935,2.72 2.261,2.72 0.34,0 1.19,-0.068 2.21,-1.275 0.136,0.714 0.731,1.275 1.547,1.275 0.595,0 0.986,-0.391 1.258,-0.935 0.289,-0.612 0.51,-1.683 0.51,-1.683 z m -2.329,-3.213 c 0,0.102 -0.034,0.204 -0.051,0.289 l -0.85,3.332 c -0.085,0.306 -0.085,0.34 -0.34,0.629 -0.748,0.935 -1.445,1.207 -1.921,1.207 -0.85,0 -1.088,-0.935 -1.088,-1.598 0,-0.85 0.544,-2.941 0.935,-3.723 0.527,-1.003 1.292,-1.632 1.972,-1.632 1.105,0 1.343,1.394 1.343,1.496 z"
     stroke="#000000"
     stroke-opacity="1"
     stroke-width="0.136"
     fill="#000000"
     fill-opacity="1"
     id="path40"
     style="font-family:LatinModern-Math, LatinModern, Asana-Math, Asana" />
  <path
     d="m 12.927358,7.072 c 0,-1.547 -0.901,-2.72 -2.261,-2.72 -0.7820004,0 -1.4790004,0.493 -1.9890004,1.02 l 1.258,-5.11700002 c 0,0 0,-0.187 -0.221,-0.187 -0.391,0 -1.632,0.136 -2.074,0.17 -0.136,0.017 -0.323,0.034 -0.323,0.34 0,0.204 0.153,0.204 0.408,0.204 0.816,0 0.85,0.119 0.85,0.28900002 0,0.119 -0.153,0.697 -0.238,1.054 L 6.9433573,7.667 c -0.204,0.8499998 -0.272,1.1219998 -0.272,1.7169998 0,1.6150002 0.9010003,2.6690002 2.1590003,2.6690002 2.0060004,0 4.0970004,-2.5330002 4.0970004,-4.981 z m -1.224,-0.748 c 0,1.003 -0.561,2.9579998 -0.867,3.6039998 C 10.275358,11.067 9.4933576,11.679 8.8303576,11.679 c -0.578,0 -1.139,-0.459 -1.139,-1.7170002 0,-0.323 0,-0.646 0.272,-1.7169998 l 0.374,-1.564 c 0.102,-0.374 0.102,-0.408 0.255,-0.595 0.833,-1.105 1.5980004,-1.36 2.0400004,-1.36 0.612,0 1.071,0.51 1.071,1.598 z"
     stroke="#000000"
     stroke-opacity="1"
     stroke-width="0.136"
     fill="#000000"
     fill-opacity="1"
     id="path44"
     style="font-family:LatinModern-Math, LatinModern, Asana-Math, Asana" />
  <path
     d="m 146.12736,23.872 c 0,-1.547 -0.901,-2.72 -2.261,-2.72 -0.782,0 -1.479,0.493 -1.989,1.02 l 1.258,-5.117 c 0,0 0,-0.187 -0.221,-0.187 -0.391,0 -1.632,0.136 -2.074,0.17 -0.136,0.017 -0.323,0.034 -0.323,0.34 0,0.204 0.153,0.204 0.408,0.204 0.816,0 0.85,0.119 0.85,0.289 0,0.119 -0.153,0.697 -0.238,1.054 l -1.394,5.542 c -0.204,0.85 -0.272,1.122 -0.272,1.717 0,1.615 0.901,2.669 2.159,2.669 2.006,0 4.097,-2.533 4.097,-4.981 z m -1.224,-0.748 c 0,1.003 -0.561,2.958 -0.867,3.604 -0.561,1.139 -1.343,1.751 -2.006,1.751 -0.578,0 -1.139,-0.459 -1.139,-1.717 0,-0.323 0,-0.646 0.272,-1.717 l 0.374,-1.564 c 0.102,-0.374 0.102,-0.408 0.255,-0.595 0.833,-1.105 1.598,-1.36 2.04,-1.36 0.612,0 1.071,0.51 1.071,1.598 z"
     stroke="#000000"
     stroke-opacity="1"
     stroke-width="0.136"
     fill="#000000"
     fill-opacity="1"
     id="path48"
     style="font-family:LatinModern-Math, LatinModern, Asana-Math, Asana" />
</svg>
